<?xml version="1.0" encoding="utf-8"?>
<!-- Generator: Adobe Illustrator 17.1.0, SVG Export Plug-In . SVG Version: 6.00 Build 0)  -->
<!DOCTYPE svg PUBLIC "-//W3C//DTD SVG 1.1//EN" "http://www.w3.org/Graphics/SVG/1.1/DTD/svg11.dtd">
<svg version="1.1" id="Layer_1" xmlns="http://www.w3.org/2000/svg" xmlns:xlink="http://www.w3.org/1999/xlink" x="0px" y="0px"
	 viewBox="0 0 539.2 298.2" enable-background="new 0 0 539.2 298.2" xml:space="preserve">
<polygon fill="#86D4EF" stroke="#000000" stroke-width="10" stroke-miterlimit="10" points="440,145 417.9,145 426.9,267.3 
	440,267.3 453.2,267.3 462.1,145 "/>
<rect x="88.9" y="54.3" fill="#FFFFFF" stroke="#000000" stroke-width="10" stroke-miterlimit="10" width="296.7" height="213"/>
<path fill="#86D4EF" stroke="#000000" stroke-width="10" stroke-miterlimit="10" d="M476,114.3c0-19.9-16.1-36-36-36
	c-19.9,0-36,16.1-36,36c0,13,6.9,24.4,17.2,30.7h37.5C469.1,138.7,476,127.3,476,114.3z"/>
<g>
	<g>
		<path d="M194.2,116.1l0.3,3.2l0,0.4c0.7,5.8,1.4,14.6,2.2,26.2l0.2,2.6l7.7-0.5c1.5,0.9,2.3,1.8,2.4,2.7c0.1,0.9-0.1,1.6-0.6,2.2
			c-0.5,0.6-0.9,0.9-1.5,1s-1.1,0-1.8-0.2c-0.5,0.2-1.2,0.3-1.9,0.3l-3.3,0.1c-0.6,0.9-1.5,1.3-2.5,1.4c-1,0.1-1.9-0.2-2.7-0.8
			c-0.7-0.6-1.2-1.3-1.2-2.2l0.3-4.5c-0.5-7.6-1.6-19.1-3.4-34.3s-2.8-26.7-3.4-34.3c0-0.6,0.2-1.1,0.6-1.6c0.5-0.4,1.1-0.6,1.8-0.7
			c0.7-0.1,1.4,0.2,2.1,0.7c0.6,0.5,1,1.2,1.1,2L194.2,116.1z"/>
		<path d="M195,156.4c-1.1,0-2.1-0.3-3-1c-1-0.8-1.5-1.7-1.6-2.9l0-0.1l0.3-4.5c-0.5-7.6-1.6-19.1-3.3-34.2
			c-1.7-15.2-2.8-26.7-3.4-34.3c-0.1-0.9,0.3-1.8,1-2.4c0.6-0.6,1.4-0.9,2.4-0.9c1-0.1,1.9,0.2,2.8,0.9c0.9,0.7,1.4,1.6,1.4,2.7
			l3.9,39.8c0.7,5.8,1.4,14.6,2.2,26.2l0.1,1.6l7-0.5l0.3,0.2c1.8,1.1,2.8,2.2,2.8,3.5c0.1,1.1-0.2,2.1-0.8,2.9
			c-0.6,0.8-1.4,1.3-2.2,1.4c-0.6,0-1.2,0-1.9-0.2c-0.6,0.1-1.2,0.2-1.9,0.3l-2.8,0.1c-0.8,0.9-1.7,1.3-2.9,1.4
			C195.3,156.4,195.2,156.4,195,156.4z M192.5,152.5c0.1,0.5,0.3,1,0.8,1.4c0.6,0.4,1.2,0.6,2,0.6c0.7-0.1,1.3-0.4,1.8-1l0.3-0.4
			l3.8-0.1c0.6,0,1.2-0.1,1.6-0.3l0.3-0.1l0.3,0.1c0.6,0.2,1.1,0.2,1.5,0.2c0.3,0,0.5-0.3,0.7-0.6c0.3-0.4,0.4-0.9,0.4-1.6
			c0-0.2-0.2-0.8-1.6-1.7l-8.4,0.6l-0.2-3.6c-0.8-11.6-1.5-20.4-2.2-26.2l0-0.5l-0.3-3.2L189.7,80c0-0.6-0.3-1-0.7-1.3
			c-0.4-0.3-0.8-0.5-1.3-0.5l-0.1,0c-0.5,0-0.9,0.2-1.2,0.4c-0.2,0.2-0.3,0.4-0.3,0.7c0.5,7.6,1.6,19.1,3.3,34.3
			c1.7,15.2,2.8,26.7,3.4,34.3l0,0.1L192.5,152.5z"/>
	</g>
	<g>
		<path d="M220.3,118.9l2,21.4l0.2,3l0.1,2.8l1.3-0.1l2.9-0.3c2.8-0.2,4.2,0.6,4.3,2.2c0.1,0.9-0.2,1.6-0.9,2.3
			c-0.6,0.7-1.4,1-2.3,1.1l-4.4,0.3c-3.1,0.2-5,0.3-5.9,0.2c-0.5,0.1-0.9,0.2-1.2,0.2c-2.4,0.2-3.6-0.5-3.7-2c0-0.6,0.1-1.2,0.5-1.8
			s0.7-0.9,1.1-1l2.9-0.2l0.1-1.3l-2.1-21.4l-1-22.5c-0.3-3.8-0.7-7.4-1.2-10.8l-1.9,0.1l-2.3,0.3c-1,0.1-1.8-0.1-2.4-0.4
			c-0.6-0.3-0.9-1-1-2.1c-0.1-1.5,1.5-2.4,4.8-2.7l12-0.8c2.7-0.2,4.1,0.4,4.2,1.8c0,0.6-0.2,1.2-0.8,1.8c-0.6,0.6-1.2,0.9-2,0.9
			l-5.2,0.4c0.5,2.7,0.8,5.8,1,9.3L220.3,118.9z"/>
		<path d="M215.8,153c-3.4,0-4-1.9-4.1-3c-0.1-0.8,0.1-1.6,0.6-2.4c0.5-0.8,1.1-1.3,1.8-1.4l2.1-0.1l0-0.4l-2.1-21.3l-1-22.5
			c-0.2-3.4-0.6-6.7-1.1-9.8l-1,0.1l-2.3,0.3c-0.2,0-0.4,0-0.6,0c-0.9,0-1.7-0.2-2.4-0.6c-0.9-0.5-1.4-1.5-1.5-2.9
			c-0.1-2.2,1.8-3.4,5.7-3.7l12-0.8c4.2-0.3,5.2,1.4,5.3,2.8c0.1,0.9-0.3,1.8-1.1,2.6c-0.7,0.7-1.6,1.2-2.6,1.2l-4.1,0.3
			c0.4,2.5,0.7,5.3,0.9,8.3l0.8,19.3l1.9,21.3l0.3,4.8l0.3,0l2.9-0.3c0.3,0,0.6,0,0.9,0c3.7,0,4.4,2,4.5,3.2c0.1,1.1-0.3,2.2-1.1,3
			c-0.8,0.8-1.8,1.3-2.9,1.4l-4.4,0.3c-3,0.2-4.9,0.3-5.9,0.2c-0.5,0.1-0.9,0.2-1.2,0.2C216.3,153,216.1,153,215.8,153z
			 M214.4,148.2c0.1,0-0.1,0.1-0.3,0.5c-0.2,0.4-0.4,0.8-0.3,1.2c0,0.4,0.1,1.1,2.1,1.1c0.2,0,0.4,0,0.6,0c0.2,0,0.5-0.1,1.1-0.2
			l0.1,0l0.1,0c0.8,0.1,2.8,0,5.7-0.2l4.4-0.3c0.6,0,1.2-0.3,1.6-0.8c0.4-0.5,0.6-0.9,0.6-1.5c0-0.4-0.1-1.3-2.5-1.3
			c-0.2,0-0.5,0-0.7,0l-5.2,0.5l-0.2-3.8l-0.2-3l-1.9-21.3l-0.8-19.3c-0.2-3.4-0.6-6.5-1-9.2l-0.2-1.1l6.3-0.4
			c0.5,0,0.9-0.2,1.3-0.6c0.5-0.5,0.5-0.9,0.5-1c0-0.7-1.2-1-3.2-0.9l-12,0.8c-1.2,0.1-4,0.4-3.9,1.6c0,0.5,0.1,1.1,0.5,1.3
			c0.4,0.2,1,0.3,1.8,0.3l2.3-0.3l2.9-0.2l0.1,0.9c0.6,3.4,1,7,1.2,10.9l1,22.5l2.2,21.4l-0.2,2.3L214.4,148.2z"/>
	</g>
	<g>
		<path d="M249.1,138.4c1-7.5,2.1-18.3,3.2-32.5c1.2-14.2,1.9-22.4,2.1-24.7l2.3-0.2c0.6,0,1.1,0.1,1.6,0.5c0.5,0.4,0.8,0.9,0.8,1.5
			c0.3,3.8-0.2,8.6-1.4,14.4c-1.2,5.8-1.9,9.6-2.1,11.3c-0.2,1.7-0.3,4.4-0.3,8.1c0,3.7-0.1,7.4-0.3,11c-0.1,3.6-0.4,7.3-0.8,11
			c-0.4,3.8-1.1,6.8-2.2,9.2c-1,2.4-2.4,3.6-4,3.7l-2-1.4c-0.6-8.2-1.9-16.4-4-24.8c-2.1-8.4-4.1-15.4-6-21.1
			c-1.9-5.7-3.1-9.3-3.8-10.8c-1.4-3.6-2.2-5.8-2.2-6.7c-0.1-0.9,0.1-1.6,0.6-2.1c0.5-0.5,1-0.8,1.7-0.8c1.9-0.1,3.9,3,6,9.3
			c2.1,6.3,3.8,12.3,5.1,17.9c1.2,5.6,2.2,9.8,2.8,12.8c0.6,3,1.2,5.9,1.8,8.9C248.6,136.1,249,137.8,249.1,138.4z"/>
		<path d="M247.8,152.9l-2.7-1.9l0-0.5c-0.5-8.1-1.9-16.4-4-24.7c-2.1-8.3-4.1-15.4-6-21c-1.9-5.6-3.1-9.2-3.7-10.7
			c-2-4.9-2.3-6.3-2.3-7c-0.1-1.2,0.2-2.1,0.9-2.8c0.7-0.7,1.4-1,2.3-1.1c2.5-0.2,4.6,2.9,7,10c2.1,6.3,3.9,12.4,5.1,18
			c1.2,5.6,2.2,9.8,2.8,12.8c0.6,2.7,1.1,5.5,1.7,8.1c0.8-6.9,1.6-15.7,2.5-26.3c1.2-14.3,1.9-22.4,2.2-24.7l0.1-0.8l3.1-0.2
			c0.8-0.1,1.6,0.2,2.3,0.7c0.7,0.6,1.1,1.3,1.2,2.2c0.3,3.8-0.2,8.8-1.5,14.7c-1.2,5.8-1.9,9.5-2.1,11.2c-0.2,1.6-0.3,4.3-0.3,8
			c0,3.7-0.1,7.4-0.3,11c-0.1,3.6-0.4,7.3-0.8,11.1c-0.4,3.8-1.2,7-2.2,9.5c-1.2,2.7-2.8,4.2-4.9,4.3L247.8,152.9z M247.1,149.9
			l1.3,0.9c1.1-0.2,2.1-1.3,2.8-3.1c1-2.3,1.7-5.3,2.1-8.9c0.4-3.7,0.7-7.4,0.8-11c0.1-3.6,0.2-7.3,0.3-11c0-3.8,0.1-6.5,0.3-8.2
			c0.2-1.7,0.9-5.4,2.1-11.4c1.2-5.7,1.7-10.5,1.4-14.1c0-0.3-0.2-0.6-0.4-0.8c-0.3-0.2-0.6-0.3-0.9-0.3l-1.5,0.1
			c-0.3,3.1-1,10.9-2.1,23.8c-1.2,14.1-2.3,25-3.2,32.5l-0.7,5.4l-1.3-5.3c-0.1-0.6-0.5-2.4-1.1-5.4c-0.6-2.9-1.2-5.9-1.8-8.9
			c-0.6-3-1.6-7.2-2.8-12.8c-1.2-5.5-2.9-11.5-5-17.8c-2.7-8-4.5-8.6-5-8.6c-0.4,0-0.7,0.2-1,0.5c-0.1,0.1-0.4,0.4-0.3,1.3
			c0,0.4,0.4,1.8,2.2,6.4c0.6,1.5,1.9,5.2,3.8,10.8c1.9,5.7,3.9,12.8,6.1,21.2C245.2,133.7,246.5,141.9,247.1,149.9z"/>
	</g>
	<g>
		<path d="M266.6,98.3l-1.1-8.5c-0.3-4.8,0.9-7.2,3.7-7.4c1.8-0.1,4.3,0.1,7.5,0.8c3.2,0.6,4.8,1.6,4.9,2.9c0.1,1.4-0.8,2.5-2.7,3.4
			c-3.2-0.8-5.8-1.3-7.8-1.4c0.2,1.4,0.3,2.9,0.4,4.3l0.5,14.5c0,0.1,0.1,0.6,0.4,1.6l3.6-0.4c3.2-0.2,4.9,0.6,5.1,2.4
			c0,0.7-0.2,1.4-0.8,2c-0.6,0.6-1.3,0.9-2.2,1s-1.9,0.1-2.9,0l-2.6,0.2c0.4,2.5,0.6,5.1,0.8,7.6l0.8,18.3c0.3,3.8,0.5,5.7,0.6,5.6
			l7.4-0.8c2.6-0.2,3.9,0.6,4,2.2c0.1,1-0.3,1.8-1.2,2.3c-0.9,0.5-1.8,0.8-3,0.9l-8.5,0.6c-0.9,0.1-1.7-0.2-2.5-0.7
			c-0.8-0.6-1.2-1.3-1.3-2.1l-0.2-2.7l-1.8-17L266.6,98.3z"/>
		<path d="M273.4,151.3c-1,0-1.9-0.3-2.8-0.9c-1-0.7-1.6-1.7-1.7-2.8l-0.2-2.7l-1.8-16.9l-1.3-29.5l-1.1-8.4
			c-0.5-6.8,2.3-8.4,4.7-8.6c1.9-0.1,4.5,0.1,7.7,0.8c1.4,0.3,5.5,1.1,5.7,3.8c0.1,1.3-0.4,3-3.3,4.3l-0.3,0.1l-0.3-0.1
			c-2.5-0.7-4.6-1.1-6.4-1.3c0.1,1.1,0.2,2.1,0.3,3.2l0.5,14.5c0,0.1,0.1,0.3,0.1,0.6l2.7-0.3c0.4,0,0.8,0,1.1,0c4,0,5,1.8,5.1,3.4
			c0.1,1-0.3,1.9-1,2.7c-0.7,0.8-1.7,1.2-2.8,1.3c-0.9,0.1-1.9,0.1-3,0l-1.4,0.1c0.3,2.2,0.5,4.4,0.7,6.6l0.8,18.3
			c0.2,2.6,0.3,3.9,0.4,4.6l6.5-0.7c0.3,0,0.6,0,0.8,0c3.6,0,4.2,2,4.3,3.2c0.1,1.4-0.5,2.5-1.7,3.2c-1,0.6-2.1,1-3.4,1l-8.5,0.6
			C273.6,151.3,273.5,151.3,273.4,151.3z M270.2,83.4c-0.3,0-0.6,0-0.9,0c-0.8,0.1-3.2,0.2-2.8,6.4l1.1,8.4l1.3,29.6l1.8,16.9
			l0.2,2.7c0.1,0.5,0.3,1,0.9,1.4c0.6,0.4,1.2,0.6,1.8,0.6l8.5-0.6c0.9-0.1,1.8-0.3,2.5-0.8c0.5-0.3,0.7-0.7,0.7-1.4
			c0-0.4-0.1-1.3-2.3-1.3c-0.2,0-0.4,0-0.6,0l-7.5,0.8h0c-1.1,0-1.2-0.4-1.6-6.6l-0.8-18.3c-0.2-2.5-0.4-5-0.8-7.5l-0.2-1.1l3.7-0.3
			l0.1,0c1,0.1,2,0.1,2.8,0c0.6,0,1.1-0.3,1.5-0.7c0.4-0.4,0.5-0.8,0.5-1.2c0-0.4-0.1-1.5-3.1-1.5c-0.3,0-0.6,0-0.9,0l-4.4,0.5
			l-0.2-0.8c-0.4-1.5-0.4-1.6-0.4-1.7l-0.5-14.5c-0.1-1.4-0.2-2.8-0.4-4.2L270,87l1.2,0.1c2,0.1,4.5,0.5,7.6,1.3
			c1.9-1,1.9-1.9,1.8-2.2c0-0.3-0.4-1.3-4.1-2C273.9,83.7,271.8,83.4,270.2,83.4z"/>
	</g>
	<g>
		<path d="M145.4,179.1l0.7,13l2.5,23.1l2.1,18c0.2,3.3-0.6,5-2.6,5.1c-1.1,0.1-2-0.4-2.6-1.4c-0.6-1-0.9-2.2-1-3.4l-0.3-16.1
			c-0.2-3.5-0.8-8.7-1.8-15.6c-0.9-7-1.5-12.2-1.8-15.6l-0.5-8.8c-0.3-4.8-0.9-7.9-1.6-9.3l-5.4,0.9c-0.9,0.1-1.6-0.1-2.3-0.6
			c-0.7-0.5-1.1-1.1-1.1-1.9c-0.1-0.8,0.7-1.5,2.3-2.2c1.6-0.7,3.5-1.3,5.8-1.7c4-0.7,7.4-1.2,10.1-1.4c0.8-0.1,1.6,0.2,2.3,0.7
			s1.1,1.2,1.1,2c0.1,0.8-0.2,1.5-0.8,2c-0.6,0.5-1.3,0.8-2.1,0.9l-3.6,0c-0.5,0-0.8,0.1-1,0.1C144.6,170.6,145.1,174.7,145.4,179.1
			z"/>
		<path d="M147.8,239.4c-1.4,0-2.5-0.7-3.2-1.9c-0.7-1.1-1.1-2.4-1.2-3.9l-0.3-16.2c-0.2-3.4-0.8-8.6-1.8-15.5
			c-0.9-6.9-1.5-12.2-1.8-15.7l-0.5-8.8c-0.3-4.7-0.8-7.1-1.2-8.3l-4.6,0.8c-0.2,0-0.3,0-0.4,0c-0.9,0-1.8-0.3-2.6-0.8
			c-1-0.6-1.5-1.6-1.6-2.7c-0.1-1.9,2.1-2.9,2.9-3.2c1.7-0.7,3.7-1.3,6-1.7c4-0.7,7.5-1.2,10.2-1.4c1.1-0.1,2,0.2,2.9,0.8
			c1,0.7,1.5,1.6,1.6,2.7c0.1,1.1-0.3,2.1-1.1,2.8c-0.7,0.7-1.6,1.1-2.7,1.1l-3.5,0c0.6,3.6,1.1,7.4,1.4,11.4l0.7,13l2.5,23.1
			l2.1,18c0.1,1.9-0.1,3.3-0.6,4.3c-0.6,1.2-1.6,1.8-2.9,1.9C148,239.4,147.9,239.4,147.8,239.4z M139.2,166.9l0.3,0.6
			c0.8,1.5,1.3,4.7,1.7,9.7l0.5,8.8c0.2,3.4,0.8,8.7,1.8,15.6c0.9,6.9,1.5,12.2,1.8,15.7l0.3,16.2c0.1,1.1,0.4,2.1,0.9,3
			c0.4,0.7,0.9,1,1.6,0.9c0.6,0,1-0.3,1.3-0.8c0.2-0.5,0.5-1.4,0.4-3.2l-2.1-18l-2.5-23.1l-0.7-13.1c-0.3-4.3-0.8-8.4-1.5-12.2
			l-0.2-1l1-0.2c0.3-0.1,0.7-0.1,1.2-0.1l3.7-0.1c0.6,0,1.1-0.2,1.5-0.6c0.3-0.3,0.5-0.7,0.4-1.2c0-0.5-0.3-0.9-0.7-1.2
			c-0.5-0.4-1.1-0.5-1.7-0.5c-2.7,0.2-6.1,0.6-10,1.4c-2.2,0.4-4.1,0.9-5.6,1.6c-1.4,0.6-1.7,1.1-1.7,1.2c0,0.5,0.2,0.8,0.7,1.1
			c0.5,0.3,1.1,0.5,1.7,0.4L139.2,166.9z"/>
	</g>
	<g>
		<path d="M158.2,206.1l-0.2-3.8c0-0.3-0.1-0.5-0.2-0.5l-0.1-1.8c-0.7-10.6-0.6-18.1,0.3-22.7c0.8-3.8,1.6-6.2,2.5-7.2
			c0.9-0.9,1.8-1.5,2.7-1.5c7.8-0.5,13.5,3,16.9,10.7c2,4.4,3.2,9.9,3.7,16.6l0.1,0.7l1,11.4c1.3,19.3-2.5,29.3-11.5,29.9
			c-3.7,0.3-6.7-1.6-8.9-5.6c-2.1-3.8-3.6-7.6-4.2-11.4C159.2,215.2,158.5,210.3,158.2,206.1z M163.2,191.9l0.1,9.3
			c0.7,9.7,2,18.2,4.1,25.3c2,4.1,3.7,6.5,5.3,7.2c1.2-0.1,2.3-0.6,3.2-1.7c0.9-1.1,1.6-2.4,2.1-4.1c0.5-1.7,0.8-3.5,1.1-5.3
			c0.2-1.8,0.4-3.8,0.4-5.9c0.1-3.6,0-6.7-0.1-9.2c-0.2-2.5-0.7-6.4-1.5-11.6c-0.8-5.2-1.3-9.1-1.5-11.6l-0.1-1.8
			c-0.2-2.5-1.2-4.6-2.9-6.4c-1.7-1.8-3.7-2.6-6.1-2.5c-2.3,0.2-3.7,1.6-4.3,4.2c-0.5,2.2-0.6,4.9-0.4,8.1L163.2,191.9z"/>
		<path d="M172.8,238.9c-3.8,0-6.8-2.1-9.1-6.1c-2.2-3.9-3.6-7.8-4.4-11.7c-1.1-5.7-1.8-10.7-2.1-14.9l-0.1-3.4H157l-0.2-2.8
			c-0.7-10.6-0.6-18.3,0.3-22.9c0.8-4.1,1.7-6.6,2.7-7.7c1.1-1.1,2.2-1.8,3.4-1.8c8.2-0.6,14.3,3.2,17.9,11.3
			c2.1,4.5,3.3,10.2,3.8,16.9l0.1,0.7l1,11.4c0.7,9.8,0,17.3-1.9,22.4c-2.1,5.4-5.6,8.2-10.4,8.6C173.3,238.9,173,238.9,172.8,238.9
			z M158.9,201.3c0.1,0.2,0.2,0.5,0.2,0.8l0.2,3.9c0.3,4.1,1,9.1,2,14.7c0.7,3.7,2.1,7.4,4.1,11.1c2.1,3.6,4.7,5.3,8,5.1
			c4.1-0.3,6.9-2.7,8.7-7.3c1.8-4.8,2.5-12.1,1.8-21.5l-1-12.1c-0.4-6.5-1.7-11.9-3.6-16.2c-3.3-7.3-8.6-10.6-16-10.1
			c-0.7,0-1.3,0.5-2.1,1.2c-0.4,0.5-1.3,1.9-2.2,6.7c-0.9,4.4-1,12-0.3,22.4L158.9,201.3z M172.6,234.7l-0.2-0.1
			c-1.8-0.8-3.7-3.2-5.8-7.6l-0.1-0.2c-2.1-7.2-3.5-15.8-4.1-25.5l-0.1-9.4l-0.5-5.9c-0.2-3.3-0.1-6.1,0.4-8.4
			c0.8-3.9,3.3-4.9,5.2-5c2.7-0.2,5,0.8,6.9,2.8c1.8,2,2.9,4.3,3.1,7l0.1,1.8c0.2,2.5,0.7,6.4,1.5,11.5c0.8,5.2,1.3,9.1,1.5,11.7
			c0.2,2.5,0.2,5.7,0.1,9.3c-0.1,2.1-0.2,4.1-0.4,6c-0.3,1.9-0.7,3.7-1.1,5.5c-0.5,1.8-1.3,3.4-2.3,4.5c-1.1,1.3-2.4,1.9-3.9,2
			L172.6,234.7z M168.4,226.2c2.1,4.4,3.6,6,4.5,6.5c0.8-0.1,1.6-0.6,2.3-1.3c0.8-0.9,1.4-2.2,1.9-3.7c0.4-1.7,0.8-3.4,1.1-5.2
			c0.2-1.8,0.4-3.7,0.4-5.7c0.1-3.5,0-6.6-0.1-9.1c-0.2-2.5-0.7-6.4-1.4-11.5c-0.8-5.2-1.3-9.1-1.5-11.7l-0.1-1.8
			c-0.2-2.2-1.1-4.1-2.6-5.8c-1.5-1.6-3.2-2.3-5.3-2.2c-1.2,0.1-2.8,0.5-3.4,3.4c-0.5,2.1-0.6,4.7-0.4,7.8l0.5,5.9l0.1,9.4
			C165,210.7,166.4,219.2,168.4,226.2z"/>
	</g>
	<g>
		<path d="M190.2,193.9l-0.7-18.8c-0.2-3.1,0.8-5.7,3.2-7.7l0,0.6c0.3-0.2,0.5-0.3,0.7-0.3c1.6-0.1,3.7,2.5,6.5,7.7
			c2.7,5.3,5.3,11.1,7.6,17.4c2.3,6.4,4.7,12.8,7,19.3c2.3,6.5,3.8,10.3,4.3,11.4c0.4-14.2-0.1-31.2-1.5-51.3l-0.3-2.7
			c-0.1-2,0.6-3.1,2.3-3.2c1-0.1,1.7,0.3,2.2,1c0.5,0.8,0.8,1.7,0.9,2.7l0.5,7.6c0.5,7.9,0.8,18.5,1.1,31.7
			c0.3,13.2-0.1,20.8-1.1,22.5c-1.8,0.7-3.1,1-3.8,1.1c-0.7,0-1.3-0.2-1.7-0.6c-0.4-0.4-0.8-1.2-1.1-2.1c-0.3-1-0.5-1.6-0.7-1.9
			l0-0.4c-0.2-2.5-3.1-10.2-8.9-23.3c-5.7-13-9.9-22-12.4-26.8l3.5,50.7c0.1,0.1,0.2,0.3,0.4,0.7c0.5,0.7,0.7,1.4,0.8,2
			c0,0.6-0.2,1.3-0.8,1.9c-0.6,0.7-1.3,1-2.1,1.1c-2.2,0.1-3.4-1.8-3.7-5.9L190.2,193.9z"/>
		<path d="M196.3,235.3c-2.7,0-4.2-2.3-4.5-6.9l-2.6-34.5l-0.7-18.9c-0.2-3.4,1-6.3,3.5-8.5l1.5-1.3l0.1,1.4c2,0.1,4.2,2.6,7.2,8.3
			c2.7,5.3,5.3,11.2,7.7,17.6c2.4,6.4,4.7,12.9,7,19.3c1,2.7,1.8,5,2.5,6.7c0.2-13.1-0.4-28.6-1.6-46.2l-0.3-2.6
			c-0.1-1.3,0.1-2.3,0.7-3c0.6-0.8,1.4-1.2,2.6-1.3c1.3-0.1,2.4,0.4,3.1,1.5c0.6,0.9,1,2,1.1,3.2l0.5,7.6c0.5,7.9,0.8,18.6,1.1,31.8
			c0.4,18-0.5,21.8-1.2,23l-0.2,0.3l-0.3,0.1c-1.9,0.7-3.2,1.1-4,1.2c-1,0.1-1.9-0.3-2.5-0.9c-0.5-0.6-0.9-1.4-1.3-2.5
			c-0.4-1.2-0.6-1.6-0.6-1.7l-0.1-0.3l0-0.7c-0.1-1.7-1.8-7-8.8-22.9c-4.2-9.6-7.6-17.1-10.1-22.3l3.1,45.4c0.1,0.1,0.2,0.2,0.3,0.4
			c0.6,0.8,0.9,1.7,1,2.5c0.1,0.9-0.3,1.8-1,2.6c-0.7,0.9-1.7,1.4-2.8,1.4C196.5,235.3,196.4,235.3,196.3,235.3z M191.9,169.7
			c-1,1.5-1.5,3.2-1.3,5.2l0.7,18.9l2.5,34.5c0.2,3.4,1.1,5.1,2.7,5c0.6,0,1-0.3,1.4-0.7c0.4-0.5,0.6-0.9,0.5-1.2
			c0-0.4-0.2-0.9-0.6-1.5c-0.2-0.3-0.4-0.6-0.5-0.7l-0.1-0.2l0-0.2l-3.8-55.6l2.2,4.3c2.5,4.9,6.7,13.9,12.4,26.9
			c5.8,13.2,8.8,21,8.9,23.6l0,0.1l0,0.2c0.1,0.3,0.4,0.9,0.7,1.9c0.3,1,0.6,1.5,0.8,1.7c0.1,0.1,0.3,0.3,0.7,0.3l0.1,0
			c0.4,0,1.2-0.2,3.1-0.9c0.5-1.4,1.1-6.1,0.8-21.7c-0.3-13.1-0.6-23.8-1.1-31.7l-0.5-7.6c-0.1-0.9-0.3-1.6-0.7-2.2
			c-0.3-0.5-0.7-0.6-1.3-0.6c-0.8,0.1-1,0.4-1.1,0.5c-0.2,0.3-0.3,0.9-0.3,1.6l0.3,2.6c1.4,20,1.9,37.3,1.5,51.4l-0.1,4.1L218,224
			c-0.6-1.2-2-4.9-4.4-11.5c-2.3-6.4-4.7-12.9-7-19.3c-2.3-6.3-4.9-12.1-7.6-17.3c-3.6-6.9-5.2-7.2-5.5-7.2c0,0-0.1,0-0.2,0.1
			l-1.5,1.1L191.9,169.7z"/>
	</g>
	<g>
		<path d="M242.3,197.6l2,21.4l0.2,3l0.1,2.8l1.3-0.1l2.9-0.3c2.8-0.2,4.2,0.6,4.3,2.2c0.1,0.9-0.2,1.6-0.9,2.3
			c-0.6,0.7-1.4,1-2.3,1.1l-4.4,0.3c-3.1,0.2-5,0.3-5.9,0.2c-0.5,0.1-0.9,0.2-1.2,0.2c-2.4,0.2-3.6-0.5-3.7-2c0-0.6,0.1-1.2,0.5-1.8
			s0.7-0.9,1.1-1l2.9-0.2l0.1-1.3l-2.1-21.4l-1-22.5c-0.3-3.8-0.7-7.4-1.2-10.8l-1.9,0.1l-2.3,0.3c-1,0.1-1.8-0.1-2.4-0.4
			c-0.6-0.3-0.9-1-1-2.1c-0.1-1.5,1.5-2.4,4.8-2.7l12-0.8c2.7-0.2,4.1,0.4,4.2,1.8c0,0.6-0.2,1.2-0.8,1.8c-0.6,0.6-1.2,0.9-2,0.9
			l-5.2,0.4c0.5,2.7,0.8,5.8,1,9.3L242.3,197.6z"/>
		<path d="M237.8,231.7c-3.4,0-4-1.9-4.1-3c-0.1-0.8,0.1-1.6,0.6-2.4c0.5-0.8,1.1-1.3,1.8-1.4l2.1-0.1l0-0.4l-2.1-21.3l-1-22.5
			c-0.2-3.4-0.6-6.7-1.1-9.8l-1,0.1l-2.3,0.3c-0.2,0-0.4,0-0.6,0c-0.9,0-1.7-0.2-2.4-0.6c-0.9-0.5-1.4-1.5-1.5-2.9
			c-0.1-2.2,1.8-3.4,5.7-3.7l12-0.8c4.2-0.3,5.2,1.4,5.3,2.8c0.1,0.9-0.3,1.8-1.1,2.6c-0.7,0.7-1.6,1.2-2.6,1.2l-4.1,0.3
			c0.4,2.5,0.7,5.3,0.9,8.3l0.8,19.3l1.9,21.3l0.3,4.8l0.3,0l2.9-0.3c0.3,0,0.6,0,0.9,0c3.7,0,4.4,2,4.5,3.2c0.1,1.1-0.3,2.2-1.1,3
			c-0.8,0.8-1.8,1.3-2.9,1.4l-4.4,0.3c-3,0.2-4.9,0.3-5.9,0.2c-0.5,0.1-0.9,0.2-1.2,0.2C238.3,231.7,238.1,231.7,237.8,231.7z
			 M236.4,226.8c0.1,0-0.1,0.1-0.3,0.5c-0.2,0.4-0.4,0.8-0.3,1.2c0,0.4,0.1,1.1,2.1,1.1c0.2,0,0.4,0,0.6,0c0.2,0,0.5-0.1,1.1-0.2
			l0.1,0l0.1,0c0.8,0.1,2.8,0,5.7-0.2l4.4-0.3c0.6,0,1.2-0.3,1.6-0.8c0.4-0.5,0.6-0.9,0.6-1.5c0-0.4-0.1-1.3-2.5-1.3
			c-0.2,0-0.5,0-0.7,0l-5.2,0.5l-0.2-3.8l-0.2-3l-2-21.3l-0.8-19.3c-0.2-3.4-0.6-6.5-1-9.2l-0.2-1.1l6.3-0.4c0.5,0,0.9-0.2,1.3-0.6
			c0.5-0.5,0.5-0.9,0.5-1c0-0.7-1.2-1-3.2-0.9l-12,0.8c-1.2,0.1-4,0.4-3.9,1.6c0,0.4,0.1,1.1,0.5,1.3c0.4,0.2,1,0.3,1.8,0.3l2.3-0.3
			l2.9-0.2l0.1,0.9c0.6,3.4,1,7,1.2,10.9l1,22.5l2.2,21.4l-0.2,2.3L236.4,226.8z"/>
	</g>
	<g>
		<path d="M281.4,208.3l1.2,10.6c0.2,3.3-0.8,5.9-2.9,7.9c-2.2,1.9-4.8,3-7.9,3.2c-4.7,0.3-8.2-1.2-10.5-4.5
			c-1.7-2.4-2.8-4.6-3.3-6.8c-0.5-2.2-0.9-3.8-1.2-5c-0.2-1.2-0.5-2.8-0.7-4.7c-0.3-2.8-0.5-5-0.7-6.7l-0.3-4.3
			c-0.6-9.5-0.8-15.5-0.4-18c0.4-2.5,0.9-4.9,1.4-7.1c0.6-2.2,1.3-3.9,2.3-5.2c2.3-3.1,5.1-4.7,8.5-4.9c3.3-0.2,5,0.5,5.1,2.2
			c0.1,0.8-0.2,1.5-0.9,2c-0.6,0.6-1.3,0.9-2.2,0.9l-2.1-0.1c-2.3,0.2-3.9,2.6-4.8,7.2c-1.3,6.7-1.6,14.7-0.9,23.9
			c0.4,6.3,0.9,10.7,1.5,13c0.6,2.4,1.2,4.3,1.8,5.9c0.6,1.6,1.2,2.9,1.9,3.8c1.7,2.2,3.8,3.3,6.2,3.1c3.2-0.2,4.5-5.7,3.8-16.4
			l-0.3-4.6c-0.5-0.2-1.3-0.3-2.4-0.2l-2,0.2c-2.3,0.2-3.5-0.5-3.7-2.1c-0.1-1,0.2-1.7,0.9-2.2c0.6-0.5,1.4-0.8,2.4-0.9l0,0l1.4-0.1
			c6-0.4,9.1,0.4,9.3,2.5L281.4,208.3z"/>
		<path d="M270.6,231.1c-4.4,0-7.8-1.7-10.1-5c-1.7-2.4-2.9-4.8-3.5-7.1c-0.5-2.2-0.9-3.8-1.2-5c-0.3-1.2-0.5-2.8-0.7-4.9
			c-0.3-2.8-0.5-5-0.7-6.8l-0.3-4.3c-0.7-9.6-0.8-15.6-0.4-18.3c0.4-2.6,0.9-5,1.5-7.2c0.6-2.3,1.4-4.2,2.5-5.6
			c2.5-3.3,5.6-5.1,9.2-5.3c4.9-0.3,6.1,1.6,6.2,3.1c0.1,1.1-0.3,2.1-1.2,2.8c-0.8,0.7-1.7,1.1-2.8,1.2l-0.1,0l-2.1-0.1
			c-1.8,0.2-3.1,2.3-3.8,6.4c-1.2,6.6-1.5,14.5-0.9,23.7c0.4,6.2,0.9,10.6,1.5,12.9c0.6,2.3,1.1,4.2,1.7,5.8
			c0.5,1.5,1.1,2.7,1.8,3.6c1.5,2,3.2,2.8,5.3,2.7c1.4-0.1,3.7-2.2,2.8-15.3l-0.3-3.9c-0.3,0-0.8-0.1-1.4,0l-1.9,0.2
			c-0.3,0-0.5,0-0.7,0c-3.3,0-3.9-1.9-4-3c-0.1-1.3,0.3-2.3,1.2-3.1c0.8-0.7,1.8-1.1,3-1.1l1-0.1l0,0l0.4,0c1-0.1,2-0.1,2.8-0.1
			c1.8,0,7.3,0,7.5,3.5l0,0.1l-0.6,7.4l1.2,10.5c0.3,3.7-0.9,6.6-3.3,8.7c-2.3,2.1-5.2,3.3-8.5,3.5
			C271.4,231.1,271,231.1,270.6,231.1z M268.1,163.6c-0.3,0-0.7,0-1,0c-3,0.2-5.6,1.7-7.7,4.5c-0.9,1.1-1.6,2.8-2.1,4.8
			c-0.6,2.2-1,4.5-1.4,7c-0.4,2.5-0.2,8.5,0.4,17.8l0.3,4.3c0.1,1.7,0.3,3.9,0.7,6.7c0.2,2,0.4,3.5,0.7,4.7c0.2,1.2,0.6,2.8,1.2,4.9
			c0.5,2,1.6,4.2,3.2,6.4c2.1,3.1,5.3,4.4,9.6,4.1c2.8-0.2,5.3-1.2,7.3-3c2-1.7,2.8-4.1,2.6-7.1l-1.2-10.7l0.6-7.4
			c-0.2-1.3-3.2-1.8-8.2-1.5l-2,0.1c-0.5,0.1-0.8,0.3-1.2,0.6c-0.2,0.2-0.6,0.6-0.5,1.4c0,0.4,0.1,1.2,2,1.2c0.2,0,0.4,0,0.6,0
			l1.9-0.2c0.3,0,0.6,0,0.8,0c0.9,0,1.5,0.1,2.1,0.3l0.5,0.2l0.4,5.2c0.8,11.6-0.7,17.2-4.7,17.4c-2.8,0.2-5.2-1-7.1-3.5
			c-0.8-1-1.5-2.4-2.1-4.1c-0.6-1.6-1.2-3.6-1.8-6c-0.6-2.4-1.1-6.7-1.5-13.2c-0.6-9.3-0.3-17.5,1-24.2c1-5.2,2.9-7.9,5.7-8.1l0.1,0
			l2.1,0.1c0.6,0,1.1-0.3,1.5-0.7c0.4-0.3,0.5-0.7,0.5-1.2C271.1,164.6,271,163.6,268.1,163.6z"/>
	</g>
	<g>
		<path d="M291.7,167l1.3,25.2c1.2,0.2,3.1,0.3,5.5,0.1l3.6-0.2c0.1-0.3,0.2-1.4,0-3.3c-0.1-1.9-0.6-6-1.5-12.3
			c-0.9-6.3-1.4-11.1-1.6-14.3c-0.1-0.8,0.2-1.4,0.8-2s1.1-0.8,1.6-0.9c0.5,0,1,0,1.3,0.1c0.3,0.1,0.7,0.2,1.1,0.3
			c0.4,0.1,0.7,0.2,1,0.3c0.6,8.7,1.8,21.5,3.6,38.2c1.8,16.7,2.7,25.4,2.7,25.9c0,0.6-0.3,1.1-0.9,1.7c-0.7,0.6-1.4,0.9-2.3,1
			c-0.9,0.1-1.6-0.5-2.2-1.8c-0.6-1.2-1.1-3.1-1.4-5.6c-0.4-2.5-0.6-4.7-0.8-6.5c-0.1-0.8-0.1-1.7-0.2-2.7c-0.1-1.4-0.2-3-0.3-4.7
			c-0.1-3.1-0.2-4.9-0.3-5.4l0-0.4l-0.1-2.9l-0.7-0.9l0-0.1c-0.5,0.2-1.2,0.3-1.8,0.3l-6.6-0.5l0.8,11.6l1.7,16.5
			c0.1,1-0.1,1.8-0.6,2.6c-0.4,0.8-1.1,1.2-2,1.3c-1.3,0.1-2.4-1.1-3-3.5c-0.7-2.4-1.2-5.7-1.4-10l-0.8-15.4
			c-0.2-3.2-0.4-4.9-0.5-5.3l0-0.5c0-3.5,0-5.5,0-5.9l-2.2-22.7c-0.1-0.8,0.2-1.5,0.7-2.1c0.5-0.6,1.2-1,2-1
			C290.3,161,291.5,163,291.7,167z"/>
		<path d="M293.4,228.5c-1.8,0-3.1-1.4-3.8-4.2c-0.7-2.5-1.2-5.9-1.5-10.2l-0.8-15.4c-0.3-4-0.4-4.8-0.5-5l-0.1-0.3l0-0.5
			c0-3.6,0-5.5,0-5.9l-2.2-22.7c-0.1-1.1,0.2-2,0.9-2.9c0.7-0.9,1.6-1.3,2.7-1.4c2.8-0.2,4.4,2.1,4.7,6.7l1.3,24.4
			c1.1,0.1,2.6,0.1,4.5,0l2.8-0.2c0-0.4,0-1.1-0.1-2.3c-0.1-1.8-0.6-6-1.5-12.2c-0.9-6.3-1.4-11.2-1.6-14.4c-0.1-1,0.3-2,1.1-2.7
			c0.7-0.7,1.5-1.1,2.3-1.2c0.6,0,1.1,0,1.6,0.1c0.4,0.1,0.8,0.2,1.2,0.3c0.4,0.1,0.6,0.2,0.8,0.2l0.7,0.2l0.1,0.8
			c0.6,8.7,1.8,21.5,3.6,38.2c1.9,17.4,2.7,25.4,2.7,26c0.1,0.9-0.4,1.7-1.3,2.5c-0.8,0.7-1.8,1.1-2.9,1.2c-1.3,0.1-2.4-0.7-3.2-2.3
			c-0.7-1.3-1.2-3.3-1.5-5.9c-0.4-2.5-0.6-4.7-0.8-6.5c-0.1-0.8-0.2-1.7-0.2-2.8c-0.1-1.4-0.2-2.9-0.3-4.7c-0.1-3.1-0.2-4.9-0.3-5.4
			l0-0.4l0-2.6l-0.1-0.2c-0.4,0.1-0.8,0.1-1.3,0.2l-0.1,0l-5.5-0.4l0.7,10.4l1.7,16.5c0.1,1.2-0.2,2.2-0.7,3.2
			c-0.6,1.1-1.6,1.7-2.8,1.8C293.5,228.5,293.4,228.5,293.4,228.5z M288.8,193.3c0.1,0.4,0.2,1.3,0.5,5.4l0.8,15.4
			c0.3,4.1,0.8,7.4,1.4,9.7c0.4,1.3,1,2.8,1.9,2.8l0.1,0c0.6,0,1-0.3,1.2-0.8c0.3-0.6,0.5-1.3,0.4-2l-1.7-16.5l-0.9-12.8l7.6,0.6
			c0.5,0,1.1-0.1,1.5-0.3l1.2-0.4l0.1,1.1l0.7,0.9l0.1,3.6c0,0.5,0.1,2.3,0.3,5.4c0.1,1.8,0.2,3.3,0.3,4.7c0,1,0.1,1.9,0.2,2.7
			c0.2,1.8,0.5,4,0.8,6.5c0.3,2.4,0.8,4.2,1.4,5.3c0.3,0.6,0.7,1.2,1.2,1.2c0.7,0,1.3-0.3,1.8-0.7c0.4-0.4,0.6-0.7,0.6-0.9
			c0-0.5-0.9-9-2.7-25.9c-1.7-16.2-2.9-28.8-3.5-37.5c-0.1,0-0.2-0.1-0.3-0.1c-0.4-0.1-0.7-0.2-1-0.3c-0.2-0.1-0.6-0.1-1,0
			c-0.3,0-0.6,0.2-1,0.6c-0.4,0.3-0.5,0.7-0.5,1.2c0.2,3.2,0.8,8,1.6,14.2c0.9,6.3,1.4,10.5,1.5,12.3c0.2,2.8,0,3.4-0.1,3.8
			l-0.2,0.5l-4.2,0.3c-2.6,0.2-4.5,0.1-5.8-0.1l-0.8-0.2l-1.4-25.9c-0.2-3.3-1.1-4.9-2.5-4.8c-0.5,0-0.9,0.2-1.2,0.7
			c-0.4,0.5-0.5,0.9-0.5,1.5l2.2,22.7c0,0.3,0,1.3,0,6L288.8,193.3z"/>
	</g>
	<g>
		<path d="M327.1,223.9l-0.7-7.7c0,0,0-1.2-0.1-3.5c-0.3-0.8-1.4-8.4-3.1-22.6c-1.8-14.2-2.8-23-3.1-26.1c-0.1,0-0.3,0-0.4,0
			c-5.5,0.3-8.2-0.5-8.4-2.4c0-0.6,0.3-1.2,1-1.6c0.7-0.5,1.4-0.7,2.1-0.8l13.7,0l1.6-0.2c2.1-0.1,3.2,0.6,3.3,2.2
			c0.1,0.8-0.2,1.5-0.9,2.1c-0.7,0.6-1.4,0.9-2.3,0.9l-4.7-0.4l-0.1,1c0.4,6.4,1.6,15.9,3.6,28.5c2,12.6,3.2,22.1,3.6,28.5
			c0.1,0.8-0.3,1.5-0.9,2.2c-0.7,0.7-1.4,1-2.3,1.1L327.1,223.9z"/>
		<path d="M328.8,226.1l-2.7-1.6l-0.8-8.2c0-0.1,0-0.1-0.1-2.6l0-0.8c-0.2-0.7-0.8-3.6-3.1-22.7c-1.6-13-2.6-21.4-3-25.2
			c-0.5,0-1,0-1.4,0c0,0,0,0,0,0c-1.8,0-7.2,0-7.4-3.4c0-0.7,0.2-1.7,1.4-2.5c0.8-0.6,1.7-0.9,2.6-0.9h13.8l1.5-0.2
			c0.2,0,0.4,0,0.6,0c2.3,0,3.7,1.1,3.8,3.1c0.1,1.1-0.4,2.1-1.2,2.9c-0.8,0.7-1.8,1.1-2.8,1.2l-0.1,0l-3.8-0.3
			c0.4,6.3,1.7,15.8,3.6,28.3c2,12.6,3.2,22.2,3.6,28.6c0.1,1.1-0.3,2.1-1.2,3c-0.9,0.8-1.8,1.3-2.9,1.4L328.8,226.1z M328.1,223.3
			l1.2,0.8c0.5-0.1,1-0.3,1.4-0.8c0.6-0.6,0.7-1.1,0.6-1.4c-0.4-6.3-1.6-15.9-3.6-28.4c-2-12.6-3.2-22.2-3.6-28.6l0-0.1l0.3-2.1
			l5.5,0.4c0.6-0.1,1.1-0.3,1.6-0.7c0.4-0.4,0.6-0.7,0.5-1.2c0-0.6-0.2-1.3-1.8-1.3c-0.1,0-0.3,0-0.4,0l-1.6,0.2l-13.8,0
			c-0.4,0-1,0.2-1.5,0.6c-0.6,0.4-0.5,0.6-0.5,0.7c0.1,1.2,2.9,1.7,7.3,1.5l1.4-0.1l0.1,1c0.3,3.1,1.3,11.9,3.1,26.1
			c2.3,18.3,2.9,21.9,3.1,22.4l0.1,0.3l0,1c0,1.5,0.1,2.4,0.1,2.5L328.1,223.3z"/>
	</g>
	<g>
		<path d="M346,197.4l0.4,4.8c0.3,4.6-0.2,6.9-1.4,7c-0.7,0-1.4-0.7-2.1-2.3c-0.7-1.6-1.1-3.6-1.3-6.1l-0.7-16.7l-2.7-33
			c-0.1-1.1,0.3-2,1.1-2.8c0.8-0.8,1.7-1.3,2.6-1.3c0.9-0.1,1.6,0.1,2.1,0.6c0.5,0.4,0.8,1,0.8,1.7c0.4,5.4,0.6,13.4,0.6,24.2
			C345.4,184,345.6,192,346,197.4z M349.1,222.7c0.2,2.4-1.4,3.7-4.7,3.9c-0.8,0.1-1.5-0.3-2.3-0.9c-0.8-0.7-1.2-1.6-1.3-2.7
			c-0.1-1.2,0.3-2.2,1-3.2c0.8-1,1.7-1.5,3-1.6c1.2-0.1,2.2,0.3,3,1.2C348.5,220.2,349,221.4,349.1,222.7z"/>
		<path d="M344.2,227.6c-0.9,0-1.9-0.4-2.8-1.1c-1-0.8-1.6-2-1.7-3.4c-0.1-1.4,0.3-2.7,1.2-3.9c0.9-1.2,2.2-1.9,3.7-2
			c1.5-0.1,2.8,0.4,3.8,1.6c1,1.1,1.5,2.4,1.6,4c0.1,1.7-0.5,4.6-5.7,4.9C344.3,227.6,344.3,227.6,344.2,227.6z M345,219.1
			c-0.1,0-0.2,0-0.2,0c-0.9,0.1-1.7,0.5-2.2,1.2c-0.6,0.8-0.9,1.6-0.8,2.6c0.1,0.9,0.4,1.6,0.9,2c0.5,0.5,1,0.7,1.5,0.7l0.1,0
			c4-0.3,3.8-2.1,3.8-2.8c-0.1-1.1-0.4-2-1.1-2.8C346.4,219.4,345.8,219.1,345,219.1z M344.9,210.2c-1.5,0-2.4-1.7-2.9-2.9
			c-0.7-1.7-1.2-3.9-1.4-6.5l-0.7-16.7l-2.7-33c-0.1-1.4,0.4-2.6,1.4-3.6c1-1,2.1-1.5,3.2-1.6c1.2-0.1,2.1,0.2,2.8,0.8
			c0.7,0.6,1.1,1.4,1.2,2.4c0.4,5.4,0.6,13.5,0.6,24.2c0,10.7,0.2,18.8,0.6,24.1l0.4,4.7c0.2,2.4,0.1,4.2-0.1,5.5
			c-0.4,2.1-1.4,2.6-2.2,2.6L344.9,210.2z M342.2,147.8c-0.1,0-0.2,0-0.2,0c-0.6,0-1.3,0.4-1.9,1c-0.6,0.6-0.9,1.3-0.9,2l2.7,33
			l0.7,16.7c0.2,2.3,0.6,4.3,1.2,5.8c0.6,1.3,1,1.7,1.1,1.7c0.1-0.1,0.8-1,0.5-5.9l-0.4-4.7c-0.4-5.4-0.6-13.5-0.6-24.2
			c0-10.7-0.2-18.8-0.6-24.1c0-0.4-0.2-0.7-0.5-1C343,147.9,342.7,147.8,342.2,147.8z"/>
	</g>
</g>
</svg>
