<?xml version="1.0" encoding="utf-8"?>
<!-- Generator: Adobe Illustrator 17.1.0, SVG Export Plug-In . SVG Version: 6.00 Build 0)  -->
<!DOCTYPE svg PUBLIC "-//W3C//DTD SVG 1.1//EN" "http://www.w3.org/Graphics/SVG/1.1/DTD/svg11.dtd">
<svg version="1.1" id="Layer_1" xmlns="http://www.w3.org/2000/svg" xmlns:xlink="http://www.w3.org/1999/xlink" x="0px" y="0px"
	 viewBox="0 0 539.2 298.2" enable-background="new 0 0 539.2 298.2" xml:space="preserve">
<g>
	<rect x="116.5" y="53.1" fill="none" stroke="#000000" stroke-width="10" stroke-miterlimit="10" width="166" height="212"/>
	<line fill="#FFFFFF" stroke="#000000" stroke-width="10" stroke-miterlimit="10" x1="149.5" y1="104.4" x2="249.5" y2="104.4"/>
	<line fill="#FFFFFF" stroke="#000000" stroke-width="10" stroke-miterlimit="10" x1="149.5" y1="140.4" x2="249.5" y2="140.4"/>
	<line fill="#FFFFFF" stroke="#000000" stroke-width="10" stroke-miterlimit="10" x1="149.5" y1="178.4" x2="249.5" y2="178.4"/>
	<path fill="none" stroke="#000000" stroke-width="10" stroke-miterlimit="10" d="M422.7,265.1H311.4V138.5
		c0-5.9,4.8-10.7,10.7-10.7H412c5.9,0,10.7,4.8,10.7,10.7V265.1z"/>
	<rect x="342.7" y="109.8" fill="#86D4EF" stroke="#000000" stroke-width="10" stroke-miterlimit="10" width="48.7" height="18"/>
	<path fill="#86D4EF" stroke="#000000" stroke-width="10" stroke-miterlimit="10" d="M363.9,58.9c-4.1,8.5-10.8,25.6-10.6,47.4
		c0,1.9,1.6,3.5,3.5,3.5h10.3h10.3c1.9,0,3.5-1.6,3.5-3.5c0.2-21.8-6.5-38.9-10.6-47.4C368.9,56.3,365.2,56.3,363.9,58.9z"/>
	<rect x="337.7" y="153.8" fill="#86D4EF" stroke="#000000" stroke-width="10" stroke-miterlimit="10" width="58.7" height="85.3"/>
</g>
</svg>
