<?xml version="1.0" encoding="utf-8"?>
<!-- Generator: Adobe Illustrator 17.1.0, SVG Export Plug-In . SVG Version: 6.00 Build 0)  -->
<!DOCTYPE svg PUBLIC "-//W3C//DTD SVG 1.1//EN" "http://www.w3.org/Graphics/SVG/1.1/DTD/svg11.dtd">
<svg version="1.1" id="Layer_1" xmlns="http://www.w3.org/2000/svg" xmlns:xlink="http://www.w3.org/1999/xlink" x="0px" y="0px"
	 viewBox="0 0 539.2 298.2" enable-background="new 0 0 539.2 298.2" xml:space="preserve">
<path fill="#FFFFFF" stroke="#000000" stroke-width="10" stroke-miterlimit="10" d="M296.8,153.6l-7.6-27.8
	c-1.3-4.7-5.5-7.9-10.3-7.9h-64.5c-4.8,0-9,3.2-10.3,7.9l-7.6,27.8h-38.1c-2.3,0-4.1,1.9-4.1,4.1v110h184.3v-110
	c0-2.3-1.9-4.1-4.1-4.1H296.8z"/>
<g>
	<path fill="#FFFFFF" d="M162.6,67.7c-24.2-9.3-49.6-14-75.4-14c-26,0-51.6,4.8-76,14.3l5.2,12.6c0,0,0,0,0,0
		c0.1-0.1,0.3-0.1,0.4-0.1c1.3-0.5,2.7-0.9,4-1.3c0.5-0.2,1-0.3,1.5-0.5c1-0.3,2-0.6,3-0.9c0.6-0.2,1.2-0.3,1.8-0.5
		c0.9-0.3,1.8-0.5,2.7-0.8c0.6-0.2,1.3-0.3,1.9-0.5c0.9-0.2,1.7-0.5,2.6-0.7c0.7-0.2,1.3-0.3,2-0.5c0.8-0.2,1.7-0.4,2.5-0.6
		c0.7-0.2,1.4-0.3,2-0.4c0.8-0.2,1.7-0.4,2.5-0.5c0.7-0.1,1.4-0.3,2.1-0.4c0.8-0.2,1.7-0.3,2.5-0.5c0.7-0.1,1.4-0.2,2.1-0.4
		c0.8-0.1,1.7-0.3,2.5-0.4c0.7-0.1,1.4-0.2,2.1-0.3c0.8-0.1,1.7-0.2,2.5-0.4c0.7-0.1,1.4-0.2,2.1-0.3c0.8-0.1,1.7-0.2,2.5-0.3
		c0.7-0.1,1.4-0.2,2.1-0.2c0.9-0.1,1.7-0.2,2.6-0.3c0.7-0.1,1.4-0.1,2-0.2c0.9-0.1,1.8-0.1,2.7-0.2c0.7,0,1.3-0.1,2-0.1
		c0.9-0.1,1.9-0.1,2.8-0.2c0.6,0,1.2-0.1,1.9-0.1c1,0,2.1-0.1,3.1-0.1c0.5,0,1,0,1.6,0c1.6,0,3.1-0.1,4.7-0.1c1.5,0,3.1,0,4.6,0.1
		c0.5,0,1,0,1.5,0c1,0,2.1,0.1,3.1,0.1c0.6,0,1.2,0.1,1.8,0.1c0.9,0,1.9,0.1,2.8,0.2c0.7,0,1.3,0.1,2,0.1c0.9,0.1,1.8,0.1,2.6,0.2
		c0.7,0.1,1.3,0.1,2,0.2c0.9,0.1,1.7,0.2,2.6,0.3c0.7,0.1,1.4,0.2,2.1,0.2c0.8,0.1,1.7,0.2,2.5,0.3c0.7,0.1,1.4,0.2,2.1,0.3
		c0.8,0.1,1.7,0.2,2.5,0.4c0.7,0.1,1.4,0.2,2.1,0.3c0.8,0.1,1.7,0.3,2.5,0.4c0.7,0.1,1.4,0.2,2.1,0.4c0.8,0.1,1.7,0.3,2.5,0.5
		c0.7,0.1,1.4,0.3,2.1,0.4c0.8,0.2,1.7,0.3,2.5,0.5c0.7,0.1,1.4,0.3,2,0.4c0.8,0.2,1.7,0.4,2.5,0.6c0.7,0.2,1.3,0.3,2,0.5
		c0.9,0.2,1.7,0.4,2.6,0.7c0.6,0.2,1.3,0.3,1.9,0.5c0.9,0.2,1.8,0.5,2.7,0.7c0.6,0.2,1.2,0.3,1.8,0.5c1,0.3,1.9,0.6,2.9,0.9
		c0.5,0.2,1,0.3,1.5,0.5c1.4,0.4,2.7,0.9,4.1,1.3c0.1,0,0.2,0.1,0.3,0.1c0,0,0,0,0,0L162.6,67.7z"/>
	<path d="M173.3,63.2c-0.7-1.6-1.9-2.8-3.4-3.4c-26.5-10.7-54.3-16.2-82.7-16.2c-28.6,0-56.6,5.5-83.3,16.5
		c-1.6,0.6-2.8,1.8-3.4,3.4c-0.6,1.6-0.6,3.3,0,4.8L7,84l4.7-1.7L5.1,66.4c-0.3-0.7,0-1.4,0.7-1.7c54.1-22.1,112-20.7,162.2-0.3
		c0.7,0.3,1,1,0.7,1.7L162.1,82l4.7,1.7l6.5-15.7C174,66.5,173.9,64.8,173.3,63.2z"/>
	<path d="M91.8,68.9c-1.5,0-3.1-0.1-4.6-0.1C88.7,68.8,90.3,68.9,91.8,68.9z"/>
	<path d="M52.6,71.6c-0.8,0.1-1.7,0.3-2.5,0.4C50.9,71.9,51.8,71.7,52.6,71.6z"/>
	<path d="M57.2,70.9c-0.8,0.1-1.7,0.2-2.5,0.4C55.6,71.1,56.4,71,57.2,70.9z"/>
	<path d="M110.3,70.1c-0.9-0.1-1.7-0.2-2.6-0.3C108.6,69.9,109.4,70,110.3,70.1z"/>
	<path d="M38.9,74.2c-0.8,0.2-1.7,0.4-2.5,0.6C37.2,74.6,38.1,74.4,38.9,74.2z"/>
	<path d="M43.5,73.3c-0.8,0.2-1.7,0.3-2.5,0.5C41.8,73.6,42.6,73.4,43.5,73.3z"/>
	<path d="M48,72.4c-0.8,0.2-1.7,0.3-2.5,0.5C46.4,72.7,47.2,72.5,48,72.4z"/>
	<path d="M34.4,75.3c-0.9,0.2-1.7,0.4-2.6,0.7C32.6,75.8,33.5,75.5,34.4,75.3z"/>
	<path d="M81,68.9c-1,0-2.1,0.1-3.1,0.1C78.9,69,79.9,69,81,68.9z"/>
	<path d="M96.5,69c-1,0-2.1-0.1-3.1-0.1C94.4,69,95.4,69,96.5,69z"/>
	<path d="M76,69.1c-0.9,0-1.9,0.1-2.8,0.2C74.1,69.2,75.1,69.2,76,69.1z"/>
	<path d="M87.2,68.8c-1.6,0-3.1,0-4.7,0.1C84.1,68.9,85.6,68.8,87.2,68.8z"/>
	<path d="M66.5,69.8c-0.9,0.1-1.7,0.2-2.6,0.3C64.8,70,65.7,69.9,66.5,69.8z"/>
	<path d="M71.2,69.4c-0.9,0.1-1.8,0.1-2.7,0.2C69.5,69.6,70.4,69.5,71.2,69.4z"/>
	<path d="M151.5,78.5c-1-0.3-1.9-0.6-2.9-0.9C149.5,77.9,150.5,78.2,151.5,78.5z"/>
	<path d="M61.9,70.3c-0.8,0.1-1.7,0.2-2.5,0.3C60.2,70.5,61,70.4,61.9,70.3z"/>
	<path d="M101.1,69.3c-0.9-0.1-1.9-0.1-2.8-0.2C99.2,69.2,100.1,69.2,101.1,69.3z"/>
	<path d="M105.7,69.6c-0.9-0.1-1.8-0.1-2.6-0.2C103.9,69.5,104.8,69.5,105.7,69.6z"/>
	<path d="M16.4,80.6C16.4,80.6,16.4,80.6,16.4,80.6L11.2,68c24.4-9.5,50-14.3,76-14.3c25.9,0,51.2,4.7,75.4,14l-5.2,12.6
		c0,0,0,0,0,0c1.5,0.5,3,1,4.5,1.6l0.2,0.1l6.5-15.9c0.3-0.7,0-1.4-0.7-1.7C117.8,44.1,59.8,42.6,5.8,64.8c-0.7,0.3-1,1-0.7,1.7
		l6.6,15.8l0.2-0.1C13.4,81.6,14.9,81.1,16.4,80.6z"/>
	<path d="M124,71.9c-0.8-0.1-1.7-0.3-2.5-0.4C122.3,71.7,123.2,71.8,124,71.9z"/>
	<path d="M142.2,75.8c-0.9-0.2-1.7-0.4-2.6-0.7C140.5,75.4,141.3,75.6,142.2,75.8z"/>
	<path d="M157.1,80.3c-1.4-0.5-2.7-0.9-4.1-1.3C154.4,79.4,155.7,79.8,157.1,80.3z"/>
	<path d="M137.6,74.7c-0.8-0.2-1.7-0.4-2.5-0.6C136,74.3,136.8,74.5,137.6,74.7z"/>
	<path d="M133.1,73.7c-0.8-0.2-1.7-0.4-2.5-0.5C131.4,73.3,132.3,73.5,133.1,73.7z"/>
	<path d="M128.5,72.8c-0.8-0.2-1.7-0.3-2.5-0.5C126.9,72.5,127.7,72.6,128.5,72.8z"/>
	<path d="M114.9,70.6c-0.8-0.1-1.7-0.2-2.5-0.3C113.2,70.4,114,70.5,114.9,70.6z"/>
	<path d="M20.9,79.1c-1.3,0.4-2.7,0.9-4,1.3C18.2,80,19.6,79.6,20.9,79.1z"/>
	<path d="M146.8,77.1c-0.9-0.2-1.8-0.5-2.7-0.7C145,76.6,145.9,76.8,146.8,77.1z"/>
	<path d="M25.4,77.8c-1,0.3-2,0.6-3,0.9C23.4,78.4,24.4,78.1,25.4,77.8z"/>
	<path d="M29.9,76.5c-0.9,0.2-1.8,0.5-2.7,0.8C28.1,77,29,76.7,29.9,76.5z"/>
	<path d="M119.4,71.2c-0.8-0.1-1.7-0.2-2.5-0.4C117.8,71,118.6,71.1,119.4,71.2z"/>
	<path fill="#FFFFFF" d="M51.1,99.1c11.8,0,21.4,9.6,21.4,21.4s-9.6,21.4-21.4,21.4c-3.7,0-7.2-1-10.3-2.7L64,195
		c3.9-4.9,9.9-8,16.7-8c11.8,0,21.4,9.6,21.4,21.4c0,11.8-9.6,21.4-21.4,21.4c-0.7,0-1.5,0-2.2-0.1l8.8,21l35.6-86.3
		c-10.3-1.5-18.3-10.4-18.3-21.1c0-11.8,9.6-21.4,21.4-21.4c4.8,0,9.2,1.6,12.7,4.2l15-36.5c-0.8-0.3-1.6-0.5-2.5-0.8
		c-0.5-0.2-0.9-0.3-1.4-0.5c-1.4-0.4-2.8-0.9-4.2-1.3c0,0-0.1,0-0.1,0c-1.4-0.4-2.8-0.8-4.1-1.2c-0.5-0.1-0.9-0.2-1.4-0.4
		c-1-0.2-1.9-0.5-2.9-0.7c-0.6-0.1-1.1-0.3-1.7-0.4c-0.9-0.2-1.7-0.4-2.6-0.6c-0.6-0.1-1.2-0.3-1.8-0.4c-0.8-0.2-1.7-0.4-2.5-0.5
		c-0.6-0.1-1.2-0.2-1.8-0.4c-0.8-0.2-1.6-0.3-2.5-0.5c-0.6-0.1-1.3-0.2-1.9-0.3c-0.8-0.1-1.6-0.3-2.4-0.4c-0.6-0.1-1.3-0.2-1.9-0.3
		c-0.8-0.1-1.6-0.2-2.4-0.3c-0.6-0.1-1.3-0.2-1.9-0.3c-0.8-0.1-1.6-0.2-2.5-0.3c-0.6-0.1-1.3-0.1-1.9-0.2c-0.8-0.1-1.7-0.2-2.5-0.2
		c-0.6-0.1-1.3-0.1-1.9-0.2c-0.9-0.1-1.7-0.1-2.6-0.2c-0.6,0-1.2-0.1-1.8-0.1c-0.9-0.1-1.8-0.1-2.7-0.1c-0.6,0-1.2-0.1-1.7-0.1
		c-1,0-2-0.1-2.9-0.1c-0.5,0-1,0-1.5,0c-1.5,0-2.9,0-4.4,0c-1.5,0-3,0-4.4,0c-0.5,0-1,0-1.5,0c-1,0-2,0.1-3,0.1
		c-0.6,0-1.2,0.1-1.8,0.1c-0.9,0-1.8,0.1-2.7,0.1c-0.6,0-1.3,0.1-1.9,0.1c-0.8,0.1-1.7,0.1-2.5,0.2c-0.6,0.1-1.3,0.1-1.9,0.2
		c-0.8,0.1-1.6,0.2-2.5,0.2c-0.7,0.1-1.3,0.1-2,0.2c-0.8,0.1-1.6,0.2-2.4,0.3c-0.7,0.1-1.3,0.2-2,0.3c-0.8,0.1-1.6,0.2-2.4,0.3
		c-0.7,0.1-1.3,0.2-2,0.3c-0.8,0.1-1.6,0.3-2.4,0.4c-0.7,0.1-1.3,0.2-2,0.3c-0.8,0.1-1.6,0.3-2.4,0.5c-0.6,0.1-1.3,0.2-1.9,0.4
		c-0.8,0.2-1.6,0.3-2.5,0.5c-0.6,0.1-1.2,0.3-1.9,0.4c-0.8,0.2-1.7,0.4-2.5,0.6c-0.6,0.1-1.2,0.3-1.8,0.4c-0.9,0.2-1.9,0.5-2.8,0.7
		c-0.5,0.1-1,0.3-1.5,0.4c-1.3,0.3-2.6,0.7-3.8,1.1c-0.1,0-0.3,0.1-0.4,0.1c-1.4,0.4-2.8,0.9-4.3,1.3c-0.4,0.1-0.9,0.3-1.3,0.4
		c-0.9,0.3-1.8,0.6-2.6,0.9l10.3,24.7C33.1,105.7,41.4,99.1,51.1,99.1z"/>
	<path fill="#FFFFFF" d="M119.8,81.4c0.8,0.1,1.6,0.3,2.4,0.4C121.4,81.7,120.6,81.5,119.8,81.4z"/>
	<path fill="#FFFFFF" d="M115.4,80.7c0.8,0.1,1.6,0.2,2.4,0.3C117.1,81,116.2,80.9,115.4,80.7z"/>
	<path fill="#FFFFFF" d="M128.4,82.9c0.8,0.2,1.7,0.3,2.5,0.5C130.1,83.3,129.3,83.1,128.4,82.9z"/>
	<path fill="#FFFFFF" d="M137,84.8c1,0.2,1.9,0.5,2.9,0.7C138.9,85.3,138,85.1,137,84.8z"/>
	<path fill="#FFFFFF" d="M132.7,83.8c0.9,0.2,1.7,0.4,2.6,0.6C134.5,84.2,133.6,84,132.7,83.8z"/>
	<path fill="#FFFFFF" d="M141.3,85.9c1.4,0.4,2.8,0.8,4.1,1.2C144,86.7,142.6,86.3,141.3,85.9z"/>
	<path fill="#FFFFFF" d="M145.5,87.1c1.4,0.4,2.8,0.8,4.2,1.3C148.3,87.9,146.9,87.5,145.5,87.1z"/>
	<path fill="#FFFFFF" d="M124.1,82.1c0.8,0.1,1.6,0.3,2.5,0.5C125.8,82.4,124.9,82.3,124.1,82.1z"/>
	<path fill="#FFFFFF" d="M153.6,89.6c-0.8-0.3-1.6-0.5-2.5-0.8C152,89.1,152.8,89.4,153.6,89.6L153.6,89.6z"/>
	<path fill="#FFFFFF" d="M93.1,78.9c1,0,2,0.1,2.9,0.1C95,79,94,79,93.1,78.9z"/>
	<path fill="#FFFFFF" d="M111.1,80.2c0.8,0.1,1.6,0.2,2.5,0.3C112.7,80.4,111.9,80.3,111.1,80.2z"/>
	<path fill="#FFFFFF" d="M43.2,83.5c0.8-0.2,1.6-0.4,2.5-0.5C44.8,83.2,44,83.4,43.2,83.5z"/>
	<path fill="#FFFFFF" d="M47.6,82.6c0.8-0.2,1.6-0.3,2.4-0.5C49.2,82.3,48.4,82.5,47.6,82.6z"/>
	<path fill="#FFFFFF" d="M51.9,81.8c0.8-0.1,1.6-0.3,2.4-0.4C53.5,81.6,52.7,81.7,51.9,81.8z"/>
	<path fill="#FFFFFF" d="M56.3,81.1c0.8-0.1,1.6-0.2,2.4-0.3C57.9,80.9,57.1,81,56.3,81.1z"/>
	<path fill="#FFFFFF" d="M34.2,85.7c0.9-0.2,1.8-0.5,2.8-0.7C36.1,85.2,35.1,85.4,34.2,85.7z"/>
	<path fill="#FFFFFF" d="M24.2,88.6c1.4-0.4,2.8-0.9,4.3-1.3C27,87.7,25.6,88.1,24.2,88.6z"/>
	<path fill="#FFFFFF" d="M20.3,89.9L20.3,89.9c0.9-0.3,1.8-0.6,2.6-0.9C22,89.3,21.1,89.6,20.3,89.9z"/>
	<path fill="#FFFFFF" d="M60.7,80.5c0.8-0.1,1.6-0.2,2.4-0.3C62.3,80.3,61.5,80.4,60.7,80.5z"/>
	<path fill="#FFFFFF" d="M28.9,87.2c1.3-0.4,2.6-0.7,3.8-1.1C31.4,86.4,30.2,86.8,28.9,87.2z"/>
	<path fill="#FFFFFF" d="M38.8,84.5c0.8-0.2,1.7-0.4,2.5-0.6C40.5,84.1,39.6,84.3,38.8,84.5z"/>
	<path fill="#FFFFFF" d="M97.7,79.1c0.9,0,1.8,0.1,2.7,0.1C99.5,79.2,98.6,79.2,97.7,79.1z"/>
	<path fill="#FFFFFF" d="M87.2,78.8c1.5,0,2.9,0,4.4,0C90.1,78.9,88.7,78.8,87.2,78.8z"/>
	<path fill="#FFFFFF" d="M65.1,80c0.8-0.1,1.6-0.2,2.5-0.2C66.7,79.8,65.9,79.9,65.1,80z"/>
	<path fill="#FFFFFF" d="M82.8,78.9c1.5,0,3,0,4.4,0C85.7,78.8,84.2,78.9,82.8,78.9z"/>
	<path fill="#FFFFFF" d="M102.2,79.4c0.9,0.1,1.7,0.1,2.6,0.2C103.9,79.5,103.1,79.4,102.2,79.4z"/>
	<path fill="#FFFFFF" d="M106.7,79.7c0.8,0.1,1.7,0.2,2.5,0.2C108.3,79.9,107.5,79.8,106.7,79.7z"/>
	<path fill="#FFFFFF" d="M78.3,79c1,0,2-0.1,3-0.1C80.3,79,79.3,79,78.3,79z"/>
	<path fill="#FFFFFF" d="M69.5,79.6c0.8-0.1,1.7-0.1,2.5-0.2C71.2,79.5,70.3,79.5,69.5,79.6z"/>
	<path fill="#FFFFFF" d="M73.9,79.3c0.9-0.1,1.8-0.1,2.7-0.1C75.7,79.2,74.8,79.2,73.9,79.3z"/>
	<path d="M88.7,260.3c-0.5,1.3-2.3,1.3-2.8,0l-13.4-32.2c-3-1.3-5.6-3.2-7.8-5.6l16.6,39.8c1,2.4,3.4,4,6,4c0,0,0,0,0,0
		c2.7,0,5-1.6,6-4l40.9-99.3c-1.9,0.8-3.9,1.3-6.1,1.6L88.7,260.3z"/>
	<path d="M158.5,91.3c-0.1,0-0.1,0-0.2-0.1l-15.9,38.5c1.3,1.6,2.4,3.4,3.2,5.4l21.2-51.5l0,0L163,93L158.5,91.3z"/>
	<path d="M60.9,200.4L15.5,91.5c-0.1,0-0.1,0-0.2,0.1l-4.5,1.6L7,84l0,0l52.4,125.8c0-0.5-0.1-0.9-0.1-1.4
		C59.3,205.6,59.9,202.9,60.9,200.4z"/>
	<path d="M157.4,80.4c-0.1,0-0.2-0.1-0.3-0.1C157.2,80.3,157.3,80.3,157.4,80.4z"/>
	<path d="M153,78.9c-0.5-0.2-1-0.3-1.5-0.5C152,78.6,152.5,78.8,153,78.9z"/>
	<path d="M59.3,70.6c-0.7,0.1-1.4,0.2-2.1,0.3C57.9,70.8,58.6,70.7,59.3,70.6z"/>
	<path d="M98.3,69.1c-0.6,0-1.2-0.1-1.8-0.1C97.1,69.1,97.7,69.1,98.3,69.1z"/>
	<path d="M73.2,69.3c-0.7,0-1.3,0.1-2,0.1C71.9,69.4,72.6,69.3,73.2,69.3z"/>
	<path d="M77.9,69c-0.6,0-1.2,0.1-1.9,0.1C76.6,69.1,77.2,69.1,77.9,69z"/>
	<path d="M82.5,68.9c-0.5,0-1,0-1.6,0C81.5,68.9,82,68.9,82.5,68.9z"/>
	<path d="M103,69.4c-0.7,0-1.3-0.1-2-0.1C101.7,69.3,102.4,69.4,103,69.4z"/>
	<path d="M93.4,68.9c-0.5,0-1,0-1.5,0C92.3,68.9,92.9,68.9,93.4,68.9z"/>
	<path d="M121.5,71.5c-0.7-0.1-1.4-0.2-2.1-0.3C120.1,71.3,120.8,71.4,121.5,71.5z"/>
	<path d="M126.1,72.3c-0.7-0.1-1.4-0.2-2.1-0.4C124.7,72.1,125.4,72.2,126.1,72.3z"/>
	<path d="M112.3,70.3c-0.7-0.1-1.4-0.2-2.1-0.2C111,70.1,111.6,70.2,112.3,70.3z"/>
	<path d="M116.9,70.9c-0.7-0.1-1.4-0.2-2.1-0.3C115.5,70.7,116.2,70.8,116.9,70.9z"/>
	<path d="M107.7,69.8c-0.7-0.1-1.3-0.1-2-0.2C106.3,69.7,107,69.7,107.7,69.8z"/>
	<path d="M45.5,72.8c-0.7,0.1-1.4,0.3-2.1,0.4C44.1,73.1,44.8,73,45.5,72.8z"/>
	<path d="M27.2,77.2c-0.6,0.2-1.2,0.3-1.8,0.5C26,77.6,26.6,77.4,27.2,77.2z"/>
	<path d="M31.8,76c-0.6,0.2-1.3,0.3-1.9,0.5C30.5,76.3,31.1,76.2,31.8,76z"/>
	<path d="M68.6,69.6c-0.7,0.1-1.4,0.1-2,0.2C67.2,69.8,67.9,69.7,68.6,69.6z"/>
	<path d="M36.4,74.8c-0.7,0.2-1.3,0.3-2,0.5C35,75.2,35.7,75,36.4,74.8z"/>
	<path d="M22.4,78.7c-0.5,0.2-1,0.3-1.5,0.5C21.4,79,21.9,78.8,22.4,78.7z"/>
	<path d="M16.9,80.4c-0.1,0-0.3,0.1-0.4,0.1C16.6,80.5,16.7,80.5,16.9,80.4z"/>
	<path d="M63.9,70.1c-0.7,0.1-1.4,0.2-2.1,0.2C62.6,70.2,63.2,70.2,63.9,70.1z"/>
	<path d="M54.7,71.3c-0.7,0.1-1.4,0.2-2.1,0.3C53.3,71.5,54,71.4,54.7,71.3z"/>
	<path d="M50.1,72c-0.7,0.1-1.4,0.2-2.1,0.4C48.7,72.2,49.4,72.1,50.1,72z"/>
	<path d="M40.9,73.8c-0.7,0.1-1.4,0.3-2,0.4C39.6,74.1,40.3,73.9,40.9,73.8z"/>
	<path d="M130.6,73.2c-0.7-0.1-1.4-0.3-2.1-0.4C129.2,72.9,129.9,73,130.6,73.2z"/>
	<path d="M135.1,74.1c-0.7-0.2-1.4-0.3-2-0.4C133.8,73.8,134.4,74,135.1,74.1z"/>
	<path d="M139.6,75.2c-0.7-0.2-1.3-0.3-2-0.5C138.3,74.9,139,75,139.6,75.2z"/>
	<path d="M144.1,76.3c-0.6-0.2-1.3-0.3-1.9-0.5C142.8,76,143.5,76.2,144.1,76.3z"/>
	<path d="M148.6,77.6c-0.6-0.2-1.2-0.3-1.8-0.5C147.4,77.3,148,77.4,148.6,77.6z"/>
	<path d="M160.2,86.6l-1.9,4.6c0.1,0,0.1,0,0.2,0.1L163,93l3.8-9.3l-4.7-1.7L160.2,86.6z"/>
	<path d="M15.3,91.6c0.1,0,0.1,0,0.2-0.1l-1.9-4.6l-1.9-4.6L7,84l3.8,9.2L15.3,91.6z"/>
	<path d="M160.2,86.6l1.9-4.6l-0.2-0.1c-1.5-0.5-3-1.1-4.5-1.6c-0.1,0-0.2-0.1-0.3-0.1c-1.4-0.5-2.7-0.9-4.1-1.3
		c-0.5-0.2-1-0.3-1.5-0.5c-1-0.3-1.9-0.6-2.9-0.9c-0.6-0.2-1.2-0.3-1.8-0.5c-0.9-0.2-1.8-0.5-2.7-0.7c-0.6-0.2-1.3-0.3-1.9-0.5
		c-0.9-0.2-1.7-0.4-2.6-0.7c-0.7-0.2-1.3-0.3-2-0.5c-0.8-0.2-1.7-0.4-2.5-0.6c-0.7-0.2-1.4-0.3-2-0.4c-0.8-0.2-1.7-0.4-2.5-0.5
		c-0.7-0.1-1.4-0.3-2.1-0.4c-0.8-0.2-1.7-0.3-2.5-0.5c-0.7-0.1-1.4-0.2-2.1-0.4c-0.8-0.1-1.7-0.3-2.5-0.4c-0.7-0.1-1.4-0.2-2.1-0.3
		c-0.8-0.1-1.7-0.2-2.5-0.4c-0.7-0.1-1.4-0.2-2.1-0.3c-0.8-0.1-1.7-0.2-2.5-0.3c-0.7-0.1-1.4-0.2-2.1-0.2c-0.9-0.1-1.7-0.2-2.6-0.3
		c-0.7-0.1-1.3-0.1-2-0.2c-0.9-0.1-1.8-0.1-2.6-0.2c-0.7,0-1.3-0.1-2-0.1c-0.9-0.1-1.9-0.1-2.8-0.2c-0.6,0-1.2-0.1-1.8-0.1
		c-1,0-2.1-0.1-3.1-0.1c-0.5,0-1,0-1.5,0c-1.5,0-3.1-0.1-4.6-0.1c-1.6,0-3.1,0-4.7,0.1c-0.5,0-1,0-1.6,0c-1,0-2.1,0.1-3.1,0.1
		c-0.6,0-1.2,0.1-1.9,0.1c-0.9,0-1.9,0.1-2.8,0.2c-0.7,0-1.3,0.1-2,0.1c-0.9,0.1-1.8,0.1-2.7,0.2c-0.7,0.1-1.4,0.1-2,0.2
		c-0.9,0.1-1.7,0.2-2.6,0.3c-0.7,0.1-1.4,0.2-2.1,0.2c-0.8,0.1-1.7,0.2-2.5,0.3c-0.7,0.1-1.4,0.2-2.1,0.3c-0.8,0.1-1.7,0.2-2.5,0.4
		c-0.7,0.1-1.4,0.2-2.1,0.3c-0.8,0.1-1.7,0.3-2.5,0.4c-0.7,0.1-1.4,0.2-2.1,0.4c-0.8,0.2-1.7,0.3-2.5,0.5c-0.7,0.1-1.4,0.3-2.1,0.4
		c-0.8,0.2-1.7,0.3-2.5,0.5c-0.7,0.1-1.4,0.3-2,0.4c-0.8,0.2-1.7,0.4-2.5,0.6c-0.7,0.2-1.3,0.3-2,0.5c-0.9,0.2-1.7,0.4-2.6,0.7
		c-0.6,0.2-1.3,0.3-1.9,0.5c-0.9,0.2-1.8,0.5-2.7,0.8c-0.6,0.2-1.2,0.3-1.8,0.5c-1,0.3-2,0.6-3,0.9c-0.5,0.2-1,0.3-1.5,0.5
		c-1.3,0.4-2.7,0.9-4,1.3c-0.1,0-0.3,0.1-0.4,0.1c-1.5,0.5-3,1.1-4.5,1.6l-0.2,0.1l1.9,4.6C62.6,69,114.3,70.1,160.2,86.6z"/>
	<path d="M72,79.4c0.6,0,1.2-0.1,1.9-0.1C73.3,79.3,72.7,79.3,72,79.4z"/>
	<path d="M138.6,126.1c1.4,1.1,2.8,2.3,3.9,3.7l15.9-38.5c-1.6-0.6-3.2-1.1-4.7-1.6L138.6,126.1z"/>
	<path d="M63.1,80.2c0.7-0.1,1.3-0.2,2-0.2C64.4,80.1,63.8,80.2,63.1,80.2z"/>
	<path d="M67.6,79.8c0.6-0.1,1.3-0.1,1.9-0.2C68.8,79.6,68.2,79.7,67.6,79.8z"/>
	<path d="M96,79c0.6,0,1.2,0.1,1.7,0.1C97.1,79.1,96.6,79,96,79z"/>
	<path d="M122.8,164.4l-35.6,86.3l-8.8-21c-2.1-0.2-4.2-0.8-6.1-1.6l13.4,32.2c0.5,1.3,2.3,1.3,2.8,0l39.5-95.8
		c-0.8,0.1-1.5,0.1-2.3,0.1C124.8,164.7,123.8,164.6,122.8,164.4z"/>
	<path d="M91.6,78.9c0.5,0,1,0,1.5,0C92.6,78.9,92.1,78.9,91.6,78.9z"/>
	<path d="M81.3,78.9c0.5,0,1,0,1.5,0C82.3,78.9,81.8,78.9,81.3,78.9z"/>
	<path d="M76.6,79.1c0.6,0,1.2-0.1,1.8-0.1C77.7,79,77.1,79.1,76.6,79.1z"/>
	<path d="M54.3,81.4c0.7-0.1,1.3-0.2,2-0.3C55.7,81.2,55,81.3,54.3,81.4z"/>
	<path d="M32.7,86.1c0.5-0.1,1-0.3,1.5-0.4C33.7,85.8,33.2,85.9,32.7,86.1z"/>
	<path d="M37,85c0.6-0.1,1.2-0.3,1.8-0.4C38.2,84.7,37.6,84.8,37,85z"/>
	<path d="M28.4,87.3c0.1,0,0.3-0.1,0.4-0.1C28.7,87.2,28.6,87.2,28.4,87.3z"/>
	<path d="M22.9,89c0.4-0.1,0.9-0.3,1.3-0.4C23.8,88.7,23.3,88.9,22.9,89z"/>
	<path d="M50,82.2c0.7-0.1,1.3-0.2,2-0.3C51.3,82,50.6,82.1,50,82.2z"/>
	<path d="M104.8,79.6c0.6,0.1,1.3,0.1,1.9,0.2C106,79.7,105.4,79.6,104.8,79.6z"/>
	<path d="M58.7,80.8c0.7-0.1,1.3-0.2,2-0.3C60,80.6,59.4,80.7,58.7,80.8z"/>
	<path d="M41.3,83.9c0.6-0.1,1.2-0.3,1.9-0.4C42.6,83.7,41.9,83.8,41.3,83.9z"/>
	<path d="M45.6,83c0.6-0.1,1.3-0.3,1.9-0.4C46.9,82.8,46.3,82.9,45.6,83z"/>
	<path d="M100.4,79.3c0.6,0,1.2,0.1,1.8,0.1C101.6,79.3,101,79.3,100.4,79.3z"/>
	<path d="M126.6,82.6c0.6,0.1,1.2,0.2,1.8,0.4C127.8,82.8,127.2,82.7,126.6,82.6z"/>
	<path d="M135.3,84.4c0.6,0.1,1.1,0.3,1.7,0.4C136.4,84.7,135.9,84.6,135.3,84.4z"/>
	<path d="M130.9,83.5c0.6,0.1,1.2,0.3,1.8,0.4C132.1,83.7,131.5,83.6,130.9,83.5z"/>
	<path d="M122.2,81.8c0.6,0.1,1.3,0.2,1.9,0.3C123.5,82,122.9,81.9,122.2,81.8z"/>
	<path d="M139.9,85.6c0.5,0.1,0.9,0.2,1.4,0.4C140.8,85.8,140.3,85.7,139.9,85.6z"/>
	<path d="M149.7,88.4c0.5,0.1,0.9,0.3,1.4,0.5C150.7,88.7,150.2,88.5,149.7,88.4z"/>
	<path d="M145.4,87.1c0,0,0.1,0,0.1,0C145.5,87.1,145.4,87.1,145.4,87.1z"/>
	<path d="M117.9,81.1c0.6,0.1,1.3,0.2,1.9,0.3C119.1,81.3,118.5,81.2,117.9,81.1z"/>
	<path d="M40.8,139.2c-6.6-3.6-11.1-10.7-11.1-18.7c0-2,0.3-4,0.8-5.9L20.3,89.9c-1.6,0.5-3.2,1.1-4.7,1.7l45.3,108.9
		c0.8-2,1.9-3.8,3.2-5.4L40.8,139.2z"/>
	<path d="M113.5,80.5c0.6,0.1,1.3,0.2,1.9,0.3C114.8,80.7,114.1,80.6,113.5,80.5z"/>
	<path d="M109.1,80c0.6,0.1,1.3,0.1,1.9,0.2C110.4,80.1,109.8,80.1,109.1,80z"/>
	<path d="M13.6,86.9l1.9,4.6c1.6-0.6,3.1-1.1,4.7-1.7l0,0c0.9-0.3,1.8-0.6,2.6-0.9c0.4-0.1,0.9-0.3,1.3-0.4c1.4-0.4,2.8-0.9,4.3-1.3
		c0.1,0,0.3-0.1,0.4-0.1c1.3-0.4,2.6-0.7,3.8-1.1c0.5-0.1,1-0.3,1.5-0.4c0.9-0.2,1.8-0.5,2.8-0.7c0.6-0.1,1.2-0.3,1.8-0.4
		c0.8-0.2,1.7-0.4,2.5-0.6c0.6-0.1,1.2-0.3,1.9-0.4c0.8-0.2,1.6-0.4,2.5-0.5c0.6-0.1,1.3-0.3,1.9-0.4c0.8-0.2,1.6-0.3,2.4-0.5
		c0.7-0.1,1.3-0.2,2-0.3c0.8-0.1,1.6-0.3,2.4-0.4c0.7-0.1,1.3-0.2,2-0.3c0.8-0.1,1.6-0.2,2.4-0.3c0.7-0.1,1.3-0.2,2-0.3
		c0.8-0.1,1.6-0.2,2.4-0.3c0.7-0.1,1.3-0.2,2-0.2c0.8-0.1,1.6-0.2,2.5-0.2c0.6-0.1,1.3-0.1,1.9-0.2c0.8-0.1,1.7-0.1,2.5-0.2
		c0.6,0,1.2-0.1,1.9-0.1c0.9-0.1,1.8-0.1,2.7-0.1c0.6,0,1.2-0.1,1.8-0.1c1,0,2-0.1,3-0.1c0.5,0,1,0,1.5,0c1.5,0,3,0,4.4,0
		c1.5,0,2.9,0,4.4,0c0.5,0,1,0,1.5,0c1,0,2,0.1,2.9,0.1c0.6,0,1.2,0.1,1.7,0.1c0.9,0,1.8,0.1,2.7,0.1c0.6,0,1.2,0.1,1.8,0.1
		c0.9,0.1,1.7,0.1,2.6,0.2c0.6,0.1,1.3,0.1,1.9,0.2c0.8,0.1,1.7,0.2,2.5,0.2c0.6,0.1,1.3,0.1,1.9,0.2c0.8,0.1,1.6,0.2,2.5,0.3
		c0.6,0.1,1.3,0.2,1.9,0.3c0.8,0.1,1.6,0.2,2.4,0.3c0.6,0.1,1.3,0.2,1.9,0.3c0.8,0.1,1.6,0.3,2.4,0.4c0.6,0.1,1.3,0.2,1.9,0.3
		c0.8,0.1,1.6,0.3,2.5,0.5c0.6,0.1,1.2,0.2,1.8,0.4c0.8,0.2,1.7,0.3,2.5,0.5c0.6,0.1,1.2,0.3,1.8,0.4c0.9,0.2,1.7,0.4,2.6,0.6
		c0.6,0.1,1.1,0.3,1.7,0.4c1,0.2,1.9,0.5,2.9,0.7c0.5,0.1,0.9,0.2,1.4,0.4c1.4,0.4,2.8,0.8,4.1,1.2c0,0,0.1,0,0.1,0
		c1.4,0.4,2.8,0.8,4.2,1.3c0.5,0.1,0.9,0.3,1.4,0.5c0.8,0.3,1.6,0.5,2.5,0.8l0,0c1.6,0.5,3.2,1.1,4.7,1.6l1.9-4.6
		C114.3,70.1,62.6,69,13.6,86.9z"/>
	<circle fill="#86D4EF" cx="51.1" cy="120.5" r="11.4"/>
	<path d="M72.5,120.5c0-11.8-9.6-21.4-21.4-21.4c-9.8,0-18,6.6-20.6,15.5l10.2,24.6c3.1,1.7,6.6,2.7,10.3,2.7
		C62.9,141.9,72.5,132.3,72.5,120.5z M34.7,120.5c0-9,7.4-16.4,16.4-16.4s16.4,7.4,16.4,16.4s-7.4,16.4-16.4,16.4
		S34.7,129.5,34.7,120.5z"/>
	<path d="M29.7,120.5c0,8.1,4.5,15.1,11.1,18.7l-10.2-24.6C30,116.5,29.7,118.4,29.7,120.5z"/>
	<path d="M67.5,120.5c0-9-7.4-16.4-16.4-16.4s-16.4,7.4-16.4,16.4s7.4,16.4,16.4,16.4S67.5,129.5,67.5,120.5z M39.7,120.5
		c0-6.3,5.1-11.4,11.4-11.4s11.4,5.1,11.4,11.4s-5.1,11.4-11.4,11.4S39.7,126.8,39.7,120.5z"/>
	<path fill="#86D4EF" d="M125.9,131.9c-6.3,0-11.4,5.1-11.4,11.4s5.1,11.4,11.4,11.4c0.3,0,0.6,0,1,0l7.7-18.7
		C132.4,133.4,129.3,131.9,125.9,131.9z"/>
	<path d="M137.2,143.3c0-0.2,0-0.5,0-0.7l-3.8,9.3C135.8,149.7,137.2,146.7,137.2,143.3z"/>
	<path d="M133.4,151.8l3.8-9.3c-0.2-2.5-1.1-4.8-2.7-6.6l-7.7,18.7C129.3,154.4,131.6,153.4,133.4,151.8z"/>
	<path d="M104.5,143.3c0,10.7,8,19.6,18.3,21.1l2-4.8c-8.5-0.6-15.3-7.7-15.3-16.3c0-9,7.4-16.4,16.4-16.4c4.1,0,7.9,1.5,10.7,4
		l2-4.8c-3.6-2.6-7.9-4.2-12.7-4.2C114.1,121.9,104.5,131.5,104.5,143.3z"/>
	<path d="M140.2,135.3c1.3,2.4,2.1,5.1,2.1,7.9c0,0.1,0,0.1,0,0.2l3.4-8.3c-0.8-2-1.9-3.8-3.2-5.4L140.2,135.3z"/>
	<path d="M130.4,159l-2.3,5.5c2.1-0.2,4.2-0.8,6.1-1.6l3.4-8.3C135.7,156.7,133.2,158.2,130.4,159z"/>
	<path d="M124.8,159.6l-2,4.8c1,0.1,2,0.2,3.1,0.2c0.8,0,1.5,0,2.3-0.1l2.3-5.5c-1.5,0.4-3,0.7-4.6,0.7
		C125.5,159.7,125.1,159.6,124.8,159.6z"/>
	<path d="M138.6,126.1l-2,4.8c1.4,1.2,2.7,2.7,3.6,4.4l2.3-5.5C141.3,128.4,140,127.2,138.6,126.1z"/>
	<path d="M109.5,143.3c0,8.7,6.8,15.8,15.3,16.3l2.1-5c-0.3,0-0.6,0-1,0c-6.3,0-11.4-5.1-11.4-11.4s5.1-11.4,11.4-11.4
		c3.5,0,6.6,1.6,8.7,4l2.1-5c-2.9-2.5-6.6-4-10.7-4C116.8,126.9,109.5,134.2,109.5,143.3z"/>
	<path d="M137.2,143.3c0,3.4-1.5,6.4-3.9,8.5l-3,7.2c2.8-0.8,5.2-2.3,7.2-4.3l4.6-11.2c0-0.1,0-0.1,0-0.2c0-2.9-0.8-5.6-2.1-7.9
		l-3,7.2C137.2,142.8,137.2,143,137.2,143.3z"/>
	<path d="M126.8,154.6l-2.1,5c0.4,0,0.7,0.1,1.1,0.1c1.6,0,3.1-0.2,4.6-0.7l3-7.2C131.6,153.4,129.3,154.4,126.8,154.6z"/>
	<path d="M136.6,130.9l-2.1,5c1.5,1.8,2.5,4.1,2.7,6.6l3-7.2C139.3,133.6,138,132.2,136.6,130.9z"/>
	<path fill="#86D4EF" d="M92.1,208.4c0-6.3-5.1-11.4-11.4-11.4c-6.1,0-11,4.7-11.4,10.7l3.8,9.2c2,1.8,4.6,2.9,7.5,2.9
		C87,219.8,92.1,214.7,92.1,208.4z"/>
	<path d="M69.3,208.4c0,3.4,1.5,6.5,3.9,8.5l-3.8-9.2C69.3,207.9,69.3,208.2,69.3,208.4z"/>
	<path d="M102.1,208.4c0-11.8-9.6-21.4-21.4-21.4c-6.7,0-12.7,3.1-16.7,8l2.3,5.5c2.8-5.1,8.2-8.5,14.4-8.5c9,0,16.4,7.4,16.4,16.4
		s-7.4,16.4-16.4,16.4c-1.6,0-3.1-0.2-4.5-0.6l2.3,5.5c0.7,0.1,1.5,0.1,2.2,0.1C92.5,229.8,102.1,220.2,102.1,208.4z"/>
	<path d="M72.4,228.1l-3.5-8.3c-2.8-2.9-4.6-6.8-4.6-11.1l-3.4-8.3c-1,2.5-1.6,5.2-1.6,8c0,0.5,0,0.9,0.1,1.4l5.3,12.7
		C66.8,224.9,69.4,226.8,72.4,228.1z"/>
	<path d="M76.2,224.1c-2.8-0.8-5.3-2.3-7.2-4.3l3.5,8.3c1.9,0.8,3.9,1.3,6.1,1.6L76.2,224.1z"/>
	<path d="M66.3,200.5L64,195c-1.3,1.6-2.4,3.4-3.2,5.4l3.4,8.3c0-0.1,0-0.2,0-0.3C64.3,205.5,65,202.8,66.3,200.5z"/>
	<path d="M97.1,208.4c0-9-7.4-16.4-16.4-16.4c-6.2,0-11.6,3.4-14.4,8.5l3,7.2c0.3-6,5.3-10.7,11.4-10.7c6.3,0,11.4,5.1,11.4,11.4
		s-5.1,11.4-11.4,11.4c-2.9,0-5.5-1.1-7.5-2.9l3,7.2c1.4,0.4,3,0.6,4.5,0.6C89.7,224.8,97.1,217.4,97.1,208.4z"/>
	<path d="M69,219.8l-4.6-11.1C64.4,213,66.1,216.9,69,219.8z"/>
	<path d="M76.2,224.1l-3-7.2c-2.4-2.1-3.9-5.1-3.9-8.5c0-0.2,0-0.4,0-0.7l-3-7.2c-1.3,2.3-2,5-2,7.9c0,0.1,0,0.2,0,0.3l4.6,11.1
		C70.9,221.8,73.4,223.3,76.2,224.1z"/>
</g>
<g>
	<polygon fill="#86D4EF" stroke="#000000" stroke-width="10" stroke-miterlimit="10" points="435.9,242.9 431.8,267.8 461.9,267.8 
		457,243.9 	"/>
	<ellipse fill="#86D4EF" stroke="#000000" stroke-width="10" stroke-miterlimit="10" cx="445.5" cy="149.3" rx="88" ry="94.5"/>
</g>
<rect x="154.2" y="186" fill="#86D4EF" stroke="#000000" stroke-width="10" stroke-miterlimit="10" width="184.3" height="81.8"/>
<circle fill="#FFFFFF" stroke="#000000" stroke-width="10" stroke-miterlimit="10" cx="246.4" cy="203.3" r="50.1"/>
<circle fill="#86D4EF" stroke="#000000" stroke-width="10" stroke-miterlimit="10" cx="246.4" cy="202.6" r="24.7"/>
<rect x="208.1" y="48.7" fill="#86D4EF" stroke="#000000" stroke-width="10" stroke-miterlimit="10" width="76.7" height="48.9"/>
<rect x="208.1" y="48.7" fill="#86D4EF" stroke="#000000" stroke-width="10" stroke-miterlimit="10" width="76.7" height="16.8"/>
<circle fill="#86D4EF" stroke="#000000" stroke-width="10" stroke-miterlimit="10" cx="343.6" cy="59.7" r="11"/>
<g>
	<path fill="#FFFFFF" d="M322.6,115.4c-7.6,0-13.8-6.2-13.8-13.8c0-7.6,6.2-13.8,13.8-13.8s13.8,6.2,13.8,13.8
		C336.5,109.2,330.3,115.4,322.6,115.4z"/>
	<path d="M322.6,92.7c4.9,0,8.8,4,8.8,8.8s-4,8.8-8.8,8.8c-4.9,0-8.8-4-8.8-8.8S317.8,92.7,322.6,92.7 M322.6,82.7
		c-10.4,0-18.8,8.5-18.8,18.8s8.5,18.8,18.8,18.8s18.8-8.5,18.8-18.8S333,82.7,322.6,82.7L322.6,82.7z"/>
</g>
</svg>
