<?xml version="1.0" encoding="utf-8"?>
<!-- Generator: Adobe Illustrator 17.1.0, SVG Export Plug-In . SVG Version: 6.00 Build 0)  -->
<!DOCTYPE svg PUBLIC "-//W3C//DTD SVG 1.1//EN" "http://www.w3.org/Graphics/SVG/1.1/DTD/svg11.dtd">
<svg version="1.1" id="Layer_1" xmlns="http://www.w3.org/2000/svg" xmlns:xlink="http://www.w3.org/1999/xlink" x="0px" y="0px"
	 viewBox="0 0 539.2 298.2" enable-background="new 0 0 539.2 298.2" xml:space="preserve">
<g>
	<path fill="#FBD40E" stroke="#000000" stroke-width="10" stroke-miterlimit="10" d="M142.8,210L142.8,210c0,0-6.3-16.8,9.9-16.8
		l-18.4-13l-2.1,1.7l-8.6-22.9L81.3,175l34.8,92.3l42.3-15.9L142.8,210z"/>
	<rect x="64.3" y="103.2" fill="#FBD40E" stroke="#000000" stroke-width="10" stroke-miterlimit="10" width="99.4" height="90.1"/>
	<path fill="#FFFFFF" stroke="#000000" stroke-width="10" stroke-miterlimit="10" d="M163.7,103.2v45v45c0,0,93.9,14.1,147.3,63.6
		c5.1,4.7,13.4,1.2,13.4-5.7V148.2V45.3c0-7-8.3-10.5-13.4-5.7C257.6,89.1,163.7,103.2,163.7,103.2z"/>
	<rect x="351" y="166.6" fill="#FFFFFF" stroke="#000000" stroke-width="10" stroke-miterlimit="10" width="124" height="77.2"/>
	<line fill="none" stroke="#000000" stroke-width="10" stroke-miterlimit="10" x1="380.1" y1="193.8" x2="445.8" y2="193.8"/>
	<line fill="none" stroke="#000000" stroke-width="10" stroke-miterlimit="10" x1="380.1" y1="216.6" x2="445.8" y2="216.6"/>
	<g>
		<circle fill="#FBD40E" stroke="#000000" stroke-width="10" stroke-miterlimit="10" cx="413" cy="96.7" r="44.1"/>
		<polygon points="418,74.6 413,70.2 408,74.6 391.1,89.5 397.7,97 408,88 408,136.2 418,136.2 418,88 428.2,97 434.8,89.5 		"/>
	</g>
</g>
</svg>
