<?xml version="1.0" encoding="utf-8"?>
<!-- Generator: Adobe Illustrator 17.1.0, SVG Export Plug-In . SVG Version: 6.00 Build 0)  -->
<!DOCTYPE svg PUBLIC "-//W3C//DTD SVG 1.1//EN" "http://www.w3.org/Graphics/SVG/1.1/DTD/svg11.dtd">
<svg version="1.1" id="Layer_1" xmlns="http://www.w3.org/2000/svg" xmlns:xlink="http://www.w3.org/1999/xlink" x="0px" y="0px"
	 viewBox="0 0 936 576" enable-background="new 0 0 936 576" xml:space="preserve">
<g>
	<path fill="#FFFFFF" d="M468,102.6c-17.2,14.1-60.3,39.4-160.6,58.1c-0.9,18.3-1.1,62.5,12.4,113.3c22.9,86,72.8,150.3,148.2,191.1
		c75.4-40.8,125.2-105.1,148.2-191.1c13.5-50.7,13.3-95,12.4-113.3C528.3,142,485.2,116.7,468,102.6z"/>
	<path fill="#1B446D" d="M642.3,138.3C510.6,115.1,480,80.7,478.1,78.4c-2.2-3.6-5.8-5.8-10.1-5.8c-4.2,0-7.8,2.2-10.1,5.8
		c-1.9,2.3-32.6,36.7-164.2,59.9c-5.3,0.9-9.4,5.3-10,10.7c-0.3,2.4-6.4,59.7,12.3,130.4c17.3,65.7,60.3,155.5,166.4,210.4
		c1.8,0.9,3.7,1.4,5.6,1.4s3.9-0.5,5.6-1.4C579.7,434.8,622.7,345,640,279.3c18.7-70.8,12.5-128,12.3-130.4
		C651.7,143.5,647.6,139.2,642.3,138.3z M616.2,273.9c-22.9,86-72.8,150.3-148.2,191.1c-75.4-40.8-125.2-105.1-148.2-191.1
		c-13.5-50.8-13.3-95-12.4-113.3C407.7,142,450.8,116.7,468,102.6c17.2,14.1,60.3,39.4,160.6,58.1
		C629.5,179,629.7,223.2,616.2,273.9z"/>
</g>
<g>
	<path fill="#FFFFFF" d="M435.5,348.3V216.1c0,0,85.7-6,85.7,66.1C521.2,282.2,525,348.3,435.5,348.3z"/>
	<path fill="#1B446D" d="M435.5,360.5c-6.8,0-12.2-5.5-12.2-12.2V216.1c0-6.4,5-11.8,11.4-12.2c0.2,0,2.3-0.2,5.6-0.2
		c45,0,93,20.6,93.2,78.2c0.1,3.9,0.2,29.9-19.9,51.2C496.3,351.3,470.1,360.5,435.5,360.5z M447.7,228.4v107.2
		c21.2-1.7,37.2-8.1,47.7-19c14.1-14.7,13.5-33,13.5-33.8c0-0.2,0-0.4,0-0.6C508.9,238.7,470.6,229.8,447.7,228.4z"/>
</g>
</svg>
