<svg xmlns="http://www.w3.org/2000/svg" viewBox="0 0 936 576"><path fill="#FFF" d="M613.1 115.1c-12.7-5.9-26.6-8.9-41.3-8.9-39.8 0-76.9 22.2-92.2 55.4-2.1 4.5-6.6 7.4-11.6 7.4s-9.5-2.9-11.6-7.4c-15.4-33.1-52.4-55.4-92.2-55.4-14.7 0-28.6 3-41.3 8.9-24.8 11.5-42.8 31.4-50.7 55.9-9.8 30.4-4 65.9 16.6 102.4 30 53.3 85.2 96 176.6 166.8l2.5 1.9 2.3-1.8c91.6-70.9 146.8-113.6 176.9-166.9 20.7-36.6 26.4-72 16.6-102.4-7.8-24.5-25.8-44.4-50.6-55.9z"/><path fill="#1B446D" d="M623.8 92c-16.1-7.4-33.6-11.2-52-11.2-41.5 0-80.7 19.7-103.8 50.8-23.1-31-62.3-50.8-103.8-50.8-18.4 0-35.9 3.8-52 11.2-31.3 14.5-54.1 39.8-64.2 71.3-8.4 26.1-11.9 68.5 18.7 122.7 32.6 57.8 89.3 101.7 183.2 174.4l10.3 8c2.3 1.8 5 2.7 7.8 2.7s5.5-.9 7.8-2.7l10.1-7.8C580 387.8 636.7 343.8 669.3 286c30.6-54.2 27.1-96.7 18.7-122.7-10.1-31.4-32.9-56.7-64.2-71.3zm23.3 181.5c-30.1 53.3-85.3 96.1-176.9 166.9l-2.3 1.8-2.5-1.9C374 369.5 318.8 326.8 288.8 273.5c-20.7-36.5-26.4-72-16.6-102.4 7.9-24.6 25.9-44.4 50.7-55.9 12.7-5.9 26.6-8.9 41.3-8.9 39.8 0 76.9 22.2 92.2 55.4 2.1 4.5 6.6 7.4 11.6 7.4s9.5-2.9 11.6-7.4c15.4-33.1 52.4-55.4 92.2-55.4 14.7 0 28.6 3 41.3 8.9 24.8 11.5 42.8 31.4 50.7 55.9 9.8 30.4 4 65.8-16.7 102.4z"/><g fill="#1B446D"><path d="M409.7 219.8c1.9-1.5 4.3-2.6 6.9-3.4 2.8-.8 5.9-1.2 9-1.2 4.4 0 8.1.8 11.2 2.4 3.1 1.6 5.8 4.1 8.2 7.4l3.3 4.6 18.6-14.7-2.8-3.8c-4.8-6.4-10.6-11-17.2-13.7-6.4-2.7-13.4-4-20.9-4-5.8 0-11.3.8-16.6 2.4-5.4 1.6-10.3 4.1-14.4 7.4-4.3 3.3-7.8 7.6-10.3 12.5-2.5 5-3.8 10.8-3.8 17.1 0 6.6 1.1 12.3 3.2 17 2.1 4.7 5 8.6 8.7 11.8 3.4 3 7.4 5.4 11.6 7.3 3.9 1.7 8 3.2 12.2 4.5 4 1.3 7.8 2.5 11.6 3.8 3.4 1.1 6.4 2.5 9.1 4.1 2.3 1.4 4 3 5.4 5.1 1.2 1.8 1.8 4.4 1.8 7.5 0 2.9-.5 5.3-1.6 7.5-1.1 2.3-2.6 4.1-4.5 5.7-2 1.6-4.3 2.9-7 3.9-2.7.9-5.8 1.4-8.9 1.4-5.2 0-9.8-1.1-13.8-3.2-3.9-2.1-7-5.2-9.5-9.5l-3.9-6.2-20 14.9 3.5 4.8c5.5 7.6 12.2 13 20 16.3 7.5 3.1 15.8 4.7 24.6 4.7 5.6 0 11-.9 16.2-2.5 5.3-1.7 10.1-4.3 14.1-7.7 4.1-3.5 7.5-7.7 9.9-12.7 2.5-5 3.7-10.8 3.7-17.3 0-8.8-1.9-16-5.8-21.3-3.6-5.1-8.3-9.1-13.7-11.9-5-2.6-10.6-4.7-16.5-6.3-5.2-1.4-10.2-3-14.6-4.8-3.9-1.6-7.2-3.8-9.8-6.5-2.1-2.2-3.1-5.7-3.1-10.3 0-3 .5-5.6 1.6-7.6 1-2.4 2.5-4.1 4.3-5.5zM566.9 207.5v-.2c0-6-4.8-10.8-10.8-10.8H493c-6.2 0-11.2 5-11.2 11.2v112.4c0 6 4.8 10.8 10.8 10.8h1.3c6 0 10.8-4.8 10.8-10.8v-47.6h47.1c6 0 10.8-4.8 10.8-10.8v-.2c0-6-4.8-10.8-10.8-10.8h-47.1v-32.5h51.5c5.9 0 10.7-4.8 10.7-10.7z"/><path d="M398 301.4c.5 6.9-5.6 12.5-12.5 12.5s-12.5-5.6-12.5-12.5 5.6-12 12.5-12.5c6.6-.4 11.9 4.8 12.5 12.5z"/><circle cx="456.8" cy="221.3" r="11.9"/></g></svg>