<svg xmlns="http://www.w3.org/2000/svg" viewBox="0 0 360 360"><path fill="#FFF" d="M163.82 93.188l14.742-33.5 9.885 4.35-14.743 33.5z"/><path fill="#83D4F0" d="M175.2 51l-20.1 45.5 22 9.7 20-45.6"/><path fill="none" stroke="#1B446D" stroke-width="11" stroke-linecap="round" stroke-linejoin="round" stroke-miterlimit="10" d="M172.3 49.6l28 12.5"/><path fill="none" stroke="#83D4F0" stroke-width="11" stroke-linecap="round" stroke-linejoin="round" stroke-miterlimit="10" d="M225 237H101.1"/><path fill="#FFF" d="M189.3 295.2c-1.1-2.3-.7-5 .8-6.9.4-.4 33-41 23.6-81.2-5.5-23.4-24.4-42.7-56.2-57.2-3.2-1.4-4.7-5.1-3.5-8.4l14.4-37.4c1-2.6 3.5-4.2 6.1-4.2.7 0 1.4.1 2 .4 2.6.8 64.2 22.1 86.1 77.4 13.6 34.4 8.6 74.2-14.8 117.8-.9 2.2-57.4 1.9-58.5-.3z"/><path fill="#83D4F0" d="M174.6 106.4s142 47.6 67.6 185.9h-46.9s79.3-96.6-35-148.4l14.3-37.5m0-13.1c-5.3 0-10.3 3.2-12.3 8.5l-14.4 37.4c-2.5 6.5.5 13.9 6.8 16.7 29.9 13.5 47.6 31.2 52.5 52.6 4.4 19-1.8 38.4-7.8 51.3-6.6 14.2-14.5 24-14.5 24-2.4 3-3.4 6.7-2.8 10.4.2 1.2 72.6 2.4 73 1.4 23.2-44.4 27.9-84.9 13.8-120.6-23-58.1-87.4-80.4-90.2-81.2-1.3-.3-2.8-.5-4.1-.5z"/><g stroke-width="11" stroke-linejoin="round" stroke-miterlimit="10"><path fill="#1B446D" stroke="#1B446D" stroke-linecap="round" d="M130.5 196.1l-11.7-5.1 2.5-14.3 17.9 8z"/><path fill="#FFF" stroke="#83D4F0" d="M146.812 189.364l-33.317-14.66 44.63-101.417 33.318 14.662z"/><path fill="none" stroke="#1B446D" stroke-linecap="round" d="M148.1 68.9l53.4 23.4"/></g><circle fill="#FFF" stroke="#1B446D" stroke-width="11" stroke-linecap="round" stroke-linejoin="round" stroke-miterlimit="10" cx="179.2" cy="131.3" r="21.6"/><path fill="#FFF" stroke="#83D4F0" stroke-width="11" stroke-linejoin="round" stroke-miterlimit="10" d="M96.3 292.1h173.6z"/></svg>