<svg xmlns="http://www.w3.org/2000/svg" viewBox="0 0 301 274"><path fill="none" stroke="#1B446D" stroke-width="11" stroke-linecap="round" stroke-linejoin="round" stroke-miterlimit="10" d="M208.9 108s32.2-9.5 32.2 32.7c0 0 2.3 43.7-34 32"/><path fill="#FFF" stroke="#1B446D" stroke-width="11" stroke-linecap="round" stroke-linejoin="round" stroke-miterlimit="10" d="M205.5 73h-110c-4.2 0-7.3 3.8-6.6 7.9 3.4 19.4 5.2 40.8 5.2 63.3s-1.9 43.8-5.2 63.3c-.7 4.1 2.5 7.9 6.6 7.9h109.9c4.2 0 7.3-3.8 6.6-7.9-3.4-19.4-5.2-40.8-5.2-63.3s1.9-43.8 5.2-63.3c.8-4.1-2.4-7.9-6.5-7.9z"/><path fill="#1B446D" d="M170.2 128.8h-12.6c2.9-8.1 5.7-15.9 8.6-23.8.7-2-.8-4.1-2.9-4.1h-25.4c-1.4 0-2.7 1-3 2.4-1.1 4.9-2 9.9-2.9 14.9-1.3 7.1-2.7 14.3-4.1 21.8-.4 2.1 1.2 4.1 3.4 4.1h12.3c-3.3 14.9-6.4 29.2-9.6 43.5-.2.9 1 1.4 1.5.7 8.5-12.1 37.1-54.9 37.1-54.9 1.3-2-.1-4.6-2.4-4.6z"/><path fill="#FFF" stroke="#1B446D" stroke-width="11" stroke-linecap="round" stroke-linejoin="round" stroke-miterlimit="10" d="M112.9 41.6v9.2M148.4 30.8v20M183.9 41.6v9.2"/></svg>