<svg xmlns="http://www.w3.org/2000/svg" viewBox="0 0 301 274"><path fill="#FFF" d="M142.5 217.5c-2.3 0-4.4-1.4-5.2-3.6l-7-18.8c-2.3-.8-4.6-1.7-6.8-2.8l-18.2 8.3c-.7.3-1.5.5-2.3.5-1.4 0-2.8-.6-3.9-1.6l-11.3-11.3c-1.6-1.6-2.1-4.1-1.1-6.2l8.4-18.2c-1.1-2.2-2-4.4-2.8-6.8l-18.8-7c-2.2-.8-3.6-2.9-3.6-5.2v-16c0-2.3 1.4-4.4 3.6-5.2l18.8-7c.8-2.3 1.7-4.6 2.8-6.8l-8.4-18.2c-1-2.1-.5-4.6 1.1-6.2l11.3-11.3c1.1-1.1 2.5-1.6 3.9-1.6.8 0 1.6.2 2.3.5l18.2 8.4c2.2-1.1 4.4-2 6.8-2.8l7-18.8c.8-2.2 2.9-3.6 5.2-3.6h16c2.3 0 4.4 1.4 5.2 3.6l7 18.8c2.3.8 4.6 1.7 6.8 2.8l18.2-8.4c.7-.3 1.5-.5 2.3-.5 1.4 0 2.8.6 3.9 1.6l11.3 11.3c1.6 1.6 2.1 4.1 1.1 6.2l-8.4 18.2c1.1 2.2 2 4.4 2.8 6.8l18.8 7c2.2.8 3.6 2.9 3.6 5.2v16c0 2.3-1.4 4.4-3.6 5.2l-18.8 7c-.8 2.3-1.7 4.6-2.8 6.8l8.4 18.2c1 2.1.5 4.6-1.1 6.2l-11.3 11.3c-1.1 1.1-2.5 1.6-3.9 1.6-.8 0-1.6-.2-2.3-.5l-18.2-8.3c-2.2 1.1-4.4 2-6.8 2.8l-7 18.8c-.8 2.2-2.9 3.6-5.2 3.6h-16zm8-111.2c-17 0-30.8 13.8-30.8 30.8s13.8 30.8 30.8 30.8 30.8-13.8 30.8-30.8-13.8-30.8-30.8-30.8z"/><path fill="#83D4F0" d="M158.5 62l7.9 21.3c3.8 1.1 7.4 2.6 10.8 4.5l20.6-9.5 5.7 5.7 5.7 5.7-9.5 20.6c1.9 3.4 3.4 7 4.5 10.8l21.3 7.9v16l-21.3 7.9c-1.1 3.8-2.6 7.4-4.5 10.8l9.5 20.6-5.7 5.7-5.7 5.7-20.6-9.5c-3.4 1.9-7 3.4-10.8 4.5l-7.9 21.3h-16l-7.9-21.3c-3.8-1.1-7.4-2.6-10.8-4.5l-20.6 9.5-5.7-5.7-5.7-5.7 9.5-20.6c-1.9-3.4-3.4-7-4.5-10.8L75.5 145v-16l21.3-7.9c1.1-3.8 2.6-7.4 4.5-10.8l-9.5-20.6 5.7-5.7 5.7-5.7 20.6 9.5c3.4-1.9 7-3.4 10.8-4.5l7.9-21.3h16m-8 111.2c20 0 36.2-16.3 36.2-36.2 0-20-16.3-36.2-36.2-36.2S114.2 117 114.2 137c0 20 16.3 36.2 36.3 36.2m8-122.2h-16c-4.6 0-8.7 2.9-10.3 7.2l-6.1 16.4c-.8.3-1.7.7-2.5 1l-15.9-7.3c-1.5-.7-3-1-4.6-1-2.9 0-5.7 1.1-7.8 3.2l-5.7 5.7-5.6 5.6c-3.3 3.3-4.1 8.2-2.2 12.4l7.3 15.9c-.4.8-.7 1.6-1 2.5l-16.4 6.1c-4.3 1.6-7.2 5.7-7.2 10.3v16c0 4.6 2.9 8.7 7.2 10.3l16.4 6.1c.3.8.7 1.7 1 2.5l-7.3 15.9c-1.9 4.2-1 9.1 2.2 12.4l5.7 5.7 5.7 5.7c2.1 2.1 4.9 3.2 7.8 3.2 1.6 0 3.1-.3 4.6-1l15.9-7.3c.8.4 1.6.7 2.5 1l6.1 16.4c1.6 4.3 5.7 7.2 10.3 7.2h16c4.6 0 8.7-2.9 10.3-7.2l6.1-16.4c.8-.3 1.7-.7 2.5-1l15.9 7.3c1.5.7 3 1 4.6 1 2.9 0 5.7-1.1 7.8-3.2l5.7-5.7 5.7-5.7c3.3-3.3 4.1-8.2 2.2-12.4l-7.3-15.9c.4-.8.7-1.6 1-2.5l16.4-6.1c4.3-1.6 7.2-5.7 7.2-10.3v-16c0-4.6-2.9-8.7-7.2-10.3l-16.4-6.1c-.3-.8-.7-1.7-1-2.5l7.3-15.9c1.9-4.2 1-9.1-2.2-12.4l-5.7-5.7-5.7-5.7c-2.1-2.1-4.9-3.2-7.8-3.2-1.6 0-3.1.3-4.6 1l-15.9 7.3c-.8-.4-1.6-.7-2.5-1l-6.1-16.4c-1.7-4.2-5.8-7.1-10.4-7.1zm-8 111.2c-13.9 0-25.2-11.3-25.2-25.2s11.3-25.2 25.2-25.2 25.2 11.3 25.2 25.2-11.3 25.2-25.2 25.2z"/><g><path fill="#FFF" d="M150.5 113c-13.2 0-24 10.8-24 24s10.8 24 24 24 24-10.8 24-24-10.8-24-24-24z"/><path fill="#83D4F0" d="M158.5 62l7.9 21.3c3.8 1.1 7.4 2.6 10.8 4.5l20.6-9.5 5.7 5.7 5.7 5.7-9.5 20.6c1.9 3.4 3.4 7 4.5 10.8l21.3 7.9v16l-21.3 7.9c-1.1 3.8-2.6 7.4-4.5 10.8l9.5 20.6-5.7 5.7-5.7 5.7-20.6-9.5c-3.4 1.9-7 3.4-10.8 4.5l-7.9 21.3h-16l-7.9-21.3c-3.8-1.1-7.4-2.6-10.8-4.5l-20.6 9.5-5.7-5.7-5.7-5.7 9.5-20.6c-1.9-3.4-3.4-7-4.5-10.8L75.5 145v-16l21.3-7.9c1.1-3.8 2.6-7.4 4.5-10.8l-9.5-20.6 5.7-5.7 5.7-5.7 20.6 9.5c3.4-1.9 7-3.4 10.8-4.5l7.9-21.3h16m-8 111.2c20 0 36.2-16.3 36.2-36.2s-16.3-36.2-36.2-36.2-36.3 16.2-36.3 36.2 16.3 36.2 36.3 36.2m8-122.2h-16c-4.6 0-8.7 2.9-10.3 7.2l-6.1 16.4c-.8.3-1.7.7-2.5 1l-15.9-7.3c-1.5-.7-3-1-4.6-1-2.9 0-5.7 1.1-7.8 3.2l-5.7 5.7-5.6 5.6c-3.3 3.3-4.1 8.2-2.2 12.4l7.3 15.9c-.4.8-.7 1.6-1 2.5l-16.4 6.1c-4.3 1.6-7.2 5.7-7.2 10.3v16c0 4.6 2.9 8.7 7.2 10.3l16.4 6.1c.3.8.7 1.7 1 2.5l-7.3 15.9c-1.9 4.2-1 9.1 2.2 12.4l5.7 5.7 5.7 5.7c2.1 2.1 4.9 3.2 7.8 3.2 1.6 0 3.1-.3 4.6-1l15.9-7.3c.8.4 1.6.7 2.5 1l6.1 16.4c1.6 4.3 5.7 7.2 10.3 7.2h16c4.6 0 8.7-2.9 10.3-7.2l6.1-16.4c.8-.3 1.7-.7 2.5-1l15.9 7.3c1.5.7 3 1 4.6 1 2.9 0 5.7-1.1 7.8-3.2l5.7-5.7 5.7-5.7c3.3-3.3 4.1-8.2 2.2-12.4l-7.3-15.9c.4-.8.7-1.6 1-2.5l16.4-6.1c4.3-1.6 7.2-5.7 7.2-10.3v-16c0-4.6-2.9-8.7-7.2-10.3l-16.4-6.1c-.3-.8-.7-1.7-1-2.5l7.3-15.9c1.9-4.2 1-9.1-2.2-12.4l-5.7-5.7-5.7-5.7c-2.1-2.1-4.9-3.2-7.8-3.2-1.6 0-3.1.3-4.6 1l-15.9 7.3c-.8-.4-1.6-.7-2.5-1l-6.1-16.4c-1.7-4.2-5.8-7.1-10.4-7.1zm-8 111.2c-13.9 0-25.2-11.3-25.2-25.2s11.3-25.2 25.2-25.2 25.2 11.3 25.2 25.2-11.3 25.2-25.2 25.2z"/><path fill="#1B446D" d="M150.5 100.7c-20 0-36.2 16.3-36.2 36.3s16.3 36.2 36.2 36.2 36.2-16.3 36.2-36.2-16.2-36.3-36.2-36.3zm0 60.3c-13.2 0-24-10.8-24-24s10.8-24 24-24 24 10.8 24 24-10.8 24-24 24z"/></g></svg>