<?xml version="1.0" encoding="utf-8"?>
<!-- Generator: Adobe Illustrator 17.1.0, SVG Export Plug-In . SVG Version: 6.00 Build 0)  -->
<!DOCTYPE svg PUBLIC "-//W3C//DTD SVG 1.1//EN" "http://www.w3.org/Graphics/SVG/1.1/DTD/svg11.dtd">
<svg version="1.1" id="Layer_1" xmlns="http://www.w3.org/2000/svg" xmlns:xlink="http://www.w3.org/1999/xlink" x="0px" y="0px"
	 viewBox="0 0 301 274" enable-background="new 0 0 301 274" xml:space="preserve">
<g>
	
		<path fill="#FFFFFF" stroke="#1B446D" stroke-width="11" stroke-linecap="round" stroke-linejoin="round" stroke-miterlimit="10" d="
		M29.4,53.6c112.9-38.5,94.8,49.4,94.8,49.4S62.5,168.2,29.4,53.6z"/>
	
		<path fill="#FFFFFF" stroke="#1B446D" stroke-width="11" stroke-linecap="round" stroke-linejoin="round" stroke-miterlimit="10" d="
		M271.6,53.6C158.8,15.2,176.8,103,176.8,103S238.5,168.2,271.6,53.6z"/>
	
		<path fill="#FFFFFF" stroke="#83D4F0" stroke-width="11" stroke-linecap="round" stroke-linejoin="round" stroke-miterlimit="10" d="
		M152.1,47.6h-1.6c-42.5,0-81.5,35.1-76.9,76.9l9.1,73c0.6,10.9,9.6,19.5,20.5,19.5h96.1c10.9,0,20-8.6,20.5-19.5l9.1-73
		C233.3,82.7,194.6,47.6,152.1,47.6z"/>
	
		<circle fill="none" stroke="#83D4F0" stroke-width="9" stroke-linecap="round" stroke-linejoin="round" stroke-miterlimit="10" cx="122.3" cy="104.5" r="21.8"/>
	
		<circle fill="none" stroke="#83D4F0" stroke-width="9" stroke-linecap="round" stroke-linejoin="round" stroke-miterlimit="10" cx="178.8" cy="104.5" r="21.8"/>
	
		<circle fill="#FFFFFF" stroke="#1B446D" stroke-width="11" stroke-linecap="round" stroke-linejoin="round" stroke-miterlimit="10" cx="122.3" cy="104.5" r="4.1"/>
	
		<circle fill="#FFFFFF" stroke="#1B446D" stroke-width="11" stroke-linecap="round" stroke-linejoin="round" stroke-miterlimit="10" cx="178.8" cy="104.5" r="4.1"/>
	
		<path fill="#FFFFFF" stroke="#1B446D" stroke-width="9" stroke-linecap="round" stroke-linejoin="round" stroke-miterlimit="10" d="
		M132.6,150.6c-0.2,1-0.3,2-0.3,3c0,10,8.1,18.1,18.1,18.1c10,0,18.1-8.1,18.1-18.1c0-1-0.1-2-0.3-3H132.6z"/>
	
		<path fill="#FFFFFF" stroke="#1B446D" stroke-width="9" stroke-linecap="round" stroke-linejoin="round" stroke-miterlimit="10" d="
		M174,156.4c0.2-1.3,0.3-2.6,0.3-3.9c0-13.2-10.7-23.9-23.9-23.9c-13.2,0-23.9,10.7-23.9,23.9c0,1.3,0.1,2.6,0.3,3.9H174z"/>
	
		<path fill="#FFFFFF" stroke="#1B446D" stroke-width="11" stroke-linecap="round" stroke-linejoin="round" stroke-miterlimit="10" d="
		M213.4,225.7h-53.2v-4.4c0-14.6,11.8-26.4,26.4-26.4h0.5c14.6,0,26.4,11.8,26.4,26.4V225.7z"/>
	
		<path fill="#FFFFFF" stroke="#1B446D" stroke-width="11" stroke-linecap="round" stroke-linejoin="round" stroke-miterlimit="10" d="
		M143.5,225.7H90.2v-4.4c0-14.6,11.8-26.4,26.4-26.4h0.5c14.6,0,26.4,11.8,26.4,26.4V225.7z"/>
</g>
</svg>
