<svg xmlns="http://www.w3.org/2000/svg" viewBox="0 0 936 576"><path fill="#FFF" d="M613.1 115.1c-12.7-5.9-26.6-8.9-41.3-8.9-39.8 0-76.9 22.2-92.2 55.4-2.1 4.5-6.6 7.4-11.6 7.4s-9.5-2.9-11.6-7.4c-15.4-33.1-52.4-55.4-92.2-55.4-14.7 0-28.6 3-41.3 8.9-24.8 11.5-42.8 31.4-50.7 55.9-9.8 30.4-4 65.9 16.6 102.4 30 53.3 85.2 96 176.6 166.8l2.5 1.9 2.3-1.8c91.6-70.9 146.8-113.6 176.9-166.9 20.7-36.6 26.4-72 16.6-102.4-7.8-24.5-25.8-44.4-50.6-55.9z"/><path fill="#83D4F0" d="M623.8 92c-16.1-7.4-33.6-11.2-52-11.2-41.5 0-80.7 19.7-103.8 50.8-23.1-31-62.3-50.8-103.8-50.8-18.4 0-35.9 3.8-52 11.2-31.3 14.5-54.1 39.8-64.2 71.3-8.4 26.1-11.9 68.5 18.7 122.7 32.6 57.8 89.3 101.7 183.2 174.4l10.3 8c2.3 1.8 5 2.7 7.8 2.7s5.5-.9 7.8-2.7l10.1-7.8C580 387.8 636.7 343.8 669.3 286c30.6-54.2 27.1-96.7 18.7-122.7-10.1-31.4-32.9-56.7-64.2-71.3zm23.3 181.5c-30.1 53.3-85.3 96.1-176.9 166.9l-2.3 1.8-2.5-1.9C374 369.5 318.8 326.8 288.8 273.5c-20.7-36.5-26.4-72-16.6-102.4 7.9-24.6 25.9-44.4 50.7-55.9 12.7-5.9 26.6-8.9 41.3-8.9 39.8 0 76.9 22.2 92.2 55.4 2.1 4.5 6.6 7.4 11.6 7.4s9.5-2.9 11.6-7.4c15.4-33.1 52.4-55.4 92.2-55.4 14.7 0 28.6 3 41.3 8.9 24.8 11.5 42.8 31.4 50.7 55.9 9.8 30.4 4 65.8-16.7 102.4z"/><g fill="#1B446D"><path d="M450.5 291.6l-63-90.6c-2.8-4-7.4-6.4-12.3-6.4h-.2c-8.2 0-14.9 6.7-14.9 14.9v108.3c0 6.1 4.9 11 11 11h.2c6.1 0 11-4.9 11-11v-86l63 90.6c2.8 4 7.4 6.4 12.3 6.4h.2c8.2 0 14.9-6.7 14.9-14.9V205.6c0-6.1-4.9-11-11-11h-.2c-6.1 0-11 4.9-11 11v86z"/><path d="M457.8 330h-.2c-5.3 0-10.2-2.6-13.2-6.9l-60.8-87.5v82.2c0 6.7-5.5 12.2-12.2 12.2-6.9 0-12.4-5.5-12.4-12.2V209.5c0-8.9 7.2-16.1 16.1-16.1 5.5 0 10.5 2.6 13.5 6.9l60.8 87.5v-82.2c0-6.7 5.5-12.2 12.2-12.2 6.9 0 12.4 5.5 12.4 12.2v108.3c-.1 8.9-7.4 16.1-16.2 16.1zm-76.7-102l65.2 93.7c2.6 3.7 6.8 5.9 11.3 5.9h.2c7.6 0 13.7-6.2 13.7-13.7V205.6c0-5.4-4.4-9.8-9.8-9.8-5.6 0-10 4.4-10 9.8v89.8l-65.2-93.7c-2.6-3.7-6.8-5.9-11.3-5.9-7.8 0-14 6.2-14 13.7v108.3c0 5.4 4.4 9.8 9.8 9.8 5.6 0 10-4.4 10-9.8V228z"/><g><path d="M566.5 199.4l-32.1 49.3-31.3-49.2c-2-3.1-5.3-4.9-9-4.9H493c-8.4 0-13.5 9.3-9 16.4l39.2 60.8v46c0 6.1 4.9 11 11 11h.2c6.1 0 11-4.9 11-11v-46l39.2-60.8c4.6-7.1-.5-16.4-9-16.4h-.3c-3.5 0-6.8 1.8-8.8 4.8z"/><path d="M534.5 330h-.2c-6.7 0-12.2-5.5-12.2-12.2v-45.7l-39-60.5c-2.4-3.7-2.6-8.2-.4-12.1 2.1-3.9 6-6.2 10.4-6.2h1.1c4.1 0 7.8 2.1 10 5.5l30.3 47.6 31.1-47.7c2.2-3.4 5.9-5.4 9.9-5.4h.3c4.4 0 8.3 2.3 10.4 6.2 2.1 3.9 1.9 8.4-.4 12.1l-39 60.5v45.7c-.2 6.7-5.6 12.2-12.3 12.2zM493 195.8c-3.5 0-6.6 1.8-8.3 4.9-1.7 3.1-1.6 6.7.4 9.7l39.4 61.1v46.4c0 5.4 4.4 9.8 9.8 9.8h.2c5.4 0 9.8-4.4 9.8-9.8v-46.4l.2-.3 39.2-60.8c1.9-3 2-6.6.4-9.7-1.7-3.1-4.8-4.9-8.3-4.9h-.3c-3.2 0-6.2 1.6-7.9 4.3l-33.1 50.8-32.3-50.7c-1.7-2.7-4.7-4.4-8-4.4H493z"/></g></g></svg>