<svg xmlns="http://www.w3.org/2000/svg" viewBox="0 0 936 576"><path fill="#FFF" d="M656.2 212.9c-11.3 0-20.6 8.3-22.3 19.1l-104.4-15.2-46.7-94.5c7.5-3.7 12.6-11.4 12.6-20.2 0-12.5-10.1-22.6-22.6-22.6s-22.6 10.1-22.6 22.6c0 8.9 5.1 16.6 12.6 20.2l-46.7 94.5L311.9 232c-1.7-10.8-11-19.1-22.3-19.1-12.5 0-22.6 10.1-22.6 22.6 0 12.5 10.1 22.6 22.6 22.6 6.4 0 12.2-2.7 16.3-7l75.3 73.4-17.8 103.9c-1.2-.2-2.4-.3-3.7-.3-12.5 0-22.6 10.1-22.6 22.6 0 12.5 10.1 22.6 22.6 22.6 12.5 0 22.6-10.1 22.6-22.6 0-3.8-1-7.4-2.6-10.6l93.2-49 93.4 49.1c-1.6 3.1-2.6 6.7-2.6 10.5 0 12.5 10.1 22.6 22.6 22.6 12.5 0 22.6-10.1 22.6-22.6 0-12.5-10.1-22.6-22.6-22.6-1.3 0-2.6.1-3.9.4l-17.8-103.9 75.3-73.4c4.1 4.3 9.9 7 16.3 7 12.5 0 22.6-10.1 22.6-22.6 0-12.6-10.1-22.7-22.6-22.7z"/><path fill="#1B446D" d="M656.2 189.5c-14.3 0-27.2 6.5-35.7 16.9l-75.4-11-33.6-68.2c4.8-7.3 7.5-16 7.5-25.2 0-25.4-20.6-46-46-46s-46 20.6-46 46c0 9.2 2.7 17.9 7.5 25.2l-33.6 68.2-75.4 11c-8.5-10.4-21.3-16.9-35.7-16.9-25.4 0-46 20.6-46 46s20.6 46 46 46c4.2 0 8.3-.6 12.2-1.7l54.3 52.9-12.9 75c-17.2 6.7-29.5 23.4-29.5 42.9 0 25.4 20.6 46 46 46 24.6 0 44.8-19.5 46-43.8l67.2-35.3 67.4 35.5c1.2 24.3 21.4 43.7 46 43.7 25.4 0 46-20.6 46-46 0-19.6-12.4-36.5-29.7-43l-12.9-74.9 54.3-52.9c4 1.1 8.1 1.7 12.2 1.7 25.4 0 46-20.6 46-46-.2-25.5-20.8-46.1-46.2-46.1zm0 68.6c-6.4 0-12.2-2.7-16.3-7l-75.3 73.4 17.8 103.9c1.3-.2 2.6-.4 3.9-.4 12.5 0 22.6 10.1 22.6 22.6 0 12.5-10.1 22.6-22.6 22.6-12.5 0-22.6-10.1-22.6-22.6 0-3.8.9-7.3 2.6-10.5L472.9 391l-93.2 49c1.7 3.2 2.6 6.8 2.6 10.6 0 12.5-10.1 22.6-22.6 22.6-12.5 0-22.6-10.1-22.6-22.6 0-12.5 10.1-22.6 22.6-22.6 1.3 0 2.5.1 3.7.3l17.8-103.9-75.3-73.4c-4.1 4.3-9.9 7-16.3 7-12.5 0-22.6-10.1-22.6-22.6 0-12.5 10.1-22.6 22.6-22.6 11.3 0 20.6 8.3 22.3 19.1l104.4-15.2 46.7-94.5c-7.5-3.7-12.6-11.4-12.6-20.2 0-12.5 10.1-22.6 22.6-22.6s22.6 10.1 22.6 22.6c0 8.9-5.1 16.6-12.6 20.2l46.7 94.5L633.9 232c1.7-10.8 11-19.1 22.3-19.1 12.5 0 22.6 10.1 22.6 22.6 0 12.5-10.1 22.6-22.6 22.6z"/><path fill="#FFF" d="M441 359.9V233.3s82-5.8 82 63.3c0 0 3.7 63.3-82 63.3z"/><path fill="#1B446D" d="M441 371.7c-6.5 0-11.7-5.2-11.7-11.7V233.3c0-6.2 4.8-11.3 10.9-11.7.2 0 2.2-.1 5.4-.1 43 0 89 19.7 89.2 74.9.1 3.8.2 28.6-19.1 49-16.4 17.4-41.6 26.3-74.7 26.3zm11.8-126.5v102.6c20.5-1.7 35.9-7.8 45.9-18.4 13.3-14.1 12.7-31.8 12.7-32v-.7c-.1-41.7-36.7-50.2-58.6-51.5z"/></svg>