<?xml version="1.0" encoding="utf-8"?>
<!-- Generator: Adobe Illustrator 17.1.0, SVG Export Plug-In . SVG Version: 6.00 Build 0)  -->
<!DOCTYPE svg PUBLIC "-//W3C//DTD SVG 1.1//EN" "http://www.w3.org/Graphics/SVG/1.1/DTD/svg11.dtd">
<svg version="1.1" id="Layer_1" xmlns="http://www.w3.org/2000/svg" xmlns:xlink="http://www.w3.org/1999/xlink" x="0px" y="0px"
	 viewBox="0 0 612 792" enable-background="new 0 0 612 792" xml:space="preserve">
<g>
	<g>
		<path fill="#FFFFFF" d="M414.3,286.1l-6.6,4.1c-98.9,59.4-193.1,62.4-193.1,62.4v79.6c0,0,98.6,3.1,199.6,66.6
			C414.3,498.7,428.9,392,414.3,286.1L414.3,286.1z"/>
		<path fill="#83D4F0" d="M414.3,506.1c-1.4,0-2.7-0.4-3.9-1.1c-98.1-61.7-195-65.4-195.9-65.5c-4-0.1-7.1-3.4-7.1-7.4v-79.6
			c0-4,3.2-7.2,7.1-7.4c0.9,0,93.5-3.6,189.5-61.3l6.5-4c2.1-1.3,4.8-1.5,7-0.4c2.3,1.1,3.8,3.2,4.2,5.7
			c14.5,105.7,0.1,213.5,0,214.6c-0.3,2.5-1.9,4.6-4.2,5.7C416.4,505.8,415.4,506.1,414.3,506.1z M222.1,425.2
			c23.8,1.9,102.7,11.7,186.3,61.2c3-28.7,9.6-107.9,0.1-188.1c-83.9,49.4-162.6,59.2-186.4,61.1V425.2z"/>
	</g>
	<g>
		<path fill="#FFFFFF" d="M163.3,431.7l29.8-15.9l38.5,72.3L201.8,504L163.3,431.7z"/>
		<path fill="#1B446D" d="M201.8,511.4c-0.7,0-1.4-0.1-2.1-0.3c-1.9-0.6-3.4-1.9-4.4-3.6l-38.5-72.3c-0.9-1.7-1.1-3.7-0.5-5.6
			c0.6-1.9,1.9-3.4,3.6-4.4l29.8-15.9c3.6-1.9,8.1-0.5,10,3l38.5,72.3c1.9,3.6,0.6,8.1-3,10l-29.8,15.9
			C204.2,511.1,203,511.4,201.8,511.4z M173.3,434.8l31.6,59.3l16.8-9l-31.6-59.3L173.3,434.8z"/>
	</g>
	<g>
		<path fill="#FFFFFF" d="M156.1,432.4h58.4v-79.8h-58.4c-3.1,0-5.5,2.5-5.5,5.5v68.6C150.6,429.9,153.1,432.4,156.1,432.4
			L156.1,432.4z"/>
		<path fill="#1B446D" d="M221.9,439.8h-65.8c-7.1,0-12.9-5.9-12.9-13v-68.6c0-7.1,5.8-12.9,12.9-12.9h65.8V439.8z M158,425h49.2
			v-65.1H158V425z"/>
	</g>
	<g>
		<path fill="none" d="M331,362.3c0,0,30-8,60-24.8 M382.4,344c0,0,6.3,48.7,0,97"/>
	</g>
	<g>
		<path fill="#83D4F0" d="M471.4,478.4c-1,0-2-0.2-3-0.7l-17-7.7c-3.7-1.7-5.3-6-3.7-9.7s6-5.4,9.7-3.7l17,7.7
			c3.7,1.7,5.3,6,3.7,9.7C476.9,476.8,474.2,478.4,471.4,478.4z M485.7,403.9h-18.7c-4.1,0-7.4-3.3-7.4-7.4c0-4.1,3.3-7.4,7.4-7.4
			h18.7c4.1,0,7.4,3.3,7.4,7.4C493.1,400.6,489.8,403.9,485.7,403.9z M454.4,334.3c-2.8,0-5.5-1.6-6.7-4.3c-1.7-3.7,0-8.1,3.7-9.7
			l17-7.7c3.7-1.7,8.1,0,9.7,3.7c1.7,3.7,0,8.1-3.7,9.7l-17,7.7C456.4,334.1,455.4,334.3,454.4,334.3z"/>
	</g>
</g>
</svg>
