<?xml version="1.0" encoding="utf-8"?>
<!-- Generator: Adobe Illustrator 17.1.0, SVG Export Plug-In . SVG Version: 6.00 Build 0)  -->
<!DOCTYPE svg PUBLIC "-//W3C//DTD SVG 1.1//EN" "http://www.w3.org/Graphics/SVG/1.1/DTD/svg11.dtd">
<svg version="1.1" id="Layer_1" xmlns="http://www.w3.org/2000/svg" xmlns:xlink="http://www.w3.org/1999/xlink" x="0px" y="0px"
	 viewBox="0 0 301 274" enable-background="new 0 0 301 274" xml:space="preserve">
<g>
	
		<rect x="86.1" y="205.8" fill="#FFFFFF" stroke="#83D4F0" stroke-width="11" stroke-linejoin="round" stroke-miterlimit="10" width="126.9" height="23.7"/>
	<g>
		<path fill="#FFFFFF" d="M77.7,207.3c-3,0-5.5-2.5-5.5-5.5v-137c0-15.4,12.5-27.9,27.9-27.9H199c15.4,0,27.9,12.5,27.9,27.9v137
			c0,3-2.5,5.5-5.5,5.5H77.7z"/>
		<path fill="#83D4F0" d="M199,42.5c12.4,0,22.4,10,22.4,22.4v137H77.7v-137c0-12.4,10-22.4,22.4-22.4H199 M199,31.5h-98.8
			c-18.4,0-33.4,15-33.4,33.4v137c0,6.1,4.9,11,11,11h143.7c6.1,0,11-4.9,11-11v-137C232.4,46.5,217.4,31.5,199,31.5L199,31.5z"/>
	</g>
	<path fill="none" stroke="#83D4F0" stroke-width="11" stroke-linejoin="round" stroke-miterlimit="10" d="M192.9,60.9h-86.8
		c-5.3,0-9.7,4.3-9.7,9.7V148h106.1V70.6C202.6,65.3,198.3,60.9,192.9,60.9z"/>
	
		<polyline fill="none" stroke="#1B446D" stroke-width="8" stroke-linecap="round" stroke-linejoin="round" stroke-miterlimit="10" points="
		151.3,84.2 151.3,110.8 140.5,110.8 	"/>
	
		<line fill="none" stroke="#1B446D" stroke-width="11" stroke-linecap="round" stroke-linejoin="round" stroke-miterlimit="10" x1="98.5" y1="185.9" x2="104.4" y2="185.9"/>
	
		<line fill="none" stroke="#1B446D" stroke-width="11" stroke-linecap="round" stroke-linejoin="round" stroke-miterlimit="10" x1="167.3" y1="173.2" x2="201.6" y2="173.2"/>
	
		<line fill="none" stroke="#1B446D" stroke-width="11" stroke-linecap="round" stroke-linejoin="round" stroke-miterlimit="10" x1="127.2" y1="85.7" x2="127.4" y2="85.7"/>
	
		<line fill="none" stroke="#1B446D" stroke-width="11" stroke-linecap="round" stroke-linejoin="round" stroke-miterlimit="10" x1="168.2" y1="85.7" x2="168.4" y2="85.7"/>
	<path fill="none" stroke="#1B446D" stroke-width="8" stroke-linecap="round" stroke-linejoin="round" stroke-miterlimit="10" d="
		M169,124.5c0,0-18.1,11-43.7,0"/>
</g>
</svg>
