<?xml version="1.0" encoding="utf-8"?>
<!-- Generator: Adobe Illustrator 17.1.0, SVG Export Plug-In . SVG Version: 6.00 Build 0)  -->
<!DOCTYPE svg PUBLIC "-//W3C//DTD SVG 1.1//EN" "http://www.w3.org/Graphics/SVG/1.1/DTD/svg11.dtd">
<svg version="1.1" id="Layer_1" xmlns="http://www.w3.org/2000/svg" xmlns:xlink="http://www.w3.org/1999/xlink" x="0px" y="0px"
	 viewBox="0 0 301 274" enable-background="new 0 0 301 274" xml:space="preserve">
<path fill="#FFFFFF" stroke="#FFFFFF" stroke-width="3" stroke-miterlimit="10" d="M209.6,151.7l-5-1.7l1.2-5.1
	c0.9-3.8,1.4-7.7,1.6-11.6c0-0.8,0.1-1.6,0.1-2.4v-0.3c0-0.6,0-1,0-1.5c0-0.2,0-0.2,0-0.3c-0.1-2.2-0.2-4.4-0.5-6.6l-0.4-2.9
	l0.4-0.2l-0.5,0.1c-0.1-0.5-0.2-1.1-0.3-1.6l-2.4-11.1C199,87,191.5,72.3,188.3,66.6L172,73.7V57.1c-6.3-1.8-13.2-2.7-20.4-2.7
	c-17,0-31.7,5-35.9,6.6c-19.4,26.5-21.8,54.7-21.9,55.8l0,0.4c-0.2,0.9-0.3,1.5-0.4,2.1l-0.4,2.8c-0.3,2.2-0.5,4.5-0.5,6.7l0,1
	l0,0.7c0,0.7,0,1.4,0,2.1c0.1,4.2,0.7,8.3,1.6,12.3l1.2,5l-4.9,1.8c-3.1,1.1-5.2,4-5.2,7.3c0,4.3,3.5,7.8,7.8,7.8
	c0.7,0,1.5-0.1,2.2-0.3l4.8-1.4l2.1,4.5c9.5,20.8,27.9,33.7,48,33.7c20.1,0,38.5-13,48-33.8l2.1-4.6l4.9,1.5
	c0.7,0.2,1.5,0.3,2.3,0.3c4.3,0,7.8-3.5,7.8-7.8C215,155.7,212.8,152.7,209.6,151.7z M112.3,146.8l-0.2-0.3
	c-0.9-1.5-1.4-3.1-1.4-4.8c0-5.2,4.3-9.5,9.5-9.5c5.2,0,9.5,4.3,9.5,9.5c0,0.2,0,0.5-0.1,0.7l-0.1,0.6L112.3,146.8z M177.7,166.4
	c-0.8,1.4-8.3,13.4-27.5,13.4h-0.3c-19.2,0-26.7-12-27.5-13.3c-0.7-1.1-0.8-2.5-0.4-3.7c0.4-1.3,1.3-2.4,2.5-3
	c0.8-0.4,1.6-0.6,2.5-0.6c1.9,0,3.6,1,4.5,2.5c0.5,0.9,5.4,8.3,18.4,8.3h0.3c13,0,17.9-7.4,18.4-8.3c0.9-1.6,2.7-2.5,4.5-2.5
	c0.9,0,1.7,0.2,2.5,0.6c1.2,0.6,2.1,1.7,2.5,3C178.5,163.9,178.3,165.3,177.7,166.4z M187.4,146.7l-0.2,0.3l-17.2-3.8l-0.1-0.6
	c0-0.3-0.1-0.6-0.1-0.9c0-5.2,4.3-9.5,9.5-9.5c5.2,0,9.5,4.3,9.5,9.5C188.9,143.4,188.4,145.2,187.4,146.7z"/>
<g>
	<path fill="#1B446D" d="M175.6,159.7c-0.8-0.4-1.6-0.6-2.5-0.6c-1.9,0-3.6,1-4.5,2.5c-0.5,0.8-5.4,8.3-18.4,8.3h-0.3
		c-13,0-17.9-7.4-18.4-8.3c-0.9-1.6-2.6-2.5-4.5-2.5c-0.8,0-1.7,0.2-2.5,0.6c-1.2,0.6-2.1,1.7-2.5,3c-0.4,1.2-0.2,2.6,0.4,3.7
		c0.8,1.4,8.3,13.3,27.5,13.3h0.3c19.2,0,26.7-12,27.4-13.4c0.7-1.1,0.8-2.4,0.4-3.7C177.7,161.4,176.8,160.3,175.6,159.7"/>
	<path fill="#1B446D" d="M218,143c0.5-2.7,0.8-5.6,0.9-8.6l0.1,0l0.1-4l0-0.4c0-1.5-0.1-2.9-0.2-4.3l-0.1-2.8l0-0.1l-0.5-2.8
		c-0.2-1.6-0.5-3.1-0.8-4.6C211.3,80.2,196.1,57,195.4,56l-2.7-4l-9.1,4v-7.3l-3.8-1.4c-8.6-3.1-18.1-4.6-28.2-4.6
		c-22.7,0-41.1,7.8-41.9,8.1l-1.4,0.6l-0.9,1.2c-19,25.1-23.8,52.3-24.8,60.1l-1.3,9c-0.1,1.4-0.5,6.2-0.5,8.8l0.1,2.6
		c0.1,3.7,0.5,7,1,10.1c-5.1,3.6-8.2,9.6-8.2,15.8c0,10.7,8.7,19.3,19.3,19.3c0.1,0,0.3,0,0.4,0c11.9,22.6,33.5,36.6,56.6,36.6
		c23.1,0,44.7-14,56.6-36.6c0.2,0,0.5,0,0.7,0c10.7,0,19.3-8.7,19.3-19.3C226.5,152.7,223.3,146.6,218,143 M207.2,166.8
		c-0.8,0-1.6-0.1-2.3-0.3L200,165l-2.1,4.6c-9.5,20.9-27.9,33.8-48,33.8c-20.1,0-38.5-12.9-48-33.7l-2.1-4.5l-4.8,1.4
		c-0.7,0.2-1.4,0.3-2.2,0.3c-4.3,0-7.8-3.5-7.8-7.8c0-3.3,2.1-6.2,5.2-7.3l4.9-1.8l-1.2-5c-0.9-4-1.5-8.1-1.6-12.3
		c0-0.7,0-1.4,0-2.1l0-0.7l0-1c0.1-2.2,0.2-4.5,0.5-6.7l0.4-2.8c0.1-0.6,0.2-1.2,0.4-2.1l0-0.4c0.1-1.2,2.5-29.4,21.9-55.8
		c4.3-1.6,18.9-6.6,35.9-6.6c7.3,0,14.1,0.9,20.4,2.7v16.7l16.2-7.2c3.2,5.8,10.8,20.4,15.6,39.9l2.4,11.1c0.1,0.5,0.2,1.1,0.3,1.6
		l0.5-0.1l-0.4,0.2l0.4,2.9c0.3,2.1,0.5,4.3,0.5,6.6c0,0.1,0,0.1,0,0.3c0,0.4,0,0.9,0,1.5v0.3c0,0.8,0,1.6-0.1,2.4
		c-0.2,4-0.7,7.9-1.6,11.6l-1.2,5.1l5,1.7c3.2,1.1,5.3,4,5.3,7.4C215,163.3,211.5,166.8,207.2,166.8"/>
	<path fill="#1B446D" d="M179.4,132.2c-5.2,0-9.5,4.3-9.5,9.5c0,0.3,0,0.6,0.1,0.9l0.1,0.6l17.2,3.8l0.2-0.3c0.9-1.5,1.4-3.2,1.4-5
		C188.9,136.5,184.6,132.2,179.4,132.2"/>
	<path fill="#1B446D" d="M129.7,142.4c0-0.2,0.1-0.5,0.1-0.7c0-5.2-4.3-9.5-9.5-9.5c-5.2,0-9.5,4.3-9.5,9.5c0,1.7,0.5,3.3,1.4,4.8
		l0.2,0.3l17.3-3.8L129.7,142.4z"/>
</g>
</svg>
