<?xml version="1.0" encoding="utf-8"?>
<!-- Generator: Adobe Illustrator 17.1.0, SVG Export Plug-In . SVG Version: 6.00 Build 0)  -->
<!DOCTYPE svg PUBLIC "-//W3C//DTD SVG 1.1//EN" "http://www.w3.org/Graphics/SVG/1.1/DTD/svg11.dtd">
<svg version="1.1" id="Layer_1" xmlns="http://www.w3.org/2000/svg" xmlns:xlink="http://www.w3.org/1999/xlink" x="0px" y="0px"
	 viewBox="0 0 936 576" enable-background="new 0 0 936 576" xml:space="preserve">
<path fill="#FFFFFF" d="M613.1,115.1c-12.7-5.9-26.6-8.9-41.3-8.9c-39.8,0-76.9,22.2-92.2,55.4c-2.1,4.5-6.6,7.4-11.6,7.4
	s-9.5-2.9-11.6-7.4c-15.4-33.1-52.4-55.4-92.2-55.4c-14.7,0-28.6,3-41.3,8.9c-24.8,11.5-42.8,31.4-50.7,55.9
	c-9.8,30.4-4,65.9,16.6,102.4c30,53.3,85.2,96,176.6,166.8l2.5,1.9l2.3-1.8c91.6-70.9,146.8-113.6,176.9-166.9
	c20.7-36.6,26.4-72,16.6-102.4C655.9,146.5,637.9,126.6,613.1,115.1z"/>
<path fill="#1B446D" d="M623.8,92c-16.1-7.4-33.6-11.2-52-11.2c-41.5,0-80.7,19.7-103.8,50.8c-23.1-31-62.3-50.8-103.8-50.8
	c-18.4,0-35.9,3.8-52,11.2c-31.3,14.5-54.1,39.8-64.2,71.3c-8.4,26.1-11.9,68.5,18.7,122.7c32.6,57.8,89.3,101.7,183.2,174.4l10.3,8
	c2.3,1.8,5,2.7,7.8,2.7s5.5-0.9,7.8-2.7l10.1-7.8C580,387.8,636.7,343.8,669.3,286c30.6-54.2,27.1-96.7,18.7-122.7
	C677.9,131.9,655.1,106.6,623.8,92z M647.1,273.5c-30.1,53.3-85.3,96.1-176.9,166.9l-2.3,1.8l-2.5-1.9
	c-91.4-70.8-146.6-113.5-176.6-166.8c-20.7-36.5-26.4-72-16.6-102.4c7.9-24.6,25.9-44.4,50.7-55.9c12.7-5.9,26.6-8.9,41.3-8.9
	c39.8,0,76.9,22.2,92.2,55.4c2.1,4.5,6.6,7.4,11.6,7.4s9.5-2.9,11.6-7.4c15.4-33.1,52.4-55.4,92.2-55.4c14.7,0,28.6,3,41.3,8.9
	c24.8,11.5,42.8,31.4,50.7,55.9C673.6,201.5,667.8,236.9,647.1,273.5z"/>
<g>
	<g>
		<g>
			<path fill="#FFFFFF" d="M383.5,316.4V200.7c0,0,74.9-5.3,74.9,57.8C458.5,258.5,461.8,316.4,383.5,316.4z"/>
		</g>
		<g>
			<path fill="#1B446D" d="M383.6,327.1c-5.9,0-10.7-4.8-10.7-10.7V200.7c0-5.6,4.3-10.3,10-10.7c0.2,0,2-0.1,4.9-0.1
				c39.3,0,81.4,18,81.5,68.4c0.1,3.4,0.1,26.2-17.4,44.8C436.7,319,413.8,327.1,383.6,327.1z M394.3,211.5v93.8
				c18.7-1.5,32.8-7.2,41.9-16.9c12.2-12.9,11.6-29.1,11.6-29.3c0-0.2,0-0.4,0-0.6C447.8,220.4,414.3,212.7,394.3,211.5z"/>
		</g>
	</g>
	<g>
		<path fill="#1B446D" d="M565.1,309.7l0.1,0.2c2.6,5.7-0.5,12.4-6.6,14.2c-12.7,3.7-23.4,2.3-23.4,2.3c-9.5-0.8-18.3-3.2-26-7.2
			c-7.8-4-14.4-9.3-19.6-15.7c-5.2-6.4-9.1-13.9-11.6-22.3c-2.5-8.4-3.3-17.4-2.5-26.9c0.8-9.5,3.2-18.3,7.1-26
			c3.9-7.8,9-14.5,15.3-19.9c6.3-5.4,13.7-9.5,22-12.2c8.3-2.6,17.4-3.6,26.9-2.7c0,0,5.8,0.4,9.5,1.8c9.1,3.5,10.8,11,7.4,16.8l0,0
			c-2.3,4-7,5.9-11.5,4.8c-12.9-3.2-22.6-1.2-25-0.5c-0.4,0.1-0.7,0.2-1,0.3c-5.3,1.8-10,4.6-13.9,8.1c-4.1,3.7-7.4,8.2-9.9,13.5
			c-2.5,5.4-4.1,11.4-4.6,17.9c-0.6,6.5,0,12.7,1.5,18.4c1.5,5.6,4,10.7,7.4,15c3.3,4.3,7.6,7.9,12.7,10.6c5.1,2.8,11.1,4.4,17.8,5
			c0,0,8.3,1,16.3-1.2C558.1,302.7,563.1,305.2,565.1,309.7z"/>
		<path fill="#1B446D" d="M540.5,327.7c-3.3,0-5.3-0.3-5.3-0.3c-9.6-0.8-18.5-3.3-26.4-7.3c-7.9-4-14.6-9.4-20-16
			c-5.3-6.5-9.3-14.2-11.9-22.7c-2.5-8.5-3.4-17.7-2.6-27.3c0.8-9.6,3.3-18.5,7.2-26.4c4-7.9,9.2-14.7,15.5-20.3
			c6.4-5.5,13.9-9.7,22.4-12.4c8.4-2.7,17.7-3.6,27.3-2.8c0.2,0,6,0.5,9.8,1.9c5.9,2.3,8.2,5.8,9.1,8.4c1.1,3.2,0.8,6.8-1.1,10
			c-2.5,4.3-7.8,6.6-12.7,5.4c-4.6-1.1-9.3-1.7-13.9-1.7c-5.5,0-9.3,0.8-10.6,1.2c-0.3,0.1-0.6,0.2-1,0.3c-5.2,1.8-9.7,4.4-13.6,7.9
			c-3.9,3.6-7.2,8-9.6,13.2c-2.5,5.3-4,11.1-4.5,17.5c-0.5,6.4,0,12.4,1.5,18c1.5,5.5,3.9,10.4,7.2,14.6c3.3,4.2,7.4,7.6,12.4,10.3
			c5,2.7,10.8,4.3,17.4,4.9c0,0,1.8,0.2,4.5,0.2c2.9,0,7.2-0.2,11.4-1.4c0.9-0.2,1.8-0.4,2.8-0.4c4.4,0,8.4,2.6,10.3,6.7
			c1.5,3.2,1.4,6.6,0.1,9.6c-1.4,3-4,5.3-7.2,6.2C551.5,327.2,544.8,327.7,540.5,327.7z M540.1,194.2c-7,0-13.7,1-19.9,3
			c-8.2,2.6-15.5,6.6-21.6,12c-6.1,5.3-11.2,11.9-15,19.6c-3.8,7.6-6.2,16.3-7,25.6c-0.8,9.4,0,18.3,2.5,26.5
			c2.5,8.3,6.3,15.7,11.4,21.9c5.1,6.3,11.6,11.5,19.3,15.4c7.6,3.9,16.2,6.3,25.6,7.1c0.2,0,10.5,1.4,23-2.3c2.6-0.7,4.7-2.6,5.8-5
			c1.1-2.4,1.1-5.2,0-7.6c-1.9-4.2-6.4-6.4-10.5-5.3c-4.5,1.2-9,1.5-12,1.5c-2.8,0-4.6-0.2-4.7-0.2c-6.8-0.6-13-2.3-18.2-5.1
			c-5.2-2.8-9.6-6.5-13.1-10.9c-3.5-4.4-6-9.6-7.6-15.4c-1.6-5.8-2.1-12.2-1.6-18.8c0.6-6.6,2.2-12.8,4.7-18.3
			c2.5-5.4,6-10.1,10.1-13.9c4-3.7,8.9-6.5,14.3-8.4c0.4-0.1,0.7-0.2,1.1-0.3c1.5-0.4,5.5-1.2,11.2-1.2c4.8,0,9.6,0.6,14.4,1.8
			c4,1,8.3-0.8,10.2-4.3c1.5-2.6,1.8-5.5,0.9-8.1c-1.1-3.1-3.8-5.5-7.8-7.1c-3.4-1.3-9.1-1.8-9.1-1.8
			C544.4,194.2,542.2,194.2,540.1,194.2z"/>
	</g>
</g>
</svg>
