<?xml version="1.0" encoding="utf-8"?>
<!-- Generator: Adobe Illustrator 17.1.0, SVG Export Plug-In . SVG Version: 6.00 Build 0)  -->
<!DOCTYPE svg PUBLIC "-//W3C//DTD SVG 1.1//EN" "http://www.w3.org/Graphics/SVG/1.1/DTD/svg11.dtd">
<svg version="1.1" id="Layer_1" xmlns="http://www.w3.org/2000/svg" xmlns:xlink="http://www.w3.org/1999/xlink" x="0px" y="0px"
	 viewBox="0 0 936 576" enable-background="new 0 0 936 576" xml:space="preserve">
<path fill="#FFFFFF" d="M656.2,212.9c-11.3,0-20.6,8.3-22.3,19.1l-104.4-15.2l-46.7-94.5c7.5-3.7,12.6-11.4,12.6-20.2
	c0-12.5-10.1-22.6-22.6-22.6s-22.6,10.1-22.6,22.6c0,8.9,5.1,16.6,12.6,20.2l-46.7,94.5L311.9,232c-1.7-10.8-11-19.1-22.3-19.1
	c-12.5,0-22.6,10.1-22.6,22.6c0,12.5,10.1,22.6,22.6,22.6c6.4,0,12.2-2.7,16.3-7l75.3,73.4l-17.8,103.9c-1.2-0.2-2.4-0.3-3.7-0.3
	c-12.5,0-22.6,10.1-22.6,22.6c0,12.5,10.1,22.6,22.6,22.6c12.5,0,22.6-10.1,22.6-22.6c0-3.8-1-7.4-2.6-10.6l93.2-49l93.4,49.1
	c-1.6,3.1-2.6,6.7-2.6,10.5c0,12.5,10.1,22.6,22.6,22.6c12.5,0,22.6-10.1,22.6-22.6c0-12.5-10.1-22.6-22.6-22.6
	c-1.3,0-2.6,0.1-3.9,0.4l-17.8-103.9l75.3-73.4c4.1,4.3,9.9,7,16.3,7c12.5,0,22.6-10.1,22.6-22.6C678.8,223,668.7,212.9,656.2,212.9
	z"/>
<path fill="#83D4F0" d="M656.2,189.5c-14.3,0-27.2,6.5-35.7,16.9l-75.4-11l-33.6-68.2c4.8-7.3,7.5-16,7.5-25.2c0-25.4-20.6-46-46-46
	c-25.4,0-46,20.6-46,46c0,9.2,2.7,17.9,7.5,25.2l-33.6,68.2l-75.4,11c-8.5-10.4-21.3-16.9-35.7-16.9c-25.4,0-46,20.6-46,46
	c0,25.4,20.6,46,46,46c4.2,0,8.3-0.6,12.2-1.7l54.3,52.9l-12.9,75c-17.2,6.7-29.5,23.4-29.5,42.9c0,25.4,20.6,46,46,46
	c24.6,0,44.8-19.5,46-43.8l67.2-35.3l67.4,35.5c1.2,24.3,21.4,43.7,46,43.7c25.4,0,46-20.6,46-46c0-19.6-12.4-36.5-29.7-43
	l-12.9-74.9l54.3-52.9c4,1.1,8.1,1.7,12.2,1.7c25.4,0,46-20.6,46-46C702.2,210.1,681.6,189.5,656.2,189.5z M656.2,258.1
	c-6.4,0-12.2-2.7-16.3-7l-75.3,73.4l17.8,103.9c1.3-0.2,2.6-0.4,3.9-0.4c12.5,0,22.6,10.1,22.6,22.6c0,12.5-10.1,22.6-22.6,22.6
	c-12.5,0-22.6-10.1-22.6-22.6c0-3.8,0.9-7.3,2.6-10.5l-93.4-49.1l-93.2,49c1.7,3.2,2.6,6.8,2.6,10.6c0,12.5-10.1,22.6-22.6,22.6
	c-12.5,0-22.6-10.1-22.6-22.6c0-12.5,10.1-22.6,22.6-22.6c1.3,0,2.5,0.1,3.7,0.3l17.8-103.9l-75.3-73.4c-4.1,4.3-9.9,7-16.3,7
	c-12.5,0-22.6-10.1-22.6-22.6c0-12.5,10.1-22.6,22.6-22.6c11.3,0,20.6,8.3,22.3,19.1l104.4-15.2l46.7-94.5
	c-7.5-3.7-12.6-11.4-12.6-20.2c0-12.5,10.1-22.6,22.6-22.6s22.6,10.1,22.6,22.6c0,8.9-5.1,16.6-12.6,20.2l46.7,94.5L633.9,232
	c1.7-10.8,11-19.1,22.3-19.1c12.5,0,22.6,10.1,22.6,22.6C678.8,248,668.7,258.1,656.2,258.1z"/>
<g>
	<g>
		<path fill="#FFFFFF" d="M400.9,340.4v-98.8c0,0,64-4.5,64,49.4C464.9,291,467.8,340.4,400.9,340.4z"/>
		<path fill="#1B446D" d="M400.9,349.6c-5,0-9.1-4.1-9.1-9.1v-98.8c0-4.8,3.7-8.8,8.5-9.1c0.2,0,1.7-0.1,4.2-0.1
			c33.6,0,69.5,15.4,69.6,58.4c0.1,2.9,0.1,22.4-14.9,38.2C446.4,342.7,426.8,349.6,400.9,349.6z M410.1,250.9v80.1
			c16-1.3,28-6.1,35.8-14.4c10.4-11,9.9-24.8,9.9-25c0-0.2,0-0.4,0-0.5C455.8,258.5,427.2,251.9,410.1,250.9z"/>
	</g>
	<path fill="#1B446D" stroke="#1B446D" stroke-miterlimit="10" d="M556,334.7l0.1,0.2c2.2,4.9-0.4,10.6-5.6,12.1
		c-10.9,3.1-20,2-20,2c-8.1-0.7-15.6-2.8-22.2-6.1c-6.6-3.4-12.3-7.9-16.8-13.4c-4.5-5.5-7.8-11.9-9.9-19.1
		c-2.1-7.1-2.9-14.9-2.2-23c0.7-8.1,2.7-15.6,6.1-22.2c3.3-6.7,7.7-12.4,13-17c5.3-4.6,11.7-8.1,18.8-10.4c7.1-2.2,14.8-3,23-2.3
		c0,0,5,0.4,8.1,1.6c7.7,3,9.2,9.4,6.4,14.3l0,0c-2,3.4-6,5.1-9.8,4.1c-11-2.7-19.3-1-21.4-0.5c-0.3,0.1-0.6,0.2-0.9,0.3
		c-4.5,1.6-8.5,3.9-11.9,6.9c-3.5,3.1-6.3,7-8.4,11.6c-2.2,4.6-3.5,9.7-4,15.3c-0.5,5.5,0,10.8,1.3,15.7c1.3,4.8,3.4,9.1,6.3,12.8
		c2.9,3.7,6.5,6.7,10.9,9.1c4.4,2.3,9.5,3.8,15.2,4.3c0,0,7.1,0.8,13.9-1C550,328.7,554.2,330.9,556,334.7z"/>
</g>
</svg>
