<?xml version="1.0" encoding="utf-8"?>
<!-- Generator: Adobe Illustrator 17.1.0, SVG Export Plug-In . SVG Version: 6.00 Build 0)  -->
<!DOCTYPE svg PUBLIC "-//W3C//DTD SVG 1.1//EN" "http://www.w3.org/Graphics/SVG/1.1/DTD/svg11.dtd">
<svg version="1.1" id="Layer_1" xmlns="http://www.w3.org/2000/svg" xmlns:xlink="http://www.w3.org/1999/xlink" x="0px" y="0px"
	 viewBox="0 0 360 360" enable-background="new 0 0 360 360" xml:space="preserve">
<g>
	<g>
		<path fill="#FFFFFF" d="M257.8,109.3c-2.1,0-4.2,0.2-6.2,0.5c-4-33.6-32.6-59.7-67.3-59.7c-35.1,0-63.9,26.6-67.4,60.7
			c-4.5-1.2-9.2-1.8-14.1-1.8c-30.3,0-54.9,24.6-54.9,54.9s24.6,54.9,54.9,54.9c4.6,0,9.1-0.6,13.5-1.7
			c5.1,14.6,19.1,25.1,35.5,25.1c12.4,0,23.5-6,30.3-15.4c7,4.8,15.4,7.7,24.5,7.7c23.9,0,43.2-19.3,43.2-43.2c0-0.5,0-1,0-1.4
			c2.6,0.5,5.3,0.8,8.1,0.8c22.5,0,40.7-18.2,40.7-40.7C298.5,127.5,280.2,109.3,257.8,109.3z"/>
		<path fill="#1B446D" d="M151.6,248.7c-16.8,0-32-9.5-39.4-24.2c-3.2,0.5-6.3,0.7-9.5,0.7c-33.9,0-61.4-27.6-61.4-61.4
			c0-33.9,27.6-61.4,61.4-61.4c2.9,0,5.8,0.2,8.7,0.6c6.9-34.4,37.1-59.5,72.9-59.5c35.5,0,65.7,25,72.8,59.2c0.2,0,0.5,0,0.7,0
			c26,0,47.2,21.2,47.2,47.2s-21.2,47.2-47.2,47.2c-0.6,0-1.3,0-1.9,0c-2.9,24.7-24,43.9-49.4,43.9c-8.1,0-16.1-2-23.2-5.7
			C175.1,243.8,163.6,248.7,151.6,248.7z M116.2,210.5c2.7,0,5.2,1.7,6.2,4.4c4.4,12.4,16.1,20.8,29.3,20.8c9.8,0,19.2-4.7,25-12.7
			c2.1-2.9,6.1-3.5,9-1.5c6.1,4.2,13.3,6.5,20.8,6.5c20.2,0,36.6-16.4,36.6-36.6c0-0.3,0-0.6,0-0.9l0-0.3c-0.1-2,0.8-3.9,2.3-5.2
			s3.6-1.8,5.5-1.4c2.2,0.5,4.5,0.7,6.8,0.7c18.8,0,34.1-15.3,34.1-34.1s-15.3-34.1-34.1-34.1c-1.7,0-3.5,0.1-5.2,0.4
			c-1.8,0.3-3.5-0.2-5-1.3c-1.4-1.1-2.3-2.7-2.5-4.4c-3.7-30.7-29.8-53.9-60.8-53.9c-31.5,0-57.7,23.6-60.9,54.8
			c-0.2,1.9-1.2,3.6-2.8,4.7c-1.6,1.1-3.5,1.4-5.4,0.9c-4-1.1-8.2-1.6-12.4-1.6c-26.7,0-48.3,21.7-48.3,48.3
			c0,26.7,21.7,48.3,48.3,48.3c4,0,8-0.5,11.9-1.5C115.1,210.6,115.6,210.5,116.2,210.5z"/>
	</g>
	<g>
		<path fill="#1B446D" d="M183.1,205.4c-2.1,0-4.2-1-5.4-2.9c-2-3-1.2-7.1,1.8-9.1l68.3-45.9c3-2,7.1-1.2,9.1,1.8
			c2,3,1.2,7.1-1.8,9.1l-68.3,45.9C185.6,205,184.3,205.4,183.1,205.4z"/>
	</g>
	<g>
		<path fill="#1B446D" d="M180.7,116.3v135.3v6.3c0,0,0,26.4,18.9,42h-36.7c0,0,17.8-15.1,17.8-42"/>
		<path fill="#1B446D" d="M199.5,306.5h-36.7c-2.7,0-5.2-1.7-6.1-4.3c-0.9-2.6-0.2-5.5,1.9-7.2c0.6-0.5,15.5-13.6,15.5-37V116.3
			c0-3.6,2.9-6.5,6.5-6.5c3.6,0,6.5,2.9,6.5,6.5v141.6c0,0.2,0.3,23.6,16.5,37c2.1,1.8,2.9,4.7,2,7.3
			C204.8,304.8,202.3,306.5,199.5,306.5z M176.7,293.4h8.3c-1.6-2.4-3-4.9-4.1-7.4C179.6,288.8,178.1,291.2,176.7,293.4z"/>
	</g>
	<g>
		<path fill="#1B446D" d="M180.7,163.9c-2.1,0-4.2-1-5.4-2.9c-2-3-1.2-7.1,1.8-9.1l33.3-22.4c3-2,7.1-1.2,9.1,1.8
			c2,3,1.2,7.1-1.8,9.1l-33.3,22.4C183.2,163.5,181.9,163.9,180.7,163.9z"/>
	</g>
	<g>
		<path fill="#1B446D" d="M178.4,223.6c-1.3,0-2.5-0.4-3.6-1.1l-79.2-53.2c-3-2-3.8-6.1-1.8-9.1c2-3,6.1-3.8,9.1-1.8l79.2,53.2
			c3,2,3.8,6.1,1.8,9.1C182.5,222.6,180.5,223.6,178.4,223.6z"/>
	</g>
</g>
</svg>
