<?xml version="1.0" encoding="utf-8"?>
<!-- Generator: Adobe Illustrator 17.1.0, SVG Export Plug-In . SVG Version: 6.00 Build 0)  -->
<!DOCTYPE svg PUBLIC "-//W3C//DTD SVG 1.1//EN" "http://www.w3.org/Graphics/SVG/1.1/DTD/svg11.dtd">
<svg version="1.1" id="Layer_1" xmlns="http://www.w3.org/2000/svg" xmlns:xlink="http://www.w3.org/1999/xlink" x="0px" y="0px"
	 viewBox="0 0 936 576" enable-background="new 0 0 936 576" xml:space="preserve">
<path fill="#FFFFFF" d="M613.1,115.1c-12.7-5.9-26.6-8.9-41.3-8.9c-39.8,0-76.9,22.2-92.2,55.4c-2.1,4.5-6.6,7.4-11.6,7.4
	s-9.5-2.9-11.6-7.4c-15.4-33.1-52.4-55.4-92.2-55.4c-14.7,0-28.6,3-41.3,8.9c-24.8,11.5-42.8,31.4-50.7,55.9
	c-9.8,30.4-4,65.9,16.6,102.4c30,53.3,85.2,96,176.6,166.8l2.5,1.9l2.3-1.8c91.6-70.9,146.8-113.6,176.9-166.9
	c20.7-36.6,26.4-72,16.6-102.4C655.9,146.5,637.9,126.6,613.1,115.1z"/>
<path fill="#1B446D" d="M623.8,92c-16.1-7.4-33.6-11.2-52-11.2c-41.5,0-80.7,19.7-103.8,50.8c-23.1-31-62.3-50.8-103.8-50.8
	c-18.4,0-35.9,3.8-52,11.2c-31.3,14.5-54.1,39.8-64.2,71.3c-8.4,26.1-11.9,68.5,18.7,122.7c32.6,57.8,89.3,101.7,183.2,174.4l10.3,8
	c2.3,1.8,5,2.7,7.8,2.7s5.5-0.9,7.8-2.7l10.1-7.8C580,387.8,636.7,343.8,669.3,286c30.6-54.2,27.1-96.7,18.7-122.7
	C677.9,131.9,655.1,106.6,623.8,92z M647.1,273.5c-30.1,53.3-85.3,96.1-176.9,166.9l-2.3,1.8l-2.5-1.9
	c-91.4-70.8-146.6-113.5-176.6-166.8c-20.7-36.5-26.4-72-16.6-102.4c7.9-24.6,25.9-44.4,50.7-55.9c12.7-5.9,26.6-8.9,41.3-8.9
	c39.8,0,76.9,22.2,92.2,55.4c2.1,4.5,6.6,7.4,11.6,7.4s9.5-2.9,11.6-7.4c15.4-33.1,52.4-55.4,92.2-55.4c14.7,0,28.6,3,41.3,8.9
	c24.8,11.5,42.8,31.4,50.7,55.9C673.6,201.5,667.8,236.9,647.1,273.5z"/>
<g>
	<g>
		<path fill="#1B446D" d="M409.7,219.8c1.9-1.5,4.3-2.6,6.9-3.4c2.8-0.8,5.9-1.2,9-1.2c4.4,0,8.1,0.8,11.2,2.4
			c3.1,1.6,5.8,4.1,8.2,7.4l3.3,4.6l18.6-14.7l-2.8-3.8c-4.8-6.4-10.6-11-17.2-13.7c-6.4-2.7-13.4-4-20.9-4
			c-5.8,0-11.3,0.8-16.6,2.4c-5.4,1.6-10.3,4.1-14.4,7.4c-4.3,3.3-7.8,7.6-10.3,12.5c-2.5,5-3.8,10.8-3.8,17.1
			c0,6.6,1.1,12.3,3.2,17c2.1,4.7,5,8.6,8.7,11.8c3.4,3,7.4,5.4,11.6,7.3c3.9,1.7,8,3.2,12.2,4.5c4,1.3,7.8,2.5,11.6,3.8
			c3.4,1.1,6.4,2.5,9.1,4.1c2.3,1.4,4,3,5.4,5.1c1.2,1.8,1.8,4.4,1.8,7.5c0,2.9-0.5,5.3-1.6,7.5c-1.1,2.3-2.6,4.1-4.5,5.7
			c-2,1.6-4.3,2.9-7,3.9c-2.7,0.9-5.8,1.4-8.9,1.4c-5.2,0-9.8-1.1-13.8-3.2c-3.9-2.1-7-5.2-9.5-9.5l-3.9-6.2l-20,14.9l3.5,4.8
			c5.5,7.6,12.2,13,20,16.3c7.5,3.1,15.8,4.7,24.6,4.7c5.6,0,11-0.9,16.2-2.5c5.3-1.7,10.1-4.3,14.1-7.7c4.1-3.5,7.5-7.7,9.9-12.7
			c2.5-5,3.7-10.8,3.7-17.3c0-8.8-1.9-16-5.8-21.3c-3.6-5.1-8.3-9.1-13.7-11.9c-5-2.6-10.6-4.7-16.5-6.3c-5.2-1.4-10.2-3-14.6-4.8
			c-3.9-1.6-7.2-3.8-9.8-6.5c-2.1-2.2-3.1-5.7-3.1-10.3c0-3,0.5-5.6,1.6-7.6C406.4,222.9,407.9,221.2,409.7,219.8z"/>
		<path fill="#1B446D" d="M566.9,207.5v-0.2c0-6-4.8-10.8-10.8-10.8h-63.1c-6.2,0-11.2,5-11.2,11.2v112.4c0,6,4.8,10.8,10.8,10.8
			h1.3c6,0,10.8-4.8,10.8-10.8v-47.6h47.1c6,0,10.8-4.8,10.8-10.8v-0.2c0-6-4.8-10.8-10.8-10.8h-47.1v-32.5h51.5
			C562.1,218.2,566.9,213.4,566.9,207.5z"/>
	</g>
	<path fill="#1B446D" d="M398,301.4c0.5,6.9-5.6,12.5-12.5,12.5s-12.5-5.6-12.5-12.5s5.6-12,12.5-12.5
		C392.1,288.5,397.4,293.7,398,301.4z"/>
	<circle fill="#1B446D" cx="456.8" cy="221.3" r="11.9"/>
</g>
</svg>
