<?xml version="1.0" encoding="utf-8"?>
<!-- Generator: Adobe Illustrator 17.1.0, SVG Export Plug-In . SVG Version: 6.00 Build 0)  -->
<!DOCTYPE svg PUBLIC "-//W3C//DTD SVG 1.1//EN" "http://www.w3.org/Graphics/SVG/1.1/DTD/svg11.dtd">
<svg version="1.1" id="Layer_1" xmlns="http://www.w3.org/2000/svg" xmlns:xlink="http://www.w3.org/1999/xlink" x="0px" y="0px"
	 viewBox="0 0 936 576" enable-background="new 0 0 936 576" xml:space="preserve">
<path fill="#FFFFFF" d="M656.2,212.9c-11.3,0-20.6,8.3-22.3,19.1l-104.4-15.2l-46.7-94.5c7.5-3.7,12.6-11.4,12.6-20.2
	c0-12.5-10.1-22.6-22.6-22.6s-22.6,10.1-22.6,22.6c0,8.9,5.1,16.6,12.6,20.2l-46.7,94.5L311.9,232c-1.7-10.8-11-19.1-22.3-19.1
	c-12.5,0-22.6,10.1-22.6,22.6c0,12.5,10.1,22.6,22.6,22.6c6.4,0,12.2-2.7,16.3-7l75.3,73.4l-17.8,103.9c-1.2-0.2-2.4-0.3-3.7-0.3
	c-12.5,0-22.6,10.1-22.6,22.6c0,12.5,10.1,22.6,22.6,22.6c12.5,0,22.6-10.1,22.6-22.6c0-3.8-1-7.4-2.6-10.6l93.2-49l93.4,49.1
	c-1.6,3.1-2.6,6.7-2.6,10.5c0,12.5,10.1,22.6,22.6,22.6c12.5,0,22.6-10.1,22.6-22.6c0-12.5-10.1-22.6-22.6-22.6
	c-1.3,0-2.6,0.1-3.9,0.4l-17.8-103.9l75.3-73.4c4.1,4.3,9.9,7,16.3,7c12.5,0,22.6-10.1,22.6-22.6C678.8,223,668.7,212.9,656.2,212.9
	z"/>
<path fill="#1B446D" d="M656.2,189.5c-14.3,0-27.2,6.5-35.7,16.9l-75.4-11l-33.6-68.2c4.8-7.3,7.5-16,7.5-25.2c0-25.4-20.6-46-46-46
	c-25.4,0-46,20.6-46,46c0,9.2,2.7,17.9,7.5,25.2l-33.6,68.2l-75.4,11c-8.5-10.4-21.3-16.9-35.7-16.9c-25.4,0-46,20.6-46,46
	c0,25.4,20.6,46,46,46c4.2,0,8.3-0.6,12.2-1.7l54.3,52.9l-12.9,75c-17.2,6.7-29.5,23.4-29.5,42.9c0,25.4,20.6,46,46,46
	c24.6,0,44.8-19.5,46-43.8l67.2-35.3l67.4,35.5c1.2,24.3,21.4,43.7,46,43.7c25.4,0,46-20.6,46-46c0-19.6-12.4-36.5-29.7-43
	l-12.9-74.9l54.3-52.9c4,1.1,8.1,1.7,12.2,1.7c25.4,0,46-20.6,46-46C702.2,210.1,681.6,189.5,656.2,189.5z M656.2,258.1
	c-6.4,0-12.2-2.7-16.3-7l-75.3,73.4l17.8,103.9c1.3-0.2,2.6-0.4,3.9-0.4c12.5,0,22.6,10.1,22.6,22.6c0,12.5-10.1,22.6-22.6,22.6
	c-12.5,0-22.6-10.1-22.6-22.6c0-3.8,0.9-7.3,2.6-10.5l-93.4-49.1l-93.2,49c1.7,3.2,2.6,6.8,2.6,10.6c0,12.5-10.1,22.6-22.6,22.6
	c-12.5,0-22.6-10.1-22.6-22.6c0-12.5,10.1-22.6,22.6-22.6c1.3,0,2.5,0.1,3.7,0.3l17.8-103.9l-75.3-73.4c-4.1,4.3-9.9,7-16.3,7
	c-12.5,0-22.6-10.1-22.6-22.6c0-12.5,10.1-22.6,22.6-22.6c11.3,0,20.6,8.3,22.3,19.1l104.4-15.2l46.7-94.5
	c-7.5-3.7-12.6-11.4-12.6-20.2c0-12.5,10.1-22.6,22.6-22.6s22.6,10.1,22.6,22.6c0,8.9-5.1,16.6-12.6,20.2l46.7,94.5L633.9,232
	c1.7-10.8,11-19.1,22.3-19.1c12.5,0,22.6,10.1,22.6,22.6C678.8,248,668.7,258.1,656.2,258.1z"/>
<g>
	<path fill="#FFFFFF" d="M441,359.9V233.3c0,0,82-5.8,82,63.3C523,296.6,526.7,359.9,441,359.9z"/>
	<path fill="#1B446D" d="M441,371.7c-6.5,0-11.7-5.2-11.7-11.7V233.3c0-6.2,4.8-11.3,10.9-11.7c0.2,0,2.2-0.1,5.4-0.1
		c43,0,89,19.7,89.2,74.9c0.1,3.8,0.2,28.6-19.1,49C499.3,362.8,474.1,371.7,441,371.7z M452.8,245.2v102.6
		c20.5-1.7,35.9-7.8,45.9-18.4c13.3-14.1,12.7-31.8,12.7-32c0-0.2,0-0.4,0-0.7C511.3,255,474.7,246.5,452.8,245.2z"/>
</g>
</svg>
