<svg xmlns="http://www.w3.org/2000/svg" viewBox="0 0 301 274"><path fill="#FFF" d="M203.7 227c-8.9 0-16.1-7.2-16.1-16.1 0-.7 0-1.4.1-2.2l-37.3-19.6-37.2 19.5c.1.7.2 1.5.2 2.2 0 8.9-7.2 16.1-16.1 16.1s-16.1-7.2-16.1-16.1c0-7.9 5.7-14.5 13.2-15.8l7.1-41.5-30-29.3c-2.2 1.1-4.6 1.6-7.1 1.6-8.9 0-16.1-7.2-16.1-16.1s7.2-16.1 16.1-16.1c6.1 0 11.4 3.3 14.1 8.4l41.7-6.1 18.6-37.7c-2.8-2.9-4.5-6.9-4.5-11.1 0-8.9 7.2-16.1 16.1-16.1s16.1 7.2 16.1 16.1c0 4.3-1.6 8.2-4.5 11.1L180.7 96l41.7 6.1c2.7-5.1 8.1-8.4 14.1-8.4 8.9 0 16.1 7.2 16.1 16.1s-7.2 16.1-16.1 16.1c-2.5 0-4.9-.6-7.1-1.6l-30 29.3 7.1 41.4c7.5 1.3 13.3 7.9 13.3 15.9 0 8.8-7.2 16.1-16.1 16.1z"/><path fill="#83D4F0" d="M150.5 36.5c5.9 0 10.6 4.7 10.6 10.6 0 4.2-2.4 7.8-5.9 9.5l21.9 44.4 49 7.1c.8-5.1 5.2-9 10.5-9 5.9 0 10.6 4.7 10.6 10.6 0 5.9-4.7 10.6-10.6 10.6-3 0-5.7-1.3-7.7-3.3l-35.4 34.5 8.4 48.8c.6-.1 1.2-.2 1.8-.2 5.9 0 10.6 4.7 10.6 10.6 0 5.9-4.7 10.6-10.6 10.6s-10.6-4.7-10.6-10.6c0-1.8.4-3.4 1.2-4.9l-43.8-23.1-43.7 23c.8 1.5 1.2 3.2 1.2 5 0 5.9-4.7 10.6-10.6 10.6-5.9 0-10.6-4.7-10.6-10.6 0-5.9 4.7-10.6 10.6-10.6.6 0 1.2.1 1.7.2l8.4-48.8L72.1 117c-1.9 2-4.6 3.3-7.7 3.3-5.9 0-10.6-4.7-10.6-10.6 0-5.9 4.7-10.6 10.6-10.6 5.3 0 9.7 3.9 10.5 9l49-7.1 21.9-44.4c-3.5-1.7-5.9-5.3-5.9-9.5 0-5.8 4.7-10.6 10.6-10.6m0-11c-11.9 0-21.6 9.7-21.6 21.6 0 4.3 1.3 8.4 3.5 11.8l-15.8 32L81.2 96c-4-4.9-10-7.9-16.8-7.9-11.9 0-21.6 9.7-21.6 21.6s9.7 21.6 21.6 21.6c1.9 0 3.9-.3 5.7-.8l25.5 24.8-6 35.2c-8.1 3.1-13.8 11-13.8 20.2 0 11.9 9.7 21.6 21.6 21.6 11.6 0 21-9.1 21.6-20.6l31.5-16.6 31.7 16.6c.6 11.4 10 20.5 21.6 20.5 11.9 0 21.6-9.7 21.6-21.6 0-9.2-5.8-17.1-14-20.2l-6-35.2 25.5-24.8c1.9.5 3.8.8 5.7.8 11.9 0 21.6-9.7 21.6-21.6S248.5 88 236.6 88c-6.7 0-12.8 3-16.8 7.9L184.4 91l-15.8-32c2.3-3.4 3.5-7.5 3.5-11.8 0-12-9.7-21.7-21.6-21.7z"/><path fill="#FFF" stroke="#1B446D" stroke-width="11" stroke-linecap="round" stroke-linejoin="round" stroke-miterlimit="10" d="M135.5 168.2v-59.4s38.5-2.7 38.5 29.7c0 0 1.8 29.7-38.5 29.7z"/></svg>