<?xml version="1.0" encoding="utf-8"?>
<!-- Generator: Adobe Illustrator 17.1.0, SVG Export Plug-In . SVG Version: 6.00 Build 0)  -->
<!DOCTYPE svg PUBLIC "-//W3C//DTD SVG 1.1//EN" "http://www.w3.org/Graphics/SVG/1.1/DTD/svg11.dtd">
<svg version="1.1" id="Layer_1" xmlns="http://www.w3.org/2000/svg" xmlns:xlink="http://www.w3.org/1999/xlink" x="0px" y="0px"
	 viewBox="0 0 301 274" enable-background="new 0 0 301 274" xml:space="preserve">
<polygon fill="#FFFFFF" points="105.4,92 95.3,80.6 71.1,83.6 30.5,111.6 18,138.6 24.7,177.9 56.1,198.5 95.3,198.5 125.4,198.5 
	130.1,177.9 137.4,168 137.4,157.1 144,142.4 137.4,126.4 135,107.2 122,100.9 105.4,101.7 "/>
<polygon fill="#FFFFFF" points="195.6,94.6 205.7,83.2 230,86.1 270.5,114.2 283,141.1 276.3,180.5 244.9,201 205.7,201 175.7,201 
	170.9,180.5 163.6,170.5 163.6,159.6 157,144.9 163.6,128.9 166,109.7 179.1,103.4 195.6,104.2 "/>
<g>
	<g>
		<g>
			<g>
				<g>
					<path fill="#83D4F0" d="M57.2,95.8l6.5,11.4h56.8c6.5,0,11.8,5.3,11.8,11.8c0,4.8-2.8,8.8-6.9,10.7c6.6,0.6,11.9,6.1,11.9,12.9
						c0,5.7-3.7,10.6-8.8,12.3c2.3,2.2,3.8,5.3,3.8,8.7c0,6.4-5.1,11.6-11.5,11.8c2.1,1.9,3.5,4.7,3.5,7.9c0,5.9-4.8,10.7-10.7,10.7
						l-50-1c0,0-38.9-1.8-38.9-41.2C24.8,151.8,20.5,114.7,57.2,95.8 M118.7,131c0.2-0.1,0.3-0.2,0.5-0.3c-0.2,0-0.3,0-0.5-0.1
						L118.7,131 M52.2,86c-22.4,11.5-31.6,29-35.4,41.7c-3.6,12-3.1,21.8-2.9,24.7c0.1,10.9,2.7,20.4,7.8,28.4
						c4.2,6.6,10,12,17.3,16c11.6,6.4,23,7.1,24.2,7.2l0.3,0l50,1l0.2,0c11.9,0,21.7-9.7,21.7-21.7c0-0.7,0-1.5-0.1-2.2
						c5-4.2,8.1-10.5,8.1-17.5c0-1.9-0.2-3.7-0.7-5.5c3.6-4.2,5.7-9.7,5.7-15.5c0-6.3-2.3-12-6.3-16.2c0.8-2.4,1.3-4.9,1.3-7.4
						c0-12.6-10.2-22.8-22.8-22.8H70.1l-3.4-5.9L52.2,86L52.2,86z"/>
				</g>
				<path fill="none" stroke="#83D4F0" stroke-width="11" stroke-linejoin="round" stroke-miterlimit="10" d="M54.8,90.9
					c0,0,50.6-29.9,50.6,12.6"/>
				<path fill="#FFFFFF" d="M84.7,94.4l1.3,0.7v15l-26.2,1.5l-3.7-15.2c0,0,9.6-6,21.4-9L84.7,94.4z"/>
				<circle fill="#83D4F0" cx="86" cy="101.7" r="5.5"/>
			</g>
			<g>
				<g>
					<g>
						<path fill="#1B446D" d="M243.8,98.3c36.7,18.9,32.4,56,32.4,56c0,39.3-38.9,41.2-38.9,41.2l-50,1c-5.9,0-10.7-4.8-10.7-10.7
							c0-3.1,1.3-5.9,3.5-7.9c-6.4-0.2-11.5-5.4-11.5-11.8c0-3.4,1.5-6.5,3.8-8.7c-5.1-1.7-8.8-6.6-8.8-12.3
							c0-6.8,5.2-12.4,11.9-12.9c-4-1.9-6.9-6-6.9-10.7c0-6.5,5.3-11.8,11.8-11.8h56.8L243.8,98.3 M182.3,133.5l0-0.3
							c-0.2,0-0.3,0.1-0.5,0.1C182,133.4,182.2,133.5,182.3,133.5 M243.8,87.3c-3.8,0-7.5,2-9.5,5.5l-3.4,5.9h-50.4
							c-12.6,0-22.8,10.2-22.8,22.8c0,2.6,0.4,5.1,1.3,7.4c-3.9,4.3-6.3,10-6.3,16.2c0,5.8,2.1,11.3,5.7,15.5
							c-0.4,1.8-0.7,3.6-0.7,5.5c0,7,3.1,13.3,8.1,17.5c-0.1,0.7-0.1,1.4-0.1,2.2c0,11.9,9.7,21.7,21.7,21.7c0.1,0,0.1,0,0.2,0l50-1
							c0.1,0,0.2,0,0.3,0c1.3-0.1,12.6-0.8,24.2-7.2c7.3-4,13.1-9.4,17.3-16c5.1-8,7.7-17.5,7.8-28.4c0.2-2.8,0.7-12.7-2.9-24.7
							c-3.8-12.7-13.1-30.2-35.4-41.7C247.2,87.7,245.5,87.3,243.8,87.3L243.8,87.3z"/>
					</g>
				</g>
				<path fill="none" stroke="#1B446D" stroke-width="11" stroke-linejoin="round" stroke-miterlimit="10" d="M246.2,93.4
					c0,0-50.6-29.9-50.6,12.6"/>
				<path fill="#FFFFFF" d="M216.3,96.9l-1.3,0.7v15l26.2,1.5l3.7-15.2c0,0-9.6-6-21.4-9L216.3,96.9z"/>
				<circle fill="#1B446D" cx="215" cy="104.2" r="5.5"/>
			</g>
		</g>
		<rect x="180.9" y="132.7" fill="#FFFFFF" width="3.7" height="3"/>
		<rect x="116.3" y="128.5" fill="#FFFFFF" width="3.9" height="5"/>
		<path fill="#FFFFFF" d="M128.4,127.8c0,0-1.5,1.3,0.4,2.6l-1,1.1l-5.8-0.9c0,0,4-4.4,4.1-4.4S128.4,127.8,128.4,127.8z"/>
		<path fill="#FFFFFF" d="M130,154.4c0,0-1.8,0.4-0.2,2.1l-1.4,0.6l-5-3.1c0,0,5.4-2.4,5.5-2.4C129.2,151.6,130,154.4,130,154.4z"/>
		<path fill="#FFFFFF" d="M122.8,175.3c0,0-2,0.3-0.4,2l-1.3,0.6l-4.8-3.3c0,0,5.5-2.2,5.6-2.2C122.1,172.5,122.8,175.3,122.8,175.3
			z"/>
		<g>
			<path fill="#FFFFFF" d="M172.6,130.4c0,0,1.5,1.3-0.4,2.6l1,1.1l5.8-0.9c0,0-4-4.4-4.1-4.4S172.6,130.4,172.6,130.4z"/>
			<path fill="#FFFFFF" d="M170.9,156.9c0,0,1.8,0.4,0.2,2.1l1.4,0.6l5-3.1c0,0-5.4-2.4-5.5-2.4
				C171.8,154.1,170.9,156.9,170.9,156.9z"/>
			<path fill="#FFFFFF" d="M178.1,177.8c0,0,2,0.3,0.4,2l1.3,0.6l4.8-3.3c0,0-5.5-2.2-5.6-2.2C178.9,175,178.1,177.8,178.1,177.8z"
				/>
		</g>
	</g>
	<g>
		
			<line fill="none" stroke="#83D4F0" stroke-width="11" stroke-linecap="round" stroke-linejoin="round" stroke-miterlimit="10" x1="150.5" y1="43.8" x2="150.5" y2="22"/>
		
			<line fill="none" stroke="#83D4F0" stroke-width="11" stroke-linecap="round" stroke-linejoin="round" stroke-miterlimit="10" x1="95.3" y1="57.6" x2="80.1" y2="40.5"/>
		
			<line fill="none" stroke="#83D4F0" stroke-width="11" stroke-linecap="round" stroke-linejoin="round" stroke-miterlimit="10" x1="205.7" y1="57.6" x2="220.9" y2="40.5"/>
	</g>
</g>
</svg>
