<svg xmlns="http://www.w3.org/2000/svg" viewBox="0 0 936 576"><path fill="#FFF" d="M656.2 212.9c-11.3 0-20.6 8.3-22.3 19.1l-104.4-15.2-46.7-94.5c7.5-3.7 12.6-11.4 12.6-20.2 0-12.5-10.1-22.6-22.6-22.6s-22.6 10.1-22.6 22.6c0 8.9 5.1 16.6 12.6 20.2l-46.7 94.5L311.9 232c-1.7-10.8-11-19.1-22.3-19.1-12.5 0-22.6 10.1-22.6 22.6 0 12.5 10.1 22.6 22.6 22.6 6.4 0 12.2-2.7 16.3-7l75.3 73.4-17.8 103.9c-1.2-.2-2.4-.3-3.7-.3-12.5 0-22.6 10.1-22.6 22.6 0 12.5 10.1 22.6 22.6 22.6 12.5 0 22.6-10.1 22.6-22.6 0-3.8-1-7.4-2.6-10.6l93.2-49 93.4 49.1c-1.6 3.1-2.6 6.7-2.6 10.5 0 12.5 10.1 22.6 22.6 22.6 12.5 0 22.6-10.1 22.6-22.6 0-12.5-10.1-22.6-22.6-22.6-1.3 0-2.6.1-3.9.4l-17.8-103.9 75.3-73.4c4.1 4.3 9.9 7 16.3 7 12.5 0 22.6-10.1 22.6-22.6 0-12.6-10.1-22.7-22.6-22.7z"/><path fill="#1B446D" d="M656.2 189.5c-14.3 0-27.2 6.5-35.7 16.9l-75.4-11-33.6-68.2c4.8-7.3 7.5-16 7.5-25.2 0-25.4-20.6-46-46-46s-46 20.6-46 46c0 9.2 2.7 17.9 7.5 25.2l-33.6 68.2-75.4 11c-8.5-10.4-21.3-16.9-35.7-16.9-25.4 0-46 20.6-46 46s20.6 46 46 46c4.2 0 8.3-.6 12.2-1.7l54.3 52.9-12.9 75c-17.2 6.7-29.5 23.4-29.5 42.9 0 25.4 20.6 46 46 46 24.6 0 44.8-19.5 46-43.8l67.2-35.3 67.4 35.5c1.2 24.3 21.4 43.7 46 43.7 25.4 0 46-20.6 46-46 0-19.6-12.4-36.5-29.7-43l-12.9-74.9 54.3-52.9c4 1.1 8.1 1.7 12.2 1.7 25.4 0 46-20.6 46-46-.2-25.5-20.8-46.1-46.2-46.1zm0 68.6c-6.4 0-12.2-2.7-16.3-7l-75.3 73.4 17.8 103.9c1.3-.2 2.6-.4 3.9-.4 12.5 0 22.6 10.1 22.6 22.6 0 12.5-10.1 22.6-22.6 22.6-12.5 0-22.6-10.1-22.6-22.6 0-3.8.9-7.3 2.6-10.5L472.9 391l-93.2 49c1.7 3.2 2.6 6.8 2.6 10.6 0 12.5-10.1 22.6-22.6 22.6-12.5 0-22.6-10.1-22.6-22.6 0-12.5 10.1-22.6 22.6-22.6 1.3 0 2.5.1 3.7.3l17.8-103.9-75.3-73.4c-4.1 4.3-9.9 7-16.3 7-12.5 0-22.6-10.1-22.6-22.6 0-12.5 10.1-22.6 22.6-22.6 11.3 0 20.6 8.3 22.3 19.1l104.4-15.2 46.7-94.5c-7.5-3.7-12.6-11.4-12.6-20.2 0-12.5 10.1-22.6 22.6-22.6s22.6 10.1 22.6 22.6c0 8.9-5.1 16.6-12.6 20.2l46.7 94.5L633.9 232c1.7-10.8 11-19.1 22.3-19.1 12.5 0 22.6 10.1 22.6 22.6 0 12.5-10.1 22.6-22.6 22.6z"/><g fill="#1B446D"><path d="M467.8 315.2l-48.7-70c-2.2-3.1-5.7-4.9-9.5-4.9h-.2c-6.4 0-11.5 5.2-11.5 11.5v83.7c0 4.7 3.8 8.5 8.5 8.5h.2c4.7 0 8.5-3.8 8.5-8.5V269l48.7 70c2.2 3.1 5.7 4.9 9.5 4.9h.2c6.4 0 11.5-5.2 11.5-11.5v-83.7c0-4.7-3.8-8.5-8.5-8.5h-.2c-4.7 0-8.5 3.8-8.5 8.5v66.5z"/><path d="M473.4 345h-.2c-4.1 0-8-2-10.3-5.4l-46.8-67.3v63.2c0 5.2-4.3 9.5-9.5 9.5-5.4 0-9.7-4.3-9.7-9.5v-83.7c0-6.9 5.6-12.6 12.6-12.6 4.3 0 8.1 2 10.5 5.4l46.8 67.3v-63.2c0-5.2 4.3-9.5 9.5-9.5 5.4 0 9.7 4.3 9.7 9.5v83.7c0 7-5.6 12.6-12.6 12.6zm-59.3-79.3l50.5 72.7c2 2.8 5.2 4.5 8.6 4.5h.2c5.8 0 10.5-4.7 10.5-10.5v-83.7c0-4.1-3.3-7.5-7.5-7.5-4.3 0-7.6 3.3-7.6 7.5v69.8l-50.5-72.7c-2-2.8-5.2-4.5-8.6-4.5-6 0-10.7 4.7-10.7 10.5v83.7c0 4.1 3.3 7.5 7.5 7.5 4.3 0 7.6-3.3 7.6-7.5v-69.8z"/><g><path d="M557.5 244l-24.8 38.1-24.2-38c-1.5-2.4-4.1-3.8-6.9-3.8h-.8c-6.5 0-10.5 7.2-6.9 12.7l30.3 47v35.5c0 4.7 3.8 8.5 8.5 8.5h.2c4.7 0 8.5-3.8 8.5-8.5V300l30.3-47c3.5-5.5-.4-12.7-6.9-12.7h-.2c-3 0-5.6 1.4-7.1 3.7z"/><path d="M532.7 345h-.2c-5.2 0-9.5-4.3-9.5-9.5v-35.2l-30.1-46.7c-1.9-2.9-2-6.4-.4-9.5 1.6-3 4.7-4.8 8.1-4.8h.8c3.2 0 6.1 1.6 7.8 4.3l23.3 36.6 23.9-36.7c1.7-2.6 4.6-4.2 7.8-4.2 3.6 0 6.7 1.8 8.3 4.8 1.7 3 1.5 6.6-.4 9.5L542 300.3v35.2c.2 5.2-4.1 9.5-9.3 9.5zm-32-103.7c-2.7 0-5 1.4-6.3 3.8-1.3 2.4-1.2 5.1.3 7.4l30.5 47.2v35.8c0 4.1 3.3 7.5 7.5 7.5h.2c4.1 0 7.5-3.3 7.5-7.5v-35.8l30.5-47.2c1.5-2.3 1.6-5 .3-7.4s-3.6-3.8-6.3-3.8c-2.6 0-4.9 1.2-6.2 3.3L532.6 284l-25.1-39.3c-1.3-2.1-3.6-3.3-6.1-3.3h-.7z"/></g></g></svg>