<?xml version="1.0" encoding="utf-8"?>
<!-- Generator: Adobe Illustrator 17.1.0, SVG Export Plug-In . SVG Version: 6.00 Build 0)  -->
<!DOCTYPE svg PUBLIC "-//W3C//DTD SVG 1.1//EN" "http://www.w3.org/Graphics/SVG/1.1/DTD/svg11.dtd">
<svg version="1.1" id="Layer_1" xmlns="http://www.w3.org/2000/svg" xmlns:xlink="http://www.w3.org/1999/xlink" x="0px" y="0px"
	 viewBox="0 0 301 274" enable-background="new 0 0 301 274" xml:space="preserve">
<g>
	<g>
		<g>
			
				<line fill="none" stroke="#1B446D" stroke-width="11" stroke-linecap="round" stroke-miterlimit="10" x1="59.1" y1="143.2" x2="59.2" y2="143.1"/>
			
				<line fill="none" stroke="#1B446D" stroke-width="11" stroke-linecap="round" stroke-miterlimit="10" stroke-dasharray="9.489019e-02,23.7225" x1="73.8" y1="124.5" x2="81.2" y2="115.1"/>
			
				<line fill="none" stroke="#1B446D" stroke-width="11" stroke-linecap="round" stroke-miterlimit="10" x1="88.5" y1="105.8" x2="88.6" y2="105.7"/>
		</g>
	</g>
	<g>
		<path fill="#FFFFFF" d="M109.9,86.7c-2.9,0-5.6-0.9-8-2.6c-2.9-2.1-4.8-5.3-5.4-8.8c-0.6-3.6,0.3-7.1,2.4-10
			c2.5-3.5,6.6-5.5,10.9-5.5c2.9,0,5.6,0.9,8,2.6c2.9,2.1,4.8,5.3,5.4,8.8c0.6,3.6-0.3,7.1-2.4,10C118.2,84.6,114.2,86.7,109.9,86.7
			C109.9,86.7,109.9,86.7,109.9,86.7z"/>
		<path fill="#1B446D" d="M109.9,65.2c1.6,0,3.3,0.5,4.7,1.5c3.6,2.6,4.3,7.6,1.7,11.2c-1.6,2.1-4,3.3-6.5,3.3
			c-1.6,0-3.3-0.5-4.7-1.5c-3.6-2.6-4.3-7.6-1.7-11.2C105,66.3,107.4,65.2,109.9,65.2 M109.9,54.2c-6,0-11.8,2.9-15.3,7.8
			c-6.2,8.4-4.3,20.4,4.1,26.5c3.3,2.4,7.2,3.7,11.2,3.7c6,0,11.8-2.9,15.3-7.8c6.2-8.4,4.3-20.4-4.1-26.5
			C117.8,55.5,114,54.2,109.9,54.2L109.9,54.2z"/>
	</g>
	<g>
		<path fill="#FFFFFF" d="M183.2,184.4c-2.9,0-5.6-0.9-8-2.6c-2.9-2.1-4.8-5.3-5.4-8.8s0.3-7.1,2.4-10c2.5-3.5,6.6-5.5,10.9-5.5
			c2.9,0,5.6,0.9,8,2.6c2.9,2.1,4.8,5.3,5.4,8.8c0.6,3.6-0.3,7.1-2.4,10C191.6,182.4,187.5,184.4,183.2,184.4
			C183.2,184.4,183.2,184.4,183.2,184.4z"/>
		<path fill="#1B446D" d="M183.2,163c1.6,0,3.3,0.5,4.7,1.5c3.6,2.6,4.3,7.6,1.7,11.2c-1.6,2.1-4,3.3-6.5,3.3
			c-1.6,0-3.3-0.5-4.7-1.5c-3.6-2.6-4.3-7.6-1.7-11.2C178.3,164.1,180.7,163,183.2,163 M183.2,152c-6,0-11.8,2.9-15.3,7.8
			c-6.2,8.4-4.3,20.4,4.1,26.5c3.3,2.4,7.2,3.7,11.2,3.7c6,0,11.8-2.9,15.3-7.8c3-4.1,4.2-9.1,3.4-14.1c-0.8-5-3.5-9.4-7.5-12.4
			C191.1,153.2,187.3,152,183.2,152L183.2,152z"/>
	</g>
	<g>
		<path fill="#FFFFFF" d="M254.3,111.5c-2.9,0-5.6-0.9-8-2.6c-2.9-2.1-4.8-5.3-5.4-8.8c-0.6-3.6,0.3-7.1,2.4-10
			c2.5-3.5,6.6-5.5,10.9-5.5c2.9,0,5.6,0.9,8,2.6c2.9,2.1,4.8,5.3,5.4,8.8s-0.3,7.1-2.4,10C262.7,109.4,258.6,111.5,254.3,111.5
			C254.3,111.5,254.3,111.5,254.3,111.5z"/>
		<path fill="#1B446D" d="M254.3,90c1.6,0,3.3,0.5,4.7,1.5c3.6,2.6,4.3,7.6,1.7,11.2c-1.6,2.1-4,3.3-6.5,3.3c-1.6,0-3.3-0.5-4.7-1.5
			c-3.6-2.6-4.3-7.6-1.7-11.2C249.4,91.1,251.8,90,254.3,90 M254.3,79c-6,0-11.8,2.9-15.3,7.8c-6.2,8.4-4.3,20.4,4.1,26.5
			c3.3,2.4,7.2,3.7,11.2,3.7c6,0,11.8-2.9,15.3-7.8c6.2-8.4,4.3-20.4-4.1-26.5C262.2,80.3,258.4,79,254.3,79L254.3,79z"/>
	</g>
	<g>
		<path fill="#FFFFFF" d="M40.7,183.4c-2.9,0-5.6-0.9-8-2.6c-2.9-2.1-4.8-5.3-5.4-8.8c-0.6-3.6,0.3-7.1,2.4-10
			c2.5-3.5,6.6-5.5,10.9-5.5c2.9,0,5.6,0.9,8,2.6c2.9,2.1,4.8,5.3,5.4,8.8c0.6,3.6-0.3,7.1-2.4,10C49.1,181.4,45,183.4,40.7,183.4
			C40.7,183.4,40.7,183.4,40.7,183.4z"/>
		<g>
			<path fill="#1B446D" d="M40.7,161.9c1.6,0,3.3,0.5,4.7,1.5c3.6,2.6,4.3,7.6,1.7,11.2c-1.6,2.1-4,3.3-6.5,3.3
				c-1.6,0-3.3-0.5-4.7-1.5c-3.6-2.6-4.3-7.6-1.7-11.2C35.8,163.1,38.2,161.9,40.7,161.9 M40.7,150.9c-6,0-11.8,2.9-15.3,7.8
				c-3,4.1-4.2,9.1-3.4,14.1c0.8,5,3.5,9.4,7.5,12.4c3.3,2.4,7.2,3.7,11.2,3.7c6,0,11.8-2.9,15.3-7.8c6.2-8.4,4.3-20.4-4.1-26.5
				C48.6,152.2,44.8,150.9,40.7,150.9L40.7,150.9z"/>
		</g>
	</g>
	
		<polyline fill="none" stroke="#1B446D" stroke-width="9" stroke-linecap="round" stroke-linejoin="round" stroke-miterlimit="10" points="
		216.7,120.9 232,121 232,136 	"/>
	<g>
		<g>
			
				<line fill="none" stroke="#1B446D" stroke-width="11" stroke-linecap="round" stroke-miterlimit="10" x1="131" y1="105.7" x2="131.1" y2="105.8"/>
			
				<line fill="none" stroke="#1B446D" stroke-width="11" stroke-linecap="round" stroke-miterlimit="10" stroke-dasharray="8.950650e-02,22.3766" x1="144.9" y1="123.4" x2="151.9" y2="132.2"/>
			
				<line fill="none" stroke="#1B446D" stroke-width="11" stroke-linecap="round" stroke-miterlimit="10" x1="158.8" y1="141" x2="158.8" y2="141.1"/>
		</g>
	</g>
	<circle fill="#1B446D" cx="209.5" cy="142.2" r="5.2"/>
</g>
</svg>
