<svg xmlns="http://www.w3.org/2000/svg" viewBox="0 0 301 274"><path fill="#FFF" stroke="#FFF" stroke-width="3" stroke-miterlimit="10" d="M209.6 151.7l-5-1.7 1.2-5.1c.9-3.8 1.4-7.7 1.6-11.6 0-.8.1-1.6.1-2.4v-.3-1.5-.3c-.1-2.2-.2-4.4-.5-6.6l-.4-2.9.4-.2-.5.1c-.1-.5-.2-1.1-.3-1.6l-2.4-11.1C199 87 191.5 72.3 188.3 66.6L172 73.7V57.1c-6.3-1.8-13.2-2.7-20.4-2.7-17 0-31.7 5-35.9 6.6-19.4 26.5-21.8 54.7-21.9 55.8v.4c-.2.9-.3 1.5-.4 2.1l-.4 2.8c-.3 2.2-.5 4.5-.5 6.7v3.8c.1 4.2.7 8.3 1.6 12.3l1.2 5-4.9 1.8c-3.1 1.1-5.2 4-5.2 7.3 0 4.3 3.5 7.8 7.8 7.8.7 0 1.5-.1 2.2-.3l4.8-1.4 2.1 4.5c9.5 20.8 27.9 33.7 48 33.7s38.5-13 48-33.8l2.1-4.6 4.9 1.5c.7.2 1.5.3 2.3.3 4.3 0 7.8-3.5 7.8-7.8-.2-3.2-2.4-6.2-5.6-7.2zm-97.3-4.9l-.2-.3c-.9-1.5-1.4-3.1-1.4-4.8 0-5.2 4.3-9.5 9.5-9.5s9.5 4.3 9.5 9.5c0 .2 0 .5-.1.7l-.1.6-17.2 3.8zm65.4 19.6c-.8 1.4-8.3 13.4-27.5 13.4h-.3c-19.2 0-26.7-12-27.5-13.3-.7-1.1-.8-2.5-.4-3.7.4-1.3 1.3-2.4 2.5-3 .8-.4 1.6-.6 2.5-.6 1.9 0 3.6 1 4.5 2.5.5.9 5.4 8.3 18.4 8.3h.3c13 0 17.9-7.4 18.4-8.3.9-1.6 2.7-2.5 4.5-2.5.9 0 1.7.2 2.5.6 1.2.6 2.1 1.7 2.5 3 .4 1.1.2 2.5-.4 3.6zm9.7-19.7l-.2.3-17.2-3.8-.1-.6c0-.3-.1-.6-.1-.9 0-5.2 4.3-9.5 9.5-9.5s9.5 4.3 9.5 9.5c.1 1.7-.4 3.5-1.4 5z"/><path fill="#1B446D" d="M175.6 159.7c-.8-.4-1.6-.6-2.5-.6-1.9 0-3.6 1-4.5 2.5-.5.8-5.4 8.3-18.4 8.3h-.3c-13 0-17.9-7.4-18.4-8.3-.9-1.6-2.6-2.5-4.5-2.5-.8 0-1.7.2-2.5.6-1.2.6-2.1 1.7-2.5 3-.4 1.2-.2 2.6.4 3.7.8 1.4 8.3 13.3 27.5 13.3h.3c19.2 0 26.7-12 27.4-13.4.7-1.1.8-2.4.4-3.7-.3-1.2-1.2-2.3-2.4-2.9"/><path fill="#83D4F0" d="M218 143c.5-2.7.8-5.6.9-8.6h.1l.1-4v-.4c0-1.5-.1-2.9-.2-4.3l-.1-2.8v-.1l-.5-2.8c-.2-1.6-.5-3.1-.8-4.6-6.2-35.2-21.4-58.4-22.1-59.4l-2.7-4-9.1 4v-7.3l-3.8-1.4c-8.6-3.1-18.1-4.6-28.2-4.6-22.7 0-41.1 7.8-41.9 8.1l-1.4.6-.9 1.2c-19 25.1-23.8 52.3-24.8 60.1l-1.3 9c-.1 1.4-.5 6.2-.5 8.8l.1 2.6c.1 3.7.5 7 1 10.1-5.1 3.6-8.2 9.6-8.2 15.8 0 10.7 8.7 19.3 19.3 19.3h.4c11.9 22.6 33.5 36.6 56.6 36.6s44.7-14 56.6-36.6h.7c10.7 0 19.3-8.7 19.3-19.3-.1-6.3-3.3-12.4-8.6-16m-10.8 23.8c-.8 0-1.6-.1-2.3-.3L200 165l-2.1 4.6c-9.5 20.9-27.9 33.8-48 33.8s-38.5-12.9-48-33.7l-2.1-4.5-4.8 1.4c-.7.2-1.4.3-2.2.3-4.3 0-7.8-3.5-7.8-7.8 0-3.3 2.1-6.2 5.2-7.3l4.9-1.8-1.2-5c-.9-4-1.5-8.1-1.6-12.3v-3.8c.1-2.2.2-4.5.5-6.7l.4-2.8c.1-.6.2-1.2.4-2.1v-.4c.1-1.2 2.5-29.4 21.9-55.8 4.3-1.6 18.9-6.6 35.9-6.6 7.3 0 14.1.9 20.4 2.7v16.7l16.2-7.2c3.2 5.8 10.8 20.4 15.6 39.9l2.4 11.1c.1.5.2 1.1.3 1.6l.5-.1-.4.2.4 2.9c.3 2.1.5 4.3.5 6.6v2.1c0 .8 0 1.6-.1 2.4-.2 4-.7 7.9-1.6 11.6l-1.2 5.1 5 1.7c3.2 1.1 5.3 4 5.3 7.4.3 4.1-3.2 7.6-7.5 7.6"/><path fill="#1B446D" d="M179.4 132.2c-5.2 0-9.5 4.3-9.5 9.5 0 .3 0 .6.1.9l.1.6 17.2 3.8.2-.3c.9-1.5 1.4-3.2 1.4-5 0-5.2-4.3-9.5-9.5-9.5M129.7 142.4c0-.2.1-.5.1-.7 0-5.2-4.3-9.5-9.5-9.5s-9.5 4.3-9.5 9.5c0 1.7.5 3.3 1.4 4.8l.2.3 17.3-3.8v-.6z"/></svg>