<svg xmlns="http://www.w3.org/2000/svg" viewBox="0 0 936 576"><path fill="#FFF" d="M613.1 115.1c-12.7-5.9-26.6-8.9-41.3-8.9-39.8 0-76.9 22.2-92.2 55.4-2.1 4.5-6.6 7.4-11.6 7.4s-9.5-2.9-11.6-7.4c-15.4-33.1-52.4-55.4-92.2-55.4-14.7 0-28.6 3-41.3 8.9-24.8 11.5-42.8 31.4-50.7 55.9-9.8 30.4-4 65.9 16.6 102.4 30 53.3 85.2 96 176.6 166.8l2.5 1.9 2.3-1.8c91.6-70.9 146.8-113.6 176.9-166.9 20.7-36.6 26.4-72 16.6-102.4-7.8-24.5-25.8-44.4-50.6-55.9z"/><path fill="#83D4F0" d="M623.8 92c-16.1-7.4-33.6-11.2-52-11.2-41.5 0-80.7 19.7-103.8 50.8-23.1-31-62.3-50.8-103.8-50.8-18.4 0-35.9 3.8-52 11.2-31.3 14.5-54.1 39.8-64.2 71.3-8.4 26.1-11.9 68.5 18.7 122.7 32.6 57.8 89.3 101.7 183.2 174.4l10.3 8c2.3 1.8 5 2.7 7.8 2.7s5.5-.9 7.8-2.7l10.1-7.8C580 387.8 636.7 343.8 669.3 286c30.6-54.2 27.1-96.7 18.7-122.7-10.1-31.4-32.9-56.7-64.2-71.3zm23.3 181.5c-30.1 53.3-85.3 96.1-176.9 166.9l-2.3 1.8-2.5-1.9C374 369.5 318.8 326.8 288.8 273.5c-20.7-36.5-26.4-72-16.6-102.4 7.9-24.6 25.9-44.4 50.7-55.9 12.7-5.9 26.6-8.9 41.3-8.9 39.8 0 76.9 22.2 92.2 55.4 2.1 4.5 6.6 7.4 11.6 7.4s9.5-2.9 11.6-7.4c15.4-33.1 52.4-55.4 92.2-55.4 14.7 0 28.6 3 41.3 8.9 24.8 11.5 42.8 31.4 50.7 55.9 9.8 30.4 4 65.8-16.7 102.4z"/><path fill="#FFF" d="M383.5 316.4V200.7s74.9-5.3 74.9 57.8c.1 0 3.4 57.9-74.9 57.9z"/><path fill="#1B446D" d="M383.6 327.1c-5.9 0-10.7-4.8-10.7-10.7V200.7c0-5.6 4.3-10.3 10-10.7.2 0 2-.1 4.9-.1 39.3 0 81.4 18 81.5 68.4.1 3.4.1 26.2-17.4 44.8-15.2 15.9-38.1 24-68.3 24zm10.7-115.6v93.8c18.7-1.5 32.8-7.2 41.9-16.9 12.2-12.9 11.6-29.1 11.6-29.3v-.6c0-38.1-33.5-45.8-53.5-47z"/><g fill="#1B446D"><path d="M565.1 309.7l.1.2c2.6 5.7-.5 12.4-6.6 14.2-12.7 3.7-23.4 2.3-23.4 2.3-9.5-.8-18.3-3.2-26-7.2-7.8-4-14.4-9.3-19.6-15.7-5.2-6.4-9.1-13.9-11.6-22.3s-3.3-17.4-2.5-26.9c.8-9.5 3.2-18.3 7.1-26 3.9-7.8 9-14.5 15.3-19.9 6.3-5.4 13.7-9.5 22-12.2 8.3-2.6 17.4-3.6 26.9-2.7 0 0 5.8.4 9.5 1.8 9.1 3.5 10.8 11 7.4 16.8-2.3 4-7 5.9-11.5 4.8-12.9-3.2-22.6-1.2-25-.5-.4.1-.7.2-1 .3-5.3 1.8-10 4.6-13.9 8.1-4.1 3.7-7.4 8.2-9.9 13.5-2.5 5.4-4.1 11.4-4.6 17.9-.6 6.5 0 12.7 1.5 18.4 1.5 5.6 4 10.7 7.4 15 3.3 4.3 7.6 7.9 12.7 10.6 5.1 2.8 11.1 4.4 17.8 5 0 0 8.3 1 16.3-1.2 4.6-1.3 9.6 1.2 11.6 5.7z"/><path d="M540.5 327.7c-3.3 0-5.3-.3-5.3-.3-9.6-.8-18.5-3.3-26.4-7.3-7.9-4-14.6-9.4-20-16-5.3-6.5-9.3-14.2-11.9-22.7-2.5-8.5-3.4-17.7-2.6-27.3.8-9.6 3.3-18.5 7.2-26.4 4-7.9 9.2-14.7 15.5-20.3 6.4-5.5 13.9-9.7 22.4-12.4 8.4-2.7 17.7-3.6 27.3-2.8.2 0 6 .5 9.8 1.9 5.9 2.3 8.2 5.8 9.1 8.4 1.1 3.2.8 6.8-1.1 10-2.5 4.3-7.8 6.6-12.7 5.4-4.6-1.1-9.3-1.7-13.9-1.7-5.5 0-9.3.8-10.6 1.2-.3.1-.6.2-1 .3-5.2 1.8-9.7 4.4-13.6 7.9-3.9 3.6-7.2 8-9.6 13.2-2.5 5.3-4 11.1-4.5 17.5s0 12.4 1.5 18c1.5 5.5 3.9 10.4 7.2 14.6 3.3 4.2 7.4 7.6 12.4 10.3 5 2.7 10.8 4.3 17.4 4.9 0 0 1.8.2 4.5.2 2.9 0 7.2-.2 11.4-1.4.9-.2 1.8-.4 2.8-.4 4.4 0 8.4 2.6 10.3 6.7 1.5 3.2 1.4 6.6.1 9.6-1.4 3-4 5.3-7.2 6.2-7.5 2.2-14.2 2.7-18.5 2.7zm-.4-133.5c-7 0-13.7 1-19.9 3-8.2 2.6-15.5 6.6-21.6 12-6.1 5.3-11.2 11.9-15 19.6-3.8 7.6-6.2 16.3-7 25.6-.8 9.4 0 18.3 2.5 26.5 2.5 8.3 6.3 15.7 11.4 21.9 5.1 6.3 11.6 11.5 19.3 15.4 7.6 3.9 16.2 6.3 25.6 7.1.2 0 10.5 1.4 23-2.3 2.6-.7 4.7-2.6 5.8-5 1.1-2.4 1.1-5.2 0-7.6-1.9-4.2-6.4-6.4-10.5-5.3-4.5 1.2-9 1.5-12 1.5-2.8 0-4.6-.2-4.7-.2-6.8-.6-13-2.3-18.2-5.1-5.2-2.8-9.6-6.5-13.1-10.9s-6-9.6-7.6-15.4c-1.6-5.8-2.1-12.2-1.6-18.8.6-6.6 2.2-12.8 4.7-18.3 2.5-5.4 6-10.1 10.1-13.9 4-3.7 8.9-6.5 14.3-8.4.4-.1.7-.2 1.1-.3 1.5-.4 5.5-1.2 11.2-1.2 4.8 0 9.6.6 14.4 1.8 4 1 8.3-.8 10.2-4.3 1.5-2.6 1.8-5.5.9-8.1-1.1-3.1-3.8-5.5-7.8-7.1-3.4-1.3-9.1-1.8-9.1-1.8-2.1-.4-4.3-.4-6.4-.4z"/></g></svg>