<svg xmlns="http://www.w3.org/2000/svg" viewBox="0 0 301 274"><g fill="#FFF"><path d="M55.7 52h191v165.5h-191z"/><path d="M34.5 185.1h229.7v26.1H34.5z"/></g><path fill="none" stroke="#1B446D" stroke-width="11" stroke-linejoin="round" stroke-miterlimit="10" d="M246.7 185.1h-191v-125c0-5.7 4.6-10.3 10.3-10.3h170.4c5.7 0 10.3 4.6 10.3 10.3v125zM255.5 214.9H46.9c-6.8 0-12.4-5.5-12.4-12.4v-17.4h233.3v17.4c0 6.8-5.5 12.4-12.3 12.4z"/><path fill="none" stroke="#1B446D" stroke-width="11" stroke-linejoin="round" stroke-miterlimit="10" d="M212.2 152.5h-18.4v15.3l-24-15.3H90.2v-72h122z"/><g fill="none" stroke="#1B446D" stroke-width="11" stroke-linecap="round" stroke-linejoin="round" stroke-miterlimit="10"><path d="M167 127.5h.2M167 104.5h.2"/></g><path fill="none" stroke="#1B446D" stroke-width="9" stroke-linecap="round" stroke-linejoin="round" stroke-miterlimit="10" d="M185.5 99.9s8.5 14 0 33.7"/></svg>