<svg xmlns="http://www.w3.org/2000/svg" viewBox="0 0 301 274"><path fill="#FFF" stroke="#83D4F0" stroke-width="11" stroke-linejoin="round" stroke-miterlimit="10" d="M86.1 205.8H213v23.7H86.1z"/><path fill="#FFF" d="M77.7 207.3c-3 0-5.5-2.5-5.5-5.5v-137c0-15.4 12.5-27.9 27.9-27.9H199c15.4 0 27.9 12.5 27.9 27.9v137c0 3-2.5 5.5-5.5 5.5H77.7z"/><path fill="#83D4F0" d="M199 42.5c12.4 0 22.4 10 22.4 22.4v137H77.7v-137c0-12.4 10-22.4 22.4-22.4H199m0-11h-98.8c-18.4 0-33.4 15-33.4 33.4v137c0 6.1 4.9 11 11 11h143.7c6.1 0 11-4.9 11-11v-137c-.1-18.4-15.1-33.4-33.5-33.4z"/><path fill="none" stroke="#83D4F0" stroke-width="11" stroke-linejoin="round" stroke-miterlimit="10" d="M192.9 60.9h-86.8c-5.3 0-9.7 4.3-9.7 9.7V148h106.1V70.6c.1-5.3-4.2-9.7-9.6-9.7z"/><path fill="none" stroke="#1B446D" stroke-width="8" stroke-linecap="round" stroke-linejoin="round" stroke-miterlimit="10" d="M151.3 84.2v26.6h-10.8"/><path fill="none" stroke="#1B446D" stroke-width="11" stroke-linecap="round" stroke-linejoin="round" stroke-miterlimit="10" d="M98.5 185.9h5.9M167.3 173.2h34.3M127.2 85.7h.2M168.2 85.7h.2"/><path fill="none" stroke="#1B446D" stroke-width="8" stroke-linecap="round" stroke-linejoin="round" stroke-miterlimit="10" d="M169 124.5s-18.1 11-43.7 0"/></svg>