<?xml version="1.0" encoding="utf-8"?>
<!-- Generator: Adobe Illustrator 17.1.0, SVG Export Plug-In . SVG Version: 6.00 Build 0)  -->
<!DOCTYPE svg PUBLIC "-//W3C//DTD SVG 1.1//EN" "http://www.w3.org/Graphics/SVG/1.1/DTD/svg11.dtd">
<svg version="1.1" id="Layer_1" xmlns="http://www.w3.org/2000/svg" xmlns:xlink="http://www.w3.org/1999/xlink" x="0px" y="0px"
	 viewBox="0 0 301 274" enable-background="new 0 0 301 274" xml:space="preserve">
<g>
	<rect x="55.7" y="52" fill="#FFFFFF" width="191" height="165.5"/>
	<rect x="34.5" y="185.1" fill="#FFFFFF" width="229.7" height="26.1"/>
</g>
<g>
	<g>
		<path fill="none" stroke="#83D4F0" stroke-width="11" stroke-linejoin="round" stroke-miterlimit="10" d="M246.7,185.1h-191v-125
			c0-5.7,4.6-10.3,10.3-10.3h170.4c5.7,0,10.3,4.6,10.3,10.3V185.1z"/>
	</g>
	<path fill="none" stroke="#83D4F0" stroke-width="11" stroke-linejoin="round" stroke-miterlimit="10" d="M255.5,214.9H46.9
		c-6.8,0-12.4-5.5-12.4-12.4v-17.4h233.3v17.4C267.8,209.3,262.3,214.9,255.5,214.9z"/>
	<polygon fill="none" stroke="#1B446D" stroke-width="11" stroke-linejoin="round" stroke-miterlimit="10" points="212.2,152.5 
		193.8,152.5 193.8,167.8 169.8,152.5 90.2,152.5 90.2,80.5 212.2,80.5 	"/>
	<g>
		
			<line fill="none" stroke="#1B446D" stroke-width="11" stroke-linecap="round" stroke-linejoin="round" stroke-miterlimit="10" x1="167" y1="127.5" x2="167.2" y2="127.5"/>
		
			<line fill="none" stroke="#1B446D" stroke-width="11" stroke-linecap="round" stroke-linejoin="round" stroke-miterlimit="10" x1="167" y1="104.5" x2="167.2" y2="104.5"/>
	</g>
	<path fill="none" stroke="#1B446D" stroke-width="9" stroke-linecap="round" stroke-linejoin="round" stroke-miterlimit="10" d="
		M185.5,99.9c0,0,8.5,14,0,33.7"/>
</g>
</svg>
