<svg xmlns="http://www.w3.org/2000/svg" viewBox="0 0 936 576"><path fill="#FFF" d="M613.1 115.1c-12.7-5.9-26.6-8.9-41.3-8.9-39.8 0-76.9 22.2-92.2 55.4-2.1 4.5-6.6 7.4-11.6 7.4s-9.5-2.9-11.6-7.4c-15.4-33.1-52.4-55.4-92.2-55.4-14.7 0-28.6 3-41.3 8.9-24.8 11.5-42.8 31.4-50.7 55.9-9.8 30.4-4 65.9 16.6 102.4 30 53.3 85.2 96 176.6 166.8l2.5 1.9 2.3-1.8c91.6-70.9 146.8-113.6 176.9-166.9 20.7-36.6 26.4-72 16.6-102.4-7.8-24.5-25.8-44.4-50.6-55.9z"/><path fill="#1B446D" d="M623.8 92c-16.1-7.4-33.6-11.2-52-11.2-41.5 0-80.7 19.7-103.8 50.8-23.1-31-62.3-50.8-103.8-50.8-18.4 0-35.9 3.8-52 11.2-31.3 14.5-54.1 39.8-64.2 71.3-8.4 26.1-11.9 68.5 18.7 122.7 32.6 57.8 89.3 101.7 183.2 174.4l10.3 8c2.3 1.8 5 2.7 7.8 2.7s5.5-.9 7.8-2.7l10.1-7.8C580 387.8 636.7 343.8 669.3 286c30.6-54.2 27.1-96.7 18.7-122.7-10.1-31.4-32.9-56.7-64.2-71.3zm23.3 181.5c-30.1 53.3-85.3 96.1-176.9 166.9l-2.3 1.8-2.5-1.9C374 369.5 318.8 326.8 288.8 273.5c-20.7-36.5-26.4-72-16.6-102.4 7.9-24.6 25.9-44.4 50.7-55.9 12.7-5.9 26.6-8.9 41.3-8.9 39.8 0 76.9 22.2 92.2 55.4 2.1 4.5 6.6 7.4 11.6 7.4s9.5-2.9 11.6-7.4c15.4-33.1 52.4-55.4 92.2-55.4 14.7 0 28.6 3 41.3 8.9 24.8 11.5 42.8 31.4 50.7 55.9 9.8 30.4 4 65.8-16.7 102.4z"/><path fill="#1B446D" d="M437.9 198.6c-4.5-2.8-9.5-4.8-14.8-5.9-5.1-1.1-10-1.6-14.7-1.6h-26c-8.6 0-15.6 7-15.6 15.6v107.4c0 6.6 5.3 11.9 11.9 11.9h.2c6.6 0 11.9-5.3 11.9-11.9v-46h20c5.4 0 10.7-.7 15.6-2.1 5.2-1.5 9.8-3.8 13.9-6.8 4.2-3.2 7.5-7.3 9.9-12.1 2.5-4.9 3.7-10.7 3.7-17.2 0-7.4-1.5-13.8-4.6-19-2.8-5.3-6.7-9.3-11.4-12.3zm-8 31.1c0 2.9-.5 5.3-1.5 7.1-1 1.9-2.3 3.3-3.9 4.4-1.8 1.2-3.8 2.1-6.2 2.7-2.6.6-5.3.9-8 .9h-19.5V214h18.8c2.7 0 5.4.3 8.1 1 2.4.6 4.6 1.6 6.4 2.9 1.7 1.3 3.1 2.8 4.2 4.8 1.1 1.9 1.6 4.2 1.6 7zM545.6 203v41.9H490V203c0-6.6-5.3-11.9-11.9-11.9h-.2c-6.6 0-11.9 5.3-11.9 11.9v111c0 6.6 5.3 11.9 11.9 11.9h.2c6.6 0 11.9-5.3 11.9-11.9v-46h55.6v46c0 6.6 5.3 11.9 11.9 11.9h.2c6.6 0 11.9-5.3 11.9-11.9V203c0-6.6-5.3-11.9-11.9-11.9h-.2c-6.6 0-11.9 5.3-11.9 11.9z"/></svg>