<?xml version="1.0" encoding="utf-8"?>
<!-- Generator: Adobe Illustrator 17.1.0, SVG Export Plug-In . SVG Version: 6.00 Build 0)  -->
<!DOCTYPE svg PUBLIC "-//W3C//DTD SVG 1.1//EN" "http://www.w3.org/Graphics/SVG/1.1/DTD/svg11.dtd">
<svg version="1.1" id="Layer_1" xmlns="http://www.w3.org/2000/svg" xmlns:xlink="http://www.w3.org/1999/xlink" x="0px" y="0px"
	 viewBox="0 0 936 576" enable-background="new 0 0 936 576" xml:space="preserve">
<path fill="#FFFFFF" d="M613.1,115.1c-12.7-5.9-26.6-8.9-41.3-8.9c-39.8,0-76.9,22.2-92.2,55.4c-2.1,4.5-6.6,7.4-11.6,7.4
	s-9.5-2.9-11.6-7.4c-15.4-33.1-52.4-55.4-92.2-55.4c-14.7,0-28.6,3-41.3,8.9c-24.8,11.5-42.8,31.4-50.7,55.9
	c-9.8,30.4-4,65.9,16.6,102.4c30,53.3,85.2,96,176.6,166.8l2.5,1.9l2.3-1.8c91.6-70.9,146.8-113.6,176.9-166.9
	c20.7-36.6,26.4-72,16.6-102.4C655.9,146.5,637.9,126.6,613.1,115.1z"/>
<path fill="#1B446D" d="M623.8,92c-16.1-7.4-33.6-11.2-52-11.2c-41.5,0-80.7,19.7-103.8,50.8c-23.1-31-62.3-50.8-103.8-50.8
	c-18.4,0-35.9,3.8-52,11.2c-31.3,14.5-54.1,39.8-64.2,71.3c-8.4,26.1-11.9,68.5,18.7,122.7c32.6,57.8,89.3,101.7,183.2,174.4l10.3,8
	c2.3,1.8,5,2.7,7.8,2.7s5.5-0.9,7.8-2.7l10.1-7.8C580,387.8,636.7,343.8,669.3,286c30.6-54.2,27.1-96.7,18.7-122.7
	C677.9,131.9,655.1,106.6,623.8,92z M647.1,273.5c-30.1,53.3-85.3,96.1-176.9,166.9l-2.3,1.8l-2.5-1.9
	c-91.4-70.8-146.6-113.5-176.6-166.8c-20.7-36.5-26.4-72-16.6-102.4c7.9-24.6,25.9-44.4,50.7-55.9c12.7-5.9,26.6-8.9,41.3-8.9
	c39.8,0,76.9,22.2,92.2,55.4c2.1,4.5,6.6,7.4,11.6,7.4s9.5-2.9,11.6-7.4c15.4-33.1,52.4-55.4,92.2-55.4c14.7,0,28.6,3,41.3,8.9
	c24.8,11.5,42.8,31.4,50.7,55.9C673.6,201.5,667.8,236.9,647.1,273.5z"/>
<g>
	<g>
		<path fill="#1B446D" d="M445.7,289.7l-59.4-85.5c-2.6-3.8-7-6-11.6-6h-0.2c-7.8,0-14.1,6.3-14.1,14.1v102.2
			c0,5.7,4.6,10.4,10.4,10.4h0.2c5.7,0,10.4-4.6,10.4-10.4v-81.2l59.4,85.5c2.6,3.8,7,6,11.6,6h0.2c7.8,0,14.1-6.3,14.1-14.1V208.5
			c0-5.7-4.6-10.4-10.4-10.4H456c-5.7,0-10.4,4.6-10.4,10.4V289.7z"/>
		<path fill="#1B446D" d="M452.5,325.9h-0.2c-5,0-9.6-2.4-12.5-6.5l-57.4-82.5v77.6c0,6.3-5.2,11.5-11.5,11.5
			c-6.5,0-11.7-5.2-11.7-11.5V212.3c0-8.4,6.8-15.2,15.2-15.2c5.2,0,9.9,2.4,12.7,6.5l57.4,82.5v-77.6c0-6.3,5.2-11.5,11.5-11.5
			c6.5,0,11.7,5.2,11.7,11.5v102.2C467.7,319.1,460.9,325.9,452.5,325.9z M380.2,229.7l61.5,88.4c2.4,3.5,6.4,5.6,10.6,5.6h0.2
			c7.1,0,13-5.8,13-13V208.5c0-5.1-4.1-9.2-9.2-9.2c-5.3,0-9.4,4.1-9.4,9.2v84.8l-61.5-88.4c-2.4-3.5-6.4-5.6-10.6-5.6
			c-7.4,0-13.2,5.8-13.2,13v102.2c0,5.1,4.1,9.2,9.2,9.2c5.3,0,9.4-4.1,9.4-9.2V229.7z"/>
	</g>
	<g>
		<g>
			<path fill="#1B446D" d="M493.8,325.5c-5.9,0-10.7-4.8-10.7-10.7V209.4c0-5.9,4.8-10.7,10.7-10.7s10.7,4.8,10.7,10.7v105.4
				C504.5,320.7,499.7,325.5,493.8,325.5z"/>
		</g>
		<g>
			<path fill="#1B446D" d="M566,326c-5.9,0-10.7-4.8-10.7-10.7V209.9c0-5.9,4.8-10.7,10.7-10.7s10.7,4.8,10.7,10.7v105.4
				C576.7,321.2,571.9,326,566,326z"/>
		</g>
		<g>
			<path fill="#1B446D" d="M566,271.7h-72.2c-5.9,0-10.7-4.8-10.7-10.7s4.8-10.7,10.7-10.7H566c5.9,0,10.7,4.8,10.7,10.7
				S571.9,271.7,566,271.7z"/>
		</g>
	</g>
</g>
</svg>
