<?xml version="1.0" encoding="utf-8"?>
<!-- Generator: Adobe Illustrator 17.1.0, SVG Export Plug-In . SVG Version: 6.00 Build 0)  -->
<!DOCTYPE svg PUBLIC "-//W3C//DTD SVG 1.1//EN" "http://www.w3.org/Graphics/SVG/1.1/DTD/svg11.dtd">
<svg version="1.1" xmlns="http://www.w3.org/2000/svg" xmlns:xlink="http://www.w3.org/1999/xlink" x="0px" y="0px"
	 viewBox="0 0 936 576" enable-background="new 0 0 936 576" xml:space="preserve">
<g id="Layer_1">
	<g>
		<path fill="#FFFFFF" d="M676.7,422.3H291.3c-18.4,0-33.2-14.9-33.2-33.2V149.6c0-18.4,14.9-33.2,33.2-33.2h385.4
			c18.4,0,33.2,14.9,33.2,33.2v239.5C709.9,407.4,695,422.3,676.7,422.3z"/>
		<path fill="#1B446D" d="M676.7,435.3H291.3c-25.5,0-46.2-20.7-46.2-46.2V149.6c0-25.5,20.7-46.2,46.2-46.2h385.4
			c25.5,0,46.2,20.7,46.2,46.2v239.5C722.9,414.6,702.2,435.3,676.7,435.3z M291.3,129.3c-11.2,0-20.2,9.1-20.2,20.2v239.5
			c0,11.2,9.1,20.2,20.2,20.2h385.4c11.2,0,20.2-9.1,20.2-20.2V149.6c0-11.2-9.1-20.2-20.2-20.2H291.3z"/>
	</g>
	<g>
		<path fill="#1B446D" d="M719.9,372.7H245v-204h474.9V372.7z M271,346.7h422.9v-152H271V346.7z"/>
	</g>
	<g>
		<g>
			<path fill="#1B446D" d="M473.7,257.7h-45.5v-35.2c0-6-4.8-10.8-10.8-10.8h-1.1c-6,0-10.8,4.8-10.8,10.8v95.9
				c0,6,4.8,10.8,10.8,10.8h1.1c6,0,10.8-4.8,10.8-10.8v-38.8h45.5v38.8c0,6,4.8,10.8,10.8,10.8h1.1c6,0,10.8-4.8,10.8-10.8v-95.9
				c0-6-4.8-10.8-10.8-10.8h-1.1c-6,0-10.8,4.8-10.8,10.8V257.7z"/>
		</g>
		<g>
			<path fill="#1B446D" d="M521.8,329.1h0.2c6,0,10.8-4.8,10.8-10.8v-59.6c0-6-4.8-10.8-10.8-10.8h-0.2c-6,0-10.8,4.8-10.8,10.8
				v59.6C511,324.3,515.8,329.1,521.8,329.1z"/>
		</g>
		<g>
			<path fill="#1B446D" d="M521.9,214.3c-3.6,0-6.8,1.3-9.3,3.8c-2.5,2.5-3.8,5.7-3.8,9.3c0,3.6,1.3,6.8,3.8,9.3
				c2.5,2.5,5.7,3.8,9.3,3.8c3.6,0,6.8-1.3,9.3-3.8c2.5-2.5,3.8-5.7,3.8-9.3c0-3.6-1.3-6.8-3.8-9.3
				C528.7,215.6,525.5,214.3,521.9,214.3z"/>
		</g>
		<g>
			<path fill="#1B446D" d="M567.1,211.6h-0.2c-6,0-10.8,4.8-10.8,10.8v56.4c0,6,4.8,10.8,10.8,10.8h0.2c6,0,10.8-4.8,10.8-10.8
				v-56.4C577.9,216.4,573,211.6,567.1,211.6z"/>
		</g>
		<g>
			<path fill="#1B446D" d="M576.6,306.8c-2.6-2.6-5.9-4-9.6-4c-3.7,0-7,1.4-9.6,4c-2.6,2.6-4,5.9-4,9.6c0,3.7,1.4,7,4,9.6
				c2.6,2.6,5.9,4,9.6,4c3.7,0,7-1.4,9.6-4c2.6-2.6,4-5.9,4-9.6C580.5,312.7,579.2,309.4,576.6,306.8z"/>
		</g>
	</g>
</g>
<g id="Layer_2">
</g>
</svg>
