<?xml version="1.0" encoding="utf-8"?>
<!-- Generator: Adobe Illustrator 17.1.0, SVG Export Plug-In . SVG Version: 6.00 Build 0)  -->
<!DOCTYPE svg PUBLIC "-//W3C//DTD SVG 1.1//EN" "http://www.w3.org/Graphics/SVG/1.1/DTD/svg11.dtd">
<svg version="1.1" id="Layer_1" xmlns="http://www.w3.org/2000/svg" xmlns:xlink="http://www.w3.org/1999/xlink" x="0px" y="0px"
	 viewBox="0 0 301 274" enable-background="new 0 0 301 274" xml:space="preserve">
<g>
	<g>
		<path fill="#FFFFFF" stroke="#FFFFFF" stroke-width="2" stroke-miterlimit="10" d="M172.8,50.2h-9.6h-23.6H130
			c-3.5,0-6.4,2.9-6.4,6.4v6.4v0.6h21.3c3,0,5.5,2.5,5.5,5.5s-2.5,5.5-5.5,5.5h-21.3v12h21.3c3,0,5.5,2.5,5.5,5.5s-2.5,5.5-5.5,5.5
			h-21.3v15.9h55.7V63.1v-6.4C179.2,53.1,176.3,50.2,172.8,50.2z"/>
		<path fill="#FFFFFF" stroke="#FFFFFF" stroke-width="2" stroke-miterlimit="10" d="M156.9,208.5c-1.9-0.4-3.8-0.6-5.8-0.6
			c-1.8,0-3.5,0.2-5.2,0.4c-12.4,2.1-22.3,11.7-24.8,24h26.5h7.6H181C178.6,220.3,169,210.8,156.9,208.5z"/>
		<path fill="#FFFFFF" stroke="#FFFFFF" stroke-width="2" stroke-miterlimit="10" d="M123.5,124.6v13.5v4c0,13.5,9.6,24.7,22.3,27.3
			c1.8,0.4,3.6,0.5,5.5,0.5s3.7-0.2,5.5-0.5c12.7-2.6,22.3-13.8,22.3-27.3v-4v-13.5H123.5z"/>
	</g>
	<path fill="#1B446D" d="M187.7,47.6c-1.9-3.2-4.8-5.7-8.3-7.1c-2-0.8-4.2-1.3-6.6-1.3H130c-2.3,0-4.5,0.5-6.6,1.3
		c-3.5,1.4-6.4,3.9-8.3,7.1c-1.6,2.6-2.5,5.7-2.5,9v12.5v23v21.4h5.5h5.5V97.6h21.3c3,0,5.5-2.5,5.5-5.5s-2.5-5.5-5.5-5.5h-21.3v-12
		h21.3c3,0,5.5-2.5,5.5-5.5s-2.5-5.5-5.5-5.5h-21.3h-0.4c0.1-0.2,0.3-0.4,0.4-0.6v-6.4c0-3.5,2.9-6.4,6.4-6.4h9.6h23.6h9.6
		c3.5,0,6.4,2.9,6.4,6.4v6.4v50.5h5.5h5.5V56.6C190.2,53.3,189.3,50.3,187.7,47.6z"/>
	<g>
		<path fill="#1B446D" d="M123.5,63.1c-0.1,0.2-0.3,0.4-0.4,0.6h0.4V63.1z"/>
		<path fill="#1B446D" d="M209.9,116.4c-0.9-1.7-2.7-2.8-4.8-2.8h-3.9h-11h-5.5h-5.5h-55.7H118h-5.5h-11h-3.4
			c-2.1,0-3.9,1.1-4.8,2.8c-0.4,0.8-0.7,1.7-0.7,2.7c0,3,2.5,5.5,5.5,5.5h3.4h6.1h4.9v13.5v4c0,19.5,14.5,35.8,33.3,38.4v11.4v5.3
			c-4.2,0.5-8.2,1.7-12,3.4c-11.8,5.4-20.9,16.2-23.6,29.5c-0.7,3.2,0.2,6.6,2.3,9.1c2.1,2.6,5.2,4,8.5,4H181c3.3,0,6.4-1.5,8.5-4
			c2.1-2.6,2.9-5.9,2.3-9.2c-2.7-13.2-11.6-24-23.3-29.4c-3.6-1.7-7.5-2.8-11.6-3.4v-5.4v-11.4c18.8-2.7,33.3-18.9,33.3-38.4v-4
			v-13.5h11h3.9c3,0,5.5-2.5,5.5-5.5C210.6,118.1,210.4,117.2,209.9,116.4z M179.2,138.1v4c0,13.5-9.6,24.7-22.3,27.3
			c-1.8,0.4-3.6,0.5-5.5,0.5s-3.7-0.2-5.5-0.5c-12.7-2.6-22.3-13.8-22.3-27.3v-4v-13.5h55.7V138.1z M155.2,232.4h-7.6h-26.5
			c2.5-12.3,12.4-21.9,24.8-24c1.7-0.3,3.4-0.4,5.2-0.4c2,0,3.9,0.2,5.8,0.6c12.1,2.3,21.7,11.8,24.1,23.9H155.2z"/>
	</g>
</g>
</svg>
