<svg xmlns="http://www.w3.org/2000/svg" viewBox="0 0 301 274"><path fill="#FFF" d="M105.4 92L95.3 80.6l-24.2 3-40.6 28-12.5 27 6.7 39.3 31.4 20.6H125.4l4.7-20.6 7.3-9.9v-10.9l6.6-14.7-6.6-16-2.4-19.2-13-6.3-16.6.8M195.6 94.6l10.1-11.4 24.3 2.9 40.5 28.1 12.5 26.9-6.7 39.4-31.4 20.5h-69.2l-4.8-20.5-7.3-10v-10.9l-6.6-14.7 6.6-16 2.4-19.2 13.1-6.3 16.5.8"/><path fill="#1B446D" d="M57.2 95.8l6.5 11.4h56.8c6.5 0 11.8 5.3 11.8 11.8 0 4.8-2.8 8.8-6.9 10.7 6.6.6 11.9 6.1 11.9 12.9 0 5.7-3.7 10.6-8.8 12.3 2.3 2.2 3.8 5.3 3.8 8.7 0 6.4-5.1 11.6-11.5 11.8 2.1 1.9 3.5 4.7 3.5 7.9 0 5.9-4.8 10.7-10.7 10.7l-50-1s-38.9-1.8-38.9-41.2c.1 0-4.2-37.1 32.5-56m61.5 35.2c.2-.1.3-.2.5-.3-.2 0-.3 0-.5-.1v.4M52.2 86c-22.4 11.5-31.6 29-35.4 41.7-3.6 12-3.1 21.8-2.9 24.7.1 10.9 2.7 20.4 7.8 28.4 4.2 6.6 10 12 17.3 16 11.6 6.4 23 7.1 24.2 7.2h.3l50 1h.2c11.9 0 21.7-9.7 21.7-21.7 0-.7 0-1.5-.1-2.2 5-4.2 8.1-10.5 8.1-17.5 0-1.9-.2-3.7-.7-5.5 3.6-4.2 5.7-9.7 5.7-15.5 0-6.3-2.3-12-6.3-16.2.8-2.4 1.3-4.9 1.3-7.4 0-12.6-10.2-22.8-22.8-22.8H70.1l-3.4-5.9L52.2 86z"/><path fill="none" stroke="#1B446D" stroke-width="11" stroke-linejoin="round" stroke-miterlimit="10" d="M54.8 90.9s50.6-29.9 50.6 12.6"/><path fill="#FFF" d="M84.7 94.4l1.3.7v15l-26.2 1.5-3.7-15.2s9.6-6 21.4-9l7.2 7z"/><circle fill="#1B446D" cx="86" cy="101.7" r="5.5"/><path fill="#1B446D" d="M243.8 98.3c36.7 18.9 32.4 56 32.4 56 0 39.3-38.9 41.2-38.9 41.2l-50 1c-5.9 0-10.7-4.8-10.7-10.7 0-3.1 1.3-5.9 3.5-7.9-6.4-.2-11.5-5.4-11.5-11.8 0-3.4 1.5-6.5 3.8-8.7-5.1-1.7-8.8-6.6-8.8-12.3 0-6.8 5.2-12.4 11.9-12.9-4-1.9-6.9-6-6.9-10.7 0-6.5 5.3-11.8 11.8-11.8h56.8l6.6-11.4m-61.5 35.2v-.3c-.2 0-.3.1-.5.1.2.1.4.2.5.2m61.5-46.2c-3.8 0-7.5 2-9.5 5.5l-3.4 5.9h-50.4c-12.6 0-22.8 10.2-22.8 22.8 0 2.6.4 5.1 1.3 7.4-3.9 4.3-6.3 10-6.3 16.2 0 5.8 2.1 11.3 5.7 15.5-.4 1.8-.7 3.6-.7 5.5 0 7 3.1 13.3 8.1 17.5-.1.7-.1 1.4-.1 2.2 0 11.9 9.7 21.7 21.7 21.7h.2l50-1h.3c1.3-.1 12.6-.8 24.2-7.2 7.3-4 13.1-9.4 17.3-16 5.1-8 7.7-17.5 7.8-28.4.2-2.8.7-12.7-2.9-24.7-3.8-12.7-13.1-30.2-35.4-41.7-1.7-.8-3.4-1.2-5.1-1.2z"/><path fill="none" stroke="#1B446D" stroke-width="11" stroke-linejoin="round" stroke-miterlimit="10" d="M246.2 93.4s-50.6-29.9-50.6 12.6"/><path fill="#FFF" d="M216.3 96.9l-1.3.7v15l26.2 1.5 3.7-15.2s-9.6-6-21.4-9l-7.2 7z"/><circle fill="#1B446D" cx="215" cy="104.2" r="5.5"/><path fill="#FFF" d="M180.9 132.7h3.7v3h-3.7zM116.3 128.5h3.9v5h-3.9zM128.4 127.8s-1.5 1.3.4 2.6l-1 1.1-5.8-.9s4-4.4 4.1-4.4 2.3 1.6 2.3 1.6zM130 154.4s-1.8.4-.2 2.1l-1.4.6-5-3.1s5.4-2.4 5.5-2.4c.3 0 1.1 2.8 1.1 2.8zM122.8 175.3s-2 .3-.4 2l-1.3.6-4.8-3.3s5.5-2.2 5.6-2.2c.2.1.9 2.9.9 2.9z"/><g fill="#FFF"><path d="M172.6 130.4s1.5 1.3-.4 2.6l1 1.1 5.8-.9s-4-4.4-4.1-4.4-2.3 1.6-2.3 1.6zM170.9 156.9s1.8.4.2 2.1l1.4.6 5-3.1s-5.4-2.4-5.5-2.4c-.2 0-1.1 2.8-1.1 2.8zM178.1 177.8s2 .3.4 2l1.3.6 4.8-3.3s-5.5-2.2-5.6-2.2c-.1.1-.9 2.9-.9 2.9z"/></g><g fill="none" stroke="#1B446D" stroke-width="11" stroke-linecap="round" stroke-linejoin="round" stroke-miterlimit="10"><path d="M150.5 43.8V22M95.3 57.6L80.1 40.5M205.7 57.6l15.2-17.1"/></g></svg>