<svg xmlns="http://www.w3.org/2000/svg" viewBox="0 0 936 576"><path fill="#FFF" d="M613.1 115.1c-12.7-5.9-26.6-8.9-41.3-8.9-39.8 0-76.9 22.2-92.2 55.4-2.1 4.5-6.6 7.4-11.6 7.4s-9.5-2.9-11.6-7.4c-15.4-33.1-52.4-55.4-92.2-55.4-14.7 0-28.6 3-41.3 8.9-24.8 11.5-42.8 31.4-50.7 55.9-9.8 30.4-4 65.9 16.6 102.4 30 53.3 85.2 96 176.6 166.8l2.5 1.9 2.3-1.8c91.6-70.9 146.8-113.6 176.9-166.9 20.7-36.6 26.4-72 16.6-102.4-7.8-24.5-25.8-44.4-50.6-55.9z"/><path fill="#83D4F0" d="M623.8 92c-16.1-7.4-33.6-11.2-52-11.2-41.5 0-80.7 19.7-103.8 50.8-23.1-31-62.3-50.8-103.8-50.8-18.4 0-35.9 3.8-52 11.2-31.3 14.5-54.1 39.8-64.2 71.3-8.4 26.1-11.9 68.5 18.7 122.7 32.6 57.8 89.3 101.7 183.2 174.4l10.3 8c2.3 1.8 5 2.7 7.8 2.7s5.5-.9 7.8-2.7l10.1-7.8C580 387.8 636.7 343.8 669.3 286c30.6-54.2 27.1-96.7 18.7-122.7-10.1-31.4-32.9-56.7-64.2-71.3zm23.3 181.5c-30.1 53.3-85.3 96.1-176.9 166.9l-2.3 1.8-2.5-1.9C374 369.5 318.8 326.8 288.8 273.5c-20.7-36.5-26.4-72-16.6-102.4 7.9-24.6 25.9-44.4 50.7-55.9 12.7-5.9 26.6-8.9 41.3-8.9 39.8 0 76.9 22.2 92.2 55.4 2.1 4.5 6.6 7.4 11.6 7.4s9.5-2.9 11.6-7.4c15.4-33.1 52.4-55.4 92.2-55.4 14.7 0 28.6 3 41.3 8.9 24.8 11.5 42.8 31.4 50.7 55.9 9.8 30.4 4 65.8-16.7 102.4z"/><g fill="#1B446D"><path d="M393 269.5l-48.1-69.2c-2.1-3.1-5.6-4.9-9.4-4.9h-.2c-6.3 0-11.4 5.1-11.4 11.4v82.7c0 4.6 3.8 8.4 8.4 8.4h.2c4.6 0 8.4-3.8 8.4-8.4v-65.7L389 293c2.1 3.1 5.6 4.9 9.4 4.9h.2c6.3 0 11.4-5.1 11.4-11.4v-82.7c0-4.6-3.8-8.4-8.4-8.4h-.2c-4.6 0-8.4 3.8-8.4 8.4v65.7z"/><path d="M398.6 298.8h-.2c-4 0-7.8-2-10.1-5.3l-46.4-66.8v62.8c0 5.1-4.2 9.3-9.3 9.3-5.3 0-9.5-4.2-9.5-9.3v-82.7c0-6.8 5.5-12.3 12.3-12.3 4.2 0 8 2 10.3 5.3l46.4 66.8v-62.8c0-5.1 4.2-9.3 9.3-9.3 5.3 0 9.5 4.2 9.5 9.3v82.7c0 6.8-5.6 12.3-12.3 12.3zM340 220.9l49.8 71.6c2 2.8 5.2 4.5 8.6 4.5h.2c5.8 0 10.5-4.7 10.5-10.5v-82.7c0-4.1-3.4-7.5-7.5-7.5-4.3 0-7.6 3.4-7.6 7.5v68.6l-49.8-71.6c-2-2.8-5.2-4.5-8.6-4.5-6 0-10.7 4.7-10.7 10.5v82.7c0 4.1 3.4 7.5 7.5 7.5 4.3 0 7.6-3.4 7.6-7.5v-68.6z"/></g><path fill="#1B446D" d="M454.1 296.8h-.2c-3.8-.1-7-2.6-8.1-6.2l-25.1-85.3c-1.3-4.6 1.3-9.4 5.9-10.8 4.6-1.4 9.4 1.3 10.8 5.9l17.4 59.3 14.4-41.4c1.6-4.5 6.5-6.9 11-5.3 4.5 1.6 6.9 6.5 5.3 11l-23.3 67c-1.1 3.5-4.4 5.8-8.1 5.8z"/><path fill="#1B446D" d="M500.6 296c-3.7 0-7-2.3-8.2-5.8l-23.3-67c-1.6-4.5.8-9.5 5.3-11 4.5-1.6 9.5.8 11 5.3l14.4 41.4 17.4-59.3c1.4-4.6 6.2-7.2 10.8-5.9 4.6 1.4 7.2 6.2 5.9 10.8l-25.1 85.3c-1.1 3.6-4.3 6.1-8.1 6.2h-.1zM549.1 296.8c-4.8 0-8.7-3.9-8.7-8.7v-85.5c0-4.8 3.9-8.7 8.7-8.7s8.7 3.9 8.7 8.7v85.5c-.1 4.9-4 8.7-8.7 8.7z"/><path fill="#1B446D" d="M549.1 266.3c-2.1 0-4.3-.8-6-2.4-3.5-3.3-3.6-8.8-.4-12.3l51.7-54.8c3.3-3.5 8.8-3.6 12.3-.4 3.5 3.3 3.6 8.8.4 12.3l-51.7 54.8c-1.7 1.9-4 2.8-6.3 2.8z"/><path fill="#1B446D" d="M602.6 297.2c-3 0-5.8-1.5-7.5-4.2l-29.5-49.6c-2.4-4.1-1.1-9.4 3-11.9 4.1-2.4 9.4-1.1 11.9 3l29.5 49.6c2.4 4.1 1.1 9.4-3 11.9-1.4.8-2.9 1.2-4.4 1.2z"/></svg>