<svg xmlns="http://www.w3.org/2000/svg" viewBox="0 0 936 576"><path fill="#FFF" d="M613.1 115.1c-12.7-5.9-26.6-8.9-41.3-8.9-39.8 0-76.9 22.2-92.2 55.4-2.1 4.5-6.6 7.4-11.6 7.4s-9.5-2.9-11.6-7.4c-15.4-33.1-52.4-55.4-92.2-55.4-14.7 0-28.6 3-41.3 8.9-24.8 11.5-42.8 31.4-50.7 55.9-9.8 30.4-4 65.9 16.6 102.4 30 53.3 85.2 96 176.6 166.8l2.5 1.9 2.3-1.8c91.6-70.9 146.8-113.6 176.9-166.9 20.7-36.6 26.4-72 16.6-102.4-7.8-24.5-25.8-44.4-50.6-55.9z"/><path fill="#83D4F0" d="M623.8 92c-16.1-7.4-33.6-11.2-52-11.2-41.5 0-80.7 19.7-103.8 50.8-23.1-31-62.3-50.8-103.8-50.8-18.4 0-35.9 3.8-52 11.2-31.3 14.5-54.1 39.8-64.2 71.3-8.4 26.1-11.9 68.5 18.7 122.7 32.6 57.8 89.3 101.7 183.2 174.4l10.3 8c2.3 1.8 5 2.7 7.8 2.7s5.5-.9 7.8-2.7l10.1-7.8C580 387.8 636.7 343.8 669.3 286c30.6-54.2 27.1-96.7 18.7-122.7-10.1-31.4-32.9-56.7-64.2-71.3zm23.3 181.5c-30.1 53.3-85.3 96.1-176.9 166.9l-2.3 1.8-2.5-1.9C374 369.5 318.8 326.8 288.8 273.5c-20.7-36.5-26.4-72-16.6-102.4 7.9-24.6 25.9-44.4 50.7-55.9 12.7-5.9 26.6-8.9 41.3-8.9 39.8 0 76.9 22.2 92.2 55.4 2.1 4.5 6.6 7.4 11.6 7.4s9.5-2.9 11.6-7.4c15.4-33.1 52.4-55.4 92.2-55.4 14.7 0 28.6 3 41.3 8.9 24.8 11.5 42.8 31.4 50.7 55.9 9.8 30.4 4 65.8-16.7 102.4z"/><g fill="#1B446D"><path d="M445.7 289.7l-59.4-85.5c-2.6-3.8-7-6-11.6-6h-.2c-7.8 0-14.1 6.3-14.1 14.1v102.2c0 5.7 4.6 10.4 10.4 10.4h.2c5.7 0 10.4-4.6 10.4-10.4v-81.2l59.4 85.5c2.6 3.8 7 6 11.6 6h.2c7.8 0 14.1-6.3 14.1-14.1V208.5c0-5.7-4.6-10.4-10.4-10.4h-.3c-5.7 0-10.4 4.6-10.4 10.4v81.2z"/><path d="M452.5 325.9h-.2c-5 0-9.6-2.4-12.5-6.5l-57.4-82.5v77.6c0 6.3-5.2 11.5-11.5 11.5-6.5 0-11.7-5.2-11.7-11.5V212.3c0-8.4 6.8-15.2 15.2-15.2 5.2 0 9.9 2.4 12.7 6.5l57.4 82.5v-77.6c0-6.3 5.2-11.5 11.5-11.5 6.5 0 11.7 5.2 11.7 11.5v102.2c0 8.4-6.8 15.2-15.2 15.2zm-72.3-96.2l61.5 88.4c2.4 3.5 6.4 5.6 10.6 5.6h.2c7.1 0 13-5.8 13-13V208.5c0-5.1-4.1-9.2-9.2-9.2-5.3 0-9.4 4.1-9.4 9.2v84.8l-61.5-88.4c-2.4-3.5-6.4-5.6-10.6-5.6-7.4 0-13.2 5.8-13.2 13v102.2c0 5.1 4.1 9.2 9.2 9.2 5.3 0 9.4-4.1 9.4-9.2v-84.8z"/></g><path fill="#1B446D" d="M493.8 325.5c-5.9 0-10.7-4.8-10.7-10.7V209.4c0-5.9 4.8-10.7 10.7-10.7s10.7 4.8 10.7 10.7v105.4c0 5.9-4.8 10.7-10.7 10.7zM566 326c-5.9 0-10.7-4.8-10.7-10.7V209.9c0-5.9 4.8-10.7 10.7-10.7s10.7 4.8 10.7 10.7v105.4c0 5.9-4.8 10.7-10.7 10.7z"/><path fill="#1B446D" d="M566 271.7h-72.2c-5.9 0-10.7-4.8-10.7-10.7s4.8-10.7 10.7-10.7H566c5.9 0 10.7 4.8 10.7 10.7s-4.8 10.7-10.7 10.7z"/></svg>