<?xml version="1.0" encoding="utf-8"?>
<!-- Generator: Adobe Illustrator 17.1.0, SVG Export Plug-In . SVG Version: 6.00 Build 0)  -->
<!DOCTYPE svg PUBLIC "-//W3C//DTD SVG 1.1//EN" "http://www.w3.org/Graphics/SVG/1.1/DTD/svg11.dtd">
<svg version="1.1" id="Layer_1" xmlns="http://www.w3.org/2000/svg" xmlns:xlink="http://www.w3.org/1999/xlink" x="0px" y="0px"
	 viewBox="0 0 936 576" enable-background="new 0 0 936 576" xml:space="preserve">
<path fill="#FFFFFF" d="M613.1,115.1c-12.7-5.9-26.6-8.9-41.3-8.9c-39.8,0-76.9,22.2-92.2,55.4c-2.1,4.5-6.6,7.4-11.6,7.4
	s-9.5-2.9-11.6-7.4c-15.4-33.1-52.4-55.4-92.2-55.4c-14.7,0-28.6,3-41.3,8.9c-24.8,11.5-42.8,31.4-50.7,55.9
	c-9.8,30.4-4,65.9,16.6,102.4c30,53.3,85.2,96,176.6,166.8l2.5,1.9l2.3-1.8c91.6-70.9,146.8-113.6,176.9-166.9
	c20.7-36.6,26.4-72,16.6-102.4C655.9,146.5,637.9,126.6,613.1,115.1z"/>
<path fill="#83D4F0" d="M623.8,92c-16.1-7.4-33.6-11.2-52-11.2c-41.5,0-80.7,19.7-103.8,50.8c-23.1-31-62.3-50.8-103.8-50.8
	c-18.4,0-35.9,3.8-52,11.2c-31.3,14.5-54.1,39.8-64.2,71.3c-8.4,26.1-11.9,68.5,18.7,122.7c32.6,57.8,89.3,101.7,183.2,174.4l10.3,8
	c2.3,1.8,5,2.7,7.8,2.7s5.5-0.9,7.8-2.7l10.1-7.8C580,387.8,636.7,343.8,669.3,286c30.6-54.2,27.1-96.7,18.7-122.7
	C677.9,131.9,655.1,106.6,623.8,92z M647.1,273.5c-30.1,53.3-85.3,96.1-176.9,166.9l-2.3,1.8l-2.5-1.9
	c-91.4-70.8-146.6-113.5-176.6-166.8c-20.7-36.5-26.4-72-16.6-102.4c7.9-24.6,25.9-44.4,50.7-55.9c12.7-5.9,26.6-8.9,41.3-8.9
	c39.8,0,76.9,22.2,92.2,55.4c2.1,4.5,6.6,7.4,11.6,7.4s9.5-2.9,11.6-7.4c15.4-33.1,52.4-55.4,92.2-55.4c14.7,0,28.6,3,41.3,8.9
	c24.8,11.5,42.8,31.4,50.7,55.9C673.6,201.5,667.8,236.9,647.1,273.5z"/>
<g>
	<g>
		<path fill="#1B446D" d="M393,269.5l-48.1-69.2c-2.1-3.1-5.6-4.9-9.4-4.9h-0.2c-6.3,0-11.4,5.1-11.4,11.4v82.7
			c0,4.6,3.8,8.4,8.4,8.4h0.2c4.6,0,8.4-3.8,8.4-8.4v-65.7L389,293c2.1,3.1,5.6,4.9,9.4,4.9h0.2c6.3,0,11.4-5.1,11.4-11.4v-82.7
			c0-4.6-3.8-8.4-8.4-8.4h-0.2c-4.6,0-8.4,3.8-8.4,8.4V269.5z"/>
		<path fill="#1B446D" d="M398.6,298.8h-0.2c-4,0-7.8-2-10.1-5.3l-46.4-66.8v62.8c0,5.1-4.2,9.3-9.3,9.3c-5.3,0-9.5-4.2-9.5-9.3
			v-82.7c0-6.8,5.5-12.3,12.3-12.3c4.2,0,8,2,10.3,5.3l46.4,66.8v-62.8c0-5.1,4.2-9.3,9.3-9.3c5.3,0,9.5,4.2,9.5,9.3v82.7
			C410.9,293.3,405.3,298.8,398.6,298.8z M340,220.9l49.8,71.6c2,2.8,5.2,4.5,8.6,4.5h0.2c5.8,0,10.5-4.7,10.5-10.5v-82.7
			c0-4.1-3.4-7.5-7.5-7.5c-4.3,0-7.6,3.4-7.6,7.5v68.6l-49.8-71.6c-2-2.8-5.2-4.5-8.6-4.5c-6,0-10.7,4.7-10.7,10.5v82.7
			c0,4.1,3.4,7.5,7.5,7.5c4.3,0,7.6-3.4,7.6-7.5V220.9z"/>
	</g>
	<g>
		<path fill="#1B446D" d="M454.1,296.8c-0.1,0-0.1,0-0.2,0c-3.8-0.1-7-2.6-8.1-6.2l-25.1-85.3c-1.3-4.6,1.3-9.4,5.9-10.8
			c4.6-1.4,9.4,1.3,10.8,5.9l17.4,59.3l14.4-41.4c1.6-4.5,6.5-6.9,11-5.3c4.5,1.6,6.9,6.5,5.3,11l-23.3,67
			C461.1,294.5,457.8,296.8,454.1,296.8z"/>
	</g>
	<g>
		<path fill="#1B446D" d="M500.6,296c-3.7,0-7-2.3-8.2-5.8l-23.3-67c-1.6-4.5,0.8-9.5,5.3-11c4.5-1.6,9.5,0.8,11,5.3l14.4,41.4
			l17.4-59.3c1.4-4.6,6.2-7.2,10.8-5.9c4.6,1.4,7.2,6.2,5.9,10.8l-25.1,85.3c-1.1,3.6-4.3,6.1-8.1,6.2
			C500.7,296,500.7,296,500.6,296z"/>
	</g>
	<g>
		<path fill="#1B446D" d="M549.1,296.8c-4.8,0-8.7-3.9-8.7-8.7v-85.5c0-4.8,3.9-8.7,8.7-8.7s8.7,3.9,8.7,8.7v85.5
			C557.7,293,553.8,296.8,549.1,296.8z"/>
	</g>
	<g>
		<path fill="#1B446D" d="M549.1,266.3c-2.1,0-4.3-0.8-6-2.4c-3.5-3.3-3.6-8.8-0.4-12.3l51.7-54.8c3.3-3.5,8.8-3.6,12.3-0.4
			c3.5,3.3,3.6,8.8,0.4,12.3l-51.7,54.8C553.7,265.4,551.4,266.3,549.1,266.3z"/>
	</g>
	<g>
		<path fill="#1B446D" d="M602.6,297.2c-3,0-5.8-1.5-7.5-4.2l-29.5-49.6c-2.4-4.1-1.1-9.4,3-11.9c4.1-2.4,9.4-1.1,11.9,3l29.5,49.6
			c2.4,4.1,1.1,9.4-3,11.9C605.6,296.8,604.1,297.2,602.6,297.2z"/>
	</g>
</g>
</svg>
