<svg xmlns="http://www.w3.org/2000/svg" viewBox="0 0 360 360"><path fill="#FFF" d="M257.8 109.3c-2.1 0-4.2.2-6.2.5-4-33.6-32.6-59.7-67.3-59.7-35.1 0-63.9 26.6-67.4 60.7-4.5-1.2-9.2-1.8-14.1-1.8-30.3 0-54.9 24.6-54.9 54.9s24.6 54.9 54.9 54.9c4.6 0 9.1-.6 13.5-1.7 5.1 14.6 19.1 25.1 35.5 25.1 12.4 0 23.5-6 30.3-15.4 7 4.8 15.4 7.7 24.5 7.7 23.9 0 43.2-19.3 43.2-43.2v-1.4c2.6.5 5.3.8 8.1.8 22.5 0 40.7-18.2 40.7-40.7-.1-22.5-18.4-40.7-40.8-40.7z"/><path fill="#1B446D" d="M151.6 248.7c-16.8 0-32-9.5-39.4-24.2-3.2.5-6.3.7-9.5.7-33.9 0-61.4-27.6-61.4-61.4 0-33.9 27.6-61.4 61.4-61.4 2.9 0 5.8.2 8.7.6 6.9-34.4 37.1-59.5 72.9-59.5 35.5 0 65.7 25 72.8 59.2h.7c26 0 47.2 21.2 47.2 47.2s-21.2 47.2-47.2 47.2h-1.9c-2.9 24.7-24 43.9-49.4 43.9-8.1 0-16.1-2-23.2-5.7-8.2 8.5-19.7 13.4-31.7 13.4zm-35.4-38.2c2.7 0 5.2 1.7 6.2 4.4 4.4 12.4 16.1 20.8 29.3 20.8 9.8 0 19.2-4.7 25-12.7 2.1-2.9 6.1-3.5 9-1.5 6.1 4.2 13.3 6.5 20.8 6.5 20.2 0 36.6-16.4 36.6-36.6v-1.2c-.1-2 .8-3.9 2.3-5.2s3.6-1.8 5.5-1.4c2.2.5 4.5.7 6.8.7 18.8 0 34.1-15.3 34.1-34.1s-15.3-34.1-34.1-34.1c-1.7 0-3.5.1-5.2.4-1.8.3-3.5-.2-5-1.3-1.4-1.1-2.3-2.7-2.5-4.4-3.7-30.7-29.8-53.9-60.8-53.9-31.5 0-57.7 23.6-60.9 54.8-.2 1.9-1.2 3.6-2.8 4.7-1.6 1.1-3.5 1.4-5.4.9-4-1.1-8.2-1.6-12.4-1.6-26.7 0-48.3 21.7-48.3 48.3 0 26.7 21.7 48.3 48.3 48.3 4 0 8-.5 11.9-1.5.5-.2 1-.3 1.6-.3z"/><path fill="#83D4F0" d="M183.1 205.4c-2.1 0-4.2-1-5.4-2.9-2-3-1.2-7.1 1.8-9.1l68.3-45.9c3-2 7.1-1.2 9.1 1.8s1.2 7.1-1.8 9.1l-68.3 45.9c-1.2.7-2.5 1.1-3.7 1.1z"/><g fill="#83D4F0"><path d="M180.7 116.3V257.9s0 26.4 18.9 42h-36.7s17.8-15.1 17.8-42"/><path d="M199.5 306.5h-36.7c-2.7 0-5.2-1.7-6.1-4.3-.9-2.6-.2-5.5 1.9-7.2.6-.5 15.5-13.6 15.5-37V116.3c0-3.6 2.9-6.5 6.5-6.5s6.5 2.9 6.5 6.5v141.6c0 .2.3 23.6 16.5 37 2.1 1.8 2.9 4.7 2 7.3-.8 2.6-3.3 4.3-6.1 4.3zm-22.8-13.1h8.3c-1.6-2.4-3-4.9-4.1-7.4-1.3 2.8-2.8 5.2-4.2 7.4z"/></g><path fill="#83D4F0" d="M180.7 163.9c-2.1 0-4.2-1-5.4-2.9-2-3-1.2-7.1 1.8-9.1l33.3-22.4c3-2 7.1-1.2 9.1 1.8s1.2 7.1-1.8 9.1l-33.3 22.4c-1.2.7-2.5 1.1-3.7 1.1z"/><g><path fill="#83D4F0" d="M178.4 223.6c-1.3 0-2.5-.4-3.6-1.1l-79.2-53.2c-3-2-3.8-6.1-1.8-9.1 2-3 6.1-3.8 9.1-1.8l79.2 53.2c3 2 3.8 6.1 1.8 9.1-1.4 1.9-3.4 2.9-5.5 2.9z"/></g></svg>