<?xml version="1.0" encoding="utf-8"?>
<!-- Generator: Adobe Illustrator 17.1.0, SVG Export Plug-In . SVG Version: 6.00 Build 0)  -->
<!DOCTYPE svg PUBLIC "-//W3C//DTD SVG 1.1//EN" "http://www.w3.org/Graphics/SVG/1.1/DTD/svg11.dtd">
<svg version="1.1" id="Layer_1" xmlns="http://www.w3.org/2000/svg" xmlns:xlink="http://www.w3.org/1999/xlink" x="0px" y="0px"
	 viewBox="0 0 936 576" enable-background="new 0 0 936 576" xml:space="preserve">
<path fill="#FFFFFF" d="M613.1,115.1c-12.7-5.9-26.6-8.9-41.3-8.9c-39.8,0-76.9,22.2-92.2,55.4c-2.1,4.5-6.6,7.4-11.6,7.4
	s-9.5-2.9-11.6-7.4c-15.4-33.1-52.4-55.4-92.2-55.4c-14.7,0-28.6,3-41.3,8.9c-24.8,11.5-42.8,31.4-50.7,55.9
	c-9.8,30.4-4,65.9,16.6,102.4c30,53.3,85.2,96,176.6,166.8l2.5,1.9l2.3-1.8c91.6-70.9,146.8-113.6,176.9-166.9
	c20.7-36.6,26.4-72,16.6-102.4C655.9,146.5,637.9,126.6,613.1,115.1z"/>
<path fill="#1B446D" d="M623.8,92c-16.1-7.4-33.6-11.2-52-11.2c-41.5,0-80.7,19.7-103.8,50.8c-23.1-31-62.3-50.8-103.8-50.8
	c-18.4,0-35.9,3.8-52,11.2c-31.3,14.5-54.1,39.8-64.2,71.3c-8.4,26.1-11.9,68.5,18.7,122.7c32.6,57.8,89.3,101.7,183.2,174.4l10.3,8
	c2.3,1.8,5,2.7,7.8,2.7s5.5-0.9,7.8-2.7l10.1-7.8C580,387.8,636.7,343.8,669.3,286c30.6-54.2,27.1-96.7,18.7-122.7
	C677.9,131.9,655.1,106.6,623.8,92z M647.1,273.5c-30.1,53.3-85.3,96.1-176.9,166.9l-2.3,1.8l-2.5-1.9
	c-91.4-70.8-146.6-113.5-176.6-166.8c-20.7-36.5-26.4-72-16.6-102.4c7.9-24.6,25.9-44.4,50.7-55.9c12.7-5.9,26.6-8.9,41.3-8.9
	c39.8,0,76.9,22.2,92.2,55.4c2.1,4.5,6.6,7.4,11.6,7.4s9.5-2.9,11.6-7.4c15.4-33.1,52.4-55.4,92.2-55.4c14.7,0,28.6,3,41.3,8.9
	c24.8,11.5,42.8,31.4,50.7,55.9C673.6,201.5,667.8,236.9,647.1,273.5z"/>
<g>
	<g>
		<path fill="#1B446D" d="M437.9,198.6c-4.5-2.8-9.5-4.8-14.8-5.9c-5.1-1.1-10-1.6-14.7-1.6h-26c-8.6,0-15.6,7-15.6,15.6v107.4
			c0,6.6,5.3,11.9,11.9,11.9h0.2c6.6,0,11.9-5.3,11.9-11.9v-46h20c5.4,0,10.7-0.7,15.6-2.1c5.2-1.5,9.8-3.8,13.9-6.8
			c4.2-3.2,7.5-7.3,9.9-12.1c2.5-4.9,3.7-10.7,3.7-17.2c0-7.4-1.5-13.8-4.6-19C446.5,205.6,442.6,201.6,437.9,198.6z M429.9,229.7
			c0,2.9-0.5,5.3-1.5,7.1c-1,1.9-2.3,3.3-3.9,4.4c-1.8,1.2-3.8,2.1-6.2,2.7c-2.6,0.6-5.3,0.9-8,0.9h-19.5v-30.8h18.8
			c2.7,0,5.4,0.3,8.1,1c2.4,0.6,4.6,1.6,6.4,2.9c1.7,1.3,3.1,2.8,4.2,4.8C429.4,224.6,429.9,226.9,429.9,229.7z"/>
	</g>
	<g>
		<path fill="#1B446D" d="M545.6,203v41.9H490V203c0-6.6-5.3-11.9-11.9-11.9h-0.2c-6.6,0-11.9,5.3-11.9,11.9v111
			c0,6.6,5.3,11.9,11.9,11.9h0.2c6.6,0,11.9-5.3,11.9-11.9v-46h55.6v46c0,6.6,5.3,11.9,11.9,11.9h0.2c6.6,0,11.9-5.3,11.9-11.9V203
			c0-6.6-5.3-11.9-11.9-11.9h-0.2C550.9,191.1,545.6,196.4,545.6,203z"/>
	</g>
</g>
</svg>
