<svg xmlns="http://www.w3.org/2000/svg" viewBox="0 0 936 576"><path fill="#FFF" d="M656.2 212.9c-11.3 0-20.6 8.3-22.3 19.1l-104.4-15.2-46.7-94.5c7.5-3.7 12.6-11.4 12.6-20.2 0-12.5-10.1-22.6-22.6-22.6s-22.6 10.1-22.6 22.6c0 8.9 5.1 16.6 12.6 20.2l-46.7 94.5L311.9 232c-1.7-10.8-11-19.1-22.3-19.1-12.5 0-22.6 10.1-22.6 22.6 0 12.5 10.1 22.6 22.6 22.6 6.4 0 12.2-2.7 16.3-7l75.3 73.4-17.8 103.9c-1.2-.2-2.4-.3-3.7-.3-12.5 0-22.6 10.1-22.6 22.6 0 12.5 10.1 22.6 22.6 22.6 12.5 0 22.6-10.1 22.6-22.6 0-3.8-1-7.4-2.6-10.6l93.2-49 93.4 49.1c-1.6 3.1-2.6 6.7-2.6 10.5 0 12.5 10.1 22.6 22.6 22.6 12.5 0 22.6-10.1 22.6-22.6 0-12.5-10.1-22.6-22.6-22.6-1.3 0-2.6.1-3.9.4l-17.8-103.9 75.3-73.4c4.1 4.3 9.9 7 16.3 7 12.5 0 22.6-10.1 22.6-22.6 0-12.6-10.1-22.7-22.6-22.7z"/><path fill="#1B446D" stroke="#1B446D" stroke-miterlimit="10" d="M656.2 189.5c-14.3 0-27.2 6.5-35.7 16.9l-75.4-11-33.6-68.2c4.8-7.3 7.5-16 7.5-25.2 0-25.4-20.6-46-46-46s-46 20.6-46 46c0 9.2 2.7 17.9 7.5 25.2l-33.6 68.2-75.4 11c-8.5-10.4-21.3-16.9-35.7-16.9-25.4 0-46 20.6-46 46s20.6 46 46 46c4.2 0 8.3-.6 12.2-1.7l54.3 52.9-12.9 75c-17.2 6.7-29.5 23.4-29.5 42.9 0 25.4 20.6 46 46 46 24.6 0 44.8-19.5 46-43.8l67.2-35.3 67.4 35.5c1.2 24.3 21.4 43.7 46 43.7 25.4 0 46-20.6 46-46 0-19.6-12.4-36.5-29.7-43l-12.9-74.9 54.3-52.9c4 1.1 8.1 1.7 12.2 1.7 25.4 0 46-20.6 46-46-.2-25.5-20.8-46.1-46.2-46.1zm0 68.6c-6.4 0-12.2-2.7-16.3-7l-75.3 73.4 17.8 103.9c1.3-.2 2.6-.4 3.9-.4 12.5 0 22.6 10.1 22.6 22.6 0 12.5-10.1 22.6-22.6 22.6-12.5 0-22.6-10.1-22.6-22.6 0-3.8.9-7.3 2.6-10.5L472.9 391l-93.2 49c1.7 3.2 2.6 6.8 2.6 10.6 0 12.5-10.1 22.6-22.6 22.6-12.5 0-22.6-10.1-22.6-22.6 0-12.5 10.1-22.6 22.6-22.6 1.3 0 2.5.1 3.7.3l17.8-103.9-75.3-73.4c-4.1 4.3-9.9 7-16.3 7-12.5 0-22.6-10.1-22.6-22.6 0-12.5 10.1-22.6 22.6-22.6 11.3 0 20.6 8.3 22.3 19.1l104.4-15.2 46.7-94.5c-7.5-3.7-12.6-11.4-12.6-20.2 0-12.5 10.1-22.6 22.6-22.6s22.6 10.1 22.6 22.6c0 8.9-5.1 16.6-12.6 20.2l46.7 94.5L633.9 232c1.7-10.8 11-19.1 22.3-19.1 12.5 0 22.6 10.1 22.6 22.6 0 12.5-10.1 22.6-22.6 22.6z"/><path fill="#FFF" d="M400.9 340.4v-98.8s64-4.5 64 49.4c0 0 2.9 49.4-64 49.4z"/><path fill="#1B446D" d="M400.9 349.6c-5 0-9.1-4.1-9.1-9.1v-98.8c0-4.8 3.7-8.8 8.5-9.1.2 0 1.7-.1 4.2-.1 33.6 0 69.5 15.4 69.6 58.4.1 2.9.1 22.4-14.9 38.2-12.8 13.6-32.4 20.5-58.3 20.5zm9.2-98.7V331c16-1.3 28-6.1 35.8-14.4 10.4-11 9.9-24.8 9.9-25v-.5c0-32.6-28.6-39.2-45.7-40.2z"/><path fill="#1B446D" stroke="#1B446D" stroke-miterlimit="10" d="M556 334.7l.1.2c2.2 4.9-.4 10.6-5.6 12.1-10.9 3.1-20 2-20 2-8.1-.7-15.6-2.8-22.2-6.1-6.6-3.4-12.3-7.9-16.8-13.4s-7.8-11.9-9.9-19.1c-2.1-7.1-2.9-14.9-2.2-23 .7-8.1 2.7-15.6 6.1-22.2 3.3-6.7 7.7-12.4 13-17s11.7-8.1 18.8-10.4c7.1-2.2 14.8-3 23-2.3 0 0 5 .4 8.1 1.6 7.7 3 9.2 9.4 6.4 14.3-2 3.4-6 5.1-9.8 4.1-11-2.7-19.3-1-21.4-.5l-.9.3c-4.5 1.6-8.5 3.9-11.9 6.9-3.5 3.1-6.3 7-8.4 11.6-2.2 4.6-3.5 9.7-4 15.3-.5 5.5 0 10.8 1.3 15.7 1.3 4.8 3.4 9.1 6.3 12.8 2.9 3.7 6.5 6.7 10.9 9.1 4.4 2.3 9.5 3.8 15.2 4.3 0 0 7.1.8 13.9-1 4-1.3 8.2.9 10 4.7z"/></svg>