<?xml version="1.0" encoding="utf-8"?>
<!-- Generator: Adobe Illustrator 17.1.0, SVG Export Plug-In . SVG Version: 6.00 Build 0)  -->
<!DOCTYPE svg PUBLIC "-//W3C//DTD SVG 1.1//EN" "http://www.w3.org/Graphics/SVG/1.1/DTD/svg11.dtd">
<svg version="1.1" id="Layer_1" xmlns="http://www.w3.org/2000/svg" xmlns:xlink="http://www.w3.org/1999/xlink" x="0px" y="0px"
	 viewBox="0 0 360 360" enable-background="new 0 0 360 360" xml:space="preserve">
<g>
	<g>
		<g>
			
				<rect x="157.8" y="73.2" transform="matrix(0.4028 -0.9153 0.9153 0.4028 33.2573 208.137)" fill="#FFFFFF" width="36.6" height="10.8"/>
			<polygon fill="#1B446D" points="175.2,51 155.1,96.5 177.1,106.2 197.1,60.6 			"/>
		</g>
		
			<line fill="none" stroke="#1B446D" stroke-width="11" stroke-linecap="round" stroke-linejoin="round" stroke-miterlimit="10" x1="172.3" y1="49.6" x2="200.3" y2="62.1"/>
	</g>
	
		<line fill="none" stroke="#1B446D" stroke-width="11" stroke-linecap="round" stroke-linejoin="round" stroke-miterlimit="10" x1="225" y1="237" x2="101.1" y2="237"/>
	<g>
		<path fill="#FFFFFF" d="M189.3,295.2c-1.1-2.3-0.7-5,0.8-6.9c0.4-0.4,33-41,23.6-81.2c-5.5-23.4-24.4-42.7-56.2-57.2
			c-3.2-1.4-4.7-5.1-3.5-8.4l14.4-37.4c1-2.6,3.5-4.2,6.1-4.2c0.7,0,1.4,0.1,2,0.4c2.6,0.8,64.2,22.1,86.1,77.4
			c13.6,34.4,8.6,74.2-14.8,117.8C246.9,297.7,190.4,297.4,189.3,295.2z"/>
		<path fill="#1B446D" d="M174.6,106.4c0,0,142,47.6,67.6,185.9h-46.9c0,0,79.3-96.6-35-148.4L174.6,106.4 M174.6,93.3
			c-5.3,0-10.3,3.2-12.3,8.5l-14.4,37.4c-2.5,6.5,0.5,13.9,6.8,16.7c29.9,13.5,47.6,31.2,52.5,52.6c4.4,19-1.8,38.4-7.8,51.3
			c-6.6,14.2-14.5,24-14.5,24c-2.8,3.4-3.7,8-2.4,12.1c0.2,0.6,72.1,0.7,72.6-0.3c23.2-44.4,27.9-84.9,13.8-120.6
			c-23-58.1-87.4-80.4-90.2-81.2C177.4,93.5,175.9,93.3,174.6,93.3L174.6,93.3z"/>
	</g>
	<g>
		
			<polygon fill="#1B446D" stroke="#1B446D" stroke-width="11" stroke-linecap="round" stroke-linejoin="round" stroke-miterlimit="10" points="
			130.5,196.1 118.8,191 121.3,176.7 139.2,184.7 		"/>
		
			<rect x="134.3" y="75.9" transform="matrix(-0.9153 -0.4028 0.4028 -0.9153 239.1646 312.9318)" fill="#FFFFFF" stroke="#1B446D" stroke-width="11" stroke-linejoin="round" stroke-miterlimit="10" width="36.4" height="110.8"/>
		
			<line fill="none" stroke="#1B446D" stroke-width="11" stroke-linecap="round" stroke-linejoin="round" stroke-miterlimit="10" x1="148.1" y1="68.9" x2="201.5" y2="92.3"/>
	</g>
	
		<circle fill="#FFFFFF" stroke="#1B446D" stroke-width="11" stroke-linecap="round" stroke-linejoin="round" stroke-miterlimit="10" cx="179.2" cy="131.3" r="21.6"/>
	<polygon fill="#FFFFFF" stroke="#1B446D" stroke-width="11" stroke-linejoin="round" stroke-miterlimit="10" points="96.3,292.1 
		269.9,292.1 269.9,292.1 	"/>
</g>
</svg>
