<svg xmlns="http://www.w3.org/2000/svg" viewBox="0 0 301 274"><path fill="#FFF" stroke="#FFF" stroke-width="6" stroke-miterlimit="10" d="M179.2 55.5l-43.2 55 20.1 20.1 19.9 19.9 46-36.2c-.4-.2-.9-.4-1.5-.7-.1 0-.2-.1-.3-.1-.1-.1-.2-.1-.3-.2-.3-.2-.7-.4-1-.6-.1-.1-.3-.2-.4-.3-.2-.2-.5-.3-.8-.5-.1-.1-.3-.2-.4-.3-.3-.2-.7-.5-1-.7-.1 0-.1-.1-.2-.1-.4-.3-.8-.6-1.1-.9l-.3-.3c-.3-.2-.6-.5-.8-.7l-.3-.3c-.4-.3-.7-.6-1-.9l-.4-.4c-.9-1-1.6-1.9-1.9-2.7-.2-.7-.5-1.5-.8-2.3-.1-.3-.2-.5-.3-.8-.2-.5-.5-1-.7-1.4l-.9-1.2c-.3-.3-.7-.6-1.1-.8-.4-.2-.9-.3-1.3-.3-.5 0-.9.1-1.3.3l-.6.3c-.4.2-.8.5-1.2.8-.6.5-1.1 1-1.6 1.4-.8.7-1.7 1.2-2.6 1.7-.2.1-.5.2-.7.3-.5.2-1 .4-1.5.5-.5.1-1 .3-1.5.3s-1 .1-1.5.1-1 0-1.5-.1c-.3 0-.5-.1-.8-.1-.5-.1-1-.2-1.5-.4-.3-.1-.6-.2-.9-.4-.7-.4-1.4-.9-2-1.4l-.3-.3c-1.5-1.5-2.5-3.5-2.7-5.6-.1-.7 0-1.4.1-2.1.3-1.3.9-2.5 1.6-3.6.4-.7.9-1.4 1.3-2 2.9-4.6 5-10.2 4.4-15.4-.1-.3-.1-.7-.2-1 0-.2-.1-.5-.2-.7-.2-.8-.5-1.6-.8-2.3-.2-.4-.3-.8-.6-1.2-.3-.5-.7-1.3-1.1-2-.3-.5-.6-.9-.9-1.4-.1-.1-.2-.3-.3-.4-.2-.3-.5-.7-.7-1l-.3-.3c-.3-.4-.6-.8-1-1.2-.1-.1-.2-.3-.3-.4-.2-.2-.4-.5-.6-.7l-.5-.5-.5-.5c-.4-.4-.8-.9-1.2-1.2-.8-.7-1.5-1.3-2-1.8zM149.1 137.5l-20-20.1-5.9-5.9-19.6 19.6s20.2 21.8 4 38.1c0 0-5.9 5.9-15.8 12.9 0 0-30.1 18.9-19 31.9 12.9 11 31.8-19.1 31.8-19.1 7-9.9 13-15.8 13-15.8 16.3-16.3 38.1 4 38.1 4l19.6-19.6-6.1-6.1-20.1-19.9z"/><path fill="#83D4F0" d="M243.4 103.4l-52.2-52.2-7.9-8c-2.1-2.1-5.7-1.9-7.5.4l-3.3 4.2-43.5 55.6-5.9-5.9-7 7-19.6 19.6-6.7 6.7 6.4 6.9c.5.6 13.6 15.1 4.2 24.4-.1.1-5.5 5.4-14.3 11.7-4.4 2.8-23.3 15.7-25.6 30.6-.9 5.8.7 11.3 4.6 15.8l.5.6.6.5c4.5 3.9 10 5.5 15.8 4.6 14.9-2.3 27.8-21.2 30.6-25.6 6.3-8.9 11.7-14.3 11.7-14.3 2.6-2.6 6.6-5.2 14.5-2 5.6 2.2 9.9 6.1 9.9 6.2l6.9 6.4 6.7-6.7 19.7-19.6 7-7-6-6 45.1-35.5 13.1-10.3h-.1l2-1.6c2-1.5 2.2-4.6.3-6.5M155.5 183s-21.8-20.2-38.1-4c0 0-5.9 5.9-13 15.8 0 0-18.9 30.1-31.8 19.1-11-12.9 19-31.9 19-31.9 9.9-7 15.8-12.9 15.8-12.9 16.3-16.3-4-38.1-4-38.1l19.6-19.6 5.9 5.9 20 20.1 19.9 19.9 6.1 6.1-19.4 19.6zm20.5-32.6l-19.9-19.9-20.1-20.1 43.2-55.1c1.9 1.8 5.5 5.4 8.2 9.5.4.8.8 1.5 1.1 2l.6 1.2c.3.8.6 1.6.8 2.3.1.2.1.5.2.7.1.3.1.7.2 1 .6 5.2-1.5 10.9-4.4 15.4-1.1 1.8-2.4 3.6-2.8 5.6-.6 2.8.5 5.7 2.5 7.7.9.9 2 1.7 3.2 2.1 3.9 1.4 8.4.3 11.6-2.4 1.4-1.2 2.8-2.8 4.7-2.8 1 0 1.8.4 2.4 1.1 1.3 1.3 2.1 3.7 2.7 5.6.3.9 1.2 2 2.3 3.1 2.8 2.8 7.3 5.7 9.5 6.6l-46 36.4z"/><path fill="#1B446D" d="M243.4 103.4l-52.2-52.2-7.9-8c-2.1-2.1-5.7-1.9-7.5.4l-3.3 4.2-1.2 1.5c2.1 1.4 8.5 5.9 9.8 7.8 1.9 1.9 4.3 4.6 6.2 7.7.4.8.8 1.5 1.1 2l.6 1.2c.3.8.6 1.6.8 2.3.1.2.1.5.2.7.1.3.1.7.2 1 .6 5.2-1.5 10.9-4.4 15.4-1.1 1.8-2.4 3.6-2.8 5.6-.6 2.8.5 5.7 2.5 7.7.9.9 2 1.7 3.2 2.1 3.9 1.4 8.4.3 11.6-2.4 1.4-1.2 2.8-2.8 4.7-2.8 1 0 1.8.4 2.4 1.1 1.3 1.3 2.1 3.7 2.7 5.6.3.9 1.2 2 2.3 3.1 2.1 2.1 5.1 4.2 7.4 5.6.1.1.2.1.3.2.1.1.2.1.3.1.3.2.7.3 1.1.5.1.1.3.1.4.2 2.7 1.3 7 2.9 12 3.1l7.2-5.7h-.1l2-1.6c2.1-1.4 2.3-4.5.4-6.4z"/></svg>