<?xml version="1.0" encoding="utf-8"?>
<!-- Generator: Adobe Illustrator 17.1.0, SVG Export Plug-In . SVG Version: 6.00 Build 0)  -->
<!DOCTYPE svg PUBLIC "-//W3C//DTD SVG 1.1//EN" "http://www.w3.org/Graphics/SVG/1.1/DTD/svg11.dtd">
<svg version="1.1" id="Layer_1" xmlns="http://www.w3.org/2000/svg" xmlns:xlink="http://www.w3.org/1999/xlink" x="0px" y="0px"
	 viewBox="0 0 301 274" enable-background="new 0 0 301 274" xml:space="preserve">
<g>
	<g>
		<g>
			<path fill="#FFFFFF" d="M142.5,217.5c-2.3,0-4.4-1.4-5.2-3.6l-7-18.8c-2.3-0.8-4.6-1.7-6.8-2.8l-18.2,8.3
				c-0.7,0.3-1.5,0.5-2.3,0.5c-1.4,0-2.8-0.6-3.9-1.6l-11.3-11.3c-1.6-1.6-2.1-4.1-1.1-6.2l8.4-18.2c-1.1-2.2-2-4.4-2.8-6.8l-18.8-7
				c-2.2-0.8-3.6-2.9-3.6-5.2v-16c0-2.3,1.4-4.4,3.6-5.2l18.8-7c0.8-2.3,1.7-4.6,2.8-6.8l-8.4-18.2c-1-2.1-0.5-4.6,1.1-6.2
				l11.3-11.3c1.1-1.1,2.5-1.6,3.9-1.6c0.8,0,1.6,0.2,2.3,0.5l18.2,8.4c2.2-1.1,4.4-2,6.8-2.8l7-18.8c0.8-2.2,2.9-3.6,5.2-3.6h16
				c2.3,0,4.4,1.4,5.2,3.6l7,18.8c2.3,0.8,4.6,1.7,6.8,2.8l18.2-8.4c0.7-0.3,1.5-0.5,2.3-0.5c1.4,0,2.8,0.6,3.9,1.6l11.3,11.3
				c1.6,1.6,2.1,4.1,1.1,6.2l-8.4,18.2c1.1,2.2,2,4.4,2.8,6.8l18.8,7c2.2,0.8,3.6,2.9,3.6,5.2v16c0,2.3-1.4,4.4-3.6,5.2l-18.8,7
				c-0.8,2.3-1.7,4.6-2.8,6.8l8.4,18.2c1,2.1,0.5,4.6-1.1,6.2l-11.3,11.3c-1.1,1.1-2.5,1.6-3.9,1.6c-0.8,0-1.6-0.2-2.3-0.5
				l-18.2-8.3c-2.2,1.1-4.4,2-6.8,2.8l-7,18.8c-0.8,2.2-2.9,3.6-5.2,3.6H142.5z M150.5,106.3c-17,0-30.8,13.8-30.8,30.8
				s13.8,30.8,30.8,30.8s30.8-13.8,30.8-30.8S167.5,106.3,150.5,106.3z"/>
		</g>
		<g>
			<path fill="#83D4F0" d="M158.5,62l7.9,21.3c3.8,1.1,7.4,2.6,10.8,4.5l20.6-9.5l5.7,5.7l5.7,5.7l-9.5,20.6c1.9,3.4,3.4,7,4.5,10.8
				l21.3,7.9v8v8l-21.3,7.9c-1.1,3.8-2.6,7.4-4.5,10.8l9.5,20.6l-5.7,5.7l-5.7,5.7l-20.6-9.5c-3.4,1.9-7,3.4-10.8,4.5l-7.9,21.3h-8
				h-8l-7.9-21.3c-3.8-1.1-7.4-2.6-10.8-4.5l-20.6,9.5l-5.7-5.7l-5.7-5.7l9.5-20.6c-1.9-3.4-3.4-7-4.5-10.8L75.5,145v-8v-8l21.3-7.9
				c1.1-3.8,2.6-7.4,4.5-10.8l-9.5-20.6l5.7-5.7l5.7-5.7l20.6,9.5c3.4-1.9,7-3.4,10.8-4.5l7.9-21.3h8H158.5 M150.5,173.2
				c20,0,36.2-16.3,36.2-36.2c0-20-16.3-36.2-36.2-36.2S114.2,117,114.2,137C114.2,157,130.5,173.2,150.5,173.2 M158.5,51h-8h-8
				c-4.6,0-8.7,2.9-10.3,7.2l-6.1,16.4c-0.8,0.3-1.7,0.7-2.5,1l-15.9-7.3c-1.5-0.7-3-1-4.6-1c-2.9,0-5.7,1.1-7.8,3.2l-5.7,5.7
				L84,81.8c-3.3,3.3-4.1,8.2-2.2,12.4l7.3,15.9c-0.4,0.8-0.7,1.6-1,2.5l-16.4,6.1c-4.3,1.6-7.2,5.7-7.2,10.3v8v8
				c0,4.6,2.9,8.7,7.2,10.3l16.4,6.1c0.3,0.8,0.7,1.7,1,2.5l-7.3,15.9c-1.9,4.2-1,9.1,2.2,12.4l5.7,5.7l5.7,5.7
				c2.1,2.1,4.9,3.2,7.8,3.2c1.6,0,3.1-0.3,4.6-1l15.9-7.3c0.8,0.4,1.6,0.7,2.5,1l6.1,16.4c1.6,4.3,5.7,7.2,10.3,7.2h8h8
				c4.6,0,8.7-2.9,10.3-7.2l6.1-16.4c0.8-0.3,1.7-0.7,2.5-1l15.9,7.3c1.5,0.7,3,1,4.6,1c2.9,0,5.7-1.1,7.8-3.2l5.7-5.7l5.7-5.7
				c3.3-3.3,4.1-8.2,2.2-12.4l-7.3-15.9c0.4-0.8,0.7-1.6,1-2.5l16.4-6.1c4.3-1.6,7.2-5.7,7.2-10.3v-8v-8c0-4.6-2.9-8.7-7.2-10.3
				l-16.4-6.1c-0.3-0.8-0.7-1.7-1-2.5l7.3-15.9c1.9-4.2,1-9.1-2.2-12.4l-5.7-5.7l-5.7-5.7c-2.1-2.1-4.9-3.2-7.8-3.2
				c-1.6,0-3.1,0.3-4.6,1l-15.9,7.3c-0.8-0.4-1.6-0.7-2.5-1l-6.1-16.4C167.2,53.9,163.1,51,158.5,51L158.5,51z M150.5,162.2
				c-13.9,0-25.2-11.3-25.2-25.2s11.3-25.2,25.2-25.2s25.2,11.3,25.2,25.2S164.4,162.2,150.5,162.2L150.5,162.2z"/>
		</g>
	</g>
</g>
<g>
	<path fill="#FFFFFF" d="M150.5,113c-13.2,0-24,10.8-24,24s10.8,24,24,24s24-10.8,24-24S163.7,113,150.5,113z"/>
	<g>
		<path fill="#1B446D" d="M158.5,62l7.9,21.3c3.8,1.1,7.4,2.6,10.8,4.5l20.6-9.5l5.7,5.7l5.7,5.7l-9.5,20.6c1.9,3.4,3.4,7,4.5,10.8
			l21.3,7.9v8v8l-21.3,7.9c-1.1,3.8-2.6,7.4-4.5,10.8l9.5,20.6l-5.7,5.7l-5.7,5.7l-20.6-9.5c-3.4,1.9-7,3.4-10.8,4.5l-7.9,21.3h-8
			h-8l-7.9-21.3c-3.8-1.1-7.4-2.6-10.8-4.5l-20.6,9.5l-5.7-5.7l-5.7-5.7l9.5-20.6c-1.9-3.4-3.4-7-4.5-10.8L75.5,145v-8v-8l21.3-7.9
			c1.1-3.8,2.6-7.4,4.5-10.8l-9.5-20.6l5.7-5.7l5.7-5.7l20.6,9.5c3.4-1.9,7-3.4,10.8-4.5l7.9-21.3h8H158.5 M150.5,173.2
			c20,0,36.2-16.3,36.2-36.2s-16.3-36.2-36.2-36.2S114.2,117,114.2,137S130.5,173.2,150.5,173.2 M158.5,51h-8h-8
			c-4.6,0-8.7,2.9-10.3,7.2l-6.1,16.4c-0.8,0.3-1.7,0.7-2.5,1l-15.9-7.3c-1.5-0.7-3-1-4.6-1c-2.9,0-5.7,1.1-7.8,3.2l-5.7,5.7
			L84,81.8c-3.3,3.3-4.1,8.2-2.2,12.4l7.3,15.9c-0.4,0.8-0.7,1.6-1,2.5l-16.4,6.1c-4.3,1.6-7.2,5.7-7.2,10.3v8v8
			c0,4.6,2.9,8.7,7.2,10.3l16.4,6.1c0.3,0.8,0.7,1.7,1,2.5l-7.3,15.9c-1.9,4.2-1,9.1,2.2,12.4l5.7,5.7l5.7,5.7
			c2.1,2.1,4.9,3.2,7.8,3.2c1.6,0,3.1-0.3,4.6-1l15.9-7.3c0.8,0.4,1.6,0.7,2.5,1l6.1,16.4c1.6,4.3,5.7,7.2,10.3,7.2h8h8
			c4.6,0,8.7-2.9,10.3-7.2l6.1-16.4c0.8-0.3,1.7-0.7,2.5-1l15.9,7.3c1.5,0.7,3,1,4.6,1c2.9,0,5.7-1.1,7.8-3.2l5.7-5.7l5.7-5.7
			c3.3-3.3,4.1-8.2,2.2-12.4l-7.3-15.9c0.4-0.8,0.7-1.6,1-2.5l16.4-6.1c4.3-1.6,7.2-5.7,7.2-10.3v-8v-8c0-4.6-2.9-8.7-7.2-10.3
			l-16.4-6.1c-0.3-0.8-0.7-1.7-1-2.5l7.3-15.9c1.9-4.2,1-9.1-2.2-12.4l-5.7-5.7l-5.7-5.7c-2.1-2.1-4.9-3.2-7.8-3.2
			c-1.6,0-3.1,0.3-4.6,1l-15.9,7.3c-0.8-0.4-1.6-0.7-2.5-1l-6.1-16.4C167.2,53.9,163.1,51,158.5,51L158.5,51z M150.5,162.2
			c-13.9,0-25.2-11.3-25.2-25.2s11.3-25.2,25.2-25.2s25.2,11.3,25.2,25.2S164.4,162.2,150.5,162.2L150.5,162.2z"/>
	</g>
	<path fill="#1B446D" d="M150.5,100.7c-20,0-36.2,16.3-36.2,36.3s16.3,36.2,36.2,36.2s36.2-16.3,36.2-36.2S170.5,100.7,150.5,100.7z
		 M150.5,161c-13.2,0-24-10.8-24-24s10.8-24,24-24s24,10.8,24,24S163.7,161,150.5,161z"/>
</g>
</svg>
