<svg xmlns="http://www.w3.org/2000/svg" viewBox="0 0 936 576"><path fill="#FFF" d="M468 102.6c-17.2 14.1-60.3 39.4-160.6 58.1-.9 18.3-1.1 62.5 12.4 113.3 22.9 86 72.8 150.3 148.2 191.1C543.4 424.3 593.2 360 616.2 274c13.5-50.7 13.3-95 12.4-113.3-100.3-18.7-143.4-44-160.6-58.1z"/><path fill="#83D4F0" d="M642.3 138.3C510.6 115.1 480 80.7 478.1 78.4c-2.2-3.6-5.8-5.8-10.1-5.8-4.2 0-7.8 2.2-10.1 5.8-1.9 2.3-32.6 36.7-164.2 59.9-5.3.9-9.4 5.3-10 10.7-.3 2.4-6.4 59.7 12.3 130.4 17.3 65.7 60.3 155.5 166.4 210.4 1.8.9 3.7 1.4 5.6 1.4s3.9-.5 5.6-1.4C579.7 434.8 622.7 345 640 279.3c18.7-70.8 12.5-128 12.3-130.4-.6-5.4-4.7-9.7-10-10.6zm-26.1 135.6c-22.9 86-72.8 150.3-148.2 191.1-75.4-40.8-125.2-105.1-148.2-191.1-13.5-50.8-13.3-95-12.4-113.3 100.3-18.6 143.4-43.9 160.6-58 17.2 14.1 60.3 39.4 160.6 58.1.9 18.3 1.1 62.5-12.4 113.2z"/><g><path fill="#FFF" d="M435.5 348.3V216.1s85.7-6 85.7 66.1c0 0 3.8 66.1-85.7 66.1z"/><path fill="#1B446D" d="M435.5 360.5c-6.8 0-12.2-5.5-12.2-12.2V216.1c0-6.4 5-11.8 11.4-12.2.2 0 2.3-.2 5.6-.2 45 0 93 20.6 93.2 78.2.1 3.9.2 29.9-19.9 51.2-17.3 18.2-43.5 27.4-78.1 27.4zm12.2-132.1v107.2c21.2-1.7 37.2-8.1 47.7-19 14.1-14.7 13.5-33 13.5-33.8v-.6c0-43.5-38.3-52.4-61.2-53.8z"/></g></svg>