<?xml version="1.0" encoding="utf-8"?>
<!-- Generator: Adobe Illustrator 17.1.0, SVG Export Plug-In . SVG Version: 6.00 Build 0)  -->
<!DOCTYPE svg PUBLIC "-//W3C//DTD SVG 1.1//EN" "http://www.w3.org/Graphics/SVG/1.1/DTD/svg11.dtd">
<svg version="1.1" id="Layer_1" xmlns="http://www.w3.org/2000/svg" xmlns:xlink="http://www.w3.org/1999/xlink" x="0px" y="0px"
	 viewBox="0 0 301 274" enable-background="new 0 0 301 274" xml:space="preserve">
<g>
	<path fill="none" stroke="#83D4F0" stroke-width="11" stroke-linecap="round" stroke-linejoin="round" stroke-miterlimit="10" d="
		M208.9,108c0,0,32.2-9.5,32.2,32.7c0,0,2.3,43.7-34,32"/>
	<g>
		
			<path fill="#FFFFFF" stroke="#83D4F0" stroke-width="11" stroke-linecap="round" stroke-linejoin="round" stroke-miterlimit="10" d="
			M205.5,73H95.5c-4.2,0-7.3,3.8-6.6,7.9c3.4,19.4,5.2,40.8,5.2,63.3s-1.9,43.8-5.2,63.3c-0.7,4.1,2.5,7.9,6.6,7.9h109.9
			c4.2,0,7.3-3.8,6.6-7.9c-3.4-19.4-5.2-40.8-5.2-63.3s1.9-43.8,5.2-63.3C212.8,76.8,209.6,73,205.5,73z"/>
	</g>
	<path fill="#1B446D" d="M170.2,128.8h-12.6c2.9-8.1,5.7-15.9,8.6-23.8c0.7-2-0.8-4.1-2.9-4.1h-25.4c-1.4,0-2.7,1-3,2.4
		c-1.1,4.9-2,9.9-2.9,14.9c-1.3,7.1-2.7,14.3-4.1,21.8c-0.4,2.1,1.2,4.1,3.4,4.1h12.3c-3.3,14.9-6.4,29.2-9.6,43.5
		c-0.2,0.9,1,1.4,1.5,0.7c8.5-12.1,37.1-54.9,37.1-54.9C173.9,131.4,172.5,128.8,170.2,128.8z"/>
	
		<line fill="#FFFFFF" stroke="#1B446D" stroke-width="11" stroke-linecap="round" stroke-linejoin="round" stroke-miterlimit="10" x1="112.9" y1="41.6" x2="112.9" y2="50.8"/>
	
		<line fill="#FFFFFF" stroke="#1B446D" stroke-width="11" stroke-linecap="round" stroke-linejoin="round" stroke-miterlimit="10" x1="148.4" y1="30.8" x2="148.4" y2="50.8"/>
	
		<line fill="#FFFFFF" stroke="#1B446D" stroke-width="11" stroke-linecap="round" stroke-linejoin="round" stroke-miterlimit="10" x1="183.9" y1="41.6" x2="183.9" y2="50.8"/>
</g>
</svg>
