<svg xmlns="http://www.w3.org/2000/svg" viewBox="0 0 301 274"><g fill="none" stroke="#83D4F0" stroke-width="11" stroke-linecap="round" stroke-miterlimit="10"><path d="M59.1 143.2l.1-.1"/><path stroke-dasharray="9.489019e-02,23.7225" d="M73.8 124.5l7.4-9.4"/><path d="M88.5 105.8l.1-.1"/></g><path fill="#FFF" d="M109.9 86.7c-2.9 0-5.6-.9-8-2.6-2.9-2.1-4.8-5.3-5.4-8.8-.6-3.6.3-7.1 2.4-10 2.5-3.5 6.6-5.5 10.9-5.5 2.9 0 5.6.9 8 2.6 2.9 2.1 4.8 5.3 5.4 8.8.6 3.6-.3 7.1-2.4 10-2.6 3.4-6.6 5.5-10.9 5.5z"/><path fill="#1B446D" d="M109.9 65.2c1.6 0 3.3.5 4.7 1.5 3.6 2.6 4.3 7.6 1.7 11.2-1.6 2.1-4 3.3-6.5 3.3-1.6 0-3.3-.5-4.7-1.5-3.6-2.6-4.3-7.6-1.7-11.2 1.6-2.2 4-3.3 6.5-3.3m0-11c-6 0-11.8 2.9-15.3 7.8-6.2 8.4-4.3 20.4 4.1 26.5 3.3 2.4 7.2 3.7 11.2 3.7 6 0 11.8-2.9 15.3-7.8 6.2-8.4 4.3-20.4-4.1-26.5-3.3-2.4-7.1-3.7-11.2-3.7z"/><path fill="#FFF" d="M183.2 184.4c-2.9 0-5.6-.9-8-2.6-2.9-2.1-4.8-5.3-5.4-8.8s.3-7.1 2.4-10c2.5-3.5 6.6-5.5 10.9-5.5 2.9 0 5.6.9 8 2.6 2.9 2.1 4.8 5.3 5.4 8.8.6 3.6-.3 7.1-2.4 10-2.5 3.5-6.6 5.5-10.9 5.5z"/><path fill="#1B446D" d="M183.2 163c1.6 0 3.3.5 4.7 1.5 3.6 2.6 4.3 7.6 1.7 11.2-1.6 2.1-4 3.3-6.5 3.3-1.6 0-3.3-.5-4.7-1.5-3.6-2.6-4.3-7.6-1.7-11.2 1.6-2.2 4-3.3 6.5-3.3m0-11c-6 0-11.8 2.9-15.3 7.8-6.2 8.4-4.3 20.4 4.1 26.5 3.3 2.4 7.2 3.7 11.2 3.7 6 0 11.8-2.9 15.3-7.8 3-4.1 4.2-9.1 3.4-14.1-.8-5-3.5-9.4-7.5-12.4-3.3-2.5-7.1-3.7-11.2-3.7z"/><path fill="#FFF" d="M254.3 111.5c-2.9 0-5.6-.9-8-2.6-2.9-2.1-4.8-5.3-5.4-8.8-.6-3.6.3-7.1 2.4-10 2.5-3.5 6.6-5.5 10.9-5.5 2.9 0 5.6.9 8 2.6 2.9 2.1 4.8 5.3 5.4 8.8s-.3 7.1-2.4 10c-2.5 3.4-6.6 5.5-10.9 5.5z"/><path fill="#1B446D" d="M254.3 90c1.6 0 3.3.5 4.7 1.5 3.6 2.6 4.3 7.6 1.7 11.2-1.6 2.1-4 3.3-6.5 3.3-1.6 0-3.3-.5-4.7-1.5-3.6-2.6-4.3-7.6-1.7-11.2 1.6-2.2 4-3.3 6.5-3.3m0-11c-6 0-11.8 2.9-15.3 7.8-6.2 8.4-4.3 20.4 4.1 26.5 3.3 2.4 7.2 3.7 11.2 3.7 6 0 11.8-2.9 15.3-7.8 6.2-8.4 4.3-20.4-4.1-26.5-3.3-2.4-7.1-3.7-11.2-3.7z"/><path fill="#FFF" d="M40.7 183.4c-2.9 0-5.6-.9-8-2.6-2.9-2.1-4.8-5.3-5.4-8.8-.6-3.6.3-7.1 2.4-10 2.5-3.5 6.6-5.5 10.9-5.5 2.9 0 5.6.9 8 2.6 2.9 2.1 4.8 5.3 5.4 8.8.6 3.6-.3 7.1-2.4 10-2.5 3.5-6.6 5.5-10.9 5.5z"/><path fill="#1B446D" d="M40.7 161.9c1.6 0 3.3.5 4.7 1.5 3.6 2.6 4.3 7.6 1.7 11.2-1.6 2.1-4 3.3-6.5 3.3-1.6 0-3.3-.5-4.7-1.5-3.6-2.6-4.3-7.6-1.7-11.2 1.6-2.1 4-3.3 6.5-3.3m0-11c-6 0-11.8 2.9-15.3 7.8-3 4.1-4.2 9.1-3.4 14.1.8 5 3.5 9.4 7.5 12.4 3.3 2.4 7.2 3.7 11.2 3.7 6 0 11.8-2.9 15.3-7.8 6.2-8.4 4.3-20.4-4.1-26.5-3.3-2.4-7.1-3.7-11.2-3.7z"/><path fill="none" stroke="#83D4F0" stroke-width="9" stroke-linecap="round" stroke-linejoin="round" stroke-miterlimit="10" d="M216.7 120.9l15.3.1v15"/><g><g fill="none" stroke="#83D4F0" stroke-width="11" stroke-linecap="round" stroke-miterlimit="10"><path d="M131 105.7l.1.1"/><path stroke-dasharray="8.950650e-02,22.3766" d="M144.9 123.4l7 8.8"/><path d="M158.8 141v.1"/></g></g><circle fill="#83D4F0" cx="209.5" cy="142.2" r="5.2"/></svg>