<svg xmlns="http://www.w3.org/2000/svg" viewBox="0 0 936 576"><path fill="#FFF" d="M676.7 422.3H291.3c-18.4 0-33.2-14.9-33.2-33.2V149.6c0-18.4 14.9-33.2 33.2-33.2h385.4c18.4 0 33.2 14.9 33.2 33.2v239.5c0 18.3-14.9 33.2-33.2 33.2z"/><path fill="#83D4F0" d="M722.9 372.7H245v-204h477.9v204zm-451.7-26h425.6v-152H271.2v152z"/><path fill="#1B446D" d="M473.7 257.7h-45.5v-35.2c0-6-4.8-10.8-10.8-10.8h-1.1c-6 0-10.8 4.8-10.8 10.8v95.9c0 6 4.8 10.8 10.8 10.8h1.1c6 0 10.8-4.8 10.8-10.8v-38.8h45.5v38.8c0 6 4.8 10.8 10.8 10.8h1.1c6 0 10.8-4.8 10.8-10.8v-95.9c0-6-4.8-10.8-10.8-10.8h-1.1c-6 0-10.8 4.8-10.8 10.8v35.2zM521.8 329.1h.2c6 0 10.8-4.8 10.8-10.8v-59.6c0-6-4.8-10.8-10.8-10.8h-.2c-6 0-10.8 4.8-10.8 10.8v59.6c0 6 4.8 10.8 10.8 10.8zM521.9 214.3c-3.6 0-6.8 1.3-9.3 3.8-2.5 2.5-3.8 5.7-3.8 9.3 0 3.6 1.3 6.8 3.8 9.3 2.5 2.5 5.7 3.8 9.3 3.8 3.6 0 6.8-1.3 9.3-3.8 2.5-2.5 3.8-5.7 3.8-9.3 0-3.6-1.3-6.8-3.8-9.3-2.5-2.5-5.7-3.8-9.3-3.8zM567.1 211.6h-.2c-6 0-10.8 4.8-10.8 10.8v56.4c0 6 4.8 10.8 10.8 10.8h.2c6 0 10.8-4.8 10.8-10.8v-56.4c0-6-4.9-10.8-10.8-10.8zM576.6 306.8c-2.6-2.6-5.9-4-9.6-4-3.7 0-7 1.4-9.6 4-2.6 2.6-4 5.9-4 9.6 0 3.7 1.4 7 4 9.6 2.6 2.6 5.9 4 9.6 4 3.7 0 7-1.4 9.6-4 2.6-2.6 4-5.9 4-9.6-.1-3.7-1.4-7-4-9.6z"/><path fill="#83D4F0" d="M676.7 435.3H291.3c-25.5 0-46.2-20.7-46.2-46.2V149.6c0-25.5 20.7-46.2 46.2-46.2h385.4c25.5 0 46.2 20.7 46.2 46.2v239.5c0 25.5-20.7 46.2-46.2 46.2zm-385.4-306c-11.2 0-20.2 9.1-20.2 20.2V389c0 11.2 9.1 20.2 20.2 20.2h385.4c11.2 0 20.2-9.1 20.2-20.2V149.6c0-11.2-9.1-20.2-20.2-20.2H291.3z"/></svg>