<svg xmlns="http://www.w3.org/2000/svg" viewBox="0 0 936 576"><path fill="#FFF" d="M613.1 115.1c-12.7-5.9-26.6-8.9-41.3-8.9-39.8 0-76.9 22.2-92.2 55.4-2.1 4.5-6.6 7.4-11.6 7.4s-9.5-2.9-11.6-7.4c-15.4-33.1-52.4-55.4-92.2-55.4-14.7 0-28.6 3-41.3 8.9-24.8 11.5-42.8 31.4-50.7 55.9-9.8 30.4-4 65.9 16.6 102.4 30 53.3 85.2 96 176.6 166.8l2.5 1.9 2.3-1.8c91.6-70.9 146.8-113.6 176.9-166.9 20.7-36.6 26.4-72 16.6-102.4-7.8-24.5-25.8-44.4-50.6-55.9z"/><path fill="#1B446D" d="M623.8 92c-16.1-7.4-33.6-11.2-52-11.2-41.5 0-80.7 19.7-103.8 50.8-23.1-31-62.3-50.8-103.8-50.8-18.4 0-35.9 3.8-52 11.2-31.3 14.5-54.1 39.8-64.2 71.3-8.4 26.1-11.9 68.5 18.7 122.7 32.6 57.8 89.3 101.7 183.2 174.4l10.3 8c2.3 1.8 5 2.7 7.8 2.7s5.5-.9 7.8-2.7l10.1-7.8C580 387.8 636.7 343.8 669.3 286c30.6-54.2 27.1-96.7 18.7-122.7-10.1-31.4-32.9-56.7-64.2-71.3zm23.3 181.5c-30.1 53.3-85.3 96.1-176.9 166.9l-2.3 1.8-2.5-1.9C374 369.5 318.8 326.8 288.8 273.5c-20.7-36.5-26.4-72-16.6-102.4 7.9-24.6 25.9-44.4 50.7-55.9 12.7-5.9 26.6-8.9 41.3-8.9 39.8 0 76.9 22.2 92.2 55.4 2.1 4.5 6.6 7.4 11.6 7.4s9.5-2.9 11.6-7.4c15.4-33.1 52.4-55.4 92.2-55.4 14.7 0 28.6 3 41.3 8.9 24.8 11.5 42.8 31.4 50.7 55.9 9.8 30.4 4 65.8-16.7 102.4z"/><path fill="#FFF" d="M432.8 342.2V202.9s90.2-6.3 90.2 69.6c0 0 4 69.7-90.2 69.7z"/><path fill="#1B446D" d="M432.8 355.1c-7.1 0-12.9-5.8-12.9-12.9V202.9c0-6.8 5.2-12.4 12-12.9.2 0 2.4-.2 5.9-.2 47.4 0 98 21.7 98.1 82.4.1 4.1.2 31.5-21 53.9-18 19.2-45.7 29-82.1 29zm12.9-139.2v112.9c22.5-1.8 39.5-8.6 50.5-20.3 14.7-15.5 14-35 14-35.2v-.7c-.1-45.9-40.4-55.2-64.5-56.7z"/></svg>