<?xml version="1.0" encoding="utf-8"?>
<!-- Generator: Adobe Illustrator 17.1.0, SVG Export Plug-In . SVG Version: 6.00 Build 0)  -->
<!DOCTYPE svg PUBLIC "-//W3C//DTD SVG 1.1//EN" "http://www.w3.org/Graphics/SVG/1.1/DTD/svg11.dtd">
<svg version="1.1" id="Layer_1" xmlns="http://www.w3.org/2000/svg" xmlns:xlink="http://www.w3.org/1999/xlink" x="0px" y="0px"
	 viewBox="0 0 301 274" enable-background="new 0 0 301 274" xml:space="preserve">
<path fill="#FFFFFF" stroke="#FFFFFF" stroke-width="6" stroke-miterlimit="10" d="M179.2,55.5L136,110.5l20.1,20.1l19.9,19.9
	l46-36.2c-0.4-0.2-0.9-0.4-1.5-0.7c0,0,0,0,0,0c-0.1,0-0.2-0.1-0.3-0.1c0,0,0,0,0,0c-0.1-0.1-0.2-0.1-0.3-0.2c0,0,0,0,0,0
	c-0.3-0.2-0.7-0.4-1-0.6c-0.1-0.1-0.3-0.2-0.4-0.3c-0.2-0.2-0.5-0.3-0.8-0.5c-0.1-0.1-0.3-0.2-0.4-0.3c-0.3-0.2-0.7-0.5-1-0.7
	c-0.1,0-0.1-0.1-0.2-0.1c-0.4-0.3-0.8-0.6-1.1-0.9c-0.1-0.1-0.2-0.2-0.3-0.3c-0.3-0.2-0.6-0.5-0.8-0.7c-0.1-0.1-0.2-0.2-0.3-0.3
	c-0.4-0.3-0.7-0.6-1-0.9c-0.1-0.1-0.3-0.3-0.4-0.4c-0.9-1-1.6-1.9-1.9-2.7c-0.2-0.7-0.5-1.5-0.8-2.3c-0.1-0.3-0.2-0.5-0.3-0.8
	c-0.2-0.5-0.5-1-0.7-1.4c-0.3-0.4-0.6-0.8-0.9-1.2c-0.3-0.3-0.7-0.6-1.1-0.8c-0.4-0.2-0.9-0.3-1.3-0.3c-0.5,0-0.9,0.1-1.3,0.3
	c-0.2,0.1-0.4,0.2-0.6,0.3c-0.4,0.2-0.8,0.5-1.2,0.8c-0.6,0.5-1.1,1-1.6,1.4c-0.8,0.7-1.7,1.2-2.6,1.7c-0.2,0.1-0.5,0.2-0.7,0.3
	c-0.5,0.2-1,0.4-1.5,0.5c-0.5,0.1-1,0.3-1.5,0.3s-1,0.1-1.5,0.1s-1,0-1.5-0.1c-0.3,0-0.5-0.1-0.8-0.1c-0.5-0.1-1-0.2-1.5-0.4
	c-0.3-0.1-0.6-0.2-0.9-0.4c-0.7-0.4-1.4-0.9-2-1.4c-0.1-0.1-0.2-0.2-0.3-0.3c-1.5-1.5-2.5-3.5-2.7-5.6c-0.1-0.7,0-1.4,0.1-2.1
	c0.3-1.3,0.9-2.5,1.6-3.6c0.4-0.7,0.9-1.4,1.3-2c2.9-4.6,5-10.2,4.4-15.4c-0.1-0.3-0.1-0.7-0.2-1c0-0.2-0.1-0.5-0.2-0.7
	c-0.2-0.8-0.5-1.6-0.8-2.3c-0.2-0.4-0.3-0.8-0.6-1.2c-0.3-0.5-0.7-1.3-1.1-2c-0.3-0.5-0.6-0.9-0.9-1.4c-0.1-0.1-0.2-0.3-0.3-0.4
	c-0.2-0.3-0.5-0.7-0.7-1c-0.1-0.1-0.2-0.2-0.3-0.3c-0.3-0.4-0.6-0.8-1-1.2c-0.1-0.1-0.2-0.3-0.3-0.4c-0.2-0.2-0.4-0.5-0.6-0.7
	c-0.2-0.2-0.3-0.3-0.5-0.5c-0.2-0.2-0.3-0.3-0.5-0.5c-0.4-0.4-0.8-0.9-1.2-1.2C180.4,56.6,179.7,56,179.2,55.5z"/>
<path fill="#FFFFFF" stroke="#FFFFFF" stroke-width="6" stroke-miterlimit="10" d="M149.1,137.5l-20-20.1l-5.9-5.9l-19.6,19.6
	c0,0,20.2,21.8,4,38.1c0,0-5.9,5.9-15.8,12.9c0,0-30.1,18.9-19,31.9c12.9,11,31.8-19.1,31.8-19.1c7-9.9,13-15.8,13-15.8
	c16.3-16.3,38.1,4,38.1,4l19.6-19.6l-6.1-6.1L149.1,137.5z"/>
<g>
	<g>
		<path fill="#1B446D" d="M243.4,103.4l-52.2-52.2l-7.9-8c-2.1-2.1-5.7-1.9-7.5,0.4l-3.3,4.2L129,103.4l-5.9-5.9l-7,7l-19.6,19.6
			l-6.7,6.7l6.4,6.9c0.5,0.6,13.6,15.1,4.2,24.4c-0.1,0.1-5.5,5.4-14.3,11.7c-4.4,2.8-23.3,15.7-25.6,30.6
			c-0.9,5.8,0.7,11.3,4.6,15.8l0.5,0.6l0.6,0.5c4.5,3.9,10,5.5,15.8,4.6c14.9-2.3,27.8-21.2,30.6-25.6c6.3-8.9,11.7-14.3,11.7-14.3
			c2.6-2.6,6.6-5.2,14.5-2c5.6,2.2,9.9,6.1,9.9,6.2l6.9,6.4l6.7-6.7l19.7-19.6l7-7l-6-6l45.1-35.5l13.1-10.3l-0.1,0l2-1.6
			C245.1,108.4,245.3,105.3,243.4,103.4 M155.5,183c0,0-21.8-20.2-38.1-4c0,0-5.9,5.9-13,15.8c0,0-18.9,30.1-31.8,19.1
			c-11-12.9,19-31.9,19-31.9c9.9-7,15.8-12.9,15.8-12.9c16.3-16.3-4-38.1-4-38.1l19.6-19.6l5.9,5.9l20,20.1l19.9,19.9l6.1,6.1
			L155.5,183z M176,150.4l-19.9-19.9L136,110.4l43.2-55.1c1.9,1.8,5.5,5.4,8.2,9.5c0.4,0.8,0.8,1.5,1.1,2c0.2,0.4,0.4,0.8,0.6,1.2
			c0.3,0.8,0.6,1.6,0.8,2.3c0.1,0.2,0.1,0.5,0.2,0.7c0.1,0.3,0.1,0.7,0.2,1c0.6,5.2-1.5,10.9-4.4,15.4c-1.1,1.8-2.4,3.6-2.8,5.6
			c-0.6,2.8,0.5,5.7,2.5,7.7c0.9,0.9,2,1.7,3.2,2.1c3.9,1.4,8.4,0.3,11.6-2.4c1.4-1.2,2.8-2.8,4.7-2.8c1,0,1.8,0.4,2.4,1.1
			c1.3,1.3,2.1,3.7,2.7,5.6c0.3,0.9,1.2,2,2.3,3.1c2.8,2.8,7.3,5.7,9.5,6.6L176,150.4z"/>
	</g>
	<path fill="#1B446D" d="M243.4,103.4l-52.2-52.2l-7.9-8c-2.1-2.1-5.7-1.9-7.5,0.4l-3.3,4.2l-1.2,1.5c2.1,1.4,8.5,5.9,9.8,7.8l0,0
		c1.9,1.9,4.3,4.6,6.2,7.7c0.4,0.8,0.8,1.5,1.1,2c0.2,0.4,0.4,0.8,0.6,1.2c0.3,0.8,0.6,1.6,0.8,2.3c0.1,0.2,0.1,0.5,0.2,0.7
		c0.1,0.3,0.1,0.7,0.2,1c0.6,5.2-1.5,10.9-4.4,15.4c-1.1,1.8-2.4,3.6-2.8,5.6c-0.6,2.8,0.5,5.7,2.5,7.7c0.9,0.9,2,1.7,3.2,2.1
		c3.9,1.4,8.4,0.3,11.6-2.4c1.4-1.2,2.8-2.8,4.7-2.8c1,0,1.8,0.4,2.4,1.1c1.3,1.3,2.1,3.7,2.7,5.6c0.3,0.9,1.2,2,2.3,3.1
		c2.1,2.1,5.1,4.2,7.4,5.6c0.1,0.1,0.2,0.1,0.3,0.2c0.1,0.1,0.2,0.1,0.3,0.1c0.3,0.2,0.7,0.3,1.1,0.5c0.1,0.1,0.3,0.1,0.4,0.2l0,0
		c2.7,1.3,7,2.9,12,3.1l7.2-5.7l-0.1,0l2-1.6C245.1,108.4,245.3,105.3,243.4,103.4z"/>
</g>
</svg>
