<svg xmlns="http://www.w3.org/2000/svg" viewBox="0 0 301 274"><path fill="#FFF" stroke="#1B446D" stroke-width="11" stroke-linejoin="round" stroke-miterlimit="10" d="M218.5 52.9l-4.5 2.8C146.1 96.5 81.5 98.5 81.5 98.5v54.6s67.7 2.1 137 45.7c0 0 10-73.2 0-145.9zM46.258 152.842l20.48-10.904 26.413 49.607-20.478 10.904z"/><path fill="#FFF" stroke="#1B446D" stroke-width="11" stroke-miterlimit="10" d="M41.3 153.3h40.1V98.5H41.3c-2.1 0-3.8 1.7-3.8 3.8v47.1c0 2.2 1.7 3.9 3.8 3.9z"/><path fill="none" d="M161.3 105.2s20.6-5.5 41.2-17M196.6 92.6s4.3 33.4 0 66.6"/><path fill="none" stroke="#1B446D" stroke-width="11" stroke-linecap="round" stroke-linejoin="round" stroke-miterlimit="10" d="M254.7 128.7h12.8M246 80.9l11.7-5.3M246 174.5l11.7 5.3"/></svg>