<svg xmlns="http://www.w3.org/2000/svg" viewBox="0 0 301 274"><g fill="#FFF" stroke="#FFF" stroke-width="2" stroke-miterlimit="10"><path d="M172.8 50.2H130c-3.5 0-6.4 2.9-6.4 6.4v7h21.3c3 0 5.5 2.5 5.5 5.5s-2.5 5.5-5.5 5.5h-21.3v12h21.3c3 0 5.5 2.5 5.5 5.5s-2.5 5.5-5.5 5.5h-21.3v15.9h55.7V56.7c-.1-3.6-3-6.5-6.5-6.5zM156.9 208.5c-1.9-.4-3.8-.6-5.8-.6-1.8 0-3.5.2-5.2.4-12.4 2.1-22.3 11.7-24.8 24H181c-2.4-12-12-21.5-24.1-23.8zM123.5 124.6v17.5c0 13.5 9.6 24.7 22.3 27.3 1.8.4 3.6.5 5.5.5s3.7-.2 5.5-.5c12.7-2.6 22.3-13.8 22.3-27.3v-17.5h-55.6z"/></g><path fill="#1B446D" d="M187.7 47.6c-1.9-3.2-4.8-5.7-8.3-7.1-2-.8-4.2-1.3-6.6-1.3H130c-2.3 0-4.5.5-6.6 1.3-3.5 1.4-6.4 3.9-8.3 7.1-1.6 2.6-2.5 5.7-2.5 9v56.9h11V97.6h21.3c3 0 5.5-2.5 5.5-5.5s-2.5-5.5-5.5-5.5h-21.3v-12h21.3c3 0 5.5-2.5 5.5-5.5s-2.5-5.5-5.5-5.5h-21.7c.1-.2.3-.4.4-.6v-6.4c0-3.5 2.9-6.4 6.4-6.4H172.8c3.5 0 6.4 2.9 6.4 6.4v56.9h11V56.6c0-3.3-.9-6.3-2.5-9z"/><g fill="#83D4F0"><path d="M123.5 63.1c-.1.2-.3.4-.4.6h.4v-.6zM209.9 116.4c-.9-1.7-2.7-2.8-4.8-2.8h-107c-2.1 0-3.9 1.1-4.8 2.8-.4.8-.7 1.7-.7 2.7 0 3 2.5 5.5 5.5 5.5h14.4v17.5c0 19.5 14.5 35.8 33.3 38.4v16.7c-4.2.5-8.2 1.7-12 3.4-11.8 5.4-20.9 16.2-23.6 29.5-.7 3.2.2 6.6 2.3 9.1 2.1 2.6 5.2 4 8.5 4h60c3.3 0 6.4-1.5 8.5-4 2.1-2.6 2.9-5.9 2.3-9.2-2.7-13.2-11.6-24-23.3-29.4-3.6-1.7-7.5-2.8-11.6-3.4v-16.8c18.8-2.7 33.3-18.9 33.3-38.4v-17.5h14.9c3 0 5.5-2.5 5.5-5.5 0-.9-.2-1.8-.7-2.6zm-30.7 21.7v4c0 13.5-9.6 24.7-22.3 27.3-1.8.4-3.6.5-5.5.5s-3.7-.2-5.5-.5c-12.7-2.6-22.3-13.8-22.3-27.3v-17.5h55.7v13.5zm-24 94.3h-34.1c2.5-12.3 12.4-21.9 24.8-24 1.7-.3 3.4-.4 5.2-.4 2 0 3.9.2 5.8.6 12.1 2.3 21.7 11.8 24.1 23.9h-25.8z"/></g></svg>