<?xml version="1.0" encoding="utf-8"?>
<!-- Generator: Adobe Illustrator 17.1.0, SVG Export Plug-In . SVG Version: 6.00 Build 0)  -->
<!DOCTYPE svg PUBLIC "-//W3C//DTD SVG 1.1//EN" "http://www.w3.org/Graphics/SVG/1.1/DTD/svg11.dtd">
<svg version="1.1" id="Layer_1" xmlns="http://www.w3.org/2000/svg" xmlns:xlink="http://www.w3.org/1999/xlink" x="0px" y="0px"
	 viewBox="0 0 936 576" enable-background="new 0 0 936 576" xml:space="preserve">
<path fill="#FFFFFF" d="M613.1,115.1c-12.7-5.9-26.6-8.9-41.3-8.9c-39.8,0-76.9,22.2-92.2,55.4c-2.1,4.5-6.6,7.4-11.6,7.4
	s-9.5-2.9-11.6-7.4c-15.4-33.1-52.4-55.4-92.2-55.4c-14.7,0-28.6,3-41.3,8.9c-24.8,11.5-42.8,31.4-50.7,55.9
	c-9.8,30.4-4,65.9,16.6,102.4c30,53.3,85.2,96,176.6,166.8l2.5,1.9l2.3-1.8c91.6-70.9,146.8-113.6,176.9-166.9
	c20.7-36.6,26.4-72,16.6-102.4C655.9,146.5,637.9,126.6,613.1,115.1z"/>
<path fill="#83D4F0" d="M623.8,92c-16.1-7.4-33.6-11.2-52-11.2c-41.5,0-80.7,19.7-103.8,50.8c-23.1-31-62.3-50.8-103.8-50.8
	c-18.4,0-35.9,3.8-52,11.2c-31.3,14.5-54.1,39.8-64.2,71.3c-8.4,26.1-11.9,68.5,18.7,122.7c32.6,57.8,89.3,101.7,183.2,174.4l10.3,8
	c2.3,1.8,5,2.7,7.8,2.7s5.5-0.9,7.8-2.7l10.1-7.8C580,387.8,636.7,343.8,669.3,286c30.6-54.2,27.1-96.7,18.7-122.7
	C677.9,131.9,655.1,106.6,623.8,92z M647.1,273.5c-30.1,53.3-85.3,96.1-176.9,166.9l-2.3,1.8l-2.5-1.9
	c-91.4-70.8-146.6-113.5-176.6-166.8c-20.7-36.5-26.4-72-16.6-102.4c7.9-24.6,25.9-44.4,50.7-55.9c12.7-5.9,26.6-8.9,41.3-8.9
	c39.8,0,76.9,22.2,92.2,55.4c2.1,4.5,6.6,7.4,11.6,7.4s9.5-2.9,11.6-7.4c15.4-33.1,52.4-55.4,92.2-55.4c14.7,0,28.6,3,41.3,8.9
	c24.8,11.5,42.8,31.4,50.7,55.9C673.6,201.5,667.8,236.9,647.1,273.5z"/>
<g>
	<g>
		<path fill="#1B446D" d="M450.5,291.6l-63-90.6c-2.8-4-7.4-6.4-12.3-6.4H375c-8.2,0-14.9,6.7-14.9,14.9v108.3c0,6.1,4.9,11,11,11
			h0.2c6.1,0,11-4.9,11-11v-86l63,90.6c2.8,4,7.4,6.4,12.3,6.4h0.2c8.2,0,14.9-6.7,14.9-14.9V205.6c0-6.1-4.9-11-11-11h-0.2
			c-6.1,0-11,4.9-11,11V291.6z"/>
		<path fill="#1B446D" d="M457.8,330h-0.2c-5.3,0-10.2-2.6-13.2-6.9l-60.8-87.5v82.2c0,6.7-5.5,12.2-12.2,12.2
			c-6.9,0-12.4-5.5-12.4-12.2V209.5c0-8.9,7.2-16.1,16.1-16.1c5.5,0,10.5,2.6,13.5,6.9l60.8,87.5v-82.2c0-6.7,5.5-12.2,12.2-12.2
			c6.9,0,12.4,5.5,12.4,12.2v108.3C473.9,322.8,466.6,330,457.8,330z M381.1,228l65.2,93.7c2.6,3.7,6.8,5.9,11.3,5.9h0.2
			c7.6,0,13.7-6.2,13.7-13.7V205.6c0-5.4-4.4-9.8-9.8-9.8c-5.6,0-10,4.4-10,9.8v89.8l-65.2-93.7c-2.6-3.7-6.8-5.9-11.3-5.9
			c-7.8,0-14,6.2-14,13.7v108.3c0,5.4,4.4,9.8,9.8,9.8c5.6,0,10-4.4,10-9.8V228z"/>
	</g>
	<g>
		<path fill="#1B446D" d="M566.5,199.4l-32.1,49.3l-31.3-49.2c-2-3.1-5.3-4.9-9-4.9H493c-8.4,0-13.5,9.3-9,16.4l39.2,60.8v46
			c0,6.1,4.9,11,11,11h0.2c6.1,0,11-4.9,11-11v-46l39.2-60.8c4.6-7.1-0.5-16.4-9-16.4h-0.3C571.8,194.6,568.5,196.4,566.5,199.4z"/>
		<path fill="#1B446D" d="M534.5,330h-0.2c-6.7,0-12.2-5.5-12.2-12.2v-45.7l-39-60.5c-2.4-3.7-2.6-8.2-0.4-12.1
			c2.1-3.9,6-6.2,10.4-6.2h1.1c4.1,0,7.8,2.1,10,5.5l30.3,47.6l31.1-47.7c2.2-3.4,5.9-5.4,9.9-5.4h0.3c4.4,0,8.3,2.3,10.4,6.2
			c2.1,3.9,1.9,8.4-0.4,12.1l-39,60.5v45.7C546.6,324.5,541.2,330,534.5,330z M493,195.8c-3.5,0-6.6,1.8-8.3,4.9
			c-1.7,3.1-1.6,6.7,0.4,9.7l39.4,61.1v46.4c0,5.4,4.4,9.8,9.8,9.8h0.2c5.4,0,9.8-4.4,9.8-9.8v-46.4l0.2-0.3l39.2-60.8
			c1.9-3,2-6.6,0.4-9.7c-1.7-3.1-4.8-4.9-8.3-4.9h-0.3c-3.2,0-6.2,1.6-7.9,4.3l-33.1,50.8l-32.3-50.7c-1.7-2.7-4.7-4.4-8-4.4H493z"
			/>
	</g>
</g>
</svg>
