<?xml version="1.0" encoding="utf-8"?>
<!-- Generator: Adobe Illustrator 17.1.0, SVG Export Plug-In . SVG Version: 6.00 Build 0)  -->
<!DOCTYPE svg PUBLIC "-//W3C//DTD SVG 1.1//EN" "http://www.w3.org/Graphics/SVG/1.1/DTD/svg11.dtd">
<svg version="1.1" id="Layer_1" xmlns="http://www.w3.org/2000/svg" xmlns:xlink="http://www.w3.org/1999/xlink" x="0px" y="0px"
	 viewBox="0 0 301 274" enable-background="new 0 0 301 274" xml:space="preserve">
<g>
	<g>
		<path fill="#FFFFFF" stroke="#83D4F0" stroke-width="11" stroke-linejoin="round" stroke-miterlimit="10" d="M218.5,52.9l-4.5,2.8
			C146.1,96.5,81.5,98.5,81.5,98.5v27.3v27.3c0,0,67.7,2.1,137,45.7C218.5,198.8,228.5,125.6,218.5,52.9z"/>
		
			<rect x="58.1" y="144.1" transform="matrix(0.8827 -0.47 0.47 0.8827 -72.7536 52.9515)" fill="#FFFFFF" stroke="#1B446D" stroke-width="11" stroke-linejoin="round" stroke-miterlimit="10" width="23.2" height="56.2"/>
		<path fill="#FFFFFF" stroke="#1B446D" stroke-width="11" stroke-miterlimit="10" d="M41.3,153.3h40.1V98.5H41.3
			c-2.1,0-3.8,1.7-3.8,3.8v47.1C37.5,151.6,39.2,153.3,41.3,153.3z"/>
		<path fill="none" d="M161.3,105.2c0,0,20.6-5.5,41.2-17"/>
		<path fill="none" d="M196.6,92.6c0,0,4.3,33.4,0,66.6"/>
	</g>
	
		<line fill="none" stroke="#83D4F0" stroke-width="11" stroke-linecap="round" stroke-linejoin="round" stroke-miterlimit="10" x1="254.7" y1="128.7" x2="267.5" y2="128.7"/>
	
		<line fill="none" stroke="#83D4F0" stroke-width="11" stroke-linecap="round" stroke-linejoin="round" stroke-miterlimit="10" x1="246" y1="80.9" x2="257.7" y2="75.6"/>
	
		<line fill="none" stroke="#83D4F0" stroke-width="11" stroke-linecap="round" stroke-linejoin="round" stroke-miterlimit="10" x1="246" y1="174.5" x2="257.7" y2="179.8"/>
</g>
</svg>
