<svg xmlns="http://www.w3.org/2000/svg" viewBox="0 0 301 274"><g stroke-linecap="round" stroke-linejoin="round" stroke-miterlimit="10"><path fill="#FFF" stroke="#1B446D" stroke-width="11" d="M29.4 53.6c112.9-38.5 94.8 49.4 94.8 49.4s-61.7 65.2-94.8-49.4zM271.6 53.6C158.8 15.2 176.8 103 176.8 103s61.7 65.2 94.8-49.4z"/><path fill="#FFF" stroke="#83D4F0" stroke-width="11" d="M152.1 47.6h-1.6c-42.5 0-81.5 35.1-76.9 76.9l9.1 73c.6 10.9 9.6 19.5 20.5 19.5h96.1c10.9 0 20-8.6 20.5-19.5l9.1-73c4.4-41.8-34.3-76.9-76.8-76.9z"/><circle fill="none" stroke="#83D4F0" stroke-width="9" cx="122.3" cy="104.5" r="21.8"/><circle fill="none" stroke="#83D4F0" stroke-width="9" cx="178.8" cy="104.5" r="21.8"/><circle fill="#FFF" stroke="#1B446D" stroke-width="11" cx="122.3" cy="104.5" r="4.1"/><circle fill="#FFF" stroke="#1B446D" stroke-width="11" cx="178.8" cy="104.5" r="4.1"/><path fill="#FFF" stroke="#1B446D" stroke-width="9" d="M132.6 150.6c-.2 1-.3 2-.3 3 0 10 8.1 18.1 18.1 18.1 10 0 18.1-8.1 18.1-18.1 0-1-.1-2-.3-3h-35.6z"/><path fill="#FFF" stroke="#1B446D" stroke-width="9" d="M174 156.4c.2-1.3.3-2.6.3-3.9 0-13.2-10.7-23.9-23.9-23.9s-23.9 10.7-23.9 23.9c0 1.3.1 2.6.3 3.9H174z"/><path fill="#FFF" stroke="#1B446D" stroke-width="11" d="M213.4 225.7h-53.2v-4.4c0-14.6 11.8-26.4 26.4-26.4h.5c14.6 0 26.4 11.8 26.4 26.4v4.4zM143.5 225.7H90.2v-4.4c0-14.6 11.8-26.4 26.4-26.4h.5c14.6 0 26.4 11.8 26.4 26.4v4.4z"/></g></svg>