<?xml version="1.0" encoding="utf-8"?>
<!-- Generator: Adobe Illustrator 17.1.0, SVG Export Plug-In . SVG Version: 6.00 Build 0)  -->
<!DOCTYPE svg PUBLIC "-//W3C//DTD SVG 1.1//EN" "http://www.w3.org/Graphics/SVG/1.1/DTD/svg11.dtd">
<svg version="1.1" id="Layer_1" xmlns="http://www.w3.org/2000/svg" xmlns:xlink="http://www.w3.org/1999/xlink" x="0px" y="0px"
	 viewBox="0 0 301 274" enable-background="new 0 0 301 274" xml:space="preserve">
<g>
	<path fill="#FFFFFF" d="M203.7,227c-8.9,0-16.1-7.2-16.1-16.1c0-0.7,0-1.4,0.1-2.2l-37.3-19.6l-37.2,19.5c0.1,0.7,0.2,1.5,0.2,2.2
		c0,8.9-7.2,16.1-16.1,16.1s-16.1-7.2-16.1-16.1c0-7.9,5.7-14.5,13.2-15.8l7.1-41.5l-30-29.3c-2.2,1.1-4.6,1.6-7.1,1.6
		c-8.9,0-16.1-7.2-16.1-16.1s7.2-16.1,16.1-16.1c6.1,0,11.4,3.3,14.1,8.4l41.7-6.1l18.6-37.7c-2.8-2.9-4.5-6.9-4.5-11.1
		c0-8.9,7.2-16.1,16.1-16.1s16.1,7.2,16.1,16.1c0,4.3-1.6,8.2-4.5,11.1L180.7,96l41.7,6.1c2.7-5.1,8.1-8.4,14.1-8.4
		c8.9,0,16.1,7.2,16.1,16.1s-7.2,16.1-16.1,16.1c-2.5,0-4.9-0.6-7.1-1.6l-30,29.3l7.1,41.4c7.5,1.3,13.3,7.9,13.3,15.9
		C219.8,219.7,212.6,227,203.7,227z"/>
	<path fill="#1B446D" d="M150.5,36.5c5.9,0,10.6,4.7,10.6,10.6c0,4.2-2.4,7.8-5.9,9.5l21.9,44.4l49,7.1c0.8-5.1,5.2-9,10.5-9
		c5.9,0,10.6,4.7,10.6,10.6c0,5.9-4.7,10.6-10.6,10.6c-3,0-5.7-1.3-7.7-3.3l-35.4,34.5l8.4,48.8c0.6-0.1,1.2-0.2,1.8-0.2
		c5.9,0,10.6,4.7,10.6,10.6c0,5.9-4.7,10.6-10.6,10.6s-10.6-4.7-10.6-10.6c0-1.8,0.4-3.4,1.2-4.9l-43.8-23.1l-43.7,23
		c0.8,1.5,1.2,3.2,1.2,5c0,5.9-4.7,10.6-10.6,10.6c-5.9,0-10.6-4.7-10.6-10.6c0-5.9,4.7-10.6,10.6-10.6c0.6,0,1.2,0.1,1.7,0.2
		l8.4-48.8l-35.4-34.5c-1.9,2-4.6,3.3-7.7,3.3c-5.9,0-10.6-4.7-10.6-10.6c0-5.9,4.7-10.6,10.6-10.6c5.3,0,9.7,3.9,10.5,9l49-7.1
		l21.9-44.4c-3.5-1.7-5.9-5.3-5.9-9.5C139.9,41.3,144.6,36.5,150.5,36.5 M150.5,25.5c-11.9,0-21.6,9.7-21.6,21.6
		c0,4.3,1.3,8.4,3.5,11.8l-15.8,32l-35.4,5.1c-4-4.9-10-7.9-16.8-7.9c-11.9,0-21.6,9.7-21.6,21.6s9.7,21.6,21.6,21.6
		c1.9,0,3.9-0.3,5.7-0.8l25.5,24.8l-6,35.2c-8.1,3.1-13.8,11-13.8,20.2c0,11.9,9.7,21.6,21.6,21.6c11.6,0,21-9.1,21.6-20.6
		l31.5-16.6l31.7,16.6c0.6,11.4,10,20.5,21.6,20.5c11.9,0,21.6-9.7,21.6-21.6c0-9.2-5.8-17.1-14-20.2l-6-35.2l25.5-24.8
		c1.9,0.5,3.8,0.8,5.7,0.8c11.9,0,21.6-9.7,21.6-21.6s-9.7-21.6-21.6-21.6c-6.7,0-12.8,3-16.8,7.9L184.4,91l-15.8-32
		c2.3-3.4,3.5-7.5,3.5-11.8C172.1,35.2,162.4,25.5,150.5,25.5L150.5,25.5z"/>
</g>
<path fill="#FFFFFF" stroke="#1B446D" stroke-width="11" stroke-linecap="round" stroke-linejoin="round" stroke-miterlimit="10" d="
	M135.5,168.2v-59.4c0,0,38.5-2.7,38.5,29.7C174,138.5,175.8,168.2,135.5,168.2z"/>
</svg>
