<?xml version="1.0" encoding="utf-8"?>
<!-- Generator: Adobe Illustrator 17.1.0, SVG Export Plug-In . SVG Version: 6.00 Build 0)  -->
<!DOCTYPE svg PUBLIC "-//W3C//DTD SVG 1.1//EN" "http://www.w3.org/Graphics/SVG/1.1/DTD/svg11.dtd">
<svg version="1.1" id="Layer_1" xmlns="http://www.w3.org/2000/svg" xmlns:xlink="http://www.w3.org/1999/xlink" x="0px" y="0px"
	 viewBox="0 0 936 576" enable-background="new 0 0 936 576" xml:space="preserve">
<g>
	<path fill="#FFFFFF" d="M521.9,469.4c-1.1,0-2.3,0-3.4-0.1c-9-0.4-17.2-2.4-24.5-5.9c-1.1-0.5-2.3-0.8-3.4-0.8
		c-0.6,0-1.2,0.1-1.7,0.2c-5.6,1.7-14.4,3.8-24.2,3.8c-22.9,0-41-10.7-52.3-30.9c-29.7-53.4-42.7-63-44.4-64.1
		c-0.8-0.4-1.6-0.8-2.3-1.4l-54.2-33.9c-6.7-3.6-11.7-9.6-14-16.8c-2.4-7.4-1.7-15.4,1.8-22.3c5-9.8,15-15.9,26-15.9
		c4.6,0,9.2,1.1,13.4,3.2c0.3,0.1,0.5,0.3,0.8,0.4l55.1,34.4c3.2,1.3,6.2,2,8.7,2c4.4,0,6.2-2.1,6.7-2.7c3.2-3.9,4.2-11.7,2.6-21.7
		l-41.1-126.6c-0.1-0.2-0.1-0.4-0.2-0.5c-4.2-15.6,5.1-31.6,20.7-35.8c2.5-0.7,5-1,7.6-1c13.1,0,24.6,8.8,28.1,21.4l34,103.3
		l-2.1-121.5c-0.2-16.1,12.7-29.4,28.8-29.7l0.4,0c15.9,0,29,12.9,29.2,28.8l2.1,124.7L546,156.3c2.8-13.5,14.8-23.2,28.6-23.2
		c1.9,0,3.9,0.2,5.8,0.6c7.6,1.5,14.2,6,18.6,12.5c4.3,6.5,5.9,14.3,4.3,22c0,0.2-0.1,0.3-0.1,0.5l-24,96.8l29.5-41.6
		c5.4-7.8,14.4-12.5,24-12.5c6,0,11.7,1.8,16.6,5.2c13.3,9.2,16.6,27.4,7.4,40.7l-57.2,81.1c-1.6,26.5-3.8,49.5-6.4,68.3
		C588.1,442.4,557.5,469.4,521.9,469.4C521.9,469.4,521.9,469.4,521.9,469.4z"/>
	<path fill="#1B446D" d="M488.8,117.2c10.1,0,18.4,8.1,18.6,18.3l2.4,138.3c0.8,4.6,4.6,7,8.6,7c3.5,0,7.1-1.9,9.1-5.8l28.9-116.4
		c1.8-8.8,9.5-14.9,18.2-14.9c1.2,0,2.5,0.1,3.7,0.4c10.1,2,16.6,11.8,14.5,21.9l-29.4,119c-0.9,6.9,1.3,11.8,4.6,11.8
		c0.9,0,1.9-0.4,3-1.2l46.5-65.6c3.6-5.2,9.4-8,15.3-8c3.6,0,7.3,1.1,10.5,3.3c8.4,5.8,10.5,17.4,4.7,25.8l-58.8,83.5
		c-1.2,20.7-3.2,47.2-6.5,70.5c-4.2,30.5-30.2,53.7-60.7,53.7c-1,0-1.9,0-2.9-0.1c-7-0.3-14-1.8-20.5-4.9c-2.5-1.2-5.3-1.9-8-1.9
		c-1.6,0-3.2,0.2-4.8,0.7c-5.1,1.6-12.7,3.3-21.1,3.3c-14.6,0-31.7-5.2-43-25.4c-36.3-65.1-49.5-68.7-49.5-68.7l0,0l-55.4-34.6
		c-9.1-4.7-12.7-15.9-8-25c3.3-6.4,9.8-10.1,16.5-10.1c2.9,0,5.8,0.7,8.5,2.1l55.8,34.8c4.8,2.1,9.5,3.2,13.7,3.2
		c14.4,0,24-12.4,19.7-37.6l-41.3-127.3c-2.6-9.9,3.2-20.1,13.1-22.7c1.6-0.4,3.2-0.6,4.8-0.6c8.2,0,15.7,5.5,17.9,13.8l38.8,117.9
		c1.7,3.6,5.4,5.4,8.8,5.4c3.6,0,6.9-1.8,7.5-5.3l-2.4-139.4c-0.1-10.3,8-18.7,18.3-18.8C488.6,117.2,488.7,117.2,488.8,117.2
		 M488.8,95.9c-0.2,0-0.4,0-0.7,0c-22,0.4-39.5,18.5-39.2,40.5l0.9,51.2l-11.9-36.3c-4.9-17.1-20.6-28.9-38.3-28.9
		c-3.5,0-7,0.5-10.3,1.4c-21.2,5.7-33.9,27.6-28.2,48.8c0.1,0.4,0.2,0.7,0.3,1.1l40.8,125.8c0.9,6,0.4,9.5,0,11.2
		c-0.7-0.1-1.6-0.3-2.8-0.8L345,276c-0.5-0.3-1-0.6-1.5-0.9c-5.6-2.9-11.9-4.4-18.2-4.4c-15,0-28.6,8.3-35.5,21.7
		c-9.9,19.3-2.6,42.9,16.3,53.2l53.7,33.5c0.8,0.6,1.7,1.1,2.6,1.6c2.4,2,14.8,13.7,40.6,60.2c13.1,23.5,34.9,36.4,61.6,36.4
		c10.3,0,19.4-1.9,25.8-3.8c8.4,3.8,17.7,6,27.6,6.5c1.3,0.1,2.6,0.1,3.9,0.1c40.9,0,76.1-31,81.8-72.1c2.6-18.4,4.7-40.6,6.3-66.1
		l55.4-78.5c0-0.1,0.1-0.1,0.1-0.2c12.5-18.1,8-43-10.1-55.5c-6.7-4.6-14.5-7.1-22.7-7.1c-11.4,0-22.2,4.9-29.7,13.3l10.6-42.8
		c0.1-0.3,0.1-0.6,0.2-0.9c2.1-10.4,0-21.1-5.9-30c-5.9-8.9-14.9-14.9-25.3-17c-2.6-0.5-5.3-0.8-7.9-0.8c-18.7,0-35,13.2-39,31.5
		l-6.1,24.7l-0.7-43.4C528.4,113.6,510.5,95.9,488.8,95.9L488.8,95.9z"/>
</g>
<g>
	<line fill="#FFFFFF" x1="496.1" y1="63" x2="496.1" y2="21.1"/>
	<path fill="#1B446D" d="M496.1,77.1c-7.8,0-14.2-6.3-14.2-14.2V21.1c0-7.8,6.3-14.2,14.2-14.2s14.2,6.3,14.2,14.2V63
		C510.2,70.8,503.9,77.1,496.1,77.1z"/>
</g>
<g>
	<line fill="#FFFFFF" x1="657" y1="123.7" x2="686.6" y2="94.1"/>
	<path fill="#1B446D" d="M647,133.7c-5.5-5.5-5.5-14.5,0-20l29.6-29.6c5.5-5.5,14.5-5.5,20,0c5.5,5.5,5.5,14.5,0,20l-29.6,29.6
		C661.5,139.3,652.6,139.3,647,133.7z"/>
</g>
<g>
	<line fill="#FFFFFF" x1="331.7" y1="119.7" x2="302.1" y2="90.1"/>
	<path fill="#1B446D" d="M341.7,129.7c-5.5,5.5-14.5,5.5-20,0l-29.6-29.6c-5.5-5.5-5.5-14.5,0-20c5.5-5.5,14.5-5.5,20,0l29.6,29.6
		C347.3,115.2,347.3,124.2,341.7,129.7z"/>
</g>
<g>
	<line fill="#FFFFFF" x1="279.8" y1="251" x2="237.9" y2="251"/>
	<path fill="#1B446D" d="M293.9,251c0,7.8-6.3,14.2-14.2,14.2h-41.9c-7.8,0-14.2-6.3-14.2-14.2c0-7.8,6.3-14.2,14.2-14.2h41.9
		C287.6,236.8,293.9,243.2,293.9,251z"/>
</g>
<g>
	<line fill="#FFFFFF" x1="754.8" y1="251" x2="712.9" y2="251"/>
	<path fill="#1B446D" d="M768.9,251c0,7.8-6.3,14.2-14.2,14.2h-41.9c-7.8,0-14.2-6.3-14.2-14.2s6.3-14.2,14.2-14.2h41.9
		C762.6,236.8,768.9,243.2,768.9,251z"/>
</g>
</svg>
