<?xml version="1.0" encoding="utf-8"?>
<!-- Generator: Adobe Illustrator 17.1.0, SVG Export Plug-In . SVG Version: 6.00 Build 0)  -->
<!DOCTYPE svg PUBLIC "-//W3C//DTD SVG 1.1//EN" "http://www.w3.org/Graphics/SVG/1.1/DTD/svg11.dtd">
<svg version="1.1" id="Layer_1" xmlns="http://www.w3.org/2000/svg" xmlns:xlink="http://www.w3.org/1999/xlink" x="0px" y="0px"
	 viewBox="0 0 847 843.7" enable-background="new 0 0 847 843.7" xml:space="preserve">
<g>
	<path fill="#FFFFFF" d="M688.3,471.6l0.1-0.3c0.4-2.1,0.8-3.9,1.3-6h0c4.1-18.6,6.3-37.9,6.3-57.7c0-17-1.6-33.6-4.6-49.7
		c-1.4,0.8-3.2,0.8-4.6-0.3L656.6,334c0,0-15.4-81.3-26-87.9c-99-61.3-202.3-58.3-202.3-58.3s-93.5-5.6-187.3,49
		c-25,13.6-41,96.7-41,96.7c-8,3.5-23.3,12.7-30.9,19.7c-1.5,1.3-3.8,0-3.4-1.9c3.9-18.1,8.1-35,12.5-50.8
		c-13.7,33-21.2,69.3-21.2,107.3c0,19.8,2.2,39.1,6.2,57.7c0,0,0.6,4.3,2,11.7c-20.6,9.7-34.9,30.6-34.9,54.9
		c0,33.5,27.2,60.7,60.7,60.7c4.2,0,8.2-0.4,12.2-1.2c36.2,74.2,103,153.7,223.3,153.7c0,0,140,16.7,222.3-153.7
		c3.9,0.8,8,1.2,12.2,1.2c35.2,0,63.6-28.5,63.6-63.6C724.5,503.6,709.7,481.8,688.3,471.6z"/>
</g>
<g>
	<path d="M536.4,612.7c-1,1.5-26.4,36.5-110.1,36.5c-83.7,0-109.1-35-110.1-36.5c-2.9-4.2-1.9-10,2.3-12.9c4.2-2.9,9.9-1.9,12.9,2.2
		c0.5,0.7,22.5,28.6,94.9,28.6c73,0,94.7-28.2,94.9-28.5c2.9-4.2,8.7-5.3,12.9-2.3C538.3,602.7,539.4,608.5,536.4,612.7"/>
</g>
<g>
	<g>
		<g>
			<g>
				<path d="M427.8,673.8l-21.9,9.3c6.5,17,21.9,23.5,21.9,23.5s15.4-6.5,21.9-23.5L427.8,673.8z"/>
			</g>
		</g>
	</g>
	<g>
		<g>
			<g>
				<path d="M317.5,581.7c0,0,8.1-29.2,33-31.9c0,0,49.2-8.6,53-13.5c0,0,15.7,13,16.8,22.7C420.3,559,368.9,561.7,317.5,581.7"/>
			</g>
			<g>
				<path d="M541.4,581.7c0,0-8.1-29.2-33-31.9c0,0-49.2-8.6-53-13.5c0,0-15.7,13-16.8,22.7C438.6,559,490,561.7,541.4,581.7"/>
			</g>
		</g>
	</g>
	<g>
		<path d="M695.7,371.5l-2.1-0.8c0,0,0,0-0.1,0c0,0,0,0-0.1,0c-34.1-9-70.8-13.5-109-13.5c-59,0-101.5,11-102,11.2
			c-17.6,5.1-35.3,7.7-52.6,7.7c-29.7,0-48-7.8-48.4-7.9c-27.5-8.3-61.3-12.5-100.3-12.5c-59.9,0-111.9,10.1-112.4,10.2
			c0,0,0,0-0.1,0c0,0,0,0,0,0l-9.6,2.4v30.4l14.2-0.9c13.7,3.7,17.6,24.5,17.7,24.8c10.9,51,19.9,65.3,20.3,66
			c16.6,22.9,53.4,24.7,64.3,24.7c1.3,0,2.1,0,2.1,0h0.4c51,0,80.8-16.6,82.1-17.3c33.3-19.6,56.4-79.4,58.8-86c4-3,8.3-4.6,13-4.6
			c6.1,0,11.1,2.7,12.6,3.7c22.6,70.7,57.1,87.1,58.5,87.7c25.6,13.2,51.6,20,77.4,20c35.4,0,57.3-12.6,58.5-13.3
			c25.2-21,36-85.5,36.4-88.1c2.7-9.9,7.9-11.4,10.8-11.4c0.8,0,1.2,0.1,1.3,0.1l8.4,2.9V371.5z M383.1,439.2
			c-0.1,0.6-14.8,59.6-96.7,59.6c-3.4,0-7-0.1-10.6-0.3c0,0-0.1,0-0.1,0c0,0-0.1,0-0.1,0c-0.2,0-30,1.9-49.5-19.4
			c-13.2-14.5-18.6-36.2-16.1-64.8c0-0.1-0.9-11.6,9.3-22.7c12.5-13.7,36.6-20.9,69.6-20.9c3.3,0,6.7,0.1,10.2,0.2
			c0.6,0,64.7,1.3,83.1,20C382.3,391,394.5,404.3,383.1,439.2z M633.6,483.7c-15.3,15.6-35.6,17.9-46.3,17.9c-3.5,0-5.6-0.3-5.8-0.3
			c-94-0.5-102.4-62.6-102.8-65.6c-11.5-36.8,4-47.6,4.4-47.9c15.4-13.8,58-15.3,75.6-15.3c5.4,0,8.8,0.1,8.8,0.1
			c47.8,0.8,68.5,13.8,77.5,24.5c10,11.8,8.2,23.8,8.2,24.3C653.6,449,647,469.9,633.6,483.7z"/>
		<path d="M580.4,518.7c-26.1,0-52.4-6.8-78.3-20.2c-2.1-1-36.7-17.9-59.3-88.2c-1.8-1-6-3-10.9-3c-4,0-7.8,1.3-11.3,3.8
			c-1.6,4.3-8,20.4-17.8,37.9c-13.4,23.9-27.4,40.2-41.7,48.6c-1.3,0.7-31.4,17.6-83.1,17.6l-0.4,0c-0.6,0.1-1.3,0.1-2.1,0.1
			c-11.1,0-48.8-1.8-65.9-25.5c-0.4-0.7-9.7-15.3-20.6-66.7l0-0.1c0-0.2-3.8-19.5-15.9-23.1l-16,1v-34.1l11.4-2.8
			c2.2-0.4,53.6-10.2,112.8-10.2c39.2,0,73.1,4.2,100.8,12.6l0.2,0.1c2,0.8,19.8,7.8,47.7,7.8c17.1,0,34.6-2.6,52-7.6
			c0.4-0.1,43.2-11.2,102.5-11.2c38.4,0,75.2,4.6,109.5,13.6l0.1,0c0,0,0.1,0,0.1,0l3.4,1.2v39.7l-10.9-3.8c-0.2,0-0.4-0.1-0.7-0.1
			c-3.9,0-7.1,3.5-8.8,9.8c-0.3,1.5-3,18.2-8.9,37.3c-7.9,25.4-17.3,42.9-28.1,51.9l-0.2,0.2C639.7,505.2,617.3,518.7,580.4,518.7z
			 M431.9,403.3c6.5,0,11.7,2.8,13.6,4l0.6,0.4l0.2,0.7c6.4,20.1,18,48.4,36.8,69.4c11.5,12.8,20.3,16.9,20.6,17.1l0.1,0
			c25.3,13.1,51,19.7,76.5,19.7c34.4,0,55.6-11.9,57.3-12.9c10-8.4,19.2-25.7,26.7-49.9c6.1-19.7,8.8-36.7,8.8-36.8l0-0.2
			c3.1-11.2,9.3-12.9,12.7-12.9c0.6,0,1.1,0.1,1.6,0.1l0.3,0.1l5.7,2v-31.2l-1-0.3c-33.9-8.9-70.3-13.4-108.2-13.4
			c-58.3,0-101,11-101.5,11.1c-17.8,5.2-35.7,7.8-53.1,7.8c-28.4,0-46.8-7.1-49.1-8c-27.3-8.2-60.8-12.4-99.6-12.4
			c-57.8,0-108,9.4-111.9,10.1l-0.4,0.1l-7.9,2v26.7l12.4-0.8l0.3,0.1c14.5,3.9,18.8,24.6,19.1,26.3l0,0
			c10.8,50.7,19.7,64.7,20,65.3c15.9,22.1,51.9,23.8,62.6,23.8c0,0,0,0,0.1,0v0h2.4c50.6,0,79.8-16.4,81.1-17.1
			c32.6-19.2,55.5-78.3,58-85l0.2-0.5l0.5-0.4C422.1,405,426.8,403.3,431.9,403.3z M587.2,503.6c-3.1,0-5.1-0.2-5.8-0.3l-0.1,0
			c-39.7-0.2-69.3-11.2-87.9-32.6c-13.5-15.5-16.2-31.2-16.7-34.6c-11.2-36.2,3.1-48.4,5.1-49.9c16-14.2,59-15.7,76.8-15.7
			c5.6,0,8.9,0.1,8.9,0.1c48.4,0.9,69.7,14.2,78.9,25.2c9.4,11.1,9,22.4,8.7,25.6c0.5,28.1-6.3,49.5-20.2,63.6
			C619.1,501.2,598.3,503.6,587.2,503.6z M558.6,374.5c-52.1,0-69.3,10.3-74.2,14.8l-0.1,0.1c-0.6,0.5-14.5,11-3.7,45.7l0.1,0.3
			c0.2,1.7,2.5,17.5,15.8,32.7c17.8,20.5,46.4,31,85,31.2l0.4,0c0.6,0.1,2.5,0.2,5.4,0.2c10.4,0,30.1-2.3,44.9-17.3
			c13.1-13.3,19.5-33.8,19-60.9l0-0.1l0-0.2c0.2-2,0.9-12.4-7.7-22.7c-8.7-10.4-29-22.9-76-23.7C567.3,374.6,564,374.5,558.6,374.5z
			 M286.4,500.8c-3.4,0-7-0.1-10.7-0.3l-0.1,0c-0.2,0-0.9,0.1-2.1,0.1c-7.2,0-31.9-1.5-48.9-20.1c-13.6-14.9-19.2-37.1-16.6-66.2
			c-0.1-1.7-0.3-13,9.8-24c12.9-14.1,37.5-21.5,71.1-21.5c3.3,0,6.7,0.1,10.3,0.2c2.6,0.1,65.8,1.5,84.4,20.6
			c0.6,0.6,13,14.7,1.4,50.2C384.2,442.6,368.3,500.8,286.4,500.8z M275.7,496.5l0.1,0c3.7,0.2,7.2,0.3,10.5,0.3
			c79.9,0,94.6-57.5,94.7-58.1l0-0.2c11-33.3-0.3-46.2-0.4-46.3c-14-14.3-59.5-18.9-81.6-19.3c-3.6-0.1-7-0.2-10.2-0.2
			c-32.4,0-56,7-68.1,20.2c-9.4,10.3-8.8,21.1-8.7,21.2l0,0.2l0,0.2c-2.5,28,2.7,49.3,15.5,63.3c16,17.5,39.2,18.8,46,18.8
			c1.2,0,1.9,0,1.9,0L275.7,496.5z"/>
	</g>
	<g>
		<path fill="none" d="M644.5,229.2c-20.9-49.7-43-84-52.3-97.4l-53.8,17.8c32.4,13.9,62.2,34,87.9,59.6
			C632.8,215.7,638.8,222.4,644.5,229.2z"/>
		<path fill="none" d="M428.1,127.2c37.4,0,73.6,7.3,107.1,21.1V97.6c-25.5-6.9-62.9-14.5-107.5-15.9
			c-80.6,2.7-138.2,25.2-148.7,29.6c-4.1,4.2-18.3,19.9-36,51.5c-8.2,14.8-17.9,34.4-28,59.4c3.6-4.2,7.3-8.2,11.1-12.2
			C278.2,156.6,349.9,127.2,428.1,127.2z"/>
		<path fill="none" d="M657.7,289.9c3.9,15.8,7,31,8.4,38l10.5,8.2c-4.8-16.7-11.2-32.9-19.3-48.2
			C657.4,288.6,657.5,289.2,657.7,289.9z"/>
		<path fill="none" d="M646,340.1l-0.8-4c-6.4-33.7-16.5-73.7-21.8-81.1c-86.9-53.5-176.3-56.2-193.4-56.2c-1.3,0-2,0-2,0l-0.5,0
			l-0.5,0c0,0-2.5-0.1-6.9-0.1c-21.6,0-98.2,3.4-174.2,47.7l-0.3,0.2c-14,7.6-29.4,57.7-35.5,89.1l-1.1,5.7l-5.3,2.3
			c-7.4,3.2-21.5,11.9-28,17.8c-0.8,0.7-1.6,1.3-2.6,1.8c-2.4,14.5-3.6,29.4-3.6,44.5c0,18.6,2,37.2,6,55.3l0.2,0.9
			c0,0,0.6,4.1,1.9,11.1l1.6,8.4l-7.7,3.6c-17.4,8.2-28.6,25.8-28.6,44.9c0,27.4,22.3,49.7,49.7,49.7c3.3,0,6.7-0.3,10-1l8.3-1.7
			l3.7,7.7c20.7,42.5,46.7,76.5,77.1,100.9c38.5,30.9,84.3,46.6,136.3,46.6h0.7l0.7,0.1c0,0,3.3,0.4,9.1,0.4
			c16.6,0,50.1-2.9,87.8-22.4c47.3-24.5,85.7-66.7,114.2-125.5l3.7-7.6l8.3,1.6c3.4,0.7,6.8,1,10.1,1c29,0,52.6-23.6,52.6-52.6
			c0-20.4-11.5-38.6-30-47.5l-8-3.8l1.4-5.9l1.9-8.8c4-18.3,6-36.9,6-55.3c0-13.2-1-26.2-2.9-39c-1.6-0.5-3.1-1.4-4.4-2.4L646,340.1
			z"/>
		<path fill="none" d="M246.8,220.6c76.7-40.7,151.4-44.1,173.3-44.1c4,0,6.7,0.1,7.7,0.2c0.4,0,1.2,0,2.2,0
			c16.2,0,93.7,2.3,175.7,43.3c-48.2-45.7-111-70.8-177.7-70.8C358.2,149.2,294.1,174.5,246.8,220.6z"/>
		<path fill="none" d="M189.7,325.9c1.7-7.8,5.2-22.9,10.3-39c1.1-3.4,2.1-6.6,3.2-9.6c-8.4,14.9-15.3,30.6-20.6,46.9
			c-0.5,2.2-1.1,4.4-1.6,6.6C184,329,187,327.3,189.7,325.9z"/>
		<path d="M702.4,465.9l2.3-11.6h-0.2c2.6-15.5,3.9-31.1,3.9-46.7c0-17.7-1.7-35.2-4.8-52.2c-0.2,3.1-1.4,6.2-3.5,8.6
			c-2.9,3.5-7.2,5.4-11.7,5.4c0,0,0,0,0,0c-1.7,0-3.4-0.3-4.9-0.8c1.9,12.8,2.9,25.8,2.9,39c0,18.5-2,37.1-6,55.3l-1.9,8.8l-1.4,5.9
			l8,3.8c18.5,8.9,30,27,30,47.5c0,29-23.6,52.6-52.6,52.6c-3.3,0-6.7-0.3-10.1-1l-8.3-1.6l-3.7,7.6
			c-28.4,58.8-66.8,101-114.2,125.5c-37.8,19.5-71.2,22.4-87.8,22.4c-5.8,0-9.1-0.4-9.1-0.4l-0.7-0.1h-0.7
			c-52,0-97.8-15.7-136.3-46.6c-30.5-24.5-56.4-58.4-77.1-100.9l-3.7-7.7l-8.3,1.7c-3.3,0.7-6.6,1-10,1c-27.4,0-49.7-22.3-49.7-49.7
			c0-19.1,11.2-36.8,28.6-44.9l7.7-3.6l-1.6-8.4c-1.3-7-1.9-11.1-1.9-11.1l-0.2-0.9c-4-18.1-6-36.8-6-55.3c0-15.1,1.2-30,3.6-44.5
			c-1.9,1-4,1.6-6.2,1.6c-4,0-7.7-1.8-10.2-4.9c-2.5-3.1-3.4-7.1-2.6-10.9c2.3-10.7,4.7-20.9,7.2-30.8
			c-9.1,28.4-13.9,58.5-13.9,89.6c0,20,2.1,40.1,6.4,59.6c0.1,0.7,0.3,2,0.6,3.9c-20.7,13-33.7,36-33.7,60.7
			c0,39.5,32.2,71.7,71.7,71.7c2,0,3.9-0.1,5.9-0.2c36.5,71.2,105.3,152.5,229,152.7c1.5,0.2,5.3,0.5,11,0.5
			c18.6,0,56-3.2,97.9-24.9c49.7-25.7,90.1-68.8,120.3-128.3c1.9,0.2,3.9,0.2,5.8,0.2c41.2,0,74.6-33.5,74.6-74.6
			C737.2,503.4,723.8,479.5,702.4,465.9z"/>
		<path d="M666.1,327.9c-1.4-7-4.5-22.2-8.4-38c-0.2-0.7-0.3-1.3-0.5-2c-12-22.9-27.6-44.2-46.4-63c-1.7-1.7-3.4-3.3-5.1-4.9
			c-82-41-159.5-43.3-175.7-43.3c-1,0-1.7,0-2.2,0c-1,0-3.7-0.2-7.7-0.2c-21.9,0-96.6,3.3-173.3,44.1c-1.6,1.6-3.2,3.2-4.8,4.8
			c-15.2,15.6-28.2,33.1-38.8,51.9c-1.1,3.1-2.2,6.3-3.2,9.6c-5.1,16.1-8.6,31.3-10.3,39c-2.7,1.4-5.6,3.1-8.7,4.9
			c0.5-2.2,1.1-4.4,1.6-6.6c-4.1,12.6-7.3,25.6-9.4,38.9c0.9-0.5,1.8-1.1,2.6-1.8c6.5-5.9,20.7-14.5,28-17.8l5.3-2.3l1.1-5.7
			c6.1-31.4,21.5-81.5,35.5-89.1l0.3-0.2c76-44.3,152.6-47.7,174.2-47.7c4.4,0,6.9,0.1,6.9,0.1l0.5,0l0.5,0c0.1,0,0.8,0,2,0
			c17.1,0,106.4,2.7,193.4,56.2c5.3,7.4,15.5,47.4,21.8,81.1l0.8,4l33.2,26.1c1.4,1.1,2.8,1.9,4.4,2.4c-1.7-11-4-21.9-7.1-32.5
			L666.1,327.9z"/>
		<path d="M243.1,162.8c17.6-31.6,31.9-47.3,36-51.5c10.5-4.4,68.1-26.9,148.7-29.6c44.5,1.5,81.9,9,107.5,15.9v50.7
			c1.1,0.5,2.2,0.9,3.3,1.4l53.8-17.8c9.3,13.4,31.4,47.7,52.3,97.4c30.3,36.6,50.5,79.8,59.2,126.2c0.1-1.2,0-2.5-0.2-3.7
			c-13.2-74.8-39.1-135.8-58.5-173.8c-21.1-41.3-39-64.8-39.8-65.7l-4.8-6.2l-43.2,14.3V81l-7.9-2.3c-26.7-7.8-69.3-17.4-121.2-19
			l-0.4,0l-0.4,0c-93.4,3-156.5,31.1-159.1,32.3l-1.6,0.7l-1.3,1.2c-2.7,2.4-62.5,58.6-103.9,224.2c11.3-35.3,29.4-67.8,53.6-95.8
			C225.1,197.2,234.8,177.6,243.1,162.8z"/>
		<path d="M203.2,277.3c10.6-18.8,23.6-36.2,38.8-51.9c1.6-1.6,3.2-3.2,4.8-4.8c-3.9,2.1-7.9,4.3-11.8,6.6
			C223.2,233.7,212.8,250.1,203.2,277.3z"/>
		<path d="M678.3,337.6l-1.8-1.4c3,10.6,5.4,21.5,7.1,32.5c1.6,0.5,3.2,0.8,4.9,0.8c0,0,0,0,0,0c4.5,0,8.8-2,11.7-5.4
			c2.1-2.5,3.2-5.5,3.5-8.6c-8.7-46.3-28.9-89.5-59.2-126.2C657.3,259.9,669.7,296.4,678.3,337.6z"/>
		<path d="M538.4,149.7c-1.1-0.5-2.2-0.9-3.3-1.4v2.5L538.4,149.7z"/>
		<path d="M635.8,236.7c-10-6.2-20.1-11.8-30.1-16.8c1.7,1.6,3.4,3.3,5.1,4.9c18.8,18.8,34.4,40.1,46.4,63
			C647,246.6,641,240,635.8,236.7z"/>
		<path d="M156.9,359.8c2.5,3.1,6.2,4.9,10.2,4.9c2.2,0,4.3-0.6,6.2-1.6c2.2-13.3,5.3-26.3,9.4-38.9c10.2-40.9,21.5-74.7,32.5-102
			c-24.2,28.1-42.3,60.6-53.6,95.8c-2.5,9.9-4.9,20.1-7.2,30.8C153.5,352.7,154.4,356.7,156.9,359.8z"/>
	</g>
</g>
<path d="M537.9,612.7c-1,1.5-26.4,36.5-110.1,36.5c-83.7,0-109.1-35-110.1-36.5c-2.9-4.2-1.9-10,2.3-12.9c4.2-2.9,9.9-1.9,12.9,2.2
	c0.5,0.7,22.5,28.6,94.9,28.6c73,0,94.7-28.2,94.9-28.5c2.9-4.2,8.7-5.3,12.9-2.3C539.8,602.7,540.9,608.5,537.9,612.7"/>
</svg>
