<?xml version="1.0" encoding="utf-8"?>
<!-- Generator: Adobe Illustrator 17.1.0, SVG Export Plug-In . SVG Version: 6.00 Build 0)  -->
<!DOCTYPE svg PUBLIC "-//W3C//DTD SVG 1.1//EN" "http://www.w3.org/Graphics/SVG/1.1/DTD/svg11.dtd">
<svg version="1.1" xmlns="http://www.w3.org/2000/svg" xmlns:xlink="http://www.w3.org/1999/xlink" x="0px" y="0px"
	 viewBox="0 0 612 509.9" enable-background="new 0 0 612 509.9" xml:space="preserve">
<g id="Layer_1">
</g>
<g id="Layer_2">
</g>
<g id="Layer_3">
	<g>
		<g>
			<path fill="#74D3ED" d="M128.7,509.9c0.8-0.9,0.6-1.4,0.6-1.6l-2.5-12.3c0-0.7,0-1.3,0.4-2c0.4-0.4,1.1-0.9,1.8-1.1l40.2-4.9
				c1.6-0.2,2.9,0.9,2.9,2.2l1.6,12.7c0,0.7,0,1.3-0.4,2c-0.4,0.7-1.1,0.9-1.8,1.1l-29,3.6h67.8c2.5-38.2,0.2-62.6,0.2-63.3l-4.1-16
				c0,0.2,0.4,19.2-0.2,43.3c-0.2,10.5-0.7,23.2-1.6,36h49.8l-25.2-3.6c-1.3-0.2-2.5-1.6-2.2-2.9l1.3-12.7c0-0.7,0.4-1.3,1.1-1.8
				c0.7-0.4,1.3-0.7,2-0.4l37.3,5.4c1.3,0.2,2.5,1.6,2.2,2.9l-1.3,12.7c0,0.2-0.2,0.4-0.2,0.7h6c4.2-15,6.5-29.7,7.6-41.8
				c2.5-24.8,0.9-44,0.9-44.2l2.7-0.2l0,0L74.2,379.5c-0.2,32.2,16.1,91.4,28.1,130.4"/>
			<path fill="#74D3ED" d="M71.5,378.8L71.5,378.8L71.5,378.8z"/>
			
				<rect x="146.6" y="482.2" transform="matrix(-0.1215 -0.9926 0.9926 -0.1215 -327.3457 709.7542)" fill="#74D3ED" width="7.6" height="35.1"/>
			<path fill="#74D3ED" d="M171.6,506.3c0.7,0,1.3-0.4,1.8-1.1c0.4-0.7,0.7-1.3,0.4-2l-1.6-12.7c-0.2-1.6-1.6-2.5-2.9-2.2l-40.2,4.9
				c-0.7,0-1.3,0.4-1.8,1.1c-0.4,0.4-0.7,1.3-0.4,2l1.6,12.7c0,0.4,0.2,0.7,0.2,0.9h13.8L171.6,506.3z M169.8,490.9l1.6,12.7
				l-40.2,4.9l-1.6-12.7L169.8,490.9z"/>
			<path fill="#74D3ED" d="M171.4,503.6l-1.6-12.7l-40.2,4.9l1.6,12.7L171.4,503.6z M167.4,493.8l0.9,7.6l-34.8,4.2l-0.9-7.6
				L167.4,493.8z"/>
			<polygon fill="#74D3ED" points="265.4,498.5 233.5,494 232.6,501.4 264.7,505.9 			"/>
			<path fill="#74D3ED" d="M269.7,509.2l1.3-12.7c0.2-1.3-0.9-2.7-2.2-2.9l-37.3-5.4c-0.7,0-1.3,0-2,0.4c-0.7,0.4-0.9,1.1-1.1,1.8
				l-1.3,12.7c-0.2,1.3,0.9,2.7,2.2,2.9l25.2,3.6h15C269.7,509.7,269.7,509.5,269.7,509.2z M267.2,509l-37.3-5.4l1.3-12.7l37.3,5.4
				L267.2,509z"/>
			<path fill="#74D3ED" d="M229.7,503.6L267,509l1.3-12.7l-37.3-5.4L229.7,503.6z M233.5,494l32.2,4.5l-0.9,7.4l-32.2-4.5L233.5,494
				z"/>
			<path fill="#59B8E2" d="M278.4,509.9h2.7c4-14.7,6.3-29.3,7.4-41.3c2.5-25.2,0.9-45.1,0.9-45.1l-2.7,0.2
				C286.6,423.7,290.2,467.7,278.4,509.9z"/>
			<path fill="#59B8E2" d="M283.1,468.1c-1.1,12.1-3.4,27-7.6,41.8h2.9c11.8-42.2,8.3-86.2,8.3-86.2l-2.7,0.2
				C284,423.9,285.5,443.3,283.1,468.1z"/>
			<path fill="#59B8E2" d="M74.2,378.8h-2.7l2.7,0.4C74.2,379.2,74.2,379,74.2,378.8z"/>
			<path fill="#59B8E2" d="M71.5,378.8h-2.7c-0.2,21.7,6.5,57,20.3,105.2c2.7,9.2,5.1,17.9,7.6,25.9h2.7
				C87.4,470.6,71.1,411.4,71.5,378.8z"/>
			<path fill="#59B8E2" d="M102.4,509.9C90.3,470.8,74,411.6,74.2,379.5l-2.7-0.4l0,0c-0.4,32.4,15.9,91.8,27.9,131.1h2.9V509.9z"/>
			<path fill="#59B8E2" d="M206.2,473.9c0.4-24.1,0.2-43.1,0.2-43.3h-5.4c0,0.4,0.7,41.1-1.8,79.3h5.4
				C205.6,497.2,206,484.4,206.2,473.9z"/>
		</g>
		<g>
			<g>
				<g>
					<g>
						<path fill="#403942" d="M104.8,317.6c-0.4,0-0.7,0-1.1,0c-2.5-0.2-4.7-1.6-6.3-3.6c-1.6-2-2.2-4.5-2-6.9
							c4.9-39.8,33.3-79.7,34.4-81.5c1.8-2.5,4.7-3.8,7.6-3.8c2,0,3.8,0.7,5.4,1.8c2,1.6,3.4,3.6,3.8,6c0.4,2.5-0.2,4.9-1.6,6.9
							c-0.2,0.4-26.8,37.7-30.8,72.8c-0.4,4-3.4,7.1-7.4,8C106.2,317.6,105.5,317.6,104.8,317.6z"/>
					</g>
				</g>
				<g>
					<g>
						<path fill="#231F20" d="M137.4,224.4c1.3,0,2.7,0.4,3.8,1.3c2.9,2.2,3.6,6.3,1.6,9.4c-0.2,0.4-27.2,38.2-31.5,73.9
							c-0.4,2.9-2.5,5.1-5.1,5.8c-0.4,0-0.9,0.2-1.3,0.2c-0.2,0-0.4,0-0.9,0c-3.6-0.4-6.3-3.8-5.8-7.4c4.7-39.1,32.6-78.6,33.7-80.2
							C133.4,225.3,135.4,224.4,137.4,224.4 M137.4,219.1c-3.8,0-7.6,1.8-9.8,4.9c-1.1,1.8-29.9,42.2-34.8,82.6
							c-0.4,3.1,0.4,6.3,2.5,8.9c2,2.5,4.9,4,8,4.5c0.4,0,0.9,0,1.3,0c0.9,0,1.8,0,2.7-0.2c4.9-1.1,8.7-5.4,9.4-10.3
							c4-34.2,30.2-71,30.4-71.5c1.8-2.7,2.7-5.8,2-8.9c-0.4-3.1-2.2-6-4.9-7.8C142.6,220,140.1,219.1,137.4,219.1L137.4,219.1z"/>
					</g>
				</g>
			</g>
		</g>
		<g>
			<g>
				<g>
					<g>
						<path fill="#403942" d="M147,333.4c-4.2,0-8-2.9-9.2-7.1c-9.2-39.1,3.8-86.2,4.2-88.2c1.1-4,4.9-6.9,8.9-6.9
							c0.9,0,1.8,0.2,2.5,0.4c2.5,0.7,4.5,2.2,5.6,4.5c1.1,2.2,1.6,4.7,0.9,7.1c-0.2,0.4-12.3,44.7-4.2,78.8c0.9,3.8-0.7,7.8-4,10.1
							c-0.9,0.4-1.8,0.9-2.9,1.1C148.6,333.2,147.7,333.4,147,333.4L147,333.4z"/>
					</g>
				</g>
				<g>
					<g>
						<path fill="#231F20" d="M151.3,233.8c0.7,0,1.1,0,1.8,0.2c3.6,0.9,5.6,4.7,4.7,8.3c-0.2,0.4-12.5,45.3-4.2,80.2
							c0.7,2.9-0.7,5.8-2.9,7.1c-0.7,0.4-1.3,0.7-2,0.9c-0.4,0.2-1.1,0.2-1.6,0.2c-3.1,0-5.8-2-6.5-5.1c-9.2-38.4,3.8-85.1,4.2-86.9
							C145.7,235.6,148.4,233.8,151.3,233.8 M151.3,228.5c-5.4,0-10.1,3.6-11.6,8.7c-0.7,2-13.8,50-4.5,89.6c1.3,5.4,6,9.2,11.6,9.2
							c0.9,0,1.8,0,2.7-0.2c1.3-0.2,2.5-0.9,3.6-1.6c4.2-2.7,6.5-8,5.4-13c-8-33.5,4-77.1,4-77.5c0.9-3.1,0.4-6.3-1.1-9.2
							c-1.6-2.9-4.2-4.9-7.1-5.6C153.5,228.5,152.4,228.5,151.3,228.5L151.3,228.5z"/>
					</g>
				</g>
			</g>
		</g>
		<g>
			<g>
				<g>
					<g>
						<path fill="#403942" d="M50.3,262.2c-0.9,0-1.6,0-2.5-0.2c-0.9-0.2-2-0.7-2.9-1.3c-2-1.3-3.6-3.6-4-6c-0.4-2.5,0-4.9,1.3-6.9
							c22.3-33.3,65.9-55.8,67.9-56.7c1.3-0.7,2.7-1.1,4.2-1.1c3.6,0,6.7,2,8.3,5.1c1.1,2.2,1.3,4.7,0.7,7.1
							c-0.7,2.5-2.5,4.2-4.7,5.4c-0.4,0.2-41.1,21.2-60.8,50.5C56.1,260.6,53.2,262.2,50.3,262.2L50.3,262.2z"/>
					</g>
				</g>
				<g>
					<g>
						<path fill="#231F20" d="M114.4,192.5c2.5,0,4.7,1.3,6,3.6c1.8,3.4,0.4,7.4-2.9,8.9c-0.4,0.2-41.8,21.4-61.9,51.4
							c-1.3,2-3.4,2.9-5.6,2.9c-0.7,0-1.1,0-1.8-0.2c-0.7-0.2-1.3-0.4-2-0.9c-3.1-2-3.8-6.3-1.8-9.4c22.1-32.6,65-54.9,66.8-55.8
							C112.4,192.7,113.5,192.5,114.4,192.5 M114.4,187.1c-1.8,0-3.8,0.4-5.4,1.3c-1.8,0.9-46,23.7-68.8,57.6
							c-1.8,2.7-2.5,5.8-1.8,8.9s2.5,5.8,5.1,7.6c1.1,0.7,2.2,1.3,3.6,1.6c0.9,0.2,2,0.4,3.1,0.4c4,0,7.8-2,10.1-5.4
							c19.2-28.6,59.4-49.4,59.9-49.6c2.9-1.6,4.9-4,6-6.9c0.9-3.1,0.7-6.3-0.7-9.2C123.1,189.6,119.1,187.1,114.4,187.1
							L114.4,187.1z"/>
					</g>
				</g>
			</g>
		</g>
		<g>
			<g>
				<g>
					<g>
						<path fill="#403942" d="M73.3,295.7c-1.1,0-2-0.2-3.1-0.4c-2.5-0.9-4.2-2.5-5.4-4.7c-1.1-2.2-1.3-4.7-0.4-7.1
							c13.2-38,49.4-70.8,50.9-72.1c1.8-1.6,4-2.5,6.3-2.5c2.7,0,5.1,1.1,6.9,3.1c1.6,1.8,2.5,4.2,2.5,6.7c-0.2,2.5-1.3,4.7-3.1,6.5
							c-0.4,0.2-34.4,31-45.8,64.3C80.7,293.2,77.1,295.7,73.3,295.7z"/>
					</g>
				</g>
				<g>
					<g>
						<path fill="#231F20" d="M121.6,211.3c1.8,0,3.6,0.7,4.9,2.2c2.5,2.7,2.2,6.9-0.4,9.4c-0.4,0.2-34.8,31.5-46.5,65.4
							c-0.9,2.7-3.6,4.5-6.3,4.5c-0.7,0-1.6-0.2-2.2-0.4c-3.6-1.1-5.4-4.9-4-8.5c13-37.3,48.7-69.7,50.3-71
							C118.4,211.9,120,211.3,121.6,211.3 M121.6,205.9c-2.9,0-5.8,1.1-8,3.1c-1.6,1.3-38.4,34.8-51.8,73.3
							c-1.1,3.1-0.9,6.3,0.4,9.2c1.3,2.9,3.8,5.1,6.9,6c1.3,0.4,2.7,0.7,4,0.7c5.1,0,9.6-3.4,11.4-8c11.2-32.6,44.7-63,45.1-63.2
							c2.5-2.2,3.8-5.1,4-8.3c0.2-3.1-0.9-6.3-3.1-8.7C128.3,207.5,124.9,205.9,121.6,205.9L121.6,205.9z"/>
					</g>
				</g>
			</g>
		</g>
		<g>
			<g>
				<g>
					<g>
						<path fill="#403942" d="M264.5,317.1c-0.7,0-1.3,0-2-0.2c-3.8-0.9-6.9-4-7.4-8c-4-35.1-30.6-72.4-30.8-72.8
							c-1.6-2-2-4.5-1.6-6.9c0.4-2.5,1.8-4.7,3.8-6c1.6-1.1,3.6-1.8,5.4-1.8c2.9,0,5.8,1.6,7.6,3.8c1.1,1.8,29.7,41.5,34.4,81.5
							c0.2,2.5-0.4,4.9-2,6.9c-1.6,2-3.8,3.1-6.3,3.6C265.4,316.9,265,317.1,264.5,317.1z"/>
					</g>
				</g>
				<g>
					<g>
						<path fill="#231F20" d="M232.1,224c2,0,4,0.9,5.4,2.7c1.1,1.6,29.3,41.1,33.7,80.2c0.4,3.6-2.2,6.9-5.8,7.4
							c-0.2,0-0.4,0-0.9,0s-0.9,0-1.3-0.2c-2.7-0.7-4.9-2.9-5.1-5.8c-4.2-35.7-31-73.7-31.5-73.9c-2.2-2.9-1.6-7.1,1.6-9.4
							C229.2,224.2,230.6,224,232.1,224 M232.1,218.6L232.1,218.6c-2.5,0-4.9,0.7-6.9,2.2c-2.7,1.8-4.2,4.7-4.9,7.8
							c-0.4,3.1,0.2,6.3,2,8.9c0.2,0.4,26.4,37.3,30.4,71.5c0.7,5.1,4.5,9.2,9.4,10.3c0.9,0.2,1.8,0.2,2.7,0.2c0.4,0,0.9,0,1.3,0
							c3.1-0.4,6-2,8-4.5c2-2.5,2.9-5.6,2.5-8.9c-4.7-40.4-33.5-81.1-34.8-82.6C239.5,220.4,235.9,218.6,232.1,218.6L232.1,218.6z"
							/>
					</g>
				</g>
			</g>
		</g>
		<g>
			<g>
				<g>
					<g>
						<path fill="#403942" d="M222.5,332.8c-0.7,0-1.6,0-2.2-0.2c-1.1-0.2-2-0.7-2.9-1.1c-3.4-2.2-4.9-6.3-4-10.1
							c8-34.2-4-78.4-4.2-78.8c-0.7-2.5-0.4-4.9,0.9-7.1c1.1-2.2,3.1-3.8,5.6-4.5c0.9-0.2,1.8-0.4,2.5-0.4c4.2,0,7.8,2.9,8.9,6.9
							c0.7,2,13.6,49.4,4.2,88.2C230.6,329.9,226.8,332.8,222.5,332.8z"/>
					</g>
				</g>
				<g>
					<g>
						<path fill="#231F20" d="M218.3,233.2c2.9,0,5.6,2,6.5,4.9c0.4,2,13.4,48.7,4.2,86.9c-0.7,3.1-3.6,5.1-6.5,5.1
							c-0.4,0-1.1,0-1.6-0.2c-0.7-0.2-1.3-0.4-2-0.9c-2.2-1.6-3.6-4.2-2.9-7.1c8.3-35.1-4-79.7-4.2-80.2c-0.9-3.6,1.1-7.1,4.7-8.3
							C216.9,233.4,217.6,233.2,218.3,233.2 M218.3,227.8c-1.1,0-2.2,0.2-3.4,0.4c-3.1,0.9-5.6,2.9-7.1,5.6c-1.6,2.9-2,6-1.1,9.2
							c0.2,0.4,12.1,44,4,77.5c-1.1,4.9,0.9,10.3,5.4,13c1.1,0.7,2.5,1.3,3.6,1.6c0.9,0.2,1.8,0.2,2.7,0.2c5.6,0,10.5-3.8,11.6-9.2
							c9.4-39.8-3.8-87.6-4.5-89.6C228.3,231.4,223.6,227.8,218.3,227.8L218.3,227.8z"/>
					</g>
				</g>
			</g>
		</g>
		<g>
			<g>
				<g>
					<g>
						<path fill="#403942" d="M319.2,261.5c-3.1,0-6-1.6-7.8-4c-19.7-29.3-60.3-50.3-60.8-50.5c-2.2-1.1-3.8-3.1-4.7-5.4
							c-0.7-2.5-0.7-4.9,0.7-7.1c1.6-3.1,4.7-5.1,8.3-5.1c1.6,0,2.9,0.4,4.2,1.1c1.8,0.9,45.3,23.5,67.9,56.7c1.3,2,2,4.5,1.3,6.9
							c-0.4,2.5-1.8,4.5-4,6c-0.9,0.7-1.8,1.1-2.9,1.3C321,261.5,320.1,261.5,319.2,261.5z"/>
					</g>
				</g>
				<g>
					<g>
						<path fill="#231F20" d="M254.9,192.1c1.1,0,2,0.2,3.1,0.7c1.8,0.9,44.9,23.2,66.8,55.8c2,3.1,1.3,7.1-1.8,9.4
							c-0.7,0.4-1.3,0.7-2,0.9c-0.7,0.2-1.1,0.2-1.8,0.2c-2.2,0-4.2-1.1-5.6-2.9c-20.1-29.9-61.4-51.1-61.9-51.4
							c-3.4-1.8-4.7-5.8-2.9-8.9C250.2,193.4,252.7,192.1,254.9,192.1 M254.9,186.7L254.9,186.7c-4.5,0-8.7,2.5-10.7,6.5
							c-1.6,2.9-1.8,6-0.7,9.2c0.9,3.1,3.1,5.6,6,6.9c0.4,0.2,40.7,21,59.9,49.6c2.2,3.4,6,5.4,10.1,5.4c1.1,0,2-0.2,3.1-0.4
							c1.3-0.4,2.5-0.9,3.6-1.6c2.7-1.8,4.5-4.5,5.1-7.6c0.7-3.1,0-6.3-1.8-8.9c-22.8-33.7-67-56.7-68.8-57.6
							C258.7,187.1,256.9,186.7,254.9,186.7L254.9,186.7z"/>
					</g>
				</g>
			</g>
		</g>
		<g>
			<g>
				<g>
					<g>
						<path fill="#403942" d="M296.2,295c-4,0-7.6-2.5-8.9-6.3c-11.6-33.3-45.6-64.1-45.8-64.3c-1.8-1.6-2.9-4-3.1-6.5
							c-0.2-2.5,0.7-4.9,2.5-6.7c1.8-2,4.2-3.1,6.9-3.1c2.2,0,4.5,0.9,6.3,2.5c1.6,1.3,38,34.4,50.9,72.1c0.9,2.5,0.7,4.9-0.4,7.1
							s-2.9,4-5.4,4.7C298.5,295,297.4,295,296.2,295z"/>
					</g>
				</g>
				<g>
					<g>
						<path fill="#231F20" d="M248,210.8c1.6,0,3.1,0.7,4.5,1.8c1.6,1.3,37.3,34,50.3,71c1.1,3.6-0.7,7.4-4,8.5
							c-0.7,0.2-1.6,0.4-2.2,0.4c-2.7,0-5.4-1.8-6.3-4.5c-11.8-34-46.2-65.2-46.5-65.4c-2.7-2.5-2.9-6.7-0.4-9.4
							C244.2,211.5,246.2,210.8,248,210.8 M248,205.5L248,205.5c-3.4,0-6.7,1.6-8.9,4s-3.1,5.4-3.1,8.7c0.2,3.1,1.6,6.3,4,8.3
							c0.2,0.2,33.7,30.8,45.1,63.2c1.6,4.9,6.3,8,11.4,8c1.3,0,2.7-0.2,4-0.7c3.1-1.1,5.6-3.1,6.9-6c1.3-2.9,1.6-6.3,0.4-9.2
							c-13.4-38.6-50.3-71.9-51.8-73.3C253.8,206.6,250.9,205.5,248,205.5L248,205.5z"/>
					</g>
				</g>
			</g>
		</g>
		<g>
			<path fill="#FBFCFA" d="M218.3,417c62.8,34.6,102.5,18.8,119.3,7.6c6-4,8.3-10.9,8-18.3c-2.5-70.8-56.1-94.7-56.1-94.7
				s-4.7,24.3-24.3,47.1"/>
		</g>
		<g>
			<path fill="#77787C" d="M289.5,440.7c-22.6,0-46.9-7.1-72.8-21.4l2.7-4.7c27,15,52.3,21.9,75.5,20.5c19.2-1.1,33.1-7.6,41.1-13
				c6.3-4.2,6.9-11.8,6.7-15.9c-1.3-35.7-16.1-59-28.4-72.1c-9.4-10.3-18.8-16.1-23.5-18.5c-2,7.6-8.3,26.8-24.1,44.9l-4-3.6
				c19-21.9,23.7-45.6,23.7-46l0.7-3.4l3.1,1.3c0.7,0.2,14.1,6.3,27.9,21.4c12.7,13.8,28.4,38.2,29.7,75.5
				c0.2,9.2-2.9,16.5-9.2,20.5c-8.7,5.8-23.2,12.7-43.8,13.8C293.3,440.7,291.5,440.7,289.5,440.7z"/>
		</g>
		<g>
			<path fill="#74D3ED" d="M74,305.1c0,0,15.9-6.3,29.9-2.9c0,0,77.7-41.5,142.7-0.2c0,0,26.4,0.2,49.4,12.3c0,0-6.7,16.5-21.2,36
				L160,430.6l-50.5-41.3c0,0-12.1-20.5-23.2-33.5C86.3,356.2,69.5,325.2,74,305.1z"/>
		</g>
		<g>
			<path fill="#59B8E2" d="M159.8,434.2l-52.5-42.9l-0.2-0.4c-0.2-0.2-12.1-20.5-22.8-33.1l-0.2-0.2l-0.2-0.2
				c-0.7-1.3-17.2-32.2-12.7-52.7l0.2-1.3l1.3-0.4c0.4-0.2,10.5-4,21.9-4c3.1,0,6,0.2,8.7,0.9c5.8-2.9,38-18.3,77.3-18.3
				c24.8,0,47.1,6.3,66.6,18.3c4.7,0.2,28.6,1.3,49.8,12.7l2.2,1.1l-0.9,2.2c-0.2,0.7-6.9,17-21.4,36.4l-0.2,0.4L159.8,434.2z
				 M111.5,387.7l48.7,39.8L273,348.4c10.9-14.5,17.2-27.7,19.7-32.6c-21.4-10.7-45.8-10.9-46-10.9H246l-0.7-0.4
				c-18.8-11.8-40.4-17.9-64.3-17.9c-41.1,0-75.5,18.1-75.7,18.1l-0.9,0.4l-0.9-0.2c-2.5-0.7-5.4-0.9-8.5-0.9
				c-8,0-15.6,2.2-18.5,3.1c-2.9,17.9,10.7,44.7,12.3,47.4C98.8,366.5,109.7,384.8,111.5,387.7z"/>
		</g>
		<g>
			<path fill="#D3957D" d="M122.7,232.7c0,2.7,23.9,36.4,27.2,57.8c3.4,22.6,5.4,21,5.4,21l-2.9,2.2l30.6,24.1l41.3-34l-4.2-5.1
				c0,0-6.7-29.9,27.9-73.3"/>
		</g>
		<g>
			<path fill="#AA5B3F" d="M183,341.3l-34.8-27.5l3.6-2.7c-1.1-2.9-2.7-8.5-4.5-20.1c-2.2-14.7-15.2-36.4-22.1-48
				c-4.5-7.6-5.1-8.9-5.1-10.3h5.4c0-0.2,0-0.4,0-0.4c0.2,0.9,2.5,4.5,4.5,8c7.6,12.7,20.3,34,22.8,49.8c2.5,16.5,4.2,19.2,4.5,19.4
				c-0.4-0.7-1.8-1.1-3.1-0.2l3.1,4.2l-0.2,0.2l26.1,20.8l37.5-31l-2.9-3.6l-0.2-0.7c-0.2-1.3-6.5-31.7,28.4-75.5l4.2,3.4
				c-30.8,38.6-28.1,66.1-27.5,70.4l5.4,6.7L183,341.3z"/>
		</g>
		<g>
			<path fill="#231F20" d="M181.7,197.9c2,0,3.8,0.2,5.8,0.4l28.4,4.5c4.2,0.7,6.9,4.5,6.5,8.5l-0.7,6.7l39.5-17.6
				c-0.7,11.4-5.6,22.1-13.8,30.2l-34.4,36.2c-0.9,0.9-1.6,1.6-2.7,2.2c-5.4,3.6-14.5,7.6-28.8,7.8c-14.3-0.4-23.5-4.5-28.8-7.8
				c-0.9-0.7-1.8-1.3-2.7-2.2l-34.2-36.2c-8-8-13-18.8-13.8-30.2l8,4l31.5,13.8l-0.7-6.7c-0.4-4.2,2.5-8,6.5-8.5l28.4-4.5
				C177.6,198.1,179.6,197.9,181.7,197.9 M181.7,241.9l21.7-0.4c2.9,0,5.4-2.2,5.6-5.1l3.1-22.8c0.2-0.9-0.4-1.8-1.3-1.8l-26.8-5.1
				c-0.7-0.2-1.6-0.2-2.2-0.2s-1.6,0-2.2,0.2l-26.8,5.1c-0.9,0.2-1.6,0.9-1.3,1.8l2.9,22.8c0.4,2.9,2.7,4.9,5.6,5.1L181.7,241.9
				 M181.7,192.5c-2.2,0-4.5,0.2-6.5,0.4l-28.4,4.5c-6.3,0.9-10.7,6-11.2,12.1l-23.2-10.1l-7.8-3.8c-0.7-0.4-1.6-0.4-2.5-0.4
				c-1.1,0-2,0.2-2.9,0.9c-1.6,1.1-2.5,2.9-2.5,4.7c0.9,12.7,6.3,24.6,15.2,33.5l34.4,36c1.1,1.1,2.2,2,3.6,2.9
				c5.8,3.8,15.9,8.5,31.5,8.7c0,0,0,0,0.2,0c0,0,0,0,0.2,0c15.9-0.4,25.9-4.9,31.5-8.7c1.3-0.9,2.5-1.8,3.6-2.9l34.2-36
				c8.9-8.9,14.5-21,15.2-33.5c0.2-1.8-0.7-3.6-2.2-4.7c-0.9-0.7-2-0.9-3.1-0.9c-0.7,0-1.6,0.2-2.2,0.4l-31,13.8
				c-0.4-6-4.9-10.9-11.2-11.8l-28.4-4.5C185.9,192.7,183.7,192.5,181.7,192.5L181.7,192.5z M156.9,216.2l23.5-4.5
				c0.4,0,0.9-0.2,1.3-0.2c0.4,0,0.9,0,1.3,0.2l23.5,4.5l-2.7,19.4c0,0.2-0.2,0.4-0.4,0.4l-21.7,0.4l-21.7-0.4
				c-0.2,0-0.4-0.2-0.4-0.4L156.9,216.2L156.9,216.2z"/>
		</g>
		<g>
			<path fill="#3B353D" d="M261.2,200.3L221.6,218l0.7-6.7c0.4-4.2-2.5-8-6.5-8.5l-28.4-4.5c-3.8-0.7-7.6-0.7-11.4,0l-28.4,4.5
				c-4.2,0.7-6.9,4.5-6.5,8.5l0.7,6.7l-31.5-13.8l-8-4c0.7,11.4,5.6,22.1,13.8,30.2l34.4,36.2c0.7,0.9,1.6,1.6,2.7,2.2
				c5.4,3.6,14.5,7.6,28.8,7.8c14.3-0.4,23.5-4.5,28.8-7.8c0.9-0.7,1.8-1.3,2.7-2.2l34.4-36.2C255.4,222.4,260.3,211.7,261.2,200.3
				 M212,213.5l-3.1,22.8c-0.4,2.9-2.7,4.9-5.6,5.1l-21.7,0.4l-21.7-0.4c-2.9,0-5.4-2.2-5.6-5.1l-3.1-22.8c-0.2-0.9,0.4-1.8,1.3-1.8
				l26.8-5.1c1.6-0.2,3.1-0.2,4.7,0l26.8,5.1C211.6,211.7,212.3,212.6,212,213.5z"/>
		</g>
		<g>
			<ellipse fill="#403942" cx="181.7" cy="138" rx="95.4" ry="99.6"/>
		</g>
		<g>
			<path fill="#231F20" d="M181.7,240.3c-54.1,0-98.1-45.8-98.1-102.3s44-102.3,98.1-102.3s98.1,45.8,98.1,102.3
				S235.7,240.3,181.7,240.3z M181.7,41.1C130.5,41.1,89,84.4,89,138s41.5,96.9,92.7,96.9s92.7-43.6,92.7-96.9
				S232.8,41.1,181.7,41.1z"/>
		</g>
		<g>
			<circle fill="#CE866A" cx="262.3" cy="176" r="14.5"/>
		</g>
		<g>
			<circle fill="#CE866A" cx="100.8" cy="176" r="14.5"/>
		</g>
		<g>
			<g>
				<path fill="#D3957D" d="M181.7,259.5c-35.1,0-66.3-26.6-78.4-66.6c-0.9,0.2-1.6,0.2-2.5,0.2c-9.4,0-17.2-7.6-17.2-17.2
					c0-8.5,6.3-15.6,14.5-17c0-0.4,0-0.9,0-1.1c0-26.6,8.7-50.7,24.3-67.9c15.4-16.8,36.4-25.9,59.2-25.9s43.8,9.2,59,25.9
					c15.6,17.2,24.3,41.3,24.3,67.9c0,0.4,0,0.9,0,1.1c8.3,1.3,14.5,8.5,14.5,17c0,9.4-7.6,17.2-17.2,17.2c-0.9,0-1.6,0-2.5-0.2
					C248,232.9,216.7,259.5,181.7,259.5z"/>
			</g>
		</g>
		<g>
			<g>
				<path fill="#AA5B3F" d="M181.7,66.8c44.7,0,80.9,36.4,80.9,91.1c0,1.1,0,2.5,0,3.6l0,0c8,0,14.5,6.5,14.5,14.5
					c0,8-6.5,14.5-14.5,14.5c-1.6,0-2.9-0.2-4.2-0.7c-10.9,39.1-41.1,67.2-76.6,67.2S116,228.9,105,189.8c-1.3,0.4-2.9,0.7-4.2,0.7
					c-8,0-14.5-6.5-14.5-14.5c0-8,6.5-14.5,14.5-14.5l0,0c0-1.1,0-2.5,0-3.6C100.8,102.9,137,66.8,181.7,66.8 M181.7,61.4
					c-23.5,0-45.3,9.6-61,26.8c-8,8.7-14.1,19-18.3,30.6c-4.2,11.8-6.5,24.6-6.7,38.2c-8.3,2.2-14.5,10.1-14.5,19
					c0,10.9,8.9,19.9,19.9,19.9c0.2,0,0.4,0,0.4,0c12.7,40,44.7,66.6,80.4,66.6s67.5-26.6,80.4-66.6c0.2,0,0.4,0,0.4,0
					c10.9,0,19.9-8.9,19.9-19.9c0-9.2-6-16.8-14.5-19c0-13.6-2.5-26.4-6.7-38.2c-4.2-11.6-10.5-21.9-18.3-30.6
					C226.8,70.8,205.1,61.4,181.7,61.4L181.7,61.4z"/>
			</g>
		</g>
		<g>
			<g>
				<path fill="#632C1D" d="M181,224.9c-3.8,0-7.8-0.4-11.4-1.3c-1.1-0.2-2.5-0.7-3.6-1.1l-4.7-1.3c-1.3-0.4-2.2-2-1.8-3.4
					c0.4-1.3,2-2.2,3.4-1.8l4.7,1.3c1.1,0.4,2.2,0.7,3.4,0.9c9.6,2.5,20.1,1.3,28.8-3.1c1.3-0.7,2.9-0.2,3.6,1.1
					c0.7,1.3,0.2,2.9-1.1,3.6C195.7,223.1,188.4,224.9,181,224.9z"/>
			</g>
		</g>
		<g>
			<g>
				<path fill="#AA5B3F" d="M193,191.4c-0.4,0-0.9-0.2-1.3-0.4c-10.1-6-20.3,0-20.3,0c-1.3,0.7-2.9,0.4-3.6-0.9
					c-0.7-1.3-0.4-2.9,0.9-3.6c0.4-0.2,13.2-7.6,25.9,0c1.3,0.7,1.8,2.5,0.9,3.6C194.8,190.9,194.2,191.4,193,191.4z"/>
			</g>
		</g>
		<g>
			<g>
				<g>
					<g>
						<path fill="#231F20" d="M223.2,192.1c-6.3,0-21.4-0.9-29.7-10.3l-0.2-0.2c-0.2-0.4-8-10.7-8-30.2c0-6.7,3.6-19.7,17-22.1
							c0.2,0,7.8-1.3,18.8-1.3c12.7,0,24.6,1.8,35.3,4.9c4,1.3,6.7,4.7,6.9,8.9c0.7,8.3,1.1,29.3-9.6,42.7c-0.9,1.1-2.2,2.2-3.6,2.9
							c-3.6,1.8-11.8,4.7-24.8,4.7C225,192.1,224.3,192.1,223.2,192.1z M200.9,176c5.8,6.3,18.5,6.9,22.3,6.9c1.1,0,1.8,0,1.8,0h0.2
							c11.8,0,18.5-2.7,21-3.8c0.2,0,0.2-0.2,0.2-0.2c8.7-10.7,8.3-28.8,7.6-36.2c0-0.2-0.2-0.7-0.4-0.7c-9.6-3.1-20.5-4.7-32.4-4.7
							c-10.1,0-17,1.1-17.2,1.1c-9.2,1.6-9.2,12.5-9.2,13C194.8,166.4,200,174.9,200.9,176z"/>
					</g>
				</g>
				<g>
					<g>
						<path fill="#231F20" d="M139.9,192.1c-1.1,0-1.8,0-2,0c-13.2,0-21.2-2.9-24.8-4.7c-1.6-0.7-2.7-1.6-3.6-2.9
							c-10.7-13.4-10.3-34.4-9.6-42.7c0.2-4.2,3.1-7.6,6.9-8.9c10.7-3.4,22.6-4.9,35.3-4.9c10.9,0,18.3,1.3,18.8,1.3
							c13.4,2.5,17,15.6,17,22.1c0,19.2-7.6,29.7-8,30.2l-0.2,0.4C161.6,191.2,146.1,192.1,139.9,192.1z M138.3,182.7
							c0,0,0.7,0,1.8,0c3.8,0,16.5-0.4,22.3-6.9c0.7-1.1,6-9.4,6-24.3c0-0.4-0.2-11.4-9.4-13c0,0-7.1-1.1-17.2-1.1
							c-11.8,0-22.8,1.6-32.4,4.7c-0.2,0-0.4,0.4-0.4,0.7c-0.7,7.1-0.9,25.2,7.6,36.2l0.2,0.2c2.5,1.1,9.2,3.8,21,3.8L138.3,182.7
							L138.3,182.7z"/>
					</g>
				</g>
				<g>
					<g>
						<path fill="#231F20" d="M167.8,138c0,0,12.7,2,27.2,0c0,0-5.4,3.8-5.1,16.1c0,0-8.9-1.3-17,0
							C172.9,154.1,174.1,142.9,167.8,138z"/>
					</g>
					<g>
						<path fill="#231F20" d="M170,157.4l0.2-3.4c0.2-2.7,0-10.5-4-13.6l-8-6.5l10.3,1.8c0,0,5.6,0.9,13.2,0.9
							c4.5,0,8.9-0.2,13.2-0.9l10.9-1.6l-8.9,6l0,0c0,0-4.2,3.4-4,13.8v3.1l-3.1-0.4c0,0-3.8-0.7-8.7-0.7c-2.7,0-5.4,0.2-7.6,0.7
							L170,157.4z M181,151c2.5,0,4.7,0.2,6.5,0.2c0.2-4.2,1.1-7.4,2.2-9.8c-2.7,0.2-5.4,0.2-8,0.2c-3.1,0-5.8-0.2-8-0.2
							c1.6,3.4,2,7.1,2,9.6C177.4,151,179.2,151,181,151z"/>
					</g>
				</g>
			</g>
			<g>
				<g>
					<g>
						<path fill="#231F20" d="M218.3,162.6c-2.7,0-4.7-2.7-4.7-6.3s2-6.3,4.7-6.3s4.7,2.7,4.7,6.3S221,162.6,218.3,162.6z"/>
					</g>
					<g>
						<path fill="#231F20" d="M218.3,162.8c-2.9,0-5.1-2.9-5.1-6.7c0-3.8,2.2-6.7,5.1-6.7s5.1,2.9,5.1,6.7
							C223.4,159.9,221.2,162.8,218.3,162.8z M218.3,150.3c-2.5,0-4.5,2.7-4.5,6c0,3.4,2,6,4.5,6c2.5,0,4.5-2.7,4.5-6
							C222.5,152.8,220.7,150.3,218.3,150.3z"/>
					</g>
				</g>
			</g>
			<g>
				<g>
					<g>
						<path fill="#231F20" d="M144.8,163c-2.7,0-4.7-2.7-4.7-6.3c0-3.6,2-6.3,4.7-6.3s4.7,2.7,4.7,6.3
							C149.5,160.3,147.5,163,144.8,163z"/>
					</g>
					<g>
						<path fill="#231F20" d="M144.8,163.2c-2.9,0-5.1-2.9-5.1-6.7s2.2-6.7,5.1-6.7s5.1,2.9,5.1,6.7
							C149.9,160.3,147.7,163.2,144.8,163.2z M144.8,150.7c-2.5,0-4.5,2.7-4.5,6c0,3.4,2,6,4.5,6c2.5,0,4.5-2.7,4.5-6
							C149.3,153.2,147.3,150.7,144.8,150.7z"/>
					</g>
				</g>
			</g>
			<g>
				<g>
					<circle fill="none" cx="220.1" cy="154.3" r="1.8"/>
				</g>
			</g>
			<g>
				<g>
					<circle fill="none" cx="146.6" cy="154.3" r="1.8"/>
				</g>
			</g>
		</g>
		<g>
			<path fill="#403942" d="M261.2,200.5l-39.5,17.9l0.7-6.7c0.4-4.2-2.5-8-6.5-8.5l-28.4-4.5c-3.8-0.7-7.6-0.7-11.4,0l-28.4,4.5
				c-4.2,0.7-6.9,4.5-6.5,8.5l0.7,6.7l-31.5-13.8l-8.3-4c0.7,11.4,5.6,22.1,13.8,30.2l34.4,36.2c0.7,0.9,1.6,1.6,2.7,2.2
				c5.4,3.6,14.5,7.6,28.8,7.8c14.3-0.4,23.5-4.5,28.8-7.8c0.9-0.7,1.8-1.3,2.7-2.2l34.4-36.2C255.4,222.7,260.3,211.9,261.2,200.5
				 M212,213.7l-3.1,22.8c-0.4,2.9-2.7,4.9-5.6,5.1l-21.7,0.4l-21.7-0.4c-2.9,0-5.4-2.2-5.6-5.1l-3.1-22.8c-0.2-0.9,0.4-1.8,1.3-1.8
				l26.8-5.1c1.6-0.2,3.1-0.2,4.7,0l26.8,5.1C211.6,212.2,212.3,212.8,212,213.7z"/>
		</g>
		<g>
			<path fill="#80DBF5" d="M203.8,430.6"/>
		</g>
		<g>
			<path fill="#FBFCFA" d="M145.7,381c10.7-19.7,116.6-40.4,116.6-40.4c11.2,8,19,34.8,19,34.8c-76.6,70.6-131.8,73-131.8,73
				c-48.2-3.4-97.4-77.5-97.4-77.5c-22.1-34.2,4.7-56.1,4.7-56.1c4.7-4,9.6-6.7,14.5-8.5c0,0,33.1,12.5,49.6,68.3"/>
		</g>
		<g>
			<path fill="#77787C" d="M149.5,450.9L149.5,450.9c-20.8-1.3-44-15.2-68.6-40.9c-18.3-19-30.8-37.7-30.8-38
				C38,353.5,40,338.4,43.8,328.8c4-10.3,11.2-16.1,11.4-16.3c4.5-3.8,9.6-6.9,15.2-8.9l0.9-0.2l0.9,0.4
				c1.3,0.4,34.4,13.6,51.1,69.9l-5.1,1.6c-14.3-48.7-41.5-63.7-46.9-66.1c-4.7,2-8.9,4.5-12.7,7.8c-1.1,0.9-24.6,21-4.2,52.7
				c0.4,0.7,48.7,72.8,95.2,76.2c1.6,0,15-1.1,36.4-9.8c20.8-8.5,53.6-25.9,92.2-61.2c-1.8-5.6-8.3-24.1-16.5-31
				c-42.2,8.5-106.3,25.5-113.7,38.9l-4.7-2.5c4.9-8.9,25.7-18.3,63.9-28.8c27.7-7.6,54.3-13,54.5-13l1.1-0.2l0.9,0.7
				c11.8,8.5,19.7,35.1,19.9,36.2l0,0c0.2,0.9,0,2-0.7,2.7l0,0c-40,36.9-73.9,54.7-95.4,63.4C164.2,450.3,150.2,450.9,149.5,450.9
				L149.5,450.9z"/>
		</g>
		<g>
			<path fill="#80DBF5" d="M203.8,430.6c0,0-2-47.4-12.5-90"/>
		</g>
		<g>
			<path fill="#59B8E2" d="M201.1,430.8c0-0.4-2-47.6-12.5-89.6l5.1-1.3c10.5,42.4,12.5,90.2,12.7,90.7L201.1,430.8z"/>
		</g>
		<g>
			<g>
				<circle fill="#74D3ED" cx="250.2" cy="363.2" r="27.7"/>
				<path fill="#59B8E2" d="M250.2,393.5c-16.8,0-30.4-13.6-30.4-30.4s13.6-30.4,30.4-30.4s30.4,13.6,30.4,30.4
					S266.8,393.5,250.2,393.5z M250.2,338.1c-13.8,0-25,11.2-25,25s11.2,25,25,25s25-11.2,25-25C275,349.3,263.9,338.1,250.2,338.1z
					"/>
			</g>
			<g>
				<rect x="248" y="351.3" fill="#FBFCFA" width="5.4" height="38.9"/>
			</g>
			<g>
				<path fill="#FBFCFA" d="M240.2,366.5c-0.4,0-1.1-0.2-1.6-0.4c-1.1-0.9-1.6-2.5-0.7-3.8l9.8-13.6c0.4-0.7,1.1-1.1,2-1.1
					c0.7,0,1.6,0.2,2,0.7l10.5,10.5c1.1,1.1,1.1,2.7,0,3.8s-2.7,1.1-3.8,0L250,354l-8,10.9C241.7,366.1,241.1,366.5,240.2,366.5z"/>
			</g>
			<g>
				<path fill="#59B8E2" d="M250,393.5c-16.8,0-30.4-13.6-30.4-30.4s13.6-30.4,30.4-30.4s30.4,13.6,30.4,30.4S266.8,393.5,250,393.5
					z M250,338.1c-13.8,0-25,11.2-25,25s11.2,25,25,25s25-11.2,25-25S263.9,338.1,250,338.1z"/>
			</g>
		</g>
		<g>
			<path fill="#FBFCFA" d="M228.8,358.9c-0.2,0-0.7,0-0.9-0.2c-1.3-0.4-2-2-1.6-3.4c5.4-14.3,18.1-16.5,18.8-16.5
				c1.6-0.2,2.9,0.7,3.1,2.2c0.2,1.6-0.7,2.9-2.2,3.1c-0.4,0-10.3,1.8-14.5,13.2C231,358.2,229.9,358.9,228.8,358.9z"/>
		</g>
		<g>
			<path fill="#FBFCFA" d="M134.3,365.4c2.7,0.7,9.8,13.4,9.8,13.4c10.7-19.7,117.9-38.2,117.9-38.2c11.2,8,19,34.8,19,34.8
				c-76.6,70.6-131.8,73-131.8,73s-57.2-57.2-61.9-59"/>
		</g>
		<g>
			<path fill="#74D3ED" d="M278.6,373c-0.7,0-1.6-0.4-2-0.9c-0.2-0.2-15.6-18.5-29.7-22.3c-1.1-0.2-2-1.3-2-2.7s0.9-2.2,2-2.5l8.3-2
				c1.3-0.2,2.9-0.4,4.5-0.4c6.5,0,12.3,3.1,15.9,8.3c4.5,6.3,6.3,13.2,5.6,20.1c0,1.1-0.9,2-1.8,2.2C279,373,278.8,373,278.6,373z"
				/>
		</g>
		<g>
			<path fill="#59B8E2" d="M259.6,344.8c5.4,0,10.5,2.5,13.6,7.1c3.1,4.7,5.8,10.7,5.1,18.3c0,0-15.9-19.2-31-23l8.3-2
				C257.2,345.1,258.5,344.8,259.6,344.8 M259.6,339.5L259.6,339.5c-1.8,0-3.4,0.2-4.9,0.7l-8.3,2c-2.5,0.4-4,2.7-4.2,5.1
				c0,2.5,1.6,4.7,4,5.1c10.9,2.9,24.1,16.3,28.4,21.4c1.1,1.3,2.5,2,4,2c0.4,0,1.1,0,1.6-0.2c2-0.7,3.6-2.5,3.8-4.7
				c0.7-7.6-1.3-15.2-6-21.9C273.7,343.1,267,339.5,259.6,339.5L259.6,339.5z"/>
		</g>
		<polygon fill="#FBFCFA" points="239.7,344.8 260.9,349.3 279.5,371.2 277.5,377.2 250,364.5 		"/>
		<g>
			<path fill="#77787C" d="M149.5,450.9c-0.2,0-0.2,0-0.4,0c-0.4,0-7.6-1.1-13-2.5c-1.6-0.4-2.2-2-1.8-3.6l0,0
				c0.4-1.3,1.8-2,3.1-1.6c3.8,1.1,9.2,2,11.6,2.2c0.2,0,0.4,0,0.7,0c2.7-0.2,15.9-1.8,36.2-9.8c20.5-8.3,52.7-25.5,90.7-59.9
				c0.9-0.9,1.1-2.2,0.7-3.1c-6.7-13-14.3-19.2-20.5-22.8c-3.8-2.2-16.3-2.2-20.5-1.3l-4,0.7c-34,7.4-75,18.3-85.1,29
				c-0.4,0.7-1.3,0.9-2,0.9s-1.6-0.4-2-1.1c-3.4-4.5-8-9.4-9.4-10.1c0,0,0,0,0.2,0l0.4-1.6c0.4-2,2.9-2.7,4.2-1.3
				c1.8,1.6,3.6,3.6,5.4,5.8c0.9,1.1,2.5,1.3,3.6,0.4c16.3-10.7,60.1-21.7,88.7-27.9l0,0c4-0.9,15.6-2,22.8,0.9
				c0.2,0,0.2,0.2,0.4,0.2c1.3,0.7,8.3,5.1,11.6,8.7c10.5,11.2,12.5,20.3,13,21.4c0.2,0.9,0,2-0.7,2.7c-40,36.9-73.9,54.7-95.4,63.4
				C164,450.3,150.2,450.9,149.5,450.9L149.5,450.9z"/>
		</g>
		<g>
			<path fill="#D3957D" d="M151.3,358.2c-2-6-4.9-11.8-8.5-17.2c-3.4-5.1-7.6-10.3-13.4-12.1c-7.8-2.5-16.1,0.9-23.5,4.2
				c-0.9,0.4-1.8,0.9-2.9,1.3c-4.2,1.8-8.9,4.2-10.1,8.7c-0.4,2-0.2,4.2,0.2,6.3c1.3,6.3,3.6,12.5,6.5,18.3c3.6,7.6,8,15,15.2,19.2
				c2,1.1,4.2,2,6.5,2.2c3.1,0,5.8-1.3,8.5-2.7c7.6-4,15.4-8.9,20.1-16.1c1.3-2,2.5-4,2.5-6.3C152.6,362.3,152,360.2,151.3,358.2z"
				/>
		</g>
		<g>
			<path fill="#AA5B3F" d="M121.6,392L121.6,392c-0.2,0-0.2,0-0.4,0c-2.5,0-4.9-0.9-7.8-2.5c-8-4.9-13-13.4-16.1-20.3
				c-3.4-6.9-5.4-13-6.7-19c-0.4-2.5-0.9-4.9-0.2-7.6c1.6-6,8-8.9,11.4-10.5l2.9-1.3c6-2.7,12.3-5.4,18.8-5.4c2.2,0,4.5,0.4,6.5,1.1
				c7.1,2.5,11.8,8.7,14.7,13.2c3.6,5.6,6.5,11.6,8.7,17.9c0.7,2,1.6,4.5,1.3,6.9c-0.2,2.5-1.1,4.9-2.9,7.6
				c-5.4,8-13.6,13.2-21.2,17C128.3,390.6,125.1,392,121.6,392z M123.8,330.8c-5.4,0-11.2,2.5-16.5,4.9l-2.9,1.3
				c-3.6,1.6-7.6,3.8-8.5,6.9c-0.4,1.6-0.2,3.4,0.2,5.1c1.1,5.4,3.1,11.2,6.3,17.6c2.9,6.3,7.1,14.1,14.1,18.1
				c2,1.1,3.6,1.8,5.1,1.8h0.2c2.2,0,4.7-1.1,6.9-2.5c6.9-3.6,14.5-8.3,19.2-15.2c1.3-2,2-3.6,2-4.9c0-1.6-0.4-3.4-1.1-4.9
				c-2-5.8-4.7-11.4-8.3-16.5c-4-6-7.8-9.6-12.1-10.9C127.2,331,125.6,330.8,123.8,330.8z"/>
		</g>
		<g>
			<path fill="#FBFCFA" d="M149,285.9c0,0,9.2,31.7,44.2,43.6c0,0,16.3-6.3,25.9-41.5c0,0,13.2,6,17.6,8.7c0,0-8.7,44.9-42.4,54.3
				c0,0-55.2-17.2-63-59.6C131.4,291.2,140.3,287.7,149,285.9z"/>
		</g>
		<g>
			<path fill="#77787C" d="M194.4,353.5l-0.7-0.2c-0.7-0.2-14.3-4.5-29.3-14.3c-19.9-13-32.2-29.5-35.5-47.4l-0.4-2.2l2-0.9
				c0.4-0.2,9.2-3.6,18.1-5.6l2.5-0.4l0.7,2.5c0,0.2,8.9,29.7,41.3,41.3c1.3-0.7,4.2-2.7,7.8-6.7c4.5-5.1,10.9-15.2,15.6-32.4
				l0.9-3.1l2.9,1.3c0.4,0.2,13.4,6.3,17.9,8.9l1.6,0.9l-0.4,1.8c0,0.4-2.2,11.8-8.7,24.3c-8.7,17-21,27.9-35.5,31.9L194.4,353.5z
				 M134.5,293c8.3,36.2,53.6,52.9,59.9,55.2c27.5-8,37.3-41.8,39.3-50c-3.6-2-9.4-4.7-13-6.5c-10.1,33.3-25.9,40-26.6,40.2
				l-0.9,0.4l-0.9-0.2c-30.6-10.3-42.2-35.1-45.1-42.9C142.1,290.1,137.2,291.9,134.5,293z"/>
		</g>
	</g>
	<rect x="119" y="474.9" fill="#74D3ED" width="80.3" height="34.8"/>
	<rect x="208.8" y="474.9" fill="#74D3ED" width="65.8" height="34.8"/>
</g>
</svg>
