<?xml version="1.0" encoding="utf-8"?>
<!-- Generator: Adobe Illustrator 17.1.0, SVG Export Plug-In . SVG Version: 6.00 Build 0)  -->
<!DOCTYPE svg PUBLIC "-//W3C//DTD SVG 1.1//EN" "http://www.w3.org/Graphics/SVG/1.1/DTD/svg11.dtd">
<svg version="1.1" xmlns="http://www.w3.org/2000/svg" xmlns:xlink="http://www.w3.org/1999/xlink" x="0px" y="0px"
	 viewBox="0 0 622.4 496.4" enable-background="new 0 0 622.4 496.4" xml:space="preserve">
<g id="Layer_1">
	<g opacity="0.17">
		<g>
			<g>
				
					<rect x="268.8" y="283.2" transform="matrix(0.1746 0.9846 -0.9846 0.1746 648.4034 -204.5333)" fill="#FFFFFF" width="354.7" height="2.5"/>
			</g>
		</g>
	</g>
	<g opacity="0.17">
		<g>
			<g>
				
					<rect x="330.2" y="301.9" transform="matrix(0.1273 0.9919 -0.9919 0.1273 702.1122 -191.7397)" fill="#FFFFFF" width="259.6" height="2.5"/>
			</g>
		</g>
	</g>
	<g opacity="0.17">
		<g>
			<g>
				
					<rect x="488.1" y="146" transform="matrix(0.9894 0.1454 -0.1454 0.9894 49.3005 -67.9051)" fill="#FFFFFF" width="2.5" height="314.8"/>
			</g>
		</g>
	</g>
	<g>
		<g>
			<g>
				<path fill="#D3957D" d="M459,375.1c-2.9,4.5-4,9.8-5,15c-2.5,13.1-4.5,27.1,0.1,39.6c4.8,13.1,16.1,22.8,22.6,35.2
					c0,0,28.3-55.6,8.6-81.6"/>
			</g>
		</g>
		<g>
			<g>
				<path fill="#AA5B3F" d="M476.8,467.3l-1-1.9c-2.7-5.3-6.5-10.2-10.1-14.9c-4.8-6.3-9.8-12.8-12.6-20.4
					c-4.8-13-2.6-27.6-0.2-40.2c1.1-5.8,2.2-10.9,5.1-15.4l1.8,1.2c-2.7,4.2-3.8,9.1-4.8,14.6c-2.4,12.4-4.5,26.6,0.1,39.1
					c2.7,7.3,7.5,13.7,12.2,19.8c3.2,4.3,6.6,8.6,9.3,13.4c2.1-4.3,7.1-15.8,10.7-29c2.6-9.9,3.9-18.8,3.8-26.5
					c-0.1-9.6-2.4-17.3-6.8-23l1.7-1.3c4.6,6.1,7.1,14.3,7.2,24.3c0.1,7.9-1.2,17.1-3.9,27.1c-4.6,17.1-11.7,31.1-11.8,31.3
					L476.8,467.3z"/>
			</g>
		</g>
	</g>
	<g>
		<g>
			<g>
				<g>
					<path fill="#231F20" d="M511.2,255.2c5.5,0,9.5,1,9.5,1c41.9,10.1,30,70,30,70c-5,20.9-28.9,24.8-28.9,24.8
						c11.9-4.1,9-42.9,9-42.9c-2.1-38.2-39.8-40.8-39.8-40.8l-12.7,66.3c0.6,8.4,11.4,18.6,11.4,18.6c-14.2,0.1-25.8-16.9-25.8-16.9
						c-9.8-13.3-4.7-41.6-1.8-54.1c1.4-6.1,4.7-11.7,9.5-15.9c5.6-4.8,11.2-6,15.3-6c3.8,0,6.4,1,6.4,1
						C499,256.3,505.8,255.2,511.2,255.2 M511.1,252.9c-7,0-13.3,1.7-18.2,4.9c-1.2-0.3-3.4-0.8-6-0.7c-4.2,0-10.5,1.2-16.8,6.6
						c-5.1,4.4-8.6,10.3-10.2,17.1c-1.6,6.7-3.5,16.9-3.9,27.2c-0.5,12.9,1.6,22.6,6.1,28.8c0.8,1.2,12.6,18,27.6,17.9
						c0.9,0,1.8-0.6,2.1-1.4c0.3-0.9,0.1-1.8-0.5-2.5c-2.8-2.6-10.1-10.8-10.7-16.9l12.2-63.9c3.2,0.5,9.7,1.9,16.3,5.6
						c5.3,3,9.6,6.9,12.7,11.5c4,5.9,6.2,13,6.7,21.3c0,0,0,0,0,0c0,0.1,0.7,9.7,0,19.6c-0.4,5.7-1.2,10.4-2.4,14
						c-0.9,2.7-2.5,6.1-5,7c-1.1,0.4-1.7,1.6-1.5,2.7c0.3,1,1.2,1.7,2.2,1.7c0.1,0,0.2,0,0.4,0c0.3,0,6.4-1.1,13.3-4.8
						c9.2-5,15.2-12.5,17.4-21.7c0,0,0-0.1,0-0.1c0.1-0.6,3-15.5,0.7-32c-1.4-9.8-4.3-18-8.7-24.5c-5.6-8.3-13.6-13.7-23.7-16.1
						C520.8,253.9,516.7,252.9,511.1,252.9L511.1,252.9z"/>
				</g>
			</g>
		</g>
		<g>
			<g>
				<g>
					<ellipse fill="#403942" cx="503.8" cy="329.5" rx="34.8" ry="25.4"/>
				</g>
			</g>
		</g>
	</g>
	<g>
		<g>
			<g>
				<g>
					<path fill="#403942" d="M491.1,267.3c0,0,37.7,2.6,39.7,40.8c0,0,2.9,38.7-9,42.9c0,0,23.8-4,28.9-24.8c0,0,11.9-59.9-30-70
						c0,0-15.9-4.1-27.3,4.1c0,0-10.9-4.3-21.7,5c-4.8,4.1-8.1,9.7-9.5,15.8c-2.9,12.4-8,40.8,1.8,54.1c0,0,11.6,17,25.8,17
						c0,0-10.8-10.2-11.4-18.6"/>
				</g>
			</g>
		</g>
	</g>
	<g>
		<g>
			<g>
				<g>
					<path fill="#D3957D" d="M476.6,321.9c0,1.1,10.1,15.4,11.5,24.5c1.5,9.5-5.3,12.9-5.3,12.9l-7.3,12.7l27.5,24.4l27.8-12.5
						l-12.2-30.2c0,0-3.8-16.6,10.9-34.9"/>
				</g>
			</g>
		</g>
		<g>
			<g>
				<g>
					<path fill="#AA5B3F" d="M502.9,397.7l-28.8-25.5l8.3-13.2l0.2-0.8c0.1-0.1,6.4-3.6,4.3-11.6c-1.6-6.1-6.4-15.4-9.3-20.3
						c-1.9-3.2-2.2-3.8-2.2-4.4h2.3c0-0.1,0-0.2,0-0.2c0.1,0.4,1,1.9,1.9,3.4c3.2,5.4,8.1,14.5,9.6,21.1c2.1,8.7-3.8,12.7-5.1,13.3
						l-7.1,12.2l26.3,23.3l26.1-11.8L517.7,354l0-0.1c0-0.2-1-4.4-0.1-11c0.8-6,3.4-15.2,11.2-24.9l1.8,1.4
						c-7.4,9.2-9.9,18-10.7,23.7c-0.8,5.7-0.1,9.6,0,10.2l12.5,31.1L502.9,397.7z"/>
				</g>
			</g>
		</g>
	</g>
	<g>
		<g>
			<g>
				<g>
					<g>
						<path fill="#D3957D" d="M501.9,345.4c-14.9-0.5-27.8-12.2-32.3-29.3c-0.3,0-0.7,0.1-1,0c-4-0.1-7.2-3.5-7-7.5
							c0.1-3.6,2.9-6.5,6.4-7c0-0.2,0-0.3,0-0.5c0.4-11.3,4.4-21.4,11.2-28.4c6.7-6.9,15.7-10.5,25.4-10.2
							c9.7,0.3,18.4,4.5,24.7,11.8c6.4,7.5,9.8,17.8,9.4,29.1c0,0.2,0,0.3,0,0.5c3.5,0.7,6,3.7,5.9,7.4c-0.1,4-3.5,7.2-7.5,7
							c-0.3,0-0.7,0-1-0.1C530.4,334.9,516.8,345.8,501.9,345.4z"/>
					</g>
				</g>
			</g>
		</g>
		<g>
			<g>
				<g>
					<g>
						<g>
							<path fill="#AA5B3F" d="M504.5,263.7c18.9,0.6,33.8,16.5,33,39.7c0,0.5,0,1-0.1,1.5c0,0,0,0,0,0c3.4,0.1,6,2.9,5.9,6.3
								s-2.9,6-6.3,5.9c-0.6,0-1.2-0.1-1.8-0.3c-5.1,16.4-18.3,27.9-33.3,27.4c-15-0.5-27.4-12.8-31.5-29.5
								c-0.6,0.2-1.2,0.2-1.8,0.2c-3.4-0.1-6-2.9-5.9-6.3c0.1-3.4,2.9-6,6.3-5.9c0,0,0,0,0,0c0-0.5,0-1,0-1.5
								C469.8,278,485.6,263.1,504.5,263.7 M504.6,261.4c-10-0.3-19.3,3.4-26.2,10.5c-3.5,3.6-6.2,7.8-8.2,12.7
								c-2,4.9-3.1,10.3-3.3,16.1c-3.6,0.9-6.3,4-6.4,7.9c-0.1,4.6,3.5,8.5,8.1,8.7c0.1,0,0.1,0,0.2,0c4.9,17.1,18,28.8,33.1,29.3
								c15.1,0.5,29-10.3,34.9-27.1c0.1,0,0.1,0,0.2,0c4.6,0.1,8.5-3.5,8.7-8.1c0.1-3.8-2.4-7.2-5.9-8.3c0.1-5.8-0.6-11.2-2.3-16.3
								c-1.7-5-4.1-9.4-7.4-13.2C523.6,266,514.6,261.7,504.6,261.4L504.6,261.4z"/>
						</g>
					</g>
				</g>
			</g>
		</g>
	</g>
	<g>
		<g>
			<g>
				<g>
					<path fill="#CFAE84" d="M477.8,337"/>
				</g>
			</g>
		</g>
	</g>
	<g>
		<g>
			<g>
				<g>
					<path fill="#403942" d="M491,267.4c0,0,37.7,2.6,39.8,40.8c0,0,2.9,38.7-9,42.9c0,0,23.8-4,28.9-24.8c0,0,11.9-59.9-30-70
						c0,0-15.9-4.1-27.3,4.2c0,0-11.6-2.6-24.3,18.9l-6.9,21.9l6.8,3C469,304,468.3,277.4,491,267.4z"/>
				</g>
			</g>
		</g>
	</g>
	<g>
		<g>
			<g>
				<path fill="#D3957D" d="M502.6,334.4c-0.1,0-0.2,0-0.2,0c-13.3,0-17.8-7.8-18-8.1c-0.3-0.5-0.1-1.2,0.4-1.5
					c0.5-0.3,1.2-0.1,1.5,0.4c0.2,0.3,4.1,7,16.1,7l0,0c0.1,0,11.1,0.2,15.3-7c0.3-0.5,1-0.7,1.5-0.4c0.5,0.3,0.7,1,0.4,1.5
					C515,334,504.4,334.4,502.6,334.4z"/>
			</g>
		</g>
	</g>
	<g>
		<g>
			<g>
				<g>
					<g>
						<g>
							<path fill="#AA5B3F" d="M506.9,316.5c-0.2,0-0.4,0-0.6-0.2c-4.3-2.5-8.5-0.1-8.7,0c-0.5,0.3-1.2,0.1-1.6-0.4
								c-0.3-0.5-0.2-1.2,0.4-1.6c0.2-0.1,5.5-3.3,11-0.1c0.5,0.3,0.7,1,0.4,1.6C507.6,316.3,507.2,316.5,506.9,316.5z"/>
						</g>
					</g>
				</g>
			</g>
		</g>
	</g>
	<g>
		<g>
			<g>
				<path fill="none" d="M480.9,290.3c1.5-0.1,2.3-1.8,3.4-2.7c0.8-0.7,2-1,3-0.8"/>
			</g>
		</g>
	</g>
	<g>
		<path fill="#387BBF" d="M442.2,70.7c1.3,22-19.3,41.2-31.8,42c-11,0.7-35.3-15.8-36.6-37.9s12.9-40.8,31.8-42
			C424.5,31.7,440.9,48.6,442.2,70.7z"/>
		<path fill="#2869A5" d="M409.8,113.9c-11.9,0-35.8-16.5-37.2-39.1c-1.4-22.7,13.4-42.1,33-43.3c19.7-1.2,36.5,16.4,37.9,39
			c1.3,22.3-19.3,42.5-33,43.3C410.3,113.9,410,113.9,409.8,113.9z M407.4,34c-0.6,0-1.1,0-1.7,0.1c-18.2,1.1-31.9,19.3-30.6,40.7
			c1.2,20.8,23.9,36.7,34.7,36.7c0.2,0,0.4,0,0.6,0c12.4-0.7,31.9-20.1,30.6-40.7C439.7,50.1,425,34,407.4,34z"/>
	</g>
	<g>
		<path fill="#31BAFF" d="M551.6,111.7c-2.4,22-26,37.4-38.4,36c-10.9-1.2-32.1-21.5-29.7-43.5c2.4-22,19.6-38.1,38.4-36
			C540.7,70.2,554,89.7,551.6,111.7z"/>
		<path fill="#009DE2" d="M514.8,149c-0.6,0-1.2,0-1.7-0.1c-6-0.7-14.3-6.5-20.7-14.4c-4.4-5.5-11.6-16.9-10.1-30.4
			c2.3-21.3,18-37.3,36.4-37.3c1.1,0,2.3,0.1,3.4,0.2c19.5,2.1,33.3,22.3,30.8,44.9C550.5,133.4,528.5,149,514.8,149z M518.7,69.3
			c-17.1,0-31.7,15.1-33.9,35.1c-1.4,12.7,5.4,23.4,9.6,28.6c5.9,7.4,13.7,12.9,19,13.5c0.5,0.1,0.9,0.1,1.4,0.1
			c12.5,0,33.4-15,35.6-35c2.3-21.2-10.5-40.1-28.6-42.1C520.8,69.3,519.7,69.3,518.7,69.3z"/>
	</g>
	<g>
		<g>
			<g>
				<g>
					<path fill="#231F20" d="M517.6,306.2c-1.2,0-2-1.2-2-2.7c0-1.5,0.9-2.7,2-2.7c1.2,0,2,1.2,2,2.7
						C519.6,305.1,518.8,306.2,517.6,306.2z"/>
					<path fill="#231F20" d="M517.6,306.5c-1.3,0-2.3-1.3-2.3-2.9s1-2.9,2.3-2.9c1.3,0,2.3,1.3,2.3,2.9S518.9,306.5,517.6,306.5z
						 M517.6,301.1c-1,0-1.8,1.1-1.8,2.4s0.8,2.4,1.8,2.4c1,0,1.8-1.1,1.8-2.4S518.6,301.1,517.6,301.1z"/>
				</g>
			</g>
			<g>
				<g>
					<path fill="#231F20" d="M517.6,306.4c-1.2,0-2.2-1.2-2.2-2.8c0-1.6,0.9-2.8,2.2-2.8c1.2,0,2.2,1.2,2.2,2.8
						C519.8,305.1,518.9,306.4,517.6,306.4z M517.6,301c-1.1,0-1.9,1.1-1.9,2.6c0,1.5,0.8,2.6,1.9,2.6c1.1,0,1.9-1.1,1.9-2.6
						C519.5,302.1,518.7,301,517.6,301z"/>
					<path fill="#231F20" d="M517.6,306.6c-1.4,0-2.4-1.3-2.4-3.1s1-3.1,2.4-3.1s2.4,1.3,2.4,3.1S519,306.6,517.6,306.6z
						 M517.6,301.2c-0.9,0-1.6,1-1.6,2.3s0.7,2.3,1.6,2.3s1.6-1,1.6-2.3S518.5,301.2,517.6,301.2z"/>
				</g>
			</g>
		</g>
		<g>
			<g>
				<g>
					<path fill="#231F20" d="M486.3,306.4c-1.2,0-2-1.2-2-2.7c0-1.5,0.9-2.7,2-2.7c1.2,0,2,1.2,2,2.7
						C488.4,305.3,487.5,306.4,486.3,306.4z"/>
					<path fill="#231F20" d="M486.3,306.7c-1.3,0-2.3-1.3-2.3-2.9s1-2.9,2.3-2.9s2.3,1.3,2.3,2.9S487.6,306.7,486.3,306.7z
						 M486.3,301.3c-1,0-1.8,1.1-1.8,2.4s0.8,2.4,1.8,2.4s1.8-1.1,1.8-2.4S487.4,301.3,486.3,301.3z"/>
				</g>
			</g>
			<g>
				<g>
					<path fill="#231F20" d="M486.3,306.6c-1.2,0-2.2-1.2-2.2-2.8s0.9-2.8,2.2-2.8c1.2,0,2.2,1.2,2.2,2.8S487.6,306.6,486.3,306.6z
						 M486.3,301.2c-1.1,0-1.9,1.1-1.9,2.6c0,1.5,0.8,2.6,1.9,2.6s1.9-1.1,1.9-2.6C488.2,302.3,487.4,301.2,486.3,301.2z"/>
					<path fill="#231F20" d="M486.3,306.8c-1.4,0-2.4-1.3-2.4-3.1c0-1.8,1-3.1,2.4-3.1s2.4,1.3,2.4,3.1
						C488.8,305.5,487.7,306.8,486.3,306.8z M486.3,301.4c-0.9,0-1.6,1-1.6,2.3c0,1.3,0.7,2.3,1.6,2.3s1.6-1,1.6-2.3
						C488,302.4,487.3,301.4,486.3,301.4z"/>
				</g>
			</g>
		</g>
	</g>
	<g>
		<path fill="#81E2FC" d="M476.5,134.2c0.1,22.1-21.5,40.1-34,40.2c-11,0.1-34.3-17.7-34.5-39.8s15.1-40.1,34-40.2
			S476.4,112.1,476.5,134.2z"/>
		<path fill="#59B8E2" d="M442.4,175.9c-12.1,0-35.8-18.7-35.9-41.3c-0.1-11,3.6-21.5,10.2-29.3c6.7-7.9,15.7-12.3,25.3-12.4l0.2,0
			c19.6,0,35.7,18.5,35.8,41.3c0.1,13.9-7.9,24.4-12.7,29.4C458.2,171,449.3,175.9,442.4,175.9C442.5,175.9,442.4,175.9,442.4,175.9
			z M442.2,95.9l-0.2,0c-8.7,0-16.9,4.1-23,11.3c-6.2,7.3-9.6,17-9.5,27.4c0.1,20.6,22.1,38.3,32.9,38.3v1.5l0-1.5
			c6,0,14.1-4.5,20.7-11.4c4.5-4.7,11.9-14.4,11.9-27.3C474.9,113.1,460.2,95.9,442.2,95.9z"/>
	</g>
	<g>
		<g>
			<g>
				<path fill="#AA5B3F" d="M468.2,450c-0.2-0.2-0.4-0.5-0.6-0.7c-4.7-6.2-9.6-12.5-12.2-19.8c-4.6-12.5-2.4-26.7-0.1-39.1
					c0.7-3.8,1.5-7.2,2.7-10.4c-0.3-0.3-0.6-0.6-0.8-0.9c-0.3-0.4-0.6-0.7-0.8-1c-1.6,3.6-2.5,7.6-3.3,11.9
					c-2.4,12.7-4.6,27.2,0.2,40.2c2.8,7.6,7.8,14.1,12.6,20.4c0.8,1,1.6,2,2.3,3.1c0-0.6,0-1.2,0-1.8
					C468.2,451.2,468.2,450.6,468.2,450z"/>
			</g>
			<g>
				<path fill="#AA5B3F" d="M554.4,389.9c-0.8-4.3-1.7-8.3-3.3-11.9c-0.2,0.3-0.4,0.7-0.8,1c-0.2,0.3-0.5,0.6-0.8,0.9
					c1.2,3.2,2,6.6,2.7,10.4c2.4,12.4,4.5,26.6-0.1,39.1c-2.7,7.3-7.5,13.7-12.2,19.8c-0.2,0.2-0.4,0.5-0.6,0.7c0,0.6,0,1.2,0,1.8
					c0,0.6,0,1.2,0,1.8c0.8-1,1.6-2.1,2.3-3.1c4.8-6.3,9.8-12.8,12.6-20.4C559,417.2,556.8,402.6,554.4,389.9z"/>
			</g>
		</g>
		<g>
			<path fill="#D3957D" d="M463.8,385.6c-0.2-0.5-1.8-1.9-3-3.1c-1.1-1-2-1.8-2.7-2.6c-1.2,3.2-2,6.6-2.7,10.4
				c-2.4,12.4-4.5,26.6,0.1,39.1c2.7,7.3,7.5,13.7,12.2,19.8c0.2,0.2,0.4,0.5,0.6,0.7c-0.2-18.1-1-36.2-2.4-54.1
				C465.5,392.5,465.2,388.8,463.8,385.6z"/>
		</g>
		<g>
			<path fill="#387BBF" d="M458.2,376.8c0.3-0.6,0.6-1.2,1-1.7l0,0l-0.6-0.4c-0.3,0.5-0.5,1.1-0.6,1.7
				C458.1,376.6,458.2,376.7,458.2,376.8z"/>
		</g>
		<g>
			<path fill="#387BBF" d="M459.2,375.1L459.2,375.1c-0.4,0.6-0.7,1.1-1,1.7c0.2,0.3,0.4,0.6,0.7,1c0.4-0.7,0.7-1.4,1.2-2.1
				L459.2,375.1z"/>
		</g>
		<g>
			<path fill="#387BBF" d="M491.4,407.1c0.1,7.7-1.2,16.7-3.8,26.5c-3,11.3-7.1,21.2-9.6,26.6l0.7,1.1c5.9-12.8,23.5-55.9,6.8-77.9
				l-0.9,0.7C489,389.8,491.3,397.5,491.4,407.1z"/>
		</g>
		<g>
			<path fill="#2C5FA8" d="M489.1,468c-4.9,1.2-10,2.4-15,1.9c0.5-1.3,1.4-2.5,2.6-3.2l-0.5-1c-1.2,2.9-3.7,5.2-6.8,5.6
				c0.1-5.4,0.1-10.8,0-16.2c-0.4-0.5-0.7-1-1.1-1.5c0,5.9,0,11.8,0,17.7c0,0.3,0.1,0.6,0.4,0.8c0.2,0.2,0.5,0.3,0.7,0.3
				c0.1,0,0.1,0,0.2,0c1.4-0.2,2.7-0.7,3.9-1.6c0.2,0.1,0.3,0.2,0.6,0.2c0.8,0.1,1.7,0.1,2.6,0.1c4.4,0,8.9-1.1,12.8-2.1l15-3.7
				v-1.1C499.2,465.5,494.1,466.8,489.1,468z"/>
		</g>
		<g>
			<path fill="#2C5FA8" d="M464.8,385.2c-0.6-1.2-4.2-4.1-6.3-6.3c-0.2,0.4-0.3,0.7-0.4,1.1c0.7,0.8,1.7,1.6,2.7,2.6
				c1.2,1.1,2.8,2.5,3,3.1c1.5,3.2,1.7,6.9,2,10.2c1.4,17.9,2.2,36.1,2.4,54.1c0.4,0.5,0.7,1,1.1,1.5c-0.2-18.6-1-37.1-2.4-55.7
				C466.6,392.1,466.2,388.5,464.8,385.2z"/>
		</g>
		<g>
			<path fill="#2C5FA8" d="M457.7,377.9c-0.3-0.4-0.6-0.8-0.6-1.1c-0.2,0.4-0.4,0.8-0.6,1.2c0.2,0.3,0.4,0.7,0.8,1
				C457.4,378.7,457.5,378.3,457.7,377.9z"/>
		</g>
		<g>
			<path fill="#2C5FA8" d="M469.3,453.2c-0.4-0.5-0.7-1-1.1-1.5c0,0.6,0,1.2,0,1.8c0.4,0.5,0.7,1,1.1,1.5
				C469.3,454.5,469.3,453.8,469.3,453.2z"/>
		</g>
		<g>
			<path fill="#2C5FA8" d="M458.5,378.8c-0.3-0.3-0.5-0.6-0.8-0.9c-0.2,0.4-0.3,0.7-0.5,1.1c0.2,0.3,0.5,0.6,0.8,0.9
				C458.2,379.6,458.3,379.2,458.5,378.8z"/>
		</g>
		<g>
			<path fill="#2C5FA8" d="M468.2,450c0,0.6,0,1.2,0,1.8c0.4,0.5,0.7,1,1.1,1.5c0-0.6,0-1.2,0-1.8
				C468.9,450.9,468.5,450.4,468.2,450z"/>
		</g>
		<g>
			<path fill="#2C5FA8" d="M465.7,384.7c-0.4-0.9-1.6-2-3.5-3.8c-0.9-0.8-2.3-2.1-3.2-3.1c-0.2,0.3-0.3,0.7-0.5,1
				c2.1,2.3,5.7,5.1,6.3,6.3c1.5,3.3,1.8,7,2.1,10.6c1.4,18.5,2.2,37.1,2.4,55.7c0.4,0.5,0.7,1,1.1,1.5c-0.2-19.1-1-38.3-2.5-57.2
				C467.7,392.2,467.4,388.3,465.7,384.7z"/>
		</g>
		<g>
			<path fill="#2C5FA8" d="M470.4,454.7c-0.4-0.5-0.7-1-1.1-1.5c0,0.6,0,1.2,0,1.8c0.4,0.5,0.7,1,1.1,1.5
				C470.4,455.9,470.4,455.3,470.4,454.7z"/>
		</g>
		<g>
			<path fill="#2C5FA8" d="M458.1,376.5c0.1-0.6,0.3-1.2,0.6-1.7l-0.4-0.2c-0.5,0.7-0.9,1.5-1.3,2.2c0.1,0.3,0.3,0.7,0.6,1.1
				c0.2-0.4,0.3-0.7,0.5-1.1C458.2,376.7,458.1,376.6,458.1,376.5z"/>
		</g>
		<g>
			<path fill="#2C5FA8" d="M470.4,452.9c-0.4-0.5-0.7-1-1.1-1.5c0,0.6,0,1.2,0,1.8c0.4,0.5,0.7,1,1.1,1.5
				C470.4,454.1,470.4,453.5,470.4,452.9z"/>
		</g>
		<g>
			<path fill="#2C5FA8" d="M459,377.8c-0.3-0.4-0.6-0.7-0.7-1c-0.2,0.4-0.4,0.7-0.5,1.1c0.2,0.3,0.5,0.6,0.8,0.9
				C458.6,378.5,458.8,378.1,459,377.8z"/>
		</g>
		<g>
			<path fill="#D3957D" d="M543.8,385.6c0.2-0.5,1.8-1.9,3-3.1c1.1-1,2-1.8,2.7-2.6c1.2,3.2,2,6.6,2.7,10.4
				c2.4,12.4,4.5,26.6-0.1,39.1c-2.7,7.3-7.5,13.7-12.2,19.8c-0.2,0.2-0.4,0.5-0.6,0.7c0.2-18.1,1-36.2,2.4-54.1
				C542.1,392.5,542.3,388.8,543.8,385.6z"/>
		</g>
		<g>
			<path fill="#387BBF" d="M549.3,376.8c-0.3-0.6-0.6-1.2-1-1.7l0,0l0.6-0.4c0.3,0.5,0.5,1.1,0.6,1.7
				C549.5,376.6,549.4,376.7,549.3,376.8z"/>
		</g>
		<g>
			<path fill="#387BBF" d="M514,407.1c0.1-10,2.6-18.2,7.2-24.3l0.9,0.7c-16.6,21.9,1,65.1,6.8,77.9l-0.7,1.1
				c-2.3-5.1-7-15.8-10.3-28.2C515.2,424.1,513.9,415,514,407.1z"/>
		</g>
		<g>
			<path fill="#387BBF" d="M532.1,460.2c1.6-2.5,3.3-5,5.1-7.4c0,0.6,0,1.2,0,1.8c-1.9,2.6-3.7,5.3-5.3,8
				C531.8,461.9,531.9,461,532.1,460.2z"/>
		</g>
		<g>
			<path fill="#387BBF" d="M548.3,375.1L548.3,375.1c0.4,0.6,0.7,1.1,1,1.7c-0.2,0.3-0.4,0.6-0.7,1c-0.4-0.7-0.7-1.4-1.2-2.1
				L548.3,375.1z"/>
		</g>
		<g>
			<path fill="#387BBF" d="M478.7,461.3l0.7,1.1l1.7,2.7c0.2,0.3,0.2,0.7,0,1.1c-0.2,0.3-0.5,0.6-0.9,0.6c-1.7,0-3.4,0.9-4.4,2.3
				c0.3,0,0.5,0,0.8,0c4.1,0,8.3-1,12.3-2l15-3.7l15,3.7c4,1,8.1,2,12.3,2c0.3,0,0.5,0,0.8,0c-1-1.4-2.7-2.3-4.4-2.3
				c-0.4,0-0.7-0.2-0.9-0.6c-0.2-0.3-0.2-0.8,0-1.1l1.7-2.7c-2.3-5.1-7-15.8-10.3-28.2"/>
		</g>
		<g>
			<path fill="#387BBF" d="M528.9,461.3l0.7-1.1l0.6-1c0.3-0.5,0.9-0.6,1.4-0.4c0.5,0.2,0.7,0.8,0.6,1.3c0,0.1,0,0.1,0,0.2
				c1.6-2.5,3.3-5,5.1-7.4c0.2-19.1,1-38.3,2.5-57.2c0.3-3.5,0.6-7.4,2.2-10.9c0.4-0.9,1.6-2,3.5-3.8c0.9-0.8,2.3-2.1,3.2-3.1
				c-0.4-0.7-0.7-1.4-1.2-2.1l0.9-0.6l0.6-0.4c-0.5-0.9-1.4-1.8-2.1-2.5c-4-3.7-9.9-6.6-15.2-9.1c-2.4-1.2-4.7-2.3-6.5-3.4
				c-4.5,6.4-11.9,10.5-20,11.1c-0.4,0-0.9,0-1.3,0.1c-0.4,0-0.9,0-1.3-0.1c-8.1-0.6-15.5-4.8-20-11.1c-1.8,1.1-4.1,2.2-6.5,3.4
				c-5.2,2.5-11.2,5.4-15.2,9.1c-0.7,0.7-1.6,1.5-2.1,2.5l0.6,0.4l0.9,0.6c-0.4,0.7-0.8,1.4-1.2,2.1c0.9,1,2.3,2.3,3.2,3.1
				c1.9,1.8,3.1,2.9,3.5,3.8c1.6,3.6,1.9,7.5,2.2,10.9c1.5,18.9,2.3,38.1,2.5,57.2c0,0.6,0,1.2,0,1.8c0,0.6,0,1.2,0,1.9
				c0,4.5,0,8.9,0,13.4c1.6-0.6,3.1-1.8,4.1-3.4c0.4-0.7,0.7-1.4,0.9-2.1c0.2-0.6,0.3-1.1,0.3-1.7c0.1-0.9,0-1.7-0.3-2.5
				c0-0.1,0-0.1,0-0.2c-0.2-0.5,0.1-1.1,0.6-1.3c0.5-0.2,1.1-0.1,1.4,0.4l0.6,1"/>
		</g>
		<g>
			<path fill="#2C5FA8" d="M518.5,468c4.9,1.2,10,2.4,15,1.9c-0.5-1.3-1.4-2.5-2.6-3.2l0.5-1c1.2,2.9,3.7,5.2,6.8,5.6
				c-0.1-5.4-0.1-10.8,0-16.2c0.4-0.5,0.7-1,1.1-1.5c0,5.9,0,11.8,0,17.7c0,0.3-0.1,0.6-0.4,0.8c-0.2,0.2-0.5,0.3-0.7,0.3
				c-0.1,0-0.1,0-0.2,0c-1.4-0.2-2.7-0.7-3.9-1.6c-0.2,0.1-0.3,0.2-0.6,0.2c-0.8,0.1-1.7,0.1-2.6,0.1c-4.4,0-8.9-1.1-12.8-2.1
				l-15-3.7v-1.1C508.3,465.5,513.4,466.8,518.5,468z"/>
		</g>
		<g>
			<path fill="#2C5FA8" d="M542.8,385.2c0.6-1.2,4.2-4.1,6.3-6.3c0.2,0.4,0.3,0.7,0.4,1.1c-0.7,0.8-1.7,1.6-2.7,2.6
				c-1.2,1.1-2.8,2.5-3,3.1c-1.5,3.2-1.7,6.9-2,10.2c-1.4,17.9-2.2,36.1-2.4,54.1c-0.4,0.5-0.7,1-1.1,1.5c0.2-18.6,1-37.1,2.4-55.7
				C541,392.1,541.3,388.5,542.8,385.2z"/>
		</g>
		<g>
			<path fill="#2C5FA8" d="M549.9,377.9c0.3-0.4,0.6-0.8,0.6-1.1c0.2,0.4,0.4,0.8,0.6,1.2c-0.2,0.3-0.4,0.7-0.8,1
				C550.2,378.7,550,378.3,549.9,377.9z"/>
		</g>
		<g>
			<path fill="#2C5FA8" d="M538.3,453.2c0.4-0.5,0.7-1,1.1-1.5c0,0.6,0,1.2,0,1.8c-0.4,0.5-0.7,1-1.1,1.5
				C538.3,454.5,538.3,453.8,538.3,453.2z"/>
		</g>
		<g>
			<path fill="#2C5FA8" d="M549.1,378.8c0.3-0.3,0.5-0.6,0.8-0.9c0.2,0.4,0.3,0.7,0.5,1.1c-0.2,0.3-0.5,0.6-0.8,0.9
				C549.4,379.6,549.3,379.2,549.1,378.8z"/>
		</g>
		<g>
			<path fill="#2C5FA8" d="M539.4,450c0,0.6,0,1.2,0,1.8c-0.4,0.5-0.7,1-1.1,1.5c0-0.6,0-1.2,0-1.8C538.7,450.9,539,450.4,539.4,450
				z"/>
		</g>
		<g>
			<path fill="#2C5FA8" d="M548.2,370.7c-4.2-3.9-10.3-6.8-15.7-9.5c-2.8-1.4-5.4-2.6-7.2-3.8c-0.2-0.2-0.5-0.2-0.8-0.1
				c-0.3,0.1-0.5,0.2-0.7,0.5c-4,6.3-11.1,10.4-18.9,11c-0.4,0-0.8,0-1.2,0c-0.4,0-0.8,0-1.2,0c-7.8-0.6-14.9-4.7-18.9-11
				c-0.2-0.2-0.4-0.4-0.7-0.5c-0.3-0.1-0.6,0-0.8,0.1c-1.8,1.2-4.4,2.4-7.2,3.8c-5.4,2.6-11.4,5.6-15.7,9.5
				c-1.5,1.4-3.2,3.2-3.4,5.6c0,0.5,0.2,1.1,0.5,1.7c0.2-0.4,0.4-0.8,0.6-1.2c0.4-0.8,0.8-1.5,1.3-2.2l0.4,0.2
				c0.5-0.9,1.4-1.8,2.1-2.5c4-3.7,9.9-6.6,15.2-9.1c2.4-1.2,4.7-2.3,6.5-3.4c4.5,6.4,11.9,10.5,20,11.1c0.3,0,0.5,0,0.8,0v0
				c0.1,0,0.2,0,0.3,0c0.1,0,0.2,0,0.2,0c0.1,0,0.2,0,0.2,0c0.1,0,0.2,0,0.3,0v0c0.3,0,0.5,0,0.8,0c8.1-0.6,15.5-4.8,20-11.1
				c1.8,1.1,4.1,2.2,6.5,3.4c5.2,2.5,11.2,5.4,15.2,9.1c0.7,0.7,1.6,1.5,2.1,2.5l0.4-0.2c0.5,0.7,0.9,1.5,1.3,2.2
				c0.2,0.4,0.4,0.8,0.6,1.2c0.4-0.6,0.6-1.2,0.5-1.7C551.4,373.9,549.7,372.1,548.2,370.7z"/>
		</g>
		<g>
			<path fill="#2C5FA8" d="M541.8,384.7c0.4-0.9,1.6-2,3.5-3.8c0.9-0.8,2.3-2.1,3.2-3.1c0.2,0.3,0.3,0.7,0.5,1
				c-2.1,2.3-5.7,5.1-6.3,6.3c-1.5,3.3-1.8,7-2.1,10.6c-1.4,18.5-2.2,37.1-2.4,55.7c-0.4,0.5-0.7,1-1.1,1.5
				c0.2-19.1,1-38.3,2.5-57.2C539.9,392.2,540.2,388.3,541.8,384.7z"/>
		</g>
		<g>
			<path fill="#2C5FA8" d="M537.2,454.7c0.4-0.5,0.7-1,1.1-1.5c0,0.6,0,1.2,0,1.8c-0.4,0.5-0.7,1-1.1,1.5
				C537.2,455.9,537.2,455.3,537.2,454.7z"/>
		</g>
		<g>
			<path fill="#2C5FA8" d="M549.5,376.5c-0.1-0.6-0.3-1.2-0.6-1.7l0.4-0.2c0.5,0.7,0.9,1.5,1.3,2.2c-0.1,0.3-0.3,0.7-0.6,1.1
				c-0.2-0.4-0.3-0.7-0.5-1.1C549.4,376.7,549.5,376.6,549.5,376.5z"/>
		</g>
		<g>
			<path fill="#2C5FA8" d="M537.2,452.9c0.4-0.5,0.7-1,1.1-1.5c0,0.6,0,1.2,0,1.8c-0.4,0.5-0.7,1-1.1,1.5
				C537.2,454.1,537.2,453.5,537.2,452.9z"/>
		</g>
		<g>
			<path fill="#2C5FA8" d="M548.6,377.8c0.3-0.4,0.6-0.7,0.7-1c0.2,0.4,0.4,0.7,0.5,1.1c-0.2,0.3-0.5,0.6-0.8,0.9
				C548.9,378.5,548.8,378.1,548.6,377.8z"/>
		</g>
	</g>
	<g>
		<circle fill="#03D0FF" cx="524.4" cy="389.9" r="11.1"/>
	</g>
	<g>
		<g>
			<path fill="#403942" d="M505,377.3h-3.6c-2.9,0-5.3-2.4-5.3-5.3v-9.2c0-2.9,2.4-5.3,5.3-5.3h3.6c2.9,0,5.3,2.4,5.3,5.3v9.2
				C510.3,375,508,377.3,505,377.3z"/>
			<path fill="#211E21" d="M505,378.6h-3.6c-3.6,0-6.5-2.9-6.5-6.5v-9.2c0-3.6,2.9-6.5,6.5-6.5h3.6c3.6,0,6.5,2.9,6.5,6.5v9.2
				C511.6,375.7,508.6,378.6,505,378.6z M501.4,358.8c-2.2,0-4,1.8-4,4v9.2c0,2.2,1.8,4,4,4h3.6c2.2,0,4-1.8,4-4v-9.2
				c0-2.2-1.8-4-4-4H501.4z"/>
		</g>
		<g>
			<rect x="502" y="377.3" fill="#211E21" width="2.5" height="31.6"/>
		</g>
	</g>
	<g>
		<g>
			<path fill="#A56A3A" d="M576.8,407.6c0-0.6-0.2-1.2-0.6-1.6c-0.4-0.4-1-0.7-1.5-0.7H437.7c-0.6,0-1.1,0.2-1.6,0.7
				c-0.4,0.4-0.6,1-0.6,1.6l4.9,88.8h131.8L576.8,407.6z"/>
			<path fill="#A56A3A" d="M572.9,496.4L440,496.2l0,0l-4.9-88.6c0-0.7,0.2-1.4,0.7-2c0.5-0.5,1.2-0.8,1.9-0.8h136.9
				c0.7,0,1.4,0.3,1.9,0.8c0.5,0.5,0.8,1.2,0.7,1.9L572.9,496.4z M441,495.9h130.9l4.4-88.3c0-0.5-0.1-0.9-0.4-1.2
				c-0.3-0.3-0.7-0.5-1.2-0.5H437.7c-0.5,0-0.9,0.2-1.2,0.5c-0.3,0.3-0.5,0.8-0.4,1.2L441,495.9z"/>
		</g>
		<g>
			<path fill="#875631" d="M578,404.3c-0.9-0.9-2.1-1.4-3.4-1.4H437.7c-1.3,0-2.5,0.5-3.4,1.4c-0.9,0.9-1.3,2.2-1.3,3.4l4.9,88.6
				h1.3h1.3l-4.9-88.8c0-0.6,0.2-1.2,0.6-1.6c0.4-0.4,1-0.7,1.6-0.7h136.9c0.6,0,1.1,0.2,1.5,0.7c0.4,0.4,0.6,1,0.6,1.6l-4.5,88.8
				h1.3h1.3l4.5-88.7C579.4,406.4,578.9,405.2,578,404.3z"/>
		</g>
	</g>
	<g>
		<rect x="454.7" y="423.7" fill="#03D0FF" width="105" height="57.5"/>
	</g>
	<g>
		<path fill="#009DE2" d="M559.7,423.7v57.5h-105v-57.5H559.7 M559.7,421.2h-105c-1.4,0-2.5,1.1-2.5,2.5v57.5c0,1.4,1.1,2.5,2.5,2.5
			h105c1.4,0,2.5-1.1,2.5-2.5v-57.5C562.2,422.3,561.1,421.2,559.7,421.2L559.7,421.2z"/>
	</g>
	<g>
		<rect x="454.7" y="423.7" fill="#009DE2" width="105" height="11"/>
	</g>
	<g>
		<rect x="454.7" y="470.2" fill="#009DE2" width="105" height="11"/>
	</g>
	<g>
		<path fill="#FFFFFF" d="M473.5,444.8h3.9l3.9,10.3h0l3.9-10.3h3.7l-6.5,15.7h-2.8L473.5,444.8z"/>
		<path fill="#FFFFFF" d="M492.1,452.7c0-1.3,0.2-2.4,0.6-3.4c0.4-1,1-1.9,1.8-2.6c0.8-0.7,1.6-1.3,2.7-1.7c1-0.4,2.2-0.6,3.4-0.6
			s2.4,0.2,3.4,0.6c1,0.4,1.9,0.9,2.7,1.7c0.8,0.7,1.3,1.6,1.8,2.6c0.4,1,0.6,2.2,0.6,3.4s-0.2,2.4-0.6,3.4c-0.4,1-1,1.9-1.8,2.6
			c-0.8,0.7-1.6,1.3-2.7,1.7c-1,0.4-2.2,0.6-3.4,0.6s-2.4-0.2-3.4-0.6c-1-0.4-1.9-0.9-2.7-1.7c-0.8-0.7-1.3-1.6-1.8-2.6
			C492.3,455,492.1,453.9,492.1,452.7z M495.7,452.7c0,0.7,0.1,1.4,0.3,2c0.2,0.6,0.6,1.1,1,1.6c0.4,0.5,0.9,0.8,1.5,1.1
			c0.6,0.3,1.3,0.4,2,0.4s1.4-0.1,2-0.4c0.6-0.3,1.1-0.6,1.5-1.1c0.4-0.5,0.8-1,1-1.6c0.2-0.6,0.3-1.3,0.3-2c0-0.7-0.1-1.4-0.3-2
			s-0.6-1.2-1-1.6c-0.4-0.5-0.9-0.8-1.5-1.1c-0.6-0.3-1.3-0.4-2-0.4s-1.4,0.1-2,0.4c-0.6,0.3-1.1,0.6-1.5,1.1c-0.4,0.5-0.8,1-1,1.6
			C495.8,451.3,495.7,451.9,495.7,452.7z"/>
		<path fill="#FFFFFF" d="M516.6,447.9h-4.5v-3.1h12.4v3.1h-4.5v12.6h-3.5V447.9z"/>
		<path fill="#FFFFFF" d="M528.7,444.8h10.7v3.2h-7.2v2.9h6.8v3.2h-6.8v3.2h7.6v3.2h-11.1V444.8z"/>
	</g>
	<g>
		<g>
			<polygon fill="#FFFFFF" points="464.8,424.5 466,426.9 468.6,427.3 466.7,429.2 467.2,431.8 464.8,430.6 462.4,431.8 
				462.8,429.2 460.9,427.3 463.6,426.9 			"/>
		</g>
		<g>
			<polygon fill="#FFFFFF" points="478.9,424.5 480.1,426.9 482.8,427.3 480.8,429.2 481.3,431.8 478.9,430.6 476.5,431.8 
				477,429.2 475.1,427.3 477.7,426.9 			"/>
		</g>
		<g>
			<polygon fill="#FFFFFF" points="493.1,424.5 494.3,426.9 496.9,427.3 495,429.2 495.4,431.8 493.1,430.6 490.7,431.8 
				491.1,429.2 489.2,427.3 491.9,426.9 			"/>
		</g>
		<g>
			<polygon fill="#FFFFFF" points="507.2,424.5 508.4,426.9 511.1,427.3 509.1,429.2 509.6,431.8 507.2,430.6 504.8,431.8 
				505.3,429.2 503.3,427.3 506,426.9 			"/>
		</g>
		<g>
			<polygon fill="#FFFFFF" points="521.3,424.5 522.5,426.9 525.2,427.3 523.3,429.2 523.7,431.8 521.3,430.6 519,431.8 
				519.4,429.2 517.5,427.3 520.2,426.9 			"/>
		</g>
		<g>
			<polygon fill="#FFFFFF" points="535.5,424.5 536.7,426.9 539.3,427.3 537.4,429.2 537.9,431.8 535.5,430.6 533.1,431.8 
				533.6,429.2 531.6,427.3 534.3,426.9 			"/>
		</g>
		<g>
			<polygon fill="#FFFFFF" points="549.6,424.5 550.8,426.9 553.5,427.3 551.6,429.2 552,431.8 549.6,430.6 547.2,431.8 
				547.7,429.2 545.8,427.3 548.4,426.9 			"/>
		</g>
	</g>
	<g>
		<g>
			<polygon fill="#FFFFFF" points="464.8,473 466,475.5 468.6,475.8 466.7,477.7 467.2,480.4 464.8,479.1 462.4,480.4 462.8,477.7 
				460.9,475.8 463.6,475.5 			"/>
		</g>
		<g>
			<polygon fill="#FFFFFF" points="478.9,473 480.1,475.5 482.8,475.8 480.8,477.7 481.3,480.4 478.9,479.1 476.5,480.4 477,477.7 
				475.1,475.8 477.7,475.5 			"/>
		</g>
		<g>
			<polygon fill="#FFFFFF" points="493.1,473 494.3,475.5 496.9,475.8 495,477.7 495.4,480.4 493.1,479.1 490.7,480.4 491.1,477.7 
				489.2,475.8 491.9,475.5 			"/>
		</g>
		<g>
			<polygon fill="#FFFFFF" points="507.2,473 508.4,475.5 511.1,475.8 509.1,477.7 509.6,480.4 507.2,479.1 504.8,480.4 
				505.3,477.7 503.3,475.8 506,475.5 			"/>
		</g>
		<g>
			<polygon fill="#FFFFFF" points="521.3,473 522.5,475.5 525.2,475.8 523.3,477.7 523.7,480.4 521.3,479.1 519,480.4 519.4,477.7 
				517.5,475.8 520.2,475.5 			"/>
		</g>
		<g>
			<polygon fill="#FFFFFF" points="535.5,473 536.7,475.5 539.3,475.8 537.4,477.7 537.9,480.4 535.5,479.1 533.1,480.4 
				533.6,477.7 531.6,475.8 534.3,475.5 			"/>
		</g>
		<g>
			<polygon fill="#FFFFFF" points="549.6,473 550.8,475.5 553.5,475.8 551.6,477.7 552,480.4 549.6,479.1 547.2,480.4 547.7,477.7 
				545.8,475.8 548.4,475.5 			"/>
		</g>
	</g>
	<g>
		<path fill="#9E4F4F" d="M502.1,330.6c-6.9,0-11.7-2.9-12-3.1c-0.6-0.4-0.8-1.1-0.4-1.7c0.4-0.6,1.1-0.8,1.7-0.4l0,0
			c0.4,0.2,10,6.1,21.5,0c0.6-0.3,1.4-0.1,1.7,0.5s0.1,1.4-0.5,1.7C509.7,329.9,505.6,330.6,502.1,330.6z"/>
	</g>
</g>
<g id="Layer_2">
</g>
</svg>
