<?xml version="1.0" encoding="utf-8"?>
<!-- Generator: Adobe Illustrator 17.1.0, SVG Export Plug-In . SVG Version: 6.00 Build 0)  -->
<!DOCTYPE svg PUBLIC "-//W3C//DTD SVG 1.1//EN" "http://www.w3.org/Graphics/SVG/1.1/DTD/svg11.dtd">
<svg version="1.1" id="Layer_1" xmlns="http://www.w3.org/2000/svg" xmlns:xlink="http://www.w3.org/1999/xlink" x="0px" y="0px"
	 viewBox="0 0 971.6 892.9" enable-background="new 0 0 971.6 892.9" xml:space="preserve">
<rect x="2" y="1" fill="#03D0FF" width="970.1" height="892.2"/>
<circle opacity="0.5" fill="#FFFFFF" cx="449.4" cy="503.2" r="322.8"/>
<g>
	<path fill="#403942" d="M586.2,455.9l-103.9,46.8c0,0,7.4,195.9,71.1,307.9h143.7C697.1,810.6,503,597.3,586.2,455.9"/>
</g>
<g>
	<path fill="#231F20" d="M697.1,814.6h-146l-1.2-2C516.7,754.2,499,673,490,615.3c-9.7-62.5-11.7-111.9-11.7-112.4l-0.1-2.7
		L596,447.1l-6.4,10.8c-18.5,31.4-24.3,69.2-17.3,112.3c5.7,34.8,19.6,73.2,41.5,114c37.4,69.8,85.7,123.1,86.2,123.7l6.1,6.7H697.1
		z M555.7,806.6h132.6c-14.1-16.6-51.2-62.2-81.4-118.4c-22.3-41.6-36.6-80.8-42.4-116.6c-6.6-40.4-2.3-76.4,12.6-107.3l-90.7,40.9
		C487.6,528.9,498.3,703.5,555.7,806.6z"/>
</g>
<g>
	<path fill="#403942" d="M588.9,448.3c0,0-49.4,152.5,71.3,297.9c0,0-107.5-43.2-135-203.7l28.1-10.3L531,509.8
		C531,509.8,571.8,463.1,588.9,448.3"/>
</g>
<g>
	<path fill="#231F20" d="M673.4,755.9l-14.7-5.9c-1.1-0.5-28-11.5-58.5-42.6c-28.1-28.6-64.5-80.2-78.9-164.2l-0.6-3.3l25.4-9.3
		L525.5,510l2.5-2.8c1.7-1.9,41.2-47,58.4-61.9l10.8-9.3l-4.4,13.6c-0.1,0.4-12.1,38.3-9.4,93.4c1.6,32.3,7.9,64,18.7,94.3
		c13.5,37.9,34.1,73.7,61.3,106.5L673.4,755.9z M529.8,545.2c14.4,79.7,49.1,129,75.8,156.3c15,15.3,29.2,25.6,39.6,32.1
		c-22-29.3-39-60.8-50.8-93.9c-11.1-31.1-17.5-63.7-19.1-96.7c-1.8-37.1,2.8-66.2,6.3-82.2c-15.8,15.8-37.8,40.6-45.2,48.9
		l24.2,24.3L529.8,545.2z"/>
</g>
<g>
	<path fill="#403942" d="M694.2,459.6l103.9,46.8c0,0-7.4,195.9-71.1,307.9H583.3C583.3,814.4,777.4,601.1,694.2,459.6"/>
</g>
<g>
	<path fill="#231F20" d="M729.3,818.4H574.3l6.1-6.7c0.5-0.5,48.7-53.9,86.2-123.7c21.9-40.8,35.9-79.2,41.5-114
		c7-43.1,1.2-80.9-17.3-112.3l-6.4-10.8l117.9,53.1l-0.1,2.7c0,0.5-2,49.9-11.7,112.4c-9,57.8-26.7,138.9-59.9,197.3L729.3,818.4z
		 M592.1,810.4h132.6C782.2,707.3,792.8,532.7,794,509l-90.7-40.9c15,30.9,19.2,66.9,12.6,107.3c-5.8,35.7-20.1,74.9-42.4,116.6
		C643.3,748.2,606.2,793.8,592.1,810.4z"/>
</g>
<g>
	<path fill="#403942" d="M691.5,452.1c0,0,49.4,152.5-71.3,297.9c0,0,107.5-43.2,135-203.7L727,536.1l22.4-22.5
		C749.5,513.6,708.6,466.9,691.5,452.1"/>
</g>
<g>
	<path fill="#231F20" d="M607,759.6l10.1-12.1c27.2-32.8,47.9-68.7,61.4-106.7c10.8-30.4,17.1-62.2,18.6-94.5
		c2.7-54.9-9.3-92.6-9.4-93l-4.4-13.6l10.8,9.3c17.2,14.8,56.7,59.9,58.4,61.9l2.5,2.8l-20.7,20.7l25.4,9.3l-0.6,3.3
		c-14.4,84-50.8,135.6-78.9,164.2c-30.5,31.1-57.4,42.1-58.5,42.6L607,759.6z M698.8,464.5c3.5,16,8.1,45.1,6.3,82.2
		c-1.6,33.1-8,65.6-19.1,96.7c-11.8,33.1-28.8,64.6-50.8,93.9c10.4-6.5,24.6-16.8,39.6-32.1c26.8-27.4,61.5-76.6,75.8-156.3
		l-30.9-11.3l24.2-24.3C736.7,505.1,714.6,480.3,698.8,464.5z"/>
</g>
<path fill="#FBFCFA" d="M435.7,502.7c0,0,189.8-23.8,292.6-10.9c102.8,13,3.1,63,3.1,63s-242.3,56-303.6,77.9"/>
<path fill="#77787C" d="M429.1,636.5l-2.7-7.5c59.5-21.3,291.3-75.1,303.6-78c2.1-1.1,12.3-6.5,21.9-13.5
	c13.1-9.6,19.8-18.2,18.7-24.3c-0.8-4.6-7.4-13-42.9-17.4c-101.1-12.8-289.7,10.6-291.6,10.9l-1-7.9c1.9-0.2,191.5-23.8,293.6-10.9
	c31.4,4,47.7,11.8,49.8,24c3.6,21.2-40.4,44-45.4,46.5l-0.4,0.2l-0.5,0.1C729.9,559.2,489.5,614.9,429.1,636.5z"/>
<path fill="#403942" d="M481,503.1l-14.1,120.7c-0.2,1.4-1,2.6-2.3,3.2l-117.1,54.7c-1.3,0.6-2.2,1.9-2.3,3.4l-3.9,70.5
	c-0.2,2.8,2.6,4.9,5.3,4l197.5-64.4"/>
<path fill="#231F20" d="M345.3,763.9c-1.7,0-3.5-0.6-4.9-1.7c-2.1-1.6-3.3-4.2-3.1-6.8l3.9-70.5c0.2-3,1.9-5.6,4.6-6.8l117.1-54.7
	l14.1-120.7l7.9,0.9l-14.1,120.7c-0.3,2.8-2,5.1-4.6,6.3l-117.1,54.7l-3.9,70.5l197.5-64.4l2.5,7.6l-197.5,64.4
	C347,763.7,346.2,763.9,345.3,763.9z"/>
<path fill="#74D3ED" d="M565.5,532.3c0,0,66,51.2,149.3,0l40.4,142.5l-123.4,93.4l-70.3-93.4L565.5,532.3z"/>
<path fill="#59B8E2" d="M630.9,773.7L557.3,676l4.4-151.7l6.2,4.8c0.3,0.2,28.9,21.9,71.1,21.9c24.9,0,49.7-7.5,73.6-22.2l4.5-2.8
	l42.6,150.2L630.9,773.7z M565.4,673.4l67.1,89.1l118.1-89.3l-38.2-134.8c-23.8,13.7-48.4,20.7-73.3,20.7
	c-33.6,0-58.7-12.6-69.8-19.4L565.4,673.4z"/>
<g>
	<path fill="#403942" d="M586.2,457.8l-103.9,46.8c0,0,7.4,195.9,71.1,307.9h143.7C697.1,812.5,503,599.2,586.2,457.8"/>
</g>
<g>
	<path fill="#231F20" d="M697.1,816.5h-146l-1.2-2C516.7,756.1,499,674.9,490,617.1c-9.7-62.5-11.7-111.9-11.7-112.4l-0.1-2.7
		L596,448.9l-6.4,10.8c-18.5,31.4-24.3,69.2-17.3,112.3c5.7,34.8,19.6,73.2,41.5,114c37.4,69.8,85.7,123.1,86.2,123.7l6.1,6.7H697.1
		z M555.7,808.5h132.6c-14.1-16.6-51.2-62.2-81.4-118.4c-22.3-41.6-36.6-80.8-42.4-116.6c-6.6-40.4-2.3-76.4,12.6-107.3l-90.7,40.9
		C487.6,530.8,498.3,705.4,555.7,808.5z"/>
</g>
<g>
	<path fill="#403942" d="M588.9,450.2c0,0-49.4,152.5,71.3,297.9c0,0-107.5-43.2-135-203.7l28.1-10.3L531,511.7
		C531,511.7,571.8,465,588.9,450.2"/>
</g>
<g>
	<path fill="#231F20" d="M673.4,757.8l-14.7-5.9c-1.1-0.5-28-11.5-58.5-42.6c-28.1-28.6-64.5-80.2-78.9-164.2l-0.6-3.3l25.4-9.3
		l-20.7-20.7l2.5-2.8c1.7-1.9,41.2-47,58.4-61.9l10.8-9.4l-4.4,13.6c-0.1,0.4-12.1,38.3-9.4,93.4c1.6,32.3,7.9,64,18.7,94.3
		c13.5,37.9,34.1,73.7,61.3,106.5L673.4,757.8z M529.8,547.1c14.4,79.7,49.1,129,75.8,156.3c15,15.3,29.2,25.6,39.6,32.1
		c-22-29.3-39-60.8-50.8-93.9c-11.1-31.1-17.5-63.7-19.1-96.7c-1.8-37.1,2.8-66.2,6.3-82.2c-15.8,15.8-37.8,40.6-45.2,48.9
		l24.2,24.3L529.8,547.1z"/>
</g>
<g>
	<path fill="#403942" d="M694.2,461.5l103.9,46.8c0,0-7.4,195.9-71.1,307.9H583.3C583.3,816.3,777.4,603,694.2,461.5"/>
</g>
<g>
	<path fill="#231F20" d="M729.3,820.3H574.3l6.1-6.7c0.5-0.5,48.7-53.9,86.2-123.7c21.9-40.8,35.9-79.2,41.5-114
		c7-43.1,1.2-80.9-17.3-112.3l-6.4-10.8l117.9,53.1l-0.1,2.7c0,0.5-2,49.9-11.7,112.4c-9,57.8-26.7,138.9-59.9,197.3L729.3,820.3z
		 M592.1,812.3h132.6c57.5-103.1,68.2-277.7,69.4-301.4L703.3,470c15,30.9,19.2,66.9,12.6,107.3c-5.8,35.7-20.1,74.9-42.4,116.6
		C643.3,750,606.2,795.7,592.1,812.3z"/>
</g>
<g>
	<path fill="#403942" d="M691.5,454c0,0,49.4,152.5-71.3,297.9c0,0,107.5-43.2,135-203.7L727,537.9l22.4-22.5
		C749.5,515.4,708.6,468.8,691.5,454"/>
</g>
<g>
	<path fill="#231F20" d="M607,761.5l10.1-12.1c27.2-32.8,47.8-68.6,61.3-106.5c10.8-30.3,17.1-62.1,18.7-94.3
		c2.7-55-9.3-93-9.4-93.4l-4.4-13.6l10.8,9.3c17.2,14.8,56.7,59.9,58.4,61.9l2.5,2.8l-20.7,20.7l25.4,9.3l-0.6,3.3
		c-14.4,84-50.8,135.6-78.9,164.2c-30.5,31.1-57.4,42.1-58.5,42.6L607,761.5z M698.8,466.4c3.5,16,8.1,45.1,6.3,82.2
		c-1.6,33.1-8,65.6-19.1,96.7c-11.8,33.1-28.8,64.6-50.8,93.9c10.4-6.5,24.6-16.8,39.6-32.1c26.8-27.4,61.5-76.6,75.8-156.3
		l-30.9-11.3l24.2-24.3C736.7,507,714.6,482.2,698.8,466.4z"/>
</g>
<rect x="226.9" y="763.7" transform="matrix(0.9926 -0.1215 0.1215 0.9926 -92.0083 36.7955)" fill="#FBFCFA" width="57.7" height="18.4"/>
<path fill="#FBFCFA" d="M228.2,789.5c-2,0-3.7-1.5-4-3.5l-2.2-18.2c-0.1-1.1,0.2-2.1,0.8-3c0.7-0.8,1.6-1.4,2.7-1.5l57.2-7
	c2.2-0.3,4.2,1.3,4.5,3.5l2.2,18.2c0.1,1.1-0.2,2.1-0.8,3c-0.7,0.8-1.6,1.4-2.7,1.5l-57.2,7C228.5,789.5,228.4,789.5,228.2,789.5z
	 M230.4,770.7l1.3,10.3l49.3-6l-1.3-10.3L230.4,770.7z"/>
<polygon fill="#FBFCFA" points="368.6,778.5 421.8,786 423.7,767.8 370.5,760.3 "/>
<path fill="#FBFCFA" d="M421.8,790c-0.2,0-0.4,0-0.6,0l-53.2-7.5c-2.1-0.3-3.6-2.2-3.4-4.4l1.9-18.2c0.1-1.1,0.7-2.1,1.5-2.7
	c0.9-0.7,1.9-1,3-0.8l53.2,7.5c2.1,0.3,3.6,2.2,3.4,4.4l-1.9,18.2c-0.1,1.1-0.7,2.1-1.5,2.7C423.6,789.7,422.7,790,421.8,790z
	 M373,775.1l45.3,6.4l1.1-10.2l-45.3-6.4L373,775.1z"/>
<circle fill="#CE866A" cx="185.1" cy="311.9" r="20.6"/>
<g>
	<path fill="#632C1D" d="M299.4,381.7c-5.5,0-11-0.7-16.3-2c-1.8-0.4-3.5-1-5.1-1.5l-6.7-2c-2.1-0.6-3.3-2.9-2.7-5
		c0.6-2.1,2.9-3.3,5-2.7l6.7,2c1.6,0.5,3.2,1,4.8,1.4c13.5,3.4,28.4,1.8,40.9-4.4c2-1,4.4-0.2,5.4,1.8c1,2,0.2,4.4-1.8,5.4
		C320.3,379.3,309.8,381.7,299.4,381.7z"/>
</g>
<g>
	<path fill="#AA5B3F" d="M316.5,334.2c-0.7,0-1.4-0.2-2-0.6c-14.1-8.4-28.3-0.3-28.9,0c-1.9,1.1-4.4,0.5-5.5-1.4
		c-1.1-1.9-0.5-4.3,1.4-5.5c0.8-0.5,18.7-10.9,37.1,0c1.9,1.1,2.5,3.6,1.4,5.5C319.2,333.5,317.9,334.2,316.5,334.2z"/>
</g>
<g>
	<g>
		<g>
			<path fill="#231F20" d="M359.3,335.4c-8.9,0-30.8-1.4-42.4-14.6l-0.3-0.4c-0.5-0.6-11.4-15.5-11.4-43c0-9.5,5.1-28.4,24.5-31.9
				c0.5-0.1,11.2-1.9,26.7-1.9c18.1,0,35,2.4,50.2,7.2c5.7,1.8,9.8,6.9,10.2,12.9c1,11.9,1.5,41.8-13.8,61c-1.4,1.7-3.2,3.1-5.3,4.1
				c-5.2,2.5-16.8,6.6-35.4,6.6C361.9,335.4,360.8,335.4,359.3,335.4z M327.7,311.8c8.2,8.9,26.3,9.6,31.7,9.6c1.5,0,2.4,0,2.4-0.1
				l0.4,0c16.7,0,26.3-3.7,29.7-5.3c0.2-0.1,0.3-0.2,0.3-0.2c12.2-15.3,11.6-40.9,10.8-51.2c0-0.3-0.2-0.6-0.5-0.6
				c-13.8-4.3-29.3-6.5-46-6.5c-14.4,0-24.2,1.7-24.3,1.7c-12.7,2.3-12.9,17.4-12.9,18.1C319.2,298.3,326.6,310.1,327.7,311.8z"/>
		</g>
	</g>
	<g>
		<g>
			<path fill="#231F20" d="M240.8,335.4C240.8,335.4,240.8,335.4,240.8,335.4c-1.5,0-2.5,0-3-0.1c-18.7,0-30.2-4.2-35.4-6.6
				c-2.1-1-3.9-2.4-5.3-4.1c-15.3-19.2-14.7-49.1-13.8-61c0.5-6,4.5-11.1,10.2-12.9c15.1-4.8,32-7.2,50.2-7.2
				c15.6,0,26.3,1.8,26.7,1.9c19.4,3.5,24.5,22.4,24.5,31.9c0,27.5-10.9,42.4-11.4,43l-0.3,0.4C271.6,334,249.7,335.4,240.8,335.4z
				 M238.5,321.4c0,0,0.9,0,2.4,0c5.4,0,23.5-0.7,31.7-9.6c1-1.5,8.5-13.4,8.5-34.5c0-1.6-0.5-15.9-12.9-18.1
				c-0.1,0-10-1.7-24.3-1.7c-16.7,0-32.2,2.2-46,6.5c-0.3,0.1-0.5,0.3-0.5,0.6c-0.8,10.3-1.4,35.9,10.8,51.2c0,0,0.1,0.1,0.3,0.2
				c3.4,1.6,13,5.3,29.7,5.3L238.5,321.4L238.5,321.4z"/>
		</g>
	</g>
	<g>
		<g>
			<path fill="#231F20" d="M280.6,258.2c0,0,18,3,38.9,0c0,0-7.6,5.3-7.4,22.8c0,0-12.8-1.9-24.3,0C287.9,281,289.3,265,280.6,258.2
				z"/>
		</g>
		<g>
			<path fill="#231F20" d="M283.5,285.8l0.4-5.2c0.3-3.8-0.1-14.8-5.8-19.3l-12.1-9.6l15.3,2.5c0.1,0,7.8,1.3,18.9,1.3
				c6.5,0,12.8-0.4,18.8-1.3l18.5-2.6l-15.6,9.9l0,0c0,0-5.9,4.7-5.6,19.5l0.1,4.7l-4.7-0.7c-0.1,0-5.5-0.8-12.3-0.8
				c-4,0-7.6,0.3-10.7,0.8L283.5,285.8z M299.3,276.1c3.5,0,6.6,0.2,9,0.4c0.4-5.8,1.6-10.2,3-13.4c-3.6,0.3-7.4,0.4-11.1,0.4
				c-4.2,0-8-0.2-11-0.4c2,4.7,2.7,9.7,2.8,13.3C294.3,276.2,296.7,276.1,299.3,276.1z"/>
		</g>
	</g>
</g>
<g>
	<g>
		<g>
			<path fill="#231F20" d="M352.2,292.9c-3.9,0-6.8-3.9-6.8-9c0-5.1,2.9-9,6.8-9c3.9,0,6.8,3.9,6.8,9
				C359,289,356.1,292.9,352.2,292.9z"/>
		</g>
		<g>
			<path fill="#231F20" d="M352.2,293.4c-4.2,0-7.3-4.1-7.3-9.5c0-5.4,3.1-9.5,7.3-9.5s7.3,4.1,7.3,9.5
				C359.5,289.3,356.4,293.4,352.2,293.4z M352.2,275.4c-3.6,0-6.3,3.7-6.3,8.5c0,4.9,2.7,8.5,6.3,8.5c3.6,0,6.3-3.7,6.3-8.5
				C358.5,279,355.8,275.4,352.2,275.4z"/>
		</g>
	</g>
</g>
<g>
	<g>
		<g>
			<path fill="#231F20" d="M247.7,293.6c-3.9,0-6.8-3.9-6.8-9c0-5.1,2.9-9,6.8-9s6.8,3.9,6.8,9C254.5,289.7,251.6,293.6,247.7,293.6
				z"/>
		</g>
		<g>
			<path fill="#231F20" d="M247.7,294.1c-4.2,0-7.3-4.1-7.3-9.5s3.1-9.5,7.3-9.5s7.3,4.1,7.3,9.5S251.9,294.1,247.7,294.1z
				 M247.7,276c-3.6,0-6.3,3.7-6.3,8.5s2.7,8.5,6.3,8.5s6.3-3.7,6.3-8.5S251.3,276,247.7,276z"/>
		</g>
	</g>
</g>
<g>
	<g>
		<circle fill="none" cx="354.8" cy="281.3" r="2.6"/>
	</g>
</g>
<g>
	<g>
		<circle fill="none" cx="250.4" cy="281.3" r="2.6"/>
	</g>
</g>
<path fill="#80DBF5" d="M331.6,674.5c0,0,2.1,107.9-8.4,168.7"/>
<path fill="#59B8E2" d="M327.2,843.9l-7.9-1.4c10.3-59.8,8.3-166.9,8.3-168l8-0.2c0,0.3,0.5,27.4-0.3,61.7
	C334.6,767.8,332.6,812.2,327.2,843.9z"/>
<path fill="#80DBF5" d="M331.6,674.5c0,0-2.8-67.3-17.9-128.2"/>
<path fill="#59B8E2" d="M327.6,674.7c0-0.7-2.9-67.6-17.7-127.4l7.8-1.9c15,60.6,17.9,128.3,18,129L327.6,674.7z"/>
<rect x="620.2" y="722.9" fill="#403942" width="96.8" height="45.2"/>
<g>
	<g>
		<g>
			<path fill="#403942" d="M576.1,453.6l-109,49.1c0,0,7.8,205.5,74.6,323h150.7C692.5,825.6,488.9,601.9,576.1,453.6"/>
		</g>
	</g>
	<g>
		<g>
			<path fill="#231F20" d="M701.5,829.6H539.4l-1.1-2c-34.8-61.2-53.4-146.3-62.8-206.9c-10.2-65.5-12.3-117.4-12.3-117.9l-0.1-2.7
				l122.9-55.4l-6.4,10.8c-19.4,33-25.5,72.7-18.1,118.1c6,36.6,20.6,76.9,43.7,119.7c39.3,73.2,89.8,129.1,90.3,129.6L701.5,829.6z
				 M544.1,821.7h139.6c-14.6-17.1-53.8-65.2-85.6-124.5c-23.4-43.6-38.4-84.7-44.5-122.2c-6.9-42.5-2.4-80.5,13.5-112.9l-95.8,43.2
				c0.6,11.4,3.3,57.7,12.1,114.4C492.6,678.8,510.6,761.6,544.1,821.7z"/>
		</g>
	</g>
</g>
<g>
	<g>
		<g>
			<path fill="#403942" d="M579,445.6c0,0-51.8,160,74.8,312.5c0,0-112.8-45.3-141.6-213.7l29.5-10.8l-23.5-23.6
				C518.2,510.1,561,461.2,579,445.6"/>
		</g>
	</g>
	<g>
		<g>
			<path fill="#231F20" d="M666.9,767.7l-14.6-5.9c-1.2-0.5-29.3-12-61.3-44.6c-29.4-29.9-67.6-84.1-82.7-172.1l-0.6-3.3l26.8-9.8
				l-21.8-21.8l2.5-2.8c1.8-2,43.2-49.3,61.2-64.9l10.8-9.3l-4.4,13.6c-0.1,0.4-12.7,40.2-9.9,98c1.7,33.9,8.3,67.2,19.6,99
				c14.2,39.8,35.8,77.4,64.3,111.8L666.9,767.7z M516.7,547.1c15.1,84,51.7,135.8,79.9,164.6c16.1,16.4,31.3,27.3,42.2,34
				c-23.4-31-41.5-64.3-53.9-99.4c-11.6-32.6-18.3-66.7-20-101.4c-1.9-39.4,3.1-70.2,6.7-86.9c-16.7,16.6-40.4,43.3-48,51.9
				l25.3,25.4L516.7,547.1z"/>
		</g>
	</g>
</g>
<g>
	<g>
		<g>
			<path fill="#403942" d="M689.5,457.5l109,49.1c0,0-7.8,205.5-74.6,323H573.1C573.1,829.6,776.7,605.9,689.5,457.5"/>
		</g>
	</g>
	<g>
		<g>
			<path fill="#231F20" d="M726.2,833.6H564.1l6.1-6.7c0.5-0.6,51.1-56.5,90.4-129.8c23-42.8,37.7-83.1,43.6-119.6
				c7.4-45.3,1.3-85-18.1-118l-6.4-10.8l122.9,55.4l-0.1,2.7c0,0.5-2.1,52.4-12.3,117.9c-9.5,60.6-28,145.7-62.8,206.9L726.2,833.6z
				 M581.9,825.6h139.6c33.5-60,51.5-142.9,60.7-202.2c8.8-56.6,11.5-102.9,12.1-114.3L698.5,466c15.9,32.4,20.4,70.4,13.5,112.9
				c-6.1,37.5-21.1,78.6-44.5,122.2C635.7,760.4,596.5,808.5,581.9,825.6z"/>
		</g>
	</g>
</g>
<g>
	<g>
		<g>
			<path fill="#403942" d="M686.6,449.6c0,0,51.8,160-74.8,312.5c0,0,112.8-45.3,141.6-213.7l-29.5-10.8l23.5-23.6
				C747.4,514.1,704.6,465.1,686.6,449.6"/>
		</g>
	</g>
	<g>
		<g>
			<path fill="#231F20" d="M598.7,771.7l10.1-12.1c28.5-34.4,50.2-72,64.3-111.8c11.3-31.8,17.9-65.1,19.6-99
				c2.9-57.7-9.7-97.6-9.9-98l-4.4-13.5l10.8,9.3c18,15.5,59.4,62.9,61.2,64.9l2.5,2.8l-21.8,21.8l26.8,9.8l-0.6,3.3
				c-15.1,88-53.3,142.2-82.7,172.1c-32,32.6-60.2,44.1-61.3,44.6L598.7,771.7z M693.9,462c3.7,16.6,8.7,47.4,6.7,86.9
				c-1.7,34.7-8.4,68.8-20,101.4c-12.5,35-30.6,68.4-54,99.4c11.7-7.3,27.1-18.6,42.5-34.4c28.1-28.7,64.6-80.4,79.6-164.3
				l-32.2-11.8l25.3-25.4C734.3,505.3,710.6,478.6,693.9,462z"/>
		</g>
	</g>
</g>
<g>
	<g>
		<path fill="#FBFCFA" d="M418.3,502.7c0,0,199.1-25,306.9-11.4c107.8,13.6,3.3,66.1,3.3,66.1S474.3,616.1,410,639.1"/>
	</g>
</g>
<g>
	<g>
		<path fill="#77787C" d="M411.3,642.8l-2.7-7.5c62.5-22.3,306-78.9,318.4-81.8c17.8-9,44.9-27.6,42.8-39.9
			c-0.8-4.9-7.8-13.8-45.2-18.5c-106.1-13.4-303.9,11.2-305.9,11.4l-1-7.9c2-0.3,200.8-24.9,307.9-11.4c32.8,4.1,49.9,12.3,52,25
			c3.8,22.1-42.2,45.9-47.5,48.5l-0.4,0.2l-0.5,0.1C726.8,561.8,474.7,620.2,411.3,642.8z"/>
	</g>
</g>
<g>
	<g>
		<path fill="#403942" d="M465.8,503.1L451,629.7c-0.2,1.5-1.1,2.7-2.4,3.3l-122.8,57.4c-1.4,0.7-2.3,2-2.4,3.6l-4.1,73.9
			c-0.2,3,2.7,5.2,5.5,4.2L532,704.6"/>
	</g>
</g>
<g>
	<g>
		<path fill="#231F20" d="M323.5,776.4c-1.8,0-3.5-0.6-5-1.7c-2.1-1.7-3.3-4.3-3.2-7l4.1-73.9c0.2-3,2-5.7,4.7-7l122.8-57.4
			c0.1,0,0.1-0.1,0.1-0.2l14.8-126.6l7.9,0.9L455,630.2c-0.3,2.8-2.1,5.3-4.7,6.5l-122.8,57.4c-0.1,0-0.1,0.1-0.1,0.2l-4.1,73.9
			c0,0,0,0.1,0.1,0.2c0.1,0.1,0.2,0,0.2,0l207.2-67.6l2.5,7.6L326,776C325.2,776.3,324.4,776.4,323.5,776.4z"/>
	</g>
</g>
<g>
	<g>
		<g>
			<g>
				<g>
					<path fill="#403942" d="M152.9,508.5c-0.5,0-1.1-0.1-1.6-0.2c-3.7-0.6-6.9-2.6-9.1-5.6c-2.2-3-3-6.7-2.4-10.4
						c9.6-59.1,54.7-116.8,56.6-119.2c2.8-3.5,7.1-5.5,11.6-5.3c2.9,0.1,5.7,1.2,8,3c2.9,2.3,4.8,5.6,5.2,9.3
						c0.4,3.7-0.6,7.4-2.9,10.3c-0.4,0.5-42.5,54.5-51,106.4c-1,5.9-5.5,10.5-11.4,11.5C154.9,508.5,153.9,508.6,152.9,508.5z"/>
				</g>
			</g>
		</g>
		<g>
			<g>
				<g>
					<path fill="#231F20" d="M207.8,371.8c2,0.1,4,0.8,5.7,2.1c4.3,3.4,5.1,9.7,1.7,14c-0.4,0.5-43.1,55.2-51.8,108.2
						c-0.7,4.3-4.1,7.5-8.1,8.2c-0.7,0.1-1.4,0.2-2.1,0.1c-0.4,0-0.8-0.1-1.2-0.1c-5.4-0.9-9.1-6-8.2-11.4
						c9.5-58.1,53.9-115,55.8-117.4C201.5,373,204.7,371.7,207.8,371.8 M208.1,363.9c-5.8-0.3-11.3,2.3-14.9,6.8
						c-1.9,2.5-47.6,60.9-57.4,121c-0.8,4.7,0.3,9.5,3.1,13.4c2.8,3.9,6.9,6.5,11.7,7.2c0.7,0.1,1.4,0.2,2.1,0.2
						c1.3,0.1,2.6,0,3.9-0.2c7.5-1.3,13.4-7.3,14.7-14.8c8.3-50.7,49.8-104,50.2-104.6c3-3.8,4.3-8.5,3.7-13.2
						c-0.6-4.8-2.9-9-6.7-12C215.5,365.4,211.9,364,208.1,363.9L208.1,363.9z"/>
				</g>
			</g>
		</g>
	</g>
</g>
<g>
	<g>
		<g>
			<g>
				<g>
					<path fill="#403942" d="M214.7,534.9c-6.5-0.3-11.9-5-13.1-11.3C190.4,464.8,213,395.1,214,392.2c2-5.9,7.7-9.9,13.9-9.6
						c1.3,0.1,2.5,0.3,3.7,0.7c3.5,1.2,6.4,3.6,8.1,7c1.7,3.3,2,7.1,0.8,10.7c-0.2,0.7-21.3,65.8-11.5,117.4
						c1.1,5.8-1.6,11.8-6.8,14.7c-1.3,0.8-2.8,1.3-4.3,1.6C216.8,534.9,215.7,535,214.7,534.9L214.7,534.9z"/>
				</g>
			</g>
		</g>
		<g>
			<g>
				<g>
					<path fill="#231F20" d="M227.7,386.6c0.9,0,1.8,0.2,2.7,0.5c5.2,1.7,8.1,7.4,6.3,12.6c-0.2,0.7-21.6,66.6-11.6,119.4
						c0.8,4.3-1.2,8.5-4.8,10.5c-0.9,0.5-2,0.9-3.1,1.1c-0.8,0.1-1.6,0.2-2.3,0.2c-4.5-0.2-8.5-3.5-9.3-8.1
						c-11-57.8,11.3-126.5,12.3-129.4C219.2,389.1,223.3,386.4,227.7,386.6 M228,378.6c-8-0.4-15.3,4.7-17.8,12.3
						c-1,3-23.9,73.6-12.5,133.4c1.6,8.2,8.5,14.2,16.8,14.6c1.4,0.1,2.8,0,4.2-0.3c2-0.4,3.8-1.1,5.6-2.1
						c6.6-3.8,10.1-11.4,8.7-18.9c-9.6-50.5,11.1-114.8,11.3-115.4c1.5-4.5,1.1-9.4-1-13.7c-2.2-4.3-5.9-7.5-10.4-9
						C231.3,379,229.7,378.7,228,378.6L228,378.6z"/>
				</g>
			</g>
		</g>
	</g>
</g>
<g>
	<g>
		<g>
			<g>
				<g>
					<path fill="#403942" d="M75,422.2c-1.2-0.1-2.4-0.3-3.6-0.6c-1.5-0.5-2.9-1.2-4.1-2.1c-3-2.2-4.9-5.5-5.5-9.2
						c-0.5-3.7,0.4-7.4,2.6-10.4c35.6-48.1,102.1-78.7,104.9-80c2-0.9,4.2-1.3,6.4-1.2c5.3,0.2,9.9,3.4,12.1,8.2
						c1.5,3.4,1.7,7.2,0.4,10.7c-1.3,3.5-3.9,6.3-7.3,7.8c-0.6,0.3-62.8,28.9-94.1,71.2C84.1,420.3,79.7,422.4,75,422.2L75,422.2z"
						/>
				</g>
			</g>
		</g>
		<g>
			<g>
				<g>
					<path fill="#231F20" d="M175.6,322.7c3.6,0.2,7,2.3,8.6,5.8c2.3,5,0.1,10.9-4.9,13.2c-0.6,0.3-63.6,29.3-95.6,72.5
						c-2.1,2.8-5.3,4.2-8.5,4c-0.9,0-1.7-0.2-2.5-0.4c-1-0.3-2-0.8-2.9-1.5c-4.4-3.3-5.4-9.5-2.1-13.9
						c35-47.3,100.6-77.5,103.4-78.8C172.5,322.9,174.1,322.6,175.6,322.7 M176,314.7c-2.8-0.1-5.7,0.4-8.2,1.6
						c-2.9,1.3-70.3,32.4-106.5,81.3c-2.9,3.9-4,8.6-3.3,13.3c0.7,4.7,3.2,8.9,7.1,11.8c1.6,1.2,3.4,2.1,5.3,2.7
						c1.5,0.5,3,0.7,4.6,0.8c6,0.3,11.7-2.4,15.2-7.2c30.6-41.3,91.9-69.7,92.5-70c4.4-2,7.7-5.5,9.4-10c1.7-4.5,1.5-9.4-0.5-13.7
						C188.7,319,182.7,315,176,314.7L176,314.7z"/>
				</g>
			</g>
		</g>
	</g>
</g>
<g>
	<g>
		<g>
			<g>
				<g>
					<path fill="#403942" d="M107.1,473.7c-1.5-0.1-3.1-0.4-4.5-1c-3.5-1.4-6.2-4-7.7-7.4c-1.5-3.4-1.5-7.2-0.2-10.7
						c22.1-55.6,78.5-102.3,80.9-104.3c2.7-2.2,6-3.3,9.5-3.2c4,0.2,7.7,2,10.2,5.1c2.4,2.9,3.5,6.5,3.1,10.2
						c-0.4,3.7-2.2,7.1-5,9.4c-0.5,0.4-53.2,44.1-72.6,93C118.5,470.5,113,474,107.1,473.7z"/>
				</g>
			</g>
		</g>
		<g>
			<g>
				<g>
					<path fill="#231F20" d="M184.9,351.2c2.7,0.1,5.4,1.4,7.3,3.6c3.5,4.3,2.9,10.5-1.4,14c-0.5,0.4-54,44.7-73.8,94.6
						c-1.6,4.1-5.6,6.5-9.7,6.3c-1.1,0-2.2-0.3-3.2-0.7c-5.1-2-7.6-7.8-5.6-12.9c21.7-54.7,77.3-100.7,79.7-102.7
						C180.1,351.8,182.6,351.1,184.9,351.2 M185.3,343.2c-4.4-0.2-8.8,1.2-12.2,4.1c-2.4,2-59.6,49.3-82.1,105.9
						c-1.8,4.5-1.7,9.3,0.2,13.7c1.9,4.4,5.4,7.8,9.9,9.6c1.9,0.7,3.8,1.2,5.8,1.3c7.6,0.3,14.7-4.2,17.5-11.3
						c19-47.8,70.9-90.9,71.5-91.4c3.7-3,6-7.3,6.5-12.1c0.5-4.8-0.9-9.4-4-13.1C195.1,345.8,190.4,343.5,185.3,343.2L185.3,343.2z"
						/>
				</g>
			</g>
		</g>
	</g>
</g>
<g>
	<g>
		<g>
			<g>
				<g>
					<path fill="#403942" d="M391.1,518.5c-1,0-2-0.2-3-0.5c-5.7-1.5-9.9-6.6-10.3-12.5c-3.8-52.5-40.8-110-41.2-110.6
						c-2-3.1-2.7-6.9-2-10.5s2.9-6.8,6-8.8c2.5-1.6,5.3-2.4,8.2-2.3c4.5,0.2,8.6,2.6,11.1,6.3c1.7,2.6,41.4,64.1,45.7,123.8
						c0.3,3.7-0.9,7.3-3.4,10.1c-2.4,2.8-5.8,4.5-9.6,4.8C392.2,518.5,391.6,518.5,391.1,518.5z"/>
				</g>
			</g>
		</g>
		<g>
			<g>
				<g>
					<path fill="#231F20" d="M348.7,377.4c3.1,0.1,6.1,1.7,7.9,4.5c1.7,2.6,40.8,63.2,45,121.9c0.4,5.5-3.7,10.3-9.2,10.7
						c-0.4,0-0.8,0-1.2,0c-0.7,0-1.4-0.1-2.1-0.3c-4-1.1-7.1-4.6-7.4-8.9c-3.8-53.6-41.5-111.9-41.9-112.4c-3-4.6-1.7-10.8,2.9-13.8
						C344.7,377.8,346.7,377.3,348.7,377.4 M349.1,369.4L349.1,369.4c-3.8-0.2-7.4,0.8-10.6,2.9c-4,2.6-6.8,6.6-7.8,11.3
						c-1,4.7-0.1,9.5,2.5,13.5c0.4,0.6,36.9,57.4,40.6,108.7c0.5,7.6,5.9,14.1,13.3,16.1c1.2,0.3,2.5,0.5,3.8,0.6c0.7,0,1.4,0,2.1,0
						c4.8-0.3,9.1-2.5,12.3-6.2c3.1-3.6,4.7-8.3,4.3-13c-4.4-60.7-44.6-123.1-46.3-125.7C360.2,372.7,354.9,369.7,349.1,369.4
						L349.1,369.4z"/>
				</g>
			</g>
		</g>
	</g>
</g>
<g>
	<g>
		<g>
			<g>
				<g>
					<path fill="#403942" d="M327.2,539.2c-1.1,0-2.2-0.2-3.2-0.5c-1.5-0.4-2.9-1.1-4.2-2c-4.9-3.4-7-9.5-5.4-15.3
						c14.4-50.6-0.7-117.3-0.9-118c-0.8-3.6-0.2-7.4,1.7-10.5c2-3.2,5.1-5.4,8.7-6.2c1.2-0.3,2.5-0.4,3.8-0.4
						c6.2,0.3,11.6,4.7,13,10.8c0.7,3,17,74.4,0.5,132C339.5,535.3,333.7,539.5,327.2,539.2z"/>
				</g>
			</g>
		</g>
		<g>
			<g>
				<g>
					<path fill="#231F20" d="M327.6,390.3c4.4,0.2,8.2,3.3,9.3,7.7c0.7,3,16.7,73.4,0.6,130c-1.3,4.5-5.5,7.4-10,7.2
						c-0.8,0-1.5-0.2-2.3-0.4c-1.1-0.3-2.1-0.8-3-1.4c-3.4-2.4-5.1-6.7-3.9-10.9c14.7-51.7-0.7-119.3-0.8-120
						c-1.2-5.4,2.1-10.7,7.5-12C325.8,390.4,326.7,390.3,327.6,390.3 M327.9,382.4c-1.6-0.1-3.3,0.1-4.9,0.5
						c-4.7,1.1-8.6,3.9-11.2,8c-2.5,4.1-3.3,8.9-2.2,13.6c0.2,0.7,15,66.6,0.9,116c-2.1,7.4,0.7,15.2,7,19.6c1.6,1.1,3.4,2,5.4,2.6
						c1.3,0.4,2.7,0.6,4.1,0.7c8.3,0.4,15.8-5,18.1-13c16.7-58.5,0.2-130.9-0.5-134C342.8,388.4,335.9,382.7,327.9,382.4
						L327.9,382.4z"/>
				</g>
			</g>
		</g>
	</g>
</g>
<g>
	<g>
		<g>
			<g>
				<g>
					<path fill="#403942" d="M476.4,439.5c-4.7-0.2-8.9-2.7-11.3-6.7c-27.4-44.9-86.7-79-87.3-79.4c-3.2-1.8-5.6-4.8-6.6-8.4
						c-1-3.6-0.5-7.4,1.3-10.6c2.6-4.6,7.5-7.3,12.8-7c2.2,0.1,4.4,0.7,6.3,1.8c2.7,1.5,66.2,38,97.3,89.1c1.9,3.2,2.5,6.9,1.6,10.6
						c-0.9,3.6-3.1,6.7-6.3,8.6c-1.3,0.8-2.8,1.4-4.3,1.7C478.8,439.4,477.6,439.5,476.4,439.5z"/>
				</g>
			</g>
		</g>
		<g>
			<g>
				<g>
					<path fill="#231F20" d="M385.2,331.3c1.5,0.1,3.1,0.5,4.5,1.3c2.7,1.5,65.3,37.5,95.9,87.7c2.9,4.7,1.4,10.8-3.3,13.7
						c-1,0.6-2,1-3.1,1.2c-0.8,0.2-1.7,0.3-2.6,0.2c-3.2-0.1-6.3-1.8-8.1-4.8c-28-45.9-88.1-80.4-88.7-80.8
						c-4.8-2.7-6.5-8.8-3.7-13.6C378,333,381.5,331.1,385.2,331.3 M385.5,323.3L385.5,323.3c-6.8-0.3-13.1,3.2-16.4,9.1
						c-2.4,4.2-3,9-1.7,13.6c1.3,4.6,4.3,8.5,8.4,10.8c0.6,0.3,59.1,34.1,85.9,78c3.1,5.1,8.5,8.3,14.5,8.6c1.6,0.1,3.1-0.1,4.6-0.4
						c1.9-0.4,3.8-1.2,5.5-2.2c4.1-2.5,7-6.4,8.1-11.1c1.1-4.7,0.4-9.5-2.1-13.6c-31.7-52-96-89-98.8-90.5
						C391.1,324.3,388.3,323.5,385.5,323.3L385.5,323.3z"/>
				</g>
			</g>
		</g>
	</g>
</g>
<g>
	<g>
		<g>
			<g>
				<g>
					<path fill="#403942" d="M439.8,487.9c-5.9-0.3-11.1-4.3-12.8-10c-14.9-50.4-63.5-98.6-64-99.1c-2.7-2.6-4.1-6.1-4.2-9.8
						c0-3.7,1.4-7.2,4-9.9c2.8-2.8,6.6-4.3,10.6-4.2c3.4,0.2,6.7,1.6,9.2,4c2.2,2.2,54.2,53.7,71.2,111.1c1.1,3.6,0.7,7.3-1.1,10.6
						c-1.8,3.3-4.7,5.7-8.3,6.7C442.9,487.8,441.4,488,439.8,487.9z"/>
				</g>
			</g>
		</g>
		<g>
			<g>
				<g>
					<path fill="#231F20" d="M373.3,358.9c2.4,0.1,4.7,1.1,6.5,2.8c2.2,2.1,53.5,53,70.2,109.4c1.6,5.3-1.4,10.8-6.7,12.4
						c-1.1,0.3-2.2,0.5-3.3,0.4c-4.1-0.2-7.9-2.9-9.1-7.1c-15.3-51.5-64.5-100.4-65-100.8c-3.9-3.9-4-10.2-0.1-14.1
						C367.8,359.8,370.6,358.8,373.3,358.9 M373.7,350.9L373.7,350.9c-5.1-0.2-10,1.7-13.6,5.4c-3.4,3.4-5.2,7.9-5.1,12.7
						c0,4.8,1.9,9.3,5.4,12.6c0.5,0.5,48.4,48.1,63,97.4c2.2,7.3,8.8,12.5,16.4,12.8c2,0.1,4-0.2,5.9-0.7c4.6-1.4,8.4-4.4,10.7-8.6
						c2.3-4.2,2.8-9.1,1.4-13.7c-17.3-58.4-70-110.6-72.2-112.8C382.3,352.9,378.1,351.1,373.7,350.9L373.7,350.9z"/>
				</g>
			</g>
		</g>
	</g>
</g>
<g>
	<g>
		<path fill="#74D3ED" d="M422.4,499.4c-26.5-6.7-49.3-8.3-49.3-8.3c-97.1-61.6-213.1,0.3-213.1,0.3c-21.1-4.9-44.8,4.3-44.8,4.3
			c-6.5,29.9-3.5,79.7-3.5,79.7c12.5,14.5,5.4,56.2,11.2,65.6l-11.2-35.3c-1,76.8,60.8,254.3,60.8,254.3h222.1
			c20.3-30.7,30.2-69.3,34.9-103.5h0c11-65.6,10.7-149.7,4-201.6C433.7,554.7,427,500.5,422.4,499.4z"/>
	</g>
</g>
<g>
	<g>
		<path fill="#59B8E2" d="M396.9,863.8h-227l-0.9-2.7c-2.5-7.3-62-179-61-255.6l0.3-24.8l7.5,23.8c-0.7-10.8-2.3-21.2-6.9-26.6
			l-0.9-1l-0.1-1.3c-0.1-2.1-2.9-50.7,3.6-80.8l0.5-2.1l2-0.8c0.6-0.2,15.6-6,32.8-6c4.5,0,8.9,0.4,12.9,1.2
			c8.7-4.4,56.8-27.4,115.5-27.4c36.9,0,70.4,9.2,99.4,27.4c4.8,0.4,25.3,2.4,48.9,8.4c3,0.7,4.6,3.7,6.6,12.1
			c1.1,4.7,2.4,11.2,3.7,19.3c2.2,13.6,3.9,27.2,3.9,27.4c6.3,48.5,7.7,132.6-4,202.7c-5.9,43.1-17.9,78.5-35.6,105.1L396.9,863.8z
			 M175.5,855.8h217.1c16.4-25.5,27.5-59.1,33.2-100.1l0-0.1c11.1-66.2,10.4-150.9,4-200.4c-2.7-21.7-6.9-47.1-9.4-52.3
			c-25.3-6.3-47.2-7.9-47.4-7.9l-1-0.1l-0.8-0.5c-27.9-17.7-60.2-26.7-96-26.7c-61.6,0-112.6,26.9-113.1,27.1l-1.3,0.7l-1.5-0.3
			c-3.8-0.9-8-1.3-12.5-1.3c-12.2,0-23.4,3.3-27.9,4.7c-5.2,26.5-3.4,67.5-3,75.2c7.5,10,8,27.9,8.4,43.8c0.2,6.5,0.3,12.7,1,17
			l11.4,36.2l-17-27.8c-0.4-0.7-0.8-1.5-1.1-2.3C129.2,718.2,169,836.6,175.5,855.8z"/>
	</g>
</g>
<g>
	<g>
		<path fill="#74D3ED" d="M554.4,533.7c0,0,69.2,53.7,156.6,0l42.3,149.4l-129.5,98l-73.8-98L554.4,533.7z"/>
	</g>
</g>
<g>
	<g>
		<path fill="#59B8E2" d="M623.1,786.7l-77-102.3l4.6-158.7l6.2,4.8c0.3,0.2,30.3,23,74.7,23c26.2,0,52.2-7.8,77.3-23.3l4.5-2.8
			l44.5,157.1L623.1,786.7z M554.1,681.8l70.5,93.7l124.1-93.9l-40.2-141.8c-25,14.5-50.9,21.8-77,21.8c-35.5,0-61.9-13.4-73.4-20.5
			L554.1,681.8z"/>
	</g>
</g>
<g>
	<g>
		<g>
			<path fill="#403942" d="M576.1,455.5l-109,49.1c0,0,7.8,205.5,74.6,323h150.7C692.5,827.6,488.9,603.9,576.1,455.5"/>
		</g>
	</g>
	<g>
		<g>
			<path fill="#231F20" d="M701.5,831.6H539.4l-1.1-2c-34.8-61.2-53.4-146.3-62.8-206.9c-10.2-65.5-12.3-117.4-12.3-117.9l-0.1-2.7
				l122.9-55.4l-6.4,10.8c-19.4,33-25.5,72.7-18.1,118.1c6,36.6,20.6,76.9,43.7,119.7c39.3,73.2,89.8,129.1,90.3,129.6L701.5,831.6z
				 M544.1,823.6h139.6c-14.6-17.1-53.8-65.2-85.6-124.5c-23.4-43.6-38.4-84.7-44.5-122.2c-6.9-42.5-2.4-80.5,13.5-112.9l-95.8,43.2
				c0.6,11.4,3.3,57.7,12.1,114.4C492.6,680.8,510.6,763.6,544.1,823.6z"/>
		</g>
	</g>
</g>
<g>
	<g>
		<g>
			<path fill="#403942" d="M579,447.6c0,0-51.8,160,74.8,312.5c0,0-112.8-45.3-141.6-213.7l29.5-10.8l-23.5-23.6
				C518.2,512.1,561,463.1,579,447.6"/>
		</g>
	</g>
	<g>
		<g>
			<path fill="#231F20" d="M666.9,769.7l-14.6-5.9c-1.2-0.5-29.3-12-61.3-44.6c-29.4-29.9-67.6-84.1-82.7-172.1l-0.6-3.3l26.8-9.8
				l-21.8-21.8l2.5-2.8c1.8-2,43.2-49.3,61.2-64.9l10.8-9.3l-4.4,13.6c-0.1,0.4-12.7,40.2-9.9,98c1.7,33.9,8.3,67.2,19.6,99
				c14.2,39.8,35.8,77.4,64.3,111.8L666.9,769.7z M516.7,549.1c15.1,83.8,51.5,135.5,79.6,164.3c15.4,15.7,30.8,27.1,42.5,34.4
				c-23.4-31-41.5-64.4-54-99.4c-11.6-32.6-18.3-66.7-20-101.4c-1.9-39.4,3.1-70.2,6.7-86.9c-16.7,16.6-40.4,43.3-48,51.9l25.3,25.4
				L516.7,549.1z"/>
		</g>
	</g>
</g>
<g>
	<g>
		<g>
			<path fill="#403942" d="M689.5,459.5l109,49.1c0,0-7.8,205.5-74.6,323H573.1C573.1,831.6,776.7,607.8,689.5,459.5"/>
		</g>
	</g>
	<g>
		<g>
			<path fill="#231F20" d="M726.2,835.6H564.1l6.1-6.7c0.5-0.6,51.1-56.5,90.4-129.8c23-42.8,37.7-83.1,43.6-119.6
				c7.4-45.3,1.3-85-18.1-118l-6.4-10.8l122.9,55.4l-0.1,2.7c0,0.5-2.1,52.4-12.3,117.9c-9.5,60.6-28,145.7-62.8,206.9L726.2,835.6z
				 M581.9,827.6h139.6c33.5-60,51.5-142.9,60.7-202.2c8.8-56.6,11.5-102.9,12.1-114.3L698.5,468c15.9,32.4,20.4,70.4,13.5,112.9
				c-6.1,37.5-21.1,78.6-44.5,122.2C635.7,762.4,596.5,810.5,581.9,827.6z"/>
		</g>
	</g>
</g>
<g>
	<g>
		<g>
			<path fill="#403942" d="M686.6,451.6c0,0,51.8,160-74.8,312.5c0,0,112.8-45.3,141.6-213.7l-29.5-10.8l23.5-23.6
				C747.4,516,704.6,467.1,686.6,451.6"/>
		</g>
	</g>
	<g>
		<g>
			<path fill="#231F20" d="M598.7,773.7l10.1-12.1c28.5-34.4,50.2-72,64.3-111.8c11.3-31.8,17.9-65.1,19.6-99
				c2.9-57.7-9.7-97.6-9.9-98l-4.4-13.5l10.8,9.3c18,15.5,59.4,62.9,61.2,64.9l2.5,2.8L731.1,538l26.8,9.8l-0.6,3.3
				c-15.1,88-53.3,142.2-82.7,172.1c-32,32.6-60.2,44.1-61.3,44.6L598.7,773.7z M693.9,464c3.7,16.6,8.7,47.4,6.7,86.9
				c-1.7,34.7-8.4,68.8-20,101.4c-12.5,35-30.6,68.4-54,99.4c11.7-7.3,27.1-18.6,42.5-34.4c28.1-28.7,64.6-80.4,79.6-164.3
				l-32.2-11.8l25.3-25.4C734.3,507.2,710.6,480.6,693.9,464z"/>
		</g>
	</g>
</g>
<g>
	<g>
		
			<rect x="199.3" y="776.4" transform="matrix(0.9926 -0.1215 0.1215 0.9926 -93.8034 33.7099)" fill="#FBFCFA" width="60.5" height="19.3"/>
	</g>
</g>
<g>
	<g>
		<path fill="#FBFCFA" d="M200.7,803.3c-2,0-3.7-1.5-4-3.5l-2.3-19.1c-0.1-1.1,0.2-2.1,0.8-2.9c0.7-0.8,1.6-1.4,2.7-1.5l60-7.3
			c1-0.1,2.1,0.2,2.9,0.8c0.8,0.7,1.4,1.6,1.5,2.7l2.3,19.1c0.3,2.2-1.3,4.2-3.5,4.4l-60,7.3C201,803.3,200.8,803.3,200.7,803.3z
			 M202.8,783.6l1.4,11.2l52.1-6.4l-1.4-11.2L202.8,783.6z"/>
	</g>
</g>
<g>
	<g>
		<polygon fill="#FBFCFA" points="347.9,791.9 403.7,799.8 405.7,780.7 349.9,772.8 		"/>
	</g>
</g>
<g>
	<g>
		<path fill="#FBFCFA" d="M403.7,803.8c-0.2,0-0.4,0-0.6,0l-55.8-7.9c-2.1-0.3-3.6-2.2-3.4-4.4l2-19.1c0.1-1.1,0.7-2.1,1.5-2.7
			c0.9-0.7,1.9-1,3-0.8l55.8,7.9c2.1,0.3,3.6,2.2,3.4,4.4l-2,19.1c-0.1,1.1-0.7,2.1-1.5,2.7C405.5,803.5,404.6,803.8,403.7,803.8z
			 M352.3,788.5l47.9,6.7l1.2-11.2l-47.9-6.8L352.3,788.5z"/>
	</g>
</g>
<g>
	<g>
		<path fill="#D3957D" d="M188.2,387.5c0,3.9,35.7,54.3,40.6,86.3c5.2,33.5,8.2,31.3,8.2,31.3l-4.3,3.3l45.4,36l63.3-35.2l-7.9-23.4
			c0,0-10-44.6,41.6-109.3"/>
	</g>
</g>
<g>
	<g>
		<path fill="#AA5B3F" d="M277.7,549.3l-51.4-40.8l5.2-4.1c-1.8-4.2-3.9-12.6-6.6-30c-3.4-22.1-22.6-54.3-32.9-71.6
			c-6.7-11.3-7.8-13.3-7.8-15.3h8c0-0.4-0.1-0.7-0.1-0.7c0.4,1.3,3.6,6.7,6.8,12c11.3,19,30.3,50.8,33.9,74.5
			c3.8,24.7,6.3,28.6,6.5,29c-0.6-0.8-2.7-1.7-4.7-0.3l4.8,6.4l-0.3,0.2l39.3,31.1l58.1-32.3l-7-20.7c-0.4-1.9-9.8-47.3,42.4-112.7
			l6.2,5c-48,60.2-41.4,102.8-40.9,105.8l8.9,26.3L277.7,549.3z"/>
	</g>
</g>
<g>
	<g>
		<path fill="#231F20" d="M275.2,335.1c2.9,0.1,5.7,0.5,8.5,1l42.1,8.5c6.1,1.2,10.2,7.1,9.2,13.2l-1.6,9.9l60.1-23.8
			c-1.9,17-9.9,32.7-22.5,44.1l-53.6,51.5c-1.2,1.2-2.6,2.2-4.1,3.1c-8.2,4.9-22.1,10.3-43.5,9.9c-21.3-1.5-34.7-8.1-42.4-13.7
			c-1.4-1-2.6-2.2-3.7-3.5L175,379.3c-11.6-12.5-18.2-28.9-18.5-46l11.6,6.4l46.2,22.7l-0.7-10c-0.4-6.2,4.2-11.7,10.4-12.3
			l42.7-4.7C269.5,335.1,272.4,335,275.2,335.1 M272.3,400.9l32.4,0.7c4.3,0.1,8-3,8.8-7.2l6.1-33.9c0.2-1.3-0.6-2.6-1.9-2.9
			l-39.6-9.3c-1.1-0.3-2.3-0.4-3.4-0.5c-1.2-0.1-2.3,0-3.5,0.2l-40.3,5.7c-1.3,0.2-2.2,1.4-2.1,2.7l3,34.3c0.4,4.3,3.8,7.7,8.1,8
			L272.3,400.9 M275.6,327.2c-3.3-0.1-6.6,0-9.8,0.3l-42.7,4.7c-9.3,1-16.3,8.3-17.4,17.2l-33.9-16.7l-11.4-6.3
			c-1.1-0.6-2.3-0.9-3.5-1c-1.5-0.1-3.1,0.3-4.5,1.1c-2.4,1.5-3.9,4.1-3.9,7c0.4,19,7.6,37.2,20.5,51.1l48.8,56
			c1.5,1.7,3.2,3.3,5.1,4.7c8.3,6,23,13.6,46.5,15.2c0.1,0,0.1,0,0.2,0c0.1,0,0.1,0,0.2,0c23.6,0.5,39-5.7,47.7-11
			c2-1.2,3.8-2.6,5.5-4.2l53.5-51.4c14.1-12.8,23-30.2,25-49.1c0.3-2.8-0.9-5.5-3.1-7.2c-1.3-1-2.9-1.6-4.5-1.6
			c-1.1,0-2.2,0.1-3.3,0.6l-47.5,18.8c-0.3-8.9-6.7-16.7-15.8-18.6l-42.1-8.5C282.1,327.7,278.9,327.3,275.6,327.2L275.6,327.2z
			 M237.2,360.8l35.2-5c0.7-0.1,1.3-0.1,2-0.1c0.7,0,1.3,0.1,2,0.3l34.6,8.2l-5.2,28.8c-0.1,0.4-0.4,0.7-0.8,0.6l-32.2-0.7
			l-32.2-2.2c-0.4,0-0.7-0.3-0.7-0.7L237.2,360.8L237.2,360.8z"/>
	</g>
</g>
<g>
	<g>
		<path fill="#3B353D" d="M394.7,339l-59,26.5l1.1-10c0.7-6.2-3.6-11.8-9.8-12.8l-42.5-6.6c-5.7-0.9-11.5-0.9-17.1,0l-42.5,6.6
			c-6.2,0.9-10.5,6.6-9.8,12.8l1.1,10l-47.1-20.6l-11.8-5.9c1.1,17,8.4,33.1,20.5,45.1l51.3,53.9c1.2,1.2,2.5,2.3,3.9,3.3
			c7.9,5.3,21.6,11.3,43,11.8c21.4-0.5,35-6.5,43-11.8c1.4-1,2.8-2.1,3.9-3.3l51.3-53.9C386.4,372,393.7,356,394.7,339 M321.5,358.6
			l-4.6,34.1c-0.6,4.3-4.1,7.5-8.4,7.6l-32.4,0.8l-32.4-0.8c-4.3-0.1-7.9-3.3-8.4-7.6l-4.6-34.1c-0.2-1.3,0.7-2.5,2-2.8l40-7.6
			c2.3-0.4,4.6-0.4,6.9,0l40,7.6C320.8,356.1,321.7,357.3,321.5,358.6z"/>
	</g>
</g>
<g>
	<g>
		
			<ellipse transform="matrix(0.999 4.495999e-02 -4.495999e-02 0.999 11.3359 -12.3071)" fill="#403942" cx="279.3" cy="245.9" rx="142.4" ry="148.7"/>
	</g>
</g>
<g>
	<g>
		<path fill="#231F20" d="M272.4,398.4c-80.6-3.6-143.2-75-139.4-159.2s72.5-149.6,153.1-146c80.6,3.6,143.2,75,139.4,159.2
			S353,402.1,272.4,398.4z M285.8,101.3c-76.2-3.4-141.2,58.6-144.8,138.4c-3.6,79.7,55.5,147.4,131.8,150.8s141.2-58.6,144.8-138.4
			C421.1,172.3,362,104.7,285.8,101.3z"/>
	</g>
</g>
<g>
	<g>
		<circle fill="#CE866A" cx="396.7" cy="302.6" r="21.6"/>
	</g>
</g>
<g>
	<g>
		<circle fill="#CE866A" cx="155.4" cy="302.6" r="21.6"/>
	</g>
</g>
<g>
	<g>
		<g>
			<path fill="#D3957D" d="M271.1,427.1c-52.4-2.4-97.2-44.2-112.4-104.7c-1.2,0.1-2.4,0.1-3.6,0.1c-14.1-0.6-25-12.6-24.4-26.7
				c0.6-12.7,10.4-22.9,22.7-24.3c0-0.6,0-1.2,0.1-1.8c1.8-39.7,16.3-75.1,40.9-99.6c24-23.9,55.9-36.2,89.9-34.6
				s64.7,16.6,86.4,42.6c22.3,26.6,33.6,63.1,31.8,102.8c0,0.6-0.1,1.2-0.1,1.8c12.1,2.5,21,13.5,20.5,26.2
				c-0.6,14.1-12.6,25-26.7,24.4c-1.2-0.1-2.4-0.2-3.6-0.4C371.9,391.8,323.5,429.5,271.1,427.1z"/>
		</g>
	</g>
</g>
<g>
	<g>
		<g>
			<path fill="#AA5B3F" d="M284,139.6c66.6,3,118.1,59.6,114.4,141.2c-0.1,1.8-0.2,3.6-0.3,5.4c0,0,0.1,0,0.1,0
				c11.9,0.5,21.1,10.6,20.6,22.6c-0.5,11.9-10.6,21.1-22.6,20.6c-2.2-0.1-4.4-0.5-6.4-1.3c-18.8,57.5-65.7,97.4-118.6,95
				c-53-2.4-96.1-46.3-109.6-105.2c-2.1,0.5-4.2,0.8-6.4,0.7c-11.9-0.5-21.1-10.6-20.6-22.6c0.5-11.9,10.6-21.1,22.6-20.6
				c0,0,0.1,0,0.1,0c0-1.8,0.1-3.6,0.2-5.4C161.1,188.3,217.5,136.6,284,139.6 M284.4,131.6c-35.1-1.6-68.1,11.1-92.9,35.8
				c-12.4,12.4-22.3,27.2-29.5,44.3c-7.2,17.2-11.5,36.2-12.5,56.5c-12.6,2.9-22.3,14-22.9,27.5c-0.7,16.3,11.9,30.1,28.2,30.9
				c0.3,0,0.5,0,0.8,0c16.4,60.5,62,102.1,115.3,104.5c53.3,2.4,102.4-35,124.2-93.8c0.3,0,0.5,0,0.8,0
				c16.3,0.7,30.1-11.9,30.9-28.2c0.6-13.5-8-25.4-20.3-29.4c0.8-20.3-1.7-39.6-7.4-57.4c-5.6-17.6-14.1-33.3-25.4-46.7
				C351.2,148.8,319.5,133.2,284.4,131.6L284.4,131.6z"/>
		</g>
	</g>
</g>
<g>
	<g>
		<g>
			<path fill="#632C1D" d="M272.7,375.3c-5.8-0.3-11.5-1.2-16.9-2.9c-1.8-0.5-3.6-1.2-5.3-1.8l-6.9-2.4c-2.1-0.7-3.2-3-2.5-5.1
				c0.7-2.1,3-3.2,5.1-2.5l6.9,2.4c1.7,0.6,3.3,1.2,5,1.7c14.1,4.3,29.8,3.3,43.2-2.7c2-0.9,4.4,0,5.3,2c0.9,2,0,4.4-2,5.3
				C294.7,373.8,283.6,375.8,272.7,375.3z"/>
		</g>
	</g>
</g>
<g>
	<g>
		<g>
			<path fill="#AA5B3F" d="M292.9,326.2c-0.7,0-1.4-0.2-2-0.7c-14.6-9.7-30.3-1.5-30.4-1.4c-1.9,1-4.4,0.3-5.4-1.6
				c-1-1.9-0.3-4.4,1.6-5.4c0.8-0.4,20-10.5,38.6,1.7c1.8,1.2,2.3,3.7,1.1,5.5C295.6,325.7,294.3,326.3,292.9,326.2z"/>
		</g>
	</g>
</g>
<g>
	<g>
		<g>
			<g>
				<g>
					<path fill="#231F20" d="M337.7,329.4c-9.2-0.4-32-2.9-43.5-17.2l-0.3-0.4c-0.5-0.7-11.1-16.7-9.8-45.4
						c0.4-9.9,6.6-29.2,26.8-31.9c0.5-0.1,11.7-1.5,28.1-0.7c19,0.9,36.5,4.2,52.1,9.9c5.8,2.1,9.7,7.5,9.9,13.7
						c0.4,12.5-0.4,43.7-17.2,63c-1.5,1.7-3.4,3.1-5.6,4c-5.6,2.3-17.8,6.1-37.3,5.2C340.4,329.5,339.3,329.5,337.7,329.4z
						 M305.3,303.8c8.3,9.9,27.3,11.5,33,11.7c1.6,0.1,2.5,0.1,2.5,0.1l0.4,0c17.5,0.8,27.9-2.7,31.5-4.2c0.3-0.1,0.4-0.3,0.5-0.3
						c13.6-15.6,14.2-42.5,13.8-53.4c0-0.5-0.3-0.9-0.7-1c-14.3-5.2-30.4-8.2-48-9c-15-0.7-25.5,0.6-25.6,0.6
						c-13.7,1.8-14.6,18-14.7,18.7C297,289.1,304.3,302,305.3,303.8z"/>
				</g>
			</g>
		</g>
		<g>
			<g>
				<g>
					<path fill="#231F20" d="M213.6,323.8c-1.6-0.1-2.7-0.2-3.1-0.2c-19.5-0.9-31.4-5.8-36.7-8.6c-2.1-1.1-3.9-2.6-5.2-4.5
						c-15-20.7-13-51.9-11.5-64.3c0.8-6.1,5.1-11.1,11.1-12.7c16.1-4.3,33.8-6,52.8-5.1c16.3,0.7,27.4,3.1,27.8,3.3
						c19.9,4.5,24.3,24.3,23.9,34.2c-1.3,28.7-13.4,43.7-13.9,44.3l-0.4,0.4C245.7,323.8,222.8,324.3,213.6,323.8z M211.7,309.7
						c0,0,0.9,0.1,2.5,0.2c5.7,0.3,24.8,0.4,33.9-8.7c1.1-1.5,9.6-13.7,10.6-35.9c0-0.7,0.4-16.9-13-19.9c-0.1,0-10.4-2.3-25.4-2.9
						c-17.6-0.8-33.9,0.8-48.6,4.7c-0.4,0.1-0.7,0.5-0.8,1c-1.4,10.8-3.2,37.7,8.9,54.4c0,0,0.1,0.2,0.4,0.3c3.5,1.8,13.4,6.2,31,7
						L211.7,309.7L211.7,309.7z"/>
				</g>
			</g>
		</g>
		<g>
			<g>
				<g>
					<path fill="#231F20" d="M258.9,245.1c0,0,18.7,4,40.8,1.8c0,0-8.2,5.2-8.8,23.6c0,0-13.3-2.6-25.4-1.1
						C265.4,269.4,267.6,252.8,258.9,245.1z"/>
				</g>
			</g>
			<g>
				<g>
					<path fill="#231F20" d="M260.8,274l0.7-5.1c0.5-4,0.6-15.7-5.2-20.7L244.6,238l15.1,3.2c0.1,0,8.2,1.7,19.7,2.2
						c6.8,0.3,13.5,0.2,19.8-0.5l16.6-1.6l-14.1,8.9l0,0c0,0-6.5,4.7-6.9,20.3l-0.1,4.7l-4.6-0.9c-0.1,0-5.8-1.1-12.8-1.4
						c-4.2-0.2-8-0.1-11.3,0.3L260.8,274z M277.6,265.1c3.7,0.2,7.1,0.5,9.6,0.9c0.7-6.3,2.2-11,3.9-14.4c-3.9,0.1-7.9,0.1-12-0.1
						c-4.6-0.2-8.6-0.6-11.9-1c2.1,5.1,2.5,10.7,2.5,14.6C272.2,264.9,274.8,264.9,277.6,265.1z"/>
				</g>
			</g>
		</g>
	</g>
	<g>
		<g>
			<g>
				<g>
					<g>
						<path fill="#231F20" d="M347.4,290.8c-4.1-0.2-7-4.4-6.7-9.8c0.2-5.4,3.5-9.3,7.6-9.1c4.1,0.2,7,4.4,6.7,9.8
							C354.8,287,351.5,290.9,347.4,290.8z"/>
					</g>
				</g>
				<g>
					<g>
						<path fill="#231F20" d="M347.4,291.3c-4.4-0.2-7.4-4.6-7.2-10.3s3.7-9.8,8.1-9.6c4.4,0.2,7.4,4.6,7.2,10.3
							C355.2,287.3,351.8,291.4,347.4,291.3z M348.3,272.4c-3.8-0.2-6.8,3.5-7,8.6c-0.2,5.1,2.5,9.1,6.2,9.2c3.8,0.2,6.8-3.5,7-8.6
							C354.7,276.5,352,272.5,348.3,272.4z"/>
					</g>
				</g>
			</g>
		</g>
		<g>
			<g>
				<g>
					<g>
						<path fill="#231F20" d="M237.9,286.5c-4.1-0.2-7-4.4-6.7-9.8c0.2-5.4,3.5-9.3,7.6-9.1c4.1,0.2,7,4.4,6.7,9.8
							C245.3,282.8,242,286.7,237.9,286.5z"/>
					</g>
				</g>
				<g>
					<g>
						<path fill="#231F20" d="M237.9,287c-4.4-0.2-7.4-4.6-7.2-10.3c0.3-5.7,3.7-9.8,8.1-9.6c4.4,0.2,7.4,4.6,7.2,10.3
							C245.7,283.1,242.3,287.2,237.9,287z M238.8,268.1c-3.8-0.2-6.8,3.5-7,8.6c-0.2,5.1,2.5,9.1,6.2,9.2c3.8,0.2,6.8-3.5,7-8.6
							C245.2,272.3,242.6,268.3,238.8,268.1z"/>
					</g>
				</g>
			</g>
		</g>
	</g>
	<g>
		<g>
			<g>
				<circle fill="none" cx="335.5" cy="272.8" r="2.8"/>
			</g>
		</g>
	</g>
	<g>
		<g>
			<g>
				<circle fill="none" cx="226.1" cy="267.9" r="2.8"/>
			</g>
		</g>
	</g>
</g>
<g>
	<g>
		<path fill="#403942" d="M393.6,344.6l-60.1,23.8l1.6-9.9c1-6.2-3.1-12-9.2-13.2l-42.1-8.5c-5.6-1.1-11.4-1.4-17.1-0.8l-42.7,4.7
			c-6.2,0.7-10.8,6.1-10.4,12.3l0.7,10l-46.2-22.7l-11.6-6.4c0.3,17.1,6.9,33.4,18.5,46l48.8,56.1c1.1,1.3,2.4,2.4,3.7,3.5
			c7.7,5.6,21.1,12.2,42.4,13.7c21.4,0.4,35.3-5,43.5-9.9c1.5-0.9,2.8-1.9,4.1-3.1l53.6-51.5C383.8,377.3,391.8,361.6,393.6,344.6
			 M319.6,361l-6.1,33.9c-0.8,4.2-4.5,7.3-8.8,7.2l-32.4-0.7l-32.4-2.3c-4.3-0.3-7.7-3.7-8.1-8l-3-34.3c-0.1-1.3,0.8-2.5,2.1-2.7
			l40.3-5.7c2.3-0.3,4.6-0.2,6.9,0.3l39.6,9.3C319,358.4,319.8,359.7,319.6,361z"/>
	</g>
</g>
<g>
	<g>
		<path fill="#80DBF5" d="M309.1,682.9c0,0,2.2,113.1-8.8,177"/>
	</g>
</g>
<g>
	<g>
		<path fill="#59B8E2" d="M304.2,860.5l-7.9-1.4c10.8-62.7,8.7-175.1,8.7-176.2l8-0.2c0,0.3,0.5,28.8-0.3,64.7
			C312,780.7,309.9,827.3,304.2,860.5z"/>
	</g>
</g>
<g>
	<g>
		<path fill="#80DBF5" d="M309.1,682.9c0,0-2.9-70.6-18.7-134.5"/>
	</g>
</g>
<g>
	<g>
		<path fill="#59B8E2" d="M305.1,683c0-0.7-3.1-71-18.6-133.7l7.7-1.9C310,610.9,313,682,313.1,682.7L305.1,683z"/>
	</g>
</g>
<g>
	<g>
		<path fill="#FBFCFA" d="M227.6,466.6c0,0,13.6,47.2,65.9,64.9c0,0,24.2-9.4,38.7-61.9c0,0,19.7,9.1,26.3,13.1
			c0,0-12.9,67.1-63.3,81c0,0-82.4-25.7-94-88.9C201.3,474.8,214.6,469.5,227.6,466.6z"/>
	</g>
</g>
<g>
	<g>
		<path fill="#77787C" d="M295.2,567.9l-1.1-0.3c-0.9-0.3-21.4-6.8-43.6-21.2c-29.8-19.4-48.1-43.9-53.1-70.8l-0.6-3.2l3-1.2
			c0.6-0.2,13.7-5.5,27-8.3l3.6-0.8l1,3.6c0.1,0.4,13.5,44.5,61.8,61.7c2-1.1,6.4-4.1,11.7-10.2c6.7-7.8,16.3-22.6,23.4-48.5
			l1.2-4.5l4.3,2c0.8,0.4,20.1,9.2,26.7,13.3l2.3,1.4l-0.5,2.7c-0.1,0.7-3.4,17.6-13.1,36.4c-13,25.2-31.3,41.7-53,47.7L295.2,567.9
			z M205.9,477.3c12.4,54,80,79,89.5,82.2c40.9-12.1,55.6-62.5,58.6-74.8c-5.2-2.9-14-7.1-19.2-9.5c-14.9,49.8-38.8,59.6-39.8,60
			l-1.4,0.5l-1.4-0.5c-45.8-15.5-62.9-52.2-67.3-64C217.3,473.2,209.9,475.8,205.9,477.3z"/>
	</g>
</g>
<g>
	<g>
		<g>
			<path fill="#BF7A62" d="M651.1,109.9c19.2-1,33.6,2,33.6,2c149.1,28.7,117,241.4,117,241.4c-14.4,74.2-97.5,92.1-97.5,92.1
				c41.2-16.4,24.7-152.2,24.7-152.2C715.3,159,582.3,156,582.3,156l-33.8,235.2c3.4,29.4,43.2,63.7,43.2,63.7
				c-49.8,2.5-93.4-55.4-93.4-55.4c-36.8-45.1-23.5-145.7-15.3-190c4-21.8,14.6-42.1,30.8-57.3c18.9-17.8,38.4-22.9,52.9-23.6
				c13.5-0.7,22.5,2.4,22.5,2.4C608.6,115.6,632.2,110.8,651.1,109.9 M650.7,101.9c-24.7,1.3-46.5,8.3-63.3,20.3
				c-4.4-1-11.9-2.1-21.2-1.7c-14.8,0.8-36.8,5.8-58,25.8c-17.2,16.2-28.7,37.6-33.1,61.7c-4.4,23.8-9.6,59.9-9.4,96.2
				c0.3,45.5,9.1,79.2,26.2,100.2c3,3.9,47.4,61.2,100.1,58.5c3.3-0.2,6.1-2.3,7.1-5.4c1.1-3.1,0.1-6.5-2.3-8.6
				c-10.2-8.9-37.1-36.2-40.3-57.6l32.6-226.7c11.3,1.2,34.5,5.1,58.3,17.1c19.1,9.6,34.7,22.6,46.6,38.5
				c14.9,19.9,23.9,44.7,26.8,73.7c0,0.1,0,0.1,0,0.2c0,0.3,4.1,33.9,3,68.9c-0.6,20.2-2.7,36.9-6.3,49.5c-2.7,9.7-7.8,22-16.5,25.4
				c-3.9,1.5-5.9,5.8-4.7,9.7c1.1,3.5,4.4,5.8,8,5.6c0.4,0,0.9-0.1,1.3-0.2c0.9-0.2,22.4-4.9,45.9-19.2
				c31.5-19.2,51.5-46.6,57.8-79.2c0-0.1,0-0.2,0.1-0.3c0.3-2.2,8.1-55.2-2.6-112.6c-6.4-34.2-18.1-62.7-34.7-84.9
				c-21.1-28.1-50-45.9-86-52.9C685,103.8,670.3,100.9,650.7,101.9L650.7,101.9z"/>
		</g>
	</g>
</g>
<g>
	<g>
		<g>
			<path fill="#D3A789" d="M582.4,155.9c0,0,133,3.2,146.4,137.2c0,0,16.4,135.8-24.8,152.2c0,0,83.2-17.8,97.6-92
				c0,0,32.3-212.7-116.8-241.5c0,0-56.4-11.8-95.5,19c0,0-38.9-13.2-75.5,21.2c-16.2,15.2-26.8,35.5-30.8,57.3
				c-8.2,44.3-21.6,144.9,15.2,190c0,0,43.5,58,93.3,55.5c0,0-39.7-34.3-43.1-63.8"/>
		</g>
	</g>
</g>
<g>
	<g>
		<g>
			<path fill="#F2DBCC" d="M537.2,345.5c0,3.9,35.7,54.3,40.6,86.3c5.2,33.5-12.3,39.4-12.3,39.4l-31.9,50.7l97,86l97.9-44.1
				l-42.8-106.2c0,0-13.3-58.3,38.3-123"/>
		</g>
	</g>
	<g>
		<g>
			<path fill="#D3A789" d="M629.9,612.5l-101.5-89.9l34.5-54.7l1.3-0.5c0.5-0.2,14.1-5.6,9.6-35c-3.4-22.1-22.6-54.3-32.9-71.6
				c-6.7-11.3-7.8-13.3-7.8-15.3h8c0-0.4-0.1-0.7-0.1-0.7c0.4,1.3,3.6,6.7,6.8,12c11.3,19,30.3,50.8,33.9,74.5
				c4.8,31-8.8,40.8-13.5,43.1l-29.5,46.8l92.5,82l92.1-41.5l-41.5-103l-0.1-0.3c-0.1-0.6-3.4-15.6-0.3-38.7
				c2.9-21.2,12.1-53.6,39.3-87.7l6.2,5c-26,32.6-34.8,63.3-37.6,83.4c-2.8,20.1-0.4,33.8,0,35.9l44.1,109.4L629.9,612.5z"/>
		</g>
	</g>
</g>
<g>
	<g>
		<g>
			<path fill="#74D3ED" d="M554.4,533.7c0,0,69.2,53.7,156.6,0l42.3,149.4l-129.5,98l-73.8-98L554.4,533.7z"/>
		</g>
	</g>
	<g>
		<g>
			<path fill="#59B8E2" d="M623.1,786.7l-77-102.3l4.6-158.7l6.2,4.8c0.3,0.2,30.3,23,74.7,23c26.2,0,52.2-7.8,77.3-23.3l4.5-2.8
				l44.5,157.1L623.1,786.7z M554.1,681.8l70.5,93.7l124.1-93.9l-40.2-141.8c-25,14.5-50.9,21.8-77,21.8
				c-35.5,0-61.9-13.4-73.4-20.5L554.1,681.8z"/>
		</g>
	</g>
</g>
<g>
	<g>
		<g>
			<g>
				<path fill="#403942" d="M695.1,457.5l101.7,49.1c0,0-7.8,205.5-74.6,323H571.5C571.5,829.6,782.3,605.9,695.1,457.5"/>
			</g>
		</g>
		<g>
			<g>
				<path fill="#231F20" d="M724.5,833.6H562.2l6.3-6.7c0.5-0.6,52.9-56.5,94-129.8c24-42.8,39.5-83.1,46.1-119.6
					c8.1-45.3,2.4-84.9-17-117.9l4.4-6l104.9,50.6l-0.1,2.6c0,0.5-2.1,52.4-12.3,117.9c-9.5,60.6-28,145.7-62.8,206.9L724.5,833.6z
					 M580.4,825.6h139.4c33.5-60,51.5-142.9,60.7-202.2c8.9-56.8,11.5-103.1,12.1-114.4l-88.4-42.6c15.6,32.4,19.7,70.1,12.1,112.5
					c-6.7,37.5-22.5,78.6-47,122.2C636.2,760.4,595.6,808.5,580.4,825.6z"/>
			</g>
		</g>
	</g>
	<g>
		<g>
			<g>
				<path fill="#403942" d="M692.5,449.6c18,15.5,53.3,64.5,53.3,64.5l-23.5,23.6l29.5,10.8c-28.8,168.4-141.6,213.7-141.6,213.7
					C736.8,609.6,692.5,449.6,692.5,449.6L692.5,449.6z"/>
			</g>
		</g>
		<g>
			<g>
				<path fill="#231F20" d="M610.1,766.1c-1.2,0-2.5-0.6-3.2-1.6c-1.1-1.5-1-3.5,0.2-4.9c28.5-34.4,50.6-72,65.5-111.8
					c12-31.9,19.4-65.2,22.2-99.1c4.7-57.8-6-97.6-6.2-98c-0.5-1.7,0.2-3.5,1.7-4.4c1.5-0.9,3.4-0.8,4.7,0.4
					c18.1,15.7,52.4,63.1,53.9,65.2c1.1,1.6,1,3.8-0.4,5.1l-19.1,19.2l23.7,8.6c1.8,0.7,2.9,2.5,2.6,4.4
					c-15.1,88-53.3,142.2-82.7,172.1c-32,32.6-60.2,44.1-61.3,44.6C611.1,766,610.6,766.1,610.1,766.1z M699.2,461.9
					c3,16.6,6.8,47.5,3.6,87.1c-2.8,34.7-10.4,68.8-22.6,101.4c-13.1,35-31.6,68.4-55.1,99.3c11.7-7.3,27.1-18.6,42.5-34.4
					c28.1-28.7,64.6-80.4,79.6-164.3l-26.4-9.6c-1.3-0.5-2.2-1.6-2.5-2.9c-0.3-1.3,0.1-2.7,1.1-3.7l21.1-21.2
					C734.2,505.1,714.4,478.4,699.2,461.9z"/>
			</g>
		</g>
	</g>
	<g>
		<g>
			<g>
				<path fill="#403942" d="M568.5,457.5l-103,45.2c0,0,7.8,205.5,74.6,323h150.7c0,0-209-223.7-121.7-372.1"/>
			</g>
		</g>
		<g>
			<g>
				<path fill="#231F20" d="M690.8,829.6H537.8l-1.1-2c-34.8-61.2-53.4-146.3-62.8-206.9c-10.2-65.5-12.3-117.4-12.3-117.9l-0.1-2.7
					l102.1-44.7c0.7-1.3,1.4-2.6,2.2-3.8l6.9,4c-0.9,1.6-1.8,3.2-2.7,4.8l0.3,0.8l-0.9,0.4c-16.7,31.8-21.4,69.4-14,111.9
					c6.4,36.6,21.7,76.8,45.4,119.6c40.6,73.2,92.6,129.2,93.1,129.8l6.3,6.7H690.8z M542.4,821.7h139.5
					c-15-17.1-55.2-65.2-88.2-124.5c-24.2-43.6-39.8-84.7-46.4-122.2c-7.1-40.6-3.6-77,10.5-108.4l-88.3,38.7
					c0.6,11.4,3.3,57.7,12.1,114.3C490.9,678.8,508.9,761.6,542.4,821.7z"/>
			</g>
		</g>
	</g>
	<g>
		<g>
			<g>
				<path fill="#403942" d="M574.1,445.6c-18,15.5-57.6,64.5-57.6,64.5l23.5,23.6l-29.5,10.8c28.8,168.4,141.6,213.7,141.6,213.7
					C525.5,605.6,574.1,445.6,574.1,445.6L574.1,445.6z"/>
			</g>
		</g>
		<g>
			<g>
				<path fill="#231F20" d="M652.2,762.1c-0.5,0-1-0.1-1.5-0.3c-1.2-0.5-29.3-12-61.3-44.6c-29.4-29.9-67.6-84.1-82.7-172.1
					c-0.3-1.9,0.8-3.8,2.6-4.4l23.7-8.6l-19.1-19.2c-1.4-1.4-1.6-3.7-0.3-5.3c1.6-2,40-49.4,58.1-65c1.3-1.2,3.3-1.3,4.8-0.3
					c1.5,1,2.2,2.8,1.6,4.5c-0.1,0.4-11.9,40.2-8.3,98c2.1,33.9,9.1,67.2,20.7,99c14.5,39.8,36.3,77.4,64.9,111.8
					c1.2,1.4,1.2,3.4,0.2,4.9C654.6,761.5,653.4,762.1,652.2,762.1z M515.1,547.1c15.1,84,51.7,135.8,79.9,164.6
					c16.1,16.4,31.3,27.3,42.1,34c-23.4-31-41.6-64.3-54.4-99.3c-11.9-32.6-19-66.7-21.1-101.4c-2.5-39.5,2-70.4,5.4-87
					c-16,16.6-38.1,43.2-45.1,51.9l21,21c1,1,1.4,2.4,1.1,3.7c-0.3,1.3-1.2,2.4-2.5,2.9L515.1,547.1z"/>
			</g>
		</g>
	</g>
</g>
<g>
	<g>
		<g>
			<g>
				<path fill="#F2DBCC" d="M633.2,428.6c-52.4,0.7-99.6-38.4-118.4-97.8c-1.2,0.2-2.4,0.3-3.6,0.3c-14.1,0.2-25.8-11.1-26-25.2
					c-0.2-12.8,9.1-23.5,21.3-25.6c0-0.6,0-1.2,0-1.8c-0.6-39.8,11.8-75.9,34.9-101.8c22.5-25.2,53.7-39.4,87.7-39.9
					c34-0.5,65.6,12.8,88.8,37.4c23.8,25.2,37.3,61,37.8,100.8c0,0.6,0,1.2,0,1.8c12.3,1.7,21.8,12.2,22,25
					c0.2,14.1-11.1,25.8-25.2,26c-1.2,0-2.4-0.1-3.6-0.2C731.7,387.4,685.7,427.9,633.2,428.6z"/>
			</g>
		</g>
	</g>
	<g>
		<g>
			<g>
				<g>
					<path fill="#D3A789" d="M629.1,140.8c66.6-1,121.4,52.5,122.6,134.2c0,1.8,0,3.6,0,5.5c0,0,0.1,0,0.1,0
						c11.9-0.2,21.7,9.4,21.9,21.3c0.2,11.9-9.4,21.7-21.3,21.9c-2.2,0-4.4-0.3-6.4-0.9c-15.4,58.5-59.8,101.1-112.8,101.8
						c-53,0.8-98.6-40.5-115.7-98.6c-2,0.7-4.2,1-6.4,1.1c-11.9,0.2-21.7-9.4-21.9-21.3c-0.2-11.9,9.4-21.7,21.3-21.9
						c0,0,0.1,0,0.1,0c-0.1-1.8-0.1-3.6-0.2-5.4C509.3,196.8,562.5,141.8,629.1,140.8 M629,132.8c-35.2,0.5-67.3,15.1-90.6,41.2
						c-11.7,13.1-20.7,28.5-26.8,45.9c-6.2,17.6-9.3,36.9-9.2,57.2c-12.4,3.7-21.4,15.2-21.2,28.8c0.2,16.3,13.7,29.4,30,29.2
						c0.3,0,0.5,0,0.8,0c20,59.4,68,98.3,121.3,97.5c53.3-0.8,100.2-41,118.5-101c0.3,0,0.5,0,0.8,0c16.3-0.2,29.4-13.7,29.2-30
						c-0.2-13.5-9.5-24.9-22-28.2c-0.4-20.3-4.1-39.4-10.8-56.9c-6.6-17.2-16.1-32.4-28.1-45.1C696.7,146.1,664.2,132.3,629,132.8
						L629,132.8z"/>
				</g>
			</g>
		</g>
	</g>
</g>
<g>
	<g>
		<g>
			<g>
				<path fill="#C46A82" d="M635.3,377c-5.8,0.3-11.5-0.1-17.1-1.2c-1.9-0.4-3.7-0.8-5.4-1.3l-7.1-1.7c-2.1-0.5-3.4-2.7-2.9-4.8
					c0.5-2.1,2.7-3.4,4.8-2.9l7.1,1.7c1.8,0.4,3.4,0.8,5.1,1.2c14.4,2.9,30,0.4,42.8-6.9c1.9-1.1,4.4-0.4,5.4,1.5
					c1.1,1.9,0.4,4.4-1.5,5.4C657,373.4,646.2,376.4,635.3,377z"/>
			</g>
		</g>
	</g>
	<g>
		<g>
			<g>
				<path fill="#D3A789" d="M650.7,326.2c-0.7,0-1.4-0.1-2.1-0.5c-15.4-8.2-29.8,1.2-30.4,1.6c-1.8,1.2-4.3,0.7-5.5-1.1
					c-1.2-1.8-0.7-4.3,1.1-5.5c0.8-0.5,18.9-12.4,38.6-2c1.9,1,2.7,3.4,1.7,5.4C653.3,325.4,652.1,326.1,650.7,326.2z"/>
			</g>
		</g>
	</g>
	<g>
		<g>
			<g>
				<g>
					<g>
						<path fill="#231F20" d="M668.2,280.9c-4.1,0.2-7.3-3.7-7.6-9.1c-0.3-5.4,2.6-9.6,6.7-9.8c4.1-0.2,7.3,3.7,7.6,9.1
							C675.1,276.5,672.2,280.7,668.2,280.9z"/>
					</g>
				</g>
				<g>
					<g>
						<path fill="#231F20" d="M668.2,281.4c-4.4,0.2-7.9-3.9-8.1-9.5s2.8-10.1,7.1-10.3c4.4-0.2,7.9,3.9,8.1,9.5
							C675.6,276.8,672.5,281.2,668.2,281.4z M667.2,262.5c-3.8,0.2-6.4,4.2-6.2,9.3c0.3,5.1,3.3,8.8,7.1,8.6
							c3.8-0.2,6.4-4.2,6.2-9.3C674.1,266,671,262.4,667.2,262.5z"/>
					</g>
				</g>
			</g>
		</g>
		<g>
			<g>
				<g>
					<g>
						<path fill="#231F20" d="M558.8,287.2c-4.1,0.2-7.3-3.7-7.6-9.1c-0.3-5.4,2.6-9.6,6.7-9.8c4.1-0.2,7.3,3.7,7.6,9.1
							C565.7,282.8,562.8,287,558.8,287.2z"/>
					</g>
				</g>
				<g>
					<g>
						<path fill="#231F20" d="M558.8,287.7c-4.4,0.2-7.9-3.9-8.1-9.5s2.8-10.1,7.1-10.3s7.9,3.9,8.1,9.5
							C566.2,283,563.2,287.5,558.8,287.7z M557.8,268.8c-3.8,0.2-6.4,4.2-6.2,9.3c0.3,5.1,3.3,8.8,7.1,8.6c3.8-0.2,6.4-4.2,6.2-9.3
							C564.7,272.3,561.6,268.6,557.8,268.8z"/>
					</g>
				</g>
			</g>
		</g>
		<g>
			<g>
				<g>
					<circle fill="none" cx="670.3" cy="268.6" r="2.8"/>
				</g>
			</g>
		</g>
		<g>
			<g>
				<g>
					<circle fill="none" cx="560.9" cy="274.2" r="2.8"/>
				</g>
			</g>
		</g>
	</g>
</g>
<g>
	<g>
		<g>
			<g>
				<path fill="#BCBCBC" d="M570.1,307.7c-6.6,0.3-12.3,0.1-16.8-0.2c-8.5-0.7-16.1-5-21-11.8c-10.3-14.2-14.4-28.8-14.6-29.4
					l7.7-2.2c0,0.1,4,13.8,13.4,26.9c3.5,4.9,9.1,8,15.2,8.5c8.6,0.7,22.1,0.8,37.3-2.8c4-0.9,7.6-2.9,10.2-5.8
					c4.6-4.9,10.3-14,11.3-29.3l8,0.5c-1.1,17.7-7.9,28.4-13.4,34.2c-3.7,4-8.7,6.8-14.2,8.1C584.7,306.4,576.9,307.3,570.1,307.7z"
					/>
			</g>
		</g>
	</g>
	<g>
		<g>
			<g>
				<path fill="#BCBCBC" d="M694.8,301.3c-6.9,0.4-14.7,0.2-23.1-0.9c-5.7-0.7-10.8-3-15-6.6c-6.1-5.3-13.9-15.2-16.8-32.7l7.9-1.3
					c2.5,15.1,9.1,23.6,14.2,28c2.9,2.6,6.7,4.2,10.8,4.7c15.5,2,28.9,0.6,37.4-1c6-1.1,11.2-4.8,14.3-10c8.1-14,10.6-28,10.6-28.1
					l7.9,1.4c-0.1,0.6-2.8,15.5-11.5,30.7c-4.2,7.3-11.4,12.3-19.7,13.9C707.1,300.2,701.4,301,694.8,301.3z"/>
			</g>
		</g>
	</g>
	<g>
		<g>
			<g>
				<g>
					<path fill="#231F20" d="M620.8,271c-4.3,0.2-8.4-2.1-10.4-6c-2.9-5.8-14.4-7.4-18.5-7.4l-64.4,3.3c0.6,2.6,1.4,5.2,2.4,7.7
						l-6.4,2.8l-6.4,2.7l0-0.1c-1.9-4.6-3.2-9.4-3.9-14.2l-0.3-2.4c-0.4-2.4,0.4-4.9,1.9-6.9c1.6-1.9,3.9-3.1,6.4-3.2l70.7-3.6
						c2.3,0,21.7,0.5,29.9,13.1c2.4-0.5,5.1-0.8,8.1-1c3.8-0.2,7.1,2.8,7.3,6.6c0.2,3.8-2.8,7.1-6.6,7.3c-3.7,0.2-6.1,0.7-7.4,1
						C622.3,270.8,621.6,271,620.8,271z"/>
				</g>
			</g>
		</g>
		<g>
			<g>
				<g>
					<path fill="#231F20" d="M737.5,267.3c-0.8,0-1.6-0.1-2.4-0.3c-3.7-1.1-5.8-5-4.7-8.7l0-0.1c0.8-2.6,1.3-5.2,1.6-7.9l-64.4,3.3
						c-4,0.5-15.4,3.2-17.7,9.3c-1.8,4.8-6.9,7.7-12,6.9c-1.4-0.2-3.8-0.5-7.5-0.3c-3.8,0.2-7.1-2.8-7.3-6.6
						c-0.2-3.8,2.8-7.1,6.6-7.3c3-0.2,5.7-0.1,8.2,0.1c3-5.7,8.6-10.2,16.6-13.1c6-2.2,11.2-2.8,11.8-2.9l0.4,0l70.3-3.6
						c2.5-0.1,4.9,0.8,6.7,2.5c1.8,1.7,2.7,4.2,2.6,6.6l-0.1,2.4c-0.2,4.9-1,9.8-2.5,14.6C742.9,265.2,740.3,267.1,737.5,267.3z"/>
				</g>
			</g>
		</g>
	</g>
</g>
<g>
	<g>
		<g>
			<path fill="#CFAE84" d="M541.7,398.8"/>
		</g>
	</g>
</g>
<g>
	<g>
		<g>
			<path fill="#D3A789" d="M582.3,156c0,0,133,3.1,146.5,137.1c0,0,16.5,135.8-24.7,152.2c0,0,83.2-17.9,97.5-92.1
				c0,0,32.1-212.7-117-241.4c0,0-56.5-11.8-95.5,19.1c0,0-41.3-7.3-82.3,70.3l-20.7,78l24.4,9.3C510.7,288.6,503.9,195.1,582.3,156
				z"/>
		</g>
	</g>
</g>
<g>
	<g>
		<circle fill="#74D3ED" cx="374.8" cy="596.3" r="41.4"/>
		<path fill="#59B8E2" d="M374.8,641.7c-25,0-45.4-20.4-45.4-45.4s20.4-45.4,45.4-45.4s45.4,20.4,45.4,45.4S399.8,641.7,374.8,641.7
			z M374.8,558.9c-20.6,0-37.4,16.8-37.4,37.4s16.8,37.4,37.4,37.4c20.6,0,37.4-16.8,37.4-37.4S395.4,558.9,374.8,558.9z"/>
	</g>
	<g>
		<rect x="371.7" y="581.4" fill="#FBFCFA" width="8" height="55.2"/>
	</g>
	<g>
		<path fill="#FBFCFA" d="M359.9,604.1c-0.8,0-1.6-0.2-2.4-0.8c-1.8-1.3-2.2-3.8-0.9-5.6l14.8-20.3c0.7-0.9,1.8-1.5,2.9-1.6
			c1.2-0.1,2.3,0.3,3.1,1.2l15.8,15.8c1.6,1.6,1.6,4.1,0,5.7c-1.6,1.6-4.1,1.6-5.7,0L375.2,586l-12,16.5
			C362.4,603.6,361.2,604.1,359.9,604.1z"/>
	</g>
	<g>
		<path fill="#59B8E2" d="M374.6,641.7c-25,0-45.4-20.4-45.4-45.4s20.4-45.4,45.4-45.4s45.4,20.4,45.4,45.4S399.7,641.7,374.6,641.7
			z M374.6,558.9c-20.6,0-37.4,16.8-37.4,37.4s16.8,37.4,37.4,37.4s37.4-16.8,37.4-37.4S395.3,558.9,374.6,558.9z"/>
	</g>
</g>
<g>
	<path fill="#FBFCFA" d="M342.9,590c-0.5,0-0.9-0.1-1.4-0.2c-2.1-0.8-3.1-3.1-2.4-5.1c7.9-21.5,27.2-24.8,28-24.9
		c2.2-0.3,4.2,1.2,4.6,3.3c0.3,2.2-1.1,4.2-3.3,4.6c-0.7,0.1-15.5,2.8-21.8,19.7C346.1,589,344.6,590,342.9,590z"/>
</g>
<g>
	<g>
		<rect x="611.8" y="733.7" fill="#403942" width="101.5" height="47.4"/>
	</g>
</g>
<g>
	<g>
		<path fill="#F2DBCC" stroke="#F2DBCC" stroke-miterlimit="10" d="M551.3,667.7c-6.4-0.7-12-4.9-14.5-11.1
			c-0.3-0.6-0.5-1.2-0.9-1.7c-1.5-2.5-4-4.6-7.9-6.8c-13.7-7.7-30.1-8.8-44.4-8.9l-1.1,0c-5.4,0-9.6,0.4-13.1,2.3
			c-2.6,1.5-5,3.9-7.3,7.6c-7.9,12.7-8.4,29.1-8,41.9c0.5,13.5,2,24.4,4.7,34.3c0.9,3.3,2,6.6,4.1,8.9c3,3.3,7.8,4.8,15.7,4.8
			c1.4,0,2.9,0,4.9-0.1l5.7-0.3c15.4-0.7,30-2.2,39.2-11.5l0.1-0.1c2.2-2.2,5.3-3.3,8.4-3l17.8,1.9l6-57.1L551.3,667.7z"/>
	</g>
</g>
<path fill="#D3A789" d="M552.1,659.7c-3.5-0.4-6.6-2.7-8-6.2c-0.4-1-0.9-1.9-1.4-2.8c-2.2-3.7-5.7-6.8-10.8-9.7
	c-15.3-8.5-33-9.8-48.3-9.9l-1.2,0c-5.7,0-11.7,0.4-17,3.3c-3.8,2.1-7.2,5.5-10.2,10.3c-5.9,9.4-8.2,20.2-9,30.5
	c0.4,5.9,0.3,11.6,0,16.7c0,0.8-0.1,1.5-0.1,2.3c0.6,12.7,2.2,23.3,4.9,33.1c1.2,4.2,2.7,8.6,5.8,12.1c6,6.6,15.2,7.4,21.6,7.4
	c1.5,0,3.2,0,5.2-0.1l5.7-0.3c16.3-0.8,33.1-2.5,44.4-13.8l0.1-0.1c0.5-0.5,1.2-0.8,1.9-0.7l17.9,1.9l0.4-4l0.4-4l-17.8-1.9
	c-3.1-0.3-6.2,0.8-8.4,3l-0.1,0.1c-9.2,9.4-23.8,10.8-39.2,11.5l-5.7,0.3c-2,0.1-3.5,0.1-4.9,0.1c-7.9,0-12.7-1.5-15.7-4.8
	c-2.1-2.3-3.2-5.6-4.1-8.9c-2.7-9.9-4.2-20.8-4.7-34.3c-0.5-12.8,0-29.2,8-41.9c2.3-3.6,4.6-6.1,7.3-7.6c3.5-1.9,7.8-2.3,13.1-2.3
	l1.1,0c14.3,0.1,30.7,1.2,44.4,8.9c3.9,2.2,6.4,4.4,7.9,6.8c0.3,0.5,0.6,1.1,0.9,1.7c2.5,6.1,8.1,10.4,14.5,11.1l9.4,1l0.4-4l0.4-4
	L552.1,659.7z"/>
<g>
	<g>
		<path fill="#D3957D" stroke="#D3957D" stroke-miterlimit="10" d="M353.7,724.2l3.2-0.2c0.2,0,0.4,0,0.6,0c2.3,0,4.5,1,6.1,2.6
			c9.1,9.5,23.7,11.1,39,12.1l5.7,0.4c1.6,0.1,3.7,0.2,5.7,0.2c7.3,0,12-1.4,14.9-4.5c2.1-2.3,3.3-5.6,4.2-8.8
			c2.9-9.9,4.5-20.8,5.2-34.2c0.6-12.8,0.4-29.1-7.4-42c-2.2-3.7-4.6-6.2-7.2-7.7c-4-2.3-9-2.5-14.2-2.5c-0.6,0-1.2,0-1.8,0
			c-12.8,0-29.2,0.9-42.8,8.3c-4,2.1-6.5,4.3-8,6.7c-0.1,0.1-0.1,0.2-0.2,0.3c-1.4,2.4-3.8,3.9-6.6,4.2l-2.1,0.2
			C354.3,680.1,356.1,702.4,353.7,724.2z"/>
	</g>
</g>
<g>
	<g>
		<path fill="#AA5B3F" d="M446.3,675.3c-0.4,5.6-0.4,11-0.2,15.9c0,1,0.1,2.1,0.1,3.1c0-0.8,0.1-1.5,0.1-2.3
			C446.6,686.8,446.8,681.1,446.3,675.3z"/>
	</g>
</g>
<path fill="#AA5B3F" d="M446.3,675.3c-0.7-10-2.9-20.5-8.5-29.8c-2.9-4.9-6.2-8.3-10-10.5c-5.6-3.2-12-3.5-18.1-3.6
	c-0.6,0-1.2,0-1.8,0c-13.7,0-31.4,1.1-46.6,9.2c-5.2,2.8-8.7,5.9-11,9.5c-0.1,0.2-0.2,0.3-0.3,0.5c-0.1,0.1-0.2,0.2-0.3,0.2
	l-4.9,0.4c1,1.2,1.7,2.6,2.2,3.8c0.3,0.9,0.6,1.7,0.8,2.3c0.2,0.5,0.3,1.1,0.4,1.6l2.1-0.2c2.8-0.2,5.2-1.8,6.6-4.2
	c0.1-0.1,0.1-0.2,0.2-0.3c1.5-2.4,4-4.6,8-6.7c13.5-7.3,30-8.3,42.8-8.3c0.6,0,1.2,0,1.8,0c5.2,0,10.2,0.3,14.2,2.5
	c2.6,1.5,5,4,7.2,7.7c7.8,12.8,8,29.2,7.4,42c-0.7,13.5-2.3,24.3-5.2,34.2c-0.9,3.3-2.1,6.6-4.2,8.8c-2.9,3.1-7.6,4.5-14.9,4.5
	c-2.1,0-4.2-0.1-5.7-0.2l-5.7-0.4c-15.4-1-29.9-2.6-39-12.1c-1.6-1.7-3.8-2.6-6.1-2.6c-0.2,0-0.4,0-0.6,0l-3.2,0.2
	c-0.1,1.3-0.3,2.7-0.5,4c-0.2,1.4-0.4,2.7-0.6,4l4.9-0.4c0.1,0,0.2,0.1,0.3,0.2c11.1,11.6,28,13.5,44.3,14.5l5.7,0.4
	c1.7,0.1,3.9,0.2,6.2,0.2c0,0,0,0,0,0c6.1,0,14.8-0.7,20.7-7.1c3.2-3.5,4.8-7.8,6-12c2.9-9.9,4.6-20.7,5.4-33.8c0-1-0.1-2-0.1-3.1
	C446,686.3,445.9,680.8,446.3,675.3z"/>
<polygon fill="#403942" points="571.6,641.6 569.4,661.6 569,665.6 568.6,669.5 562.6,726.6 562.1,730.6 561.7,734.6 559.6,754.6 
	856.7,775 870,676.4 "/>
<path fill="#231F20" d="M877.6,670.5c-0.7-0.8-1.6-1.4-2.7-1.5l-306.5-35.8c-1.1-0.1-2.1,0.2-3,0.8c-0.8,0.7-1.4,1.6-1.5,2.7
	l-2.5,24l-0.4,4l-0.4,4l-6,57.1l-0.4,4l-0.4,4l-2.6,24.2c-0.1,1.1,0.2,2.2,0.9,3c0.7,0.8,1.7,1.3,2.8,1.4l304.9,21
	c0.1,0,0.2,0,0.3,0c2,0,3.7-1.5,3.9-3.5l14.4-106.3C878.6,672.4,878.3,671.3,877.6,670.5z M559.6,754.6l2.1-20.1l0.4-4l0.4-4l6-57.1
	l0.4-4l0.4-4l2.1-20L870,676.4L856.7,775L559.6,754.6z"/>
<g>
	<g>
		<path fill="#FBFCFA" d="M271.4,646.1c-23.5-5.5-71.5-16.4-121.7-25c-41.2-7.1-75.9-11.3-103-12.5c-6.2-0.3-11.9-0.4-17.1-0.4v180
			c55.2,0.5,139.6-7.3,249.7-42.9C281.1,715,278.4,680.2,271.4,646.1z"/>
	</g>
</g>
<path fill="#77787C" d="M270.5,641.8c-0.3-1.2-0.5-2.4-0.8-3.5c-0.1-0.2-0.1-0.5-0.1-0.7c-24.7-5.8-70.6-16-118.6-24.2
	c-51.4-8.8-91.9-13.1-121.5-13v3.9v4c5.2,0,10.8,0.1,17.1,0.4c27.1,1.2,61.8,5.5,103,12.5c50.3,8.6,98.2,19.4,121.7,25
	C271.1,644.7,270.8,643.2,270.5,641.8z"/>
<path fill="#77787C" d="M278.8,751.1c0-0.5,0.1-1,0.1-1.5c0.1-1.4,0.2-2.8,0.3-4.3c-110,35.6-194.5,43.4-249.7,42.9v4v4
	c1.6,0,3.2,0,4.9,0c55.6,0,138.4-8.4,245-42.6C279,752.9,278.8,752,278.8,751.1z"/>
<path fill="#74D3ED" d="M340.2,659.7C340.2,659.7,340.2,659.6,340.2,659.7c-0.4-1.5-0.9-2.9-1.6-3.6c-0.1-0.1-0.3-0.2-0.4-0.3
	c-0.9-0.5-2.2-0.8-3.3-1l-9.2-2l-33.8-7.4l-12.9-2.8c0.1,0.4,0.2,0.8,0.2,1.2c0.3,1.4,0.6,2.9,0.9,4.3c0.7,3.6,1.3,7.2,2,10.7
	c4.4,25.9,6.4,51.8,5.8,75.6c-0.1,2.8-0.2,5.5-0.3,8.2c-0.1,1.2-0.1,2.4-0.2,3.6c2.8-0.7,5.5-1.5,8.2-2.3c1.4-0.4,2.8-0.8,4.2-1.3
	c5-1.5,10-3.1,14.9-4.7c3.7-1.2,7.4-2.4,11.2-3.6c6.2-2,12.6-3.8,19-5.5c0.1,0,0.3-0.1,0.4-0.1c0.2-1.3,0.4-2.6,0.5-4
	C348.2,703,346.4,680.7,340.2,659.7z"/>
<path fill="#59B8E2" d="M348.3,659c-0.1-0.5-0.3-1.1-0.4-1.6c-0.2-0.7-0.4-1.5-0.8-2.3c-0.5-1.2-1.1-2.6-2.2-3.8
	c-0.3-0.4-0.6-0.7-1-1.1c-2.3-2.1-5.3-2.8-7.4-3.2l-62-13.5c-1.3-0.3-2.7,0.1-3.7,1.1c-0.8,0.8-1.2,1.9-1.1,2.9c0,0.2,0,0.5,0.1,0.7
	c0.3,1.2,0.5,2.4,0.8,3.5c0.3,1.4,0.6,2.9,0.9,4.3c7,34.2,9.7,68.9,7.8,99.2c-0.1,1.4-0.2,2.9-0.3,4.3c0,0.5-0.1,1-0.1,1.5
	c-0.1,0.9,0.2,1.8,0.6,2.5c0.2,0.3,0.4,0.6,0.7,0.8c0.7,0.6,1.7,1,2.6,1c0.3,0,0.6,0,0.9-0.1c11.4-2.7,22.5-6.3,33.2-9.8
	c10.6-3.4,21.5-7,32.6-9.6c1.6-0.4,2.8-1.7,3-3.2c0-0.1,0-0.3,0.1-0.4c0.2-1.3,0.4-2.7,0.6-4c0.2-1.3,0.3-2.7,0.5-4
	C356.1,702.4,354.3,680.1,348.3,659z M345.6,724.8c-0.2,1.3-0.3,2.6-0.5,4c-0.1,0-0.3,0.1-0.4,0.1c-6.4,1.6-12.8,3.5-19,5.5
	c-3.8,1.2-7.5,2.4-11.2,3.6c-4.9,1.6-9.9,3.2-14.9,4.7c-1.4,0.4-2.8,0.8-4.2,1.3c-2.7,0.8-5.5,1.6-8.2,2.3c0.1-1.2,0.1-2.4,0.2-3.6
	c0.1-2.7,0.3-5.4,0.3-8.2c0.6-23.8-1.4-49.7-5.8-75.6c-0.6-3.6-1.3-7.2-2-10.7c-0.3-1.4-0.6-2.9-0.9-4.3c-0.1-0.4-0.2-0.8-0.2-1.2
	l12.9,2.8l33.8,7.4l9.2,2c1.1,0.2,2.5,0.5,3.3,1c0.2,0.1,0.3,0.2,0.4,0.3c0.7,0.7,1.2,2.1,1.6,3.5c0,0,0,0,0,0.1
	C346.4,680.7,348.2,703,345.6,724.8z"/>
<g>
	<g>
		<g>
			<path fill="#03D0FF" d="M770.3,464.9c1.4,12.1,2.1,24.4,2.1,36.8c0,178.4-144.6,323-323,323s-323-144.6-323-323
				c0-4.5,0.1-9,0.3-13.5l-16.4-1.9h-54L12,502.7l5.5,23.1l-6,359.2h866.9l10.8-438.2l-102,18.9L770.3,464.9z"/>
		</g>
	</g>
</g>
</svg>
