<?xml version="1.0" encoding="utf-8"?>
<!-- Generator: Adobe Illustrator 17.1.0, SVG Export Plug-In . SVG Version: 6.00 Build 0)  -->
<!DOCTYPE svg PUBLIC "-//W3C//DTD SVG 1.1//EN" "http://www.w3.org/Graphics/SVG/1.1/DTD/svg11.dtd">
<svg version="1.1" id="Layer_1" xmlns="http://www.w3.org/2000/svg" xmlns:xlink="http://www.w3.org/1999/xlink" x="0px" y="0px"
	 viewBox="0 0 971.6 892.9" enable-background="new 0 0 971.6 892.9" xml:space="preserve">
<rect x="0" fill="#FFC41A" width="971.6" height="892.9"/>
<g opacity="0.4">
	<g>
		<circle fill="#FFFFFF" cx="453.1" cy="508.7" r="323.9"/>
	</g>
</g>
<g>
	<g>
		<g>
			<path fill="#D3957D" d="M634.7,487.9c0-15.4-10.3-28.4-24.3-32.6c-1-5.6-3.1-10.9-6.1-15.5c0.2,0,0.4,0,0.6,0
				c8.5,0,15.4-6.9,15.4-15.4c0-6.9-4.6-12.8-10.9-14.7c6.7-5.6,10.9-14.1,10.9-23.5c0-17-13.8-30.7-30.7-30.7c-0.1,0-0.2,0-0.4,0
				c-1.2-9-5.6-17-11.9-22.8c7.4-5.8,12.2-14.9,12.2-25.1c0-17.6-14.3-31.8-31.9-31.8c-4.9,0-9.6,1.1-13.7,3.1
				c0.8-2.7,1.2-5.5,1.2-8.4c0-16.8-13.7-30.5-30.5-30.5c-2.2,0-4.3,0.2-6.3,0.7c0-0.2,0-0.4,0-0.7c0-11.1-9-20-20-20
				c-11.1,0-20,9-20,20c0,10.3,7.8,18.7,17.7,19.9c-1.2,3.3-1.9,6.9-1.9,10.6c0,14.1,9.6,26,22.6,29.5c-1.9,3.2-2.9,7-2.9,11
				c0,12,9.6,21.7,21.4,22c-7.3,6.9-11.9,16.8-11.9,27.7c0,10.4,4.2,19.9,11,26.8c-6.7,5.1-11,13.1-11,22.1c0,3.7,0.7,7.3,2.1,10.6
				c-3.7,0.2-8.2-0.1-10.2,2.7c-18.8,26.8-43.3,45-43.3,45c-0.2,1.3-0.2,2.7-0.2,4.1c0,7.8,2.6,15,7.1,20.7
				c-7.9,5.2-13,14.1-13,24.2c0,16,12.9,28.9,28.9,28.9c0.5,0,1,0,1.5,0c1.6,13.7,13.2,24.4,27.4,24.4c0.1,0,0.2,0,0.4,0
				c-0.3,1.6-0.5,3.3-0.5,5.1c0,15.3,12.4,27.7,27.7,27.7c13.2,0,24.2-9.2,27-21.6c20.6-1.4,36.9-18.5,36.9-39.4c0-0.1,0-0.1,0-0.2
				c10.2-4.1,17.5-14.2,17.5-25.9c0-0.6,0-1.1-0.1-1.7C629.9,507.9,634.7,498.5,634.7,487.9z"/>
		</g>
		<g>
			<path fill="#AA5B3F" d="M541.1,606.8L541.1,606.8c-17.5,0-31.7-14.2-31.7-31.7c0-0.4,0-0.9,0-1.3c-13-1.7-23.7-11.3-26.7-24.2
				c-17.3-1-31-15.3-31-32.8c0-9.7,4.3-18.8,11.6-25c-3.7-5.9-5.6-12.7-5.6-19.8c0-1.5,0.1-3,0.3-4.6c0.1-1.1,0.7-2.1,1.6-2.7
				c0.2-0.2,24.3-18.2,42.4-44.1c2-2.9,5.1-3.8,8.1-4.2c-0.5-2.2-0.7-4.5-0.7-6.8c0-8.6,3.3-16.5,9.3-22.5c-6-7.5-9.3-16.7-9.3-26.4
				c0-9.2,2.9-17.8,8.2-25c-10.4-3.4-17.7-13.2-17.7-24.7c0-3,0.5-5.9,1.5-8.7c-12.6-5.3-21.1-17.8-21.1-31.8c0-2.6,0.3-5.1,0.8-7.6
				c-9.8-3.1-16.7-12.3-16.7-22.9c0-13.2,10.8-24,24-24c11.9,0,21.8,8.7,23.7,20.1c0.9-0.1,1.7-0.1,2.6-0.1
				c19,0,34.5,15.5,34.5,34.5c0,0.8,0,1.6-0.1,2.3c2.8-0.7,5.7-1,8.6-1c19.8,0,35.8,16.1,35.9,35.8c0,9.6-3.8,18.6-10.5,25.3
				c4.7,5.3,8,11.8,9.5,18.7c17.8,1.5,31.7,16.5,31.7,34.6c0,8.3-2.9,16.2-8.2,22.4c5,3.5,8.2,9.4,8.2,15.8c0,5.2-2,10-5.7,13.7
				c-2.3,2.3-5,3.9-8,4.8c1.4,3,2.5,6.1,3.2,9.3c14.8,5.5,24.9,19.8,24.9,35.7c0,10.7-4.4,20.8-12.3,28c0,12.1-6.8,23-17.5,28.4
				c-1.2,20.8-17.1,38-37.7,40.7C567,598,555,606.8,541.1,606.8z M513.9,566.1c1.2,0,2.3,0.5,3.1,1.4c0.8,0.9,1.1,2.1,0.9,3.3
				c-0.3,1.4-0.4,2.9-0.4,4.3c0,13.1,10.6,23.7,23.7,23.7v4l0-4c11.1,0,20.6-7.6,23.1-18.4c0.4-1.7,1.9-3,3.6-3.1
				c18.6-1.2,33.2-16.8,33.2-35.4l0-0.2c0-1.6,1-3.1,2.5-3.7c9.1-3.7,15-12.4,15-22.2c0-0.5,0-0.9,0-1.4c-0.1-1.3,0.5-2.5,1.4-3.3
				c6.9-5.7,10.9-14.2,10.9-23.1c0-13.2-8.8-25-21.5-28.8c-1.5-0.4-2.5-1.7-2.8-3.1c-0.9-5-2.7-9.8-5.5-14.1
				c-0.8-1.3-0.8-2.9-0.1-4.1c0.7-1.3,2.1-2.1,3.6-2c0.1,0,0.2,0,0.4,0l0.1,0c3,0,5.9-1.2,8-3.3s3.3-5,3.3-8c0-5-3.3-9.4-8.1-10.9
				c-1.4-0.4-2.5-1.6-2.8-3c-0.3-1.4,0.2-2.9,1.3-3.9c6-5.1,9.5-12.5,9.5-20.4c0-14.7-12-26.7-26.7-26.7l-0.3,0c-2,0-3.7-1.5-4-3.5
				c-1.1-7.8-4.8-15-10.6-20.4c-0.9-0.8-1.3-1.9-1.3-3.1c0-1.2,0.6-2.3,1.5-3c6.8-5.3,10.7-13.3,10.7-21.9
				c0-15.3-12.5-27.8-27.8-27.8c-4.2,0-8.2,0.9-12,2.7c-1.4,0.7-3.1,0.5-4.3-0.6c-1.2-1-1.7-2.6-1.3-4.2c0.7-2.4,1-4.8,1-7.3
				c0-14.6-11.9-26.5-26.5-26.5c-1.9,0-3.7,0.2-5.5,0.6c-1.2,0.3-2.5-0.1-3.4-0.8s-1.5-2-1.4-3.2c0-0.1,0-0.3,0-0.4l0-0.1
				c0-8.8-7.2-16-16-16c-8.8,0-16,7.2-16,16c0,8.1,6.1,15,14.2,15.9c1.2,0.1,2.3,0.8,3,1.9c0.6,1,0.8,2.3,0.3,3.5
				c-1.1,3-1.7,6.1-1.6,9.2c0,12,8.1,22.5,19.6,25.6c1.2,0.3,2.2,1.2,2.7,2.3s0.4,2.5-0.2,3.5c-1.6,2.7-2.4,5.9-2.4,9
				c0,9.8,7.7,17.8,17.6,18c1.6,0,3,1.1,3.6,2.6c0.6,1.5,0.2,3.2-1,4.3c-6.9,6.5-10.7,15.3-10.7,24.8c0,9,3.5,17.5,9.9,24
				c0.8,0.8,1.2,1.9,1.1,3.1c-0.1,1.2-0.7,2.2-1.6,2.9c-6,4.5-9.4,11.4-9.4,18.9c0,3.1,0.6,6.2,1.8,9c0.5,1.2,0.4,2.6-0.3,3.7
				c-0.7,1.1-1.9,1.8-3.2,1.8c-0.5,0-1,0-1.5,0c-1.9,0.1-5.1,0.1-5.6,1c-16.5,23.6-37.1,40.5-42.7,44.9c0,0.7-0.1,1.3-0.1,2
				c0,6.7,2.2,13,6.2,18.3c0.7,0.9,1,2,0.8,3.1c-0.2,1.1-0.8,2.1-1.7,2.7c-7,4.6-11.2,12.4-11.2,20.8c0,13.7,11.2,24.9,24.9,24.9
				c0.4,0,0.9,0,1.3,0c2.1-0.1,3.9,1.4,4.2,3.5c1.4,11.9,11.4,20.9,23.4,20.9L513.9,566.1C513.9,566.1,513.9,566.1,513.9,566.1z"/>
		</g>
	</g>
	<g>
		<g>
			<path fill="#D3957D" d="M450.6,213.2c0,0-2.9,20.2,24.8,22.6l1.1-6.7C476.5,229,461.7,217.6,450.6,213.2z"/>
		</g>
	</g>
	<g>
		<g>
			<g>
				<path fill="#AA5B3F" d="M470.5,239.4c-23.8-6.6-21.3-24.1-20.7-26.8c0-0.2,7.3,3.2,7.3,3.2c-0.2,3.8,1.4,12.5,16,16.5
					L470.5,239.4z"/>
			</g>
		</g>
	</g>
</g>
<g>
	<g>
		<g>
			<g>
				<path fill="#EFC2A0" d="M725.1,271.4c3.4-7.3,8.7-13.8,15.1-18.7c6.5-4.8,14.8-7.6,22.7-6.2c13.2,2.3,22.4,15.7,23.4,29
					c1,13.3-4.5,26.4-11.7,37.7c-4,6.3-7.9,13.5-14.6,16.5c-17.1,7.6-33.3,7.2-44.5-4.6c-0.6-0.7-1.4-1.4-2.3-1.5
					C712.3,323.7,713.1,297,725.1,271.4z"/>
			</g>
			<g>
				<path fill="#D3957D" d="M738.6,338.9c-10.2,0-19.2-3.8-26-10.9c-0.1-0.1-0.2-0.2-0.3-0.3l-1.5-0.1l-1.2-1.9
					c-1.9-3.2,0.3-17.2,0.8-20c1.5-8.9,4.6-22.4,11-36c3.8-8,9.4-15,16.4-20.2c7.8-5.8,17.3-8.4,25.8-6.9
					c14,2.4,25.5,16.5,26.7,32.6c1,12.4-3.1,25.5-12.3,40.1c-0.4,0.6-0.8,1.3-1.2,2c-3.7,6-8,12.9-15.2,16.1
					C753.6,337.1,745.8,338.9,738.6,338.9z M716.9,321.1c0.6,0.5,1.1,1,1.5,1.4c5.3,5.6,12.1,8.4,20.2,8.4c6.1,0,12.7-1.6,19.8-4.7
					c4.9-2.2,8.4-7.7,11.6-13c0.4-0.7,0.8-1.3,1.2-2c8.3-13.1,11.9-24.6,11.1-35.3c-1.1-14.4-11.2-23.8-20.1-25.4
					c-6.3-1.1-13.6,0.9-19.6,5.5c-5.9,4.4-10.7,10.3-13.9,17.2C719.2,293.4,716.9,314.7,716.9,321.1z"/>
			</g>
		</g>
		<g>
			<g>
				<polygon fill="#FBFCFA" points="966.1,429.5 750.1,449.5 750.1,198.3 966.1,173.3 				"/>
			</g>
			<g>
				<path fill="#403942" d="M750.1,453.5c-1,0-2-0.4-2.7-1c-0.8-0.8-1.3-1.8-1.3-3V198.3c0-2,1.5-3.7,3.5-4l216-25
					c1.1-0.1,2.3,0.2,3.1,1c0.9,0.8,1.3,1.8,1.3,3v256.2c0,2.1-1.6,3.8-3.6,4l-216,20C750.4,453.5,750.2,453.5,750.1,453.5z
					 M754.1,201.9v243.2l208-19.3v-248L754.1,201.9z"/>
			</g>
		</g>
		<g>
			<g>
				<path fill="#403942" d="M812.3,263.1c0,8.1-6.7,15.4-14.9,16.2l-9.1,1v29.5l-5.6,0.6l-0.1-69.3l14.9-1.6
					c8.1-0.8,14.9,5.1,14.9,13.2V263.1z M788.3,246.1v28.6l9.1-1c4.9-0.5,9.1-5.2,9.1-10v-10.4c0-4.8-4.3-8.7-9.1-8.2L788.3,246.1z"
					/>
				<path fill="#403942" d="M782.6,312.4c-0.5,0-1-0.2-1.3-0.5c-0.4-0.4-0.7-0.9-0.7-1.5l-0.1-69.3c0-1,0.8-1.9,1.8-2l14.9-1.6
					c0.6-0.1,1.2-0.1,1.7-0.1c8.6,0,15.3,6.7,15.3,15.3v10.4c0,9.1-7.5,17.3-16.6,18.2l-7.3,0.8v27.7c0,1-0.8,1.9-1.8,2l-5.6,0.6
					C782.8,312.4,782.7,312.4,782.6,312.4z M784.5,242.9l0.1,65.3l1.6-0.2v-27.7c0-1,0.8-1.9,1.8-2l9.1-1
					c7.2-0.8,13.1-7.1,13.1-14.2v-10.4c0-6.4-4.9-11.3-11.3-11.3c-0.4,0-0.9,0-1.3,0.1L784.5,242.9z M788.3,276.7
					c-0.5,0-1-0.2-1.3-0.5c-0.4-0.4-0.7-0.9-0.7-1.5v-28.6c0-1,0.8-1.9,1.8-2l9.1-1c6.1-0.6,11.3,4.2,11.3,10.2v10.4
					c0,5.9-5,11.4-10.9,12l-9.1,1C788.4,276.7,788.3,276.7,788.3,276.7z M790.3,247.9v24.6l6.9-0.7c3.8-0.4,7.3-4.2,7.3-8v-10.4
					c0-3.6-3.3-6.6-6.9-6.2L790.3,247.9z"/>
			</g>
			<g>
				<path fill="#403942" d="M844.5,304l-22.7,2.4l-0.1-69.3l5.6-0.6v63.7l17.2-1.8V304z"/>
				<path fill="#403942" d="M821.8,308.4c-0.5,0-1-0.2-1.3-0.5c-0.4-0.4-0.7-0.9-0.7-1.5l-0.1-69.3c0-1,0.8-1.9,1.8-2l5.6-0.6
					c0.6-0.1,1.1,0.1,1.5,0.5s0.7,0.9,0.7,1.5V298l15-1.6c0.6-0.1,1.1,0.1,1.5,0.5c0.4,0.4,0.7,0.9,0.7,1.5v5.6c0,1-0.8,1.9-1.8,2
					l-22.7,2.4C822,308.4,821.9,308.4,821.8,308.4z M823.7,238.8l0.1,65.3l18.7-2v-1.6l-15,1.6c-0.6,0.1-1.1-0.1-1.5-0.5
					c-0.4-0.4-0.7-0.9-0.7-1.5v-61.5L823.7,238.8z"/>
			</g>
			<g>
				<path fill="#403942" d="M882.9,300l-4-18.4l-16.6,1.7l-3.8,19.2l-5.8,0.6l14-70.8l7.6-0.8l14.6,67.8L882.9,300z M878.2,276.8
					l-7.7-35.2c-2.4,11.6-4.6,22.8-7.4,36.8L878.2,276.8z"/>
				<path fill="#403942" d="M852.6,305.1c-0.6,0-1.1-0.2-1.5-0.7c-0.4-0.5-0.6-1.1-0.5-1.7l14-70.8c0.2-0.9,0.9-1.5,1.8-1.6l7.6-0.8
					c1-0.1,1.9,0.6,2.2,1.6l14.6,67.8c0.1,0.6,0,1.1-0.3,1.6c-0.3,0.5-0.8,0.8-1.4,0.8l-5.9,0.6c-1,0.1-1.9-0.6-2.2-1.6l-3.6-16.7
					l-13.4,1.4l-3.6,17.8c-0.2,0.9-0.9,1.5-1.8,1.6l-5.8,0.6C852.8,305.1,852.7,305.1,852.6,305.1z M868.3,234.2l-13.2,66.7l1.6-0.2
					l3.6-17.8c0.2-0.9,0.9-1.5,1.8-1.6l16.6-1.7c1-0.1,1.9,0.6,2.2,1.6l3.6,16.7l1.9-0.2l-13.8-63.9L868.3,234.2z M863.1,280.4
					c-0.6,0-1.1-0.2-1.5-0.7c-0.4-0.5-0.6-1.1-0.5-1.7c0.9-4.5,1.8-8.7,2.6-12.7c1.7-8.5,3.2-16.2,4.9-24c0.2-0.9,1-1.6,1.9-1.6
					c0.9,0,1.8,0.7,2,1.6l7.7,35.2c0.1,0.6,0,1.1-0.3,1.6c-0.3,0.5-0.8,0.8-1.4,0.8l-15.1,1.6C863.2,280.4,863.1,280.4,863.1,280.4z
					 M870.5,251.3c-1,4.8-1.9,9.6-3,14.7c-0.6,3.2-1.3,6.6-2,10.1l10.2-1.1L870.5,251.3z"/>
			</g>
			<g>
				<path fill="#403942" d="M904.8,297.7l-5.5,0.6l-0.1-69.3l6.3-0.7l20.2,51.4v-53.5l5.6-0.6v69.3l-5,0.5L904.8,242V297.7z"/>
				<path fill="#403942" d="M899.3,300.3c-0.5,0-1-0.2-1.3-0.5c-0.4-0.4-0.7-0.9-0.7-1.5l-0.1-69.3c0-1,0.8-1.9,1.8-2l6.3-0.7
					c0.9-0.1,1.7,0.4,2.1,1.3l16.3,41.5v-42.9c0-1,0.8-1.9,1.8-2l5.6-0.6c0.6-0.1,1.1,0.1,1.5,0.5c0.4,0.4,0.7,0.9,0.7,1.5v69.3
					c0,1-0.8,1.9-1.8,2l-5,0.5c-0.9,0.1-1.7-0.4-2.1-1.2l-17.6-43.8v45.3c0,1-0.8,1.9-1.8,2l-5.5,0.6
					C899.4,300.3,899.3,300.3,899.3,300.3z M901.2,230.8l0.1,65.3l1.6-0.2V242c0-1,0.7-1.8,1.6-2c0.9-0.2,1.9,0.3,2.2,1.2l20.9,52
					l1.7-0.2v-65.3l-1.6,0.2v51.7c0,1-0.7,1.8-1.6,2c-0.9,0.2-1.9-0.3-2.2-1.2l-19.6-49.9L901.2,230.8z"/>
			</g>
		</g>
		<g>
			<g>
				<g>
					<path fill="#403942" d="M795.5,348.1c43.7-14.1,89.1-22,135-23.5c5.5-0.2,5.5-8.7,0-8.5c-46.6,1.5-92.9,9.5-137.2,23.8
						C788.1,341.6,790.3,349.8,795.5,348.1L795.5,348.1z"/>
				</g>
			</g>
		</g>
		<g>
			<g>
				<path fill="#EFC2A0" d="M745.6,288.4c9.6-0.3,19.1-2.2,28.1-5.6c1.3-0.5,2.8-1,4.1-0.6c1.3,0.4,2.2,1.7,2.8,3
					c4.5,9.2,1.1,20.7-5.6,28.5c-6.7,7.7-15.1,18.7-32,21"/>
			</g>
			<g>
				<path fill="#D3957D" d="M743.5,338.6l-1.1-7.9c14.4-1.9,22.1-10.9,28.2-18.1c0.4-0.5,0.9-1,1.3-1.5c5.4-6.2,9-16,5-24.1
					c-0.2-0.5-0.4-0.8-0.5-0.9c-0.4,0.1-1.1,0.3-1.5,0.5c-9.4,3.5-19.3,5.5-29.3,5.8l-0.3-8c9.2-0.3,18.2-2.1,26.8-5.3
					c1.6-0.6,4.1-1.5,6.8-0.7c3.2,1,4.7,4.1,5.2,5c5.6,11.3,0.9,24.7-6.2,32.8c-0.4,0.5-0.9,1-1.3,1.5
					C770.1,325.6,760.9,336.3,743.5,338.6z"/>
			</g>
		</g>
	</g>
	<g>
		<g>
			<path fill="#EFC2A0" d="M718.1,315.6c-55.3,56.1-95.3,98.2-149,155.8c-3.2,3.4-6.5,7.2-7,11.8c-0.4,3.6,1,7.1,2.4,10.4
				c10.6,25.4,23.2,49.9,37.6,73.4c24-15.5,16.5-26,29-51.7c28.7-59.3,77.1-123.6,105.8-182.9"/>
		</g>
		<g>
			<path fill="#D3957D" d="M600.8,572.7l-2.1-3.5c-14.5-23.6-27.2-48.4-37.9-73.9c-1.3-3.2-3.2-7.6-2.7-12.4
				c0.7-6.2,5-10.8,8.1-14.1c50.6-54.4,91.3-97.3,149-155.9l5.7,5.6c-57.7,58.5-98.3,101.4-148.9,155.7c-3.1,3.3-5.6,6.3-6,9.6
				c-0.3,2.5,0.8,5.3,2.1,8.5c10,23.8,21.8,47.1,35.1,69.2c11.4-8.2,13.2-14.8,16-25.2c1.6-6,3.7-13.4,8.1-22.6
				c14.4-29.8,34.1-61.3,53.1-91.8c18.9-30.3,38.5-61.6,52.7-91.1l7.2,3.5c-14.4,29.8-34.1,61.3-53.1,91.8
				c-18.9,30.3-38.5,61.6-52.7,91.1c-4.1,8.5-6,15.3-7.6,21.2c-3.2,11.8-5.8,21-22.8,32.1L600.8,572.7z"/>
		</g>
	</g>
	<g>
		<g>
			<path fill="#EFC2A0" d="M717.8,310.5c0,0-1.5,12.9,0,17.5l8,6.1l7.3-3l8-0.3l-0.4-9.1L717.8,310.5z"/>
		</g>
	</g>
</g>
<g>
	<g>
		<path fill="#D3957D" d="M417.4,463.2c0-15.6,9.2-24.8-5.8-27c9.8-7.3-4.5-22.5-4.5-35.7c0-22.1-17.9-40-40-40c-0.6,0-1.1,0-1.7,0
			c2.3-4.3,3.6-9.2,3.6-14.3c0-3.7-0.7-7.3-1.9-10.6c10-1.1,17.7-9.6,17.7-19.9c0-11.1-9-20-20-20c-11.1,0-20,9-20,20
			c0,0.2,0,0.4,0,0.7c-2-0.4-4.2-0.7-6.3-0.7c-16.8,0-30.5,13.6-30.5,30.5c0,2.9,0.4,5.7,1.2,8.4c-4.1-2-8.8-3.1-13.7-3.1
			c-17.6,0-31.8,14.2-31.9,31.8c0,10.2,4.8,19.3,12.2,25.1c-6.3,5.9-10.7,13.8-11.9,22.8c-0.1,0-0.2,0-0.4,0
			c-17,0-30.7,13.7-30.7,30.7c0,9.4,4.2,17.9,10.9,23.5c-6.3,1.9-10.9,7.8-10.9,14.7c0,8.5,6.9,15.4,15.4,15.4c0.2,0,0.4,0,0.6,0
			c-3,4.6-5.1,9.9-6.1,15.5c-14.1,4.2-24.3,17.2-24.3,32.6c0,10.6,4.8,20,12.3,26.2c0,0.5-0.1,1.1-0.1,1.7
			c0,11.7,7.2,21.7,17.5,25.9c0,0.1,0,0.1,0,0.2c0,21,16.3,38.1,36.9,39.4c2.8,12.3,13.8,21.5,27,21.6c15.3,0,27.7-12.4,27.7-27.7
			c0-1.7-0.2-3.4-0.5-5.1c0.1,0,0.2,0,0.4,0c14.2,0,25.8-10.7,27.4-24.4c0.5,0,1,0,1.5,0c16,0,28.9-12.9,28.9-28.9
			c0-10.1-5.2-19-13-24.2c0.2-0.3,0.4-0.5,0.6-0.8c15.4-7.2,26-22.7,26-40.8c0-13.6,18.7-28.5,9.1-36.8
			C432.9,486.2,417.4,477.2,417.4,463.2z"/>
	</g>
	<g>
		<path fill="#AA5B3F" d="M312.1,682.6L312.1,682.6c-13.9,0-25.9-8.8-30.1-21.8c-20.6-2.7-36.6-19.9-37.7-40.7
			c-10.7-5.4-17.5-16.2-17.5-28.4c-7.8-7.2-12.3-17.3-12.3-28c0-15.9,10.1-30.2,24.9-35.7c0.7-3.2,1.8-6.3,3.2-9.3
			c-7.9-2.4-13.7-9.8-13.7-18.5c0-6.5,3.1-12.3,8.2-15.8c-5.2-6.2-8.2-14.1-8.2-22.4c0-18.1,14-33.1,31.7-34.6
			c1.5-6.9,4.8-13.4,9.5-18.7c-6.7-6.7-10.5-15.7-10.5-25.3c0-19.8,16.1-35.8,35.8-35.8c2.9,0,5.8,0.4,8.6,1
			c-0.1-0.8-0.1-1.5-0.1-2.3c0-19,15.5-34.5,34.5-34.5c0.9,0,1.7,0,2.6,0.1c1.9-11.4,11.8-20.1,23.7-20.1c6.4,0,12.5,2.5,17,7
			c4.5,4.5,7,10.6,7,17c0,10.6-6.9,19.8-16.7,22.9c0.6,2.5,0.8,5,0.8,7.6c0,3.6-0.6,7.1-1.6,10.5c22.2,2.2,39.7,21,39.7,43.8
			c0,4.4,2,9.4,4,14.3c2.5,6.4,5.3,13.3,3.2,19.1c1.6,0.8,3.1,1.8,4.2,3.4c2.7,3.9,1.7,8.5,0.6,13.8c-0.8,3.5-1.6,7.5-1.6,12.1
			c0,4.8,2.4,9.1,4.4,13c2.3,4.2,4.4,8.2,2.8,12.1c-0.5,1.2-1.3,2.3-2.5,3.2c2.5,6.2-1.7,13.7-5.1,19.9c-2.9,5.3-6,10.7-6,15.4
			c0,17.2-9.2,33.2-23.7,42c6.5,6.2,10.2,14.7,10.2,23.8c0,17.5-13.8,31.9-31,32.8c-3,12.8-13.6,22.5-26.7,24.2c0,0.4,0,0.9,0,1.3
			C343.8,668.4,329.6,682.6,312.1,682.6z M256.4,511.2l-4.1,6.4c-2.8,4.3-4.6,9-5.5,14.1l-0.4,2.4l-2.4,0.7
			c-12.6,3.8-21.5,15.6-21.5,28.8c0,9,4,17.4,10.9,23.1l1.6,1.3l-0.1,2c0,0.5,0,0.9,0,1.4c0,9.8,5.9,18.5,15,22.2l2.5,1l0,2.9
			c0,18.6,14.6,34.2,33.2,35.4l3,0.2l0.7,2.9c2.5,10.8,11.9,18.4,23.1,18.4l0,4v-4c13.1,0,23.7-10.6,23.7-23.7
			c0-1.4-0.1-2.9-0.4-4.3l-0.9-4.8l5.1,0.1c0,0,0,0,0,0c12.1,0,22.1-9,23.5-20.9l0.4-3.7l3.8,0.2c0.4,0,0.9,0,1.3,0
			c13.7,0,24.9-11.2,24.9-24.9c0-8.4-4.2-16.2-11.2-20.8l-3.6-2.4l2.7-3.4c0.2-0.2,0.4-0.5,0.5-0.7l0.6-0.8l0.9-0.4
			c14.4-6.7,23.7-21.3,23.7-37.2c0-6.8,3.7-13.4,7-19.3c4.9-8.9,6.1-12.2,3.5-14.5l-5.5-4.8l7-2.1c1.4-0.4,2-0.8,2.2-1
			c-0.1-1-1.5-3.5-2.4-5.3c-2.4-4.4-5.4-9.9-5.4-16.8c0-5.4,1-10,1.8-13.7c0.7-3.2,1.4-6.6,0.7-7.6c-0.2-0.3-1.1-1.2-4.9-1.7
			l-9.7-1.4l7.8-5.8c3.2-2.3,2-6.4-1.5-15.2c-2.1-5.3-4.6-11.4-4.6-17.3c0-19.8-16.1-36-36-36c-0.5,0-1,0-1.5,0l-7,0.3l3.3-6.2
			c2.1-3.9,3.1-8.1,3.1-12.5c0-3.2-0.6-6.3-1.6-9.2l-1.8-4.8l5.1-0.6c8.1-0.9,14.2-7.8,14.2-15.9c0-4.3-1.7-8.3-4.7-11.3
			c-3-3-7-4.7-11.3-4.7c-8.8,0-16,7.2-16,16l0,0.1c0,0.1,0,0.3,0,0.4l0.2,5.1l-5-1.1c-1.8-0.4-3.7-0.6-5.5-0.6
			c-14.6,0-26.5,11.9-26.5,26.5c0,2.5,0.3,4.9,1,7.3l2.4,8.5l-8-3.8c-3.8-1.8-7.8-2.7-12-2.7c-15.4,0-27.8,12.5-27.8,27.8
			c0,8.6,3.9,16.6,10.7,21.9l3.7,2.9l-3.5,3.2c-5.8,5.4-9.6,12.6-10.6,20.4l-0.5,3.5l-3.8,0c0,0,0,0,0,0c-14.8,0-26.8,12-26.8,26.7
			c0,7.9,3.5,15.3,9.5,20.4l5.6,4.8l-7.1,2.1c-4.8,1.4-8.1,5.9-8.1,10.9c0,6.3,5.1,11.4,11.4,11.4l0.1,0c0.1,0,0.2,0,0.4,0
			L256.4,511.2z"/>
	</g>
</g>
<g>
	<g>
		<path fill="#387BBF" d="M512.6,347.5c-41.7,51.1-90.5,63.8-147,17.7s-68.4-124.8-26.7-175.9s121.3-55.1,177.7-9.1
			C573.1,226.3,554.3,296.4,512.6,347.5z"/>
	</g>
	<g>
		<path fill="#2C5FA8" d="M433.2,397.7c-22.6,0-46.2-9.9-70.1-29.4c-58.1-47.4-70.3-128.8-27.3-181.6c22.1-27.1,56-42.6,92.9-42.6
			c32.2,0,64.3,11.7,90.4,33c27,22,39.5,51.5,36.3,85.2c-2.7,28.5-16.8,59.6-39.7,87.7C489.9,381.6,462.2,397.7,433.2,397.7z
			 M428.7,152.2c-34.6,0-66.2,14.5-86.7,39.7c-40.2,49.3-28.5,125.7,26.2,170.3c22.4,18.3,44.3,27.6,65,27.6
			c26.4,0,52.1-15,76.3-44.7c21.9-26.8,35.3-56.4,37.9-83.4c3-31.4-8.2-57.7-33.4-78.3C489.5,163.2,459.2,152.2,428.7,152.2z"/>
	</g>
</g>
<g>
	<g>
		<path fill="none" d="M460.3,433.6h-1.1c-28.9,0-52.3-21.2-52.3-47.4v-1.6h105.7v1.6C512.6,412.4,489.2,433.6,460.3,433.6z"/>
	</g>
</g>
<g>
	<g>
		<path fill="#D3957D" d="M344.1,359.9c-2,0.6-4.2,1-6.4,1c-12,0-21.7-9.7-21.7-21.7c0-12,9.7-21.7,21.7-21.7c0,0-0.1,0.4-0.1,0.4
			c-0.1-1.8,0.1-4,0.1-5.8c0-1,0-2,0-3c-4.1,0.5-6.8,1.2-8,1.5c0,0,0,0,0,0c-12.5,3.5-21.7,15-21.7,28.6c0,16.4,13.3,29.7,29.7,29.7
			c0.3,0,0.5,0,0.8,0c1.9,5.9,4.1,11.6,6.5,17.1h8.8C349.9,377.7,346.6,369,344.1,359.9z"/>
	</g>
</g>
<g>
	<g>
		<path fill="#D3957D" d="M335.3,315.5l1.1,2.4c0,0-9.4-0.3-16.4,8.8l-4.5-1.7l11.8-9.6H335.3z"/>
	</g>
</g>
<g>
	<g>
		<path fill="#EFC2A0" d="M364.2,381.4c0,3.9,35.8,54.4,40.8,86.6c5.2,33.6-12.3,39.5-12.3,39.5s-11.5,3-22,3.4
			c-2.5,0.1,0.2,14.7-1.9,14.4c-11.5-1.6-8.1,33.1-8.1,33.1L483.8,680l109.5-160l-80-26.2c0,0-13.3-58.5,38.4-123.4"/>
	</g>
	<g>
		<path fill="#D3957D" d="M484.4,686.2L356.9,560.2l-0.1-1.4c-0.5-4.6-2.3-27.7,5.2-35c1.1-1.1,2.4-1.8,3.8-2.2c0-0.9,0-2-0.1-2.9
			c-0.1-5.4-0.3-11.6,4.9-11.8c9.2-0.3,19.4-2.8,20.9-3.2c1.2-0.5,14-6.5,9.6-35.1c-3.4-22.2-22.6-54.5-33-71.8
			c-6.8-11.3-7.8-13.3-7.8-15.4h8c0-0.4-0.1-0.7-0.1-0.7c0.4,1.3,3.7,6.7,6.8,12c11.4,19.1,30.4,51,34,74.7
			c5.6,36.5-14.2,43.6-15,43.9l-0.3,0.1c-0.4,0.1-10.1,2.7-20.1,3.3c0,1.2,0,2.6,0,3.7c0.1,4.9,0.2,7.8-1.8,9.7
			c-1,0.9-2.3,1.3-3.6,1.1c-0.3,0-0.5,0-0.8,0.3c-3,2.9-3.9,16-2.9,27.1l118.6,117.3L587,522.2l-77.1-25.2l-0.5-2.2
			c-0.1-0.6-3.5-15.6-0.3-38.8c2.9-21.2,12.2-53.7,39.5-88l6.3,5c-26,32.7-34.9,63.5-37.7,83.7c-2.4,16.9-1,29.4-0.3,34.2l82.8,27.1
			L484.4,686.2z"/>
	</g>
</g>
<g>
	<g>
		<g>
			<path fill="#EFC2A0" d="M458.5,464.7c-52.6,0-99.4-39.9-117.4-99.8c-1.2,0.2-2.4,0.3-3.6,0.3c-0.8,0-1.5,0-2.3-0.1
				c-12.1-1.1-21.9-10.6-23.2-22.7c-0.8-7.3,1.5-14.6,6.4-20c4-4.4,9.3-7.3,15.1-8.2c0-0.6,0-1.2,0-1.8c0-39.9,13-76,36.5-101.6
				c22.9-25,54.4-38.7,88.5-38.7c36.3,0,65,15.9,85.1,47.4c10.8,16.8,17.9,36.7,20.5,57.5l0.4,3.5c2.7,21.6,3.1,43.4,1,65.1
				l-0.1,0.7c-1.2,12.3-3.9,24.2-8.1,35.5C537.2,436,503,464.7,458.5,464.7z"/>
		</g>
	</g>
	<g>
		<g>
			<g>
				<path fill="#D3957D" d="M458.5,176.1c37,0,63.3,16.7,81.7,45.5c10.8,16.8,17.4,36,19.9,55.9l0.4,3.5c2.7,21.3,3,42.8,1,64.2
					c0,0.2,0,0.4-0.1,0.7c-1.1,11.8-3.7,23.4-7.8,34.5c-17.7,47.8-48.2,80.5-95.1,80.5c-53.2,0-98.3-42.1-114.6-100.5
					c-2,0.6-4.2,1-6.4,1c-0.6,0-1.3,0-1.9-0.1c-10.2-0.9-18.5-9-19.6-19.1c-1.4-13.1,8.8-24.1,21.5-24.1c0,0,0.1,0,0.1,0
					c-0.1-1.8-0.1-3.6-0.1-5.5C337.5,230.5,391.6,176.1,458.5,176.1 M458.5,168.1c-35.3,0-67.7,14.2-91.5,40
					c-11.9,12.9-21.1,28.3-27.5,45.7c-6.5,17.6-9.8,36.8-10,57.2c-5.4,1.5-10.3,4.5-14.1,8.8c-5.6,6.3-8.3,14.7-7.4,23.1
					c1.5,14,12.8,25,26.8,26.2c0.9,0.1,1.8,0.1,2.6,0.1c0.3,0,0.5,0,0.8,0c19.2,59.8,66.8,99.5,120.2,99.5
					c46.4,0,81.9-29.6,102.6-85.7c4.3-11.6,7.1-23.9,8.3-36.5l0-0.3l0-0.3c2.1-21.9,1.7-44.1-1-65.9l-0.4-3.5
					c-2.7-21.4-10-41.8-21.1-59.2C526,184.6,496.3,168.1,458.5,168.1L458.5,168.1z"/>
			</g>
		</g>
	</g>
</g>
<g>
	<g>
		<path fill="#CFAE84" d="M368.8,434.9"/>
	</g>
</g>
<g>
	<g>
		<g>
			<g>
				<path fill="#D3957D" d="M503.4,360.4c-0.7,0-1.4-0.2-2-0.6c-15-9-29.9-0.4-30.6,0c-1.9,1.1-4.4,0.5-5.5-1.4
					c-1.1-1.9-0.5-4.3,1.4-5.5c0.8-0.5,19.6-11.4,38.8,0c1.9,1.1,2.5,3.6,1.4,5.5C506.1,359.7,504.8,360.4,503.4,360.4z"/>
			</g>
		</g>
		<g>
			<g>
				<g>
					<g>
						<path fill="#231F20" d="M530.9,325.2c-4.1,0-7.2-4.1-7.2-9.5c0-5.4,3.1-9.5,7.2-9.5s7.2,4.1,7.2,9.5
							C538.1,321.1,535,325.2,530.9,325.2z"/>
					</g>
					<g>
						<path fill="#231F20" d="M530.9,325.7c-4.4,0-7.7-4.3-7.7-10s3.3-10,7.7-10c4.4,0,7.7,4.3,7.7,10S535.3,325.7,530.9,325.7z
							 M530.9,306.8c-3.8,0-6.7,3.9-6.7,9c0,5.1,2.9,9,6.7,9c3.8,0,6.7-3.9,6.7-9C537.6,310.6,534.7,306.8,530.9,306.8z"/>
					</g>
				</g>
			</g>
			<g>
				<g>
					<g>
						<path fill="#231F20" d="M426,325.9c-4.1,0-7.2-4.1-7.2-9.5c0-5.4,3.1-9.5,7.2-9.5s7.2,4.1,7.2,9.5
							C433.2,321.8,430.1,325.9,426,325.9z"/>
					</g>
					<g>
						<path fill="#231F20" d="M426,326.4c-4.4,0-7.7-4.3-7.7-10s3.3-10,7.7-10s7.7,4.3,7.7,10S430.4,326.4,426,326.4z M426,307.5
							c-3.8,0-6.7,3.9-6.7,9c0,5.1,2.9,9,6.7,9s6.7-3.9,6.7-9C432.7,311.3,429.8,307.5,426,307.5z"/>
					</g>
				</g>
			</g>
			<g>
				<g>
					<circle fill="none" cx="533.7" cy="313" r="2.8"/>
				</g>
			</g>
			<g>
				<g>
					<circle fill="none" cx="430.8" cy="313" r="2.8"/>
				</g>
			</g>
		</g>
	</g>
	<g>
		<g>
			<path fill="#EA7D96" d="M479,412.5c-9,0-18.1-1.7-26.4-5.1c-1.9-0.8-7.6-3.7-10.8-7.8c-1.4-1.7-1-4.3,0.7-5.6
				c1.7-1.4,4.3-1,5.6,0.7c1.8,2.4,5.8,4.6,7.5,5.3c13.7,5.5,29.5,6,43.4,1.2c2.1-0.7,4.4,0.4,5.1,2.5c0.7,2.1-0.4,4.4-2.5,5.1
				C494.4,411.3,486.7,412.5,479,412.5z"/>
		</g>
	</g>
</g>
<g>
	<g>
		<path fill="#D3957D" d="M343.9,360.2c-2,0.6-4.2,1-6.4,1c-12,0-21.7-9.7-21.7-21.7c0-12,9.7-21.7,21.7-21.7c0,0-0.1,0.4-0.1,0.4
			c-0.1-1.8,0.1-4,0.1-5.8c0-1,0-2,0-3c-4.1,0.5-6.8,1.2-8,1.5c0,0,0,0,0,0c-12.5,3.5-21.7,15-21.7,28.6c0,16.4,13.3,29.7,29.7,29.7
			c0.3,0,0.5,0,0.8,0c1.9,5.9,4.1,11.6,6.5,17.1h8.8C349.7,378.1,346.4,369.4,343.9,360.2z"/>
	</g>
</g>
<g>
	<g>
		<g>
			<path fill="#77787C" d="M502.7,747.6c3.2,0,3.2-5,0-5S499.5,747.6,502.7,747.6L502.7,747.6z"/>
		</g>
	</g>
</g>
<g>
	<g>
		<path fill="#387BBF" d="M476.8,198.3c35.7,0.3,67.7,17.3,82.5,57.6c0,0,19.5-7.7-4.8-52.3c-6.8-12.4-23.8-29.3-40.5-37.5
			c-18.4-9-35-12.7-55.2-12.7s-71.3,8.3-108.3,42.3c-30.3,27.8-53.5,87-41.2,142.7c0.2,1,6.1-14.3,6.1-13.3c2.9-6.6,17-12,17-12
			S351.7,197.4,476.8,198.3z"/>
	</g>
	<g>
		<path fill="#2C5FA8" d="M309.3,342.3c-1.9,0-3.5-1.4-3.9-3.2c-5.9-26.7-4.3-55.7,4.7-83.8c8-25.2,21.8-48,37.7-62.6
			c37.3-34.3,88.9-43.3,111-43.3c21.1,0,38.1,3.9,57,13.2c18.5,9.1,35.6,27,42.2,39.2c11.4,21,15.2,37.2,11.2,48.2
			c-2.7,7.3-7.8,9.5-8.4,9.8c-1,0.4-2.1,0.4-3.1-0.1c-1-0.4-1.7-1.3-2.1-2.3c-12.9-35.2-40.9-54.7-78.8-55c-0.5,0-1,0-1.5,0
			c-27.4,0-51.8,5.8-72.4,17.3c-16.4,9.2-30.6,22-42,38.1c-19.6,27.6-24.5,55.7-24.5,56c-0.2,1.4-1.2,2.6-2.5,3.1
			c-5.2,2-13.3,6.3-14.8,9.8c-0.1,0.3-0.3,0.6-0.5,0.9c-0.4,0.9-1.3,3.1-2,4.7C312.9,341,312.3,342.3,309.3,342.3z M458.8,157.3
			c-21,0-70.1,8.6-105.6,41.2c-26.3,24.2-48.5,75.1-42.2,126.2c0.4-0.8,0.7-1.4,1-1.9c3.1-6.2,12.4-10.7,16.9-12.7
			c1.6-7.4,7.8-32,25.3-56.8c19-26.9,55.5-59.1,121.1-59.1c0.5,0,1,0,1.6,0c39.4,0.3,69,19.6,84,54.6c0.3-0.6,0.7-1.3,0.9-2.2
			c2-6.1,1.8-18.2-10.8-41.3c-6.2-11.3-22.3-27.8-38.7-35.8C494.6,161,478.6,157.3,458.8,157.3z"/>
	</g>
</g>
<g>
	<g>
		<path fill="#D3957D" d="M344.1,360.2c-2,0.6-4.2,1-6.4,1c-12,0-21.7-9.7-21.7-21.7c0-12,9.7-21.7,21.7-21.7c0,0-0.1,0.4-0.1,0.4
			c-0.1-1.8,0.1-4,0.1-5.8c0-1,0-2,0-3c-4.1,0.5-6.8,1.2-8,1.5c0,0,0,0,0,0c-12.5,3.5-21.7,15-21.7,28.6c0,16.4,13.3,29.7,29.7,29.7
			c0.3,0,0.5,0,0.8,0c1.9,5.9,4.1,11.6,6.5,17.1h8.8C349.9,378.1,346.6,369.4,344.1,360.2z"/>
	</g>
</g>
<g>
	<g>
		<path fill="#FBFCFA" d="M528.4,788.9c-0.8-0.8-1.4,1.6-0.2,1.7c1.2,0.1,1.9-1.2,2.4-2.3c15.1-38-2.5-16.1,12.6-54
			c6.6-16.6,100.9,54.7,106.4,37.6c6.3-19.7-59.3-5.4-56.2-47c1.6-21.5-5.8-125.3-5.8-125.3c15.3-32.9,46.8-84.2,60.2-85.7
			c-8.8-31.1-20.7-48.9-41.9-73.3c-6.1-7-9.9-1.1-12.2,1.7c-19,23.6-43,46.1-72.1,54.2c10.6,15,27,45.8,15.8,60.4
			c-11.2,14.6-29.8,22.3-48.2,23.3c-18.4,1-36.7-3.9-53.7-10.9c-26.2-10.7-52.6-29.5-57.3-57.4c-22.6,12.7-64,23.2-76.6,39.7
			c-24.1,31.6-10.1,76.2-30,137.9c6.2,19.2-25.2,18.9-5.2,21.4c8.8,1.1,19.6,1,24.1,8.6c2.2,3.7,2.2,8.2,2.1,12.4
			c-0.6,31.3-2.8,62.5-6.7,93.5c8.2,2.1,16.6-0.8,25-2.1c11.1-1.8,38.2,40.3,49.4,41.2c72.9,6,130.3-31.9,203.5-34.5
			c1.6-0.1,3.5-0.3,4.1-1.8c0.5-1.2-0.3-2.6-1-3.7c-5.6-8.3-11.1-16.6-16.7-24.8c-1.8-2.6-4-5.5-7.1-5.9c-2.1-0.2-4.3,0.8-6.4,0.4
			c-2.3-0.4-4.1-2.2-5.7-3.9C529.7,789.2,529.5,790.1,528.4,788.9z"/>
	</g>
	<g>
		<path fill="#D3A789" d="M376,869.3c-5.4,0-10.8-0.2-16.1-0.7c-6.5-0.5-14.1-8.4-25.9-21.3c-7.3-8-18.3-20-22.5-20
			c-1.9,0.3-3.8,0.7-5.8,1.1c-4.4,0.9-9,1.9-13.7,1.9c-2.6,0-5-0.3-7.3-0.9c-1.9-0.5-3.2-2.4-3-4.4c3.8-30.8,6.1-62.1,6.7-93.1
			c0.1-4.1,0-7.7-1.6-10.3c-2.9-4.8-9.7-5.5-17-6.2c-1.4-0.1-2.8-0.3-4.2-0.5c-5.5-0.7-9.5-1.2-10.2-4.9c-0.6-3.3,2.2-4.9,4.5-6.2
			c5.5-3,9.8-6,7.5-13.1c-0.3-0.8-0.3-1.6,0-2.4c8.8-27.5,10.8-51.5,12.6-72.7c2.2-25.9,4-48.2,18-66.4
			c8.8-11.5,29.3-19.8,49.1-27.8c10.8-4.4,20.9-8.5,28.8-12.9c1.1-0.6,2.5-0.7,3.7-0.1c1.2,0.6,2,1.7,2.2,2.9
			c5,29.8,36.5,46.9,54.9,54.4c19.6,8,36.6,11.5,52,10.6c18.7-1.1,35.6-9.2,45.3-21.8c5.1-6.6,2.6-17.9-0.3-26.3
			c-4.8-13.6-13.1-25.9-15.6-29.4c-0.8-1.1-0.9-2.4-0.5-3.6c0.4-1.2,1.4-2.2,2.7-2.5c23.9-6.7,46.8-24,70.1-52.9l0.4-0.5
			c1.7-2.2,4.7-5.9,9.3-5.9c3,0,5.8,1.6,8.5,4.7c21.1,24.3,33.5,42.5,42.7,74.8c0.3,1.1,0.1,2.3-0.5,3.3c-0.7,1-1.7,1.6-2.9,1.7
			c-9.3,1-38.2,43.2-56.6,82.5c0.8,11.5,7.3,104.2,5.7,124.9c-1.5,19.4,13.1,24.4,33.9,29.4c10.2,2.4,18.3,4.4,21.5,10
			c1.4,2.5,1.6,5.4,0.6,8.5c-0.5,1.6-2.4,5.4-8.5,5.4c-9.8,0-29.3-10.5-49.8-21.7c-18.2-9.9-38.9-21.1-47.1-21.1
			c-0.7,0-1,0.1-1.2,0.1c-7.1,17.9-6.5,21.4-6,24.8c0.8,5.4,0.9,10.3-6.1,27.9c0.8,0.8,1.7,1.6,2.4,1.7c0.4,0.1,1.2-0.1,2-0.2
			c1.2-0.2,2.7-0.4,4.2-0.3c5.2,0.6,8.3,5.2,10,7.6l16.7,24.8c0.8,1.1,2.7,4.1,1.4,7.4c-1.1,2.7-3.7,4.2-7.7,4.3
			c-32.5,1.2-62.4,9.6-91.3,17.7C441.9,860.4,410.2,869.3,376,869.3z M311.6,819.4c7.2,0,15.5,8.5,28.4,22.6
			c6.7,7.3,16.9,18.4,20.6,18.7c5.1,0.4,10.3,0.6,15.4,0.6c33.1,0,62.9-8.4,94.3-17.2c29.2-8.2,59.4-16.7,92.6-18L546.7,802
			c-0.9-1.3-2.7-4-4.3-4.2c-0.5-0.1-1.2,0.1-2,0.2c-0.9,0.2-1.9,0.3-3.1,0.3c-0.5,0-1,0-1.5-0.1c-2.8-0.4-5-2.1-6.6-3.7
			c-0.6,0.1-1.1,0.1-1.5,0.1c-2.6-0.2-4.4-2.4-4.3-5.1c0.1-2.6,1.9-4.5,4.2-4.7c6.3-16.2,5.7-19.6,5.2-22.8
			c-0.9-5.5-0.9-10.5,6.5-29.1c0.8-1.9,2.9-5.1,8.6-5.1c10.2,0,30,10.7,50.9,22.1c0,0,0,0,0,0c-6.3-5.5-10.5-13.4-9.6-25.2
			c1.6-21-5.7-123.7-5.8-124.7c0-0.7,0.1-1.4,0.4-2c9.8-21,40.1-76.5,59-86.5c-8.7-28.7-20.5-45.7-40-68.2c-1.3-1.5-2.2-1.9-2.5-1.9
			c-0.8,0-2.4,2.1-3,2.9l-0.5,0.6c-22.7,28.2-45.3,45.9-68.9,53.9c7.8,12.2,25.6,43.7,12.6,60.6c-11.1,14.4-30.2,23.7-51.2,24.9
			c-16.6,0.9-34.7-2.7-55.4-11.2c-18.8-7.7-50.4-24.8-58.6-55.1c-7.4,3.7-15.9,7.2-24.9,10.8c-18.8,7.6-38.3,15.6-45.8,25.3
			c-12.5,16.4-14.2,36.6-16.4,62.2c-1.8,21.3-3.8,45.5-12.6,73.3c2.3,8.8-1.8,14.3-6.1,17.7c0.4,0,0.8,0.1,1.2,0.1
			c8.5,0.9,18.2,1.9,23.1,10c2.9,4.8,2.8,10.5,2.7,14.6c-0.6,30-2.7,60.3-6.3,90.2c0.6,0,1.2,0.1,1.8,0.1c3.8,0,7.8-0.8,12-1.7
			c2-0.4,4-0.8,6-1.2C310.6,819.4,311.1,819.4,311.6,819.4z M614.8,758.4c12.7,6.6,24.5,12.1,30,12.1c0.5,0,0.8,0,0.9-0.1
			c0.4-1.2,0.1-1.7,0-1.9c-1.5-2.6-9.4-4.5-16.4-6.2C624.8,761.4,619.8,760.1,614.8,758.4z"/>
	</g>
</g>
<g>
	<g>
		<g>
			<path fill="#F2CEB6" d="M516.1,824.4c-1.5,0.2-3,0.4-4.5,0.4c-15.8,0-28.7-12.9-28.7-28.7c0-14.5,10.8-26.5,24.7-28.4
				c0-0.9,0-1.7,0-2.5c0-45.3,14.7-86.3,41.5-115.4c26-28.4,61.7-44,100.5-44s74.4,15.6,100.5,44c26.7,29.1,41.5,70.1,41.5,115.4
				c0,0.8,0,1.6,0,2.5c14,1.9,24.7,14,24.7,28.4c0,15.8-12.9,28.7-28.7,28.7c-1.5,0-3-0.1-4.5-0.4"/>
		</g>
	</g>
	<g>
		<g>
			<g>
				<path fill="#D3957D" d="M547.6,879.1c-5.4-7.3-10.4-15.2-14.7-23.6c-5.8-11.1-10.5-23.2-14-35.9c-2.3,0.7-4.8,1.1-7.3,1.1
					c-13.6,0-24.7-11.1-24.7-24.7c0-13.6,11.1-24.7,24.7-24.7c0,0,0.1,0,0.1,0c-0.1-2.1-0.1-4.1-0.1-6.2
					c0-93.4,61.8-155.4,137.9-155.4 M649.5,609.7c76.2,0,137.9,62,137.9,155.4c0,2.1,0,4.2-0.1,6.2c0,0,0.1,0,0.1,0
					c13.6,0,24.7,11.1,24.7,24.7c0,13.6-11.1,24.7-24.7,24.7c-2.6,0-5-0.4-7.3-1.1c-4.1,14.6-9.7,28.3-16.7,40.9
					c-4.5,8-9.5,15.6-15.1,22.6 M763.9,875.2c4.5-6.8,8.5-14.1,12.2-21.8c3.7-7.8,7-16.1,9.7-24.7c0.6,0,1.1,0,1.7,0
					c18,0,32.7-14.7,32.7-32.7c0-15.3-10.5-28.1-24.7-31.7c-0.1-23.4-3.9-45.5-11.3-65.7c-7.2-19.7-17.7-37.1-31.2-51.7
					c-26.8-29.2-63.5-45.3-103.4-45.3l0,0c-39.9,0-76.6,16.1-103.4,45.3c-13.4,14.6-23.9,32-31.2,51.7
					c-7.4,20.2-11.2,42.3-11.3,65.7c-14.2,3.6-24.7,16.4-24.7,31.7c0,18,14.7,32.7,32.7,32.7c0.6,0,1.1,0,1.7,0
					c3.3,10.3,7.3,20.2,12,29.4c3.7,7.2,7.7,14.1,12.2,20.6"/>
			</g>
		</g>
	</g>
</g>
<g>
	<g>
		<path fill="#EFC2A0" d="M353.7,666.6c85-57,166.9-123.3,232.8-179.9c4.3-3.7,8.9-7.5,14.4-8.7s12.4,1.3,14,6.7
			c2.7,9.1-9.1,15-14.4,22.8c-8.4,12.2-0.1,28.8-2,43.4c-2.2,17.3-21.3,30.3-38.1,26.1c-5.9-1.5-11.9-4.6-17.6-2.7
			c-2.9,1-5.1,3.1-7.3,5.2c-47.9,46.2-82.6,105.6-121.9,159.4c10.7,6,3.9,9.1,5.3,6"/>
	</g>
	<g>
		<path fill="#D3957D" d="M419,750.3c-0.6,0-1.3-0.1-1.9-0.4c-1.7-0.8-2.8-2.8-2.3-5.2c-0.6-0.5-1.6-1.3-3.2-2.2l-3.9-2.2l2.7-3.6
			c10.8-14.8,21.5-30.3,31.8-45.3c27.3-39.8,55.6-80.9,90.6-114.6c2.2-2.1,5-4.8,8.8-6.1c5.5-1.9,11-0.2,15.7,1.3
			c1.5,0.5,2.8,0.9,4.2,1.2c6.9,1.7,14.7,0.1,21.4-4.4c6.6-4.5,10.9-11.2,11.9-18.3c0.7-5.1,0-10.5-0.8-16.2
			c-1.3-9.9-2.6-20.1,3.4-28.9c1.9-2.8,4.5-5.3,6.9-7.7c5-4.9,8-8.1,7-11.7c-1-3.3-5.7-4.7-9.3-3.9c-4.7,1-8.9,4.7-12.7,7.9
			c-84,72.1-162.4,132.8-233.1,180.1l-4.5-6.6c70.5-47.2,148.7-107.6,232.4-179.6c4.2-3.6,9.5-8.2,16.2-9.6
			c7.2-1.5,16.3,1.6,18.7,9.5c2.5,8.5-3.9,14.7-9,19.8c-2.3,2.2-4.4,4.3-5.9,6.5c-4.3,6.3-3.2,14.6-2.1,23.4
			c0.8,6,1.6,12.2,0.8,18.3c-1.2,9.4-6.8,18.1-15.3,23.9c-8.5,5.8-18.6,7.9-27.8,5.6c-1.6-0.4-3.2-0.9-4.7-1.4
			c-3.9-1.3-7.7-2.4-10.7-1.4c-2.1,0.7-4.1,2.6-5.8,4.3c-34.4,33.2-62.4,73.9-89.5,113.4c-9.6,13.9-19.4,28.3-29.4,42.1
			c5.7,4.4,4.7,8.2,3.9,9.7C422.2,749.3,420.6,750.3,419,750.3z M416.1,743.8l6.4,2.9c0.3-0.7,0.3-2.5-1.2-3.7c-1.3-1-3.2-1-4.4,0
			C416.5,743.2,416.3,743.5,416.1,743.8z"/>
	</g>
</g>
<g>
	<g>
		<path fill="#403942" d="M552.8,852.7c-22.7-26.7-36.7-62.6-36.7-102.1c0-82.3,60.5-149,135.2-149s135.2,66.7,135.2,149
			c0,34.5-10.6,66.3-28.5,91.6"/>
	</g>
	<g>
		<path fill="#231F20" d="M577.4,880.2c-7.3-5-14.1-10.8-20.4-17.2c-27.6-28-44.9-68-44.9-112.4c0-84.4,62.4-153,139.2-153
			c76.7,0,139.2,68.6,139.2,153c0,39.9-13.9,76.2-36.7,103.5c-6,7.2-12.6,13.7-19.7,19.5 M713.8,878.1c7-4.2,13.7-9.1,19.8-14.6
			c29.8-26.6,48.9-67.3,48.9-112.8c0-80-58.8-145-131.2-145c-72.3,0-131.2,65-131.2,145c0,41.2,15.6,78.4,40.7,104.9"/>
	</g>
</g>
<g>
	<g>
		<g>
			<path fill="#B53D3A" d="M797.4,762.3c-30.8,10.8-165.6,52-289.7,1.3c-3.7-1.5-5.8-5.4-5-9.3l21.8-114.6c0.4-2.2,1.6-4.1,3.5-5.3
				c12.3-8.5,63.5-41.1,129.7-43.7c0,0,71.1,0,122.4,31.4c2.1,1.3,3.6,3.5,3.9,5.9l18.9,125.1C803.5,757.1,801.2,761,797.4,762.3z"
				/>
		</g>
		<g>
			<path fill="#962424" d="M641.9,792.3c-49.4,0-95-8.4-135.7-25c-5.4-2.2-8.5-8-7.5-13.8L520.6,639c0.6-3.2,2.4-6,5.1-7.9
				c14.1-9.8,65.3-41.8,131.9-44.4c0.1,0,0.1,0,0.2,0c2.9,0,72.8,0.4,124.5,32c3.1,1.9,5.3,5.1,5.8,8.7l18.9,125.1
				c0.9,5.9-2.5,11.6-8.1,13.5C776.1,774,715.5,792.3,641.9,792.3z M657.8,594.8c-64.4,2.6-113.9,33.5-127.5,43
				c-0.9,0.7-1.6,1.6-1.8,2.8l-21.8,114.6c-0.4,2,0.7,4.1,2.6,4.9c39.7,16.2,84.3,24.4,132.7,24.4c74.4,0,136.9-19.8,154.2-25.8
				c2-0.7,3.2-2.7,2.9-4.8l-18.9-125.1c-0.2-1.3-1-2.4-2.1-3.1C729,595.6,660.4,594.8,657.8,594.8z"/>
		</g>
	</g>
	<g>
		<g>
			<path fill="#B53D3A" d="M598.7,786.1c-4.7-23.5,7.7-147.3,7.7-147.3l46.3-47.7l57.7,47.7c0,0,14,83.1,9,143"/>
		</g>
		<g>
			<path fill="#962424" d="M598.7,790.1c-1.9,0-3.5-1.3-3.9-3.2c-4.8-23.9,7.2-143.4,7.7-148.5c0.1-0.9,0.5-1.7,1.1-2.4l46.3-47.7
				c1.5-1.5,3.8-1.6,5.4-0.3l57.7,47.7c0.7,0.6,1.2,1.5,1.4,2.4c0.1,0.8,14.1,84.3,9.1,144c-0.2,2.2-2.1,3.8-4.3,3.7
				c-2.2-0.2-3.8-2.1-3.7-4.3c4.6-54.4-6.9-129.2-8.7-140.6l-53.7-44.4l-42.8,44.1c-1.3,13.6-12,123.4-7.7,144.8
				c0.4,2.2-1,4.3-3.1,4.7C599.2,790,599,790.1,598.7,790.1z"/>
		</g>
	</g>
</g>
<g>
	<g>
		<g>
			<path fill="#FBFCFA" d="M507.9,384.6c0,0-36.2,6.3-74.3,1.7c0,0,9.2,38.6,65.2,33.3C498.8,419.6,498.9,402.3,507.9,384.6z"/>
		</g>
	</g>
	<g>
		<g>
			<path fill="#403942" d="M439.6,392.5c0,0,20.9,12.3,59.1,7.4l-3.7,17.9C494.9,417.8,445.2,421,439.6,392.5z"/>
		</g>
	</g>
	<g>
		<g>
			<path fill="#EA7D96" d="M475.6,423.4L475.6,423.4c-22.1,0-33.5-10-39.2-18.3c-6.1-9-6.9-18.1-6.9-18.5c-0.1-1.2,0.4-2.4,1.2-3.2
				c0.9-0.8,2.1-1.2,3.3-1.1c9.1,1.1,19,1.7,29.3,1.7c24.6,0,43.7-3.3,43.9-3.3c1.5-0.3,3,0.3,3.9,1.6c0.9,1.2,1,2.8,0.4,4.2
				c-8.4,16.7-8.6,29.7-8.6,29.8c0,1.8-1.3,3.4-3,3.9C491.1,422.3,482.9,423.4,475.6,423.4z M438.5,390.9
				c2.4,8.4,10.5,24.5,37.1,24.5c5.9,0,12.4-0.8,19.4-2.3c0.4-4.4,1.8-12.9,6.1-23.4c-7.9,1-21.6,2.4-37.9,2.4
				C454.7,392,446.4,391.6,438.5,390.9z"/>
		</g>
	</g>
</g>
<g>
	<g>
		<g>
			<g>
				<g>
					<g>
						<path fill="#231F20" d="M117.2,870.9c0,0-44.1-222,111.2-259.3c0,0,14.9-3.8,35.2-3.7 M338.2,653c0,0-139.6,9.7-147.3,151.2
							 M263.6,607.9c19.9,0.1,45,4,66.1,19.1c0,0,9.4-3.7,23.6-3.6c15.2,0.1,36,4.5,56.7,22.3c17.7,15.2,29.8,36,35.1,58.7
							 M464,863.2c3.4-17.2,4.7-37.3,3.8-60.1c-1.5-38.2-8.7-75.8-14.5-100.6c-5.8-25.1-18.9-47-37.8-63.2
							c-23.2-19.9-46.6-24.2-62.2-24.3c-9.8,0-17.6,1.5-22.2,2.8c-18.2-11.9-41.4-18.2-67.5-18.3l0,0c-20.6-0.1-35.9,3.6-37.2,4
							c-37.5,9-67,29.1-87.8,59.7c-16.4,24.1-27.3,54.7-32.3,90.9c-8.5,60.9,2.2,116.1,2.7,118.4c0,0.1,0,0.2,0.1,0.3 M199.3,877.4
							c-2.8-36.7-0.2-72.2-0.1-72.6c0-0.1,0-0.1,0-0.2c1.7-30.6,10-57.1,24.6-78.8c11.7-17.3,27.6-31.7,47.1-42.7
							c24.4-13.8,48.6-19,60.4-20.8"/>
					</g>
				</g>
				<g>
					<g>
						<ellipse fill="#403942" cx="290.9" cy="830.7" rx="129" ry="41.8"/>
					</g>
				</g>
			</g>
			<g>
				<g>
					<g>
						<path fill="#403942" d="M117.2,871c0,0-44.2-221.9,111.1-259.4c0,0,58.7-15.1,101.3,15.3c0,0,40.2-15.8,80.3,18.6
							c17.7,15.2,29.8,36,35.1,58.7c8.3,35.6,21.5,106.3,10.3,159.3c-0.6,2.8-1.3,5.6-2,8.3"/>
						<path fill="#403942" d="M338.1,653c0,0-139.6,9.8-147.2,151.3"/>
					</g>
				</g>
			</g>
			<g>
				<g>
					<g>
						<path fill="#403942" d="M117.2,870.9c0,0-44.1-222,111.2-259.3c0,0,58.8-15.1,101.3,15.4c0,0,43.1-9.7,89.9,69.9l25.5,81
							l-25.2,11c0,0,2.6-98.5-81.7-135.9c0,0-139.6,9.7-147.3,151.2"/>
					</g>
				</g>
			</g>
		</g>
		<g>
			<g>
				<polygon fill="#403942" points="174,873.9 401.3,873.9 400.7,647.4 173.5,647.4 				"/>
			</g>
		</g>
	</g>
</g>
<g>
	<g>
		<g>
			<g>
				<path fill="#FFC41A" d="M777.6,506.6c0,178.9-145,323.9-323.9,323.9s-323.9-145-323.9-323.9c0-34.5,5.4-67.8,15.4-98.9l-133.5,0
					l10,472.5l928,2.9v-410c0,0-1-22.2-50.4-20.2C827.6,455.9,777.6,486.2,777.6,506.6z"/>
			</g>
		</g>
	</g>
</g>
</svg>
