<?xml version="1.0" encoding="utf-8"?>
<!-- Generator: Adobe Illustrator 17.1.0, SVG Export Plug-In . SVG Version: 6.00 Build 0)  -->
<!DOCTYPE svg PUBLIC "-//W3C//DTD SVG 1.1//EN" "http://www.w3.org/Graphics/SVG/1.1/DTD/svg11.dtd">
<svg version="1.1" id="Layer_1_copy" xmlns="http://www.w3.org/2000/svg" xmlns:xlink="http://www.w3.org/1999/xlink" x="0px"
	 y="0px" viewBox="0 0 971.6 892.9" style="enable-background:new 0 0 971.6 892.9;" xml:space="preserve">
<style type="text/css">
	.st0{fill:#81E2FC;}
	.st1{fill:#FFC41A;}
	.st2{opacity:0.4;}
	.st3{fill:#FFFFFF;}
	.st4{fill:#59B8E2;}
	.st5{fill:#D3957D;stroke:#D3957D;stroke-miterlimit:10;}
	.st6{fill:#81E2FC;stroke:#81E2FC;stroke-miterlimit:10;}
	.st7{fill:#F2CEB6;stroke:#F2CEB6;stroke-miterlimit:10;}
	.st8{fill:#231F20;}
	.st9{fill:#CE866A;}
	.st10{fill:#632C1D;}
	.st11{fill:#AA5B3F;}
	.st12{fill:none;}
	.st13{fill:#231F20;stroke:#231F20;stroke-miterlimit:10;}
	.st14{fill:#403942;}
	.st15{fill:#D3957D;}
	.st16{fill:#CFAE84;}
	.st17{fill:#F2CEB6;}
	.st18{fill:#B53D3A;}
	.st19{fill:#962424;}
	.st20{fill:#9E4F4F;}
	.st21{fill:#387BBF;}
	.st22{fill:#2C5FA8;}
</style>
<path class="st0" d="M428.4,560.1c-2-16.7-4.7-33.4-6.9-43.2c-0.6-2.7-1.1-4.9-1.6-6.4c-24.1-5.8-44.7-7.4-44.9-7.4l-2-0.1l-1.7-1
	c-27.3-17.3-59-26.1-94-26.1c-60.4,0-110.9,26.4-111.4,26.7l-1.9,1l-13.6,1.8c-11.4,1.9-18,3.3-21.8,4.2
	c1.4,124.4,72.9,231.9,176.9,284.8c0.2,0.1,0.4,0.2,0.5,0.3c1.1,0.6,2.2,1.1,3.4,1.7c1.3,0.6,2.6,1.3,3.9,1.9
	c13.4,6.4,27.2,11.8,41.5,16.3c7.7,2.4,15.5,4.6,23.4,6.4c5.6,1.3,11.3,2.5,17.1,3.5c0.2,0,0.4,0.1,0.6,0.1c1.4,0.2,2.7,0.5,4.1,0.7
	c0.2,0,0.4,0.1,0.6,0.1c1.3,0.2,2.7,0.4,4,0.6c0.2,0,0.4,0.1,0.6,0.1c0.9,0.1,1.8,0.3,2.7,0.4c0.7-1.8,1.4-3.7,2.1-5.5
	c0.1-0.4,0.3-0.8,0.4-1.2c1-2.8,2-5.8,2.9-8.7c0.1-0.4,0.2-0.8,0.4-1.1c0.9-3,1.8-6.1,2.7-9.3c0.1-0.4,0.2-0.7,0.3-1.1
	c3.2-12.3,5.8-25.5,7.8-39.5l0-0.2c4.4-26.3,6.9-55.5,8-84.2c0.1-1.6,0.1-3.1,0.2-4.7c0-1.6,0.1-3.1,0.1-4.7
	C433.8,626,432,587.6,428.4,560.1z"/>
<g>
	<g>
		<path class="st1" d="M149.3,497.9l0.1,0l12.3-1.6l0.7-0.4c0.5-0.3,52.5-27.6,115-27.6c36.5,0,69.5,9.2,98.1,27.3l0.1,0
			c0.2,0,22.4,1.7,48.1,8l1.7,0.4l0.5,1l0.3-0.2c12.5,20.8,24.2,42.3,34.9,64.2c1.9-7.5,4.1-14.6,7.1-21.4c-1.3-2.2-2-4.1-1.8-6
			c0.7-8.5,6.8-15,12-19.8c14.9-13.7,36.4-24.1,55.3-33.4c9.8-4.8,19-9.3,25.4-13.4c0.9-0.5,1.9-0.7,2.9-0.5c1,0.2,1.8,0.8,2.4,1.7
			c14.2,22.2,39.1,36.8,66.6,38.9c1.6,0.1,3.3,0.2,5,0.2c23.2,0,48.9-12.7,67-33.1c1.1-1.2,2.9-1.6,4.4-1
			c14,6.3,28.3,12.4,42.1,18.4c8.5,3.6,17.1,7.4,25.8,11.2c0-1.4,0.1-2.8,0.1-4.3c-0.3-178.3-144.9-322.8-323.3-322.8
			c-174.5,0-316.6,138.2-323,311.2l-0.2,6.8C133.6,500.7,140.5,499.4,149.3,497.9z"/>
		<path class="st1" d="M501.5,803.2c-16.5-21.7-33.6-44.1-43.5-70c-7.7,22-16.4,41-26.2,57.4c-2.7,4.6-5.5,9-8.5,13.1
			c-2.3,8.3-4.8,16.1-7.7,23.6c11.9,1.3,23.9,2,36.2,2c19.8,0,39.1-1.8,57.9-5.2c0-3.4,0-6.7-0.1-10.1
			C507,810.4,504.3,806.8,501.5,803.2z"/>
	</g>
</g>
<g class="st2">
	<path class="st3" d="M149.3,497.9l0.1,0l12.3-1.6l0.7-0.4c0.5-0.3,52.5-27.6,115-27.6c36.5,0,69.5,9.2,98.1,27.3l0.1,0
		c0.2,0,22.4,1.7,48.1,8l1.7,0.4l0.5,1l0.3-0.2c12.5,20.8,24.2,42.3,34.9,64.2c1.9-7.5,4.1-14.6,7.1-21.4c-1.3-2.2-2-4.1-1.8-6
		c0.7-8.5,6.8-15,12-19.8c14.9-13.7,36.4-24.1,55.3-33.4c9.8-4.8,19-9.3,25.4-13.4c0.9-0.5,1.9-0.7,2.9-0.5c1,0.2,1.8,0.8,2.4,1.7
		c14.2,22.2,39.1,36.8,66.6,38.9c1.6,0.1,3.3,0.2,5,0.2c23.2,0,48.9-12.7,67-33.1c1.1-1.2,2.9-1.6,4.4-1c14,6.3,28.3,12.4,42.1,18.4
		c8.5,3.6,17.1,7.4,25.8,11.2c0-1.4,0.1-2.8,0.1-4.3c-0.3-178.3-144.9-322.8-323.3-322.8c-174.5,0-316.6,138.2-323,311.2l-0.2,6.8
		C133.6,500.7,140.5,499.4,149.3,497.9z"/>
	<path class="st3" d="M501.5,803.2c-16.5-21.7-33.6-44.1-43.5-70c-7.7,22-16.4,41-26.2,57.4c-2.7,4.6-5.5,9-8.5,13.1
		c-2.3,8.3-4.8,16.1-7.7,23.6c11.9,1.3,23.9,2,36.2,2c19.8,0,39.1-1.8,57.9-5.2c0-3.4,0-6.7-0.1-10.1
		C507,810.4,504.3,806.8,501.5,803.2z"/>
</g>
<path class="st4" d="M425.9,504.2l-0.5-0.2l0,0l-0.3-0.1l0,0v0l-1.4-0.4c-25.7-6.3-47.9-8-48.1-8l-0.1,0
	c-28.6-18.1-61.6-27.3-98.1-27.3c-62.5,0-114.4,27.3-115,27.6l-0.7,0.4l-12.3,1.6l-0.1,0c-8.8,1.5-15.6,2.8-20.5,3.9l-0.1,3
	c0,0.3,0,0.6,0,0.9c0,0.3,0,0.6,0,0.9c0,1,0,2,0,3c3.8-0.9,10.4-2.2,21.8-4.2l13.6-1.8l1.9-1c0.5-0.3,51-26.7,111.4-26.7
	c35.1,0,66.7,8.8,94,26.1l1.7,1l2,0.1c0.2,0,20.8,1.6,44.9,7.4c0.5,1.5,1,3.7,1.6,6.4c2.1,9.8,4.8,26.4,6.9,43.2
	c3.6,27.5,5.3,65.9,4.3,105.9c0,1.6-0.1,3.1-0.1,4.7c0,1.6-0.1,3.1-0.2,4.7c-1.1,28.7-3.6,57.9-8,84.2l0,0.2
	c-1.9,14.1-4.5,27.3-7.8,39.5c-0.1,0.4-0.2,0.7-0.3,1.1c-0.8,3.2-1.7,6.3-2.7,9.3c-0.1,0.4-0.2,0.8-0.4,1.1c-0.9,3-1.9,5.9-2.9,8.7
	c-0.1,0.4-0.3,0.8-0.4,1.2c-0.7,1.9-1.4,3.7-2.1,5.5c1.3,0.2,2.6,0.4,3.9,0.5c1.3,0.2,2.6,0.3,3.9,0.4c2.8-7.5,5.4-15.3,7.7-23.6
	c0.1-0.4,0.2-0.7,0.3-1.1c0.9-3.3,1.7-6.7,2.5-10.1c0.1-0.4,0.2-0.7,0.3-1.1c0.8-3.5,1.5-7,2.2-10.6c0.1-0.3,0.1-0.7,0.2-1
	c1.2-6.1,2.2-12.4,3.1-18.8l0-0.1c4.7-28.3,7.3-59.9,8.2-90.7c0-1.6,0.1-3.1,0.1-4.7c0-1.6,0.1-3.1,0.1-4.7
	c0.7-38.5-1.1-75.1-4.5-101.6c-1.1-8.7-2.6-19.9-4.3-30c9.5,16.9,18.5,34.2,26.8,51.8c0.4-2.1,0.9-4.1,1.3-6.1
	c0.4-2,0.9-3.9,1.4-5.8C450.5,547.1,438.4,525,425.9,504.2z"/>
<path class="st5" d="M501.7,618.6c0-0.4-0.1-0.8-0.1-1.3c-0.2-2.3-0.3-4.6-0.5-7c-0.9-11.6-1.9-24.7-7-36
	c-0.9-1.9-6.3-6.8-10.6-10.8c-3.8-3.5-7-6.5-9.7-9.2c-3.2,8-5.4,16.6-7.4,25.7c-0.4,2.1-0.9,4.1-1.3,6.3c-0.3,1.5-0.6,3.1-0.9,4.7
	c-0.1,0.6-0.2,1.2-0.3,1.7c-3.5,18.4-6.8,37.8-8.2,57.5c-0.1,1.6-0.2,3.2-0.3,4.9c-0.1,1.6-0.2,3.2-0.2,4.8
	c-0.6,15.8,0.2,31.5,3.2,46.8c0.4-1.2,0.5-1.1,0.1,0.4c0.5,2.4,1,4.8,1.6,7.1c1.3-4.2,1.4-3.7,0.1,0.4c0.5,2.1,1.1,4.3,1.8,6.4
	c0.7-2.1,0.7-1.6,0.1,0.4c0.7,2.5,1.6,4.9,2.4,7.3c9.4,25.7,26.6,48.2,43.2,69.9c0.7,0.9,1.3,1.8,2,2.6
	C508.8,740.3,506.2,679.2,501.7,618.6z"/>
<path class="st6" d="M440.5,660.8c2.5-1.7,4.9-3.4,7.2-5c1.2-22.7,5-45.2,9-66.2c0.6-2.9,1.1-5.8,1.7-8.6
	c-8.3-17.6-17.3-34.9-26.8-51.8c1.7,10.1,3.3,21.3,4.3,30C439.4,585.7,441.2,622.3,440.5,660.8z"/>
<path class="st7" d="M432,760.9c-0.9,6.5-1.9,12.7-3.1,18.8c9.3-16.8,17.6-36.3,25-58.9c-5.2-18.1-6.9-36.9-6.6-55.7
	c-2.3,1.6-4.7,3.2-7.1,4.9C439.3,701,436.7,732.6,432,760.9L432,760.9z"/>
<path class="st8" d="M707.2,458.9c0,0-13.1,4.1-18.4,4.4l-1.2-5.8l10.5-7.2L707.2,458.9z"/>
<circle class="st9" cx="157.6" cy="306.8" r="21.6"/>
<path class="st10" d="M275,379.6c-5.8-0.3-11.5-1.2-17-2.9c-1.8-0.5-3.6-1.2-5.3-1.8l-6.9-2.4c-2.1-0.7-3.2-3-2.5-5.1
	c0.7-2.1,3-3.2,5.1-2.5l6.9,2.4c1.7,0.6,3.4,1.2,5,1.7c14.1,4.3,29.8,3.3,43.3-2.7c2-0.9,4.4,0,5.3,2c0.9,2,0,4.4-2,5.3
	C297,378,285.9,380,275,379.6z"/>
<path class="st11" d="M295.3,330.5c-0.7,0-1.4-0.2-2-0.7c-14.7-9.7-30.3-1.5-30.5-1.4c-1.9,1-4.4,0.3-5.4-1.6
	c-1-1.9-0.3-4.4,1.6-5.4c0.8-0.4,20.1-10.5,38.6,1.7c1.8,1.2,2.3,3.7,1.1,5.5C298,329.9,296.6,330.5,295.3,330.5z"/>
<g>
	<path class="st8" d="M349.8,294.9c-4.1-0.2-7-4.4-6.7-9.8c0.2-5.4,3.5-9.3,7.6-9.1c4.1,0.2,7,4.4,6.7,9.8
		C357.2,291.2,353.9,295.1,349.8,294.9z"/>
</g>
<g>
	<path class="st8" d="M349.8,295.4c-4.4-0.2-7.5-4.6-7.2-10.3s3.7-9.8,8.1-9.6s7.5,4.6,7.2,10.3S354.2,295.6,349.8,295.4z
		 M350.7,276.5c-3.8-0.2-6.8,3.5-7,8.7c-0.2,5.1,2.5,9.1,6.2,9.2c3.8,0.2,6.8-3.5,7-8.7C357.1,280.7,354.5,276.7,350.7,276.5z"/>
</g>
<g>
	<path class="st8" d="M240.2,290.7c-4.1-0.2-7-4.4-6.7-9.8c0.2-5.4,3.5-9.3,7.6-9.1s7,4.4,6.7,9.8
		C247.6,286.9,244.3,290.9,240.2,290.7z"/>
</g>
<g>
	<path class="st8" d="M240.2,291.2c-4.4-0.2-7.5-4.6-7.2-10.3c0.3-5.7,3.7-9.8,8.1-9.6c4.4,0.2,7.5,4.6,7.2,10.3
		S244.6,291.4,240.2,291.2z M241.1,272.3c-3.8-0.2-6.8,3.5-7,8.7c-0.2,5.1,2.5,9.1,6.2,9.2c3.8,0.2,6.8-3.5,7-8.7
		C247.5,276.4,244.9,272.5,241.1,272.3z"/>
</g>
<circle class="st12" cx="337.9" cy="277" r="2.8"/>
<circle class="st12" cx="228.4" cy="272.1" r="2.8"/>
<path class="st13" d="M661.7,114.6c19.3-0.1,33.5,3.6,33.5,3.6C843,153.7,801.1,364.9,801.1,364.9c-17.8,73.5-101.8,87.6-101.8,87.6
	c42-14.5,31.7-151.1,31.7-151.1c-7.4-134.7-140.2-143.9-140.2-143.9l-44.7,233.6c2.1,29.6,40.2,65.7,40.2,65.7
	c-49.9,0.2-90.8-59.7-90.8-59.7c-34.7-46.8-16.7-146.8-6.5-190.7c5-21.7,16.5-41.4,33.4-55.9c19.7-17,39.5-21.1,54-21.2
	c13.5-0.1,22.4,3.4,22.4,3.4C618.9,118.4,642.8,114.7,661.7,114.6 M661.7,106.6c-24.8,0.1-46.8,6.1-64.2,17.4
	c-4.4-1.2-11.8-2.7-21.1-2.6c-14.8,0.1-37.1,4.1-59.2,23.1c-18,15.5-30.4,36.2-36,60.1c-5.5,23.6-12.4,59.4-13.8,95.7
	c-1.8,45.5,5.5,79.6,21.6,101.4c2.8,4.1,44.5,63.3,97.4,63.1c3.3,0,6.2-2,7.4-5c1.2-3,0.4-6.5-1.9-8.7c-9.8-9.3-35.4-37.9-37.7-59.5
	l43.1-225.2c11.2,1.8,34.3,6.7,57.5,19.8c18.6,10.5,33.7,24.2,44.8,40.7c14,20.6,21.9,45.8,23.4,74.9c0,0.1,0,0.1,0,0.2
	c0,0.3,2.5,34.1-0.1,69.1c-1.5,20.2-4.4,36.7-8.6,49.2c-3.2,9.6-8.8,21.6-17.7,24.7c-3.9,1.4-6.1,5.5-5.1,9.5c0.9,3.6,4.2,6,7.8,6
	c0.4,0,0.9,0,1.3-0.1c0.9-0.2,22.6-3.9,46.7-17.1c32.4-17.7,53.7-44.2,61.5-76.5c0-0.1,0-0.2,0.1-0.3c0.4-2.2,10.7-54.8,2.6-112.7
	c-4.8-34.5-15.2-63.6-30.8-86.5c-19.8-29.1-47.9-48.2-83.6-56.8C695.9,110.1,681.3,106.5,661.7,106.6L661.7,106.6z"/>
<ellipse class="st14" cx="635.8" cy="376.4" rx="122.7" ry="89.6"/>
<path class="st14" d="M590.9,157.5c0,0,132.8,9.3,140.1,143.9c0,0,10.2,136.6-31.8,151.1c0,0,84-14,101.8-87.5
	c0,0,42-211.2-105.7-246.8c0,0-55.9-14.4-96.4,14.6c0,0-38.3-15-76.4,17.7c-16.9,14.5-28.4,34.2-33.4,55.9
	c-10.2,43.9-28.3,143.9,6.4,190.7c0,0,40.9,60,90.8,59.8c0,0-38.1-36.1-40.2-65.7"/>
<path class="st15" d="M539.8,349.7c0,3.9,35.7,54.3,40.7,86.4c5.2,33.6-18.5,45.5-18.5,45.5l-25.7,44.7l97.1,86.1l98-44.1
	l-42.8-106.3c0,0-13.3-58.4,38.4-123.1"/>
<path class="st11" d="M632.6,617l-101.5-90l29.4-46.6l0.8-2.9c0.5-0.2,22.6-12.6,15.3-40.7c-5.6-21.7-22.6-54.3-32.9-71.7
	c-6.7-11.3-7.8-13.3-7.8-15.3h8c0-0.4-0.1-0.7-0.1-0.7c0.4,1.3,3.7,6.7,6.8,12c11.3,19,28.4,51.3,33.9,74.5
	c7.2,30.5-13.3,44.7-18,47l-25,43l92.6,82.1l92.2-41.5l-41.5-103l-0.1-0.3c-0.1-0.6-3.5-15.6-0.3-38.7c2.9-21.2,12.1-53.6,39.4-87.8
	l6.2,5c-26,32.6-34.8,63.4-37.7,83.5c-2.8,20.1-0.4,33.9,0,36l44.1,109.5L632.6,617z"/>
<path class="st15" d="M629.2,432.5c-52.5-1.7-97.8-43-113.9-103.3c-1.2,0.1-2.4,0.2-3.6,0.1c-14.1-0.4-25.2-12.3-24.8-26.4
	c0.4-12.8,10.1-23.1,22.4-24.6c0-0.6,0-1.2,0-1.8c1.3-39.8,15.3-75.4,39.6-100.2c23.7-24.2,55.5-36.9,89.5-35.8
	c34,1.1,65,15.8,87.1,41.4c22.7,26.3,34.4,62.7,33.2,102.5c0,0.6,0,1.2-0.1,1.8c12.2,2.3,21.2,13.2,20.8,26
	c-0.4,14.1-12.3,25.2-26.4,24.8c-1.2,0-2.4-0.2-3.6-0.4C729.5,395.8,681.6,434.2,629.2,432.5z"/>
<path class="st11" d="M638.3,144.6c66.7,2.1,119,58.1,116.4,139.8c-0.1,1.8-0.2,3.6-0.3,5.5c0,0,0.1,0,0.1,0
	c11.9,0.4,21.3,10.4,20.9,22.3s-10.4,21.3-22.3,20.9c-2.2-0.1-4.4-0.5-6.4-1.2c-18,57.8-64.4,98.3-117.5,96.6
	c-53-1.7-96.8-45.1-111.1-103.9c-2,0.6-4.2,0.8-6.4,0.8c-11.9-0.4-21.3-10.4-20.9-22.3c0.4-11.9,10.4-21.3,22.3-20.9
	c0,0-1.1-0.8-1-0.8c0-1.8,0.2-2.9,0.2-4.8C514.9,194.8,571.7,142.4,638.3,144.6 M638.6,136.6c-35.2-1.1-68,12-92.5,37
	c-12.3,12.5-22,27.6-28.9,44.7c-7,17.4-11,36.4-11.8,56.7c-12.6,3.1-22.1,14.3-22.5,27.8c-0.5,16.3,12.3,30,28.7,30.5
	c0.3,0,0.5,0,0.8,0c17.2,60.3,63.5,101.4,116.8,103.1c53.3,1.7,102.1-36.4,123.1-95.5c0.3,0,0.5,0,0.8,0c16.3,0.5,30-12.3,30.5-28.7
	c0.4-13.6-8.4-25.3-20.7-29.2c0.5-20.3-2.2-39.6-8.2-57.4c-5.8-17.5-14.6-33.1-26-46.4C705.7,152.9,673.7,137.7,638.6,136.6
	L638.6,136.6z"/>
<path class="st16" d="M544.3,403.1"/>
<path class="st14" d="M590.8,157.5c0,0,132.8,9.2,140.2,143.9c0,0,10.2,136.5-31.7,151.1c0,0,84-14.1,101.8-87.6
	c0,0,41.9-211.2-105.8-246.7c0,0-55.9-14.4-96.4,14.7c0,0-41-9.2-85.5,66.5l-24.3,77.1l23.7,6.1
	C512.8,282.5,510.6,193.1,590.8,157.5z"/>
<path class="st17" d="M187.7,359.5c0,3.9,35.7,54.3,40.7,86.4c5.2,33.6-12.3,39.4-12.3,39.4l66.1,67.5l60.4-33.2l-6.2-47.9
	c0,0-13.3-58.4,38.4-123.1"/>
<path class="st15" d="M281.6,557.5l-72.4-73.9l5.8-1.9c0.5-0.2,14.3-5.7,9.7-35.2c-3.4-22.1-22.6-54.4-32.9-71.7
	c-6.6-11.1-7.8-13.2-7.8-15.2h7.6c0-0.4-0.1-0.7-0.1-0.7c0.4,1.3,3.7,6.7,6.8,12c10.6,17.8,30.3,50.9,33.9,74.5
	c3.9,25.1-4.3,36.2-10,40.8l60.8,62l55.6-30.6l-5.8-45.1c-0.4-1.9-3.2-16.5-0.2-38.5c2.9-21.2,12.1-53.6,39.3-87.7l6,4.7
	c-49.9,62.6-37.7,119.3-37.6,119.9l0.1,0.4l6.5,50.5L281.6,557.5z"/>
<path class="st17" d="M277.1,442.3c-52.5-1.7-97.8-43-113.9-103.3c-1.2,0.1-2.4,0.2-3.6,0.1c-14.1-0.4-25.2-12.3-24.8-26.4
	c0.4-12.8,10.1-23.1,22.4-24.6c0-0.6,0-1.2,0-1.8c1.3-39.8,15.3-75.4,39.6-100.2c23.7-24.2,55.5-36.9,89.5-35.8
	c34,1.1,65,15.8,87.1,41.4c22.7,26.3,34.4,62.7,33.2,102.5c0,0.6,0,1.2-0.1,1.8c12.2,2.3,21.2,13.2,20.8,26
	c-0.4,14.1-12.3,25.2-26.4,24.8c-1.2,0-2.4-0.2-3.6-0.4C377.5,405.6,329.6,444,277.1,442.3z"/>
<path class="st15" d="M280.4,446.2c-1.1,0-2.3,0-3.4-0.1c-26.6-0.8-51.9-11.4-73-30.6c-20.3-18.4-35.3-43.4-43.6-72.5
	c-0.3,0-0.6,0-0.9,0c-16.2-0.5-29-14.1-28.5-30.3c0.4-13.2,9.9-24.6,22.5-27.7c1.6-40.2,16-76.2,40.7-101.4
	c23.4-23.9,54.7-37,88.2-37c1.4,0,2.8,0,4.1,0.1c35.1,1.1,67,16.3,89.8,42.8c23,26.7,35.1,63.6,34.1,103.8
	c12.4,3.9,21.1,15.8,20.7,29c-0.5,16-13.4,28.5-29.4,28.5c-0.3,0-0.6,0-0.9,0c-0.3,0-0.6,0-0.9,0c-9.9,27.8-26,51.4-46.8,68.5
	C331.6,436.8,306.4,446.2,280.4,446.2z M166,334.9l0.8,3.2c7.7,28.9,22.3,53.7,42.2,71.8c19.8,18,43.4,27.9,68.2,28.7
	c25.4,0.8,50-8,71.1-25.3c20.4-16.7,36.1-40.2,45.4-67.9l1-3.1l3.2,0.6c1,0.2,2.1,0.3,3.1,0.3c12,0.4,22.1-9.2,22.5-21.1
	c0.3-10.6-7.3-20.1-17.7-22.1l-3.2-0.6l0.1-3.3c0-0.6,0-1.2,0.1-1.7c1.2-38.8-10.2-74.3-32.3-99.9c-21.4-24.8-51.3-39.1-84.3-40.1
	c-1.3,0-2.6-0.1-3.9-0.1c-31.4,0-60.9,12.3-82.8,34.8c-23.6,24.1-37.3,58.8-38.5,97.6c0,0.6,0,1.1,0,1.7l-0.1,3.3l-3.3,0.4
	c-10.5,1.3-18.8,10.3-19.1,21c-0.4,12,9.1,22.1,21.1,22.5c1,0,2.1,0,3.1-0.1L166,334.9z"/>
<path class="st15" d="M284.4,391.7c-5.8,0-11.5-0.6-17.1-2c-1.8-0.5-3.6-1-5.4-1.5l-7-2.1c-2.1-0.6-3.3-2.8-2.7-5
	c0.6-2.1,2.8-3.3,5-2.7l7,2.1c1.8,0.5,3.4,1,5.1,1.4c14.3,3.6,30,1.8,43.1-4.9c2-1,4.4-0.2,5.4,1.7c1,2,0.2,4.4-1.7,5.4
	C306.2,389.1,295.3,391.7,284.4,391.7z"/>
<path class="st15" d="M302.1,341.7c-0.7,0-1.4-0.2-2-0.6c-15-8.9-29.9-0.2-30.5,0.2c-1.9,1.1-4.3,0.5-5.5-1.4
	c-1.1-1.9-0.5-4.3,1.4-5.5c0.8-0.5,19.5-11.5,38.7-0.2c1.9,1.1,2.5,3.6,1.4,5.5C304.8,341,303.5,341.7,302.1,341.7z"/>
<g>
	<path class="st8" d="M338.8,301c-4.1,0-7.2-4-7.2-9.4c0-5.4,3-9.5,7.1-9.5s7.2,4,7.2,9.4C346,296.9,342.9,301,338.8,301z"/>
	<path class="st8" d="M338.8,307.2c-7.6,0-13.3-6.7-13.4-15.6c0-3.9,1.1-7.7,3.2-10.5c2.5-3.3,6.1-5.2,10-5.2
		c7.6,0,13.4,6.7,13.4,15.6C352.2,300.4,346.5,307.2,338.8,307.2L338.8,307.2z M338.8,288.3c-0.3,0.3-1,1.4-1,3.2
		c0,1.8,0.7,2.9,1,3.2c0.3-0.3,1-1.4,1-3.2C339.7,289.7,339.1,288.6,338.8,288.3z"/>
</g>
<g>
	<path class="st8" d="M338.8,301.5c-4.4,0-7.7-4.2-7.7-9.9c0-5.7,3.2-10,7.6-10c4.4,0,7.7,4.2,7.7,9.9
		C346.5,297.2,343.2,301.5,338.8,301.5z M338.7,282.6c-3.8,0-6.6,3.9-6.6,9c0,5.1,2.9,8.9,6.7,8.9c3.8,0,6.6-3.9,6.6-9
		C345.4,286.4,342.5,282.6,338.7,282.6z"/>
	<path class="st8" d="M338.8,307.7c-7.9,0-13.8-6.9-13.9-16.1c0-9.2,5.9-16.2,13.8-16.2c7.9,0,13.9,6.9,13.9,16.1
		C352.7,300.7,346.7,307.7,338.8,307.7L338.8,307.7z M338.8,289.2c-0.2,0.5-0.5,1.2-0.5,2.3c0,1.1,0.2,1.9,0.5,2.3
		c0.2-0.5,0.5-1.2,0.5-2.3C339.2,290.4,339,289.7,338.8,289.2z"/>
</g>
<g>
	<path class="st8" d="M229.2,302.3c-4.1,0-7.2-4-7.2-9.4c0-5.4,3-9.5,7.1-9.5s7.2,4,7.2,9.4C236.3,298.2,233.2,302.2,229.2,302.3z"
		/>
	<path class="st8" d="M229.1,308.4c-7.6,0-13.3-6.7-13.4-15.6c0-8.9,5.7-15.7,13.3-15.7c7.6,0,13.4,6.7,13.4,15.6
		C242.5,301.6,236.8,308.4,229.1,308.4L229.1,308.4z M229.1,289.6c-0.3,0.3-1,1.4-1,3.2c0,1.8,0.7,2.9,1,3.2c0.3-0.3,1-1.4,1-3.2
		C230.1,290.9,229.4,289.9,229.1,289.6z"/>
</g>
<g>
	<path class="st8" d="M229.2,302.8c-4.4,0-7.7-4.2-7.7-9.9c0-5.7,3.2-10,7.6-10c4.4,0,7.7,4.2,7.7,9.9
		C236.8,298.4,233.5,302.7,229.2,302.8z M229.1,283.8c-3.8,0-6.6,3.9-6.6,9c0,5.1,2.9,8.9,6.7,8.9c3.8,0,6.6-3.9,6.6-9
		C235.7,287.7,232.9,283.8,229.1,283.8z"/>
	<path class="st8" d="M229.1,308.9c-7.9,0-13.8-6.9-13.9-16.1c0-9.2,5.9-16.2,13.8-16.2c7.9,0,13.9,6.9,13.9,16.1
		C243,301.9,237.1,308.9,229.1,308.9L229.1,308.9z M229.1,290.5c-0.2,0.5-0.5,1.2-0.5,2.3c0,1.1,0.2,1.9,0.5,2.3
		c0.2-0.5,0.5-1.2,0.5-2.3C229.6,291.7,229.3,290.9,229.1,290.5z"/>
</g>
<circle class="st8" cx="341.5" cy="288.8" r="2.8"/>
<path class="st8" d="M341.5,297.7c-4.9,0-8.9-4-9-8.9c0-4.9,4-9,8.9-9c5,0,9,4,9,8.9c0,2.4-0.9,4.6-2.6,6.3
	C346.2,296.8,344,297.7,341.5,297.7L341.5,297.7z M341.5,285.4c-0.9,0-1.8,0.4-2.4,1c-0.6,0.6-1,1.5-1,2.4c0,1.9,1.5,3.4,3.4,3.4
	c1.9,0,3.4-1.5,3.4-3.4C344.9,286.9,343.4,285.4,341.5,285.4l0,6.2L341.5,285.4z"/>
<circle class="st8" cx="231.9" cy="289.3" r="2.8"/>
<path class="st8" d="M231.9,298.3c-4.9,0-8.9-4-9-8.9c0-2.4,0.9-4.6,2.6-6.3c1.7-1.7,3.9-2.6,6.3-2.7c5,0,9,4,9,8.9
	C240.9,294.2,236.9,298.3,231.9,298.3L231.9,298.3z M231.9,285.9c-1.9,0-3.4,1.5-3.4,3.4c0,1.9,1.5,3.4,3.4,3.4c0.9,0,1.8-0.4,2.4-1
	c0.6-0.6,1-1.5,1-2.4C235.3,287.4,233.7,285.9,231.9,285.9l0,6.2L231.9,285.9z"/>
<path class="st16" d="M192.3,412.9"/>
<path class="st18" d="M404.1,256.4c-104.7-43.2-157-33.3-249.1,1.1c-3.2,1.2-5.8,1.6-5.1-1.7l19.5-104.8c0.4-1.9,1.4-3.5,3-4.6
	c10.6-7.3,54.6-35.3,111.6-37.6c0,0,61.1,4,105.2,30.9c1.8,1.1,3.1,3,3.4,5.1l16.3,103.6C409.4,252,407.3,257.7,404.1,256.4z"/>
<path class="st19" d="M151.5,262.2c-2.4,0-3.7-1.2-4.3-1.9c-1.1-1.3-1.5-3.1-1.1-5.3l19.5-104.8c0.5-2.9,2.2-5.3,4.5-7
	c12.1-8.4,56.2-36,113.6-38.2l0.2,0l0.2,0c2.5,0.2,62.6,4.3,107,31.5c2.8,1.7,4.7,4.5,5.2,7.8L412.6,248c0.4,2.9-0.3,7.3-2.7,10.1
	c-1.9,2.2-4.7,3-7.3,1.9c-47.6-19.6-84.6-28.4-119.9-28.4c-39.6,0-76.3,10.8-126.4,29.6C154.3,261.9,152.8,262.2,151.5,262.2z
	 M283.9,112.7c-55.2,2.2-97.6,28.8-109.3,36.9c-0.7,0.5-1.2,1.3-1.4,2.1l-19,102.1c50.7-18.9,88-29.9,128.6-29.9
	c36.1,0,73.7,8.8,121.7,28.5c0.4-0.9,0.7-2.3,0.6-3.3l-16.3-103.6c-0.2-1-0.7-1.9-1.6-2.4C345.6,117.7,287.7,113,283.9,112.7z"/>
<path class="st18" d="M206.6,234.9c0-41.6,11-76.6,15.6-89.7c1.3-3.5,3.7-6.4,7-8.2l50.6-27.9l50.8,26.2c3.9,2,6.7,5.5,7.8,9.8
	c4.1,16.1,13.9,58.8,13.9,100.9"/>
<path class="st19" d="M352.2,249.7c-2.1,0-3.8-1.7-3.8-3.8c0-41.5-9.7-83.7-13.8-99.9c-0.8-3.2-2.9-5.8-5.8-7.3l-49-25.2L231,140.4
	c-2.4,1.3-4.3,3.5-5.2,6.1c-4.6,12.9-15.4,47.4-15.4,88.4c0,2.1-1.7,3.8-3.8,3.8c-2.1,0-3.8-1.7-3.8-3.8c0-42.1,11.1-77.6,15.9-90.9
	c1.6-4.4,4.7-8,8.7-10.2l50.6-27.9c1.1-0.6,2.5-0.6,3.6-0.1l50.8,26.2c4.8,2.5,8.4,6.9,9.7,12.2c4.2,16.5,14,59.4,14,101.8
	C356,248,354.3,249.7,352.2,249.7z"/>
<path class="st14" d="M151.1,259c21.8-8.3,83.9-14,142.5-14c58.1,0,96.3,5.7,118.4,13.8c0,0,38.5-8.8,40-16.2
	c2.6-12.7-71.6-20.7-150.2-20.7C169.9,221.9,143.3,256.1,151.1,259z"/>
<path class="st19" d="M151.2,263l-1.3-0.5c-2.7-1-4.2-3.6-3.6-6.6c1.1-6.1,11-15.4,35.7-23.5c36.4-11.9,85.3-14.4,119.9-14.4
	c50.8,0,140,4,152.3,19c2,2.4,2,4.7,1.7,6.3c-1.2,6-11.8,10.1-23.1,13.7c-9.8,3.1-19.3,5.3-19.7,5.4l-1.1,0.3l-1.1-0.4
	c-16.9-6.2-50.9-13.6-117.1-13.6c-59.7,0-120.4,5.9-141.1,13.8L151.2,263z M293.6,241.1c52.6,0,93.6,4.7,118.7,13.6
	c17.4-4.1,33.3-9.8,35.9-12.9c-0.9-1.2-7.2-6.7-45.6-11.2c-27.4-3.2-63.2-5-100.7-5c-96.1,0-134,18.4-144.7,27.4
	C183.2,246,238,241.1,293.6,241.1z"/>
<path class="st18" d="M222.3,472.9c0,0,17.4,54.8,74.6,71.6c0,0,32.8-17.1,47.3-69.6c0,0,10.3,8.1,16.8,12.2
	c0,0-15.6,61.1-63.3,81.1c0,0-82.5-25.7-94.1-89C203.5,479.1,209.2,475.7,222.3,472.9z"/>
<path class="st19" d="M297.6,572c-0.4,0-0.8-0.1-1.1-0.2c-0.9-0.3-21.4-6.8-43.6-21.2c-29.8-19.4-48.1-43.8-53.1-70.7
	c-0.3-1.6,0.4-3.1,1.8-3.9c0.3-0.2,6.4-3.8,19.9-6.7c1.9-0.4,3.8,0.7,4.4,2.6c0.2,0.5,17.3,52.1,70.4,68.6
	c6-3.8,31.9-22.1,44.1-66.5c0.3-1.2,1.3-2.2,2.5-2.6c1.2-0.4,2.5-0.2,3.5,0.6c0.1,0.1,10.2,8,16.4,11.9c1.4,0.9,2.1,2.6,1.7,4.2
	c-0.7,2.6-16.6,63.1-65.5,83.6C298.6,571.9,298.1,572,297.6,572z M207.9,481.3c12.1,54.1,79.3,79.3,89.6,82.8
	c22.9-10.1,37.9-30.4,46.4-45.8c7.2-12.9,11.1-24.5,12.6-29.5c-3.5-2.3-7.3-5.2-10.3-7.4c-15.4,49.3-46.3,65.8-47.6,66.5
	c-0.9,0.5-1.9,0.6-2.8,0.3c-30.5-9-49.9-28.6-60.7-43.5c-8.5-11.7-13.2-22.1-15.2-27.3C214.1,478.8,210.1,480.3,207.9,481.3z"/>
<path class="st17" d="M224.9,370.3c0,0,14.8,26.6,60,26.6c0,0,41.1,1.1,57.3-26.6"/>
<path class="st15" d="M285.7,400.7c-0.4,0-0.7,0-0.9,0c-46.9,0-62.7-27.4-63.3-28.6c-1-1.8-0.4-4.2,1.5-5.2c1.8-1,4.1-0.4,5.2,1.5
	c0.6,1.1,14.5,24.7,56.7,24.7l0.1,0c0.4,0,39.1,0.7,53.9-24.7c1.1-1.8,3.4-2.4,5.2-1.4c1.8,1.1,2.4,3.4,1.4,5.2
	C329.6,399.5,292.2,400.7,285.7,400.7z"/>
<path class="st20" d="M631.5,393.7c-0.4,0-0.7,0-0.9,0c-46.9,0-62.7-27.4-63.3-28.6c-1-1.8-0.4-4.2,1.5-5.2c1.8-1,4.1-0.4,5.2,1.5
	c0.6,1.1,14.5,24.7,56.7,24.7l0.1,0c0.4,0,39.1,0.7,53.9-24.7c1.1-1.8,3.4-2.4,5.2-1.4c1.8,1.1,2.4,3.4,1.4,5.2
	C675.3,392.5,638,393.7,631.5,393.7z"/>
<circle class="st3" cx="228.8" cy="287.3" r="4.4"/>
<path class="st3" d="M228.8,292.7c-3,0-5.4-2.4-5.4-5.4s2.4-5.4,5.4-5.4s5.4,2.4,5.4,5.4S231.7,292.7,228.8,292.7z M228.8,283.8
	c-1.9,0-3.5,1.6-3.5,3.5s1.6,3.5,3.5,3.5s3.5-1.6,3.5-3.5S230.7,283.8,228.8,283.8z"/>
<circle class="st3" cx="339.6" cy="286.7" r="4.4"/>
<path class="st3" d="M339.6,292.1c-3,0-5.4-2.4-5.4-5.4c0-3,2.4-5.4,5.4-5.4c3,0,5.4,2.4,5.4,5.4C345,289.7,342.6,292.1,339.6,292.1
	z M339.6,283.2c-1.9,0-3.5,1.6-3.5,3.5c0,1.9,1.6,3.5,3.5,3.5s3.5-1.6,3.5-3.5C343.1,284.8,341.6,283.2,339.6,283.2z"/>
<path class="st15" d="M628.8,381c-5.8,0-11.5-0.6-17.1-2c-1.8-0.5-3.6-1-5.4-1.5l-7-2.1c-2.1-0.6-3.3-2.8-2.7-5
	c0.6-2.1,2.8-3.3,5-2.7l7,2.1c1.8,0.5,3.4,1,5.1,1.4c14.3,3.6,30,1.8,43.1-4.9c2-1,4.4-0.2,5.4,1.7c1,2,0.2,4.4-1.7,5.4
	C650.7,378.3,639.7,380.9,628.8,381z"/>
<path class="st11" d="M646.6,330.9c-0.7,0-1.4-0.2-2-0.6c-15-8.9-29.9-0.2-30.5,0.2c-1.9,1.1-4.3,0.5-5.5-1.4s-0.5-4.3,1.4-5.5
	c0.8-0.5,19.5-11.5,38.7-0.2c1.9,1.1,2.5,3.6,1.4,5.5C649.3,330.2,648,330.9,646.6,330.9z"/>
<g>
	<path class="st8" d="M683.3,290.2c-4.1,0-7.2-4-7.2-9.4c0-5.4,3-9.5,7.1-9.5c4.1,0,7.2,4,7.2,9.4
		C690.4,286.1,687.4,290.2,683.3,290.2z"/>
	<path class="st8" d="M683.2,296.4c-7.6,0-13.3-6.7-13.4-15.6c0-8.9,5.7-15.7,13.3-15.7c7.6,0,13.4,6.7,13.4,15.6
		C696.6,289.6,690.9,296.4,683.2,296.4L683.2,296.4z M683.2,277.6c-0.3,0.3-1,1.4-1,3.2c0,1.8,0.7,2.9,1,3.2c0.3-0.3,1-1.4,1-3.2
		S683.5,277.9,683.2,277.6z"/>
</g>
<g>
	<path class="st8" d="M573.6,291.5c-4.1,0-7.2-4-7.2-9.4c0-5.4,3-9.5,7.1-9.5c4.1,0,7.2,4,7.2,9.4
		C580.7,287.4,577.7,291.4,573.6,291.5z"/>
	<path class="st8" d="M573.6,297.7c-7.6,0-13.3-6.7-13.4-15.6c0-8.9,5.7-15.7,13.3-15.7c7.6,0,13.4,6.7,13.4,15.6
		c0,3.9-1.1,7.7-3.2,10.5C581.2,295.7,577.5,297.6,573.6,297.7L573.6,297.7z M573.6,285.3v6.2V285.3L573.6,285.3L573.6,285.3
		L573.6,285.3z M573.5,278.8c-0.3,0.3-1,1.4-1,3.2c0,1.8,0.7,2.9,1,3.2c0.3-0.3,1-1.4,1-3.2C574.5,280.2,573.9,279.1,573.5,278.8z"
		/>
</g>
<circle class="st8" cx="686" cy="278" r="2.8"/>
<path class="st8" d="M683.1,264.6c-4,0-7.8,2-10.3,5.3c-2.2,2.9-3.4,6.8-3.4,10.9c0,9.2,6,16.1,13.9,16.1h0.1
	c7.9,0,13.8-7,13.8-16.2C697,271.5,691.1,264.6,683.1,264.6z M682.9,279.4c0.1-0.4,0.2-0.7,0.3-1c0.2,0.4,0.4,1.1,0.5,2
	C683.4,280.2,683.1,279.8,682.9,279.4z"/>
<circle class="st8" cx="576.3" cy="278.5" r="2.8"/>
<path class="st8" d="M573.5,265.9c-4,0-7.8,2-10.3,5.3c-2.2,2.9-3.4,6.8-3.4,10.9c0,9.2,6,16.1,13.9,16.1h0.1
	c7.9,0,13.8-7,13.8-16.2C587.3,272.8,581.4,265.9,573.5,265.9z M573.4,280.2c0.1-0.2,0.1-0.4,0.2-0.5c0.1,0.3,0.3,0.7,0.4,1.3
	C573.7,280.7,573.5,280.5,573.4,280.2z"/>
<circle class="st3" cx="573.2" cy="278.3" r="4.4"/>
<path class="st3" d="M573.2,283.7c-3,0-5.4-2.4-5.4-5.4c0-3,2.4-5.4,5.4-5.4c3,0,5.4,2.4,5.4,5.4
	C578.6,281.3,576.2,283.7,573.2,283.7z M573.2,274.8c-1.9,0-3.5,1.6-3.5,3.5c0,1.9,1.6,3.5,3.5,3.5c1.9,0,3.5-1.6,3.5-3.5
	C576.7,276.4,575.2,274.8,573.2,274.8z"/>
<circle class="st3" cx="684.1" cy="277.7" r="4.4"/>
<path class="st3" d="M684.1,283.1c-3,0-5.4-2.4-5.4-5.4c0-3,2.4-5.4,5.4-5.4c3,0,5.4,2.4,5.4,5.4
	C689.5,280.6,687.1,283.1,684.1,283.1z M684.1,274.2c-1.9,0-3.5,1.6-3.5,3.5c0,1.9,1.6,3.5,3.5,3.5c1.9,0,3.5-1.6,3.5-3.5
	C687.6,275.7,686,274.2,684.1,274.2z"/>
<path class="st12" d="M555.2,238.5c5.2-0.4,8-6.2,12.2-9.4c3-2.3,6.9-3.4,10.6-2.8"/>
<path class="st17" d="M428.9,779.8c-0.1,0.3-0.1,0.7-0.2,1c9.5-17,17.9-36.7,25.4-59.5c0-0.1-0.1-0.2-0.1-0.4
	C446.5,743.5,438.2,762.9,428.9,779.8z"/>
<path class="st15" d="M447.5,660.5c0.1-1.6,0.1-3.2,0.2-4.8c-2.4,1.6-4.8,3.3-7.2,5c0,1.6-0.1,3.1-0.1,4.7
	C442.8,663.8,445.2,662.1,447.5,660.5z"/>
<path class="st15" d="M447.4,665.2c0-1.6,0.1-3.1,0.1-4.7c-2.3,1.6-4.7,3.2-7.1,4.9c0,1.6-0.1,3.1-0.1,4.7
	C442.6,668.5,445,666.9,447.4,665.2z"/>
<path class="st15" d="M457.9,732.8c-0.2-0.5-0.4-1-0.6-1.5c-0.5-1.3-0.9-2.6-1.3-3.8c0-0.1-0.1-0.2-0.1-0.3
	c-0.6-1.9-1.2-3.9-1.8-5.9c-7.5,22.9-15.9,42.6-25.4,59.5c-0.7,3.6-1.4,7.1-2.2,10.6c-0.1,0.4-0.2,0.7-0.3,1.1
	c-0.8,3.4-1.6,6.8-2.5,10.1c-0.1,0.4-0.2,0.7-0.3,1.1c2.9-4.2,5.7-8.6,8.5-13.1c9.8-16.4,18.4-35.4,26.2-57.4
	C458,733.1,457.9,733,457.9,732.8z"/>
<path class="st15" d="M470.1,693.8c-0.4,1.6-0.9,3.2-1.3,4.8c0,2.4,0.4,4.8,1.6,7.1C469.7,703.5,469.4,700,470.1,693.8z"/>
<path class="st15" d="M477.5,702.9c0.1,0.2,0.3,0.5,0.5,0.7c0.5,0.7,1.2,1.3,1.9,1.9c-0.6-2.7-1.4-6-2.4-9.2
	C477.2,699.5,477.3,701.6,477.5,702.9z"/>
<path class="st15" d="M478,703.6c-0.2-0.2-0.3-0.5-0.5-0.7c0.1,0.7,0.3,1.1,0.5,1.4c0.5,0.7,1.3,1.4,2.1,2.1
	c-0.1-0.3-0.1-0.6-0.2-0.8C479.1,704.9,478.5,704.3,478,703.6z"/>
<path class="st15" d="M484.1,639.5c-0.7,0.5-1.5,1.1-2.3,1.6c0.2,1.1,0.4,2.2,0.6,3.3C483,642.7,483.6,641,484.1,639.5z"/>
<path class="st15" d="M466.5,676c-2.6,10.8-5.3,21-8.2,30.7c0,0.1,0.1,0.3,0.1,0.4c2.8-9.6,5.5-19.8,8.1-30.4c1.1-4.4,3.9-4.9,5-4.9
	c0.9,0,1.8,0.2,2.6,0.7c0-0.2,0.1-0.4,0.1-0.6c-0.9-0.6-1.8-0.8-2.7-0.8C470.4,671.1,467.6,671.6,466.5,676z"/>
<path class="st15" d="M485.6,716.5c-1.2,0.7-3.7,1.4-6.7-1.7c-0.7-0.8-1.6-1.5-2.5-2.2c-1.5-1.2-3.1-2.5-4.5-4.3
	c-0.6-0.8-1.1-1.7-1.6-2.5c0.5,1.7,1.1,2.6,1.6,3.2c1.3,1.8,3,3.1,4.5,4.3c0.9,0.8,1.8,1.5,2.5,2.2c3,3.1,5.5,2.4,6.7,1.7
	c1.4-0.8,2.7-2,2.6-6.2C488.1,714.6,486.9,715.7,485.6,716.5z"/>
<path class="st15" d="M468.7,698c-2.2,8-4.5,15.7-6.9,23c0,0.1,0.1,0.2,0.1,0.4c2.3-7.3,4.6-14.8,6.7-22.7
	C468.7,698.4,468.7,698.2,468.7,698z"/>
<path class="st15" d="M472.7,682.6c-0.4,1.7-0.8,3.4-1.3,5c0.6-1.3,1.2-2.6,1.8-3.8C473.1,683.5,472.9,683,472.7,682.6z"/>
<path class="st15" d="M477.7,675.8c0.4-0.8,0.8-1.6,1.2-2.4c3-6,4.2-12.4,4.3-19c-2.1,6.7-4.1,13.9-5.8,20.9
	C477.5,675.5,477.6,675.6,477.7,675.8z"/>
<path class="st15" d="M487.6,632.3c-0.4-1.3-0.7-2.6-1.1-3.9c-0.9,0.7-2,1.5-3.3,2.3c0.4,1.3,0.7,2.6,1.1,3.9
	C485.6,633.7,486.7,633,487.6,632.3z"/>
<path class="st15" d="M476,681.4c0.4,0.9,0.9,1.9,1.3,3c0.1-0.1,0.1-0.2,0.2-0.3c-0.5-1.1-0.9-2.2-1.4-3.2
	C476.1,681.1,476,681.3,476,681.4z"/>
<path class="st15" d="M484.3,634.6c-0.3-1.3-0.7-2.6-1.1-3.9c-1,0.7-2.1,1.5-3.3,2.4c0.4,1.3,0.7,2.6,1,3.9
	C482.2,636.2,483.3,635.4,484.3,634.6z"/>
<path class="st15" d="M474.3,690.8c-1.9,4.8-2.6,9.5-0.3,13.7C473.2,701.5,473.4,696.6,474.3,690.8z"/>
<path class="st15" d="M484.4,711c0.1-5.1-3.3-18-6.9-26.9c-0.1,0.1-0.1,0.2-0.2,0.3C480.8,693,484.2,705.4,484.4,711z"/>
<path class="st15" d="M492.4,628.8c0,0-1.7,1.2-4.8,3.4c0.5,1.7,0.9,3.4,1.3,5.2C490.3,633.5,491.5,630.5,492.4,628.8z"/>
<path class="st15" d="M477.1,694.3c-1,3.3-1,6.1,0.4,8.6c-0.2-1.3-0.3-3.4,0-6.6c1,3.3,1.8,6.5,2.4,9.2c0.1,0,0.1,0.1,0.2,0.1
	C479.4,702.5,478.3,698.4,477.1,694.3z"/>
<path class="st15" d="M476,681.4c0-0.2,0.1-0.3,0.1-0.5c-2.5-5.4-4.9-8.2-5.9-4.1c-3.2,13.4-6.6,25.8-10.2,37.3
	c0,0.1,0.1,0.3,0.1,0.4c3.5-11.5,6.9-23.8,10.1-37C471.2,673.5,473.5,676.1,476,681.4z"/>
<path class="st15" d="M481.6,712.1c-2.1-2.2-4.9-3.8-6.7-6.2c-0.4-0.5-0.7-1-1-1.5c0.2,0.9,0.5,1.6,1,2.2c1.8,2.4,4.6,4,6.7,6.2
	c2.1,2.1,2.8,1.1,2.8-1.8C484.3,713.3,483.5,714.1,481.6,712.1z"/>
<path class="st15" d="M476,681.4c-0.7,3.3-1.3,6.5-1.7,9.4c0.8-2.1,1.9-4.2,3-6.4C476.9,683.4,476.4,682.4,476,681.4z"/>
<path class="st11" d="M509.7,807.6c0-2.1-0.1-4.3-0.1-6.4c-0.7-0.9-1.3-1.8-2-2.6c-16.6-21.7-33.7-44.2-43.2-69.9
	c-0.9-2.4-1.7-4.9-2.4-7.3c0-0.1-0.1-0.2-0.1-0.4c-0.6-2.1-1.2-4.2-1.8-6.4c0-0.1-0.1-0.3-0.1-0.4c-0.6-2.4-1.1-4.7-1.6-7.1
	c0-0.1-0.1-0.3-0.1-0.4c-3-15.3-3.8-31.1-3.2-46.8c0.1-1.6,0.1-3.2,0.2-4.8c0.1-1.6,0.2-3.2,0.3-4.9c1.4-19.7,4.7-39.1,8.2-57.5
	c0.1-0.6,0.2-1.2,0.3-1.7c0.3-1.6,0.6-3.1,0.9-4.7c0.4-2.1,0.8-4.2,1.3-6.3c2-9.1,4.2-17.7,7.4-25.7c-1-1.1-2-2.1-2.8-3.1
	c-1.1-1.3-1.9-2.4-2.6-3.6c-3,6.8-5.2,13.9-7.1,21.4c-0.5,1.9-1,3.9-1.4,5.8c-0.5,2-0.9,4-1.3,6.1c-0.6,2.8-1.1,5.7-1.7,8.6
	c-4,21-7.9,43.5-9,66.2c-0.1,1.6-0.2,3.2-0.2,4.8c-0.1,1.6-0.1,3.1-0.1,4.7c-0.3,18.8,1.4,37.6,6.6,55.7c0,0.1,0.1,0.2,0.1,0.4
	c0.6,2,1.2,3.9,1.8,5.9c0,0.1,0.1,0.2,0.1,0.3c0.4,1.3,0.9,2.6,1.3,3.8c0.2,0.5,0.4,1,0.6,1.5c0,0.1,0.1,0.2,0.1,0.3
	c10,26,27,48.4,43.5,70c2.7,3.6,5.5,7.2,8.2,10.8C509.7,811.9,509.7,809.8,509.7,807.6z"/>
<path class="st4" d="M128.7,504.7l0,0.9c0,0,0,0,0,0C128.7,505.4,128.7,505.1,128.7,504.7z"/>
<path class="st4" d="M128.7,506.5c0-0.3,0-0.6,0-0.9c0,0,0,0,0,0l0,0.4C128.7,506.2,128.7,506.4,128.7,506.5z"/>
<path class="st21" d="M746.4,506.6c-13-5.6-26.4-11.4-39.7-17.3c-19.3,20.8-46.2,33.6-70.8,33.6c-1.9,0-3.7-0.1-5.5-0.2
	c-28.5-2.2-54.5-16.8-70.3-39.3c-6.4,3.8-14.5,7.7-23,11.9c-18.4,9-39.3,19.2-53.5,32.1c-2.6,2.4-5.5,5.4-7.5,8.7
	c-1.1,1.9-1.9,3.9-2.1,6.1c0.1,0.3,0.2,0.8,0.5,1.2c0.5,0.9,1.4,2.1,2.6,3.3c3.2,3.6,8.2,8.2,11.4,11.1c6.8,6.2,11,10.1,12.4,13.3
	c5.7,12.6,6.8,26.4,7.7,38.6c5.1,66.8,8,134.4,8.7,201.7c0,2.2,0,4.3,0.1,6.5c0,1.6,0,3.2,0,4.7c1-0.2,2-0.4,2.9-0.6
	c1.3-0.3,2.7-0.6,4-0.9c10.3-2.4,20.4-5.2,30.3-8.5c1.6-0.5,3.2-1.1,4.8-1.7c1.6-0.6,3.2-1.1,4.7-1.7
	C683.5,765.1,769.6,652.4,774.9,519C765.3,514.8,755.7,510.7,746.4,506.6z"/>
<path class="st22" d="M502.7,616.5l-1.1,0.8c0,0.4,0.1,0.8,0.1,1.3L502.7,616.5z"/>
<path class="st22" d="M749.4,499.6c-13.8-5.9-28.1-12.1-42.1-18.4c-1.5-0.7-3.3-0.3-4.4,1c-18.1,20.4-43.7,33.1-67,33.1
	c-1.7,0-3.3-0.1-5-0.2c-27.5-2.1-52.3-16.7-66.6-38.9c-0.5-0.9-1.4-1.5-2.4-1.7c-1-0.2-2,0-2.9,0.5c-6.4,4.1-15.6,8.6-25.4,13.4
	c-18.9,9.2-40.3,19.6-55.3,33.4c-5.2,4.8-11.3,11.3-12,19.8c-0.2,1.9,0.5,3.8,1.8,6c0.7,1.1,1.6,2.3,2.6,3.6c0.8,1,1.8,2,2.8,3.1
	c2.6,2.7,5.9,5.8,9.7,9.2c4.4,4,9.8,8.9,10.6,10.8c5.1,11.3,6.1,24.5,7,36c0.2,2.3,0.3,4.6,0.5,7l1.1-0.8l-1,2.1
	c4.5,60.5,7.1,121.7,7.9,182.6c0,2.1,0.1,4.3,0.1,6.4c0,2.1,0,4.3,0.1,6.4c0,3.4,0.1,6.7,0.1,10.1c1.3-0.2,2.5-0.5,3.8-0.7
	c0.9-0.2,1.8-0.3,2.7-0.5c0.4-0.1,0.8-0.1,1.1-0.2c0-1.6,0-3.2,0-4.7c0-2.2,0-4.3-0.1-6.5c-0.6-67.3-3.5-134.9-8.7-201.7
	c-0.9-12.2-2-26-7.7-38.6c-1.4-3.1-5.6-7.1-12.4-13.3c-3.2-2.9-8.2-7.5-11.4-11.1c-1.1-1.3-2-2.4-2.6-3.3c-0.3-0.5-0.5-0.9-0.5-1.2
	c0.2-2.1,1-4.1,2.1-6.1c1.9-3.3,4.8-6.3,7.5-8.7c14.1-13,35-23.1,53.5-32.1c8.5-4.1,16.6-8.1,23-11.9c15.8,22.5,41.8,37.1,70.3,39.3
	c1.8,0.1,3.7,0.2,5.5,0.2c24.5,0,51.4-12.8,70.8-33.6c13.3,5.9,26.7,11.7,39.7,17.3c9.4,4,19,8.2,28.5,12.4c0.1-1.4,0.1-2.7,0.2-4.1
	c0-1.4,0-2.7,0.1-4.1C766.5,507,757.8,503.3,749.4,499.6z"/>
<path class="st1" d="M775.2,510.8c0-1.3,0-2.5,0-3.8c0-0.2,0-0.3,0-0.5C775.2,508,775.2,509.4,775.2,510.8
	C775.1,510.8,775.1,510.8,775.2,510.8z"/>
<path class="st1" d="M128.7,501.7l0.2-6.8C128.8,497.2,128.8,499.5,128.7,501.7C128.7,501.7,128.7,501.7,128.7,501.7z"/>
<path class="st1" d="M128.7,501.7C128.7,501.7,128.7,501.7,128.7,501.7c0,1-0.1,2-0.1,3L128.7,501.7z"/>
<path class="st1" d="M128.7,506.5c0,0.2,0,0.3,0,0.5c0,0.8,0,1.7,0,2.5c0,0,0,0,0,0C128.7,508.5,128.7,507.5,128.7,506.5z"/>
<path class="st1" d="M775.1,514.9C775.1,514.9,775.1,514.9,775.1,514.9c0.1-1.4,0.1-2.7,0.1-4.1c0,0,0,0,0,0
	C775.1,512.2,775.1,513.6,775.1,514.9z"/>
<path class="st1" d="M775,519c0-1.4,0.1-2.7,0.1-4.1c0,0,0,0,0,0C775,516.3,775,517.7,775,519C774.9,519,774.9,519,775,519z"/>
<path class="st11" d="M517.9,325.1c-2.1,0.6-4.2,0.8-6.5,0.8c-12-0.4-21.4-10.4-21-22.3c0.4-12,10.4-21.4,22.3-21
	c0,0-0.1,0.4-0.1,0.4c0-1.8,0.2-4,0.3-5.8c0-1,0.1-2,0.1-3c-4.1,0.4-6.8,1-8.1,1.3c0,0,0,0,0,0c-12.6,3.1-22.1,14.3-22.6,27.9
	c-0.5,16.4,12.4,30.1,28.7,30.6c0.3,0,0.5,0,0.8,0c1.7,6,4.5,11.8,6.8,17.3l8,0.3C523.1,343.1,520.1,334.3,517.9,325.1z"/>
</svg>
