<?xml version="1.0" encoding="utf-8"?>
<!-- Generator: Adobe Illustrator 17.1.0, SVG Export Plug-In . SVG Version: 6.00 Build 0)  -->
<!DOCTYPE svg PUBLIC "-//W3C//DTD SVG 1.1//EN" "http://www.w3.org/Graphics/SVG/1.1/DTD/svg11.dtd">
<svg version="1.1" id="Layer_1" xmlns="http://www.w3.org/2000/svg" xmlns:xlink="http://www.w3.org/1999/xlink" x="0px" y="0px"
	 viewBox="0 0 971.6 892.9" enable-background="new 0 0 971.6 892.9" xml:space="preserve">
<rect x="1" fill="#FFC41A" width="971.6" height="892.9"/>
<g>
	<g>
		<g>
			<path fill="#FFC41A" d="M444.6,766.6c170.2,0,308.2-138,308.2-308.2c0-32.8-5.2-64.5-14.7-94.1H151
				c-9.5,29.7-14.7,61.3-14.7,94.1C136.4,628.6,274.4,766.6,444.6,766.6z"/>
		</g>
		<g>
			<path fill="#FFC41A" d="M752.8,458.4c0,170.2-138,308.2-308.2,308.2s-308.2-138-308.2-308.2c0-32.8,5.2-64.5,14.7-94.1
				l-134.4-4.8l2,516.9l932-4.5l-0.8-439.6C949.8,432.3,752.8,425.5,752.8,458.4z"/>
		</g>
	</g>
</g>
<g>
	<path fill="#A52626" d="M348.8,483.1c20.2,13,42.2,23.2,62.2,36.4c20.1,13.2,38.7,30.2,48.1,52.3c11.3,26.7,7.9,57.1,3.4,85.8
		c-9.8,62.6-23.4,124.5-40.7,185.4c-3.1,10.9-20.5,18.7-31.2,22.3c-19,6.4-38.3,12.9-58.3,13.6c-20.3,0.8-40.3-4.3-59.7-10.4
		c-27.4-8.6-54.1-19.1-80-31.5c-22-10.5-43.8-22.7-59.9-41c-14.5-16.3-23.6-36.6-32.5-56.5c-6.2-13.8-12.5-27.9-14.6-42.9
		c-5.4-37.6,15.5-74.7,13.7-112.6c-0.5-11.6-3-24.2,3.1-34.2c2.5-4,6.1-7.2,9.7-10.2c28.6-24,59.4-45.5,91.8-63.9
		c1.1-0.6,2.3-1.6,2-2.8c-0.3-1.2-2.7,0.1-1.5,0.6"/>
	<path fill="#962424" d="M328.2,883c-19.7,0-38.9-5.1-56.6-10.6c-27.5-8.6-54.5-19.2-80.5-31.7c-20.6-9.9-44-22.6-61.1-41.9
		c-15-16.9-24.2-37.5-33.1-57.5c-6.2-13.9-12.7-28.3-14.9-43.9c-3-20.9,1.8-41.7,6.5-61.7c3.9-16.8,8-34.2,7.2-51.3
		c-0.1-2.1-0.2-4.1-0.4-6.3c-0.8-10.2-1.5-20.8,4-30c2.7-4.4,6.3-7.7,10.5-11.2c28.2-23.7,58.6-45,90.6-63.3c0-0.3,0-0.6,0.1-1
		c0.4-2.3,2.7-3.7,4.7-3.8c2.1-0.1,4,1.2,4.6,3.2c0.3,1,0.9,4.5-3.7,7.1c-32.2,18.3-62.9,39.7-91.2,63.5c-3.6,3.1-6.8,5.9-8.9,9.3
		c-4.3,7.1-3.7,16-2.9,25.5c0.2,2.1,0.3,4.4,0.4,6.5c0.8,18.1-3.4,36-7.4,53.4c-4.7,20.3-9.2,39.4-6.4,58.9
		c2.1,14.6,8.3,28.5,14.3,41.9c8.7,19.4,17.7,39.5,31.9,55.5c16.2,18.3,38.8,30.5,58.7,40.1c25.6,12.3,52.3,22.8,79.4,31.3
		c18.4,5.8,38.3,11,58.4,10.2c19.6-0.7,38.8-7.2,57.3-13.4c12.4-4.2,26.4-11.6,28.8-19.8c17.2-60.5,30.9-122.8,40.6-185
		c4.4-28.2,7.8-58-3.2-83.7c-7.9-18.6-23.2-35.1-46.7-50.6c-10.2-6.7-21.2-12.8-31.8-18.7c-10.1-5.6-20.5-11.4-30.4-17.8
		c-1.8-1.1-2.3-3.5-1.1-5.3c1.1-1.8,3.5-2.3,5.3-1.1c9.7,6.3,20,12,30,17.5c10.7,5.9,21.8,12.1,32.3,19c24.8,16.4,41,34,49.5,54
		c11.7,27.6,8.2,58.5,3.7,87.9c-9.7,62.5-23.5,125-40.8,185.9c-3.9,13.5-24.8,21.9-33.7,24.9c-19,6.4-38.7,13-59.4,13.8
		C331,883,329.6,883,328.2,883z"/>
</g>
<g opacity="0.4">
	<g>
		<circle fill="#FFFFFF" cx="452.9" cy="507" r="323.3"/>
	</g>
</g>
<g>
	<path fill="#81E2FC" d="M424,506.8c20,33.2,37.6,67.8,52.8,103.5c8.8,20.7,16.6,44.7,6.6,64.8c-5,10.1-14.2,21.8-7.4,30.8
		c1.8,2.4,4.6,4,6.7,6.2c9.5,9.9-8.2-48.5-11.4-35.2c-23.2,96.5-56.1,143.3-95.4,168.7"/>
	<path fill="#59B8E2" d="M377.9,848.8l-4.1-6.4c20.7-13.4,37.9-31.8,52.5-56.4c16.7-28,30.2-64,41.2-110c1-4.4,3.9-4.9,5-4.9
		c2.2,0,4.1,1.3,6.1,4.7c0.4-0.8,0.8-1.6,1.2-2.4c9.2-18.6,1.8-41.6-6.7-61.6c-15-35.4-32.7-70.1-52.5-103l6.5-3.9
		c20,33.2,37.9,68.2,53,104c9.2,21.6,17.1,46.6,6.5,68c-1,1.9-2.1,3.9-3.1,5.8c-0.3,0.6-0.7,1.2-1,1.8c1.5,3.8,2.9,8.3,4.1,12.6
		c4.2,15.5,2.2,18.1-0.2,19.5c-1.2,0.7-3.7,1.4-6.7-1.7c-0.7-0.8-1.6-1.5-2.5-2.2c-1.5-1.2-3.1-2.5-4.5-4.3
		c-2.5-3.3-3.3-6.7-3.2-10.2c-10.2,37.3-22.4,67.5-36.9,91.9C417.6,815.5,399.6,834.8,377.9,848.8z M478.1,694.3
		c-1.1,3.7-1.1,6.7,0.9,9.3c0.5,0.7,1.3,1.4,2.1,2.1C480.4,702.5,479.3,698.4,478.1,694.3z M473.7,682.6c-0.4,1.7-0.8,3.4-1.3,5
		c0.6-1.3,1.2-2.6,1.8-3.8C474.1,683.5,473.9,683,473.7,682.6z"/>
</g>
<g>
	<path fill="#F2CEB6" d="M289.8,709c20,33.2,11.7-13.8,26.8,21.9c8.8,20.7,176.8-102,176.8-102c-5,10.1-24.2,68.8-17.4,77.8
		c1.8,2.4,4.6,4,6.7,6.2c9.5,9.9-8.2-48.5-11.4-35.2c-23.2,96.5-56.1,143.3-95.4,168.7"/>
	<path fill="#D3957D" d="M377.9,849.5l-4.1-6.4c20.7-13.4,37.9-31.8,52.5-56.4c16.7-28,30.2-64,41.2-110c1.1-4.4,3.9-4.9,5-4.9
		c0.9,0,1.8,0.2,2.6,0.7c0.4-1.7,0.9-3.5,1.4-5.4c2.6-9.7,5.8-19.9,8.6-27.7c-14.1,10.1-40.6,28.8-68.1,47
		c-74.2,48.9-91.9,52.1-98.8,50.2c-3-0.8-4.4-2.8-5-4.3c-2.6-6.2-4.3-9.2-5.3-10.7c-1.3,1.7-3.3,4-6.7,3.8
		c-4.3-0.2-8.5-4.4-14.6-14.5l6.5-3.9c4.8,8,7.3,10.1,8.2,10.6c0.3-0.3,0.6-0.8,0.8-1.1c1.1-1.5,3-4.1,6.3-3.7
		c3.8,0.4,6.6,4.4,11.7,16.4c0.8,0.3,6.4,1.6,31.2-11.6c15.2-8.1,35.1-20.2,59.1-36c41-26.9,80.3-55.6,80.7-55.9l12.6-9.2l-7,14
		c-2.3,4.6-8.3,21.4-12.8,38.5c-1.2,4.5-2.2,8.5-2.9,12c0.1,0.2,0.2,0.4,0.3,0.6c1.9,4.5,3.9,10.3,5.5,16.1
		c4.2,15.5,2.2,18.1-0.2,19.5c-1.2,0.7-3.7,1.4-6.7-1.7c-0.7-0.8-1.6-1.5-2.5-2.2c-1.5-1.2-3.1-2.5-4.5-4.3c-1-1.3-3-4-1.8-15.1
		c-10.5,39.5-23,71.3-38.2,96.8C417.6,816.2,399.6,835.5,377.9,849.5z M478.5,696.3c-0.4,4.8,0,7.2,0.5,8c0.5,0.7,1.3,1.4,2.1,2.1
		C480.5,703.5,479.6,699.9,478.5,696.3z"/>
</g>
<g>
	<path fill="#81E2FC" d="M485.1,615.4l15.7,13.4c-9.1,8.7-20.1,15.3-31,21.8c-10.1,6.1-20.3,12.1-30.4,18.2
		c-0.3,0.2-0.7,0.3-0.9,0.1c-0.3-0.2,0.3-0.7,0.3-0.4l-32.4-6.9"/>
	<path fill="#59B8E2" d="M438.8,672.9c-1.1,0-2.1-0.4-2.7-1l-30.4-6.4l1.6-7.4l31.5,6.7c0.1,0,0.1,0,0.2,0c0,0,0,0,0,0l28.9-17.3
		c9.3-5.6,18.9-11.3,27.2-18.5l-12.4-10.6l4.9-5.8l15.7,13.4c0.8,0.7,1.3,1.7,1.3,2.8c0,1.1-0.4,2.1-1.2,2.9
		c-9.5,9.1-20.8,15.8-31.6,22.3l-30.4,18.2C440.5,672.6,439.6,672.9,438.8,672.9z"/>
</g>
<g>
	<path fill="#D3957D" d="M479.1,537.4c-10.1,15.7-14.1,34.5-17.6,52.8c-8.9,46.3-15.9,95.4,0.4,139.7c17,46.3,56.9,80.3,79.6,124.1
		c0,0,99.6-196,30.2-287.5"/>
	<path fill="#AA5B3F" d="M541.5,862.4l-3.4-6.6c-9.7-18.7-22.8-35.9-35.6-52.6c-16.9-22.2-34.4-45.1-44.2-71.9
		c-16.8-45.7-9.1-97.1-0.6-141.7c3.9-20.3,7.9-38.3,18.1-54.2l6.4,4.1c-9.5,14.7-13.3,32-17.1,51.5c-8.3,43.6-15.9,93.8,0.2,137.7
		c9.4,25.7,26.6,48.2,43.2,69.9c11.4,15,23.2,30.5,32.7,47.1c7.2-15.3,25.2-55.6,37.7-102.2c9.3-34.7,13.9-66.2,13.5-93.5
		c-0.5-33.7-8.5-61-23.8-81.2l6.1-4.6c16.3,21.5,24.9,50.4,25.3,85.8c0.4,28-4.3,60.2-13.8,95.6c-16.1,60.1-41.2,109.7-41.4,110.2
		L541.5,862.4z"/>
</g>
<g>
	<g>
		
			<rect x="202.5" y="781" transform="matrix(0.9926 -0.1215 0.1215 0.9926 -94.3424 34.1447)" fill="#FBFCFA" width="60.5" height="19.3"/>
	</g>
	<g>
		<path fill="#FBFCFA" d="M203.9,807.9c-2,0-3.7-1.5-4-3.5l-2.3-19.2c-0.1-1.1,0.2-2.1,0.8-2.9c0.7-0.8,1.6-1.4,2.7-1.5l60.1-7.4
			c1-0.1,2.1,0.2,2.9,0.8c0.8,0.7,1.4,1.6,1.5,2.7l2.3,19.2c0.3,2.2-1.3,4.2-3.5,4.4l-60.1,7.4C204.3,807.9,204.1,807.9,203.9,807.9
			z M206,788.2l1.4,11.2l52.2-6.4l-1.4-11.2L206,788.2z"/>
	</g>
</g>
<g>
	<g>
		<polygon fill="#FBFCFA" points="351.3,796.6 407.2,804.4 409.2,785.3 353.3,777.5 		"/>
	</g>
	<g>
		<path fill="#FBFCFA" d="M407.2,808.4c-0.2,0-0.4,0-0.6,0l-55.9-7.9c-2.1-0.3-3.6-2.2-3.4-4.4l2-19.1c0.1-1.1,0.7-2.1,1.5-2.7
			c0.9-0.7,1.9-1,3-0.8l55.9,7.9c2.1,0.3,3.6,2.2,3.4,4.4l-2,19.1c-0.1,1.1-0.7,2.1-1.5,2.7C408.9,808.1,408.1,808.4,407.2,808.4z
			 M355.7,793.2l48,6.8l1.2-11.2l-48-6.8L355.7,793.2z"/>
	</g>
</g>
<g>
	<g>
		<circle fill="#CE866A" cx="158.6" cy="306.8" r="21.6"/>
	</g>
</g>
<g>
	<g>
		<g>
			<path fill="#632C1D" d="M276,379.6c-5.8-0.3-11.5-1.2-17-2.9c-1.8-0.5-3.6-1.2-5.3-1.8l-6.9-2.4c-2.1-0.7-3.2-3-2.5-5.1
				c0.7-2.1,3-3.2,5.1-2.5l6.9,2.4c1.7,0.6,3.4,1.2,5,1.7c14.1,4.3,29.8,3.3,43.3-2.7c2-0.9,4.4,0,5.3,2c0.9,2,0,4.4-2,5.3
				C298,378,286.9,380,276,379.6z"/>
		</g>
	</g>
	<g>
		<g>
			<path fill="#AA5B3F" d="M296.3,330.5c-0.7,0-1.4-0.2-2-0.7c-14.7-9.7-30.3-1.5-30.5-1.4c-1.9,1-4.4,0.3-5.4-1.6
				c-1-1.9-0.3-4.4,1.6-5.4c0.8-0.4,20.1-10.5,38.6,1.7c1.8,1.2,2.3,3.7,1.1,5.5C299,329.9,297.6,330.5,296.3,330.5z"/>
		</g>
	</g>
	<g>
		<g>
			<g>
				<g>
					<g>
						<path fill="#231F20" d="M350.8,294.9c-4.1-0.2-7-4.4-6.7-9.8c0.2-5.4,3.5-9.3,7.6-9.1c4.1,0.2,7,4.4,6.7,9.8
							C358.2,291.2,354.9,295.1,350.8,294.9z"/>
					</g>
					<g>
						<path fill="#231F20" d="M350.8,295.4c-4.4-0.2-7.5-4.6-7.2-10.3c0.3-5.7,3.7-9.8,8.1-9.6c4.4,0.2,7.5,4.6,7.2,10.3
							S355.2,295.6,350.8,295.4z M351.7,276.5c-3.8-0.2-6.8,3.5-7,8.7c-0.2,5.1,2.5,9.1,6.2,9.2c3.8,0.2,6.8-3.5,7-8.7
							C358.1,280.7,355.5,276.7,351.7,276.5z"/>
					</g>
				</g>
			</g>
			<g>
				<g>
					<g>
						<path fill="#231F20" d="M241.2,290.7c-4.1-0.2-7-4.4-6.7-9.8c0.2-5.4,3.5-9.3,7.6-9.1s7,4.4,6.7,9.8
							C248.6,286.9,245.3,290.9,241.2,290.7z"/>
					</g>
					<g>
						<path fill="#231F20" d="M241.2,291.2c-4.4-0.2-7.5-4.6-7.2-10.3c0.3-5.7,3.7-9.8,8.1-9.6c4.4,0.2,7.5,4.6,7.2,10.3
							C249.1,287.2,245.6,291.4,241.2,291.2z M242.1,272.3c-3.8-0.2-6.8,3.5-7,8.7c-0.2,5.1,2.5,9.1,6.2,9.2c3.8,0.2,6.8-3.5,7-8.7
							C248.5,276.4,245.9,272.5,242.1,272.3z"/>
					</g>
				</g>
			</g>
		</g>
		<g>
			<g>
				<circle fill="none" cx="338.9" cy="277" r="2.8"/>
			</g>
		</g>
		<g>
			<g>
				<circle fill="none" cx="229.4" cy="272.1" r="2.8"/>
			</g>
		</g>
	</g>
</g>
<g>
	<g>
		<path fill="#80DBF5" d="M312.4,687.4c0,0,2.2,113.2-8.8,177.1"/>
	</g>
	<g>
		<path fill="#59B8E2" d="M307.6,865.2l-7.9-1.4c10.8-62.8,8.7-175.2,8.7-176.4l8-0.2c0,0.3,0.5,28.8-0.3,64.8
			C315.4,785.3,313.3,832,307.6,865.2z"/>
	</g>
</g>
<g>
	<g>
		<path fill="#80DBF5" d="M312.4,687.4c0,0-2.9-70.7-18.8-134.6"/>
	</g>
	<g>
		<path fill="#59B8E2" d="M308.5,687.6c0-0.7-3.1-71-18.6-133.8l7.7-1.9c15.8,63.6,18.8,134.7,18.9,135.4L308.5,687.6z"/>
	</g>
</g>
<g>
	<g>
		<path fill="#231F20" d="M662.7,114.6c19.3-0.1,33.5,3.6,33.5,3.6C844,153.7,802.1,364.9,802.1,364.9
			c-17.8,73.5-101.8,87.6-101.8,87.6c42-14.5,31.7-151.1,31.7-151.1c-7.4-134.7-140.2-143.9-140.2-143.9l-44.7,233.6
			c2.1,29.6,40.2,65.7,40.2,65.7c-49.9,0.2-90.8-59.7-90.8-59.7c-34.7-46.8-16.7-146.8-6.5-190.7c5-21.7,16.5-41.4,33.4-55.9
			c19.7-17,39.5-21.1,54-21.2c13.5-0.1,22.4,3.4,22.4,3.4C619.9,118.4,643.8,114.7,662.7,114.6 M662.7,106.6
			c-24.8,0.1-46.8,6.1-64.2,17.4c-4.4-1.2-11.8-2.7-21.1-2.6c-14.8,0.1-37.1,4.1-59.2,23.1c-18,15.5-30.4,36.2-36,60.1
			c-5.5,23.6-12.4,59.4-13.8,95.7c-1.8,45.5,5.5,79.6,21.6,101.4c2.8,4.1,44.5,63.3,97.4,63.1c3.3,0,6.2-2,7.4-5
			c1.2-3,0.4-6.5-1.9-8.7c-9.8-9.3-35.4-37.9-37.7-59.5l43.1-225.2c11.2,1.8,34.3,6.7,57.5,19.8c18.6,10.5,33.7,24.2,44.8,40.7
			c14,20.6,21.9,45.8,23.4,74.9c0,0.1,0,0.1,0,0.2c0,0.3,2.5,34.1-0.1,69.1c-1.5,20.2-4.4,36.7-8.6,49.2
			c-3.2,9.6-8.8,21.6-17.7,24.7c-3.9,1.4-6.1,5.5-5.1,9.5c0.9,3.6,4.2,6,7.8,6c0.4,0,0.9,0,1.3-0.1c0.9-0.2,22.6-3.9,46.7-17.1
			c32.4-17.7,53.7-44.2,61.5-76.5c0-0.1,0-0.2,0.1-0.3c0.4-2.2,10.7-54.8,2.6-112.7c-4.8-34.5-15.2-63.6-30.8-86.5
			c-19.8-29.1-47.9-48.2-83.6-56.8C696.9,110.1,682.3,106.5,662.7,106.6L662.7,106.6z"/>
	</g>
	<g>
		<ellipse fill="#403942" cx="636.8" cy="376.4" rx="122.7" ry="89.6"/>
	</g>
</g>
<g>
	<g>
		<path fill="#403942" d="M591.9,157.5c0,0,132.8,9.3,140.1,143.9c0,0,10.2,136.6-31.8,151.1c0,0,84-14,101.8-87.5
			c0,0,42-211.2-105.7-246.8c0,0-55.9-14.4-96.4,14.6c0,0-38.3-15-76.4,17.7c-16.9,14.5-28.4,34.2-33.4,55.9
			c-10.2,43.9-28.3,143.9,6.4,190.7c0,0,40.9,60,90.8,59.8c0,0-38.1-36.1-40.2-65.7"/>
	</g>
</g>
<g>
	<g>
		<path fill="#D3957D" d="M540.8,349.7c0,3.9,35.7,54.3,40.7,86.4c5.2,33.6-18.5,45.5-18.5,45.5l-25.7,44.7l97.1,86.1l98-44.1
			l-42.8-106.3c0,0-13.3-58.4,38.4-123.1"/>
	</g>
	<g>
		<path fill="#AA5B3F" d="M633.6,617l-101.5-90l29.4-46.6l0.8-2.9c0.5-0.2,22.6-12.6,15.3-40.7c-5.6-21.7-22.6-54.3-32.9-71.7
			c-6.7-11.3-7.8-13.3-7.8-15.3h8c0-0.4-0.1-0.7-0.1-0.7c0.4,1.3,3.7,6.7,6.8,12c11.3,19,28.4,51.3,33.9,74.5
			c7.2,30.5-13.3,44.7-18,47l-25,43l92.6,82.1l92.2-41.5l-41.5-103l-0.1-0.3c-0.1-0.6-3.5-15.6-0.3-38.7
			c2.9-21.2,12.1-53.6,39.4-87.8l6.2,5c-26,32.6-34.8,63.4-37.7,83.5c-2.8,20.1-0.4,33.9,0,36l44.1,109.5L633.6,617z"/>
	</g>
</g>
<g>
	<g>
		<g>
			<path fill="#D3957D" d="M630.2,432.5c-52.5-1.7-97.8-43-113.9-103.3c-1.2,0.1-2.4,0.2-3.6,0.1c-14.1-0.4-25.2-12.3-24.8-26.4
				c0.4-12.8,10.1-23.1,22.4-24.6c0-0.6,0-1.2,0-1.8c1.3-39.8,15.3-75.4,39.6-100.2c23.7-24.2,55.5-36.9,89.5-35.8
				c34,1.1,65,15.8,87.1,41.4c22.7,26.3,34.4,62.7,33.2,102.5c0,0.6,0,1.2-0.1,1.8c12.2,2.3,21.2,13.2,20.8,26
				c-0.4,14.1-12.3,25.2-26.4,24.8c-1.2,0-2.4-0.2-3.6-0.4C730.5,395.8,682.6,434.2,630.2,432.5z"/>
		</g>
	</g>
	<g>
		<g>
			<g>
				<path fill="#AA5B3F" d="M639.3,144.6c66.7,2.1,119,58.1,116.4,139.8c-0.1,1.8-0.2,3.6-0.3,5.5c0,0,0.1,0,0.1,0
					c11.9,0.4,21.3,10.4,20.9,22.3c-0.4,11.9-10.4,21.3-22.3,20.9c-2.2-0.1-4.4-0.5-6.4-1.2c-18,57.8-64.4,98.3-117.5,96.6
					c-53-1.7-96.8-45.1-111.1-103.9c-2,0.6-4.2,0.8-6.4,0.8c-11.9-0.4-21.3-10.4-20.9-22.3c0.4-11.9,10.4-21.3,22.3-20.9
					c0,0-1.1-0.8-1-0.8c0-1.8,0.2-2.9,0.2-4.8C515.9,194.8,572.7,142.4,639.3,144.6 M639.6,136.6c-35.2-1.1-68,12-92.5,37
					c-12.3,12.5-22,27.6-28.9,44.7c-7,17.4-11,36.4-11.8,56.7c-12.6,3.1-22.1,14.3-22.5,27.8c-0.5,16.3,12.3,30,28.7,30.5
					c0.3,0,0.5,0,0.8,0c17.2,60.3,63.5,101.4,116.8,103.1c53.3,1.7,102.1-36.4,123.1-95.5c0.3,0,0.5,0,0.8,0
					c16.3,0.5,30-12.3,30.5-28.7c0.4-13.6-8.4-25.3-20.7-29.2c0.5-20.3-2.2-39.6-8.2-57.4c-5.8-17.5-14.6-33.1-26-46.4
					C706.7,152.9,674.7,137.7,639.6,136.6L639.6,136.6z"/>
			</g>
		</g>
	</g>
</g>
<g>
	<g>
		<path fill="#CFAE84" d="M545.3,403.1"/>
	</g>
</g>
<g>
	<g>
		<path fill="#403942" d="M591.8,157.5c0,0,132.8,9.2,140.2,143.9c0,0,10.2,136.5-31.7,151.1c0,0,84-14.1,101.8-87.6
			c0,0,41.9-211.2-105.8-246.7c0,0-55.9-14.4-96.4,14.7c0,0-41-9.2-85.5,66.5l-24.3,77.1l23.7,6.1
			C513.8,282.5,511.6,193.1,591.8,157.5z"/>
	</g>
</g>
<g>
	<g>
		<path fill="#81E2FC" d="M178.8,860.5H396c16.4-25.5,27.5-59.2,33.2-100.2l0-0.1c11.1-66.3,10.4-151.1,4-200.6
			c-2.7-21.8-6.9-47.1-9.4-52.3c-25.4-6.3-47.3-7.9-47.5-7.9l-1-0.1l-0.8-0.5c-27.9-17.7-60.3-26.7-96.1-26.7
			c-61.6,0-112.7,26.9-113.2,27.2l-1.3,0.7l-13,1.7c-42.7,7.3-23.6,7-28.1,7c-12.2,0,0,0-4.5,1.5c-5.2,26.5,0.2,60.5,0.6,68.2
			c7.6,10,8,27.9,8.4,43.8c0.2,6.5,0.3,12.7,1,17l11.4,36.2l-17-27.8c-0.4-0.7-0.8-1.5-1.1-2.3C132.4,722.8,172.2,841.3,178.8,860.5
			z"/>
		<path fill="#59B8E2" d="M398.1,864.3H176.1l-0.9-2.6c-7.7-22.5-46.6-138.7-57.3-216.1l-4.9-35.4l12.2,33.5
			c0.2,0.6,0.5,1.2,0.8,1.7l0.8,1.3l-2.2-7.1c-0.7-4.5-0.9-10.8-1.1-17.5c-0.4-15.3-0.8-32.6-7.7-41.7l-0.7-0.9l-0.1-1.2
			c-0.1-1.3-0.3-3.7-0.6-6.6c-1.3-12.7-4.1-38.9-0.2-60.7c-1-1.2-0.9-2.6-0.9-2.8c0.3-3.5,3.8-3.5,4.9-3.5c0.5,0,1.1,0,1.9,0
			c1.6-1.1,3.9-1.7,6.3-2.3c4.8-1.2,12.8-2.8,23.7-4.6l0.1,0l12.3-1.6l0.7-0.4c0.5-0.3,52.5-27.6,115-27.6
			c36.5,0,69.5,9.2,98.1,27.3l0.1,0c0.2,0,22.4,1.7,48.1,8l1.7,0.4l0.8,1.6c3.2,6.6,7.6,35.6,9.8,53.5c6.4,49.8,7.1,135-4,201.7
			l0,0.1c-5.7,41.5-17.1,75.7-33.7,101.7L398.1,864.3z M181.5,856.7h212.4c15.5-24.8,26.1-57.4,31.5-96.9l0-0.2
			c11-65.9,10.3-150.3,4-199.5c-2.6-21.4-6.3-42.7-8.5-49.6c-24.1-5.8-44.7-7.4-44.9-7.4l-2-0.1l-1.7-1c-27.3-17.3-59-26.1-94-26.1
			c-60.4,0-110.9,26.4-111.4,26.7l-1.9,1l-13.6,1.8c-14.7,2.5-21.4,4-24.5,4.8c-0.6,1.2-1.8,2.2-3.6,2.2l-0.6,0c-0.3,0-0.6,0-0.9,0
			c0,0-0.1,0.1-0.1,0.1c-3.6,20.7-1,46.1,0.3,58.5c0.3,2.5,0.5,4.4,0.6,5.9c7.6,11.1,8.1,29.1,8.5,45.1c0.2,6.3,0.3,12.2,0.9,16.2
			l20.7,65.6l-24.1-39.4C134.6,696,149,761,181.5,856.7z"/>
	</g>
</g>
<g>
	<g>
		<g>
			<path fill="#F2CEB6" d="M188.7,359.5c0,3.9,35.7,54.3,40.7,86.4c5.2,33.6-12.3,39.4-12.3,39.4l66.1,67.5l60.4-33.2l-6.2-47.9
				c0,0-13.3-58.4,38.4-123.1"/>
			<path fill="#D3957D" d="M282.6,557.5l-72.4-73.9l5.8-1.9c0.5-0.2,14.3-5.7,9.7-35.2c-3.4-22.1-22.6-54.4-32.9-71.7
				c-6.6-11.1-7.8-13.2-7.8-15.2h7.6c0-0.4-0.1-0.7-0.1-0.7c0.4,1.3,3.7,6.7,6.8,12c10.6,17.8,30.3,50.9,33.9,74.5
				c3.9,25.1-4.3,36.2-10,40.8l60.8,62l55.6-30.6l-5.8-45.1c-0.4-1.9-3.2-16.5-0.2-38.5c2.9-21.2,12.1-53.6,39.3-87.7l6,4.7
				c-49.9,62.6-37.7,119.3-37.6,119.9l0.1,0.4l6.5,50.5L282.6,557.5z"/>
		</g>
	</g>
	<g>
		<g>
			<g>
				<path fill="#F2CEB6" d="M278.1,442.3c-52.5-1.7-97.8-43-113.9-103.3c-1.2,0.1-2.4,0.2-3.6,0.1c-14.1-0.4-25.2-12.3-24.8-26.4
					c0.4-12.8,10.1-23.1,22.4-24.6c0-0.6,0-1.2,0-1.8c1.3-39.8,15.3-75.4,39.6-100.2c23.7-24.2,55.5-36.9,89.5-35.8
					c34,1.1,65,15.8,87.1,41.4c22.7,26.3,34.4,62.7,33.2,102.5c0,0.6,0,1.2-0.1,1.8c12.2,2.3,21.2,13.2,20.8,26
					c-0.4,14.1-12.3,25.2-26.4,24.8c-1.2,0-2.4-0.2-3.6-0.4C378.5,405.6,330.6,444,278.1,442.3z"/>
				<path fill="#D3957D" d="M281.4,446.2c-1.1,0-2.3,0-3.4-0.1c-26.6-0.8-51.9-11.4-73-30.6c-20.3-18.4-35.3-43.4-43.6-72.5
					c-0.3,0-0.6,0-0.9,0c-16.2-0.5-29-14.1-28.5-30.3c0.4-13.2,9.9-24.6,22.5-27.7c1.6-40.2,16-76.2,40.7-101.4
					c23.4-23.9,54.7-37,88.2-37c1.4,0,2.8,0,4.1,0.1c35.1,1.1,67,16.3,89.8,42.8c23,26.7,35.1,63.6,34.1,103.8
					c12.4,3.9,21.1,15.8,20.7,29c-0.5,16-13.4,28.5-29.4,28.5c-0.3,0-0.6,0-0.9,0c-0.3,0-0.6,0-0.9,0c-9.9,27.8-26,51.4-46.8,68.5
					C332.6,436.8,307.4,446.2,281.4,446.2z M167,334.9l0.8,3.2c7.7,28.9,22.3,53.7,42.2,71.8c19.8,18,43.4,27.9,68.2,28.7
					c25.4,0.8,50-8,71.1-25.3c20.4-16.7,36.1-40.2,45.4-67.9l1-3.1l3.2,0.6c1,0.2,2.1,0.3,3.1,0.3c12,0.4,22.1-9.2,22.5-21.1
					c0.3-10.6-7.3-20.1-17.7-22.1l-3.2-0.6l0.1-3.3c0-0.6,0-1.2,0.1-1.7c1.2-38.8-10.2-74.3-32.3-99.9
					c-21.4-24.8-51.3-39.1-84.3-40.1c-1.3,0-2.6-0.1-3.9-0.1c-31.4,0-60.9,12.3-82.8,34.8c-23.6,24.1-37.3,58.8-38.5,97.6
					c0,0.6,0,1.1,0,1.7l-0.1,3.3l-3.3,0.4c-10.5,1.3-18.8,10.3-19.1,21c-0.4,12,9.1,22.1,21.1,22.5c1,0,2.1,0,3.1-0.1L167,334.9z"/>
			</g>
		</g>
	</g>
	<g>
		<g>
			<g>
				<path fill="#D3957D" d="M285.4,391.7c-5.8,0-11.5-0.6-17.1-2c-1.8-0.5-3.6-1-5.4-1.5l-7-2.1c-2.1-0.6-3.3-2.8-2.7-5
					c0.6-2.1,2.8-3.3,5-2.7l7,2.1c1.8,0.5,3.4,1,5.1,1.4c14.3,3.6,30,1.8,43.1-4.9c2-1,4.4-0.2,5.4,1.7c1,2,0.2,4.4-1.7,5.4
					C307.2,389.1,296.3,391.7,285.4,391.7z"/>
			</g>
		</g>
		<g>
			<g>
				<path fill="#D3957D" d="M303.1,341.7c-0.7,0-1.4-0.2-2-0.6c-15-8.9-29.9-0.2-30.5,0.2c-1.9,1.1-4.3,0.5-5.5-1.4
					c-1.1-1.9-0.5-4.3,1.4-5.5c0.8-0.5,19.5-11.5,38.7-0.2c1.9,1.1,2.5,3.6,1.4,5.5C305.8,341,304.5,341.7,303.1,341.7z"/>
			</g>
		</g>
		<g>
			<g>
				<g>
					<g>
						<path fill="#231F20" d="M339.8,301c-4.1,0-7.2-4-7.2-9.4c0-5.4,3-9.5,7.1-9.5c4.1,0,7.2,4,7.2,9.4
							C347,296.9,343.9,301,339.8,301z"/>
						<path fill="#231F20" d="M339.8,307.2c-7.6,0-13.3-6.7-13.4-15.6c0-3.9,1.1-7.7,3.2-10.5c2.5-3.3,6.1-5.2,10-5.2
							c7.6,0,13.4,6.7,13.4,15.6C353.2,300.4,347.5,307.2,339.8,307.2L339.8,307.2z M339.8,288.3c-0.3,0.3-1,1.4-1,3.2
							c0,1.8,0.7,2.9,1,3.2c0.3-0.3,1-1.4,1-3.2C340.7,289.7,340.1,288.6,339.8,288.3z"/>
					</g>
					<g>
						<path fill="#231F20" d="M339.8,301.5c-4.4,0-7.7-4.2-7.7-9.9c0-5.7,3.2-10,7.6-10c4.4,0,7.7,4.2,7.7,9.9
							C347.5,297.2,344.2,301.5,339.8,301.5z M339.7,282.6c-3.8,0-6.6,3.9-6.6,9c0,5.1,2.9,8.9,6.7,8.9c3.8,0,6.6-3.9,6.6-9
							C346.4,286.4,343.5,282.6,339.7,282.6z"/>
						<path fill="#231F20" d="M339.8,307.7c-7.9,0-13.8-6.9-13.9-16.1c0-9.2,5.9-16.2,13.8-16.2c7.9,0,13.9,6.9,13.9,16.1
							C353.7,300.7,347.7,307.7,339.8,307.7L339.8,307.7z M339.8,289.2c-0.2,0.5-0.5,1.2-0.5,2.3c0,1.1,0.2,1.9,0.5,2.3
							c0.2-0.5,0.5-1.2,0.5-2.3C340.2,290.4,340,289.7,339.8,289.2z"/>
					</g>
				</g>
			</g>
			<g>
				<g>
					<g>
						<path fill="#231F20" d="M230.2,302.3c-4.1,0-7.2-4-7.2-9.4c0-5.4,3-9.5,7.1-9.5c4.1,0,7.2,4,7.2,9.4
							C237.3,298.2,234.2,302.2,230.2,302.3z"/>
						<path fill="#231F20" d="M230.1,308.4c-7.6,0-13.3-6.7-13.4-15.6c0-8.9,5.7-15.7,13.3-15.7c7.6,0,13.4,6.7,13.4,15.6
							C243.5,301.6,237.8,308.4,230.1,308.4L230.1,308.4z M230.1,289.6c-0.3,0.3-1,1.4-1,3.2c0,1.8,0.7,2.9,1,3.2
							c0.3-0.3,1-1.4,1-3.2C231.1,290.9,230.4,289.9,230.1,289.6z"/>
					</g>
					<g>
						<path fill="#231F20" d="M230.2,302.8c-4.4,0-7.7-4.2-7.7-9.9c0-5.7,3.2-10,7.6-10c4.4,0,7.7,4.2,7.7,9.9
							C237.8,298.4,234.5,302.7,230.2,302.8z M230.1,283.8c-3.8,0-6.6,3.9-6.6,9c0,5.1,2.9,8.9,6.7,8.9c3.8,0,6.6-3.9,6.6-9
							C236.7,287.7,233.9,283.8,230.1,283.8z"/>
						<path fill="#231F20" d="M230.1,308.9c-7.9,0-13.8-6.9-13.9-16.1c0-9.2,5.9-16.2,13.8-16.2c7.9,0,13.9,6.9,13.9,16.1
							C244,301.9,238.1,308.9,230.1,308.9L230.1,308.9z M230.1,290.5c-0.2,0.5-0.5,1.2-0.5,2.3c0,1.1,0.2,1.9,0.5,2.3
							c0.2-0.5,0.5-1.2,0.5-2.3C230.6,291.7,230.3,290.9,230.1,290.5z"/>
					</g>
				</g>
			</g>
			<g>
				<g>
					<circle fill="#231F20" cx="342.5" cy="288.8" r="2.8"/>
					<path fill="#231F20" d="M342.5,297.7c-4.9,0-8.9-4-9-8.9c0-4.9,4-9,8.9-9c5,0,9,4,9,8.9c0,2.4-0.9,4.6-2.6,6.3
						C347.2,296.8,345,297.7,342.5,297.7L342.5,297.7z M342.5,285.4c-0.9,0-1.8,0.4-2.4,1c-0.6,0.6-1,1.5-1,2.4
						c0,1.9,1.5,3.4,3.4,3.4c1.9,0,3.4-1.5,3.4-3.4C345.9,286.9,344.4,285.4,342.5,285.4l0,6.2L342.5,285.4z"/>
				</g>
			</g>
			<g>
				<g>
					<circle fill="#231F20" cx="232.9" cy="289.3" r="2.8"/>
					<path fill="#231F20" d="M232.9,298.3c-4.9,0-8.9-4-9-8.9c0-2.4,0.9-4.6,2.6-6.3c1.7-1.7,3.9-2.6,6.3-2.7c5,0,9,4,9,8.9
						C241.9,294.2,237.9,298.3,232.9,298.3L232.9,298.3z M232.9,285.9c-1.9,0-3.4,1.5-3.4,3.4c0,1.9,1.5,3.4,3.4,3.4
						c0.9,0,1.8-0.4,2.4-1c0.6-0.6,1-1.5,1-2.4C236.3,287.4,234.7,285.9,232.9,285.9l0,6.2L232.9,285.9z"/>
				</g>
			</g>
		</g>
	</g>
	<g>
		<g>
			<path fill="#CFAE84" d="M193.3,412.9"/>
		</g>
	</g>
</g>
<g>
	<g>
		<g>
			<path fill="#B53D3A" d="M405.1,256.4c-104.7-43.2-157-33.3-249.1,1.1c-3.2,1.2-5.8,1.6-5.1-1.7l19.5-104.8c0.4-1.9,1.4-3.5,3-4.6
				c10.6-7.3,54.6-35.3,111.6-37.6c0,0,61.1,4,105.2,30.9c1.8,1.1,3.1,3,3.4,5.1l16.3,103.6C410.4,252,408.3,257.7,405.1,256.4z"/>
			<path fill="#962424" d="M152.5,262.2c-2.4,0-3.7-1.2-4.3-1.9c-1.1-1.3-1.5-3.1-1.1-5.3l19.5-104.8c0.5-2.9,2.2-5.3,4.5-7
				c12.1-8.4,56.2-36,113.6-38.2l0.2,0l0.2,0c2.5,0.2,62.6,4.3,107,31.5c2.8,1.7,4.7,4.5,5.2,7.8L413.6,248
				c0.4,2.9-0.3,7.3-2.7,10.1c-1.9,2.2-4.7,3-7.3,1.9c-47.6-19.6-84.6-28.4-119.9-28.4c-39.6,0-76.3,10.8-126.4,29.6
				C155.3,261.9,153.8,262.2,152.5,262.2z M284.9,112.7c-55.2,2.2-97.6,28.8-109.3,36.9c-0.7,0.5-1.2,1.3-1.4,2.1l-19,102.1
				c50.7-18.9,88-29.9,128.6-29.9c36.1,0,73.7,8.8,121.7,28.5c0.4-0.9,0.7-2.3,0.6-3.3l-16.3-103.6c-0.2-1-0.7-1.9-1.6-2.4
				C346.6,117.7,288.7,113,284.9,112.7z"/>
		</g>
		<g>
			<path fill="#B53D3A" d="M207.6,234.9c0-41.6,11-76.6,15.6-89.7c1.3-3.5,3.7-6.4,7-8.2l50.6-27.9l50.8,26.2c3.9,2,6.7,5.5,7.8,9.8
				c4.1,16.1,13.9,58.8,13.9,100.9"/>
			<path fill="#962424" d="M353.2,249.7c-2.1,0-3.8-1.7-3.8-3.8c0-41.5-9.7-83.7-13.8-99.9c-0.8-3.2-2.9-5.8-5.8-7.3l-49-25.2
				L232,140.4c-2.4,1.3-4.3,3.5-5.2,6.1c-4.6,12.9-15.4,47.4-15.4,88.4c0,2.1-1.7,3.8-3.8,3.8s-3.8-1.7-3.8-3.8
				c0-42.1,11.1-77.6,15.9-90.9c1.6-4.4,4.7-8,8.7-10.2l50.6-27.9c1.1-0.6,2.5-0.6,3.6-0.1l50.8,26.2c4.8,2.5,8.4,6.9,9.7,12.2
				c4.2,16.5,14,59.4,14,101.8C357,248,355.3,249.7,353.2,249.7z"/>
		</g>
	</g>
	<g>
		<path fill="#403942" d="M152.1,259c21.8-8.3,83.9-14,142.5-14c58.1,0,96.3,5.7,118.4,13.8c0,0,38.5-8.8,40-16.2
			c2.6-12.7-71.6-20.7-150.2-20.7C170.9,221.9,144.3,256.1,152.1,259z"/>
		<path fill="#962424" d="M152.2,263l-1.3-0.5c-2.7-1-4.2-3.6-3.6-6.6c1.1-6.1,11-15.4,35.7-23.5c36.4-11.9,85.3-14.4,119.9-14.4
			c50.8,0,140,4,152.3,19c2,2.4,2,4.7,1.7,6.3c-1.2,6-11.8,10.1-23.1,13.7c-9.8,3.1-19.3,5.3-19.7,5.4l-1.1,0.3l-1.1-0.4
			c-16.9-6.2-50.9-13.6-117.1-13.6c-59.7,0-120.4,5.9-141.1,13.8L152.2,263z M294.6,241.1c52.6,0,93.6,4.7,118.7,13.6
			c17.4-4.1,33.3-9.8,35.9-12.9c-0.9-1.2-7.2-6.7-45.6-11.2c-27.4-3.2-63.2-5-100.7-5c-96.1,0-134,18.4-144.7,27.4
			C184.2,246,239,241.1,294.6,241.1z"/>
	</g>
</g>
<g>
	<g>
		<path fill="#B53D3A" d="M223.3,472.9c0,0,17.4,54.8,74.6,71.6c0,0,32.8-17.1,47.3-69.6c0,0,10.3,8.1,16.8,12.2
			c0,0-15.6,61.1-63.3,81.1c0,0-82.5-25.7-94.1-89C204.5,479.1,210.2,475.7,223.3,472.9z"/>
		<path fill="#962424" d="M298.6,572c-0.4,0-0.8-0.1-1.1-0.2c-0.9-0.3-21.4-6.8-43.6-21.2c-29.8-19.4-48.1-43.8-53.1-70.7
			c-0.3-1.6,0.4-3.1,1.8-3.9c0.3-0.2,6.4-3.8,19.9-6.7c1.9-0.4,3.8,0.7,4.4,2.6c0.2,0.5,17.3,52.1,70.4,68.6
			c6-3.8,31.9-22.1,44.1-66.5c0.3-1.2,1.3-2.2,2.5-2.6c1.2-0.4,2.5-0.2,3.5,0.6c0.1,0.1,10.2,8,16.4,11.9c1.4,0.9,2.1,2.6,1.7,4.2
			c-0.7,2.6-16.6,63.1-65.5,83.6C299.6,571.9,299.1,572,298.6,572z M208.9,481.3c12.1,54.1,79.3,79.3,89.6,82.8
			c22.9-10.1,37.9-30.4,46.4-45.8c7.2-12.9,11.1-24.5,12.6-29.5c-3.5-2.3-7.3-5.2-10.3-7.4c-15.4,49.3-46.3,65.8-47.6,66.5
			c-0.9,0.5-1.9,0.6-2.8,0.3c-30.5-9-49.9-28.6-60.7-43.5c-8.5-11.7-13.2-22.1-15.2-27.3C215.1,478.8,211.1,480.3,208.9,481.3z"/>
	</g>
</g>
<g>
	<path fill="#F2CEB6" d="M225.9,370.3c0,0,14.8,26.6,60,26.6c0,0,41.1,1.1,57.3-26.6"/>
	<path fill="#D3957D" d="M286.7,400.7c-0.4,0-0.7,0-0.9,0c-46.9,0-62.7-27.4-63.3-28.6c-1-1.8-0.4-4.2,1.5-5.2
		c1.8-1,4.1-0.4,5.2,1.5c0.6,1.1,14.5,24.7,56.7,24.7l0.1,0c0.4,0,39.1,0.7,53.9-24.7c1.1-1.8,3.4-2.4,5.2-1.4
		c1.8,1.1,2.4,3.4,1.4,5.2C330.6,399.5,293.2,400.7,286.7,400.7z"/>
</g>
<g>
	<path fill="#9E4F4F" d="M632.5,393.7c-0.4,0-0.7,0-0.9,0c-46.9,0-62.7-27.4-63.3-28.6c-1-1.8-0.4-4.2,1.5-5.2
		c1.8-1,4.1-0.4,5.2,1.5c0.6,1.1,14.5,24.7,56.7,24.7l0.1,0c0.4,0,39.1,0.7,53.9-24.7c1.1-1.8,3.4-2.4,5.2-1.4
		c1.8,1.1,2.4,3.4,1.4,5.2C676.3,392.5,639,393.7,632.5,393.7z"/>
</g>
<g>
	<circle fill="#FFFFFF" cx="229.8" cy="287.3" r="4.4"/>
	<path fill="#FFFFFF" d="M229.8,292.7c-3,0-5.4-2.4-5.4-5.4s2.4-5.4,5.4-5.4c3,0,5.4,2.4,5.4,5.4S232.7,292.7,229.8,292.7z
		 M229.8,283.8c-1.9,0-3.5,1.6-3.5,3.5s1.6,3.5,3.5,3.5c1.9,0,3.5-1.6,3.5-3.5S231.7,283.8,229.8,283.8z"/>
</g>
<g>
	<circle fill="#FFFFFF" cx="340.6" cy="286.7" r="4.4"/>
	<path fill="#FFFFFF" d="M340.6,292.1c-3,0-5.4-2.4-5.4-5.4c0-3,2.4-5.4,5.4-5.4c3,0,5.4,2.4,5.4,5.4
		C346,289.7,343.6,292.1,340.6,292.1z M340.6,283.2c-1.9,0-3.5,1.6-3.5,3.5c0,1.9,1.6,3.5,3.5,3.5c1.9,0,3.5-1.6,3.5-3.5
		C344.1,284.8,342.6,283.2,340.6,283.2z"/>
</g>
<g>
	<g>
		<g>
			<g>
				<path fill="#D3957D" d="M629.8,381c-5.8,0-11.5-0.6-17.1-2c-1.8-0.5-3.6-1-5.4-1.5l-7-2.1c-2.1-0.6-3.3-2.8-2.7-5
					c0.6-2.1,2.8-3.3,5-2.7l7,2.1c1.8,0.5,3.4,1,5.1,1.4c14.3,3.6,30,1.8,43.1-4.9c2-1,4.4-0.2,5.4,1.7c1,2,0.2,4.4-1.7,5.4
					C651.7,378.3,640.7,380.9,629.8,381z"/>
			</g>
		</g>
		<g>
			<g>
				<path fill="#AA5B3F" d="M647.6,330.9c-0.7,0-1.4-0.2-2-0.6c-15-8.9-29.9-0.2-30.5,0.2c-1.9,1.1-4.3,0.5-5.5-1.4
					s-0.5-4.3,1.4-5.5c0.8-0.5,19.5-11.5,38.7-0.2c1.9,1.1,2.5,3.6,1.4,5.5C650.3,330.2,649,330.9,647.6,330.9z"/>
			</g>
		</g>
		<g>
			<g>
				<g>
					<g>
						<path fill="#231F20" d="M684.3,290.2c-4.1,0-7.2-4-7.2-9.4c0-5.4,3-9.5,7.1-9.5s7.2,4,7.2,9.4
							C691.4,286.1,688.4,290.2,684.3,290.2z"/>
						<path fill="#231F20" d="M684.2,296.4c-7.6,0-13.3-6.7-13.4-15.6c0-8.9,5.7-15.7,13.3-15.7c7.6,0,13.4,6.7,13.4,15.6
							C697.6,289.6,691.9,296.4,684.2,296.4L684.2,296.4z M684.2,277.6c-0.3,0.3-1,1.4-1,3.2c0,1.8,0.7,2.9,1,3.2
							c0.3-0.3,1-1.4,1-3.2C685.2,278.9,684.5,277.9,684.2,277.6z"/>
					</g>
					<g>
						<path fill="#231F20" d="M684.3,290.7c-4.4,0-7.7-4.2-7.7-9.9c0-5.7,3.2-10,7.6-10s7.7,4.2,7.7,9.9
							C691.9,286.4,688.6,290.7,684.3,290.7z M684.2,271.8c-3.8,0-6.6,3.9-6.6,9c0,5.1,2.9,8.9,6.7,8.9c3.8,0,6.6-3.9,6.6-9
							C690.9,275.6,688,271.8,684.2,271.8z"/>
						<path fill="#231F20" d="M684.2,296.9c-7.9,0-13.8-6.9-13.9-16.1c0-4.1,1.2-8,3.4-10.9c2.6-3.4,6.3-5.3,10.3-5.3
							c7.9,0,13.9,6.9,13.9,16.1C698.1,289.9,692.2,296.9,684.2,296.9L684.2,296.9z M684.2,278.4c-0.2,0.5-0.5,1.2-0.5,2.3
							c0,1.1,0.2,1.9,0.5,2.3c0.2-0.5,0.5-1.2,0.5-2.3C684.7,279.7,684.4,278.9,684.2,278.4z"/>
					</g>
				</g>
			</g>
			<g>
				<g>
					<g>
						<path fill="#231F20" d="M574.6,291.5c-4.1,0-7.2-4-7.2-9.4c0-5.4,3-9.5,7.1-9.5c4.1,0,7.2,4,7.2,9.4
							C581.7,287.4,578.7,291.4,574.6,291.5z"/>
						<path fill="#231F20" d="M574.6,297.7c-7.6,0-13.3-6.7-13.4-15.6c0-8.9,5.7-15.7,13.3-15.7c7.6,0,13.4,6.7,13.4,15.6
							c0,3.9-1.1,7.7-3.2,10.5C582.2,295.7,578.5,297.6,574.6,297.7L574.6,297.7z M574.6,285.3v6.2V285.3L574.6,285.3L574.6,285.3
							L574.6,285.3z M574.5,278.8c-0.3,0.3-1,1.4-1,3.2c0,1.8,0.7,2.9,1,3.2c0.3-0.3,1-1.4,1-3.2
							C575.5,280.2,574.9,279.1,574.5,278.8z"/>
					</g>
					<g>
						<path fill="#231F20" d="M574.6,292c-4.4,0-7.7-4.2-7.7-9.9c0-5.7,3.2-10,7.6-10c4.4,0,7.7,4.2,7.7,9.9
							C582.2,287.6,579,291.9,574.6,292z M574.5,273c-3.8,0-6.6,3.9-6.6,9c0,5.1,2.9,8.9,6.7,8.9c3.8,0,6.6-3.9,6.6-9
							C581.2,276.9,578.3,273,574.5,273z"/>
						<path fill="#231F20" d="M574.6,298.1c-7.9,0-13.8-6.9-13.9-16.1c0-4.1,1.2-8,3.4-10.9c2.6-3.4,6.3-5.3,10.3-5.3
							c7.9,0,13.9,6.9,13.9,16.1C588.4,291.1,582.5,298.1,574.6,298.1L574.6,298.1z M574.5,279.7c-0.2,0.5-0.5,1.2-0.5,2.3
							c0,1.1,0.2,1.9,0.5,2.3c0.2-0.5,0.5-1.2,0.5-2.3C575,280.9,574.8,280.1,574.5,279.7z"/>
					</g>
				</g>
			</g>
			<g>
				<g>
					<circle fill="#231F20" cx="687" cy="278" r="2.8"/>
					<path fill="#231F20" d="M687,286.9c-4.9,0-8.9-4-9-8.9c0-4.9,4-9,8.9-9c5,0,9,4,9,8.9C696,282.9,692,286.9,687,286.9L687,286.9
						z M687,274.6c-1.9,0-3.4,1.5-3.4,3.4c0,1.9,1.5,3.4,3.4,3.4c1.9,0,3.4-1.5,3.4-3.4C690.4,276.1,688.9,274.6,687,274.6l0,6.2
						L687,274.6z"/>
				</g>
			</g>
			<g>
				<g>
					<circle fill="#231F20" cx="577.3" cy="278.5" r="2.8"/>
					<path fill="#231F20" d="M577.3,287.5c-4.9,0-8.9-4-9-8.9c0-4.9,4-9,8.9-9c5,0,9,4,9,8.9C586.3,283.4,582.3,287.5,577.3,287.5
						L577.3,287.5z M577.3,275.1c-1.9,0-3.4,1.5-3.4,3.4c0,1.9,1.5,3.4,3.4,3.4c1.9,0,3.4-1.5,3.4-3.4
						C580.7,276.6,579.2,275.1,577.3,275.1l0,6.2L577.3,275.1z"/>
				</g>
			</g>
		</g>
	</g>
	<g>
		<g>
			<circle fill="#FFFFFF" cx="574.2" cy="278.3" r="4.4"/>
			<path fill="#FFFFFF" d="M574.2,283.7c-3,0-5.4-2.4-5.4-5.4c0-3,2.4-5.4,5.4-5.4c3,0,5.4,2.4,5.4,5.4
				C579.6,281.3,577.2,283.7,574.2,283.7z M574.2,274.8c-1.9,0-3.5,1.6-3.5,3.5c0,1.9,1.6,3.5,3.5,3.5c1.9,0,3.5-1.6,3.5-3.5
				C577.7,276.4,576.2,274.8,574.2,274.8z"/>
		</g>
		<g>
			<circle fill="#FFFFFF" cx="685.1" cy="277.7" r="4.4"/>
			<path fill="#FFFFFF" d="M685.1,283.1c-3,0-5.4-2.4-5.4-5.4s2.4-5.4,5.4-5.4c3,0,5.4,2.4,5.4,5.4S688.1,283.1,685.1,283.1z
				 M685.1,274.2c-1.9,0-3.5,1.6-3.5,3.5s1.6,3.5,3.5,3.5c1.9,0,3.5-1.6,3.5-3.5S687,274.2,685.1,274.2z"/>
		</g>
	</g>
</g>
<g>
	<path fill="none" d="M556.2,238.5c5.2-0.4,8-6.2,12.2-9.4c3-2.3,6.9-3.4,10.6-2.8"/>
</g>
<g>
	<path fill="#387BBF" d="M531.2,871.6c3.2-8.8,12.2-15.2,21.5-15.3c-4.3-6.9-8.6-13.8-13-20.8c5.7,17.3-7.2,38.3-25.3,40.9
		c1.1-88.8-1.7-177.7-8.5-266.3c-1-12.7-2.1-25.7-7.4-37.3c-2.8-6.3-27.9-23.9-27.3-30.8c0.6-6.9,5.7-12.6,10.8-17.3
		c22.5-20.6,61.5-34.4,80.2-46.3c15.1,23.6,41.6,38.5,69.5,40.6s56.5-13.3,75-34.2c28.1,12.6,56.2,24.2,84.3,36.8
		c22.4,10,32.8,7.9,43.2,41.3c2.9,9.2,1.8,19.2,0,28.7c-9.4,50.4-37,96.5-42.3,147.5c-2.3,22.5-0.9,47.3-14.8,65.2
		c-12.3,15.8-33.3,21.6-52.8,26.3c-46.7,11.5-93.4,22.9-140.2,34.4C566.8,869.2,549,873.5,531.2,871.6z"/>
	<path fill="#2C5FA8" d="M514.4,880.2c-0.9,0-1.8-0.3-2.5-0.9c-0.8-0.7-1.3-1.8-1.3-2.9c1.1-88.4-1.8-177.9-8.5-266
		c-0.9-11.6-1.9-24.7-7-36c-0.9-1.9-6.3-6.8-10.6-10.8c-10.9-9.9-17.5-16.4-17-21.9c0.7-8.5,6.8-15,12-19.8
		c14.9-13.7,36.4-24.1,55.3-33.4c9.8-4.8,19-9.3,25.4-13.4c0.9-0.5,1.9-0.7,2.9-0.5c1,0.2,1.8,0.8,2.4,1.7
		c14.2,22.2,39.1,36.8,66.6,38.9c1.6,0.1,3.3,0.2,5,0.2c23.2,0,48.9-12.7,67-33.1c1.1-1.2,2.9-1.6,4.4-1c14,6.3,28.3,12.4,42.1,18.4
		c13.8,6,28.1,12.1,42.2,18.4c3.8,1.7,7.2,3,10.5,4.3c16,6.2,25.7,10,34.8,39.3c3.2,10.3,1.9,21.2,0.1,30.6
		c-4.3,23-12.4,45.3-20.3,66.9c-9.4,25.9-19.2,52.7-22,80.3c-0.5,4.4-0.8,9.1-1.1,13.6c-1.3,18.9-2.7,38.4-14.5,53.6
		c-12.6,16.2-33.2,22.4-54.9,27.7l-140.2,34.4c-13.9,3.4-29.6,7.2-45.1,7.2c-3.2,0-6.3-0.2-9.2-0.5c-0.7-0.1-1.4-0.4-1.9-0.8
		c-4.2,2.9-8.9,4.8-13.8,5.5C514.8,880.2,514.6,880.2,514.4,880.2z M475,542.2c0.5,2.8,9.6,11.2,14.5,15.7
		c6.8,6.2,11,10.1,12.4,13.3c5.7,12.6,6.8,26.4,7.7,38.6c6.7,86.7,9.6,174.7,8.6,261.8c5.7-2,10.9-6.2,14.5-12.1
		c4.5-7.3,5.7-15.6,3.3-22.8c-0.6-1.8,0.3-3.8,2-4.6c1.7-0.8,3.8-0.2,4.8,1.4l13,20.8c0.7,1.2,0.8,2.6,0.1,3.8c-0.7,1.2-1.9,2-3.3,2
		c-6,0.1-11.8,3.3-15.4,8.1c0.9,0,1.8,0,2.7,0c14.6,0,29.2-3.6,43.3-7l140.2-34.4c20.4-5,39.6-10.7,50.7-25
		c10.4-13.4,11.7-31.7,12.9-49.4c0.3-4.6,0.6-9.3,1.1-13.8c3-28.5,12.9-55.8,22.4-82.1c7.7-21.3,15.7-43.3,19.9-65.7
		c1.6-8.4,2.8-18.2,0.1-26.9c-8.1-25.8-15.5-28.7-30.3-34.5c-3.2-1.3-6.8-2.7-10.8-4.5c-14-6.3-28.3-12.4-42.1-18.4
		c-13-5.6-26.4-11.4-39.7-17.3c-19.3,20.8-46.2,33.6-70.8,33.6c-1.9,0-3.7-0.1-5.5-0.2c-28.5-2.2-54.5-16.8-70.3-39.3
		c-6.4,3.8-14.5,7.7-23,11.9c-18.4,9-39.3,19.2-53.5,32.1C480.4,531.3,475.6,536.4,475,542.2z M544.4,850.2c-0.2,1.4-0.6,2.8-1,4.1
		c1-0.4,2-0.7,3-1L544.4,850.2z"/>
</g>
<g>
	<g>
		<g>
			<g>
				<path fill="#FFC41A" d="M130,492.5l-16.5-1.9h-54L17.2,507l0,0l-0.6,376l934,0.1V412L791,470l-16.9-0.8
					c1.4,12.1,2.1,24.4,2.1,36.8c0,178.5-144.7,323.3-323.3,323.3S129.8,684.6,129.7,506"/>
			</g>
		</g>
	</g>
</g>
<g>
	<g>
		<path fill="#AA5B3F" d="M518.9,325.1c-2.1,0.6-4.2,0.8-6.5,0.8c-12-0.4-21.4-10.4-21-22.3c0.4-12,10.4-21.4,22.3-21
			c0,0-0.1,0.4-0.1,0.4c0-1.8,0.2-4,0.3-5.8c0-1,0.1-2,0.1-3c-4.1,0.4-6.8,1-8.1,1.3c0,0,0,0,0,0c-12.6,3.1-22.1,14.3-22.6,27.9
			c-0.5,16.4,12.4,30.1,28.7,30.6c0.3,0,0.5,0,0.8,0c1.7,6,4.5,11.8,6.8,17.3l8,0.3C524.1,343.1,521.1,334.3,518.9,325.1z"/>
	</g>
</g>
</svg>
