<?xml version="1.0" encoding="utf-8"?>
<!-- Generator: Adobe Illustrator 17.1.0, SVG Export Plug-In . SVG Version: 6.00 Build 0)  -->
<!DOCTYPE svg PUBLIC "-//W3C//DTD SVG 1.1//EN" "http://www.w3.org/Graphics/SVG/1.1/DTD/svg11.dtd">
<svg version="1.1" id="Layer_1" xmlns="http://www.w3.org/2000/svg" xmlns:xlink="http://www.w3.org/1999/xlink" x="0px" y="0px"
	 viewBox="0 0 274 213.5" enable-background="new 0 0 274 213.5" xml:space="preserve">
<g>
	<path fill="#74D3ED" d="M64.7,213.5c-0.1-0.1-0.1-0.3-0.1-0.4l-0.7-5.7c0-0.3,0-0.6,0.2-0.9c0.2-0.2,0.5-0.4,0.8-0.5l18-2.2
		c0.7-0.1,1.3,0.4,1.3,1l0.7,5.7c0,0.3,0,0.6-0.2,0.9s-0.5,0.4-0.8,0.5l-13,1.6h25.4c1.1-17.1,0.8-35.2,0.8-35.5l2.4,0
		c0,0.1,0.2,8.6-0.1,19.4c-0.1,4.7-0.3,10.4-0.7,16.1H121l-11.3-1.6c-0.6-0.1-1.1-0.7-1-1.3l0.6-5.7c0-0.3,0.2-0.6,0.5-0.8
		c0.3-0.2,0.6-0.3,0.9-0.2l16.7,2.4c0.6,0.1,1.1,0.7,1,1.3l-0.6,5.7c0,0.1-0.1,0.2-0.1,0.3h2.7c1.9-6.7,2.9-13.3,3.4-18.7
		c1.1-11.1,0.4-19.7,0.4-19.8l1.2-0.1l0,0l-95.1-19.8c-0.1,14.4,7.2,40.9,12.6,58.4H64.7z"/>
	<polygon fill="#74D3ED" points="39.1,154.8 39.1,154.8 39.1,154.8 	"/>
	
		<rect x="72.7" y="201.1" transform="matrix(0.1215 0.9926 -0.9926 0.1215 272.7764 109.7134)" fill="#74D3ED" width="3.4" height="15.7"/>
	<path fill="#74D3ED" d="M83.9,211.9c0.3,0,0.6-0.2,0.8-0.5s0.3-0.6,0.2-0.9l-0.7-5.7c-0.1-0.7-0.7-1.1-1.3-1l-18,2.2
		c-0.3,0-0.6,0.2-0.8,0.5c-0.2,0.2-0.3,0.6-0.2,0.9l0.7,5.7c0,0.2,0.1,0.3,0.1,0.4h6.2L83.9,211.9z M83.1,205l0.7,5.7l-18,2.2
		l-0.7-5.7L83.1,205z"/>
	<path fill="#74D3ED" d="M83.8,210.7l-0.7-5.7l-18,2.2l0.7,5.7L83.8,210.7z M82,206.3l0.4,3.4l-15.6,1.9l-0.4-3.4L82,206.3z"/>
	<polygon fill="#74D3ED" points="125.9,208.4 111.6,206.4 111.2,209.7 125.6,211.7 	"/>
	<path fill="#74D3ED" d="M127.8,213.2l0.6-5.7c0.1-0.6-0.4-1.2-1-1.3l-16.7-2.4c-0.3,0-0.6,0-0.9,0.2c-0.3,0.2-0.4,0.5-0.5,0.8
		l-0.6,5.7c-0.1,0.6,0.4,1.2,1,1.3l11.3,1.6h6.7C127.8,213.4,127.8,213.3,127.8,213.2z M126.7,213.1l-16.7-2.4l0.6-5.7l16.7,2.4
		L126.7,213.1z"/>
	<path fill="#74D3ED" d="M109.9,210.7l16.7,2.4l0.6-5.7l-16.7-2.4L109.9,210.7z M111.6,206.4l14.4,2l-0.4,3.3l-14.4-2L111.6,206.4z"
		/>
	<path fill="#59B8E2" d="M131.7,213.5h1.2c1.8-6.6,2.8-13.1,3.3-18.5c1.1-11.3,0.4-20.2,0.4-20.2l-1.2,0.1
		C135.4,174.9,137,194.6,131.7,213.5z"/>
	<path fill="#59B8E2" d="M133.8,194.8c-0.5,5.4-1.5,12.1-3.4,18.7h1.3c5.3-18.9,3.7-38.6,3.7-38.6l-1.2,0.1
		C134.2,175,134.9,183.7,133.8,194.8z"/>
	<path fill="#59B8E2" d="M40.3,154.8l-1.2,0l1.2,0.2C40.3,155,40.3,154.9,40.3,154.8z"/>
	<path fill="#59B8E2" d="M39.1,154.8l-1.2,0c-0.1,9.7,2.9,25.5,9.1,47.1c1.2,4.1,2.3,8,3.4,11.6h1.2
		C46.2,195.9,38.9,169.4,39.1,154.8z"/>
	<path fill="#59B8E2" d="M52.9,213.5c-5.4-17.5-12.7-44-12.6-58.4l-1.2-0.2l0,0c-0.2,14.5,7.1,41.1,12.5,58.7H52.9z"/>
	<path fill="#59B8E2" d="M99.4,197.4c0.2-10.8,0.1-19.3,0.1-19.4l-2.4,0c0,0.2,0.3,18.4-0.8,35.5h2.4
		C99.1,207.8,99.3,202.1,99.4,197.4z"/>
</g>
<g>
	<g>
		<g>
			<g>
				<path fill="#403942" d="M54,127.4c-0.2,0-0.3,0-0.5,0c-1.1-0.1-2.1-0.7-2.8-1.6c-0.7-0.9-1-2-0.9-3.1
					C52,104.9,64.7,87,65.2,86.2c0.8-1.1,2.1-1.7,3.4-1.7c0.9,0,1.7,0.3,2.4,0.8c0.9,0.7,1.5,1.6,1.7,2.7c0.2,1.1-0.1,2.2-0.7,3.1
					c-0.1,0.2-12,16.9-13.8,32.6c-0.2,1.8-1.5,3.2-3.3,3.6C54.6,127.4,54.3,127.4,54,127.4z"/>
			</g>
		</g>
		<g>
			<g>
				<path fill="#231F20" d="M68.6,85.7c0.6,0,1.2,0.2,1.7,0.6c1.3,1,1.6,2.8,0.7,4.2c-0.1,0.2-12.2,17.1-14.1,33.1
					c-0.2,1.3-1.1,2.3-2.3,2.6c-0.2,0-0.4,0.1-0.6,0.1c-0.1,0-0.2,0-0.4,0c-1.6-0.2-2.8-1.7-2.6-3.3c2.1-17.5,14.6-35.2,15.1-35.9
					C66.8,86.1,67.7,85.7,68.6,85.7 M68.6,83.3c-1.7,0-3.4,0.8-4.4,2.2c-0.5,0.8-13.4,18.9-15.6,37c-0.2,1.4,0.2,2.8,1.1,4
					c0.9,1.1,2.2,1.8,3.6,2c0.2,0,0.4,0,0.6,0c0.4,0,0.8,0,1.2-0.1c2.2-0.5,3.9-2.4,4.2-4.6c1.8-15.3,13.5-31.8,13.6-32
					c0.8-1.2,1.2-2.6,0.9-4c-0.2-1.4-1-2.7-2.2-3.5C70.9,83.7,69.8,83.3,68.6,83.3L68.6,83.3z"/>
			</g>
		</g>
	</g>
</g>
<g>
	<g>
		<g>
			<g>
				<path fill="#403942" d="M72.9,134.5c-1.9,0-3.6-1.3-4.1-3.2c-4.1-17.5,1.7-38.6,1.9-39.5c0.5-1.8,2.2-3.1,4-3.1
					c0.4,0,0.8,0.1,1.1,0.2c1.1,0.3,2,1,2.5,2c0.5,1,0.7,2.1,0.4,3.2c-0.1,0.2-5.5,20-1.9,35.3c0.4,1.7-0.3,3.5-1.8,4.5
					c-0.4,0.2-0.8,0.4-1.3,0.5C73.6,134.4,73.2,134.5,72.9,134.5C72.9,134.5,72.9,134.5,72.9,134.5z"/>
			</g>
		</g>
		<g>
			<g>
				<path fill="#231F20" d="M74.8,89.9c0.3,0,0.5,0,0.8,0.1c1.6,0.4,2.5,2.1,2.1,3.7c-0.1,0.2-5.6,20.3-1.9,35.9
					c0.3,1.3-0.3,2.6-1.3,3.2c-0.3,0.2-0.6,0.3-0.9,0.4c-0.2,0.1-0.5,0.1-0.7,0.1c-1.4,0-2.6-0.9-2.9-2.3
					c-4.1-17.2,1.7-38.1,1.9-38.9C72.3,90.7,73.5,89.9,74.8,89.9 M74.8,87.5c-2.4,0-4.5,1.6-5.2,3.9c-0.3,0.9-6.2,22.4-2,40.1
					c0.6,2.4,2.7,4.1,5.2,4.1c0.4,0,0.8,0,1.2-0.1c0.6-0.1,1.1-0.4,1.6-0.7c1.9-1.2,2.9-3.6,2.4-5.8c-3.6-15,1.8-34.5,1.8-34.7
					c0.4-1.4,0.2-2.8-0.5-4.1c-0.7-1.3-1.9-2.2-3.2-2.5C75.8,87.5,75.3,87.5,74.8,87.5L74.8,87.5z"/>
			</g>
		</g>
	</g>
</g>
<g>
	<g>
		<g>
			<g>
				<path fill="#403942" d="M29.6,102.6c-0.4,0-0.7,0-1.1-0.1c-0.4-0.1-0.9-0.3-1.3-0.6c-0.9-0.6-1.6-1.6-1.8-2.7
					c-0.2-1.1,0-2.2,0.6-3.1c10-14.9,29.5-25,30.4-25.4c0.6-0.3,1.2-0.5,1.9-0.5c1.6,0,3,0.9,3.7,2.3c0.5,1,0.6,2.1,0.3,3.2
					c-0.3,1.1-1.1,1.9-2.1,2.4c-0.2,0.1-18.4,9.5-27.2,22.6C32.2,101.9,30.9,102.6,29.6,102.6L29.6,102.6z"/>
			</g>
		</g>
		<g>
			<g>
				<path fill="#231F20" d="M58.3,71.4c1.1,0,2.1,0.6,2.7,1.6c0.8,1.5,0.2,3.3-1.3,4c-0.2,0.1-18.7,9.6-27.7,23
					c-0.6,0.9-1.5,1.3-2.5,1.3c-0.3,0-0.5,0-0.8-0.1c-0.3-0.1-0.6-0.2-0.9-0.4c-1.4-0.9-1.7-2.8-0.8-4.2c9.9-14.6,29.1-24.6,29.9-25
					C57.4,71.5,57.9,71.4,58.3,71.4 M58.3,69c-0.8,0-1.7,0.2-2.4,0.6C55.1,70,35.3,80.2,25.1,95.4c-0.8,1.2-1.1,2.6-0.8,4
					c0.3,1.4,1.1,2.6,2.3,3.4c0.5,0.3,1,0.6,1.6,0.7c0.4,0.1,0.9,0.2,1.4,0.2c1.8,0,3.5-0.9,4.5-2.4c8.6-12.8,26.6-22.1,26.8-22.2
					c1.3-0.7,2.2-1.8,2.7-3.1c0.4-1.4,0.3-2.8-0.3-4.1C62.2,70.1,60.4,69,58.3,69L58.3,69z"/>
			</g>
		</g>
	</g>
</g>
<g>
	<g>
		<g>
			<g>
				<path fill="#403942" d="M39.9,117.6c-0.5,0-0.9-0.1-1.4-0.2c-1.1-0.4-1.9-1.1-2.4-2.1c-0.5-1-0.6-2.1-0.2-3.2
					c5.9-17,22.1-31.7,22.8-32.3c0.8-0.7,1.8-1.1,2.8-1.1c1.2,0,2.3,0.5,3.1,1.4c0.7,0.8,1.1,1.9,1.1,3c-0.1,1.1-0.6,2.1-1.4,2.9
					c-0.2,0.1-15.4,13.9-20.5,28.8C43.2,116.5,41.6,117.6,39.9,117.6z"/>
			</g>
		</g>
		<g>
			<g>
				<path fill="#231F20" d="M61.5,79.8c0.8,0,1.6,0.3,2.2,1c1.1,1.2,1,3.1-0.2,4.2c-0.2,0.1-15.6,14.1-20.8,29.3
					c-0.4,1.2-1.6,2-2.8,2c-0.3,0-0.7-0.1-1-0.2c-1.6-0.5-2.4-2.2-1.8-3.8c5.8-16.7,21.8-31.2,22.5-31.8
					C60.1,80.1,60.8,79.8,61.5,79.8 M61.5,77.4c-1.3,0-2.6,0.5-3.6,1.4c-0.7,0.6-17.2,15.6-23.2,32.8c-0.5,1.4-0.4,2.8,0.2,4.1
					c0.6,1.3,1.7,2.3,3.1,2.7c0.6,0.2,1.2,0.3,1.8,0.3c2.3,0,4.3-1.5,5.1-3.6c5-14.6,20-28.2,20.2-28.3c1.1-1,1.7-2.3,1.8-3.7
					c0.1-1.4-0.4-2.8-1.4-3.9C64.5,78.1,63,77.4,61.5,77.4L61.5,77.4z"/>
			</g>
		</g>
	</g>
</g>
<g>
	<g>
		<g>
			<g>
				<path fill="#403942" d="M125.5,127.2c-0.3,0-0.6,0-0.9-0.1c-1.7-0.4-3.1-1.8-3.3-3.6c-1.8-15.7-13.7-32.4-13.8-32.6
					c-0.7-0.9-0.9-2-0.7-3.1c0.2-1.1,0.8-2.1,1.7-2.7c0.7-0.5,1.6-0.8,2.4-0.8c1.3,0,2.6,0.7,3.4,1.7c0.5,0.8,13.3,18.6,15.4,36.5
					c0.1,1.1-0.2,2.2-0.9,3.1c-0.7,0.9-1.7,1.4-2.8,1.6C125.9,127.1,125.7,127.2,125.5,127.2z"/>
			</g>
		</g>
		<g>
			<g>
				<path fill="#231F20" d="M111,85.5c0.9,0,1.8,0.4,2.4,1.2c0.5,0.7,13.1,18.4,15.1,35.9c0.2,1.6-1,3.1-2.6,3.3c-0.1,0-0.2,0-0.4,0
					c-0.2,0-0.4,0-0.6-0.1c-1.2-0.3-2.2-1.3-2.3-2.6c-1.9-16-13.9-33-14.1-33.1c-1-1.3-0.7-3.2,0.7-4.2
					C109.7,85.6,110.3,85.5,111,85.5 M111,83.1L111,83.1c-1.1,0-2.2,0.3-3.1,1c-1.2,0.8-1.9,2.1-2.2,3.5c-0.2,1.4,0.1,2.8,0.9,4
					c0.1,0.2,11.8,16.7,13.6,32c0.3,2.3,2,4.1,4.2,4.6c0.4,0.1,0.8,0.1,1.2,0.1c0.2,0,0.4,0,0.6,0c1.4-0.2,2.7-0.9,3.6-2
					c0.9-1.1,1.3-2.5,1.1-4c-2.1-18.1-15-36.3-15.6-37C114.3,83.9,112.7,83.1,111,83.1L111,83.1z"/>
			</g>
		</g>
	</g>
</g>
<g>
	<g>
		<g>
			<g>
				<path fill="#403942" d="M106.7,134.2c-0.3,0-0.7,0-1-0.1c-0.5-0.1-0.9-0.3-1.3-0.5c-1.5-1-2.2-2.8-1.8-4.5
					c3.6-15.3-1.8-35.1-1.9-35.3c-0.3-1.1-0.2-2.2,0.4-3.2c0.5-1,1.4-1.7,2.5-2c0.4-0.1,0.8-0.2,1.1-0.2c1.9,0,3.5,1.3,4,3.1
					c0.3,0.9,6.1,22.1,1.9,39.5C110.3,132.9,108.6,134.2,106.7,134.2z"/>
			</g>
		</g>
		<g>
			<g>
				<path fill="#231F20" d="M104.8,89.6c1.3,0,2.5,0.9,2.9,2.2c0.2,0.9,6,21.8,1.9,38.9c-0.3,1.4-1.6,2.3-2.9,2.3
					c-0.2,0-0.5,0-0.7-0.1c-0.3-0.1-0.6-0.2-0.9-0.4c-1-0.7-1.6-1.9-1.3-3.2c3.7-15.7-1.8-35.7-1.9-35.9c-0.4-1.6,0.5-3.2,2.1-3.7
					C104.2,89.7,104.5,89.6,104.8,89.6 M104.8,87.2c-0.5,0-1,0.1-1.5,0.2c-1.4,0.4-2.5,1.3-3.2,2.5c-0.7,1.3-0.9,2.7-0.5,4.1
					c0.1,0.2,5.4,19.7,1.8,34.7c-0.5,2.2,0.4,4.6,2.4,5.8c0.5,0.3,1.1,0.6,1.6,0.7c0.4,0.1,0.8,0.1,1.2,0.1c2.5,0,4.7-1.7,5.2-4.1
					c4.2-17.8-1.7-39.2-2-40.1C109.3,88.8,107.2,87.2,104.8,87.2L104.8,87.2z"/>
			</g>
		</g>
	</g>
</g>
<g>
	<g>
		<g>
			<g>
				<path fill="#403942" d="M150,102.3c-1.4,0-2.7-0.7-3.5-1.8c-8.8-13.1-27-22.5-27.2-22.6c-1-0.5-1.7-1.4-2.1-2.4
					c-0.3-1.1-0.3-2.2,0.3-3.2c0.7-1.4,2.1-2.3,3.7-2.3c0.7,0,1.3,0.2,1.9,0.5c0.8,0.4,20.3,10.5,30.4,25.4c0.6,0.9,0.9,2,0.6,3.1
					c-0.2,1.1-0.8,2-1.8,2.7c-0.4,0.3-0.8,0.5-1.3,0.6C150.8,102.3,150.4,102.3,150,102.3z"/>
			</g>
		</g>
		<g>
			<g>
				<path fill="#231F20" d="M121.2,71.2c0.5,0,0.9,0.1,1.4,0.3c0.8,0.4,20.1,10.4,29.9,25c0.9,1.4,0.6,3.2-0.8,4.2
					c-0.3,0.2-0.6,0.3-0.9,0.4c-0.3,0.1-0.5,0.1-0.8,0.1c-1,0-1.9-0.5-2.5-1.3c-9-13.4-27.5-22.9-27.7-23c-1.5-0.8-2.1-2.6-1.3-4
					C119.1,71.8,120.2,71.2,121.2,71.2 M121.2,68.8L121.2,68.8c-2,0-3.9,1.1-4.8,2.9c-0.7,1.3-0.8,2.7-0.3,4.1
					c0.4,1.4,1.4,2.5,2.7,3.1c0.2,0.1,18.2,9.4,26.8,22.2c1,1.5,2.7,2.4,4.5,2.4c0.5,0,0.9-0.1,1.4-0.2c0.6-0.2,1.1-0.4,1.6-0.7
					c1.2-0.8,2-2,2.3-3.4c0.3-1.4,0-2.8-0.8-4c-10.2-15.1-30-25.4-30.8-25.8C122.9,69,122.1,68.8,121.2,68.8L121.2,68.8z"/>
			</g>
		</g>
	</g>
</g>
<g>
	<g>
		<g>
			<g>
				<path fill="#403942" d="M139.7,117.3c-1.8,0-3.4-1.1-4-2.8c-5.2-14.9-20.4-28.7-20.5-28.8c-0.8-0.7-1.3-1.8-1.4-2.9
					c-0.1-1.1,0.3-2.2,1.1-3c0.8-0.9,1.9-1.4,3.1-1.4c1,0,2,0.4,2.8,1.1c0.7,0.6,17,15.4,22.8,32.3c0.4,1.1,0.3,2.2-0.2,3.2
					c-0.5,1-1.3,1.8-2.4,2.1C140.7,117.3,140.2,117.3,139.7,117.3z"/>
			</g>
		</g>
		<g>
			<g>
				<path fill="#231F20" d="M118.1,79.6c0.7,0,1.4,0.3,2,0.8c0.7,0.6,16.7,15.2,22.5,31.8c0.5,1.6-0.3,3.3-1.8,3.8
					c-0.3,0.1-0.7,0.2-1,0.2c-1.2,0-2.4-0.8-2.8-2c-5.3-15.2-20.7-29.2-20.8-29.3c-1.2-1.1-1.3-3-0.2-4.2
					C116.4,79.9,117.3,79.6,118.1,79.6 M118.1,77.2L118.1,77.2c-1.5,0-3,0.7-4,1.8c-1,1.1-1.4,2.4-1.4,3.9c0.1,1.4,0.7,2.8,1.8,3.7
					c0.1,0.1,15.1,13.8,20.2,28.3c0.7,2.2,2.8,3.6,5.1,3.6c0.6,0,1.2-0.1,1.8-0.3c1.4-0.5,2.5-1.4,3.1-2.7c0.6-1.3,0.7-2.8,0.2-4.1
					c-6-17.3-22.5-32.2-23.2-32.8C120.7,77.7,119.4,77.2,118.1,77.2L118.1,77.2z"/>
			</g>
		</g>
	</g>
</g>
<g>
	<path fill="#FBFCFA" d="M104.8,171.9c28.1,15.5,45.9,8.4,53.4,3.4c2.7-1.8,3.7-4.9,3.6-8.2c-1.1-31.7-25.1-42.4-25.1-42.4
		s-2.1,10.9-10.9,21.1"/>
</g>
<g>
	<path fill="#77787C" d="M136.7,182.5c-10.1,0-21-3.2-32.6-9.6l1.2-2.1c12.1,6.7,23.4,9.8,33.8,9.2c8.6-0.5,14.8-3.4,18.4-5.8
		c2.8-1.9,3.1-5.3,3-7.1c-0.6-16-7.2-26.4-12.7-32.3c-4.2-4.6-8.4-7.2-10.5-8.3c-0.9,3.4-3.7,12-10.8,20.1l-1.8-1.6
		c8.5-9.8,10.6-20.4,10.6-20.6l0.3-1.5l1.4,0.6c0.3,0.1,6.3,2.8,12.5,9.6c5.7,6.2,12.7,17.1,13.3,33.8c0.1,4.1-1.3,7.4-4.1,9.2
		c-3.9,2.6-10.4,5.7-19.6,6.2C138.4,182.5,137.6,182.5,136.7,182.5z"/>
</g>
<g>
	<path fill="#74D3ED" d="M40.2,121.8c0,0,7.1-2.8,13.4-1.3c0,0,34.8-18.6,63.9-0.1c0,0,11.8,0.1,22.1,5.5c0,0-3,7.4-9.5,16.1
		l-51.4,36l-22.6-18.5c0,0-5.4-9.2-10.4-15C45.7,144.7,38.2,130.8,40.2,121.8z"/>
</g>
<g>
	<path fill="#59B8E2" d="M78.6,179.6l-23.5-19.2l-0.1-0.2c-0.1-0.1-5.4-9.2-10.2-14.8l-0.1-0.1l-0.1-0.1c-0.3-0.6-7.7-14.4-5.7-23.6
		l0.1-0.6l0.6-0.2c0.2-0.1,4.7-1.8,9.8-1.8c1.4,0,2.7,0.1,3.9,0.4c2.6-1.3,17-8.2,34.6-8.2c11.1,0,21.1,2.8,29.8,8.2
		c2.1,0.1,12.8,0.6,22.3,5.7l1,0.5l-0.4,1c-0.1,0.3-3.1,7.6-9.6,16.3l-0.1,0.2L78.6,179.6z M57,158.8l21.8,17.8l50.5-35.4
		c4.9-6.5,7.7-12.4,8.8-14.6c-9.6-4.8-20.5-4.9-20.6-4.9l-0.3,0l-0.3-0.2c-8.4-5.3-18.1-8-28.8-8c-18.4,0-33.8,8.1-33.9,8.1
		l-0.4,0.2l-0.4-0.1c-1.1-0.3-2.4-0.4-3.8-0.4c-3.6,0-7,1-8.3,1.4c-1.3,8,4.8,20,5.5,21.2C51.3,149.3,56.2,157.5,57,158.8z"/>
</g>
<g>
	<path fill="#D3957D" d="M62,89.4c0,1.2,10.7,16.3,12.2,25.9c1.5,10.1,2.4,9.4,2.4,9.4l-1.3,1L89,136.5l18.5-15.2l-1.9-2.3
		c0,0-3-13.4,12.5-32.8"/>
</g>
<g>
	<path fill="#AA5B3F" d="M89,138l-15.6-12.3l1.6-1.2c-0.5-1.3-1.2-3.8-2-9c-1-6.6-6.8-16.3-9.9-21.5c-2-3.4-2.3-4-2.3-4.6h2.4
		c0-0.1,0-0.2,0-0.2c0.1,0.4,1.1,2,2,3.6c3.4,5.7,9.1,15.2,10.2,22.3c1.1,7.4,1.9,8.6,2,8.7c-0.2-0.3-0.8-0.5-1.4-0.1l1.4,1.9
		l-0.1,0.1L89,135l16.8-13.9l-1.3-1.6l-0.1-0.3c-0.1-0.6-2.9-14.2,12.7-33.8l1.9,1.5c-13.8,17.3-12.6,29.6-12.3,31.5l2.4,3L89,138z"
		/>
</g>
<g>
	<path fill="#231F20" d="M88.4,73.8c0.9,0,1.7,0.1,2.6,0.2l12.7,2c1.9,0.3,3.1,2,2.9,3.8l-0.3,3l17.7-7.9c-0.3,5.1-2.5,9.9-6.2,13.5
		l-15.4,16.2c-0.4,0.4-0.7,0.7-1.2,1c-2.4,1.6-6.5,3.4-12.9,3.5c-6.4-0.2-10.5-2-12.9-3.5c-0.4-0.3-0.8-0.6-1.2-1L58.9,88.4
		c-3.6-3.6-5.8-8.4-6.2-13.5l3.6,1.8l14.1,6.2l-0.3-3c-0.2-1.9,1.1-3.6,2.9-3.8l12.7-2C86.6,73.9,87.5,73.8,88.4,73.8 M88.4,93.5
		l9.7-0.2c1.3,0,2.4-1,2.5-2.3l1.4-10.2c0.1-0.4-0.2-0.8-0.6-0.8l-12-2.3c-0.3-0.1-0.7-0.1-1-0.1c-0.3,0-0.7,0-1,0.1l-12,2.3
		c-0.4,0.1-0.7,0.4-0.6,0.8L76.1,91c0.2,1.3,1.2,2.2,2.5,2.3L88.4,93.5 M88.4,71.4c-1,0-2,0.1-2.9,0.2l-12.7,2
		c-2.8,0.4-4.8,2.7-5,5.4l-10.4-4.5l-3.5-1.7c-0.3-0.2-0.7-0.2-1.1-0.2c-0.5,0-0.9,0.1-1.3,0.4c-0.7,0.5-1.1,1.3-1.1,2.1
		c0.4,5.7,2.8,11,6.8,15l15.4,16.1c0.5,0.5,1,0.9,1.6,1.3c2.6,1.7,7.1,3.8,14.1,3.9c0,0,0,0,0.1,0c0,0,0,0,0.1,0
		c7.1-0.2,11.6-2.2,14.1-3.9c0.6-0.4,1.1-0.8,1.6-1.3l15.3-16.1c4-4,6.5-9.4,6.8-15c0.1-0.8-0.3-1.6-1-2.1c-0.4-0.3-0.9-0.4-1.4-0.4
		c-0.3,0-0.7,0.1-1,0.2L109,79c-0.2-2.7-2.2-4.9-5-5.3l-12.7-2C90.3,71.5,89.3,71.4,88.4,71.4L88.4,71.4z M77.3,82l10.5-2
		c0.2,0,0.4-0.1,0.6-0.1c0.2,0,0.4,0,0.6,0.1l10.5,2l-1.2,8.7c0,0.1-0.1,0.2-0.2,0.2l-9.7,0.2l-9.7-0.2c-0.1,0-0.2-0.1-0.2-0.2
		L77.3,82L77.3,82z"/>
</g>
<g>
	<path fill="#3B353D" d="M124,74.9l-17.7,7.9l0.3-3c0.2-1.9-1.1-3.6-2.9-3.8l-12.7-2c-1.7-0.3-3.4-0.3-5.1,0l-12.7,2
		c-1.9,0.3-3.1,2-2.9,3.8l0.3,3l-14.1-6.2l-3.6-1.8c0.3,5.1,2.5,9.9,6.2,13.5l15.4,16.2c0.3,0.4,0.7,0.7,1.2,1
		c2.4,1.6,6.5,3.4,12.9,3.5c6.4-0.2,10.5-2,12.9-3.5c0.4-0.3,0.8-0.6,1.2-1l15.4-16.2C121.4,84.8,123.6,80,124,74.9 M102,80.8
		L100.6,91c-0.2,1.3-1.2,2.2-2.5,2.3l-9.7,0.2l-9.7-0.2c-1.3,0-2.4-1-2.5-2.3l-1.4-10.2c-0.1-0.4,0.2-0.8,0.6-0.8l12-2.3
		c0.7-0.1,1.4-0.1,2.1,0l12,2.3C101.8,80,102.1,80.4,102,80.8z"/>
</g>
<g>
	<ellipse fill="#403942" cx="88.4" cy="47" rx="42.7" ry="44.6"/>
</g>
<g>
	<path fill="#231F20" d="M88.4,92.8c-24.2,0-43.9-20.5-43.9-45.8S64.2,1.2,88.4,1.2c24.2,0,43.9,20.5,43.9,45.8
		S112.6,92.8,88.4,92.8z M88.4,3.6C65.5,3.6,46.9,23,46.9,47s18.6,43.4,41.5,43.4c22.9,0,41.5-19.5,41.5-43.4S111.3,3.6,88.4,3.6z"
		/>
</g>
<g>
	<circle fill="#CE866A" cx="124.5" cy="64" r="6.5"/>
</g>
<g>
	<circle fill="#CE866A" cx="52.2" cy="64" r="6.5"/>
</g>
<g>
	<g>
		<path fill="#D3957D" d="M88.4,101.4c-15.7,0-29.7-11.9-35.1-29.8c-0.4,0.1-0.7,0.1-1.1,0.1c-4.2,0-7.7-3.4-7.7-7.7
			c0-3.8,2.8-7,6.5-7.6c0-0.2,0-0.4,0-0.5c0-11.9,3.9-22.7,10.9-30.4c6.9-7.5,16.3-11.6,26.5-11.6S108,18,114.8,25.5
			c7,7.7,10.9,18.5,10.9,30.4c0,0.2,0,0.4,0,0.5c3.7,0.6,6.5,3.8,6.5,7.6c0,4.2-3.4,7.7-7.7,7.7c-0.4,0-0.7,0-1.1-0.1
			C118.1,89.5,104.1,101.4,88.4,101.4z"/>
	</g>
</g>
<g>
	<g>
		<path fill="#AA5B3F" d="M88.4,15.1c20,0,36.2,16.3,36.2,40.8c0,0.5,0,1.1,0,1.6c0,0,0,0,0,0c3.6,0,6.5,2.9,6.5,6.5
			c0,3.6-2.9,6.5-6.5,6.5c-0.7,0-1.3-0.1-1.9-0.3c-4.9,17.5-18.4,30.1-34.3,30.1c-15.9,0-29.4-12.6-34.3-30.1
			c-0.6,0.2-1.3,0.3-1.9,0.3c-3.6,0-6.5-2.9-6.5-6.5c0-3.6,2.9-6.5,6.5-6.5c0,0,0,0,0,0c0-0.5,0-1.1,0-1.6
			C52.2,31.3,68.4,15.1,88.4,15.1 M88.4,12.7c-10.5,0-20.3,4.3-27.3,12c-3.6,3.9-6.3,8.5-8.2,13.7c-1.9,5.3-2.9,11-3,17.1
			c-3.7,1-6.5,4.5-6.5,8.5c0,4.9,4,8.9,8.9,8.9c0.1,0,0.2,0,0.2,0c5.7,17.9,20,29.8,36,29.8c16,0,30.2-11.9,36-29.8
			c0.1,0,0.2,0,0.2,0c4.9,0,8.9-4,8.9-8.9c0-4.1-2.7-7.5-6.5-8.5c0-6.1-1.1-11.8-3-17.1c-1.9-5.2-4.7-9.8-8.2-13.7
			C108.6,16.9,98.9,12.7,88.4,12.7L88.4,12.7z"/>
	</g>
</g>
<g>
	<g>
		<path fill="#632C1D" d="M88.1,85.9c-1.7,0-3.5-0.2-5.1-0.6c-0.5-0.1-1.1-0.3-1.6-0.5l-2.1-0.6c-0.6-0.2-1-0.9-0.8-1.5
			c0.2-0.6,0.9-1,1.5-0.8l2.1,0.6c0.5,0.2,1,0.3,1.5,0.4c4.3,1.1,9,0.6,12.9-1.4c0.6-0.3,1.3-0.1,1.6,0.5c0.3,0.6,0.1,1.3-0.5,1.6
			C94.7,85.1,91.4,85.9,88.1,85.9z"/>
	</g>
</g>
<g>
	<g>
		<path fill="#AA5B3F" d="M93.5,70.9c-0.2,0-0.4-0.1-0.6-0.2c-4.5-2.7-9.1,0-9.1,0c-0.6,0.3-1.3,0.2-1.6-0.4
			c-0.3-0.6-0.2-1.3,0.4-1.6c0.2-0.1,5.9-3.4,11.6,0c0.6,0.3,0.8,1.1,0.4,1.6C94.3,70.7,94,70.9,93.5,70.9z"/>
	</g>
</g>
<g>
	<g>
		<g>
			<g>
				<path fill="#231F20" d="M107,71.2c-2.8,0-9.6-0.4-13.3-4.6l-0.1-0.1c-0.1-0.2-3.6-4.8-3.6-13.5c0-3,1.6-8.8,7.6-9.9
					c0.1,0,3.5-0.6,8.4-0.6c5.7,0,11,0.8,15.8,2.2c1.8,0.6,3,2.1,3.1,4c0.3,3.7,0.5,13.1-4.3,19.1c-0.4,0.5-1,1-1.6,1.3
					c-1.6,0.8-5.3,2.1-11.1,2.1C107.8,71.2,107.5,71.2,107,71.2z M97,64c2.6,2.8,8.3,3.1,10,3.1c0.5,0,0.8,0,0.8,0l0.1,0
					c5.3,0,8.3-1.2,9.4-1.7c0.1,0,0.1-0.1,0.1-0.1c3.9-4.8,3.7-12.9,3.4-16.2c0-0.1-0.1-0.3-0.2-0.3c-4.3-1.4-9.2-2.1-14.5-2.1
					c-4.5,0-7.6,0.5-7.7,0.5c-4.1,0.7-4.1,5.6-4.1,5.8C94.3,59.7,96.6,63.5,97,64z"/>
			</g>
		</g>
		<g>
			<g>
				<path fill="#231F20" d="M69.7,71.2c-0.5,0-0.8,0-0.9,0c-5.9,0-9.5-1.3-11.1-2.1c-0.7-0.3-1.2-0.7-1.6-1.3
					c-4.8-6-4.6-15.4-4.3-19.1c0.1-1.9,1.4-3.4,3.1-4c4.8-1.5,10.1-2.2,15.8-2.2c4.9,0,8.2,0.6,8.4,0.6c6,1.1,7.6,7,7.6,9.9
					c0,8.6-3.4,13.3-3.6,13.5L83,66.7C79.4,70.8,72.5,71.2,69.7,71.2z M69,67c0,0,0.3,0,0.8,0c1.7,0,7.4-0.2,10-3.1
					c0.3-0.5,2.7-4.2,2.7-10.9c0-0.2-0.1-5.1-4.2-5.8c0,0-3.2-0.5-7.7-0.5c-5.3,0-10.2,0.7-14.5,2.1c-0.1,0-0.2,0.2-0.2,0.3
					c-0.3,3.2-0.4,11.3,3.4,16.2c0,0,0.1,0.1,0.1,0.1c1.1,0.5,4.1,1.7,9.4,1.7L69,67L69,67z"/>
			</g>
		</g>
		<g>
			<g>
				<path fill="#231F20" d="M82.2,47c0,0,5.7,0.9,12.2,0c0,0-2.4,1.7-2.3,7.2c0,0-4-0.6-7.6,0C84.5,54.2,85,49.2,82.2,47z"/>
			</g>
			<g>
				<path fill="#231F20" d="M83.2,55.7l0.1-1.5c0.1-1.2,0-4.7-1.8-6.1l-3.6-2.9l4.6,0.8c0,0,2.5,0.4,5.9,0.4c2,0,4-0.1,5.9-0.4
					l4.9-0.7L95.2,48l0,0c0,0-1.9,1.5-1.8,6.2l0,1.4L92,55.4c0,0-1.7-0.3-3.9-0.3c-1.2,0-2.4,0.1-3.4,0.3L83.2,55.7z M88.1,52.8
					c1.1,0,2.1,0.1,2.9,0.1c0.1-1.9,0.5-3.3,1-4.4c-1.2,0.1-2.4,0.1-3.6,0.1c-1.4,0-2.6-0.1-3.6-0.1c0.7,1.5,0.9,3.2,0.9,4.3
					C86.5,52.8,87.3,52.8,88.1,52.8z"/>
			</g>
		</g>
	</g>
	<g>
		<g>
			<g>
				<path fill="#231F20" d="M104.8,58c-1.2,0-2.1-1.2-2.1-2.8c0-1.6,0.9-2.8,2.1-2.8c1.2,0,2.1,1.2,2.1,2.8
					C106.9,56.8,106,58,104.8,58z"/>
			</g>
			<g>
				<path fill="#231F20" d="M104.8,58.1c-1.3,0-2.3-1.3-2.3-3s1-3,2.3-3c1.3,0,2.3,1.3,2.3,3S106.1,58.1,104.8,58.1z M104.8,52.5
					c-1.1,0-2,1.2-2,2.7c0,1.5,0.9,2.7,2,2.7c1.1,0,2-1.2,2-2.7C106.7,53.6,105.9,52.5,104.8,52.5z"/>
			</g>
		</g>
	</g>
	<g>
		<g>
			<g>
				<path fill="#231F20" d="M71.9,58.2c-1.2,0-2.1-1.2-2.1-2.8c0-1.6,0.9-2.8,2.1-2.8c1.2,0,2.1,1.2,2.1,2.8
					C74,57,73.1,58.2,71.9,58.2z"/>
			</g>
			<g>
				<path fill="#231F20" d="M71.9,58.3c-1.3,0-2.3-1.3-2.3-3c0-1.7,1-3,2.3-3c1.3,0,2.3,1.3,2.3,3C74.2,57,73.2,58.3,71.9,58.3z
					 M71.9,52.7c-1.1,0-2,1.2-2,2.7c0,1.5,0.9,2.7,2,2.7c1.1,0,2-1.2,2-2.7C73.9,53.8,73,52.7,71.9,52.7z"/>
			</g>
		</g>
	</g>
	<g>
		<g>
			<circle fill="none" cx="105.6" cy="54.3" r="0.8"/>
		</g>
	</g>
	<g>
		<g>
			<circle fill="none" cx="72.7" cy="54.3" r="0.8"/>
		</g>
	</g>
</g>
<g>
	<path fill="#403942" d="M124,75L106.3,83l0.3-3c0.2-1.9-1.1-3.6-2.9-3.8l-12.7-2c-1.7-0.3-3.4-0.3-5.1,0l-12.7,2
		c-1.9,0.3-3.1,2-2.9,3.8l0.3,3l-14.1-6.2L52.8,75c0.3,5.1,2.5,9.9,6.2,13.5l15.4,16.2c0.3,0.4,0.7,0.7,1.2,1
		c2.4,1.6,6.5,3.4,12.9,3.5c6.4-0.2,10.5-2,12.9-3.5c0.4-0.3,0.8-0.6,1.2-1l15.4-16.2C121.4,84.9,123.6,80.1,124,75 M102,80.9
		l-1.4,10.2c-0.2,1.3-1.2,2.2-2.5,2.3l-9.7,0.2l-9.7-0.2c-1.3,0-2.4-1-2.5-2.3l-1.4-10.2c-0.1-0.4,0.2-0.8,0.6-0.8l12-2.3
		c0.7-0.1,1.4-0.1,2.1,0l12,2.3C101.8,80.2,102.1,80.5,102,80.9z"/>
</g>
<g>
	<path fill="#80DBF5" d="M98.3,178"/>
</g>
<g>
	<path fill="#FBFCFA" d="M72.3,155.8c4.8-8.8,52.2-18.1,52.2-18.1c5,3.6,8.5,15.6,8.5,15.6c-34.3,31.6-59,32.7-59,32.7
		c-21.6-1.5-43.6-34.7-43.6-34.7c-9.9-15.3,2.1-25.1,2.1-25.1c2.1-1.8,4.3-3,6.5-3.8c0,0,14.8,5.6,22.2,30.6"/>
</g>
<g>
	<path fill="#77787C" d="M74,187.1L74,187.1c-9.3-0.6-19.7-6.8-30.7-18.3c-8.2-8.5-13.8-16.9-13.8-17c-5.4-8.3-4.5-15.1-2.8-19.4
		c1.8-4.6,5-7.2,5.1-7.3c2-1.7,4.3-3.1,6.8-4L39,121l0.4,0.2c0.6,0.2,15.4,6.1,22.9,31.3l-2.3,0.7c-6.4-21.8-18.6-28.5-21-29.6
		c-2.1,0.9-4,2-5.7,3.5c-0.5,0.4-11,9.4-1.9,23.6c0.2,0.3,21.8,32.6,42.6,34.1c0.7,0,6.7-0.5,16.3-4.4c9.3-3.8,24-11.6,41.3-27.4
		c-0.8-2.5-3.7-10.8-7.4-13.9c-18.9,3.8-47.6,11.4-50.9,17.4l-2.1-1.1c2.2-4,11.5-8.2,28.6-12.9c12.4-3.4,24.3-5.8,24.4-5.8l0.5-0.1
		l0.4,0.3c5.3,3.8,8.8,15.7,8.9,16.2l0,0c0.1,0.4,0,0.9-0.3,1.2l0,0c-17.9,16.5-33.1,24.5-42.7,28.4C80.6,186.8,74.3,187.1,74,187.1
		L74,187.1z"/>
</g>
<g>
	<path fill="#80DBF5" d="M98.3,178c0,0-0.9-21.2-5.6-40.3"/>
</g>
<g>
	<path fill="#59B8E2" d="M97.1,178.1c0-0.2-0.9-21.3-5.6-40.1l2.3-0.6c4.7,19,5.6,40.4,5.7,40.6L97.1,178.1z"/>
</g>
<g>
	<g>
		<circle fill="#74D3ED" cx="119.1" cy="147.8" r="12.4"/>
		<path fill="#59B8E2" d="M119.1,161.4c-7.5,0-13.6-6.1-13.6-13.6s6.1-13.6,13.6-13.6c7.5,0,13.6,6.1,13.6,13.6
			S126.5,161.4,119.1,161.4z M119.1,136.6c-6.2,0-11.2,5-11.2,11.2c0,6.2,5,11.2,11.2,11.2s11.2-5,11.2-11.2
			C130.2,141.6,125.2,136.6,119.1,136.6z"/>
	</g>
	<g>
		<rect x="118.1" y="142.5" fill="#FBFCFA" width="2.4" height="17.4"/>
	</g>
	<g>
		<path fill="#FBFCFA" d="M114.6,149.3c-0.2,0-0.5-0.1-0.7-0.2c-0.5-0.4-0.7-1.1-0.3-1.7l4.4-6.1c0.2-0.3,0.5-0.5,0.9-0.5
			c0.3,0,0.7,0.1,0.9,0.3l4.7,4.7c0.5,0.5,0.5,1.2,0,1.7c-0.5,0.5-1.2,0.5-1.7,0l-3.8-3.8l-3.6,4.9
			C115.3,149.1,115,149.3,114.6,149.3z"/>
	</g>
	<g>
		<path fill="#59B8E2" d="M119,161.4c-7.5,0-13.6-6.1-13.6-13.6s6.1-13.6,13.6-13.6c7.5,0,13.6,6.1,13.6,13.6S126.5,161.4,119,161.4
			z M119,136.6c-6.2,0-11.2,5-11.2,11.2c0,6.2,5,11.2,11.2,11.2s11.2-5,11.2-11.2C130.2,141.6,125.2,136.6,119,136.6z"/>
	</g>
</g>
<g>
	<path fill="#FBFCFA" d="M109.5,145.9c-0.1,0-0.3,0-0.4-0.1c-0.6-0.2-0.9-0.9-0.7-1.5c2.4-6.4,8.1-7.4,8.4-7.4
		c0.7-0.1,1.3,0.3,1.4,1c0.1,0.7-0.3,1.3-1,1.4c-0.2,0-4.6,0.8-6.5,5.9C110.5,145.6,110,145.9,109.5,145.9z"/>
</g>
<g>
	<path fill="#FBFCFA" d="M67.2,148.8c1.2,0.3,4.4,6,4.4,6c4.8-8.8,52.8-17.1,52.8-17.1c5,3.6,8.5,15.6,8.5,15.6
		c-34.3,31.6-59,32.7-59,32.7s-25.6-25.6-27.7-26.4"/>
</g>
<g>
	<path fill="#74D3ED" d="M131.8,152.2c-0.3,0-0.7-0.2-0.9-0.4c-0.1-0.1-7-8.3-13.3-10c-0.5-0.1-0.9-0.6-0.9-1.2c0-0.6,0.4-1,0.9-1.1
		l3.7-0.9c0.6-0.1,1.3-0.2,2-0.2c2.9,0,5.5,1.4,7.1,3.7c2,2.8,2.8,5.9,2.5,9c0,0.5-0.4,0.9-0.8,1C132,152.2,131.9,152.2,131.8,152.2
		z"/>
</g>
<g>
	<path fill="#59B8E2" d="M123.3,139.6c2.4,0,4.7,1.1,6.1,3.2c1.4,2.1,2.6,4.8,2.3,8.2c0,0-7.1-8.6-13.9-10.3l3.7-0.9
		C122.2,139.7,122.8,139.6,123.3,139.6 M123.3,137.2L123.3,137.2c-0.8,0-1.5,0.1-2.2,0.3l-3.7,0.9c-1.1,0.2-1.8,1.2-1.9,2.3
		c0,1.1,0.7,2.1,1.8,2.3c4.9,1.3,10.8,7.3,12.7,9.6c0.5,0.6,1.1,0.9,1.8,0.9c0.2,0,0.5,0,0.7-0.1c0.9-0.3,1.6-1.1,1.7-2.1
		c0.3-3.4-0.6-6.8-2.7-9.8C129.6,138.8,126.6,137.2,123.3,137.2L123.3,137.2z"/>
</g>
<polygon fill="#FBFCFA" points="114.4,139.6 123.9,141.6 132.2,151.4 131.3,154.1 119,148.4 "/>
<g>
	<path fill="#77787C" d="M74,187.1c-0.1,0-0.1,0-0.2,0c-0.2,0-3.4-0.5-5.8-1.1c-0.7-0.2-1-0.9-0.8-1.6l0,0c0.2-0.6,0.8-0.9,1.4-0.7
		c1.7,0.5,4.1,0.9,5.2,1c0.1,0,0.2,0,0.3,0c1.2-0.1,7.1-0.8,16.2-4.4c9.2-3.7,23.6-11.4,40.6-26.8c0.4-0.4,0.5-1,0.3-1.4
		c-3-5.8-6.4-8.6-9.2-10.2c-1.7-1-7.3-1-9.2-0.6c0,0-1.8,0.3-1.8,0.3c-15.2,3.3-33.6,8.2-38.1,13c-0.2,0.3-0.6,0.4-0.9,0.4
		c-0.3,0-0.7-0.2-0.9-0.5c-1.5-2-3.6-4.2-4.2-4.5c0,0,0,0,0.1,0l0.2-0.7c0.2-0.9,1.3-1.2,1.9-0.6c0.8,0.7,1.6,1.6,2.4,2.6
		c0.4,0.5,1.1,0.6,1.6,0.2c7.3-4.8,26.9-9.7,39.7-12.5c0,0,0,0,0,0c1.8-0.4,7-0.9,10.2,0.4c0.1,0,0.1,0.1,0.2,0.1
		c0.6,0.3,3.7,2.3,5.2,3.9c4.7,5,5.6,9.1,5.8,9.6c0.1,0.4,0,0.9-0.3,1.2c-17.9,16.5-33.1,24.5-42.7,28.4
		C80.5,186.8,74.3,187.1,74,187.1C74,187.1,74,187.1,74,187.1z"/>
</g>
<g>
	<path fill="#D3957D" d="M74.8,145.6c-0.9-2.7-2.2-5.3-3.8-7.7c-1.5-2.3-3.4-4.6-6-5.4c-3.5-1.1-7.2,0.4-10.5,1.9
		c-0.4,0.2-0.8,0.4-1.3,0.6c-1.9,0.8-4,1.9-4.5,3.9c-0.2,0.9-0.1,1.9,0.1,2.8c0.6,2.8,1.6,5.6,2.9,8.2c1.6,3.4,3.6,6.7,6.8,8.6
		c0.9,0.5,1.9,0.9,2.9,1c1.4,0,2.6-0.6,3.8-1.2c3.4-1.8,6.9-4,9-7.2c0.6-0.9,1.1-1.8,1.1-2.8C75.4,147.4,75.1,146.5,74.8,145.6z"/>
</g>
<g>
	<path fill="#AA5B3F" d="M61.5,160.7L61.5,160.7c-0.1,0-0.1,0-0.2,0c-1.1,0-2.2-0.4-3.5-1.1c-3.6-2.2-5.8-6-7.2-9.1
		c-1.5-3.1-2.4-5.8-3-8.5c-0.2-1.1-0.4-2.2-0.1-3.4c0.7-2.7,3.6-4,5.1-4.7l1.3-0.6c2.7-1.2,5.5-2.4,8.4-2.4c1,0,2,0.2,2.9,0.5
		c3.2,1.1,5.3,3.9,6.6,5.9c1.6,2.5,2.9,5.2,3.9,8c0.3,0.9,0.7,2,0.6,3.1c-0.1,1.1-0.5,2.2-1.3,3.4c-2.4,3.6-6.1,5.9-9.5,7.6
		C64.5,160.1,63.1,160.7,61.5,160.7z M62.5,133.3c-2.4,0-5,1.1-7.4,2.2l-1.3,0.6c-1.6,0.7-3.4,1.7-3.8,3.1c-0.2,0.7-0.1,1.5,0.1,2.3
		c0.5,2.4,1.4,5,2.8,7.9c1.3,2.8,3.2,6.3,6.3,8.1c0.9,0.5,1.6,0.8,2.3,0.8c0,0,0.1,0,0.1,0c1,0,2.1-0.5,3.1-1.1
		c3.1-1.6,6.5-3.7,8.6-6.8c0.6-0.9,0.9-1.6,0.9-2.2c0-0.7-0.2-1.5-0.5-2.2c-0.9-2.6-2.1-5.1-3.7-7.4c-1.8-2.7-3.5-4.3-5.4-4.9
		C64,133.4,63.3,133.3,62.5,133.3z"/>
</g>
<g>
	<path fill="#FBFCFA" d="M73.8,113.2c0,0,4.1,14.2,19.8,19.5c0,0,7.3-2.8,11.6-18.6c0,0,5.9,2.7,7.9,3.9c0,0-3.9,20.1-19,24.3
		c0,0-24.7-7.7-28.2-26.7C65.9,115.6,69.9,114,73.8,113.2z"/>
</g>
<g>
	<path fill="#77787C" d="M94.1,143.5l-0.3-0.1c-0.3-0.1-6.4-2-13.1-6.4c-8.9-5.8-14.4-13.2-15.9-21.2l-0.2-1l0.9-0.4
		c0.2-0.1,4.1-1.6,8.1-2.5l1.1-0.2l0.3,1.1c0,0.1,4,13.3,18.5,18.5c0.6-0.3,1.9-1.2,3.5-3c2-2.3,4.9-6.8,7-14.5l0.4-1.4l1.3,0.6
		c0.2,0.1,6,2.8,8,4l0.7,0.4l-0.2,0.8c0,0.2-1,5.3-3.9,10.9c-3.9,7.6-9.4,12.5-15.9,14.3L94.1,143.5z M67.3,116.4
		c3.7,16.2,24,23.7,26.8,24.7c12.3-3.6,16.7-18.7,17.6-22.4c-1.6-0.9-4.2-2.1-5.8-2.9c-4.5,14.9-11.6,17.9-11.9,18l-0.4,0.2
		l-0.4-0.1c-13.7-4.6-18.9-15.7-20.2-19.2C70.7,115.1,68.5,115.9,67.3,116.4z"/>
</g>
</svg>
