<?xml version="1.0" encoding="utf-8"?>
<!-- Generator: Adobe Illustrator 17.1.0, SVG Export Plug-In . SVG Version: 6.00 Build 0)  -->
<!DOCTYPE svg PUBLIC "-//W3C//DTD SVG 1.1//EN" "http://www.w3.org/Graphics/SVG/1.1/DTD/svg11.dtd">
<svg version="1.1" id="Layer_1" xmlns="http://www.w3.org/2000/svg" xmlns:xlink="http://www.w3.org/1999/xlink" x="0px" y="0px"
	 viewBox="0 0 971.6 892.9" enable-background="new 0 0 971.6 892.9" xml:space="preserve">
<rect x="2" y="1" fill="#03D0FF" width="970.1" height="892.2"/>
<g opacity="0.5">
	<g>
		<circle fill="#FFFFFF" cx="449.2" cy="499.1" r="323.9"/>
	</g>
</g>
<g>
	<polygon fill="#74D3ED" points="285,607.3 285,607.3 285,607.3 	"/>
	<path fill="#74D3ED" d="M330.3,800.6C367,815.1,407,823,448.9,823c8.8,0,17.4-0.4,26-1c5.3-61.7,3.9-136.2,3.9-137.1l8-0.2
		c0,0.3,0.5,28.9-0.3,64.9c-0.5,20.8-1.5,46.9-3.5,71.6c39.6-4.1,77.1-15.4,111.2-32.6c4-17.1,6.3-33.7,7.6-47.8
		c3.5-37.2,1.3-66,1.2-66.3l4-0.3v0l-318-66.2C288.7,655.6,312.4,742.2,330.3,800.6z"/>
	<path fill="#59B8E2" d="M598.8,786.3c1.5-0.8,3.1-1.6,4.6-2.4c3.2-15.1,5.1-29.6,6.3-42.2c3.6-37.9,1.3-67.4,1.3-67.7l-4,0.3
		C607,674.3,611.4,728.8,598.8,786.3z"/>
	<path fill="#59B8E2" d="M289,607.3l-4-0.1l4,0.8C289,607.8,289,607.6,289,607.3z"/>
	<path fill="#59B8E2" d="M285,607.3l-4-0.1c-0.4,32.3,9.8,85.3,30.3,157.5c3.2,11.1,6.3,21.9,9.4,31.9c1.6,0.7,3.2,1.4,4.8,2
		C307.5,739.8,284.4,654.5,285,607.3z"/>
	<path fill="#59B8E2" d="M601.8,740.9c-1.3,14.1-3.7,30.7-7.6,47.8c1.6-0.8,3.1-1.6,4.7-2.4c12.6-57.5,8.2-112,8.2-112l-4,0.3
		C603,674.9,605.3,703.7,601.8,740.9z"/>
	<path fill="#59B8E2" d="M325.5,798.7c1.6,0.7,3.2,1.3,4.8,1.9c-17.9-58.4-41.6-145-41.3-192.5l-4-0.8h0
		C284.4,654.5,307.5,739.8,325.5,798.7z"/>
	<path fill="#59B8E2" d="M482.8,684.8c0,0,1.5,74.5-3.9,136.9c1.3-0.1,2.7-0.3,4-0.4c2.1-24.7,3.1-50.8,3.5-71.6
		c0.8-36,0.3-64.6,0.3-64.9l-8,0.2c0,0.9,1.4,75.5-3.9,137.1c0.4,0,0.7-0.1,1.1-0.1L482.8,684.8z"/>
	<path fill="#59B8E2" d="M482.8,684.8L476,821.9c1-0.1,2-0.2,2.9-0.3C484.2,759.3,482.8,684.8,482.8,684.8z"/>
</g>
<g>
	<g>
		<g>
			<g>
				<g>
					<path fill="#403942" d="M334.9,515.5c-0.5,0-1.1,0-1.6-0.1c-3.7-0.4-7-2.3-9.4-5.2c-2.3-2.9-3.4-6.6-2.9-10.3
						c7-59.6,49.5-119.5,51.3-122c2.6-3.7,6.9-5.8,11.4-5.8c2.9,0,5.8,0.9,8.2,2.6c3,2.2,5,5.4,5.6,9.1c0.6,3.7-0.3,7.4-2.4,10.4
						c-0.4,0.6-40.1,56.5-46.3,108.9c-0.7,5.9-5.1,10.8-10.9,12C336.9,515.4,335.9,515.5,334.9,515.5z"/>
				</g>
			</g>
			<g>
				<g>
					<path fill="#231F20" d="M383.7,376.1c2,0,4.1,0.6,5.8,1.9c4.5,3.2,5.5,9.5,2.3,14c-0.4,0.6-40.7,57.3-47,110.8
						c-0.5,4.3-3.7,7.7-7.8,8.6c-0.7,0.2-1.4,0.2-2.1,0.2c-0.4,0-0.8,0-1.2-0.1c-5.5-0.6-9.4-5.6-8.8-11.1
						c6.9-58.6,48.8-117.6,50.6-120.1C377.5,377.5,380.6,376.1,383.7,376.1 M383.7,368.1c-5.8,0-11.3,2.8-14.6,7.5
						c-1.8,2.6-45,63.2-52.1,123.9c-0.6,4.8,0.8,9.5,3.8,13.3c3,3.8,7.3,6.2,12,6.7c0.7,0.1,1.4,0.1,2.1,0.1c1.3,0,2.6-0.1,3.9-0.4
						c7.5-1.6,13.1-7.9,14-15.5c6-51.2,45.2-106.5,45.6-107c2.8-3.9,3.9-8.7,3.1-13.4c-0.8-4.7-3.4-8.9-7.3-11.7
						C391.1,369.3,387.5,368.1,383.7,368.1L383.7,368.1z"/>
				</g>
			</g>
		</g>
	</g>
	<g>
		<g>
			<g>
				<g>
					<path fill="#403942" d="M398,539.2c-6.5,0-12.1-4.4-13.6-10.8c-13.9-58.4,5.6-129.2,6.5-132.2c1.7-6,7.2-10.2,13.5-10.2
						c1.3,0,2.5,0.2,3.8,0.5c3.6,1,6.6,3.4,8.4,6.6c1.8,3.3,2.3,7,1.3,10.6c-0.2,0.7-18.4,66.8-6.2,118.2c1.4,5.8-1.1,11.9-6.1,15.1
						c-1.3,0.8-2.8,1.4-4.3,1.8C400.2,539.1,399.1,539.2,398,539.2L398,539.2z"/>
				</g>
			</g>
			<g>
				<g>
					<path fill="#231F20" d="M404.3,390c0.9,0,1.8,0.1,2.7,0.4c5.3,1.5,8.4,7,6.9,12.3c-0.2,0.7-18.7,67.7-6.2,120.2
						c1,4.3-0.9,8.5-4.4,10.8c-0.9,0.6-1.9,1-3.1,1.3c-0.8,0.2-1.6,0.3-2.3,0.3c-4.5,0-8.6-3.1-9.7-7.7
						c-13.6-57.4,5.6-127.2,6.4-130.2C395.9,392.9,400,390,404.3,390 M404.3,382c-8,0-15.2,5.4-17.3,13.1
						c-0.8,3-20.6,74.8-6.5,134.2c1.9,8.2,9.1,13.8,17.5,13.8c1.4,0,2.8-0.2,4.2-0.5c2-0.5,3.8-1.2,5.5-2.3
						c6.5-4.1,9.6-11.9,7.9-19.4c-11.9-50.2,6-115.5,6.2-116.2c1.3-4.6,0.7-9.5-1.6-13.7c-2.4-4.2-6.2-7.2-10.8-8.5
						C407.6,382.2,406,382,404.3,382L404.3,382z"/>
				</g>
			</g>
		</g>
	</g>
	<g>
		<g>
			<g>
				<g>
					<path fill="#403942" d="M253,432.5c-1.2,0-2.4-0.2-3.6-0.5c-1.5-0.4-2.9-1-4.2-1.9c-3.1-2.1-5.2-5.3-5.9-8.9s0-7.4,2.1-10.5
						c33.5-49.8,98.8-83.5,101.5-84.9c2-1,4.2-1.5,6.4-1.5c5.3,0,10.1,2.9,12.5,7.6c1.7,3.3,2,7.1,0.9,10.7c-1.2,3.6-3.6,6.5-7,8.2
						c-0.6,0.3-61.6,31.8-91,75.6C262,430.2,257.7,432.5,253,432.5L253,432.5z"/>
				</g>
			</g>
			<g>
				<g>
					<path fill="#231F20" d="M349.3,328.3c3.6,0,7.1,2,8.9,5.5c2.5,4.9,0.6,10.9-4.4,13.5c-0.6,0.3-62.4,32.2-92.5,76.9
						c-1.9,2.9-5.1,4.4-8.3,4.4c-0.9,0-1.7-0.1-2.6-0.3c-1-0.3-2.1-0.7-3-1.4c-4.6-3.1-5.8-9.3-2.7-13.9
						c32.9-48.9,97.3-82.2,100-83.6C346.2,328.6,347.8,328.3,349.3,328.3 M349.3,320.3c-2.8,0-5.7,0.7-8.2,2
						c-2.8,1.4-68.9,35.6-103,86.2c-2.7,4-3.7,8.8-2.7,13.5c0.9,4.7,3.6,8.8,7.6,11.5c1.7,1.1,3.5,2,5.4,2.5
						c1.5,0.4,3.1,0.6,4.6,0.6c6,0,11.6-3,14.9-8c28.8-42.8,88.9-74,89.5-74.3c4.3-2.2,7.4-5.9,8.9-10.5c1.5-4.6,1.1-9.5-1.1-13.7
						C362.2,324,356.1,320.3,349.3,320.3L349.3,320.3z"/>
				</g>
			</g>
		</g>
	</g>
	<g>
		<g>
			<g>
				<g>
					<path fill="#403942" d="M287.5,482.7c-1.6,0-3.1-0.3-4.6-0.8c-3.5-1.2-6.4-3.7-8-7.1c-1.6-3.4-1.9-7.2-0.6-10.7
						c19.6-56.7,74-106,76.3-108.1c2.6-2.3,5.9-3.6,9.4-3.6c4,0,7.8,1.7,10.4,4.6c2.5,2.8,3.8,6.4,3.6,10.1
						c-0.2,3.7-1.8,7.2-4.6,9.7c-0.5,0.5-51.3,46.6-68.6,96.4C298.7,478.9,293.4,482.7,287.5,482.7z"/>
				</g>
			</g>
			<g>
				<g>
					<path fill="#231F20" d="M359.9,356.4c2.7,0,5.5,1.1,7.4,3.3c3.7,4.1,3.4,10.4-0.8,14.1c-0.5,0.5-52.1,47.2-69.7,98.1
						c-1.4,4.1-5.3,6.7-9.5,6.7c-1.1,0-2.2-0.2-3.3-0.6c-5.2-1.8-8-7.5-6.2-12.7c19.3-55.8,72.9-104.4,75.2-106.5
						C355.1,357.3,357.5,356.4,359.9,356.4 M359.9,348.4c-4.4,0-8.7,1.6-12,4.6c-2.3,2.1-57.5,52.1-77.4,109.8
						c-1.6,4.5-1.3,9.4,0.8,13.8c2.1,4.3,5.8,7.6,10.3,9.1c1.9,0.7,3.9,1,5.9,1c7.7,0,14.5-4.9,17-12.1c16.8-48.7,67-94.3,67.5-94.8
						c3.6-3.2,5.7-7.6,5.9-12.4c0.3-4.8-1.4-9.4-4.6-13C369.9,350.6,365,348.4,359.9,348.4L359.9,348.4z"/>
				</g>
			</g>
		</g>
	</g>
</g>
<g>
	<g>
		<g>
			<g>
				<g>
					<path fill="#403942" d="M574,514.7c-1,0-2-0.1-3-0.3c-5.8-1.3-10.2-6.1-10.9-12C554,450,514.2,394,513.8,393.5
						c-2.2-3-3-6.7-2.4-10.4c0.6-3.7,2.6-6.9,5.6-9.1c2.4-1.7,5.2-2.6,8.2-2.6c4.5,0,8.8,2.2,11.4,5.8c1.8,2.5,44.4,62.4,51.3,122
						c0.4,3.7-0.6,7.4-2.9,10.3c-2.3,2.9-5.6,4.8-9.4,5.2C575.1,514.7,574.6,514.7,574,514.7z"/>
				</g>
			</g>
			<g>
				<g>
					<path fill="#231F20" d="M525.2,375.3c3.1,0,6.2,1.4,8.1,4.2c1.8,2.5,43.8,61.5,50.6,120.1c0.6,5.5-3.3,10.5-8.8,11.1
						c-0.4,0-0.8,0.1-1.2,0.1c-0.7,0-1.4-0.1-2.1-0.2c-4-0.9-7.3-4.3-7.8-8.6c-6.3-53.5-46.6-110.2-47-110.8
						c-3.2-4.5-2.2-10.7,2.3-14C521.1,375.9,523.2,375.3,525.2,375.3 M525.2,367.3L525.2,367.3c-3.8,0-7.4,1.2-10.5,3.4
						c-3.9,2.8-6.5,7-7.3,11.7c-0.8,4.7,0.3,9.5,3.1,13.4c0.4,0.5,39.6,55.8,45.6,107c0.9,7.6,6.5,13.8,14,15.5
						c1.3,0.3,2.6,0.4,3.9,0.4c0.7,0,1.4,0,2.1-0.1c4.8-0.6,9-2.9,12-6.7c3-3.8,4.3-8.5,3.8-13.3c-7.1-60.6-50.2-121.3-52.1-123.9
						C536.5,370.1,531,367.3,525.2,367.3L525.2,367.3z"/>
				</g>
			</g>
		</g>
	</g>
	<g>
		<g>
			<g>
				<g>
					<path fill="#403942" d="M510.9,538.4c-1.1,0-2.2-0.1-3.2-0.4c-1.5-0.4-3-1-4.3-1.8c-5-3.2-7.5-9.2-6.1-15.1
						c12.2-51.3-6-117.5-6.2-118.2c-1-3.6-0.6-7.4,1.3-10.6c1.8-3.3,4.8-5.6,8.4-6.6c1.2-0.3,2.5-0.5,3.8-0.5
						c6.2,0,11.8,4.2,13.5,10.2c0.8,3,20.3,73.8,6.5,132.2C523,534,517.4,538.4,510.9,538.4z"/>
				</g>
			</g>
			<g>
				<g>
					<path fill="#231F20" d="M504.6,389.2c4.4,0,8.4,2.9,9.6,7.3c0.8,2.9,20.1,72.8,6.4,130.2c-1.1,4.6-5.2,7.7-9.7,7.7
						c-0.8,0-1.5-0.1-2.3-0.3c-1.1-0.3-2.1-0.7-3.1-1.3c-3.5-2.2-5.4-6.5-4.4-10.8c12.4-52.4-6-119.5-6.2-120.2
						c-1.5-5.3,1.6-10.8,6.9-12.3C502.8,389.3,503.7,389.2,504.6,389.2 M504.6,381.2c-1.6,0-3.3,0.2-4.9,0.7
						c-4.6,1.3-8.5,4.3-10.8,8.5c-2.4,4.2-2.9,9-1.6,13.7c0.2,0.6,18.1,66,6.2,116.2c-1.8,7.5,1.4,15.2,7.9,19.4
						c1.7,1.1,3.5,1.9,5.5,2.3c1.4,0.3,2.8,0.5,4.2,0.5c8.4,0,15.6-5.7,17.5-13.8c14.1-59.4-5.7-131.2-6.5-134.2
						C519.7,386.6,512.6,381.2,504.6,381.2L504.6,381.2z"/>
				</g>
			</g>
		</g>
	</g>
	<g>
		<g>
			<g>
				<g>
					<path fill="#403942" d="M655.9,431.7c-4.7,0-9-2.3-11.6-6.2c-29.5-43.8-90.4-75.3-91-75.6c-3.3-1.7-5.8-4.6-7-8.2
						c-1.2-3.6-0.9-7.4,0.9-10.7c2.4-4.7,7.2-7.6,12.5-7.6c2.2,0,4.4,0.5,6.4,1.5c2.8,1.4,68,35.1,101.5,84.9
						c2.1,3.1,2.8,6.8,2.1,10.5c-0.7,3.7-2.8,6.8-5.9,8.9c-1.3,0.9-2.7,1.5-4.2,1.9C658.3,431.6,657.1,431.7,655.9,431.7z"/>
				</g>
			</g>
			<g>
				<g>
					<path fill="#231F20" d="M559.6,327.5c1.5,0,3.1,0.4,4.5,1.1c2.7,1.4,67.1,34.6,100,83.6c3.1,4.6,1.9,10.8-2.7,13.9
						c-0.9,0.6-2,1.1-3,1.4c-0.8,0.2-1.7,0.3-2.6,0.3c-3.2,0-6.4-1.5-8.3-4.4c-30.1-44.7-91.9-76.6-92.5-76.9
						c-4.9-2.5-6.9-8.5-4.4-13.5C552.5,329.5,556,327.5,559.6,327.5 M559.6,319.5L559.6,319.5c-6.8,0-12.9,3.8-16,9.8
						c-2.2,4.3-2.6,9.2-1.1,13.7c1.5,4.6,4.7,8.3,8.9,10.5c0.6,0.3,60.7,31.5,89.5,74.3c3.4,5,8.9,8,14.9,8c1.6,0,3.1-0.2,4.6-0.6
						c1.9-0.5,3.8-1.3,5.4-2.5c4-2.7,6.7-6.8,7.6-11.5c0.9-4.7,0-9.5-2.7-13.5c-34.1-50.6-100.2-84.8-103-86.2
						C565.3,320.2,562.5,319.5,559.6,319.5L559.6,319.5z"/>
				</g>
			</g>
		</g>
	</g>
	<g>
		<g>
			<g>
				<g>
					<path fill="#403942" d="M621.5,481.9c-6,0-11.3-3.8-13.2-9.4c-17.2-49.8-68.1-96-68.6-96.4c-2.8-2.5-4.4-5.9-4.6-9.7
						c-0.2-3.7,1.1-7.3,3.6-10.1c2.7-3,6.4-4.6,10.4-4.6c3.5,0,6.8,1.3,9.4,3.6c2.3,2.1,56.7,51.4,76.3,108.1
						c1.2,3.5,1,7.3-0.6,10.7c-1.6,3.4-4.5,5.9-8,7.1C624.6,481.7,623,481.9,621.5,481.9z"/>
				</g>
			</g>
			<g>
				<g>
					<path fill="#231F20" d="M549,355.7c2.4,0,4.8,0.8,6.7,2.6c2.3,2,55.9,50.7,75.2,106.5c1.8,5.2-1,10.9-6.2,12.7
						c-1.1,0.4-2.2,0.6-3.3,0.6c-4.1,0-8-2.6-9.5-6.7c-17.6-50.9-69.2-97.6-69.7-98.1c-4.1-3.7-4.4-10-0.8-14.1
						C543.5,356.8,546.3,355.7,549,355.7 M549,347.7L549,347.7c-5.1,0-10,2.2-13.4,6c-3.2,3.6-4.8,8.2-4.6,13
						c0.3,4.8,2.4,9.2,5.9,12.4c0.5,0.4,50.6,46,67.5,94.8c2.5,7.3,9.3,12.1,17,12.1c2,0,4-0.3,5.9-1c4.5-1.6,8.2-4.8,10.3-9.1
						c2.1-4.3,2.4-9.2,0.8-13.8c-19.9-57.7-75.1-107.7-77.4-109.8C557.7,349.3,553.5,347.7,549,347.7L549,347.7z"/>
				</g>
			</g>
		</g>
	</g>
</g>
<g>
	<g>
		<path fill="#FBFCFA" d="M504.5,664.3c93.9,51.9,153.3,28,178.6,11.3c9-6,12.4-16.5,12-27.3c-3.8-106-84-141.6-84-141.6
			s-7,36.5-36.3,70.6"/>
	</g>
	<g>
		<path fill="#77787C" d="M611.5,699.8c-33.8,0-70.4-10.8-108.9-32.1l3.9-7c40.4,22.3,78.4,32.7,112.9,30.9
			c28.9-1.5,49.4-11.4,61.6-19.4c9.4-6.2,10.4-17.6,10.2-23.8c-1.9-53.5-24.1-88.3-42.4-108c-14.2-15.3-28.1-24.1-35-27.9
			c-3,11.4-12.5,40-36,67.3l-6.1-5.2c28.3-32.9,35.3-68.4,35.4-68.7l0.9-5l4.6,2c0.9,0.4,21.1,9.5,41.9,32
			c19.2,20.7,42.5,57.2,44.5,113.1c0.5,13.7-4.4,24.6-13.8,30.8c-12.9,8.5-34.8,19.1-65.5,20.7C617,699.8,614.2,699.8,611.5,699.8z"
			/>
	</g>
</g>
<g>
	<g>
		<path fill="#74D3ED" d="M288.5,497c0,0,23.8-9.2,44.9-4.3c0,0,116.3-62.1,213.7-0.3c0,0,39.6,0.2,73.9,18.5
			c0,0-10.1,24.8-31.7,53.7L417.3,685l-75.6-61.8c0,0-18.1-30.9-34.7-50C307,573.3,282,526.9,288.5,497z"/>
	</g>
	<g>
		<path fill="#59B8E2" d="M417.1,690.1l-78.5-64.1l-0.4-0.6c-0.2-0.3-18.1-30.8-34.2-49.4l-0.3-0.3l-0.2-0.4c-1-1.9-25.6-48-18.9-79
			l0.5-2.1l2-0.8c0.6-0.2,15.7-6,32.9-6c4.6,0,8.9,0.4,12.9,1.2c8.7-4.4,57-27.5,115.8-27.5c37,0,70.5,9.2,99.6,27.4
			c7,0.2,42.7,1.9,74.6,19l3.2,1.7l-1.4,3.3c-0.4,1-10.5,25.6-32.2,54.6l-0.4,0.5L417.1,690.1z M344.8,620.6l72.7,59.4l169-118.3
			c16.3-21.9,25.9-41.4,29.3-48.9c-32.2-16-68.4-16.4-68.8-16.4l-1.2,0l-1-0.6c-28-17.8-60.4-26.8-96.3-26.8
			c-61.6,0-112.9,26.9-113.4,27.2l-1.3,0.7l-1.5-0.3c-3.8-0.9-8.1-1.3-12.6-1.3c-12.2,0-23.4,3.3-27.9,4.7
			c-4.3,26.9,16.1,66.7,18.3,71C325.7,588.9,342,616.1,344.8,620.6z"/>
	</g>
</g>
<g>
	<g>
		<path fill="#D3957D" d="M361.5,388.6c0,3.9,35.8,54.4,40.8,86.6c5.2,33.6,8.2,31.4,8.2,31.4l-4.3,3.4l45.5,36.1l61.8-51l-6.3-7.8
			c0,0-10-44.8,41.7-109.7"/>
	</g>
	<g>
		<path fill="#AA5B3F" d="M451.8,551.2l-52-41.2l5.3-4.1c-1.8-4.2-3.9-12.6-6.6-30.1c-3.4-22.2-22.6-54.5-33-71.8
			c-6.8-11.3-7.8-13.3-7.8-15.4h8c0-0.4-0.1-0.7-0.1-0.7c0.4,1.3,3.7,6.7,6.8,12c11.4,19.1,30.4,51,34,74.7
			c3.8,24.8,6.3,28.7,6.6,29.1c-0.6-0.8-2.8-1.7-4.7-0.3l4.8,6.4l-0.3,0.2l39,30.9l56.3-46.4l-4.4-5.4l-0.2-0.9
			c-0.4-1.9-9.8-47.4,42.5-113l6.3,5C506,438,510.1,479.2,511,485.6l8.1,10L451.8,551.2z"/>
	</g>
</g>
<g>
	<g>
		<path fill="#231F20" d="M449.7,336.3c2.9,0,5.7,0.2,8.6,0.7l42.6,6.6c6.2,0.9,10.5,6.6,9.8,12.8l-1.1,10l59.2-26.5
			c-1.1,17.1-8.4,33.2-20.6,45.2l-51.4,54c-1.2,1.2-2.5,2.4-3.9,3.3c-8,5.3-21.6,11.3-43.1,11.8c-21.5-0.6-35.1-6.6-43.1-11.8
			c-1.4-1-2.7-2.1-3.9-3.3l-51.5-54c-12.2-12-19.5-28.1-20.6-45.2l11.9,5.9l47.3,20.6l-1.1-10c-0.7-6.2,3.6-11.9,9.8-12.8l42.6-6.6
			C443.9,336.5,446.8,336.3,449.7,336.3 M449.7,402.3l32.5-0.8c4.3-0.1,7.9-3.3,8.5-7.6l4.6-34.2c0.2-1.3-0.7-2.5-2-2.8l-40.1-7.6
			c-1.1-0.2-2.3-0.3-3.5-0.3s-2.3,0.1-3.5,0.3l-40.1,7.6c-1.3,0.2-2.2,1.5-2,2.8l4.6,34.2c0.6,4.3,4.2,7.5,8.5,7.6L449.7,402.3
			 M449.7,328.3c-3.3,0-6.6,0.3-9.8,0.8l-42.6,6.6c-9.2,1.4-16,9-16.6,18l-34.8-15.2l-11.7-5.8c-1.1-0.6-2.3-0.8-3.6-0.8
			c-1.6,0-3.1,0.5-4.4,1.3c-2.4,1.6-3.7,4.3-3.6,7.2c1.2,19,9.3,36.9,22.9,50.3l51.4,54c1.6,1.7,3.4,3.2,5.3,4.4
			c8.5,5.7,23.7,12.6,47.3,13.2c0.1,0,0.1,0,0.2,0c0.1,0,0.1,0,0.2,0c23.6-0.6,38.8-7.5,47.3-13.2c1.9-1.3,3.7-2.8,5.3-4.5
			l51.3-53.9c13.5-13.4,21.6-31.3,22.9-50.3c0.2-2.8-1.1-5.5-3.4-7.1c-1.4-0.9-3-1.4-4.6-1.4c-1.1,0-2.2,0.2-3.3,0.7l-46.8,21
			c-0.7-9-7.4-16.5-16.6-17.9l-42.6-6.6C456.3,328.5,452.9,328.3,449.7,328.3L449.7,328.3z M412.7,363.7l35-6.6
			c0.6-0.1,1.3-0.2,2-0.2s1.3,0.1,2,0.2l35,6.6l-3.9,29.1c-0.1,0.4-0.4,0.7-0.8,0.7l-32.3,0.8l-32.3-0.8c-0.4,0-0.7-0.3-0.7-0.7
			L412.7,363.7L412.7,363.7z"/>
	</g>
</g>
<g>
	<g>
		<path fill="#3B353D" d="M568.7,339.9l-59.2,26.5l1.1-10c0.7-6.2-3.6-11.9-9.8-12.8l-42.6-6.6c-5.7-0.9-11.5-0.9-17.2,0l-42.6,6.6
			c-6.2,0.9-10.5,6.6-9.8,12.8l1.1,10l-47.3-20.6l-11.9-5.9c1.1,17.1,8.4,33.2,20.6,45.2l51.5,54c1.2,1.2,2.5,2.3,3.9,3.3
			c8,5.3,21.6,11.3,43.1,11.8c21.5-0.6,35.1-6.6,43.1-11.8c1.4-1,2.8-2.1,3.9-3.3l51.4-54C560.3,373,567.6,357,568.7,339.9
			 M495.3,359.6l-4.6,34.2c-0.6,4.3-4.2,7.5-8.5,7.6l-32.5,0.8l-32.5-0.8c-4.3-0.1-7.9-3.3-8.5-7.6l-4.6-34.2
			c-0.2-1.3,0.7-2.5,2-2.8l40.1-7.6c2.3-0.4,4.6-0.4,6.9,0l40.1,7.6C494.6,357.1,495.4,358.3,495.3,359.6z"/>
	</g>
</g>
<g>
	<g>
		<ellipse fill="#403942" cx="449.7" cy="246.6" rx="142.8" ry="149.2"/>
	</g>
	<g>
		<path fill="#231F20" d="M449.7,399.8c-81,0-146.8-68.7-146.8-153.2S368.7,93.5,449.7,93.5c81,0,146.8,68.7,146.8,153.2
			S530.6,399.8,449.7,399.8z M449.7,101.5c-76.5,0-138.8,65.1-138.8,145.2s62.3,145.2,138.8,145.2c76.5,0,138.8-65.1,138.8-145.2
			S526.2,101.5,449.7,101.5z"/>
	</g>
</g>
<g>
	<g>
		<circle fill="#CE866A" cx="570.7" cy="303.4" r="21.7"/>
	</g>
</g>
<g>
	<g>
		<circle fill="#CE866A" cx="328.7" cy="303.4" r="21.7"/>
	</g>
</g>
<g>
	<g>
		<g>
			<path fill="#D3957D" d="M449.7,428.6c-52.6,0-99.4-39.9-117.4-99.8c-1.2,0.2-2.4,0.3-3.6,0.3c-14.2,0-25.7-11.5-25.7-25.7
				c0-12.8,9.4-23.4,21.7-25.4c0-0.6,0-1.2,0-1.8c0-39.9,13-76,36.5-101.6c22.9-25,54.4-38.7,88.5-38.7s65.6,13.8,88.5,38.7
				c23.5,25.6,36.5,61.7,36.5,101.6c0,0.6,0,1.2,0,1.8c12.3,1.9,21.7,12.6,21.7,25.3c0,14.2-11.5,25.7-25.7,25.7
				c-1.2,0-2.4-0.1-3.6-0.3C549,388.7,502.3,428.6,449.7,428.6z"/>
		</g>
	</g>
	<g>
		<g>
			<path fill="#AA5B3F" d="M449.7,139.9c66.8,0,121,54.4,121,136.3c0,1.8,0,3.7-0.1,5.5c0,0,0.1,0,0.1,0c12,0,21.7,9.7,21.7,21.7
				s-9.7,21.7-21.7,21.7c-2.2,0-4.4-0.3-6.4-1c-16.2,58.5-61.4,100.5-114.6,100.5c-53.2,0-98.3-42.1-114.6-100.5c-2,0.6-4.2,1-6.4,1
				c-12,0-21.7-9.7-21.7-21.7s9.7-21.7,21.7-21.7c0,0,0.1,0,0.1,0c-0.1-1.8-0.1-3.6-0.1-5.5C328.7,194.3,382.8,139.9,449.7,139.9
				 M449.7,131.9c-35.3,0-67.7,14.2-91.5,40c-11.9,12.9-21.1,28.3-27.5,45.7c-6.5,17.6-9.8,36.8-10,57.2
				c-12.5,3.5-21.7,15-21.7,28.6c0,16.4,13.3,29.7,29.7,29.7c0.3,0,0.5,0,0.8,0c19.2,59.8,66.8,99.5,120.2,99.5
				c53.5,0,101-39.7,120.2-99.5c0.3,0,0.5,0,0.8,0c16.4,0,29.7-13.3,29.7-29.7c0-13.6-9.2-25.1-21.7-28.6
				c-0.2-20.4-3.5-39.6-10-57.2c-6.4-17.4-15.7-32.7-27.5-45.7C517.4,146.2,484.9,131.9,449.7,131.9L449.7,131.9z"/>
		</g>
	</g>
</g>
<g>
	<g>
		<g>
			<path fill="#632C1D" d="M448.9,376.6c-5.8,0-11.5-0.7-17.1-2.1c-1.8-0.5-3.6-1-5.4-1.5l-7-2.1c-2.1-0.6-3.3-2.9-2.7-5
				c0.6-2.1,2.9-3.3,5-2.7l7,2.1c1.8,0.5,3.4,1,5.1,1.4c14.3,3.6,30,1.9,43.2-4.7c2-1,4.4-0.2,5.4,1.8c1,2,0.2,4.4-1.8,5.4
				C470.9,374.1,459.9,376.6,448.9,376.6z"/>
		</g>
	</g>
	<g>
		<g>
			<path fill="#AA5B3F" d="M467,326.6c-0.7,0-1.4-0.2-2-0.6c-15.1-9-30.4-0.1-30.6,0c-1.9,1.1-4.4,0.5-5.5-1.4s-0.5-4.4,1.4-5.5
				c0.8-0.5,19.6-11.4,38.8,0c1.9,1.1,2.5,3.6,1.4,5.5C469.7,325.9,468.4,326.6,467,326.6z"/>
		</g>
	</g>
	<g>
		<g>
			<g>
				<g>
					<path fill="#231F20" d="M512,327.7c-9.3,0-32.2-1.5-44.3-15.3l-0.3-0.4c-0.5-0.6-11.9-16.2-11.9-45.1c0-9.9,5.3-29.6,25.4-33.2
						c0.5-0.1,11.7-2,28.1-2c19.1,0,36.8,2.5,52.7,7.5c5.9,1.9,10,7,10.5,13.2c1,12.5,1.6,43.8-14.4,63.9c-1.4,1.8-3.3,3.2-5.4,4.2
						c-5.5,2.6-17.6,6.9-37.1,6.9C514.7,327.7,513.6,327.7,512,327.7z M478.4,303.5c8.7,9.5,27.9,10.3,33.6,10.3
						c1.6,0,2.5-0.1,2.5-0.1l0.4,0c17.6,0,27.8-3.9,31.3-5.6c0.2-0.1,0.4-0.2,0.5-0.3c12.9-16.2,12.3-43.2,11.4-54.1
						c0-0.5-0.3-0.9-0.8-1c-14.5-4.6-30.9-6.9-48.5-6.9c-15.2,0-25.5,1.8-25.6,1.8c-13.7,2.4-13.9,18.7-13.9,19.4
						C469.4,289.2,477.3,301.8,478.4,303.5z"/>
				</g>
			</g>
			<g>
				<g>
					<path fill="#231F20" d="M387.4,327.7c-1.6,0-2.7,0-3.1-0.1c-19.6,0-31.7-4.4-37.1-6.9c-2.2-1-4-2.5-5.4-4.2
						c-16-20.1-15.4-51.4-14.4-63.9c0.5-6.2,4.6-11.4,10.5-13.2c15.9-5,33.6-7.5,52.7-7.5c16.4,0,27.6,1.9,28,2
						c20.1,3.6,25.4,23.3,25.4,33.2c0,28.9-11.4,44.4-11.9,45.1l-0.3,0.4C419.5,326.3,396.6,327.7,387.4,327.7z M384.8,313.7
						c0,0,0.9,0.1,2.5,0.1c5.7,0,24.9-0.7,33.6-10.3c1.1-1.6,9-14.1,9-36.5c0-0.7-0.3-17-13.9-19.4c-0.1,0-10.5-1.8-25.6-1.8
						c-17.6,0-33.9,2.3-48.5,6.9c-0.4,0.1-0.7,0.5-0.8,1c-0.9,10.9-1.5,37.9,11.4,54.1c0.1,0.1,0.2,0.2,0.5,0.3
						c3.6,1.7,13.8,5.6,31.3,5.6L384.8,313.7L384.8,313.7z"/>
				</g>
			</g>
			<g>
				<g>
					<path fill="#231F20" d="M429.2,246.9c0,0,18.9,3.1,40.9,0c0,0-8,5.6-7.7,24c0,0-13.4-2-25.5,0
						C436.9,270.9,438.3,254.1,429.2,246.9z"/>
				</g>
				<g>
					<path fill="#231F20" d="M432.4,275.7l0.4-5.2c0.3-4.1-0.1-15.7-6.2-20.5l-12.1-9.6l15.3,2.5c0.1,0,8.3,1.3,19.9,1.3
						c6.9,0,13.5-0.5,19.8-1.4l16.5-2.4l-13.7,9.6l0,0c0,0-6.3,5-6,20.7l0.1,4.7l-4.7-0.7c-0.1,0-5.8-0.9-12.9-0.9
						c-4.2,0-8,0.3-11.3,0.9L432.4,275.7z M448.9,266c3.8,0,7.1,0.2,9.6,0.4c0.4-6.4,1.7-11.1,3.3-14.6c-3.9,0.3-8,0.5-12,0.5
						c-4.6,0-8.6-0.2-11.9-0.4c2.3,5.1,3,10.6,3.1,14.5C443.4,266.1,446.1,266,448.9,266z"/>
				</g>
			</g>
		</g>
		<g>
			<g>
				<g>
					<path fill="#231F20" d="M504.5,283.4c-4.1,0-7.2-4.1-7.2-9.5c0-5.4,3.1-9.5,7.2-9.5s7.2,4.1,7.2,9.5
						C511.6,279.3,508.6,283.4,504.5,283.4z"/>
				</g>
				<g>
					<path fill="#231F20" d="M504.5,283.9c-4.4,0-7.7-4.3-7.7-10s3.3-10,7.7-10c4.4,0,7.7,4.3,7.7,10S508.9,283.9,504.5,283.9z
						 M504.5,264.9c-3.8,0-6.7,3.9-6.7,9c0,5.1,2.9,9,6.7,9c3.8,0,6.7-3.9,6.7-9C511.1,268.8,508.3,264.9,504.5,264.9z"/>
				</g>
			</g>
		</g>
		<g>
			<g>
				<g>
					<path fill="#231F20" d="M394.6,284.1c-4.1,0-7.2-4.1-7.2-9.5c0-5.4,3.1-9.5,7.2-9.5s7.2,4.1,7.2,9.5
						C401.8,280,398.7,284.1,394.6,284.1z"/>
				</g>
				<g>
					<path fill="#231F20" d="M394.6,284.6c-4.4,0-7.7-4.3-7.7-10s3.3-10,7.7-10s7.7,4.3,7.7,10S399,284.6,394.6,284.6z M394.6,265.6
						c-3.8,0-6.7,3.9-6.7,9c0,5.1,2.9,9,6.7,9s6.7-3.9,6.7-9C401.3,269.5,398.4,265.6,394.6,265.6z"/>
				</g>
			</g>
		</g>
		<g>
			<g>
				<circle fill="none" cx="507.3" cy="271.1" r="2.8"/>
			</g>
		</g>
		<g>
			<g>
				<circle fill="none" cx="397.4" cy="271.1" r="2.8"/>
			</g>
		</g>
	</g>
</g>
<g>
	<g>
		<path fill="#403942" d="M568.7,340.4L509.6,367l1.1-10c0.7-6.2-3.6-11.9-9.8-12.8l-42.6-6.6c-5.7-0.9-11.5-0.9-17.2,0l-42.6,6.6
			c-6.2,0.9-10.5,6.6-9.8,12.8l1.1,10l-47.3-20.6l-11.9-5.9c1.1,17.1,8.4,33.2,20.6,45.2l51.5,54c1.2,1.2,2.5,2.3,3.9,3.3
			c8,5.3,21.6,11.3,43.1,11.8c21.5-0.6,35.1-6.6,43.1-11.8c1.4-1,2.8-2.1,3.9-3.3l51.4-54C560.3,373.6,567.6,357.5,568.7,340.4
			 M495.3,360.2l-4.6,34.2c-0.6,4.3-4.2,7.5-8.5,7.6l-32.5,0.8l-32.5-0.8c-4.3-0.1-7.9-3.3-8.5-7.6l-4.6-34.2
			c-0.2-1.3,0.7-2.5,2-2.8l40.1-7.6c2.3-0.4,4.6-0.4,6.9,0l40.1,7.6C494.6,357.6,495.4,358.8,495.3,360.2z"/>
	</g>
</g>
<g>
	<g>
		<path fill="#FBFCFA" d="M396,610.6c16-29.3,174.7-60.7,174.7-60.7c16.7,12,28.3,52.1,28.3,52.1
			C484.3,707.8,401.8,711.3,401.8,711.3c-72.2-5-145.8-116-145.8-116c-33-51,7-84,7-84c7-5.9,14.4-10,21.6-12.9
			c0,0,49.4,18.9,74.1,102.2"/>
	</g>
	<g>
		<path fill="#77787C" d="M401.7,715.3l-0.2,0c-31-2.1-65.5-22.7-102.6-61.1c-27.3-28.3-46.1-56.4-46.2-56.7
			c-18-27.8-15-50.6-9.3-64.8c6.2-15.4,16.6-24.1,17-24.5c6.7-5.7,14.3-10.2,22.7-13.5l1.4-0.6l1.4,0.6
			c2.1,0.8,51.5,20.5,76.5,104.8l-7.7,2.3c-21.5-72.8-62.3-95.2-70.3-99c-6.9,2.9-13.3,6.8-18.9,11.6c-1.6,1.3-36.8,31.5-6.2,78.8
			c0.7,1.1,73.1,109.1,142.4,114.2c2.2-0.1,22.3-1.8,54.6-14.9c31.2-12.6,80.3-38.7,138.1-91.6c-2.7-8.3-12.3-36.2-24.8-46.6
			c-63.1,12.6-159.2,38.2-170.2,58.3l-7-3.8c7.3-13.3,38.6-27.5,95.8-43.3c41.3-11.4,81.2-19.3,81.6-19.4l1.7-0.3l1.4,1
			c17.6,12.7,29.3,52.5,29.8,54.2l0,0c0.4,1.4,0,3-1.1,4l0,0c-59.7,55-110.7,82.1-142.9,95c-35.2,14.2-56.1,15.2-56.9,15.2
			L401.7,715.3z"/>
	</g>
</g>
<g>
	<g>
		<path fill="#80DBF5" d="M482.8,684.8c0,0-2.9-70.8-18.8-134.9"/>
	</g>
	<g>
		<path fill="#59B8E2" d="M478.8,685c0-0.7-3.1-71.2-18.7-134.1l7.8-1.9c15.8,63.7,18.9,134.9,18.9,135.7L478.8,685z"/>
	</g>
</g>
<g>
	<g>
		<g>
			<circle fill="#74D3ED" cx="552.3" cy="583.8" r="41.4"/>
			<path fill="#59B8E2" d="M552.3,629.1c-25,0-45.4-20.4-45.4-45.4s20.4-45.4,45.4-45.4s45.4,20.4,45.4,45.4
				S577.3,629.1,552.3,629.1z M552.3,546.4c-20.6,0-37.4,16.8-37.4,37.4s16.8,37.4,37.4,37.4s37.4-16.8,37.4-37.4
				S572.9,546.4,552.3,546.4z"/>
		</g>
		<g>
			<rect x="549.2" y="565.9" fill="#FBFCFA" width="8" height="58.2"/>
		</g>
		<g>
			<path fill="#FBFCFA" d="M537.4,588.6c-0.8,0-1.6-0.2-2.4-0.8c-1.8-1.3-2.2-3.8-0.9-5.6L549,562c0.7-0.9,1.8-1.5,2.9-1.6
				c1.2-0.1,2.3,0.3,3.1,1.2l15.8,15.8c1.6,1.6,1.6,4.1,0,5.7c-1.6,1.6-4.1,1.6-5.7,0l-12.5-12.5l-12,16.5
				C539.9,588,538.7,588.6,537.4,588.6z"/>
		</g>
		<g>
			<path fill="#59B8E2" d="M552.1,629.1c-25,0-45.4-20.4-45.4-45.4s20.4-45.4,45.4-45.4s45.4,20.4,45.4,45.4
				S577.2,629.1,552.1,629.1z M552.1,546.4c-20.6,0-37.4,16.8-37.4,37.4s16.8,37.4,37.4,37.4s37.4-16.8,37.4-37.4
				S572.7,546.4,552.1,546.4z"/>
		</g>
	</g>
	<g>
		<path fill="#FBFCFA" d="M520.4,577.5c-0.5,0-0.9-0.1-1.4-0.2c-2.1-0.8-3.1-3.1-2.4-5.1c7.9-21.5,27.2-24.8,28-24.9
			c2.2-0.3,4.2,1.2,4.6,3.3c0.3,2.2-1.1,4.2-3.3,4.6c-0.7,0.1-15.5,2.8-21.8,19.7C523.6,576.5,522.1,577.5,520.4,577.5z"/>
	</g>
</g>
<g>
	<g>
		<path fill="#FBFCFA" d="M379,587.3c4,1,14.9,20,14.9,20c16-29.3,176.6-57.3,176.6-57.3c16.7,12,28.3,52.1,28.3,52.1
			C484.1,707.8,401.6,711.3,401.6,711.3S315.9,625.7,309,623"/>
	</g>
</g>
<g>
	<g>
		<path fill="#74D3ED" d="M594.9,598.5c-1.2,0-2.3-0.5-3.1-1.4c-0.2-0.3-23.3-27.8-44.4-33.3c-1.8-0.5-3-2.1-3-3.9
			c0-1.8,1.3-3.4,3.1-3.8l12.5-2.9c2.2-0.5,4.4-0.7,6.6-0.7c9.5,0,18.4,4.6,23.8,12.3c6.5,9.5,9.4,19.6,8.5,30.1
			c-0.1,1.6-1.2,3-2.8,3.5C595.7,598.5,595.3,598.5,594.9,598.5z"/>
	</g>
	<g>
		<path fill="#59B8E2" d="M566.7,556.4c8,0,15.8,3.8,20.5,10.6c4.7,6.9,8.8,16.2,7.8,27.5c0,0-23.8-28.7-46.5-34.6L561,557
			C562.8,556.6,564.8,556.4,566.7,556.4 M566.7,548.4L566.7,548.4c-2.5,0-5,0.3-7.5,0.9l-12.5,2.9c-3.6,0.8-6.2,4-6.2,7.7
			s2.4,6.9,6,7.9c16.5,4.3,36.1,24.5,42.3,32c1.5,1.9,3.8,2.9,6.2,2.9c0.8,0,1.6-0.1,2.4-0.4c3.1-1,5.3-3.7,5.6-6.9
			c1-11.3-2.2-22.6-9.2-32.8C587.6,553.7,577.5,548.4,566.7,548.4L566.7,548.4z"/>
	</g>
</g>
<g>
	<polygon fill="#FBFCFA" points="536.8,556.5 568.6,563.1 596.3,595.9 593.3,604.8 552.1,585.8 	"/>
</g>
<g>
	<g>
		<path fill="#77787C" d="M401.6,715.3c-0.2,0-0.4,0-0.6,0c-0.5-0.1-11.5-1.6-19.3-3.8c-2.3-0.6-3.5-3.1-2.6-5.2l0-0.1
			c0.7-1.9,2.8-2.9,4.7-2.4c5.6,1.5,13.6,2.9,17.5,3.4c0.3,0,0.6,0.1,0.9,0c4-0.3,23.6-2.5,54-14.8c30.8-12.5,79-38.1,135.8-89.6
			c1.3-1.2,1.7-3.2,0.9-4.8c-10-19.4-21.5-28.7-30.6-33.9c-5.7-3.3-24.5-3.5-30.9-2.1c0,0-6.1,1-6.1,1
			c-51,11.1-112.3,27.6-127.3,43.5c-0.8,0.8-1.9,1.3-3.1,1.2c-1.2-0.1-2.2-0.6-3-1.5c-5.1-6.6-11.9-14.2-14-15.1
			c0.1,0,0.1,0,0.2,0.1l0.6-2.5c0.7-2.9,4.2-4,6.4-2c2.5,2.2,5.4,5.3,8.1,8.6c1.3,1.5,3.5,1.8,5.2,0.7c24.5-16,90.1-32.4,132.7-41.9
			c0,0,0,0,0,0c5.9-1.2,23.3-2.9,34.2,1.5c0.2,0.1,0.4,0.2,0.6,0.3c1.9,1.1,12.4,7.6,17.4,12.9c15.8,16.7,18.9,30.5,19.3,32.2
			c0.4,1.5,0,3-1.1,4.1c-59.7,55-110.7,82.1-142.9,95c-35.2,14.2-56.1,15.2-56.9,15.2C401.7,715.3,401.6,715.3,401.6,715.3z"/>
	</g>
</g>
<g>
	<g>
		<path fill="#D3957D" d="M404.5,576.6c-3.2-9-7.4-17.7-12.6-25.8c-5-7.7-11.4-15.2-20.1-18.1c-11.6-3.8-24,1.3-35.1,6.3
			c-1.4,0.6-2.8,1.3-4.3,1.9c-6.3,2.8-13.2,6.5-15,13.1c-0.8,3.1-0.3,6.4,0.3,9.5c2,9.5,5.5,18.6,9.6,27.4
			c5.3,11.2,12,22.5,22.6,28.9c2.9,1.8,6.2,3.1,9.7,3.3c4.5,0.1,8.8-1.9,12.8-4c11.5-6,22.9-13.2,30.1-24.1c1.9-2.9,3.5-6.1,3.7-9.5
			C406.4,582.5,405.5,579.5,404.5,576.6z"/>
	</g>
	<g>
		<path fill="#AA5B3F" d="M360,627C360,627,360,627,360,627c-0.2,0-0.4,0-0.6,0c-3.7-0.1-7.5-1.4-11.6-3.8
			c-12.2-7.3-19.3-20.2-24.2-30.6c-4.9-10.5-8-19.5-9.9-28.3c-0.7-3.6-1.3-7.4-0.3-11.3c2.4-9,12-13.4,17.2-15.7l4.3-1.9
			c9-4.1,18.5-8,28.2-8c3.5,0,6.8,0.5,9.8,1.5c10.8,3.6,17.8,13,22.2,19.7c5.4,8.3,9.8,17.3,13.1,26.6c1.1,3.1,2.2,6.6,1.9,10.5
			c-0.2,3.6-1.6,7.3-4.4,11.4c-8,12-20.5,19.6-31.6,25.4C369.9,624.8,365.2,627,360,627z M363.1,535.4c-8.1,0-16.7,3.6-24.9,7.3
			l-4.3,1.9c-5.5,2.5-11.5,5.6-12.8,10.5c-0.6,2.3-0.2,5,0.4,7.6c1.7,8.2,4.6,16.6,9.3,26.5c4.4,9.4,10.7,20.9,21.1,27.1
			c2.9,1.7,5.4,2.6,7.7,2.7c0.1,0,0.2,0,0.3,0c3.4,0,7.1-1.7,10.5-3.5c10.2-5.3,21.7-12.2,28.7-22.7c2-2.9,2.9-5.3,3.1-7.5
			c0.2-2.4-0.7-4.9-1.5-7.3c-3.1-8.7-7.2-17.1-12.2-24.9c-5.9-9.2-11.7-14.4-18-16.5C368.1,535.7,365.7,535.4,363.1,535.4z"/>
	</g>
</g>
<g>
	<g>
		<path fill="#FBFCFA" d="M401.1,467.9c0,0,13.6,47.3,66.1,65.1c0,0,24.3-9.5,38.8-62.1c0,0,19.8,9.1,26.3,13.1
			c0,0-12.9,67.3-63.5,81.2c0,0-82.6-25.8-94.3-89.2C374.7,476.1,388,470.8,401.1,467.9z"/>
	</g>
	<g>
		<path fill="#77787C" d="M468.9,569.5l-1.1-0.3c-0.9-0.3-21.4-6.8-43.8-21.3c-29.9-19.4-48.3-44-53.3-71l-0.6-3.2l3-1.2
			c0.6-0.2,13.8-5.5,27.1-8.4l3.7-0.8l1,3.6c0.1,0.4,13.5,44.6,62,61.9c2-1.1,6.5-4.1,11.7-10.2c6.8-7.8,16.3-22.6,23.5-48.6
			l1.2-4.5l4.3,2c0.8,0.4,20.1,9.2,26.8,13.4l2.3,1.5l-0.5,2.7c-0.1,0.7-3.5,17.6-13.2,36.5c-13,25.3-31.4,41.9-53.2,47.9
			L468.9,569.5z M379.3,478.6c12.4,54.1,80.2,79.2,89.8,82.5c41-12.1,55.8-62.7,58.8-75.1c-5.3-2.9-14-7.1-19.2-9.5
			c-15,50-38.9,59.8-39.9,60.2l-1.4,0.5l-1.4-0.5c-45.9-15.5-63.1-52.4-67.5-64.2C390.8,474.6,383.3,477.1,379.3,478.6z"/>
	</g>
</g>
</svg>
