<?xml version="1.0" encoding="utf-8"?>
<!-- Generator: Adobe Illustrator 17.1.0, SVG Export Plug-In . SVG Version: 6.00 Build 0)  -->
<!DOCTYPE svg PUBLIC "-//W3C//DTD SVG 1.1//EN" "http://www.w3.org/Graphics/SVG/1.1/DTD/svg11.dtd">
<svg version="1.1" id="Layer_1" xmlns="http://www.w3.org/2000/svg" xmlns:xlink="http://www.w3.org/1999/xlink" x="0px" y="0px"
	 viewBox="0 0 971.6 892.9" enable-background="new 0 0 971.6 892.9" xml:space="preserve">
<rect x="0.7" y="0.3" fill="#03D0FF" width="970.1" height="892.2"/>
<g opacity="0.5">
	<circle fill="#FFFFFF" cx="447.9" cy="502.6" r="322.5"/>
</g>
<g>
	<g>
		<g>
			<g>
				<path fill="#403942" d="M380.4,511.3c-1,0-2-0.1-3-0.3c-5.8-1.3-10.2-6.1-10.9-12c-6.1-52.2-45.7-107.9-46.1-108.4
					c-2.2-3-3-6.7-2.4-10.4c0.6-3.7,2.6-6.9,5.6-9.1c2.4-1.7,5.2-2.6,8.1-2.6c4.5,0,8.7,2.2,11.3,5.8c1.8,2.5,44.2,62.1,51.1,121.5
					c0.4,3.7-0.6,7.3-2.9,10.3c-2.3,2.9-5.6,4.8-9.3,5.2C381.5,511.3,381,511.3,380.4,511.3z"/>
			</g>
			<g>
				<path fill="#231F20" d="M331.8,372.5c3.1,0,6.2,1.4,8.1,4.2c1.8,2.5,43.6,61.2,50.4,119.6c0.6,5.5-3.3,10.4-8.7,11
					c-0.4,0-0.8,0.1-1.2,0.1c-0.7,0-1.4-0.1-2.1-0.2c-4-0.9-7.2-4.2-7.8-8.6c-6.2-53.3-46.4-109.7-46.8-110.3
					c-3.2-4.5-2.2-10.7,2.3-13.9C327.8,373.1,329.8,372.5,331.8,372.5 M331.8,364.5L331.8,364.5c-3.8,0-7.4,1.2-10.4,3.4
					c-3.9,2.8-6.5,6.9-7.2,11.7c-0.8,4.7,0.3,9.5,3.1,13.4c0.4,0.5,39.4,55.6,45.4,106.6c0.9,7.6,6.5,13.8,14,15.4
					c1.3,0.3,2.5,0.4,3.8,0.4c0.7,0,1.4,0,2.1-0.1c4.8-0.6,9-2.9,12-6.7c3-3.8,4.3-8.4,3.7-13.2c-7.1-60.4-50-120.8-51.8-123.3
					C343.1,367.3,337.6,364.5,331.8,364.5L331.8,364.5z"/>
			</g>
		</g>
	</g>
	<g>
		<g>
			<g>
				<path fill="#403942" d="M317.6,534.9c-1.1,0-2.2-0.1-3.2-0.4c-1.5-0.4-2.9-1-4.3-1.8c-5-3.2-7.5-9.2-6.1-15
					c12.1-51.1-6-117-6.2-117.7c-1-3.6-0.6-7.3,1.3-10.6c1.8-3.2,4.8-5.6,8.4-6.6c1.2-0.3,2.5-0.5,3.8-0.5c6.2,0,11.7,4.2,13.4,10.2
					c0.8,3,20.2,73.5,6.5,131.6C329.7,530.5,324.1,534.9,317.6,534.9z"/>
			</g>
			<g>
				<path fill="#231F20" d="M311.3,386.3c4.4,0,8.3,2.9,9.6,7.3c0.8,2.9,20,72.5,6.4,129.6c-1.1,4.6-5.2,7.7-9.7,7.7
					c-0.8,0-1.5-0.1-2.3-0.3c-1.1-0.3-2.1-0.7-3-1.3c-3.5-2.2-5.4-6.5-4.3-10.7c12.4-52.2-6-119-6.2-119.7
					c-1.5-5.3,1.6-10.8,6.9-12.3C309.5,386.4,310.4,386.3,311.3,386.3 M311.3,378.4c-1.6,0-3.3,0.2-4.8,0.7
					c-4.6,1.3-8.4,4.3-10.8,8.5c-2.3,4.2-2.9,9-1.6,13.6c0.2,0.6,18,65.7,6.1,115.7c-1.8,7.4,1.4,15.2,7.8,19.3
					c1.7,1.1,3.5,1.8,5.5,2.3c1.4,0.3,2.8,0.5,4.1,0.5c8.3,0,15.5-5.7,17.4-13.8c14-59.1-5.6-130.6-6.5-133.6
					C326.4,383.7,319.3,378.4,311.3,378.4L311.3,378.4z"/>
			</g>
		</g>
	</g>
	<g>
		<g>
			<g>
				<path fill="#403942" d="M462,428.7c-4.7,0-9-2.3-11.6-6.2c-29.3-43.6-90-75-90.6-75.3c-3.3-1.7-5.8-4.6-6.9-8.1
					c-1.1-3.5-0.8-7.3,0.8-10.6c2.4-4.7,7.2-7.6,12.4-7.6c2.2,0,4.4,0.5,6.3,1.5c2.7,1.4,67.7,34.9,101.1,84.5
					c2.1,3.1,2.8,6.8,2.1,10.5c-0.7,3.7-2.8,6.8-5.9,8.9c-1.3,0.9-2.7,1.5-4.2,1.9C464.4,428.5,463.2,428.7,462,428.7z"/>
			</g>
			<g>
				<path fill="#231F20" d="M366.1,324.9c1.5,0,3.1,0.4,4.5,1.1c2.7,1.4,66.8,34.5,99.6,83.2c3.1,4.6,1.9,10.7-2.7,13.8
					c-0.9,0.6-2,1.1-3,1.4c-0.8,0.2-1.7,0.3-2.5,0.3c-3.2,0-6.3-1.5-8.3-4.4c-30-44.5-91.5-76.3-92.1-76.6
					c-4.9-2.5-6.8-8.5-4.3-13.4C359,326.8,362.5,324.9,366.1,324.9 M366.1,316.9L366.1,316.9c-6.8,0-12.9,3.7-16,9.8
					c-2.2,4.3-2.6,9.1-1.1,13.7c1.5,4.6,4.6,8.3,8.9,10.4c0.6,0.3,60.5,31.4,89.1,73.9c3.3,5,8.9,7.9,14.9,7.9
					c1.6,0,3.1-0.2,4.6-0.6c1.9-0.5,3.7-1.3,5.4-2.5c4-2.7,6.7-6.7,7.6-11.4c0.9-4.7,0-9.5-2.7-13.4
					c-33.9-50.4-99.8-84.4-102.6-85.9C371.8,317.6,368.9,316.9,366.1,316.9L366.1,316.9z"/>
			</g>
		</g>
	</g>
	<g>
		<g>
			<g>
				<path fill="#403942" d="M427.7,478.6c-5.9,0-11.2-3.8-13.2-9.4c-17.2-49.6-67.8-95.6-68.3-96c-5.7-5.1-6.2-14-1.1-19.7
					c2.6-2.9,6.4-4.6,10.4-4.6c3.4,0,6.7,1.3,9.3,3.6c2.3,2.1,56.5,51.1,76,107.7c1.2,3.5,1,7.3-0.6,10.6c-1.6,3.3-4.5,5.9-8,7.1
					C430.8,478.4,429.2,478.6,427.7,478.6z"/>
			</g>
			<g>
				<path fill="#231F20" d="M355.6,352.9c2.4,0,4.7,0.8,6.6,2.5c2.3,2,55.7,50.5,74.9,106c1.8,5.2-1,10.9-6.2,12.7
					c-1.1,0.4-2.2,0.5-3.3,0.5c-4.1,0-8-2.6-9.4-6.7c-17.5-50.7-68.9-97.2-69.4-97.7c-4.1-3.7-4.4-10-0.8-14.1
					C350.1,354,352.8,352.9,355.6,352.9 M355.6,344.9L355.6,344.9c-5.1,0-9.9,2.2-13.3,5.9c-3.2,3.6-4.8,8.2-4.6,12.9
					c0.3,4.8,2.4,9.2,5.9,12.4c0.5,0.4,50.4,45.8,67.2,94.4c2.5,7.2,9.3,12.1,16.9,12.1c2,0,4-0.3,5.9-1c4.5-1.6,8.2-4.8,10.3-9.1
					c2.1-4.3,2.4-9.2,0.8-13.7c-19.9-57.4-74.8-107.2-77.1-109.3C364.2,346.6,360,344.9,355.6,344.9L355.6,344.9z"/>
			</g>
		</g>
	</g>
</g>
<g>
	<path fill="#FBFCFA" d="M404.1,185.6c0,0,22.6,207.7-38.7,317l61.2,174.4c0,0,131.4-179.7,14.2-502.6"/>
	<path fill="#77787C" d="M425.3,685.5L361,502.2l0.9-1.6c31.3-55.7,40-138.3,41.8-197.7c2-64.6-3.5-116.5-3.6-117l7.9-0.9
		c0.1,0.5,5.6,53,3.6,118.1c-1.8,59.7-10.6,142.6-42,199.7l57.9,165.1c9.5-15.3,32.3-57.2,46.2-122.6
		c10.4-49.1,13.9-101.7,10.2-156.4c-4.6-68.4-20.4-140.1-47-213.3l7.5-2.7c26.9,74,42.8,146.6,47.5,215.8
		c3.7,55.4,0.2,108.8-10.5,158.7c-18.2,85.1-50.4,129.9-51.7,131.7L425.3,685.5z"/>
</g>
<g>
	<circle fill="#D3957D" cx="426.6" cy="121.7" r="54.6"/>
	<path fill="#AA5B3F" d="M426.6,180.3c-32.3,0-58.6-26.3-58.6-58.6s26.3-58.6,58.6-58.6s58.6,26.3,58.6,58.6
		S458.9,180.3,426.6,180.3z M426.6,71.1c-27.9,0-50.6,22.7-50.6,50.6s22.7,50.6,50.6,50.6s50.6-22.7,50.6-50.6
		S454.5,71.1,426.6,71.1z"/>
</g>
<g>
	<path fill="#74D3ED" d="M404.8,177.8c-0.9,0.8-1.3,2-1.7,3.1c-3.8,11.5-4.5,24.2-4.5,36.4c21.2-2.4,37.8-4.1,58.8,0
		c-1.6-13.2-5.4-25.7-7-38.9c-13.7-3.8-28.3-4.4-42.3-1.9C406.9,176.7,405.7,177,404.8,177.8z"/>
	<path fill="#59B8E2" d="M457.5,221.3c-0.3,0-0.5,0-0.8-0.1c-8.4-1.6-16.4-2.4-25.1-2.4c-10.2,0-20.3,1.1-32.5,2.4
		c-1.1,0.1-2.3-0.2-3.1-1c-0.8-0.8-1.3-1.8-1.3-3c0-11.7,0.6-25.3,4.7-37.7c0.4-1.3,1.1-3.3,2.8-4.8c1.6-1.5,3.5-1.9,5.2-2.2
		c5.8-1,11.8-1.6,17.7-1.6c8.9,0,17.8,1.2,26.4,3.5c1.6,0.4,2.7,1.7,2.9,3.3c0.8,6.4,2.2,12.9,3.5,19.1c1.3,6.4,2.7,13,3.6,19.8
		c0.2,1.3-0.3,2.5-1.2,3.4C459.4,220.9,458.5,221.3,457.5,221.3z M407.5,180.8c-0.2,0.3-0.4,1-0.5,1.3c-3.3,9.8-4.1,20.5-4.2,30.7
		c10.5-1.2,19.6-2,28.9-2c7.3,0,14.1,0.5,21.1,1.6c-0.8-4.6-1.7-9.3-2.7-13.8c-1.2-5.5-2.4-11.2-3.2-17.1c-12.4-3-25.5-3.4-38-1.2
		C408.5,180.5,407.8,180.6,407.5,180.8z"/>
</g>
<g>
	<circle fill="#CE866A" cx="395.2" cy="302.8" r="21.6"/>
</g>
<g>
	<g>
		<g>
			<g>
				<path fill="#403942" d="M142.4,512.1c-0.5,0-1.1,0-1.6-0.1c-3.7-0.4-7-2.3-9.3-5.2c-2.3-2.9-3.3-6.6-2.9-10.3
					c6.9-59.4,49.3-118.9,51.1-121.5c2.6-3.6,6.8-5.8,11.3-5.8c2.9,0,5.7,0.9,8.1,2.6c3,2.2,5,5.4,5.6,9.1c0.6,3.7-0.3,7.4-2.4,10.4
					c-0.4,0.6-40,56.3-46.1,108.4c-0.7,5.9-5.1,10.7-10.9,12C144.4,512,143.4,512.1,142.4,512.1L142.4,512.1z"/>
			</g>
			<g>
				<path fill="#231F20" d="M191,373.2c2,0,4,0.6,5.8,1.9c4.5,3.2,5.5,9.4,2.3,13.9c-0.4,0.6-40.6,57-46.8,110.3
					c-0.5,4.3-3.7,7.7-7.8,8.6c-0.7,0.2-1.4,0.2-2.1,0.2c-0.4,0-0.8,0-1.2-0.1c-5.5-0.6-9.4-5.6-8.7-11
					c6.8-58.4,48.6-117.1,50.4-119.6C184.8,374.7,187.9,373.2,191,373.2 M191,365.3c-5.8,0-11.2,2.8-14.6,7.5
					c-1.8,2.5-44.8,62.9-51.8,123.3c-0.6,4.8,0.8,9.4,3.7,13.2c3,3.8,7.2,6.1,12,6.7c0.7,0.1,1.4,0.1,2.1,0.1c1.3,0,2.6-0.1,3.8-0.4
					c7.5-1.6,13.1-7.8,14-15.4c6-51,45-106,45.4-106.6c2.8-3.9,3.9-8.6,3.1-13.3c-0.8-4.7-3.3-8.9-7.2-11.7
					C198.3,366.4,194.7,365.3,191,365.3L191,365.3z"/>
			</g>
		</g>
	</g>
	<g>
		<g>
			<g>
				<path fill="#403942" d="M205.2,535.7c-6.5,0-12.1-4.4-13.6-10.7c-13.8-58.1,5.6-128.6,6.5-131.6c1.7-6,7.2-10.2,13.4-10.2
					c1.3,0,2.5,0.2,3.8,0.5c3.6,1,6.6,3.3,8.4,6.6c1.8,3.2,2.3,7,1.3,10.6c-0.2,0.7-18.3,66.5-6.2,117.7c1.4,5.8-1.1,11.8-6.1,15
					c-1.3,0.8-2.7,1.4-4.3,1.8C207.3,535.5,206.3,535.7,205.2,535.7L205.2,535.7z"/>
			</g>
			<g>
				<path fill="#231F20" d="M211.5,387.1c0.9,0,1.8,0.1,2.7,0.4c5.3,1.5,8.4,7,6.9,12.3c-0.2,0.7-18.6,67.4-6.2,119.7
					c1,4.2-0.9,8.5-4.3,10.7c-0.9,0.6-1.9,1-3,1.3c-0.8,0.2-1.5,0.3-2.3,0.3c-4.5,0-8.6-3.1-9.7-7.7c-13.6-57.2,5.6-126.7,6.4-129.6
					C203.1,390,207.1,387.1,211.5,387.1 M211.5,379.1c-8,0-15.1,5.4-17.3,13.1c-0.8,3-20.5,74.5-6.5,133.6
					c1.9,8.1,9.1,13.8,17.4,13.8c1.4,0,2.8-0.2,4.1-0.5c1.9-0.5,3.8-1.2,5.5-2.3c6.4-4.1,9.6-11.8,7.8-19.3
					c-11.8-50,6-115,6.1-115.7c1.3-4.6,0.7-9.4-1.6-13.6c-2.3-4.2-6.2-7.2-10.8-8.5C214.8,379.4,213.1,379.1,211.5,379.1
					L211.5,379.1z"/>
			</g>
		</g>
	</g>
	<g>
		<g>
			<g>
				<path fill="#403942" d="M60.8,429.4c-1.2,0-2.4-0.2-3.6-0.5c-1.5-0.4-2.9-1-4.2-1.9c-3.1-2.1-5.2-5.2-5.9-8.9
					c-0.7-3.7,0-7.4,2.1-10.5c33.4-49.6,98.3-83.1,101.1-84.5c2-1,4.1-1.5,6.3-1.5c5.3,0,10,2.9,12.4,7.6c1.7,3.3,2,7.1,0.8,10.6
					c-1.1,3.5-3.6,6.4-6.9,8.1c-0.6,0.3-61.3,31.8-90.6,75.3C69.8,427.1,65.5,429.4,60.8,429.4C60.8,429.4,60.8,429.4,60.8,429.4z"
					/>
			</g>
			<g>
				<path fill="#231F20" d="M156.7,325.6c3.6,0,7.1,2,8.9,5.4c2.5,4.9,0.6,10.9-4.3,13.4c-0.6,0.3-62.2,32.1-92.1,76.6
					c-1.9,2.9-5.1,4.4-8.3,4.4c-0.9,0-1.7-0.1-2.5-0.3c-1-0.3-2.1-0.7-3-1.4c-4.6-3.1-5.8-9.3-2.7-13.8
					c32.8-48.7,96.9-81.8,99.6-83.2C153.6,326,155.2,325.6,156.7,325.6 M156.7,317.7c-2.8,0-5.6,0.7-8.1,2
					c-2.8,1.4-68.6,35.4-102.6,85.9c-2.7,4-3.6,8.7-2.7,13.4c0.9,4.7,3.6,8.8,7.6,11.4c1.7,1.1,3.5,1.9,5.4,2.5
					c1.5,0.4,3,0.6,4.6,0.6c6,0,11.5-3,14.9-7.9c28.7-42.6,88.6-73.6,89.2-74c4.3-2.2,7.4-5.9,8.9-10.4c1.5-4.6,1.1-9.4-1.1-13.7
					C169.6,321.4,163.5,317.7,156.7,317.7L156.7,317.7z"/>
			</g>
		</g>
	</g>
	<g>
		<g>
			<g>
				<path fill="#403942" d="M95.1,479.4c-1.5,0-3.1-0.3-4.6-0.8c-3.5-1.2-6.4-3.7-8-7.1c-1.6-3.3-1.9-7.1-0.6-10.6
					c19.5-56.5,73.7-105.6,76-107.7c2.6-2.3,5.9-3.6,9.3-3.6c4,0,7.7,1.7,10.4,4.6c5.1,5.7,4.7,14.6-1.1,19.7
					c-0.5,0.5-51.1,46.4-68.3,96C106.4,475.7,101.1,479.4,95.1,479.4z"/>
			</g>
			<g>
				<path fill="#231F20" d="M167.3,353.7c2.7,0,5.4,1.1,7.4,3.3c3.7,4.1,3.3,10.4-0.8,14.1c-0.5,0.5-51.9,47-69.4,97.7
					c-1.4,4.1-5.3,6.7-9.4,6.7c-1.1,0-2.2-0.2-3.3-0.5c-5.2-1.8-8-7.5-6.2-12.7c19.2-55.5,72.6-104,74.9-106
					C162.5,354.5,164.9,353.7,167.3,353.7 M167.3,345.7c-4.4,0-8.7,1.6-12,4.6c-2.3,2.1-57.2,51.9-77.1,109.3
					c-1.6,4.5-1.3,9.4,0.8,13.7c2.1,4.3,5.7,7.5,10.3,9.1c1.9,0.7,3.9,1,5.9,1c7.6,0,14.4-4.9,16.9-12.1
					c16.8-48.5,66.7-93.9,67.2-94.4c3.6-3.2,5.7-7.6,5.9-12.4c0.3-4.8-1.4-9.4-4.6-12.9C177.2,347.9,172.3,345.7,167.3,345.7
					L167.3,345.7z"/>
			</g>
		</g>
	</g>
</g>
<g>
	<path fill="#74D3ED" d="M369.7,489.6c-10.9-1.4-16.1-0.5-16.1-0.5c-97-61.5-212.8,0.3-212.8,0.3c-32.1,14.9-51.3,51-51.3,51
		c-6.5,29.8,3.1,32.8,3.1,32.8c12.5,14.5,5.4,56.1,11.1,65.5l-11.1-35.3c-1,76.7,60.7,253.9,60.7,253.9s140,13.3,171,4.3l74.3-11.9
		C479.2,680.6,374.4,490.2,369.7,489.6z"/>
	<path fill="#59B8E2" d="M270.9,872.3c0,0-3.9-41.8-3.9-7.7c0,7.7-110.7-2-114.9-3.4c-1.2-0.4-2.1-1.3-2.5-2.5
		c-2.5-7.3-62-178.8-61-255.3c0-2,1.5-3.6,3.4-3.9c1.9-0.3,3.8,0.9,4.4,2.7l0,0.1c-0.6-10.4-2.1-20.5-6.4-25.9
		c-3.4-2-10.4-9.6-4.4-36.9c0.1-0.4,0.2-0.7,0.4-1c0.8-1.5,20.1-37.5,53-52.7c3.3-1.7,53.9-28,116.6-28c36.8,0,70,9.1,98.9,27.2
		c0.9-0.1,2.2-0.1,3.9-0.1c3.5,0,7.4,0.3,11.7,0.8c1.7,0.2,3.3,0.4,10,12.8c5.4,9.9,33,62.8,46.1,137.3c14.1,80,6,152.6-24.1,215.7
		c-0.4,0.8-1.1,1.5-2,1.9l-86.4,14.3C311.5,875.5,287.2,872.3,270.9,872.3z M156.6,854.2c13.9,4.7,97.3,10.6,140.8,10.6
		c7.4,0,26.2,11.6,27.1,5.3c0.2-1.4,1.1,8.5,2.3,7.9l69-31.3c39.9-84.9,31.7-174.3,17.7-234.5c-15.1-65.1-40.5-112-45.5-118.8
		c-3.4-0.4-6.6-0.6-9.4-0.6c-2.8,0-4.2,0.2-4.2,0.2c-1,0.1-1.9-0.1-2.8-0.6c-27.9-17.7-60.1-26.7-95.8-26.7
		c-61.4,0-112.4,26.8-112.9,27.1c-0.1,0-0.1,0.1-0.2,0.1c-28.5,13.2-46.8,44.6-49.2,48.8c-4.8,22.7,0.4,27.4,0.9,27.7
		c0.6,0.2,1.1,0.6,1.5,1.1c8.4,9.7,8.9,28.4,9.3,44.8c0.2,6.5,0.3,12.7,1,16.9l1.6,5.1c0.6,1.9-0.3,4-2.1,4.8c-1.8,0.8-4,0.2-5-1.5
		c-0.4-0.7-0.8-1.4-1.1-2.3c4.2,30.6,13.4,71.1,27.2,119.5C139.9,805.1,153.5,845.3,156.6,854.2z"/>
</g>
<g>
	
		<rect x="180" y="774" transform="matrix(0.9926 -0.1215 0.1215 0.9926 -93.6574 31.3427)" fill="#FBFCFA" width="60.4" height="19.2"/>
	<path fill="#FBFCFA" d="M181.4,800.9c-2,0-3.7-1.5-3.9-3.5l-2.3-19.1c-0.1-1,0.2-2.1,0.8-2.9c0.7-0.8,1.6-1.4,2.7-1.5l60-7.3
		c2.2-0.3,4.2,1.3,4.4,3.5l2.3,19.1c0.1,1-0.2,2.1-0.8,2.9c-0.7,0.8-1.6,1.4-2.7,1.5l-60,7.3C181.7,800.8,181.5,800.9,181.4,800.9z
		 M183.5,781.2l1.4,11.2l52.1-6.4l-1.4-11.2L183.5,781.2z"/>
</g>
<g>
	<polygon fill="#FBFCFA" points="328.4,789.5 384.1,797.4 386.1,778.3 330.4,770.5 	"/>
	<path fill="#FBFCFA" d="M384.1,801.4c-0.2,0-0.4,0-0.6,0l-55.8-7.9c-2.1-0.3-3.6-2.2-3.4-4.4l2-19.1c0.1-1.1,0.7-2.1,1.5-2.7
		c0.9-0.7,1.9-1,3-0.8l55.8,7.9c2.1,0.3,3.6,2.2,3.4,4.4l-2,19.1c-0.1,1.1-0.7,2.1-1.5,2.7C385.9,801.1,385,801.4,384.1,801.4z
		 M332.7,786.1l47.9,6.7l1.2-11.1l-47.9-6.7L332.7,786.1z"/>
</g>
<g>
	<path fill="#D3957D" d="M168.9,385.7c0,3.8,35.7,54.2,40.6,86.2c5.2,33.5,8.2,31.3,8.2,31.3l-4.3,3.3l45.3,35.9l63.2-35.1L314,484
		c0,0-10-44.6,41.6-109.2"/>
	<path fill="#AA5B3F" d="M258.3,547.2l-51.4-40.7l5.2-4.1c-1.8-4.2-3.9-12.5-6.6-29.9c-3.4-22.1-22.5-54.2-32.8-71.5
		c-6.7-11.3-7.8-13.3-7.8-15.3h8c0-0.4-0.1-0.7-0.1-0.7c0.4,1.3,3.6,6.7,6.8,12c11.3,19,30.2,50.8,33.9,74.4
		c3.8,24.7,6.3,28.6,6.5,29c-0.6-0.8-2.7-1.7-4.7-0.3l4.8,6.4l-0.3,0.2l39.3,31.1l58-32.2l-7-20.6c-0.4-1.9-9.8-47.2,42.3-112.5
		l6.2,5c-48.2,60.4-41.4,102.7-40.8,105.7l8.9,26.3L258.3,547.2z"/>
</g>
<g>
	<path fill="#231F20" d="M256.6,333.6c2.9,0,5.7,0.2,8.6,0.7l42.4,6.6c6.2,0.9,10.5,6.6,9.8,12.8l-1.1,10l58.9-26.4
		c-1.1,17-8.4,33-20.5,45L303.5,436c-1.2,1.2-2.5,2.3-3.9,3.3c-7.9,5.3-21.6,11.2-42.9,11.8c-21.4-0.5-35-6.5-42.9-11.8
		c-1.4-1-2.7-2.1-3.9-3.3l-51.2-53.8c-12.1-12-19.4-28-20.5-45l11.8,5.9l47.1,20.6l-1.1-10c-0.7-6.2,3.6-11.8,9.8-12.8l42.4-6.6
		C250.9,333.8,253.8,333.6,256.6,333.6 M256.6,399.3l32.4-0.8c4.3-0.1,7.9-3.3,8.4-7.6l4.6-34.1c0.2-1.3-0.7-2.5-2-2.8l-40-7.5
		c-1.1-0.2-2.3-0.3-3.4-0.3c-1.2,0-2.3,0.1-3.4,0.3l-40,7.5c-1.3,0.2-2.2,1.5-2,2.8l4.6,34.1c0.6,4.3,4.1,7.5,8.4,7.6L256.6,399.3
		 M256.6,325.6c-3.3,0-6.6,0.3-9.8,0.8l-42.4,6.6c-9.2,1.4-15.9,9-16.6,17.9l-34.6-15.1l-11.7-5.8c-1.1-0.6-2.3-0.8-3.5-0.8
		c-1.5,0-3.1,0.4-4.4,1.3c-2.4,1.6-3.7,4.3-3.5,7.1c1.2,18.9,9.3,36.7,22.8,50.1l51.2,53.7c1.6,1.7,3.3,3.2,5.3,4.4
		c8.5,5.6,23.6,12.5,47.1,13.1c0.1,0,0.1,0,0.2,0c0.1,0,0.1,0,0.2,0c23.5-0.6,38.6-7.5,47.1-13.1c1.9-1.3,3.7-2.8,5.3-4.5l51.1-53.7
		c13.5-13.4,21.5-31.2,22.8-50.1c0.2-2.8-1.1-5.5-3.4-7.1c-1.4-0.9-2.9-1.4-4.5-1.4c-1.1,0-2.2,0.2-3.3,0.7l-46.6,20.9
		c-0.7-8.9-7.4-16.4-16.6-17.8l-42.4-6.6C263.2,325.9,259.9,325.6,256.6,325.6L256.6,325.6z M219.8,360.9l34.9-6.6
		c0.6-0.1,1.3-0.2,2-0.2c0.7,0,1.3,0.1,2,0.2l34.9,6.6l-3.9,28.9c-0.1,0.4-0.4,0.7-0.8,0.7l-32.2,0.8l-32.2-0.8
		c-0.4,0-0.7-0.3-0.7-0.7L219.8,360.9L219.8,360.9z"/>
</g>
<g>
	<path fill="#3B353D" d="M375.2,337.2l-58.9,26.4l1.1-10c0.7-6.2-3.6-11.8-9.8-12.8l-42.4-6.6c-5.7-0.9-11.4-0.9-17.1,0l-42.4,6.6
		c-6.2,0.9-10.5,6.6-9.8,12.8l1.1,10l-47.1-20.6l-11.8-5.9c1.1,17,8.4,33,20.5,45l51.2,53.8c1.2,1.2,2.5,2.3,3.9,3.3
		c7.9,5.3,21.6,11.2,42.9,11.8c21.4-0.5,35-6.5,42.9-11.8c1.4-1,2.8-2.1,3.9-3.3l51.2-53.8C366.8,370.2,374.1,354.2,375.2,337.2
		 M302,356.9l-4.6,34.1c-0.6,4.3-4.1,7.5-8.4,7.6l-32.4,0.8l-32.4-0.8c-4.3-0.1-7.9-3.3-8.4-7.6l-4.6-34.1c-0.2-1.3,0.7-2.5,2-2.8
		l40-7.5c2.3-0.4,4.6-0.4,6.9,0l40,7.5C301.3,354.3,302.2,355.5,302,356.9z"/>
</g>
<g>
	<ellipse fill="#403942" cx="256.6" cy="244.4" rx="142.2" ry="148.5"/>
	<path fill="#231F20" d="M256.6,396.9c-80.6,0-146.2-68.4-146.2-152.5S176,91.9,256.6,91.9c80.6,0,146.2,68.4,146.2,152.5
		S337.2,396.9,256.6,396.9z M256.6,99.8c-76.2,0-138.2,64.8-138.2,144.5s62,144.5,138.2,144.5c76.2,0,138.2-64.8,138.2-144.5
		S332.9,99.8,256.6,99.8z"/>
</g>
<g>
	<circle fill="#CE866A" cx="136.2" cy="300.9" r="21.6"/>
</g>
<g>
	<g>
		<path fill="#D3957D" d="M256.6,425.5c-52.4,0-98.9-39.8-116.9-99.4c-1.2,0.2-2.4,0.3-3.6,0.3c-14.1,0-25.6-11.5-25.6-25.6
			c0-12.7,9.4-23.3,21.6-25.2c0-0.6,0-1.2,0-1.8c0-39.7,12.9-75.6,36.3-101.2c22.8-24.9,54.1-38.6,88.1-38.6
			c34,0,65.3,13.7,88.1,38.6c23.4,25.5,36.3,61.4,36.3,101.2c0,0.6,0,1.2,0,1.8c12.2,1.9,21.6,12.5,21.6,25.2
			c0,14.1-11.5,25.6-25.6,25.6c-1.2,0-2.4-0.1-3.6-0.3C355.6,385.8,309,425.5,256.6,425.5z"/>
	</g>
	<g>
		<path fill="#AA5B3F" d="M256.6,138.1c66.5,0,120.5,54.2,120.5,135.7c0,1.8,0,3.6-0.1,5.4c0,0,0.1,0,0.1,0
			c11.9,0,21.6,9.7,21.6,21.6c0,11.9-9.7,21.6-21.6,21.6c-2.2,0-4.4-0.3-6.4-1c-16.2,58.2-61.1,100.1-114.1,100.1
			c-52.9,0-97.9-41.9-114.1-100.1c-2,0.6-4.2,1-6.4,1c-11.9,0-21.6-9.7-21.6-21.6c0-11.9,9.7-21.6,21.6-21.6c0,0,0.1,0,0.1,0
			c-0.1-1.8-0.1-3.6-0.1-5.4C136.2,192.3,190.1,138.1,256.6,138.1 M256.6,130.2c-35.1,0-67.4,14.2-91.1,39.9
			c-11.8,12.9-21.1,28.2-27.4,45.5c-6.5,17.5-9.8,36.7-10,56.9c-12.4,3.5-21.6,14.9-21.6,28.4c0,16.3,13.3,29.5,29.5,29.5
			c0.3,0,0.5,0,0.8,0c19.1,59.6,66.5,99.1,119.7,99.1c53.2,0,100.6-39.5,119.7-99.1c0.3,0,0.5,0,0.8,0c16.3,0,29.5-13.3,29.5-29.5
			c0-13.5-9.1-25-21.6-28.5c-0.2-20.3-3.5-39.4-10-56.9c-6.4-17.3-15.6-32.6-27.4-45.5C324.1,144.3,291.8,130.2,256.6,130.2
			L256.6,130.2z"/>
	</g>
</g>
<g>
	<g>
		<path fill="#632C1D" d="M255.9,373.8c-5.8,0-11.5-0.7-17-2.1c-1.8-0.5-3.6-1-5.4-1.5l-7-2.1c-2.1-0.6-3.3-2.8-2.7-5
			c0.6-2.1,2.9-3.3,5-2.7l7,2.1c1.8,0.5,3.4,1,5.1,1.4c14.2,3.6,29.9,1.9,43-4.7c2-1,4.4-0.2,5.3,1.8c1,2,0.2,4.4-1.8,5.3
			C277.7,371.3,266.8,373.8,255.9,373.8z"/>
	</g>
	<g>
		<path fill="#AA5B3F" d="M273.9,324c-0.7,0-1.4-0.2-2-0.6c-15-9-30.3-0.1-30.4,0c-1.9,1.1-4.3,0.5-5.5-1.4
			c-1.1-1.9-0.5-4.3,1.4-5.5c0.8-0.5,19.5-11.4,38.6,0c1.9,1.1,2.5,3.6,1.4,5.5C276.6,323.3,275.2,324,273.9,324z"/>
	</g>
	<g>
		<g>
			<g>
				<path fill="#231F20" d="M318.7,325.1c-9.2,0-32.1-1.5-44.1-15.2l-0.3-0.4c-0.5-0.6-11.9-16.1-11.9-44.9c0-9.9,5.3-29.4,25.3-33
					c0.5-0.1,11.6-2,28-2c19,0,36.6,2.5,52.4,7.5c5.9,1.8,10,7,10.5,13.2c1,12.5,1.6,43.6-14.3,63.6c-1.4,1.8-3.2,3.2-5.4,4.2
					c-5.4,2.6-17.5,6.9-37,6.9C321.3,325.1,320.3,325.1,318.7,325.1z M285.2,300.9c8.7,9.5,27.8,10.2,33.4,10.2
					c1.6,0,2.5-0.1,2.5-0.1l0.4,0c17.5,0,27.7-3.9,31.2-5.6c0.2-0.1,0.4-0.2,0.4-0.3c12.8-16.1,12.2-43,11.4-53.9
					c0-0.5-0.3-0.9-0.8-1c-14.5-4.5-30.7-6.8-48.3-6.8c-15.1,0-25.4,1.8-25.5,1.8c-13.5,2.4-13.8,18.6-13.8,19.3
					C276.3,286.9,284.2,299.4,285.2,300.9z"/>
			</g>
			<g>
				<path fill="#231F20" d="M194.6,325.1c-1.6,0-2.7,0-3.1-0.1c-19.5,0-31.5-4.3-37-6.9c-2.2-1-4-2.4-5.4-4.2
					c-15.9-20-15.3-51.2-14.3-63.6c0.5-6.2,4.6-11.3,10.5-13.2c15.8-5,33.5-7.5,52.4-7.5c16.3,0,27.5,1.9,27.9,2
					c20,3.6,25.3,23.2,25.3,33c0,28.7-11.4,44.2-11.9,44.9l-0.3,0.4C226.7,323.6,203.8,325.1,194.6,325.1z M192.1,311.1
					c0,0,0.9,0.1,2.5,0.1c5.7,0,24.8-0.7,33.4-10.2c1.1-1.6,9-14.1,9-36.3c0-0.7-0.3-16.9-13.8-19.3c-0.1,0-10.5-1.8-25.5-1.8
					c-17.6,0-33.8,2.3-48.3,6.8c-0.4,0.1-0.7,0.5-0.8,1c-0.9,10.8-1.5,37.7,11.4,53.9c0.1,0.1,0.2,0.2,0.5,0.3
					c3.5,1.7,13.7,5.6,31.2,5.6L192.1,311.1L192.1,311.1z"/>
			</g>
			<g>
				<path fill="#231F20" d="M236.3,244.6c0,0,18.8,3.1,40.8,0c0,0-8,5.6-7.7,23.9c0,0-13.4-2-25.4,0
					C243.9,268.5,245.3,251.8,236.3,244.6z"/>
				<path fill="#231F20" d="M239.5,273.3l0.4-5.1c0.3-4.1-0.1-15.7-6.1-20.4l-12.1-9.6l15.2,2.5c0.1,0,8.2,1.3,19.8,1.3
					c6.8,0,13.5-0.5,19.8-1.3l16.5-2.3l-13.6,9.5l0,0c0,0-6.2,5-6,20.6l0.1,4.7l-4.7-0.7c-0.1,0-5.8-0.9-12.9-0.9
					c-4.2,0-8,0.3-11.3,0.8L239.5,273.3z M255.8,263.6c3.7,0,7.1,0.2,9.6,0.4c0.4-6.3,1.7-11.1,3.3-14.5c-3.9,0.3-7.9,0.5-12,0.5
					c-4.6,0-8.6-0.2-11.9-0.4c2.3,5,2.9,10.6,3.1,14.4C250.4,263.7,253.1,263.6,255.8,263.6z"/>
			</g>
		</g>
		<g>
			<g>
				<path fill="#231F20" d="M311.2,281c-4.1,0-7.1-4.1-7.1-9.4c0-5.4,3.1-9.4,7.1-9.4s7.1,4.1,7.1,9.4
					C318.4,276.9,315.3,281,311.2,281z"/>
				<path fill="#231F20" d="M311.2,281.5c-4.4,0-7.6-4.3-7.6-9.9c0-5.7,3.3-9.9,7.6-9.9s7.6,4.3,7.6,9.9
					C318.9,277.2,315.6,281.5,311.2,281.5z M311.2,262.6c-3.8,0-6.6,3.8-6.6,8.9c0,5.1,2.9,8.9,6.6,8.9s6.6-3.8,6.6-8.9
					C317.9,266.4,315,262.6,311.2,262.6z"/>
			</g>
		</g>
		<g>
			<g>
				<path fill="#231F20" d="M201.8,281.6c-4.1,0-7.1-4.1-7.1-9.4c0-5.4,3.1-9.4,7.1-9.4s7.1,4.1,7.1,9.4
					C208.9,277.6,205.9,281.6,201.8,281.6z"/>
				<path fill="#231F20" d="M201.8,282.1c-4.4,0-7.6-4.3-7.6-9.9s3.3-9.9,7.6-9.9c4.4,0,7.6,4.3,7.6,9.9S206.2,282.1,201.8,282.1z
					 M201.8,263.3c-3.8,0-6.6,3.8-6.6,8.9c0,5.1,2.9,8.9,6.6,8.9c3.8,0,6.6-3.8,6.6-8.9C208.4,267.1,205.6,263.3,201.8,263.3z"/>
			</g>
		</g>
		<g>
			<circle fill="none" cx="314" cy="268.7" r="2.8"/>
		</g>
		<g>
			<circle fill="none" cx="204.6" cy="268.7" r="2.8"/>
		</g>
	</g>
</g>
<g>
	<path fill="#403942" d="M375.2,337.7l-58.9,26.4l1.1-10c0.7-6.2-3.6-11.8-9.8-12.8l-42.4-6.6c-5.7-0.9-11.4-0.9-17.1,0l-42.4,6.6
		c-6.2,0.9-10.5,6.6-9.8,12.8l1.1,10l-47.1-20.6l-11.8-5.9c1.1,17,8.4,33,20.5,45l51.2,53.8c1.2,1.2,2.5,2.3,3.9,3.3
		c7.9,5.3,21.6,11.2,42.9,11.8c21.4-0.5,35-6.5,42.9-11.8c1.4-1,2.8-2.1,3.9-3.3l51.2-53.8C366.8,370.8,374.1,354.8,375.2,337.7
		 M302,357.4l-4.6,34.1c-0.6,4.3-4.1,7.5-8.4,7.6l-32.4,0.8l-32.4-0.8c-4.3-0.1-7.9-3.3-8.4-7.6l-4.6-34.1c-0.2-1.3,0.7-2.5,2-2.8
		l40-7.5c2.3-0.4,4.6-0.4,6.9,0l40,7.5C301.3,354.9,302.2,356.1,302,357.4z"/>
</g>
<g>
	<path fill="#80DBF5" d="M289.6,680.6c0,0,2.2,113-8.8,176.7"/>
	<path fill="#59B8E2" d="M284.8,858l-7.9-1.3c10.8-62.6,8.7-174.8,8.7-176l8-0.2c0,0.3,0.5,28.7-0.3,64.6
		C292.6,778.3,290.5,824.8,284.8,858z"/>
</g>
<g>
	<path fill="#80DBF5" d="M289.6,680.6c0,0-2.9-70.5-18.7-134.3"/>
	<path fill="#59B8E2" d="M285.6,680.8c0-0.7-3.1-70.9-18.6-133.5l7.7-1.9c15.7,63.4,18.8,134.4,18.8,135.1L285.6,680.8z"/>
</g>
<g>
	<path fill="#FBFCFA" d="M208.3,464.7c0,0,13.6,47.1,65.8,64.8c0,0,24.2-9.4,38.6-61.8c0,0,19.7,9.1,26.2,13.1
		c0,0-12.9,67-63.2,80.9c0,0-82.3-25.7-93.9-88.8C182,472.8,195.2,467.5,208.3,464.7z"/>
	<path fill="#77787C" d="M275.8,565.8l-1.1-0.3c-0.9-0.3-21.3-6.7-43.6-21.2c-29.7-19.3-48.1-43.8-53-70.7l-0.6-3.2l3-1.2
		c0.6-0.2,13.7-5.5,27-8.3l3.6-0.8l1,3.6c0.1,0.4,13.4,44.4,61.7,61.6c2-1.1,6.4-4,11.7-10.2c6.7-7.8,16.3-22.5,23.4-48.4l1.2-4.5
		l4.3,2c0.8,0.4,20,9.2,26.7,13.3l2.3,1.4l-0.5,2.7c-0.1,0.7-3.4,17.5-13.1,36.3c-13,25.2-31.3,41.7-52.9,47.6L275.8,565.8z
		 M186.6,475.4c12.3,53.9,79.9,78.9,89.4,82.1c40.9-12.1,55.5-62.4,58.6-74.7c-5.2-2.9-14-7.1-19.2-9.5
		c-14.9,49.8-38.7,59.5-39.7,59.9l-1.3,0.5l-1.4-0.5c-45.7-15.5-62.8-52.2-67.2-63.9C198,471.3,190.6,473.9,186.6,475.4z"/>
</g>
<g>
	<path fill="#CDD1E4" d="M582.9,502.1c0,0,5,91.8,93.4,91.8c0,0,109.5,2.7,113.5-91.2l52,0L811,628.1l-2.6,137.3l-14.5,105.2
		L628.5,816l-71.6,43.2c0,0-6.3-151.6-8.1-178.6c-1.8-27.1-71.5-154.8-77.5-194.5c0,0,36.9,0.2,77.5-24.4
		C548.8,461.8,559.1,491.5,582.9,502.1z"/>
</g>
<g>
	<path fill="#D3957D" d="M634.1,495.3c12.6-3.8-2.8-12.8-2.8-26.7c0-15.5,9.1-24.7-5.8-26.9c9.8-7.2-4.4-22.4-4.4-35.6
		c0-22-17.8-39.8-39.8-39.8c-22,0-39.8,17.8-39.8,39.8c0,2.9,0.3,5.7,0.9,8.4c-3.7-1.7-7.8-2.6-12.1-2.6
		c-16.3,0-29.4,13.2-29.4,29.4c0,7.3,2.7,14,7.1,19.2c-14.3,0.4-25.7,12.1-25.7,26.5c0,11.9,7.8,21.9,18.6,25.3
		c0.5,13.6,7.6,25.5,18.4,32.4c-0.9,2.3-1.5,4.9-1.5,7.6c0,11.3,9.2,20.5,20.5,20.5c5.5,0,10.5-2.2,14.2-5.7
		c7.6,6,17.2,9.6,27.7,9.6c24.8,0,44.8-20.1,44.8-44.8C625,518.3,643.6,503.5,634.1,495.3z"/>
	<path fill="#AA5B3F" d="M580.2,580.7c-10,0-19.4-2.9-27.5-8.5c-4.2,3-9.1,4.6-14.3,4.6c-13.5,0-24.5-11-24.5-24.5c0-2,0.3-4,0.8-6
		c-9.9-7.5-16.3-18.8-17.5-31.1c-11.3-4.7-18.8-15.7-18.8-28.2c0-14.2,9.6-26.1,22.8-29.5c-2.7-4.9-4.2-10.5-4.2-16.2
		c0-18.4,15-33.4,33.4-33.4c2.5,0,4.9,0.3,7.3,0.8c-0.1-0.9-0.1-1.8-0.1-2.6c0-24.1,19.6-43.8,43.8-43.8s43.8,19.6,43.8,43.8
		c0,4.4,2,9.4,4,14.3c2.5,6.3,5.3,13.3,3.2,19c1.6,0.7,3.1,1.8,4.1,3.4c2.7,3.9,1.7,8.5,0.6,13.8c-0.8,3.5-1.6,7.5-1.6,12
		c0,4.8,2.3,9.1,4.4,12.9c2.3,4.2,4.4,8.1,2.8,12.1c-0.5,1.2-1.3,2.3-2.5,3.2c2.5,6.2-1.6,13.6-5.1,19.8c-2.9,5.2-5.9,10.7-5.9,15.3
		C629,558.8,607.1,580.7,580.2,580.7z M552.3,561.9l2.7,2.1c7.3,5.7,16,8.7,25.2,8.7c22.5,0,40.8-18.3,40.8-40.8
		c0-6.8,3.7-13.4,6.9-19.2c4.9-8.8,6.1-12.1,3.5-14.4l-5.5-4.7l6.9-2.1c1.4-0.4,1.9-0.8,2.1-0.9c-0.1-1-1.4-3.5-2.4-5.2
		c-2.4-4.4-5.4-9.9-5.4-16.7c0-5.3,1-10,1.8-13.7c0.7-3.2,1.4-6.5,0.7-7.6c-0.2-0.3-1.1-1.2-4.8-1.7l-9.6-1.4l7.8-5.8
		c3.2-2.3,2-6.4-1.5-15.1c-2.1-5.3-4.5-11.3-4.5-17.2c0-19.7-16.1-35.8-35.8-35.8s-35.8,16.1-35.8,35.8c0,2.5,0.3,5.1,0.8,7.6
		l1.7,7.7l-7.2-3.2c-3.3-1.5-6.8-2.2-10.4-2.2c-14,0-25.4,11.4-25.4,25.4c0,6.1,2.2,12,6.2,16.6l5.5,6.3l-8.4,0.2
		c-12.2,0.4-21.8,10.2-21.8,22.5c0,9.9,6.4,18.6,15.8,21.5l2.7,0.8l0.1,2.8c0.4,11.8,6.6,22.7,16.5,29.2l2.7,1.8l-1.2,3
		c-0.8,2-1.2,4-1.2,6.1c0,9.1,7.4,16.5,16.5,16.5c4.3,0,8.3-1.6,11.4-4.6L552.3,561.9z"/>
</g>
<g>
	<path fill="#EFC2A0" d="M467.2,149.7c17.7-9.4,29.7-28.1,29.7-49.5c0-31-25.1-56.1-56.1-56.1s-56.1,25.1-56.1,56.1
		c0,26.1,17.8,48,41.9,54.3c0.3,119.1,39.6,345.4,39.6,345.4s52.5,43.3,62.3,36.2s15.2-60.6,15.2-60.6
		C482.7,308,469.8,186.5,467.2,149.7z"/>
	<path fill="#D3957D" d="M525.5,540.8C525.5,540.8,525.5,540.8,525.5,540.8c-15.5,0-57.2-34-61.9-37.9l-1.1-0.9l-0.3-1.5
		c-0.4-2.2-38.7-224.2-39.6-343c-24.8-7.9-41.9-31-41.9-57.3c0-33.1,27-60.1,60.1-60.1s60.1,27,60.1,60.1
		c0,21.4-11.3,40.9-29.5,51.7c2.8,36.9,16.3,157.9,76.1,322.2l0.3,0.9l-0.1,0.9c-1.3,13-6.5,55.9-16.9,63.4
		C529.4,540.3,527.6,540.8,525.5,540.8z M469.8,497.7c17.1,14,46.4,35.1,55.7,35.1h0c0.5,0,0.6-0.1,0.6-0.1
		c5-3.6,10.8-32.1,13.4-56.8c-61.3-168.7-74-292.1-76.4-326l-0.2-2.6l2.3-1.2c17-9.1,27.6-26.7,27.6-46c0-28.7-23.4-52.1-52.1-52.1
		s-52.1,23.4-52.1,52.1c0,23.7,16,44.4,38.9,50.4l3,0.8l0,3.1C430.9,266.9,466.5,478,469.8,497.7z"/>
</g>
<g>
	
		<ellipse transform="matrix(0.7747 0.6323 -0.6323 0.7747 323.8835 -351.2921)" fill="#387BBF" cx="655" cy="278.9" rx="131.4" ry="118.9"/>
	<path fill="#2C5FA8" d="M667.3,406.9c-32.1,0-64.1-11.7-90-32.8c-57.8-47.2-70-128.3-27.2-180.8c22-27,55.7-42.4,92.5-42.4
		c32.1,0,64.1,11.7,90,32.8c57.8,47.2,70,128.3,27.2,180.8C737.8,391.5,704.1,406.9,667.3,406.9z M642.6,158.9
		c-34.4,0-65.9,14.4-86.4,39.5c-40.1,49.1-28.4,125.1,26.1,169.6c24.5,20,54.7,31,85,31c34.4,0,65.9-14.4,86.4-39.5
		c40.1-49.1,28.4-125.1-26.1-169.6C703.1,169.9,672.9,158.9,642.6,158.9z"/>
</g>
<g>
	<g>
		<path fill="#EFC2A0" d="M578.4,387.1c0,3.8,35.7,54.2,40.6,86.2c5.2,33.5-12.3,39.3-12.3,39.3s-17.4,4.6-28.9,3.1s-3,47.6-3,47.6
			l122.5,121.2l109-159.3L726.8,499c0,0-13.3-58.2,38.3-122.8"/>
		<path fill="#D3957D" d="M698,690.6L571.2,565.2L571,564c-1.7-9.7-6.6-42,1-49.9c1.7-1.8,4-2.6,6.4-2.2c10,1.3,25.4-2.5,27.2-2.9
			c1.2-0.5,13.9-6.4,9.5-34.9c-3.4-22.1-22.5-54.2-32.8-71.5c-6.7-11.3-7.8-13.3-7.8-15.3h8c0-0.4-0.1-0.7-0.1-0.7
			c0.4,1.3,3.6,6.7,6.8,12c11.3,19,30.2,50.8,33.9,74.4c5.6,36.4-14.1,43.4-14.9,43.7l-0.3,0.1c-0.7,0.2-18.1,4.7-30.2,3.2
			c-2.4,2.9-2.6,20.2,1,41.6l118.2,116.9l103.3-151l-76.7-25.1l-0.5-2.2c-0.1-0.6-3.4-15.5-0.3-38.6c2.9-21.1,12.1-53.5,39.3-87.6
			l6.2,5c-44.3,55.5-39.5,106.4-37.9,117.3l82.4,27L698,690.6z"/>
	</g>
	<g>
		<g>
			<path fill="#EFC2A0" d="M672.2,470.1c-52.4,0-98.9-39.8-116.9-99.4c-1.2,0.2-2.4,0.3-3.6,0.3c-14.1,0-25.6-11.5-25.6-25.6
				c0-12.7,9.4-23.3,21.6-25.2c0-0.6,0-1.2,0-1.8c0-39.7,12.9-75.6,36.3-101.2c22.8-24.9,54.1-38.6,88.1-38.6
				c34,0,65.3,13.7,88.1,38.6c23.4,25.5,36.3,61.4,36.3,101.2c0,0.6,0,1.2,0,1.8c12.2,1.9,21.6,12.5,21.6,25.2
				c0,14.1-11.5,25.6-25.6,25.6c-1.2,0-2.4-0.1-3.6-0.3C771.1,430.3,724.6,470.1,672.2,470.1z"/>
		</g>
		<g>
			<g>
				<path fill="#D3957D" d="M672.2,182.7c66.5,0,120.5,54.2,120.5,135.7c0,1.8,0,3.6-0.1,5.4c0,0,0.1,0,0.1,0
					c11.9,0,21.6,9.7,21.6,21.6s-9.7,21.6-21.6,21.6c-2.2,0-4.4-0.3-6.4-1c-16.2,58.2-61.1,100.1-114.1,100.1
					c-52.9,0-97.9-41.9-114.1-100.1c-2,0.6-4.2,1-6.4,1c-11.9,0-21.6-9.7-21.6-21.6s9.7-21.6,21.6-21.6c0,0,0.1,0,0.1,0
					c-0.1-1.8-0.1-3.6-0.1-5.4C551.7,236.8,605.7,182.7,672.2,182.7 M672.2,174.7c-35.1,0-67.4,14.2-91.1,39.9
					c-11.8,12.9-21.1,28.2-27.4,45.5c-6.5,17.5-9.8,36.7-10,56.9c-12.4,3.5-21.6,14.9-21.6,28.4c0,16.3,13.3,29.5,29.5,29.5
					c0.3,0,0.5,0,0.8,0c19.1,59.6,66.5,99.1,119.7,99.1c53.2,0,100.6-39.5,119.7-99.1c0.3,0,0.5,0,0.8,0c16.3,0,29.5-13.3,29.5-29.5
					c0-13.5-9.1-25-21.6-28.5c-0.2-20.3-3.5-39.4-10-56.9c-6.4-17.3-15.6-32.6-27.4-45.5C739.7,188.9,707.3,174.7,672.2,174.7
					L672.2,174.7z"/>
			</g>
		</g>
	</g>
	<g>
		<g>
			<path fill="#D3957D" d="M655,358.5c-1.4,0-2.7-0.7-3.4-1.9c-1.1-1.9-0.5-4.3,1.4-5.5c0.8-0.5,19.5-11.4,38.6,0
				c1.9,1.1,2.5,3.6,1.4,5.5c-1.1,1.9-3.6,2.5-5.5,1.4c-15-9-30.3-0.1-30.4,0C656.4,358.4,655.7,358.5,655,358.5z"/>
		</g>
		<g>
			<g>
				<g>
					<path fill="#231F20" d="M726.8,325.5c-4.1,0-7.1-4.1-7.1-9.4c0-5.4,3.1-9.4,7.1-9.4s7.1,4.1,7.1,9.4
						C733.9,321.4,730.9,325.5,726.8,325.5z"/>
					<path fill="#231F20" d="M726.8,326c-4.4,0-7.6-4.3-7.6-9.9s3.3-9.9,7.6-9.9c4.4,0,7.6,4.3,7.6,9.9S731.1,326,726.8,326z
						 M726.8,307.1c-3.8,0-6.6,3.8-6.6,8.9c0,5.1,2.9,8.9,6.6,8.9c3.8,0,6.6-3.8,6.6-8.9C733.4,311,730.6,307.1,726.8,307.1z"/>
				</g>
			</g>
			<g>
				<g>
					<path fill="#231F20" d="M617.4,326.2c-4.1,0-7.1-4.1-7.1-9.4c0-5.4,3.1-9.4,7.1-9.4s7.1,4.1,7.1,9.4
						C624.5,322.1,621.4,326.2,617.4,326.2z"/>
					<path fill="#231F20" d="M617.4,326.7c-4.4,0-7.6-4.3-7.6-9.9s3.3-9.9,7.6-9.9c4.4,0,7.6,4.3,7.6,9.9S621.7,326.7,617.4,326.7z
						 M617.4,307.8c-3.8,0-6.6,3.8-6.6,8.9c0,5.1,2.9,8.9,6.6,8.9c3.8,0,6.6-3.8,6.6-8.9C624,311.6,621.2,307.8,617.4,307.8z"/>
				</g>
			</g>
			<g>
				<circle fill="none" cx="729.6" cy="313.3" r="2.8"/>
			</g>
			<g>
				<circle fill="none" cx="620.1" cy="313.3" r="2.8"/>
			</g>
		</g>
	</g>
	<g>
		<path fill="#CFAE84" d="M582.9,440.4"/>
	</g>
</g>
<g>
	<g>
		<path fill="#387BBF" d="M547.9,317.7c4.4-73.3,61-132.7,124.7-132.7c64.1,0,116.5,58.7,120.2,132.7c3.4-1.9,8.2-0.8,8.2-0.8
			c7,2,13,6.5,16.9,12.5c0-1.1,0-2.1,0-3.2c0-43.6-14.6-84.8-41.2-116c-13.3-15.5-28.8-27.8-46.2-36.4c-18.3-9.1-37.8-13.7-58-13.7
			c-20.1,0-39.6,4.6-58,13.7c-17.4,8.6-32.9,20.9-46.2,36.4c-26.6,31.2-41.2,72.4-41.2,116c0,1.1,0,7.6,0,8.7c4-7,13.5-14.6,22-15.1
			"/>
		<path fill="#2C5FA8" d="M523.4,349.6l-0.2-14.7c0-0.8,0-4.5,0-6.9l0-1.9c0-44.6,15-86.7,42.2-118.6c13.6-16,29.6-28.5,47.4-37.4
			c18.9-9.4,39-14.1,59.7-14.1c20.8,0,40.8,4.7,59.7,14.1c17.9,8.9,33.8,21.4,47.4,37.4c27.2,31.9,42.2,74,42.2,118.6
			c0,1.1,0,2.2,0,3.3l-0.2,13.1l-7.1-11.1c-3.4-5.3-8.5-9.1-14.5-10.8c-0.9-0.2-3.7-0.5-5.3,0.4l-5.6,3.1l-0.3-6.4
			c-3.7-72.3-54.8-128.9-116.3-128.9c-29.8,0-58.8,13.4-81.7,37.6c-23.1,24.5-37,56.9-39,91.4l-2.8-0.2l0.4,6
			c-7,0.4-15.3,7.1-18.7,13.1L523.4,349.6z M672.5,164c-19.5,0-38.4,4.5-56.2,13.3c-16.9,8.4-32,20.3-44.9,35.4
			c-25.5,29.9-39.8,69.4-40.3,111.2c3.7-3.3,8.2-6,12.8-7.3c2.3-36,16.9-69.9,41.1-95.6c24.4-25.9,55.5-40.1,87.5-40.1
			c64.4,0,118,57.4,123.9,131.6c2.7-0.2,5,0.3,5.4,0.4l0.2,0.1c4.3,1.2,8.3,3.3,11.7,6c-1.5-40-15.6-77.5-40.2-106.2
			c-12.9-15.1-28-27.1-44.9-35.4C710.9,168.5,692,164,672.5,164z"/>
	</g>
</g>
<g>
	<path fill="#FFFFFF" d="M674.1,435.1H673c-28.8,0-52.1-21.1-52.1-47.2v-1.6h105.2v1.6C726.1,414,702.8,435.1,674.1,435.1z"/>
	<path fill="#EA7D96" d="M674.1,439.1H673c-30.9,0-56.1-22.9-56.1-51.1v-1.6c0-2.2,1.8-4,4-4h105.2c2.2,0,4,1.8,4,4v1.6
		C730.1,416.2,705,439.1,674.1,439.1z M625,390.3c1.4,22.7,22.4,40.8,48,40.8h1.1c25.6,0,46.6-18.1,48-40.8H625z"/>
</g>
<g>
	<path fill="#D3957D" d="M774.8,227.7c-2.2,0-4.4,0.2-6.5,0.7c0-0.2,0-0.5,0-0.7c0-11.5-9.3-20.8-20.8-20.8
		c-11.5,0-20.8,9.3-20.8,20.8c0,10.7,8,19.4,18.4,20.6c-1.3,3.4-2,7.1-2,11c0,17.5,14.2,31.6,31.6,31.6s31.6-14.2,31.6-31.6
		S792.3,227.7,774.8,227.7z"/>
</g>
<g>
	<path fill="#FBFCFA" d="M574.9,514.3c1.8,1,3,2.8,3.2,4.8c1.9,16.6,21.9,88.2,100.2,88.2c0,0,103.2,2.5,106.4-91l78.4-2
		l-57.3,127.5l-2.6,137.3l-36.5,49.8l-143.4,0.8l-81.4,7.7c0,0-5.1-125.9-6.9-152.9c-1.8-27.1-44.5-50.2-68.8-184.6
		c0,0,36.9,0.2,77.5-24.4C543.7,475.5,553.2,502.7,574.9,514.3z"/>
	<path fill="#D3A789" d="M621.6,834.2l-67.2,30.7l-14.6,7.3c-0.1-1.7-6.9-160.9-8.7-187.6c-0.6-8.1-5.4-16.2-12.8-28.5
		c-14.8-24.6-39.7-65.7-55.9-155.7l-0.9-4.7l4.8,0c1.5,0,36.6-0.3,75.4-23.8l4.2-2.5l1.6,4.6c0.1,0.3,9.3,25.9,29.4,36.7
		c2.9,1.6,4.9,4.5,5.3,7.9c1,8.5,6.6,29.6,20.7,48.4c18.1,24.1,43.5,36.3,75.5,36.3c0.1,0,0.3,0,0.8,0c10.1,0,98.7-2.4,101.7-87.2
		l0.1-3.8l74.4-0.4l-45.5,128.9l0,1l-2.7,139.9l-39.5,51L621.6,834.2z M547.6,870.8l77.6-45.7l140.4,0l19.9-27.7l16.5-154.6
		l53-120.5l-66.3-2c-2.4,36.3-20.5,63.4-52.6,78.5c-25.6,12-51.9,12.6-56.9,12.6c0,0,0,0,0,0c-0.6,0-0.9,0-0.9,0
		c-34.1,0-62.4-13.6-81.8-39.5c-15.1-20.1-21.1-42.3-22.2-52.2c-0.1-0.8-0.5-1.4-1.1-1.7c-17.6-9.4-27.5-28-31.3-36.6
		c-31.3,17.8-59.8,21.6-70.8,22.4c16,85.4,39.8,124.8,54.1,148.5c7.7,12.8,13.3,22,14,32.1C540.7,709.8,547,856.1,547.6,870.8z"/>
</g>
<g>
	<g>
		<g>
			<path fill="#03D0FF" d="M768.2,465.9c1.4,12.1,10.1,24.3,10.1,36.7c0,178.1-152.4,322.5-330.5,322.5S125.2,680.7,125.2,502.6
				c0-4.5,0.1-9,0.3-13.5l-16.4-1.9H55.2l-38.9,7.1l-6.2,8.3l8.2,379.7l844-8L878,458.6l-93,8L768.2,465.9z"/>
		</g>
	</g>
</g>
<g>
	<g>
		<path fill="#D3957D" d="M892,473.3c0-15.4-10.2-28.3-24.2-32.5c-1-5.6-3.1-10.9-6-15.5c0.2,0,0.4,0,0.6,0
			c8.5,0,15.3-6.9,15.3-15.3c0-6.9-4.6-12.7-10.9-14.6c6.6-5.6,10.9-14,10.9-23.4c0-16.9-13.7-30.6-30.6-30.6c-0.1,0-0.2,0-0.4,0
			c-1.2-8.9-5.5-16.9-11.8-22.7c7.4-5.8,12.2-14.8,12.2-25c0-17.5-14.2-31.7-31.7-31.7c-4.9,0-9.5,1.1-13.6,3.1
			c0.8-2.7,1.2-5.5,1.2-8.3c0-16.8-13.6-30.4-30.4-30.4c-2.2,0-4.3,0.2-6.3,0.7c0-0.2,0-0.4,0-0.7c0-11-8.9-19.9-19.9-19.9
			c-11,0-19.9,8.9-19.9,19.9c0,10.2,7.7,18.7,17.7,19.8c-1.2,3.3-1.9,6.9-1.9,10.6c0,14.1,9.6,25.9,22.5,29.3c-1.9,3.2-2.9,7-2.9,11
			c0,11.9,9.5,21.6,21.4,21.9c-7.3,6.9-11.9,16.7-11.9,27.5c0,10.4,4.2,19.8,11,26.7c-6.7,5-11,13-11,22c0,3.7,0.7,7.3,2.1,10.5
			c-10.8,0.5-19.8,8-22.5,18c-17.4,1.4-31.1,15.9-31.1,33.6c0,7.8,2.6,14.9,7,20.6c-7.8,5.1-13,14-13,24.1
			c0,15.9,12.9,28.8,28.8,28.7c0.5,0,1,0,1.5,0c1.6,13.7,13.2,24.3,27.3,24.3c0.1,0,0.2,0,0.4,0c-0.3,1.6-0.5,3.3-0.5,5
			c0,15.2,12.3,27.6,27.6,27.5c13.1,0,24.1-9.2,26.9-21.5c20.5-1.3,36.7-18.4,36.7-39.3c0-0.1,0-0.1,0-0.2
			c10.2-4.1,17.4-14.1,17.4-25.8c0-0.6,0-1.1-0.1-1.6C887.2,493.2,892,483.8,892,473.3z"/>
		<path fill="#AA5B3F" d="M798.8,591.7L798.8,591.7c-17.4,0-31.5-14.1-31.6-31.5c0-0.4,0-0.9,0-1.3c-13-1.7-23.6-11.3-26.6-24.1
			c-17.2-1-30.9-15.3-30.9-32.7c0-9.7,4.2-18.7,11.5-24.9c-3.7-5.9-5.6-12.7-5.6-19.7c0-18.6,13.9-34.5,32-37.3
			c3.4-9,11-15.6,20.2-17.7c-0.6-2.4-0.8-4.8-0.8-7.2c0-8.5,3.3-16.5,9.3-22.4c-6-7.4-9.3-16.6-9.3-26.3c0-9.1,2.9-17.7,8.2-24.9
			c-10.3-3.4-17.7-13.1-17.7-24.6c0-2.9,0.5-5.9,1.5-8.6c-12.6-5.3-21-17.7-21.1-31.7c0-2.6,0.3-5.1,0.8-7.6
			c-9.7-3.1-16.6-12.2-16.6-22.8c0-13.2,10.7-23.9,23.9-23.9c11.9,0,21.8,8.7,23.6,20c0.9-0.1,1.7-0.1,2.6-0.1
			c19,0,34.4,15.4,34.4,34.3c0,0.8,0,1.5-0.1,2.3c2.8-0.7,5.6-1,8.6-1c19.7,0,35.7,16,35.7,35.7c0,9.6-3.7,18.5-10.4,25.2
			c4.7,5.3,7.9,11.7,9.4,18.6c17.7,1.5,31.6,16.4,31.6,34.4c0,8.2-2.9,16.1-8.1,22.3c5,3.5,8.1,9.3,8.1,15.8c0,8.7-5.7,16-13.6,18.4
			c1.4,3,2.5,6.1,3.2,9.3c14.7,5.4,24.8,19.7,24.8,35.5c0,10.7-4.4,20.7-12.2,27.9c0,12.1-6.8,22.9-17.4,28.2
			c-1.1,20.7-17,37.8-37.5,40.5C824.6,582.9,812.6,591.7,798.8,591.7z M771.7,551.1c1.2,0,2.3,0.5,3,1.4c0.8,0.9,1.1,2.1,0.9,3.3
			c-0.3,1.4-0.4,2.9-0.4,4.3c0,13,10.6,23.6,23.6,23.6v4l0-4c11.1,0,20.5-7.6,23-18.4c0.4-1.7,1.9-3,3.6-3.1
			c18.5-1.2,33-16.7,33-35.3l0-0.2c0-1.6,1-3.1,2.5-3.7c9.1-3.6,14.9-12.3,14.9-22.1c0-0.5,0-0.9,0-1.4c-0.1-1.3,0.5-2.5,1.4-3.3
			c6.9-5.7,10.8-14.1,10.8-23c0-13.1-8.8-24.9-21.4-28.6c-1.4-0.4-2.5-1.6-2.8-3.1c-0.9-5-2.7-9.7-5.5-14c-0.8-1.2-0.8-2.8-0.1-4.1
			c0.7-1.3,2.1-2.1,3.6-2c0.1,0,0.2,0,0.4,0l0.1,0c6.2,0,11.3-5.1,11.3-11.3c0-4.9-3.3-9.4-8-10.8c-1.4-0.4-2.5-1.6-2.7-3
			c-0.3-1.4,0.2-2.9,1.3-3.8c6-5.1,9.5-12.5,9.4-20.3c0-14.7-11.9-26.6-26.6-26.6l-0.3,0c-2.1,0-3.7-1.5-4-3.4
			c-1.1-7.8-4.8-15-10.6-20.3c-0.9-0.8-1.3-1.9-1.3-3.1c0-1.2,0.6-2.3,1.5-3c6.8-5.3,10.7-13.3,10.7-21.8
			c0-15.3-12.4-27.7-27.7-27.7c-4.2,0-8.2,0.9-11.9,2.7c-1.4,0.7-3.1,0.5-4.3-0.5c-1.2-1-1.7-2.6-1.3-4.1c0.7-2.4,1-4.8,1-7.3
			c0-14.5-11.8-26.4-26.4-26.4c-1.8,0-3.7,0.2-5.5,0.6c-1.2,0.3-2.4-0.1-3.4-0.8c-0.9-0.8-1.5-2-1.4-3.2c0-0.1,0-0.3,0-0.4l0-0.1
			c0-8.8-7.2-15.9-16-15.9c-8.8,0-16,7.2-16,16c0,8.1,6.1,14.9,14.1,15.8c1.2,0.1,2.3,0.8,2.9,1.9c0.6,1,0.8,2.3,0.3,3.5
			c-1.1,2.9-1.6,6-1.6,9.2c0,11.9,8,22.4,19.6,25.5c1.2,0.3,2.2,1.2,2.7,2.3s0.4,2.4-0.2,3.5c-1.6,2.7-2.4,5.8-2.4,9
			c0,9.8,7.7,17.7,17.5,18c1.6,0,3,1.1,3.6,2.6c0.6,1.5,0.2,3.2-1,4.3c-6.8,6.5-10.6,15.2-10.6,24.7c0,9,3.5,17.5,9.8,23.9
			c0.8,0.8,1.2,1.9,1.1,3.1c-0.1,1.1-0.7,2.2-1.6,2.9c-6,4.5-9.4,11.4-9.4,18.8c0,3.1,0.6,6.1,1.8,9c0.5,1.2,0.4,2.6-0.3,3.7
			c-0.7,1.1-1.9,1.8-3.2,1.8c-8.9,0.4-16.5,6.4-18.8,15.1c-0.4,1.6-1.9,2.8-3.5,2.9c-15.4,1.2-27.4,14.2-27.4,29.6
			c0,6.6,2.2,12.9,6.2,18.2c0.7,0.9,1,2,0.8,3.1c-0.2,1.1-0.8,2.1-1.7,2.7c-7,4.6-11.2,12.4-11.2,20.7c0,13.7,11.1,24.8,24.8,24.8
			c0.4,0,0.9,0,1.3,0c2.1-0.1,3.9,1.4,4.2,3.5c1.3,11.8,11.4,20.8,23.3,20.8L771.7,551.1C771.6,551.1,771.7,551.1,771.7,551.1z"/>
	</g>
	<g>
		<path fill="#D3957D" d="M713.7,197.8c0,0-2.8,20.1,24.7,22.5l1.1-6.7C739.4,213.5,724.7,202.2,713.7,197.8z"/>
	</g>
	<g>
		<g>
			<path fill="#AA5B3F" d="M730.5,222.9c-23.6-6.6-21.2-24-20.6-26.7c0-0.2,7.3,3.2,7.3,3.2c-0.2,3.7,1.4,12.4,15.9,16.5
				L730.5,222.9z"/>
		</g>
	</g>
</g>
<g>
	<g>
		<path fill="#77787C" d="M716.3,751.7c3.2,0,3.2-5,0-5S713.1,751.7,716.3,751.7L716.3,751.7z"/>
	</g>
</g>
<g>
	<path fill="#D3957D" d="M558.3,365.7c-2,0.6-4.2,1-6.4,1c-11.9,0-21.6-9.7-21.6-21.6c0-11.9,9.7-21.6,21.6-21.6
		c0,0-0.1,0.4-0.1,0.4c-0.1-1.8,0.1-4,0.1-5.8c0-1,0-2,0-3c-4.1,0.5-6.8,1.2-8,1.5c0,0,0,0,0,0c-12.4,3.5-21.6,14.9-21.6,28.4
		c0,16.3,13.3,29.5,29.5,29.5c0.3,0,0.5,0,0.8,0c1.9,5.9,4.1,11.6,6.5,17h8.8C564.1,383.4,560.9,374.7,558.3,365.7z"/>
</g>
<g>
	<path fill="#D3957D" d="M549.5,321.5l1.1,2.4c0,0-9.3-0.3-16.3,8.8l-4.5-1.7l11.7-9.5H549.5z"/>
</g>
<g>
	<g>
		<g>
			<circle fill="#74D3ED" cx="352.5" cy="597.4" r="41.2"/>
			<path fill="#59B8E2" d="M352.5,642.6c-24.9,0-45.2-20.3-45.2-45.2c0-24.9,20.3-45.2,45.2-45.2c24.9,0,45.2,20.3,45.2,45.2
				C397.7,622.3,377.4,642.6,352.5,642.6z M352.5,560.2c-20.5,0-37.2,16.7-37.2,37.2s16.7,37.2,37.2,37.2
				c20.5,0,37.2-16.7,37.2-37.2S373.1,560.2,352.5,560.2z"/>
		</g>
		<g>
			<rect x="349.5" y="582.6" fill="#FBFCFA" width="8" height="55"/>
		</g>
		<g>
			<path fill="#FBFCFA" d="M337.7,605.2c-0.8,0-1.6-0.2-2.3-0.8c-1.8-1.3-2.2-3.8-0.9-5.6l14.7-20.2c0.7-0.9,1.7-1.5,2.9-1.6
				c1.2-0.1,2.3,0.3,3.1,1.2l15.8,15.8c1.6,1.6,1.6,4.1,0,5.6c-1.6,1.6-4.1,1.6-5.6,0l-12.5-12.5l-12,16.4
				C340.2,604.6,339,605.2,337.7,605.2z"/>
		</g>
		<g>
			<path fill="#59B8E2" d="M352.4,642.6c-24.9,0-45.2-20.3-45.2-45.2c0-24.9,20.3-45.2,45.2-45.2s45.2,20.3,45.2,45.2
				C397.5,622.3,377.3,642.6,352.4,642.6z M352.4,560.2c-20.5,0-37.2,16.7-37.2,37.2s16.7,37.2,37.2,37.2s37.2-16.7,37.2-37.2
				S372.9,560.2,352.4,560.2z"/>
		</g>
	</g>
	<g>
		<path fill="#FBFCFA" d="M320.8,591.1c-0.5,0-0.9-0.1-1.4-0.2c-2.1-0.8-3.1-3-2.4-5.1c7.9-21.4,27.1-24.6,27.9-24.8
			c2.2-0.3,4.2,1.1,4.5,3.3c0.3,2.2-1.1,4.2-3.3,4.5c-0.7,0.1-15.5,2.8-21.7,19.6C323.9,590.1,322.4,591.1,320.8,591.1z"/>
	</g>
</g>
</svg>
