<?xml version="1.0" encoding="utf-8"?>
<!-- Generator: Adobe Illustrator 17.1.0, SVG Export Plug-In . SVG Version: 6.00 Build 0)  -->
<!DOCTYPE svg PUBLIC "-//W3C//DTD SVG 1.1//EN" "http://www.w3.org/Graphics/SVG/1.1/DTD/svg11.dtd">
<svg version="1.1" xmlns="http://www.w3.org/2000/svg" xmlns:xlink="http://www.w3.org/1999/xlink" x="0px" y="0px"
	 viewBox="0 0 55 45.8" enable-background="new 0 0 55 45.8" xml:space="preserve">
<g id="Layer_5">
	<path fill="#86D4EF" stroke="#86D4EF" stroke-width="0.5" stroke-miterlimit="10" d="M7.1,33c3,4.4,8.1,7.3,13.9,7.3
		c3.7,0,7.1-1.2,9.9-3.2V33H7.1z"/>
	<path fill="#86D4EF" stroke="#86D4EF" stroke-width="0.5" stroke-miterlimit="10" d="M30.8,9.7c-2.8-2-6.2-3.2-9.9-3.2
		c-6.1,0-11.5,3.3-14.4,8.2h24.3V9.7z"/>
	<path fill="#45BC98" stroke="#45BC98" stroke-width="0.5" stroke-miterlimit="10" d="M51.5,23.1L31.6,4.7c-0.3-0.3-0.8-0.1-0.8,0.3
		v2.3v2.4v5H6.6c-1.5,2.5-2.4,5.5-2.4,8.7c0,3.6,1.1,6.8,3,9.6h23.7v4.1v2.4v2.3c0,0.4,0.5,0.6,0.8,0.3l19.9-18.4
		C51.7,23.5,51.7,23.2,51.5,23.1z"/>
</g>
<g id="Layer_6">
	<rect fill="#FFFFFF" width="55" height="45.8"/>
	<g id="Layer_4">
		<path fill="#86D4EF" stroke="#86D4EF" stroke-width="0.5" stroke-miterlimit="10" d="M7.1,33c3,4.4,8.1,7.3,13.9,7.3
			c3.7,0,7.1-1.2,9.9-3.2V33H7.1z"/>
		<path fill="#86D4EF" stroke="#86D4EF" stroke-width="0.5" stroke-miterlimit="10" d="M30.8,9.7c-2.8-2-6.2-3.2-9.9-3.2
			c-6.1,0-11.5,3.3-14.4,8.2h24.3V9.7z"/>
		<path fill="#FEDA00" stroke="#FEDA00" stroke-width="0.5" stroke-miterlimit="10" d="M51.5,23.1L31.6,4.7
			c-0.3-0.3-0.8-0.1-0.8,0.3v2.3v2.4v5H6.6c-1.5,2.5-2.4,5.5-2.4,8.7c0,3.6,1.1,6.8,3,9.6h23.7v4.1v2.4v2.3c0,0.4,0.5,0.6,0.8,0.3
			l19.9-18.4C51.7,23.5,51.7,23.2,51.5,23.1z"/>
	</g>
</g>
<g id="Layer_3">
	<path fill="#86D4EF" stroke="#86D4EF" stroke-width="0.5" stroke-miterlimit="10" d="M7.1,33c3,4.4,8.1,7.3,13.9,7.3
		c3.7,0,7.1-1.2,9.9-3.2V33H7.1z"/>
	<path fill="#86D4EF" stroke="#86D4EF" stroke-width="0.5" stroke-miterlimit="10" d="M30.8,9.7c-2.8-2-6.2-3.2-9.9-3.2
		c-6.1,0-11.5,3.3-14.4,8.2h24.3V9.7z"/>
	<path fill="#307CC0" stroke="#307CC0" stroke-width="0.5" stroke-miterlimit="10" d="M51.5,23.1L31.6,4.7c-0.3-0.3-0.8-0.1-0.8,0.3
		v2.3v2.4v5H6.6c-1.5,2.5-2.4,5.5-2.4,8.7c0,3.6,1.1,6.8,3,9.6h23.7v4.1v2.4v2.3c0,0.4,0.5,0.6,0.8,0.3l19.9-18.4
		C51.7,23.5,51.7,23.2,51.5,23.1z"/>
</g>
<g id="Layer_7">
	<rect fill="#FFFFFF" width="55" height="45.8"/>
</g>
<g id="Layer_2">
	<path fill="#86D4EF" stroke="#86D4EF" stroke-width="0.5" stroke-miterlimit="10" d="M7.1,33c3,4.4,8.1,7.3,13.9,7.3
		c3.7,0,7.1-1.2,9.9-3.2V33H7.1z"/>
	<g>
		<path fill="#EF4144" stroke="#EF4144" stroke-width="0.5" stroke-miterlimit="10" d="M51.5,23.1L31.6,4.7
			c-0.3-0.3-0.8-0.1-0.8,0.3v2.3v2.4v5H6.6c-1.5,2.5-2.4,5.5-2.4,8.7c0,3.6,1.1,6.8,3,9.6h23.7v4.1v2.4v2.3c0,0.4,0.5,0.6,0.8,0.3
			l19.9-18.4C51.7,23.5,51.7,23.2,51.5,23.1z"/>
		<path fill="#86D4EF" stroke="#86D4EF" stroke-width="0.5" stroke-miterlimit="10" d="M30.8,9.7c-2.8-2-6.2-3.2-9.9-3.2
			c-6.1,0-11.5,3.3-14.4,8.2h24.3V9.7z"/>
	</g>
</g>
<g id="Layer_1">
	<path fill="#433F3C" d="M31.3,15.2H5.9l0.3-0.8C9.3,9.2,14.9,6,21,6c3.7,0,7.2,1.1,10.2,3.3l0.2,0.1V15.2z M7.5,14.2h22.9V10
		c-2.8-1.9-6-3-9.4-3C15.5,7,10.5,9.7,7.5,14.2z"/>
	<g>
		<path fill="#433F3C" d="M21,40.8c-5.7,0-11.1-2.8-14.3-7.5l-0.2-0.8h24.9v4.9l-0.2,0.1C28.2,39.6,24.6,40.8,21,40.8z M8.1,33.5
			c3.1,4,7.8,6.3,12.9,6.3c3.4,0,6.6-1,9.4-3v-3.3H8.1z"/>
		<path fill="#433F3C" d="M31.3,42.7C31.3,42.7,31.3,42.7,31.3,42.7c-0.5,0-1-0.4-1-0.9v-8.3H6.8l-0.1-0.2c-2-2.9-3.1-6.3-3.1-9.8
			c0-3.1,0.9-6.3,2.5-9l0.1-0.2h24.1V5c0-0.5,0.4-0.9,1-0.9c0.2,0,0.5,0.1,0.6,0.3l19.9,18.4c0.2,0.2,0.3,0.4,0.3,0.7
			c0,0.3-0.1,0.5-0.3,0.7L31.9,42.5C31.8,42.7,31.5,42.7,31.3,42.7z M7.4,32.5h24v9.2l19.8-18.3L31.3,5l0.1,2.3v7.9H6.8
			c-1.5,2.5-2.2,5.3-2.2,8.2C4.6,26.6,5.6,29.8,7.4,32.5z"/>
	</g>
</g>
<g id="Layer_8">
	<rect x="9.9" y="19.5" fill="none" width="32.9" height="13"/>
	
		<text transform="matrix(1 0 0 1 9.9315 27.0601)" fill="#433F3C" stroke="#433F3C" stroke-width="0.55" stroke-linecap="round" stroke-linejoin="round" stroke-miterlimit="10" font-family="'Avenir-Light'" font-size="10" letter-spacing="1">NEXT</text>
</g>
</svg>
